<svg id="Слой_1" data-name="Слой 1" xmlns="http://www.w3.org/2000/svg" xmlns:xlink="http://www.w3.org/1999/xlink" viewBox="0 0 970.3341 770.25092"><defs><style>.cls-1{fill:url(#Безымянный_градиент_81);}.cls-2{fill:url(#Безымянный_градиент_81-2);}.cls-3{fill:url(#Безымянный_градиент_81-3);}.cls-4{fill:url(#Безымянный_градиент_33);}.cls-5{fill:url(#Безымянный_градиент_4);}.cls-6{fill:url(#Безымянный_градиент_33-2);}.cls-7{fill:url(#Безымянный_градиент_4-2);}.cls-8{fill:url(#Безымянный_градиент_8);}.cls-9{fill:url(#Безымянный_градиент_48);}.cls-10{fill:url(#Безымянный_градиент_33-3);}.cls-11{fill:url(#Безымянный_градиент_33-4);}.cls-12{fill:url(#Безымянный_градиент_8-2);}.cls-13{fill:url(#Безымянный_градиент_48-2);}.cls-14{fill:url(#Безымянный_градиент_40);}.cls-15{fill:url(#Безымянный_градиент_40-2);}.cls-16{fill:url(#Безымянный_градиент_40-3);}.cls-17{fill:url(#Безымянный_градиент_40-4);}.cls-18{fill:url(#Безымянный_градиент_40-5);}.cls-19{fill:url(#Безымянный_градиент_40-6);}.cls-20{fill:url(#Безымянный_градиент_40-7);}.cls-21{fill:url(#Безымянный_градиент_40-8);}.cls-22{fill:url(#Безымянный_градиент_40-9);}.cls-23{fill:url(#Безымянный_градиент_40-10);}.cls-24{fill:url(#Безымянный_градиент_40-11);}.cls-25{fill:url(#Безымянный_градиент_40-12);}.cls-26{fill:url(#Безымянный_градиент_40-13);}.cls-27{fill:url(#Безымянный_градиент_40-14);}.cls-28{fill:url(#Безымянный_градиент_40-15);}.cls-29{fill:url(#Безымянный_градиент_40-16);}.cls-30{fill:url(#Безымянный_градиент_40-17);}.cls-31{fill:url(#Безымянный_градиент_40-18);}.cls-32{fill:url(#Безымянный_градиент_40-19);}.cls-33{fill:url(#Безымянный_градиент_40-20);}.cls-34{fill:url(#Безымянный_градиент_40-21);}.cls-35{fill:url(#Безымянный_градиент_40-22);}.cls-36{fill:url(#Безымянный_градиент_40-23);}.cls-37{fill:url(#Безымянный_градиент_40-24);}.cls-38{fill:url(#Безымянный_градиент_40-25);}.cls-39{fill:url(#Безымянный_градиент_40-26);}.cls-40{fill:url(#Безымянный_градиент_40-27);}.cls-41{fill:url(#Безымянный_градиент_40-28);}.cls-42{fill:url(#Безымянный_градиент_40-29);}.cls-43{fill:url(#Безымянный_градиент_40-30);}.cls-44{fill:url(#Безымянный_градиент_40-31);}.cls-45{fill:url(#Безымянный_градиент_40-32);}.cls-46{fill:url(#Безымянный_градиент_40-33);}.cls-47{fill:url(#Безымянный_градиент_40-34);}.cls-48{fill:url(#Безымянный_градиент_52);}.cls-49{fill:url(#Безымянный_градиент_33-5);}.cls-50{fill:url(#Безымянный_градиент_48-3);}.cls-51{fill:url(#Безымянный_градиент_48-4);}.cls-52{fill:url(#Безымянный_градиент_8-3);}.cls-53{fill:url(#Безымянный_градиент_33-6);}.cls-54{fill:url(#Безымянный_градиент_48-5);}.cls-55{fill:url(#Безымянный_градиент_48-6);}.cls-56{fill:url(#Безымянный_градиент_4-3);}.cls-57{fill:url(#Безымянный_градиент_40-35);}.cls-58{fill:url(#Безымянный_градиент_8-4);}.cls-59{fill:url(#Безымянный_градиент_33-7);}.cls-60{fill:url(#Безымянный_градиент_48-7);}.cls-61{fill:url(#Безымянный_градиент_48-8);}.cls-62{fill:url(#Безымянный_градиент_4-4);}.cls-63{fill:url(#Безымянный_градиент_40-36);}.cls-64{fill:url(#Безымянный_градиент_33-8);}.cls-65{fill:url(#Безымянный_градиент_8-5);}.cls-66{fill:url(#Безымянный_градиент_48-9);}.cls-67{fill:url(#Безымянный_градиент_8-6);}.cls-68{fill:url(#Безымянный_градиент_8-7);}.cls-69{fill:url(#Безымянный_градиент_33-9);}.cls-70{fill:url(#Безымянный_градиент_48-10);}.cls-71{fill:url(#Безымянный_градиент_33-10);}.cls-72{fill:url(#Безымянный_градиент_48-11);}.cls-73{fill:url(#Безымянный_градиент_8-8);}.cls-74{fill:url(#Безымянный_градиент_33-11);}.cls-75{fill:url(#Безымянный_градиент_48-12);}.cls-76{fill:url(#Безымянный_градиент_33-12);}.cls-77{fill:url(#Безымянный_градиент_48-13);}.cls-78{fill:url(#Безымянный_градиент_33-13);}.cls-79{fill:url(#Безымянный_градиент_48-14);}.cls-80{fill:url(#Безымянный_градиент_33-14);}.cls-81{fill:url(#Безымянный_градиент_48-15);}.cls-82{fill:url(#Безымянный_градиент_33-15);}.cls-83{fill:url(#Безымянный_градиент_48-16);}.cls-84{fill:url(#Безымянный_градиент_33-16);}.cls-85{fill:url(#Безымянный_градиент_48-17);}.cls-86{fill:url(#Безымянный_градиент_33-17);}.cls-87{fill:url(#Безымянный_градиент_48-18);}.cls-88{fill:url(#Безымянный_градиент_33-18);}.cls-89{fill:url(#Безымянный_градиент_48-19);}.cls-90{fill:url(#Безымянный_градиент_33-19);}.cls-91{fill:url(#Безымянный_градиент_48-20);}.cls-92{fill:url(#Безымянный_градиент_33-20);}.cls-93{fill:url(#Безымянный_градиент_48-21);}.cls-94{fill:url(#Безымянный_градиент_33-21);}.cls-95{fill:url(#Безымянный_градиент_48-22);}.cls-96{fill:url(#Безымянный_градиент_33-22);}.cls-97{fill:url(#Безымянный_градиент_48-23);}.cls-98{fill:url(#Безымянный_градиент_33-23);}.cls-99{fill:url(#Безымянный_градиент_48-24);}.cls-100{fill:url(#Безымянный_градиент_33-24);}.cls-101{fill:url(#Безымянный_градиент_8-9);}.cls-102{fill:url(#Безымянный_градиент_4-5);}.cls-103{fill:url(#Безымянный_градиент_8-10);}.cls-104{fill:url(#Безымянный_градиент_4-6);}.cls-105{fill:url(#Безымянный_градиент_8-11);}.cls-106{fill:url(#Безымянный_градиент_4-7);}.cls-107{fill:url(#Безымянный_градиент_8-12);}.cls-108{fill:url(#Безымянный_градиент_4-8);}.cls-109{fill:url(#Безымянный_градиент_8-13);}.cls-110{fill:url(#Безымянный_градиент_4-9);}.cls-111{fill:url(#Безымянный_градиент_8-14);}.cls-112{fill:url(#Безымянный_градиент_4-10);}.cls-113{fill:url(#Безымянный_градиент_8-15);}.cls-114{fill:url(#Безымянный_градиент_4-11);}.cls-115{fill:url(#Безымянный_градиент_8-16);}.cls-116{fill:url(#Безымянный_градиент_4-12);}.cls-117{fill:url(#Безымянный_градиент_8-17);}.cls-118{fill:url(#Безымянный_градиент_4-13);}.cls-119{fill:url(#Безымянный_градиент_4-14);}.cls-120{fill:url(#Безымянный_градиент_8-18);}.cls-121{fill:url(#Безымянный_градиент_4-15);}.cls-122{fill:url(#Безымянный_градиент_8-19);}.cls-123{fill:url(#Безымянный_градиент_4-16);}.cls-124{fill:url(#Безымянный_градиент_8-20);}.cls-125{fill:url(#Безымянный_градиент_4-17);}.cls-126{fill:url(#Безымянный_градиент_8-21);}.cls-127{fill:url(#Безымянный_градиент_4-18);}.cls-128{fill:url(#Безымянный_градиент_48-25);}.cls-129{fill:url(#Безымянный_градиент_4-19);}.cls-130{fill:url(#Безымянный_градиент_8-22);}.cls-131{fill:url(#Безымянный_градиент_4-20);}.cls-132{fill:url(#Безымянный_градиент_48-26);}.cls-133{fill:url(#Безымянный_градиент_4-21);}.cls-134{fill:url(#Безымянный_градиент_8-23);}.cls-135{fill:url(#Безымянный_градиент_4-22);}.cls-136{fill:url(#Безымянный_градиент_8-24);}.cls-137{fill:url(#Безымянный_градиент_4-23);}.cls-138{fill:url(#Безымянный_градиент_8-25);}.cls-139{fill:url(#Безымянный_градиент_4-24);}.cls-140{fill:url(#Безымянный_градиент_8-26);}.cls-141{fill:url(#Безымянный_градиент_4-25);}.cls-142{fill:url(#Безымянный_градиент_8-27);}.cls-143{fill:url(#Безымянный_градиент_4-26);}.cls-144{fill:url(#Безымянный_градиент_8-28);}.cls-145{fill:url(#Безымянный_градиент_8-29);}.cls-146{fill:url(#Безымянный_градиент_4-27);}.cls-147{fill:url(#Безымянный_градиент_33-25);}.cls-148{fill:url(#Безымянный_градиент_40-37);}.cls-149{fill:url(#Безымянный_градиент_48-27);}.cls-150{fill:url(#Безымянный_градиент_38);}.cls-151{fill:url(#Безымянный_градиент_33-26);}.cls-152{fill:url(#Безымянный_градиент_48-28);}.cls-153{fill:url(#Безымянный_градиент_48-29);}.cls-154{fill:url(#Безымянный_градиент_38-2);}.cls-155{fill:url(#Безымянный_градиент_33-27);}.cls-156{fill:url(#Безымянный_градиент_48-30);}.cls-157{fill:url(#Безымянный_градиент_38-3);}.cls-158{fill:url(#Безымянный_градиент_48-31);}.cls-159{fill:url(#Безымянный_градиент_48-32);}.cls-160{fill:url(#Безымянный_градиент_63);}.cls-161{fill:url(#Безымянный_градиент_8-30);}.cls-162{fill:url(#Безымянный_градиент_48-33);}.cls-163{fill:url(#Безымянный_градиент_8-31);}.cls-164{fill:url(#Безымянный_градиент_38-4);}.cls-165{fill:url(#Безымянный_градиент_38-5);}.cls-166{fill:url(#Безымянный_градиент_48-34);}.cls-167{fill:url(#Безымянный_градиент_48-35);}.cls-168{fill:url(#Безымянный_градиент_33-28);}.cls-169{fill:url(#Безымянный_градиент_4-28);}.cls-170{fill:url(#Безымянный_градиент_48-36);}.cls-171{fill:url(#Безымянный_градиент_38-6);}.cls-172{fill:url(#Безымянный_градиент_38-7);}.cls-173{fill:url(#Безымянный_градиент_4-29);}.cls-174{fill:url(#Безымянный_градиент_86);}.cls-175{fill:url(#Безымянный_градиент_64);}.cls-176{fill:url(#Безымянный_градиент_96);}.cls-177{fill:url(#Безымянный_градиент_65);}.cls-178{fill:url(#Безымянный_градиент_86-2);}.cls-179{fill:url(#Безымянный_градиент_77);}.cls-180{fill:url(#Безымянный_градиент_64-2);}.cls-181{fill:url(#Безымянный_градиент_96-2);}.cls-182{fill:url(#Безымянный_градиент_86-3);}</style><linearGradient id="Безымянный_градиент_81" x1="-5469.43168" y1="1842.01384" x2="-4930.47075" y2="1842.01384" gradientTransform="translate(5794.65179 -239.79781) rotate(10.74042)" gradientUnits="userSpaceOnUse"><stop offset="0" stop-color="#b5b5c1" stop-opacity="0.3"/><stop offset="0.99512" stop-color="#fdfdfd" stop-opacity="0"/></linearGradient><linearGradient id="Безымянный_градиент_81-2" x1="-5271.50284" y1="1642.02871" x2="-4760.84075" y2="1642.02871" xlink:href="#Безымянный_градиент_81"/><linearGradient id="Безымянный_градиент_81-3" x1="-5110.46958" y1="1747.95588" x2="-4599.80749" y2="1747.95588" xlink:href="#Безымянный_градиент_81"/><linearGradient id="Безымянный_градиент_33" x1="412.35397" y1="914.62929" x2="712.7435" y2="914.62929" gradientTransform="translate(62.53984 -311.77894) rotate(3.37439)" gradientUnits="userSpaceOnUse"><stop offset="0.57561" stop-color="#fbfbfd"/><stop offset="1" stop-color="#f3f3f5"/></linearGradient><linearGradient id="Безымянный_градиент_4" x1="412.35524" y1="939.78795" x2="712.74464" y2="939.78795" gradientTransform="translate(62.53984 -311.77894) rotate(3.37439)" gradientUnits="userSpaceOnUse"><stop offset="0.00732" stop-color="#f0eff4"/><stop offset="0.6439" stop-color="#d2cfda"/><stop offset="1" stop-color="#b5b5c1"/></linearGradient><linearGradient id="Безымянный_градиент_33-2" x1="434.01158" y1="628.84682" x2="690.66659" y2="628.84682" gradientTransform="matrix(1, 0, 0, 1, 0, 0)" xlink:href="#Безымянный_градиент_33"/><linearGradient id="Безымянный_градиент_4-2" x1="434.01266" y1="647.94539" x2="690.66756" y2="647.94539" gradientTransform="matrix(1, 0, 0, 1, 0, 0)" xlink:href="#Безымянный_градиент_4"/><linearGradient id="Безымянный_градиент_8" x1="169.01883" y1="302.67649" x2="292.3612" y2="302.67649" gradientUnits="userSpaceOnUse"><stop offset="0" stop-color="#f0eff4"/><stop offset="1" stop-color="#fdfdfd"/></linearGradient><linearGradient id="Безымянный_градиент_48" x1="292.3612" y1="273.00494" x2="518.48903" y2="273.00494" gradientUnits="userSpaceOnUse"><stop offset="0" stop-color="#b5b5c1"/><stop offset="0.3561" stop-color="#d2cfda"/><stop offset="0.99268" stop-color="#f0eff4"/></linearGradient><linearGradient id="Безымянный_градиент_33-3" x1="169.01883" y1="106.84418" x2="518.48903" y2="106.84418" gradientTransform="matrix(1, 0, 0, 1, 0, 0)" xlink:href="#Безымянный_градиент_33"/><linearGradient id="Безымянный_градиент_33-4" x1="107.34756" y1="403.55981" x2="580.16025" y2="403.55981" gradientTransform="matrix(1, 0, 0, 1, 0, 0)" xlink:href="#Безымянный_градиент_33"/><linearGradient id="Безымянный_градиент_8-2" x1="107.34756" y1="456.96861" x2="292.3612" y2="456.96861" xlink:href="#Безымянный_градиент_8"/><linearGradient id="Безымянный_градиент_48-2" x1="292.36119" y1="427.2971" x2="580.16025" y2="427.2971" xlink:href="#Безымянный_градиент_48"/><linearGradient id="Безымянный_градиент_40" x1="189.71553" y1="201.89578" x2="209.92998" y2="201.89578" gradientUnits="userSpaceOnUse"><stop offset="0.00732" stop-color="#d2cfda"/><stop offset="1" stop-color="#fbfbfd"/></linearGradient><linearGradient id="Безымянный_градиент_40-2" x1="220.58279" y1="219.49777" x2="240.79724" y2="219.49777" xlink:href="#Безымянный_градиент_40"/><linearGradient id="Безымянный_градиент_40-3" x1="251.45005" y1="237.09975" x2="271.6645" y2="237.09975" xlink:href="#Безымянный_градиент_40"/><linearGradient id="Безымянный_градиент_40-4" x1="189.71553" y1="261.33996" x2="209.92998" y2="261.33996" xlink:href="#Безымянный_градиент_40"/><linearGradient id="Безымянный_градиент_40-5" x1="220.58279" y1="278.94195" x2="240.79724" y2="278.94195" xlink:href="#Безымянный_градиент_40"/><linearGradient id="Безымянный_градиент_40-6" x1="251.45005" y1="296.54393" x2="271.6645" y2="296.54393" xlink:href="#Безымянный_градиент_40"/><linearGradient id="Безымянный_градиент_40-7" x1="189.71553" y1="320.78414" x2="209.92998" y2="320.78414" xlink:href="#Безымянный_градиент_40"/><linearGradient id="Безымянный_градиент_40-8" x1="220.58279" y1="338.38613" x2="240.79724" y2="338.38613" xlink:href="#Безымянный_градиент_40"/><linearGradient id="Безымянный_градиент_40-9" x1="251.45005" y1="355.98811" x2="271.6645" y2="355.98811" xlink:href="#Безымянный_градиент_40"/><linearGradient id="Безымянный_градиент_40-10" x1="189.71553" y1="380.22832" x2="209.92998" y2="380.22832" xlink:href="#Безымянный_градиент_40"/><linearGradient id="Безымянный_градиент_40-11" x1="220.58279" y1="397.8303" x2="240.79724" y2="397.8303" xlink:href="#Безымянный_градиент_40"/><linearGradient id="Безымянный_градиент_40-12" x1="251.45005" y1="415.43229" x2="271.6645" y2="415.43229" xlink:href="#Безымянный_градиент_40"/><linearGradient id="Безымянный_градиент_40-13" x1="1348.42399" y1="316.77032" x2="1368.63843" y2="316.77032" gradientTransform="matrix(-1, 0, 0, 1, 1743.4795, -114.87454)" xlink:href="#Безымянный_градиент_40"/><linearGradient id="Безымянный_градиент_40-14" x1="1379.29125" y1="334.37231" x2="1399.50569" y2="334.37231" gradientTransform="matrix(-1, 0, 0, 1, 1743.4795, -114.87454)" xlink:href="#Безымянный_градиент_40"/><linearGradient id="Безымянный_градиент_40-15" x1="1410.15851" y1="351.97429" x2="1430.37295" y2="351.97429" gradientTransform="matrix(-1, 0, 0, 1, 1743.4795, -114.87454)" xlink:href="#Безымянный_градиент_40"/><linearGradient id="Безымянный_градиент_40-16" x1="1348.42399" y1="376.2145" x2="1368.63843" y2="376.2145" gradientTransform="matrix(-1, 0, 0, 1, 1743.4795, -114.87454)" xlink:href="#Безымянный_градиент_40"/><linearGradient id="Безымянный_градиент_40-17" x1="1379.29125" y1="393.81649" x2="1399.50569" y2="393.81649" gradientTransform="matrix(-1, 0, 0, 1, 1743.4795, -114.87454)" xlink:href="#Безымянный_градиент_40"/><linearGradient id="Безымянный_градиент_40-18" x1="1410.15851" y1="411.41847" x2="1430.37295" y2="411.41847" gradientTransform="matrix(-1, 0, 0, 1, 1743.4795, -114.87454)" xlink:href="#Безымянный_градиент_40"/><linearGradient id="Безымянный_градиент_40-19" x1="1348.42399" y1="435.65868" x2="1368.63843" y2="435.65868" gradientTransform="matrix(-1, 0, 0, 1, 1743.4795, -114.87454)" xlink:href="#Безымянный_градиент_40"/><linearGradient id="Безымянный_градиент_40-20" x1="1379.29125" y1="453.26067" x2="1399.50569" y2="453.26067" gradientTransform="matrix(-1, 0, 0, 1, 1743.4795, -114.87454)" xlink:href="#Безымянный_градиент_40"/><linearGradient id="Безымянный_градиент_40-21" x1="1410.15851" y1="470.86265" x2="1430.37295" y2="470.86265" gradientTransform="matrix(-1, 0, 0, 1, 1743.4795, -114.87454)" xlink:href="#Безымянный_градиент_40"/><linearGradient id="Безымянный_градиент_40-22" x1="1379.29125" y1="512.70485" x2="1399.50569" y2="512.70485" gradientTransform="matrix(-1, 0, 0, 1, 1743.4795, -114.87454)" xlink:href="#Безымянный_градиент_40"/><linearGradient id="Безымянный_градиент_40-23" x1="1410.15851" y1="530.30683" x2="1430.37295" y2="530.30683" gradientTransform="matrix(-1, 0, 0, 1, 1743.4795, -114.87454)" xlink:href="#Безымянный_градиент_40"/><linearGradient id="Безымянный_градиент_40-24" x1="1235.36501" y1="257.59566" x2="1276.31987" y2="257.59566" gradientTransform="matrix(-1, 0, 0, 1, 1743.4795, -114.87454)" xlink:href="#Безымянный_градиент_40"/><linearGradient id="Безымянный_градиент_40-25" x1="1235.36501" y1="316.77032" x2="1276.31987" y2="316.77032" gradientTransform="matrix(-1, 0, 0, 1, 1743.4795, -114.87454)" xlink:href="#Безымянный_градиент_40"/><linearGradient id="Безымянный_градиент_40-26" x1="1235.36501" y1="376.2145" x2="1276.31987" y2="376.2145" gradientTransform="matrix(-1, 0, 0, 1, 1743.4795, -114.87454)" xlink:href="#Безымянный_градиент_40"/><linearGradient id="Безымянный_градиент_40-27" x1="1235.36501" y1="435.65868" x2="1276.31987" y2="435.65868" gradientTransform="matrix(-1, 0, 0, 1, 1743.4795, -114.87454)" xlink:href="#Безымянный_градиент_40"/><linearGradient id="Безымянный_градиент_40-28" x1="1286.97268" y1="281.26656" x2="1307.18713" y2="281.26656" gradientTransform="matrix(-1, 0, 0, 1, 1743.4795, -114.87454)" xlink:href="#Безымянный_градиент_40"/><linearGradient id="Безымянный_градиент_40-29" x1="1317.83994" y1="298.86854" x2="1338.05439" y2="298.86854" gradientTransform="matrix(-1, 0, 0, 1, 1743.4795, -114.87454)" xlink:href="#Безымянный_градиент_40"/><linearGradient id="Безымянный_градиент_40-30" x1="1286.97268" y1="340.71074" x2="1307.18713" y2="340.71074" gradientTransform="matrix(-1, 0, 0, 1, 1743.4795, -114.87454)" xlink:href="#Безымянный_градиент_40"/><linearGradient id="Безымянный_градиент_40-31" x1="1317.83994" y1="358.31272" x2="1338.05439" y2="358.31272" gradientTransform="matrix(-1, 0, 0, 1, 1743.4795, -114.87454)" xlink:href="#Безымянный_градиент_40"/><linearGradient id="Безымянный_градиент_40-32" x1="1286.97268" y1="400.15492" x2="1307.18713" y2="400.15492" gradientTransform="matrix(-1, 0, 0, 1, 1743.4795, -114.87454)" xlink:href="#Безымянный_градиент_40"/><linearGradient id="Безымянный_градиент_40-33" x1="1317.83994" y1="417.7569" x2="1338.05439" y2="417.7569" gradientTransform="matrix(-1, 0, 0, 1, 1743.4795, -114.87454)" xlink:href="#Безымянный_градиент_40"/><linearGradient id="Безымянный_градиент_40-34" x1="1286.97268" y1="459.59909" x2="1307.18713" y2="459.59909" gradientTransform="matrix(-1, 0, 0, 1, 1743.4795, -114.87454)" xlink:href="#Безымянный_градиент_40"/><linearGradient id="Безымянный_градиент_52" x1="374.8411" y1="376.877" x2="425.63953" y2="376.877" gradientUnits="userSpaceOnUse"><stop offset="0" stop-color="#fbfbfd"/><stop offset="0.99268" stop-color="#d2cfda"/></linearGradient><linearGradient id="Безымянный_градиент_33-5" x1="189.5759" y1="106.8176" x2="497.93196" y2="106.8176" gradientTransform="matrix(1, 0, 0, 1, 0, 0)" xlink:href="#Безымянный_градиент_33"/><linearGradient id="Безымянный_градиент_48-3" x1="395.23873" y1="53.40881" x2="497.93196" y2="53.40881" xlink:href="#Безымянный_градиент_48"/><linearGradient id="Безымянный_градиент_48-4" x1="189.5759" y1="83.02176" x2="395.23873" y2="83.02176" xlink:href="#Безымянный_градиент_48"/><linearGradient id="Безымянный_градиент_8-3" x1="343.75393" y1="77.11628" x2="364.60616" y2="77.11628" xlink:href="#Безымянный_градиент_8"/><linearGradient id="Безымянный_градиент_33-6" x1="343.75393" y1="47.51436" x2="385.03937" y2="47.51436" gradientTransform="matrix(1, 0, 0, 1, 0, 0)" xlink:href="#Безымянный_градиент_33"/><linearGradient id="Безымянный_градиент_48-5" x1="364.60616" y1="77.20193" x2="385.03937" y2="77.20193" xlink:href="#Безымянный_градиент_48"/><linearGradient id="Безымянный_градиент_48-6" x1="369.75623" y1="144.13074" x2="388.78175" y2="144.13074" xlink:href="#Безымянный_градиент_48"/><linearGradient id="Безымянный_градиент_4-3" x1="354.92209" y1="5.49964" x2="373.9513" y2="5.49964" gradientTransform="matrix(1, 0, 0, 1, 0, 0)" xlink:href="#Безымянный_градиент_4"/><linearGradient id="Безымянный_градиент_40-35" x1="357.53873" y1="5.49964" x2="371.33466" y2="5.49964" xlink:href="#Безымянный_градиент_40"/><linearGradient id="Безымянный_градиент_8-4" x1="374.3865" y1="94.89264" x2="395.23873" y2="94.89264" xlink:href="#Безымянный_градиент_8"/><linearGradient id="Безымянный_градиент_33-7" x1="374.3865" y1="65.29072" x2="415.67194" y2="65.29072" gradientTransform="matrix(1, 0, 0, 1, 0, 0)" xlink:href="#Безымянный_градиент_33"/><linearGradient id="Безымянный_градиент_48-7" x1="395.23873" y1="94.97829" x2="415.67194" y2="94.97829" xlink:href="#Безымянный_градиент_48"/><linearGradient id="Безымянный_градиент_48-8" x1="400.3888" y1="161.9071" x2="419.41431" y2="161.9071" xlink:href="#Безымянный_градиент_48"/><linearGradient id="Безымянный_градиент_4-4" x1="385.55466" y1="23.276" x2="404.58386" y2="23.276" gradientTransform="matrix(1, 0, 0, 1, 0, 0)" xlink:href="#Безымянный_градиент_4"/><linearGradient id="Безымянный_градиент_40-36" x1="388.1713" y1="23.276" x2="401.96723" y2="23.276" xlink:href="#Безымянный_градиент_40"/><linearGradient id="Безымянный_градиент_33-8" x1="241.06537" y1="115.59653" x2="374.3865" y2="115.59653" gradientTransform="matrix(1, 0, 0, 1, 0, 0)" xlink:href="#Безымянный_градиент_33"/><linearGradient id="Безымянный_градиент_8-5" x1="241.06537" y1="154.22187" x2="302.38192" y2="154.22187" xlink:href="#Безымянный_градиент_8"/><linearGradient id="Безымянный_градиент_48-9" x1="302.38192" y1="151.25635" x2="374.3865" y2="151.25635" xlink:href="#Безымянный_градиент_48"/><linearGradient id="Безымянный_градиент_8-6" x1="271.71847" y1="115.57198" x2="282.2504" y2="115.57198" xlink:href="#Безымянный_градиент_8"/><linearGradient id="Безымянный_градиент_8-7" x1="291.95581" y1="103.63263" x2="302.48774" y2="103.63263" xlink:href="#Безымянный_градиент_8"/><linearGradient id="Безымянный_градиент_33-9" x1="291.95581" y1="88.68145" x2="312.80804" y2="88.68145" gradientTransform="matrix(1, 0, 0, 1, 0, 0)" xlink:href="#Безымянный_градиент_33"/><linearGradient id="Безымянный_градиент_48-10" x1="302.48774" y1="103.67589" x2="312.80804" y2="103.67589" xlink:href="#Безымянный_градиент_48"/><linearGradient id="Безымянный_градиент_33-10" x1="271.71847" y1="100.6208" x2="292.5707" y2="100.6208" gradientTransform="matrix(1, 0, 0, 1, 0, 0)" xlink:href="#Безымянный_градиент_33"/><linearGradient id="Безымянный_градиент_48-11" x1="282.2504" y1="115.61524" x2="292.5707" y2="115.61524" xlink:href="#Безымянный_градиент_48"/><linearGradient id="Безымянный_градиент_8-8" x1="284.19393" y1="115.61524" x2="290.62717" y2="115.61524" xlink:href="#Безымянный_градиент_8"/><linearGradient id="Безымянный_градиент_33-11" x1="312.80804" y1="151.41301" x2="364.18826" y2="151.41301" gradientTransform="matrix(1, 0, 0, 1, 0, 0)" xlink:href="#Безымянный_градиент_33"/><linearGradient id="Безымянный_градиент_48-12" x1="354.08103" y1="136.51576" x2="364.18826" y2="136.51576" xlink:href="#Безымянный_градиент_48"/><linearGradient id="Безымянный_градиент_33-12" x1="284.18701" y1="121.2187" x2="290.62717" y2="121.2187" gradientTransform="matrix(1, 0, 0, 1, 0, 0)" xlink:href="#Безымянный_градиент_33"/><linearGradient id="Безымянный_градиент_48-13" x1="189.71553" y1="195.84458" x2="191.68022" y2="195.84458" xlink:href="#Безымянный_градиент_48"/><linearGradient id="Безымянный_градиент_33-13" x1="189.71553" y1="224.99952" x2="209.92998" y2="224.99952" gradientTransform="matrix(1, 0, 0, 1, 0, 0)" xlink:href="#Безымянный_градиент_33"/><linearGradient id="Безымянный_градиент_48-14" x1="220.58279" y1="213.44254" x2="222.54748" y2="213.44254" xlink:href="#Безымянный_градиент_48"/><linearGradient id="Безымянный_градиент_33-14" x1="220.58279" y1="242.59747" x2="240.79724" y2="242.59747" gradientTransform="matrix(1, 0, 0, 1, 0, 0)" xlink:href="#Безымянный_градиент_33"/><linearGradient id="Безымянный_градиент_48-15" x1="251.45005" y1="231.04856" x2="253.41474" y2="231.04856" xlink:href="#Безымянный_градиент_48"/><linearGradient id="Безымянный_градиент_33-15" x1="251.45005" y1="260.20349" x2="271.6645" y2="260.20349" gradientTransform="matrix(1, 0, 0, 1, 0, 0)" xlink:href="#Безымянный_градиент_33"/><linearGradient id="Безымянный_градиент_48-16" x1="189.71553" y1="255.28876" x2="191.68022" y2="255.28876" xlink:href="#Безымянный_градиент_48"/><linearGradient id="Безымянный_градиент_33-16" x1="189.71553" y1="284.4437" x2="209.92998" y2="284.4437" gradientTransform="matrix(1, 0, 0, 1, 0, 0)" xlink:href="#Безымянный_градиент_33"/><linearGradient id="Безымянный_градиент_48-17" x1="220.58279" y1="272.88672" x2="222.54748" y2="272.88672" xlink:href="#Безымянный_градиент_48"/><linearGradient id="Безымянный_градиент_33-17" x1="220.58279" y1="302.04165" x2="240.79724" y2="302.04165" gradientTransform="matrix(1, 0, 0, 1, 0, 0)" xlink:href="#Безымянный_градиент_33"/><linearGradient id="Безымянный_градиент_48-18" x1="251.45005" y1="290.49274" x2="253.41474" y2="290.49274" xlink:href="#Безымянный_градиент_48"/><linearGradient id="Безымянный_градиент_33-18" x1="251.45005" y1="319.64767" x2="271.6645" y2="319.64767" gradientTransform="matrix(1, 0, 0, 1, 0, 0)" xlink:href="#Безымянный_градиент_33"/><linearGradient id="Безымянный_градиент_48-19" x1="189.71553" y1="314.73294" x2="191.68022" y2="314.73294" xlink:href="#Безымянный_градиент_48"/><linearGradient id="Безымянный_градиент_33-19" x1="189.71553" y1="343.88788" x2="209.92998" y2="343.88788" gradientTransform="matrix(1, 0, 0, 1, 0, 0)" xlink:href="#Безымянный_градиент_33"/><linearGradient id="Безымянный_градиент_48-20" x1="220.58279" y1="332.3309" x2="222.54748" y2="332.3309" xlink:href="#Безымянный_градиент_48"/><linearGradient id="Безымянный_градиент_33-20" x1="220.58279" y1="361.48583" x2="240.79724" y2="361.48583" gradientTransform="matrix(1, 0, 0, 1, 0, 0)" xlink:href="#Безымянный_градиент_33"/><linearGradient id="Безымянный_градиент_48-21" x1="251.45005" y1="349.93692" x2="253.41474" y2="349.93692" xlink:href="#Безымянный_градиент_48"/><linearGradient id="Безымянный_градиент_33-21" x1="251.45005" y1="379.09185" x2="271.6645" y2="379.09185" gradientTransform="matrix(1, 0, 0, 1, 0, 0)" xlink:href="#Безымянный_градиент_33"/><linearGradient id="Безымянный_градиент_48-22" x1="189.71553" y1="374.17712" x2="191.68022" y2="374.17712" xlink:href="#Безымянный_градиент_48"/><linearGradient id="Безымянный_градиент_33-22" x1="189.71553" y1="403.33205" x2="209.92998" y2="403.33205" gradientTransform="matrix(1, 0, 0, 1, 0, 0)" xlink:href="#Безымянный_градиент_33"/><linearGradient id="Безымянный_градиент_48-23" x1="220.58279" y1="391.77508" x2="222.54748" y2="391.77508" xlink:href="#Безымянный_градиент_48"/><linearGradient id="Безымянный_градиент_33-23" x1="220.58279" y1="420.93001" x2="240.79724" y2="420.93001" gradientTransform="matrix(1, 0, 0, 1, 0, 0)" xlink:href="#Безымянный_градиент_33"/><linearGradient id="Безымянный_градиент_48-24" x1="251.45005" y1="409.38109" x2="253.41474" y2="409.38109" xlink:href="#Безымянный_градиент_48"/><linearGradient id="Безымянный_градиент_33-24" x1="251.45005" y1="438.53603" x2="271.6645" y2="438.53603" gradientTransform="matrix(1, 0, 0, 1, 0, 0)" xlink:href="#Безымянный_градиент_33"/><linearGradient id="Безымянный_градиент_8-9" x1="1279.73317" y1="310.71912" x2="1281.69786" y2="310.71912" gradientTransform="matrix(-1, 0, 0, 1, 1674.78869, -114.87454)" xlink:href="#Безымянный_градиент_8"/><linearGradient id="Безымянный_градиент_4-5" x1="1279.73317" y1="339.87406" x2="1299.94762" y2="339.87406" gradientTransform="matrix(-1, 0, 0, 1, 1674.78869, -114.87454)" xlink:href="#Безымянный_градиент_4"/><linearGradient id="Безымянный_градиент_8-10" x1="1310.60043" y1="328.31708" x2="1312.56512" y2="328.31708" gradientTransform="matrix(-1, 0, 0, 1, 1674.78869, -114.87454)" xlink:href="#Безымянный_градиент_8"/><linearGradient id="Безымянный_градиент_4-6" x1="1310.60043" y1="357.47201" x2="1330.81488" y2="357.47201" gradientTransform="matrix(-1, 0, 0, 1, 1674.78869, -114.87454)" xlink:href="#Безымянный_градиент_4"/><linearGradient id="Безымянный_градиент_8-11" x1="1341.46769" y1="345.9231" x2="1343.43238" y2="345.9231" gradientTransform="matrix(-1, 0, 0, 1, 1674.78869, -114.87454)" xlink:href="#Безымянный_градиент_8"/><linearGradient id="Безымянный_градиент_4-7" x1="1341.46769" y1="375.07803" x2="1361.68214" y2="375.07803" gradientTransform="matrix(-1, 0, 0, 1, 1674.78869, -114.87454)" xlink:href="#Безымянный_градиент_4"/><linearGradient id="Безымянный_градиент_8-12" x1="1279.73317" y1="370.1633" x2="1281.69786" y2="370.1633" gradientTransform="matrix(-1, 0, 0, 1, 1674.78869, -114.87454)" xlink:href="#Безымянный_градиент_8"/><linearGradient id="Безымянный_градиент_4-8" x1="1279.73317" y1="399.31824" x2="1299.94762" y2="399.31824" gradientTransform="matrix(-1, 0, 0, 1, 1674.78869, -114.87454)" xlink:href="#Безымянный_градиент_4"/><linearGradient id="Безымянный_градиент_8-13" x1="1310.60043" y1="387.76126" x2="1312.56512" y2="387.76126" gradientTransform="matrix(-1, 0, 0, 1, 1674.78869, -114.87454)" xlink:href="#Безымянный_градиент_8"/><linearGradient id="Безымянный_градиент_4-9" x1="1310.60043" y1="416.91619" x2="1330.81488" y2="416.91619" gradientTransform="matrix(-1, 0, 0, 1, 1674.78869, -114.87454)" xlink:href="#Безымянный_градиент_4"/><linearGradient id="Безымянный_градиент_8-14" x1="1341.46769" y1="405.36728" x2="1343.43238" y2="405.36728" gradientTransform="matrix(-1, 0, 0, 1, 1674.78869, -114.87454)" xlink:href="#Безымянный_градиент_8"/><linearGradient id="Безымянный_градиент_4-10" x1="1341.46769" y1="434.52221" x2="1361.68214" y2="434.52221" gradientTransform="matrix(-1, 0, 0, 1, 1674.78869, -114.87454)" xlink:href="#Безымянный_градиент_4"/><linearGradient id="Безымянный_градиент_8-15" x1="1279.73317" y1="429.60748" x2="1281.69786" y2="429.60748" gradientTransform="matrix(-1, 0, 0, 1, 1674.78869, -114.87454)" xlink:href="#Безымянный_градиент_8"/><linearGradient id="Безымянный_градиент_4-11" x1="1279.73317" y1="458.76242" x2="1299.94762" y2="458.76242" gradientTransform="matrix(-1, 0, 0, 1, 1674.78869, -114.87454)" xlink:href="#Безымянный_градиент_4"/><linearGradient id="Безымянный_градиент_8-16" x1="1310.60043" y1="447.20544" x2="1312.56512" y2="447.20544" gradientTransform="matrix(-1, 0, 0, 1, 1674.78869, -114.87454)" xlink:href="#Безымянный_градиент_8"/><linearGradient id="Безымянный_градиент_4-12" x1="1310.60043" y1="476.36037" x2="1330.81488" y2="476.36037" gradientTransform="matrix(-1, 0, 0, 1, 1674.78869, -114.87454)" xlink:href="#Безымянный_градиент_4"/><linearGradient id="Безымянный_градиент_8-17" x1="1341.46769" y1="464.81146" x2="1343.43238" y2="464.81146" gradientTransform="matrix(-1, 0, 0, 1, 1674.78869, -114.87454)" xlink:href="#Безымянный_градиент_8"/><linearGradient id="Безымянный_градиент_4-13" x1="1341.46769" y1="493.96639" x2="1361.68214" y2="493.96639" gradientTransform="matrix(-1, 0, 0, 1, 1674.78869, -114.87454)" xlink:href="#Безымянный_градиент_4"/><linearGradient id="Безымянный_градиент_4-14" x1="1249.14913" y1="520.86237" x2="1299.94762" y2="520.86237" gradientTransform="matrix(-1, 0, 0, 1, 1674.78869, -114.87454)" xlink:href="#Безымянный_градиент_4"/><linearGradient id="Безымянный_градиент_8-18" x1="1310.60043" y1="506.64962" x2="1312.56512" y2="506.64962" gradientTransform="matrix(-1, 0, 0, 1, 1674.78869, -114.87454)" xlink:href="#Безымянный_градиент_8"/><linearGradient id="Безымянный_градиент_4-15" x1="1310.60043" y1="535.80455" x2="1330.81488" y2="535.80455" gradientTransform="matrix(-1, 0, 0, 1, 1674.78869, -114.87454)" xlink:href="#Безымянный_градиент_4"/><linearGradient id="Безымянный_градиент_8-19" x1="1218.28187" y1="275.20784" x2="1220.24656" y2="275.20784" gradientTransform="matrix(-1, 0, 0, 1, 1674.78869, -114.87454)" xlink:href="#Безымянный_градиент_8"/><linearGradient id="Безымянный_градиент_4-16" x1="1218.28187" y1="304.36277" x2="1238.49632" y2="304.36277" gradientTransform="matrix(-1, 0, 0, 1, 1674.78869, -114.87454)" xlink:href="#Безымянный_градиент_4"/><linearGradient id="Безымянный_градиент_8-20" x1="1249.14913" y1="292.80579" x2="1251.11382" y2="292.80579" gradientTransform="matrix(-1, 0, 0, 1, 1674.78869, -114.87454)" xlink:href="#Безымянный_градиент_8"/><linearGradient id="Безымянный_градиент_4-17" x1="1249.14913" y1="321.96073" x2="1269.36358" y2="321.96073" gradientTransform="matrix(-1, 0, 0, 1, 1674.78869, -114.87454)" xlink:href="#Безымянный_градиент_4"/><linearGradient id="Безымянный_градиент_8-21" x1="1218.28187" y1="334.65202" x2="1220.24656" y2="334.65202" gradientTransform="matrix(-1, 0, 0, 1, 1674.78869, -114.87454)" xlink:href="#Безымянный_градиент_8"/><linearGradient id="Безымянный_градиент_4-18" x1="1218.28187" y1="363.80695" x2="1238.49632" y2="363.80695" gradientTransform="matrix(-1, 0, 0, 1, 1674.78869, -114.87454)" xlink:href="#Безымянный_градиент_4"/><linearGradient id="Безымянный_градиент_48-25" x1="1249.14913" y1="352.24997" x2="1251.11382" y2="352.24997" gradientTransform="matrix(-1, 0, 0, 1, 1674.78869, -114.87454)" xlink:href="#Безымянный_градиент_48"/><linearGradient id="Безымянный_градиент_4-19" x1="1249.14913" y1="381.40491" x2="1269.36358" y2="381.40491" gradientTransform="matrix(-1, 0, 0, 1, 1674.78869, -114.87454)" xlink:href="#Безымянный_градиент_4"/><linearGradient id="Безымянный_градиент_8-22" x1="1218.28187" y1="394.0962" x2="1220.24656" y2="394.0962" gradientTransform="matrix(-1, 0, 0, 1, 1674.78869, -114.87454)" xlink:href="#Безымянный_градиент_8"/><linearGradient id="Безымянный_градиент_4-20" x1="1218.28187" y1="423.25113" x2="1238.49632" y2="423.25113" gradientTransform="matrix(-1, 0, 0, 1, 1674.78869, -114.87454)" xlink:href="#Безымянный_градиент_4"/><linearGradient id="Безымянный_градиент_48-26" x1="1249.14913" y1="411.69415" x2="1251.11382" y2="411.69415" gradientTransform="matrix(-1, 0, 0, 1, 1674.78869, -114.87454)" xlink:href="#Безымянный_градиент_48"/><linearGradient id="Безымянный_градиент_4-21" x1="1249.14913" y1="440.84909" x2="1269.36358" y2="440.84909" gradientTransform="matrix(-1, 0, 0, 1, 1674.78869, -114.87454)" xlink:href="#Безымянный_градиент_4"/><linearGradient id="Безымянный_градиент_8-23" x1="1218.28187" y1="453.54038" x2="1220.24656" y2="453.54038" gradientTransform="matrix(-1, 0, 0, 1, 1674.78869, -114.87454)" xlink:href="#Безымянный_градиент_8"/><linearGradient id="Безымянный_градиент_4-22" x1="1218.28187" y1="482.69531" x2="1238.49632" y2="482.69531" gradientTransform="matrix(-1, 0, 0, 1, 1674.78869, -114.87454)" xlink:href="#Безымянный_градиент_4"/><linearGradient id="Безымянный_градиент_8-24" x1="1166.67054" y1="423.54214" x2="1168.63522" y2="423.54214" gradientTransform="matrix(-1, 0, 0, 1, 1674.78869, -114.87454)" xlink:href="#Безымянный_градиент_8"/><linearGradient id="Безымянный_градиент_4-23" x1="1166.67054" y1="458.7642" x2="1207.62906" y2="458.7642" gradientTransform="matrix(-1, 0, 0, 1, 1674.78869, -114.87454)" xlink:href="#Безымянный_градиент_4"/><linearGradient id="Безымянный_градиент_8-25" x1="1166.67054" y1="364.09796" x2="1168.63522" y2="364.09796" gradientTransform="matrix(-1, 0, 0, 1, 1674.78869, -114.87454)" xlink:href="#Безымянный_градиент_8"/><linearGradient id="Безымянный_градиент_4-24" x1="1166.67054" y1="399.32002" x2="1207.62906" y2="399.32002" gradientTransform="matrix(-1, 0, 0, 1, 1674.78869, -114.87454)" xlink:href="#Безымянный_градиент_4"/><linearGradient id="Безымянный_градиент_8-26" x1="1166.67054" y1="304.65378" x2="1168.63522" y2="304.65378" gradientTransform="matrix(-1, 0, 0, 1, 1674.78869, -114.87454)" xlink:href="#Безымянный_градиент_8"/><linearGradient id="Безымянный_градиент_4-25" x1="1166.67054" y1="339.87584" x2="1207.62906" y2="339.87584" gradientTransform="matrix(-1, 0, 0, 1, 1674.78869, -114.87454)" xlink:href="#Безымянный_градиент_4"/><linearGradient id="Безымянный_градиент_8-27" x1="1166.67054" y1="245.47734" x2="1168.63522" y2="245.47734" gradientTransform="matrix(-1, 0, 0, 1, 1674.78869, -114.87454)" xlink:href="#Безымянный_градиент_8"/><linearGradient id="Безымянный_градиент_4-26" x1="1166.67054" y1="280.6994" x2="1207.62906" y2="280.6994" gradientTransform="matrix(-1, 0, 0, 1, 1674.78869, -114.87454)" xlink:href="#Безымянный_градиент_4"/><linearGradient id="Безымянный_градиент_8-28" x1="1249.14913" y1="477.11721" x2="1251.11382" y2="477.11721" gradientTransform="matrix(-1, 0, 0, 1, 1674.78869, -114.87454)" xlink:href="#Безымянный_градиент_8"/><linearGradient id="Безымянный_градиент_8-29" x1="1341.46769" y1="524.25563" x2="1343.43238" y2="524.25563" gradientTransform="matrix(-1, 0, 0, 1, 1674.78869, -114.87454)" xlink:href="#Безымянный_градиент_8"/><linearGradient id="Безымянный_градиент_4-27" x1="1341.46769" y1="553.41057" x2="1361.68214" y2="553.41057" gradientTransform="matrix(-1, 0, 0, 1, 1674.78869, -114.87454)" xlink:href="#Безымянный_градиент_4"/><linearGradient id="Безымянный_градиент_33-25" x1="0" y1="480.27894" x2="365.23968" y2="480.27894" gradientTransform="matrix(1, 0, 0, 1, 0, 0)" xlink:href="#Безымянный_градиент_33"/><linearGradient id="Безымянный_градиент_40-37" x1="39.3549" y1="487.31537" x2="324.49385" y2="487.31537" xlink:href="#Безымянный_градиент_40"/><linearGradient id="Безымянный_градиент_48-27" x1="242.3272" y1="527.33015" x2="256.74778" y2="527.33015" xlink:href="#Безымянный_градиент_48"/><linearGradient id="Безымянный_градиент_38" x1="229.25663" y1="527.54493" x2="242.3272" y2="527.54493" gradientUnits="userSpaceOnUse"><stop offset="0" stop-color="#fdfdfd"/><stop offset="1" stop-color="#f0eff4"/></linearGradient><linearGradient id="Безымянный_градиент_33-26" x1="229.25663" y1="515.71676" x2="256.74778" y2="515.71676" gradientTransform="matrix(1, 0, 0, 1, 0, 0)" xlink:href="#Безымянный_градиент_33"/><linearGradient id="Безымянный_градиент_48-28" x1="236.43624" y1="516.11101" x2="247.91134" y2="516.11101" xlink:href="#Безымянный_градиент_48"/><linearGradient id="Безымянный_градиент_48-29" x1="273.24258" y1="508.71316" x2="287.66316" y2="508.71316" xlink:href="#Безымянный_градиент_48"/><linearGradient id="Безымянный_градиент_38-2" x1="260.172" y1="508.92793" x2="273.24258" y2="508.92793" xlink:href="#Безымянный_градиент_38"/><linearGradient id="Безымянный_градиент_33-27" x1="260.172" y1="497.09977" x2="287.66316" y2="497.09977" gradientTransform="matrix(1, 0, 0, 1, 0, 0)" xlink:href="#Безымянный_градиент_33"/><linearGradient id="Безымянный_градиент_48-30" x1="267.35161" y1="497.49402" x2="278.82672" y2="497.49402" xlink:href="#Безымянный_градиент_48"/><linearGradient id="Безымянный_градиент_38-3" x1="147.02861" y1="448.09342" x2="337.50306" y2="448.09342" xlink:href="#Безымянный_градиент_38"/><linearGradient id="Безымянный_градиент_48-31" x1="60.13691" y1="422.00272" x2="147.35588" y2="422.00272" xlink:href="#Безымянный_градиент_48"/><linearGradient id="Безымянный_градиент_48-32" x1="78.46435" y1="457.68177" x2="193.10998" y2="457.68177" xlink:href="#Безымянный_градиент_48"/><linearGradient id="Безымянный_градиент_63" x1="68.80972" y1="439.86039" x2="193.10998" y2="439.86039" gradientUnits="userSpaceOnUse"><stop offset="0.00732" stop-color="#d2cfda"/><stop offset="0.29756" stop-color="#fbfbfd"/><stop offset="0.57561" stop-color="#fbfbfd"/><stop offset="1" stop-color="#f3f3f5"/></linearGradient><linearGradient id="Безымянный_градиент_8-30" x1="0" y1="542.37951" x2="215.51105" y2="542.37951" xlink:href="#Безымянный_градиент_8"/><linearGradient id="Безымянный_градиент_48-33" x1="215.52087" y1="574.13179" x2="365.22986" y2="574.13179" xlink:href="#Безымянный_градиент_48"/><linearGradient id="Безымянный_градиент_8-31" x1="66.68242" y1="570.23885" x2="215.51105" y2="570.23885" xlink:href="#Безымянный_градиент_8"/><linearGradient id="Безымянный_градиент_38-4" x1="215.51105" y1="593.61861" x2="283.41053" y2="593.61861" xlink:href="#Безымянный_градиент_38"/><linearGradient id="Безымянный_градиент_38-5" x1="66.68242" y1="581.62191" x2="215.51105" y2="581.62191" xlink:href="#Безымянный_градиент_38"/><linearGradient id="Безымянный_градиент_48-34" x1="215.51105" y1="605.70735" x2="283.41053" y2="605.70735" xlink:href="#Безымянный_градиент_48"/><linearGradient id="Безымянный_градиент_48-35" x1="134.3704" y1="715.82416" x2="162.18883" y2="715.82416" xlink:href="#Безымянный_градиент_48"/><linearGradient id="Безымянный_градиент_33-28" x1="283.41053" y1="582.1435" x2="351.73956" y2="582.1435" gradientTransform="matrix(1, 0, 0, 1, 0, 0)" xlink:href="#Безымянный_градиент_33"/><linearGradient id="Безымянный_градиент_4-28" x1="339.8314" y1="579.56886" x2="360.66562" y2="543.48293" gradientTransform="matrix(1, 0, 0, 1, 0, 0)" xlink:href="#Безымянный_градиент_4"/><linearGradient id="Безымянный_градиент_48-36" x1="283.41053" y1="604.48007" x2="351.73956" y2="604.48007" xlink:href="#Безымянный_градиент_48"/><linearGradient id="Безымянный_градиент_38-6" x1="255.88869" y1="626.07045" x2="270.32645" y2="626.07045" xlink:href="#Безымянный_градиент_38"/><linearGradient id="Безымянный_градиент_38-7" x1="12.02738" y1="515.21562" x2="66.68242" y2="515.21562" xlink:href="#Безымянный_градиент_38"/><linearGradient id="Безымянный_градиент_4-29" x1="12.02738" y1="511.37013" x2="78.46435" y2="511.37013" gradientTransform="matrix(1, 0, 0, 1, 0, 0)" xlink:href="#Безымянный_градиент_4"/><linearGradient id="Безымянный_градиент_86" x1="552.49817" y1="540.76149" x2="617.34577" y2="540.76149" gradientUnits="userSpaceOnUse"><stop offset="0.57561" stop-color="#ff9c88"/><stop offset="1" stop-color="#f77f48"/></linearGradient><linearGradient id="Безымянный_градиент_64" x1="585.716" y1="541.84182" x2="625.18645" y2="541.84182" gradientUnits="userSpaceOnUse"><stop offset="0" stop-color="#f77f48"/><stop offset="0.54634" stop-color="#ff9c88"/></linearGradient><linearGradient id="Безымянный_градиент_96" x1="569.17444" y1="542.83126" x2="638.62078" y2="542.83126" gradientUnits="userSpaceOnUse"><stop offset="0" stop-color="#ef6452"/><stop offset="0.3561" stop-color="#f77f48"/></linearGradient><linearGradient id="Безымянный_градиент_65" x1="499.89096" y1="561.89749" x2="535.34298" y2="561.89749" gradientUnits="userSpaceOnUse"><stop offset="0" stop-color="#f77f48"/><stop offset="0.45366" stop-color="#ff9c88"/></linearGradient><linearGradient id="Безымянный_градиент_86-2" x1="464.45575" y1="558.67512" x2="526.70997" y2="558.67512" xlink:href="#Безымянный_градиент_86"/><linearGradient id="Безымянный_градиент_77" x1="471.87609" y1="651.09573" x2="516.83444" y2="651.09573" gradientUnits="userSpaceOnUse"><stop offset="0" stop-color="#f77f48"/><stop offset="0.45366" stop-color="#ff9c88"/><stop offset="1" stop-color="#f77f48"/></linearGradient><linearGradient id="Безымянный_градиент_64-2" x1="499.89096" y1="621.90614" x2="534.78607" y2="621.90614" xlink:href="#Безымянный_градиент_64"/><linearGradient id="Безымянный_градиент_96-2" x1="481.19341" y1="587.90436" x2="549.12477" y2="587.90436" xlink:href="#Безымянный_градиент_96"/><linearGradient id="Безымянный_градиент_86-3" x1="457.04314" y1="523.7091" x2="487.35372" y2="523.7091" xlink:href="#Безымянный_градиент_86"/></defs><title>1-90_City</title><polygon class="cls-1" points="66.682 609.059 560.131 770.251 630.73 527.466 365.24 499.409 78.464 600.74 66.682 609.059"/><polygon class="cls-2" points="291.162 487.693 616.242 577.292 832.836 372.201 518.489 302.676 335.169 448.093 291.162 487.693"/><polygon class="cls-3" points="428.66 626.907 753.74 716.506 970.334 511.415 701.347 439.86 472.667 587.307 428.66 626.907"/><path class="cls-4" d="M642.68,547.924,430.011,668.94337c-16.78929,9.554-18.43072,35.77964-2.96567,47.38357l.00007,0a63.75309,63.75309,0,0,0,70.829,4.50163L710.545,599.8083c16.8684-9.599,18.42456-35.99118,2.80108-47.506l-.31224-.23013A63.7357,63.7357,0,0,0,642.68,547.924Z" transform="translate(-14.83295 -114.87454)"/><path class="cls-5" d="M724.13107,576.77458l-.92288,15.65212a29.51074,29.51074,0,0,1-6.83835,17.46667,25.60718,25.60718,0,0,1-6.74563,5.57019L496.95439,736.48367a63.75355,63.75355,0,0,1-70.8349-4.50211c-.64629-.48568-1.26085-.99665-1.84424-1.52614-6.40519-5.82338-9.26634-14.42179-8.77143-22.81552l.92329-15.65889a31.05477,31.05477,0,0,0,.53486,7.8916,26.8414,26.8414,0,0,0,10.0804,16.45687,66.83567,66.83567,0,0,0,8.17342,5.26305,63.7336,63.7336,0,0,0,26.8614,7.76875,64.471,64.471,0,0,0,35.80008-8.52969L701.94964,604.70283l8.59745-4.89135a26.82841,26.82841,0,0,0,12.12583-15.26961A31.04446,31.04446,0,0,0,724.13107,576.77458Z" transform="translate(-14.83295 -114.87454)"/><path class="cls-6" d="M619.74491,560.09733,444.44015,661.30948a20.85713,20.85713,0,0,0-.14655,36.04021l.00006,0a60.21525,60.21525,0,0,0,60.6383.24657L680.238,596.3834a20.85713,20.85713,0,0,0,0-36.12561l-.2779-.16044A60.21526,60.21526,0,0,0,619.74491,560.09733Z" transform="translate(-14.83295 -114.87454)"/><path class="cls-7" d="M690.66756,578.32118v11.90256a20.77743,20.77743,0,0,1-4.9542,13.54195,21.09527,21.09527,0,0,1-5.47339,4.52255L504.93453,709.501a60.2157,60.2157,0,0,1-60.64334-.24667c-.57566-.33918-1.12553-.69894-1.64975-1.07413a20.64788,20.64788,0,0,1-8.62878-16.89787V679.37457a21.10127,21.10127,0,0,0,.85307,5.95643,20.5547,20.5547,0,0,0,9.42546,12.02075,59.4336,59.4336,0,0,0,7.236,3.62317,60.247,60.247,0,0,0,53.40734-3.3765L673.153,600.47658l7.087-4.09087a20.57106,20.57106,0,0,0,9.57452-12.11325A21.09431,21.09431,0,0,0,690.66756,578.32118Z" transform="translate(-14.83295 -114.87454)"/><polygon class="cls-8" points="169.019 136.516 169.019 397.625 292.361 468.837 292.361 207.727 169.019 136.516"/><polygon class="cls-9" points="292.361 468.837 518.489 338.282 518.489 77.173 292.361 207.727 292.361 468.837"/><polygon class="cls-10" points="169.019 136.516 292.361 207.727 518.489 77.173 395.147 5.961 169.019 136.516"/><polygon class="cls-11" points="169.019 362.02 107.348 397.625 292.361 504.443 580.16 338.282 518.489 302.676 518.489 338.282 292.361 468.837 169.019 397.625 169.019 362.02"/><polygon class="cls-12" points="107.348 397.625 107.348 409.494 292.361 516.312 292.361 504.443 107.348 397.625"/><polygon class="cls-13" points="292.361 504.443 292.361 516.312 580.16 350.151 580.16 338.282 292.361 504.443"/><polygon class="cls-14" points="189.716 172.174 189.716 219.515 209.93 231.618 209.93 183.873 189.716 172.174"/><polygon class="cls-15" points="220.583 189.776 220.583 237.117 240.797 249.22 240.797 201.475 220.583 189.776"/><polygon class="cls-16" points="251.45 207.378 251.45 254.719 271.664 266.822 271.664 219.077 251.45 207.378"/><polygon class="cls-17" points="189.716 231.618 189.716 278.96 209.93 291.062 209.93 243.317 189.716 231.618"/><polygon class="cls-18" points="220.583 249.22 220.583 296.562 240.797 308.664 240.797 260.919 220.583 249.22"/><polygon class="cls-19" points="251.45 266.822 251.45 314.164 271.664 326.266 271.664 278.521 251.45 266.822"/><polygon class="cls-20" points="189.716 291.062 189.716 338.404 209.93 350.506 209.93 302.761 189.716 291.062"/><polygon class="cls-21" points="220.583 308.664 220.583 356.006 240.797 368.108 240.797 320.363 220.583 308.664"/><polygon class="cls-22" points="251.45 326.266 251.45 373.608 271.664 385.71 271.664 337.965 251.45 326.266"/><polygon class="cls-23" points="189.716 350.506 189.716 397.848 209.93 409.95 209.93 362.206 189.716 350.506"/><polygon class="cls-24" points="220.583 368.108 220.583 415.45 240.797 427.552 240.797 379.808 220.583 368.108"/><polygon class="cls-25" points="251.45 385.71 251.45 433.052 271.664 445.154 271.664 397.41 251.45 385.71"/><polygon class="cls-26" points="395.056 172.174 395.056 219.515 374.841 231.618 374.841 183.873 395.056 172.174"/><polygon class="cls-27" points="364.188 189.776 364.188 237.117 343.974 249.22 343.974 201.475 364.188 189.776"/><polygon class="cls-28" points="333.321 207.378 333.321 254.719 313.107 266.822 313.107 219.077 333.321 207.378"/><polygon class="cls-29" points="395.056 231.618 395.056 278.96 374.841 291.062 374.841 243.317 395.056 231.618"/><polygon class="cls-30" points="364.188 249.22 364.188 296.562 343.974 308.664 343.974 260.919 364.188 249.22"/><polygon class="cls-31" points="333.321 266.822 333.321 314.164 313.107 326.266 313.107 278.521 333.321 266.822"/><polygon class="cls-32" points="395.056 291.062 395.056 338.404 374.841 350.506 374.841 302.761 395.056 291.062"/><polygon class="cls-33" points="364.188 308.664 364.188 356.006 343.974 368.108 343.974 320.363 364.188 308.664"/><polygon class="cls-34" points="333.321 326.266 333.321 373.608 313.107 385.71 313.107 337.965 333.321 326.266"/><polygon class="cls-35" points="364.188 368.108 364.188 415.45 343.974 427.552 343.974 379.808 364.188 368.108"/><polygon class="cls-36" points="333.321 385.71 333.321 433.052 313.107 445.154 313.107 397.41 333.321 385.71"/><polygon class="cls-37" points="508.114 106.93 508.114 154.272 467.16 178.512 467.16 130.767 508.114 106.93"/><polygon class="cls-38" points="508.114 166.105 508.114 213.447 467.16 237.687 467.16 189.942 508.114 166.105"/><polygon class="cls-39" points="508.114 225.549 508.114 272.891 467.16 297.131 467.16 249.386 508.114 225.549"/><polygon class="cls-40" points="508.114 284.993 508.114 332.335 467.16 356.575 467.16 308.83 508.114 284.993"/><polygon class="cls-41" points="456.507 136.67 456.507 184.012 436.292 196.114 436.292 148.369 456.507 136.67"/><polygon class="cls-42" points="425.64 154.272 425.64 201.614 405.425 213.716 405.425 165.971 425.64 154.272"/><polygon class="cls-43" points="456.507 196.114 456.507 243.456 436.292 255.558 436.292 207.813 456.507 196.114"/><polygon class="cls-44" points="425.64 213.716 425.64 261.058 405.425 273.16 405.425 225.415 425.64 213.716"/><polygon class="cls-45" points="456.507 255.558 456.507 302.9 436.292 315.002 436.292 267.258 456.507 255.558"/><polygon class="cls-46" points="425.64 273.16 425.64 320.502 405.425 332.604 405.425 284.86 425.64 273.16"/><polygon class="cls-47" points="456.507 315.002 456.507 362.344 436.292 374.447 436.292 326.702 456.507 315.002"/><polygon class="cls-48" points="405.425 344.236 405.425 344.304 374.841 362.206 374.841 421.218 405.425 403.56 425.64 391.906 425.64 332.536 405.425 344.236"/><polygon class="cls-49" points="189.576 136.516 292.361 195.859 497.932 77.173 395.239 17.776 189.576 136.516"/><polygon class="cls-50" points="395.239 17.776 395.239 41.444 477.375 89.041 497.932 77.173 395.239 17.776"/><polygon class="cls-51" points="395.239 41.444 209.93 148.267 189.576 136.516 395.239 17.776 395.239 41.444"/><polygon class="cls-52" points="343.754 47.415 343.754 95.119 364.606 106.818 364.606 59.396 343.754 47.415"/><polygon class="cls-53" points="364.468 35.632 343.754 47.415 364.606 59.396 385.039 47.586 364.468 35.632"/><polygon class="cls-54" points="364.606 106.818 385.039 94.984 385.039 47.586 364.606 59.396 364.606 106.818"/><path class="cls-55" d="M388.78175,120.37192v42.01862c0,3.03732-4.25527,5.499-9.51279,5.499-5.25232,0-9.51273-2.4617-9.51273-5.499V120.37192Z" transform="translate(-14.83295 -114.87454)"/><ellipse class="cls-56" cx="364.43669" cy="5.49964" rx="9.5146" ry="5.49964"/><ellipse class="cls-57" cx="364.43669" cy="5.49964" rx="6.89796" ry="3.98717"/><polygon class="cls-58" points="374.386 65.191 374.386 112.896 395.239 124.594 395.239 77.173 374.386 65.191"/><polygon class="cls-59" points="395.101 53.409 374.386 65.191 395.239 77.173 415.672 65.363 395.101 53.409"/><polygon class="cls-60" points="395.239 124.594 415.672 112.76 415.672 65.363 395.239 77.173 395.239 124.594"/><path class="cls-61" d="M419.41431,138.14828V180.1669c0,3.03732-4.25526,5.499-9.51278,5.499-5.25232,0-9.51273-2.4617-9.51273-5.499V138.14828Z" transform="translate(-14.83295 -114.87454)"/><ellipse class="cls-62" cx="395.06926" cy="23.276" rx="9.5146" ry="5.49964"/><ellipse class="cls-63" cx="395.06926" cy="23.276" rx="6.89796" ry="3.98717"/><polygon class="cls-64" points="312.63 77.116 241.065 118.616 302.608 154.077 374.386 112.777 312.63 77.116"/><polygon class="cls-65" points="241.065 118.668 241.065 154.272 302.382 189.776 302.382 154.129 241.065 118.668"/><polygon class="cls-66" points="374.386 112.737 374.386 148.502 302.382 189.776 302.382 154.037 374.386 112.737"/><polygon class="cls-67" points="271.718 100.571 271.718 124.665 282.25 130.573 282.25 106.622 271.718 100.571"/><polygon class="cls-68" points="291.956 88.631 291.956 112.726 302.488 118.634 302.488 94.683 291.956 88.631"/><polygon class="cls-69" points="302.418 82.68 291.956 88.631 302.488 94.683 312.808 88.718 302.418 82.68"/><polygon class="cls-70" points="302.488 118.634 312.808 112.657 312.808 88.718 302.488 94.683 302.488 118.634"/><polygon class="cls-71" points="282.181 94.62 271.718 100.571 282.25 106.622 292.571 100.657 282.181 94.62"/><polygon class="cls-72" points="282.25 130.573 292.571 124.596 292.571 100.657 282.25 106.622 282.25 130.573"/><polygon class="cls-73" points="284.194 124.939 290.627 121.214 290.627 106.291 284.194 110.009 284.194 124.939"/><polygon class="cls-74" points="312.808 160.317 312.808 172.174 364.188 142.379 364.188 130.652 312.808 160.317"/><polygon class="cls-75" points="364.188 142.379 354.081 136.516 364.188 130.652 364.188 142.379"/><polygon class="cls-76" points="290.627 121.214 284.187 117.498 284.194 124.939 290.627 121.214"/><polygon class="cls-77" points="191.68 173.337 191.68 218.381 189.716 219.515 189.716 172.174 191.68 173.337"/><polygon class="cls-78" points="189.716 219.515 209.93 231.618 209.93 228.834 191.68 218.381 189.716 219.515"/><polygon class="cls-79" points="222.547 190.934 222.547 235.979 220.583 237.113 220.583 189.772 222.547 190.934"/><polygon class="cls-80" points="220.583 237.113 240.797 249.216 240.797 246.432 222.547 235.979 220.583 237.113"/><polygon class="cls-81" points="253.415 208.541 253.415 253.585 251.45 254.719 251.45 207.378 253.415 208.541"/><polygon class="cls-82" points="251.45 254.719 271.664 266.822 271.664 264.038 253.415 253.585 251.45 254.719"/><polygon class="cls-83" points="191.68 232.781 191.68 277.825 189.716 278.96 189.716 231.618 191.68 232.781"/><polygon class="cls-84" points="189.716 278.96 209.93 291.062 209.93 288.278 191.68 277.825 189.716 278.96"/><polygon class="cls-85" points="222.547 250.379 222.547 295.423 220.583 296.558 220.583 249.216 222.547 250.379"/><polygon class="cls-86" points="220.583 296.558 240.797 308.66 240.797 305.876 222.547 295.423 220.583 296.558"/><polygon class="cls-87" points="253.415 267.985 253.415 313.029 251.45 314.164 251.45 266.822 253.415 267.985"/><polygon class="cls-88" points="251.45 314.164 271.664 326.266 271.664 323.482 253.415 313.029 251.45 314.164"/><polygon class="cls-89" points="191.68 292.225 191.68 337.27 189.716 338.404 189.716 291.062 191.68 292.225"/><polygon class="cls-90" points="189.716 338.404 209.93 350.506 209.93 347.722 191.68 337.27 189.716 338.404"/><polygon class="cls-91" points="222.547 309.823 222.547 354.867 220.583 356.002 220.583 308.66 222.547 309.823"/><polygon class="cls-92" points="220.583 356.002 240.797 368.104 240.797 365.32 222.547 354.867 220.583 356.002"/><polygon class="cls-93" points="253.415 327.429 253.415 372.473 251.45 373.608 251.45 326.266 253.415 327.429"/><polygon class="cls-94" points="251.45 373.608 271.664 385.71 271.664 382.926 253.415 372.473 251.45 373.608"/><polygon class="cls-95" points="191.68 351.669 191.68 396.714 189.716 397.848 189.716 350.506 191.68 351.669"/><polygon class="cls-96" points="189.716 397.848 209.93 409.95 209.93 407.167 191.68 396.714 189.716 397.848"/><polygon class="cls-97" points="222.547 369.267 222.547 414.312 220.583 415.446 220.583 368.104 222.547 369.267"/><polygon class="cls-98" points="220.583 415.446 240.797 427.548 240.797 424.765 222.547 414.312 220.583 415.446"/><polygon class="cls-99" points="253.415 386.873 253.415 431.918 251.45 433.052 251.45 385.71 253.415 386.873"/><polygon class="cls-100" points="251.45 433.052 271.664 445.154 271.664 442.371 253.415 431.918 251.45 433.052"/><polygon class="cls-101" points="393.091 173.337 393.091 218.381 395.056 219.515 395.056 172.174 393.091 173.337"/><polygon class="cls-102" points="395.056 219.515 374.841 231.618 374.841 228.834 393.091 218.381 395.056 219.515"/><polygon class="cls-103" points="362.224 190.934 362.224 235.979 364.188 237.113 364.188 189.772 362.224 190.934"/><polygon class="cls-104" points="364.188 237.113 343.974 249.216 343.974 246.432 362.224 235.979 364.188 237.113"/><polygon class="cls-105" points="331.356 208.541 331.356 253.585 333.321 254.719 333.321 207.378 331.356 208.541"/><polygon class="cls-106" points="333.321 254.719 313.107 266.822 313.107 264.038 331.356 253.585 333.321 254.719"/><polygon class="cls-107" points="393.091 232.781 393.091 277.825 395.056 278.96 395.056 231.618 393.091 232.781"/><polygon class="cls-108" points="395.056 278.96 374.841 291.062 374.841 288.278 393.091 277.825 395.056 278.96"/><polygon class="cls-109" points="362.224 250.379 362.224 295.423 364.188 296.558 364.188 249.216 362.224 250.379"/><polygon class="cls-110" points="364.188 296.558 343.974 308.66 343.974 305.876 362.224 295.423 364.188 296.558"/><polygon class="cls-111" points="331.356 267.985 331.356 313.029 333.321 314.164 333.321 266.822 331.356 267.985"/><polygon class="cls-112" points="333.321 314.164 313.107 326.266 313.107 323.482 331.356 313.029 333.321 314.164"/><polygon class="cls-113" points="393.091 292.225 393.091 337.27 395.056 338.404 395.056 291.062 393.091 292.225"/><polygon class="cls-114" points="395.056 338.404 374.841 350.506 374.841 347.722 393.091 337.27 395.056 338.404"/><polygon class="cls-115" points="362.224 309.823 362.224 354.867 364.188 356.002 364.188 308.66 362.224 309.823"/><polygon class="cls-116" points="364.188 356.002 343.974 368.104 343.974 365.32 362.224 354.867 364.188 356.002"/><polygon class="cls-117" points="331.356 327.429 331.356 372.473 333.321 373.608 333.321 326.266 331.356 327.429"/><polygon class="cls-118" points="333.321 373.608 313.107 385.71 313.107 382.926 331.356 372.473 333.321 373.608"/><polygon class="cls-119" points="425.64 391.892 374.841 421.218 374.841 418.434 423.675 390.758 425.64 391.892"/><polygon class="cls-120" points="362.224 369.267 362.224 414.312 364.188 415.446 364.188 368.104 362.224 369.267"/><polygon class="cls-121" points="364.188 415.446 343.974 427.548 343.974 424.765 362.224 414.312 364.188 415.446"/><polygon class="cls-122" points="454.542 137.825 454.542 182.87 456.507 184.004 456.507 136.662 454.542 137.825"/><polygon class="cls-123" points="456.507 184.004 436.292 196.107 436.292 193.323 454.542 182.87 456.507 184.004"/><polygon class="cls-124" points="423.675 155.423 423.675 200.468 425.64 201.602 425.64 154.26 423.675 155.423"/><polygon class="cls-125" points="425.64 201.602 405.425 213.705 405.425 210.921 423.675 200.468 425.64 201.602"/><polygon class="cls-126" points="454.542 197.269 454.542 242.314 456.507 243.448 456.507 196.107 454.542 197.269"/><polygon class="cls-127" points="456.507 243.448 436.292 255.551 436.292 252.767 454.542 242.314 456.507 243.448"/><polygon class="cls-128" points="423.675 214.867 423.675 259.912 425.64 261.046 425.64 213.705 423.675 214.867"/><polygon class="cls-129" points="425.64 261.046 405.425 273.149 405.425 270.365 423.675 259.912 425.64 261.046"/><polygon class="cls-130" points="454.542 256.714 454.542 301.758 456.507 302.893 456.507 255.551 454.542 256.714"/><polygon class="cls-131" points="456.507 302.893 436.292 314.995 436.292 312.211 454.542 301.758 456.507 302.893"/><polygon class="cls-132" points="423.675 274.312 423.675 319.356 425.64 320.491 425.64 273.149 423.675 274.312"/><polygon class="cls-133" points="425.64 320.491 405.425 332.593 405.425 329.809 423.675 319.356 425.64 320.491"/><polygon class="cls-134" points="454.542 316.158 454.542 361.202 456.507 362.337 456.507 314.995 454.542 316.158"/><polygon class="cls-135" points="456.507 362.337 436.292 374.439 436.292 371.655 454.542 361.202 456.507 362.337"/><polygon class="cls-136" points="506.153 286.16 506.153 331.204 508.118 332.338 508.118 284.997 506.153 286.16"/><polygon class="cls-137" points="508.118 332.338 467.16 356.575 467.16 353.791 506.153 331.204 508.118 332.338"/><polygon class="cls-138" points="506.153 226.715 506.153 271.76 508.118 272.894 508.118 225.553 506.153 226.715"/><polygon class="cls-139" points="508.118 272.894 467.16 297.131 467.16 294.347 506.153 271.76 508.118 272.894"/><polygon class="cls-140" points="506.153 167.271 506.153 212.316 508.118 213.45 508.118 166.108 506.153 167.271"/><polygon class="cls-141" points="508.118 213.45 467.16 237.687 467.16 234.903 506.153 212.316 508.118 213.45"/><polygon class="cls-142" points="506.153 108.095 506.153 153.139 508.118 154.274 508.118 106.932 506.153 108.095"/><polygon class="cls-143" points="508.118 154.274 467.16 178.51 467.16 175.727 506.153 153.139 508.118 154.274"/><polygon class="cls-144" points="423.675 333.756 423.675 390.758 425.64 391.892 425.64 332.593 423.675 333.756"/><polygon class="cls-145" points="331.356 386.873 331.356 431.918 333.321 433.052 333.321 385.71 331.356 386.873"/><polygon class="cls-146" points="333.321 433.052 313.107 445.154 313.107 442.371 331.356 431.918 333.321 433.052"/><polygon class="cls-147" points="147.356 374.242 365.24 499.409 216.002 586.316 0 460.151 147.356 374.242"/><polygon class="cls-148" points="324.494 506.972 215.757 570.116 39.355 467.707 147.356 404.515 324.494 506.972"/><polygon class="cls-149" points="242.327 524.047 242.327 539.572 256.748 531.411 256.748 515.088 242.327 524.047"/><polygon class="cls-150" points="229.257 515.518 229.257 532.025 242.327 539.572 242.327 524.047 229.257 515.518"/><polygon class="cls-151" points="229.257 515.518 243.002 507.386 256.748 515.088 242.327 524.047 229.257 515.518"/><polygon class="cls-152" points="242.647 512.409 236.436 515.947 241.898 519.813 247.911 516.438 242.647 512.409"/><polygon class="cls-153" points="273.243 505.43 273.243 520.955 287.663 512.794 287.663 496.471 273.243 505.43"/><polygon class="cls-154" points="260.172 496.901 260.172 513.408 273.243 520.955 273.243 505.43 260.172 496.901"/><polygon class="cls-155" points="260.172 496.901 273.918 488.769 287.663 496.471 273.243 505.43 260.172 496.901"/><polygon class="cls-156" points="273.562 493.792 267.352 497.33 272.813 501.196 278.827 497.821 273.562 493.792"/><polygon class="cls-157" points="147.029 389.214 147.356 404.515 324.494 506.972 337.503 499.409 147.029 389.214"/><polygon class="cls-158" points="60.137 439.86 147.029 389.214 147.356 404.515 61.429 454.791 60.137 439.86"/><polygon class="cls-159" points="78.464 474.388 78.464 459.661 106.774 475.206 193.11 424.285 193.11 442.97 107.919 491.079 78.464 474.388"/><polygon class="cls-160" points="78.464 459.661 106.774 475.206 193.11 424.285 147.356 404.515 68.81 450.497 78.464 459.661"/><polygon class="cls-161" points="0 460.151 0 555.143 119.537 624.608 119.537 546.307 215.511 601.78 215.511 586.316 0 460.151"/><polygon class="cls-162" points="365.23 594.348 365.23 499.405 215.521 586.316 215.521 632.227 270.326 603.282 270.326 648.859 365.23 594.348"/><polygon class="cls-163" points="79.037 523.479 66.682 531.027 215.511 616.998 215.511 601.78 79.037 523.479"/><polygon class="cls-164" points="270.493 570.239 283.411 579.198 215.511 616.998 215.511 601.78 270.493 570.239"/><polygon class="cls-165" points="66.682 531.027 66.682 547.043 215.511 632.217 215.511 616.998 66.682 531.027"/><polygon class="cls-166" points="283.411 579.198 283.411 596.38 215.511 632.217 215.511 616.998 283.411 579.198"/><path class="cls-167" d="M162.18883,723.93647c-1.06364,1.06365-27.81843,15.5456-27.81843,15.5456V692.16626l27.81843,15.92028Z" transform="translate(-14.83295 -114.87454)"/><polygon class="cls-168" points="283.411 579.198 283.411 625.958 351.74 586.316 351.74 538.329 283.411 579.198"/><polygon class="cls-169" points="345.779 541.895 345.779 583.003 351.74 586.316 351.74 538.329 345.779 541.895"/><polygon class="cls-170" points="283.411 625.958 283.411 618.348 345.779 583.003 351.74 586.316 283.411 625.958"/><polygon class="cls-171" points="255.889 610.616 255.889 640.071 270.326 648.859 270.326 603.282 255.889 610.616"/><polygon class="cls-172" points="12.027 421.369 12.027 577.316 66.682 609.062 66.682 452.624 12.027 421.369"/><polygon class="cls-173" points="12.027 421.369 25.937 413.678 78.464 444.77 78.464 601.698 66.682 609.062 66.682 452.624 12.027 421.369"/><path class="cls-174" d="M569.14947,512.77v64.25623c0,.33921.01023.67838.02566,1.01245V578.46a36.51264,36.51264,0,0,0,20.12538,32.81423,37.12906,37.12906,0,0,0,11.65068,3.69c.00514,0,.0735.33644.07864.34158-27.17644-1.475-48.53166-19.42882-48.53166-40.8904V510.24656a45.00792,45.00792,0,0,1,22.49458-38.96592c11.63023-6.71188,27.18466-7.27084,42.353,1.48156-3.356-1.00731-11.93594,1.32639-15.50256,1.32125-6.15683-.01029-4.21711-2.19638-10.17356,1.24179a44.9895,44.9895,0,0,0-21.12231,27.93708.18188.18188,0,0,0-.01029.05138A32.83989,32.83989,0,0,0,569.14947,512.77Z" transform="translate(-14.83295 -114.87454)"/><path class="cls-175" d="M623.7312,504.29243v62.92518c0,3.57179,2.07912,7.74848,1.26708,11.13527-2.287,8.14058-9.15406,17.21576-16.678,21.56359-7.40049,4.27585-16.92534.16675-22.60426-4.7207a18.819,18.819,0,0,0,4.908-1.994,32.88814,32.88814,0,0,0,16.42507-28.47151V500.24783a18.34155,18.34155,0,0,0-6.37778-14.0199c1.48011-.37516,5.79718-4.25107,7.267-4.25107C617.65155,481.97686,623.7312,493.44859,623.7312,504.29243Z" transform="translate(-14.83295 -114.87454)"/><path class="cls-176" d="M605.71692,470.33732a30.00627,30.00627,0,0,0-16.4588,4.99021,42.93835,42.93835,0,0,0-14.70143,16.46623,48.09238,48.09238,0,0,0-4.15711,11.47082.20152.20152,0,0,0-.00919.05141,49.96922,49.96922,0,0,0-1.216,10.97746v64.16887c0,14.91416,7.58473,26.88865,17.96841,32.81424a29.48916,29.48916,0,0,0,31.25657-.89423,42.97043,42.97043,0,0,0,14.80237-16.51761,49.27049,49.27049,0,0,0,5.419-22.59737V507.24751C638.62078,485.75512,622.88235,470.36816,605.71692,470.33732Zm18.01428,98.4375a36.28452,36.28452,0,0,1-1.10124,8.9115,32.58341,32.58341,0,0,1-13.5681,19.56c-6.60733,4.27584-14.20125,2.83685-19.27152-2.0506a19.43667,19.43667,0,0,1-5.74929-14.12269V516.81685c0-11.85115,5.67133-22.79266,14.862-28.66684a15.75115,15.75115,0,0,1,4.23973-1.92208,14.486,14.486,0,0,1,3.96443-.54991c8.6722,0,16.624,7.77057,16.624,18.61441Z" transform="translate(-14.83295 -114.87454)"/><path class="cls-177" d="M534.01056,558.4206v3.93155c-.23639,4.281,2.541,8.48557.696,12.45821-.48306,1.04325-1.60519,3.04082-2.19615,4.03784l-.85936,2.16867c-4.35433,7.34949-5.08983,11.39436-12.50852,10.44636-3.465-.44277-16.39482-5.69387-19.25157-7.93215a19.56349,19.56349,0,0,0,12.3599-9.17875l.036-.06678c.591-.997,1.13061-2.01976,1.61374-3.05787a34.17082,34.17082,0,0,0,3.12979-12.50385v-3.9264A34.32846,34.32846,0,0,0,512.662,539.8833a19.75969,19.75969,0,0,0-5.06217-5.92559c8.156-1.97349,19.26863-4.02826,23.9557,4.282C534.17143,542.8907,533.71758,553.26593,534.01056,558.4206Z" transform="translate(-14.83295 -114.87454)"/><path class="cls-178" d="M526.71,517.61435c-4.29642-1.66512-8.39866,2.43546-12.96233,2.43546-.30834,0-1.45806-1.00774-1.76647-1.00259-11.94365.29294-16.09372,2.45291-23.042,14.20641a53.80494,53.80494,0,0,0-7.33883,23.26032c-.11311,1.38761-.16443,2.78548-.16443,4.17823a53.92479,53.92479,0,0,0,6.938,26.45693c.17472.30323.34944.60129.52422.89937a36.27452,36.27452,0,0,0,12.92006,12.83277.20968.20968,0,0,0,.04629.02569c.81713.478,1.65483.91477,2.50276,1.32079a36.78473,36.78473,0,0,0,13.48543,3.54608c.00515,0,.00515.00514.01029.00514-19.28768-.94564-27.053-5.04162-33.02493-8.52091A36.23409,36.23409,0,0,1,471.918,584.42531c-.17992-.29809-.35464-.59617-.52421-.89937a53.91742,53.91742,0,0,1,.5653-53.89549,36.41182,36.41182,0,0,1,31.64244-18.05424C509.11077,511.57621,514.40139,511.17486,526.71,517.61435Z" transform="translate(-14.83295 -114.87454)"/><path class="cls-179" d="M516.83444,660.543c-23.13184,2.70841-37.52179-8.53631-44.95835-19.30308l16.98015,3.62832a36.13832,36.13832,0,0,0,14.12784,12.10811A36.97137,36.97137,0,0,0,516.83444,660.543Z" transform="translate(-14.83295 -114.87454)"/><path class="cls-180" d="M534.01056,598.79982v18.25983c-.01029.257-.02572.51392-.05145.77089-.40081,5.14955,2.32541,11.9201-.39837,16.51461L530.88717,638.26c-6.38293,10.777-22.02307,7.03475-30.99621.00938a19.59923,19.59923,0,0,0,12.3599-9.17875l.036-.07193a34.29163,34.29163,0,0,0,4.69215-14.81137c.02566-.257.04109-.51392.05138-.77089V605.558a36.58194,36.58194,0,0,0,13.91717-4.74353A34.541,34.541,0,0,0,534.01056,598.79982Z" transform="translate(-14.83295 -114.87454)"/><path class="cls-181" d="M549.02649,563.85281c.06256-1.15633.09828-2.31781.09828-3.47415,0-1.146-.03572-2.30238-.09828-3.45357a60.04421,60.04421,0,0,0-5.93759-23.00336,35.51768,35.51768,0,0,0-9.07834-11.774,29.23465,29.23465,0,0,0-18.78223-6.94829c-.26805,0-.53611.00514-.80421.01028-10.38293.293-20.66759,6.29046-26.70793,18.044a58.15864,58.15864,0,0,0-4.61506,12.20576,60.80145,60.80145,0,0,0-1.76477,11.05456c-.09833,1.38761-.143,2.78548-.143,4.17823a60.36021,60.36021,0,0,0,6.0314,26.45693c.15189.30323.30377.60129.45571.89937a34.22235,34.22235,0,0,0,11.23176,12.83277c.72382.4882,1.46541.93532,2.216,1.34648a28.58915,28.58915,0,0,0,18.121,3.33024,29.11807,29.11807,0,0,0,12.09857-4.74353,30.01834,30.01834,0,0,0,2.66273-2.01462v18.25983c-.009.257-.02236.51392-.04472.77089a37.9515,37.9515,0,0,1-4.07449,14.81137l-.03578.07192c-5.54885,10.77706-17.7055,12.58095-25.50608,5.55558a18.01591,18.01591,0,0,1-2.18472-2.35379l-4.10131,2.75978H498.059l-9.208,6.19281a33.08239,33.08239,0,0,0,12.2817,12.10811c14.12245,7.80655,32.48022,3.04758,41.46475-14.42592q.697-1.36445,1.31795-2.7495a60.03872,60.03872,0,0,0,5.11108-21.2149c.06256-1.15634.09828-2.31782.09828-3.47415,0-1.1666-.03572-2.32807-.09828-3.4947Zm-17.7368,10.998q-.62991,1.56489-1.39834,3.05787l-.03578.06682c-5.55332,10.78217-17.7055,12.58605-25.50608,5.55554a19.3977,19.3977,0,0,1-4.40962-5.93073q-.60987-1.23341-1.11245-2.52337a38.95559,38.95559,0,0,1,1.46989-31.94055l.02677-.04109a17.37915,17.37915,0,0,1,10.727-9.13763c7.09024-1.97349,15.09185,1.23855,19.16644,9.54876a38.32013,38.32013,0,0,1,3.79308,14.91413v3.93155A38.35437,38.35437,0,0,1,531.28969,574.85085Z" transform="translate(-14.83295 -114.87454)"/><polygon class="cls-182" points="487.354 521.053 474.023 529.994 457.043 526.365 470.374 517.425 487.354 521.053"/></svg>