<svg id="Слой_1" data-name="Слой 1" xmlns="http://www.w3.org/2000/svg" xmlns:xlink="http://www.w3.org/1999/xlink" viewBox="0 0 957.71673 720.85"><defs><style>.cls-1{fill:url(#Безымянный_градиент_81);}.cls-2{fill:url(#Безымянный_градиент_81-2);}.cls-3{fill:url(#Безымянный_градиент_81-3);}.cls-4{fill:url(#Безымянный_градиент_81-4);}.cls-5{fill:url(#Безымянный_градиент_3);}.cls-6{fill:url(#Безымянный_градиент_48);}.cls-7{fill:url(#Безымянный_градиент_38);}.cls-8{fill:url(#Безымянный_градиент_38-2);}.cls-9{fill:url(#Безымянный_градиент_33);}.cls-10{fill:url(#Безымянный_градиент_48-2);}.cls-11{fill:url(#Безымянный_градиент_38-3);}.cls-12{fill:url(#Безымянный_градиент_38-4);}.cls-13{fill:url(#Безымянный_градиент_48-3);}.cls-14{fill:url(#Безымянный_градиент_3-2);}.cls-15{fill:url(#Безымянный_градиент_3-3);}.cls-16{fill:url(#Безымянный_градиент_48-4);}.cls-17{fill:url(#Безымянный_градиент_33-2);}.cls-18{fill:url(#Безымянный_градиент_38-5);}.cls-19{fill:url(#Безымянный_градиент_48-5);}.cls-20{fill:url(#Безымянный_градиент_95);}.cls-21,.cls-44{fill:#f0eff4;}.cls-22{fill:url(#Безымянный_градиент_95-2);}.cls-23{fill:url(#Безымянный_градиент_95-3);}.cls-24{fill:url(#Безымянный_градиент_95-4);}.cls-25{fill:url(#Безымянный_градиент_95-5);}.cls-26{fill:url(#Безымянный_градиент_95-6);}.cls-27{fill:url(#Безымянный_градиент_95-7);}.cls-28{fill:url(#Безымянный_градиент_95-8);}.cls-29{fill:url(#Безымянный_градиент_95-9);}.cls-30{fill:url(#Безымянный_градиент_95-10);}.cls-31{fill:url(#Безымянный_градиент_95-11);}.cls-32{fill:url(#Безымянный_градиент_95-12);}.cls-33{fill:url(#Безымянный_градиент_95-13);}.cls-34{fill:url(#Безымянный_градиент_95-14);}.cls-35{fill:url(#Безымянный_градиент_95-15);}.cls-36{fill:url(#Безымянный_градиент_95-16);}.cls-37{fill:url(#Безымянный_градиент_95-17);}.cls-38{fill:url(#Безымянный_градиент_95-18);}.cls-39{fill:url(#Безымянный_градиент_3-4);}.cls-40{fill:url(#Безымянный_градиент_48-6);}.cls-41{fill:url(#Безымянный_градиент_3-5);}.cls-42{fill:url(#Безымянный_градиент_38-6);}.cls-43{fill:url(#Безымянный_градиент_3-6);}.cls-44{opacity:0.49;}.cls-45{fill:url(#Безымянный_градиент_3-7);}.cls-46{fill:url(#Безымянный_градиент_3-8);}.cls-47{fill:url(#Безымянный_градиент_3-9);}.cls-48{fill:url(#Безымянный_градиент_3-10);}.cls-49{fill:url(#Безымянный_градиент_81-5);}.cls-50{fill:url(#Безымянный_градиент_86);}.cls-51{fill:url(#Безымянный_градиент_86-2);}.cls-52{fill:url(#Безымянный_градиент_62);}.cls-53{fill:url(#Безымянный_градиент_95-19);}.cls-54{fill:url(#Безымянный_градиент_86-3);}.cls-55{fill:url(#Безымянный_градиент_86-4);}.cls-56{fill:url(#Безымянный_градиент_95-20);}.cls-57{fill:url(#Безымянный_градиент_95-21);}.cls-58{fill:url(#Безымянный_градиент_62-2);}.cls-59{fill:url(#Безымянный_градиент_62-3);}.cls-60{fill:url(#Безымянный_градиент_95-22);}.cls-61{fill:url(#Безымянный_градиент_95-23);}.cls-62{fill:url(#Безымянный_градиент_86-5);}.cls-63{fill:url(#Безымянный_градиент_82);}</style><linearGradient id="Безымянный_градиент_81" x1="-5483.28303" y1="1793.72087" x2="-5159.06404" y2="1793.72087" gradientTransform="translate(5788.3431 -264.49827) rotate(10.74042)" gradientUnits="userSpaceOnUse"><stop offset="0" stop-color="#b5b5c1" stop-opacity="0.3"/><stop offset="0.99512" stop-color="#fdfdfd" stop-opacity="0"/></linearGradient><linearGradient id="Безымянный_градиент_81-2" x1="-5519.03355" y1="1777.99704" x2="-5194.81456" y2="1777.99704" xlink:href="#Безымянный_градиент_81"/><linearGradient id="Безымянный_градиент_81-3" x1="-5056.02303" y1="1782.55489" x2="-4918.49589" y2="1782.55489" xlink:href="#Безымянный_градиент_81"/><linearGradient id="Безымянный_градиент_81-4" x1="-5243.48105" y1="1741.48739" x2="-4624.53753" y2="1741.48739" xlink:href="#Безымянный_градиент_81"/><linearGradient id="Безымянный_градиент_3" x1="541.61455" y1="394.09392" x2="609.42385" y2="394.09392" gradientUnits="userSpaceOnUse"><stop offset="0.00732" stop-color="#f0eff4"/><stop offset="0.6439" stop-color="#d2cfda"/><stop offset="1" stop-color="#b5b5c1"/></linearGradient><linearGradient id="Безымянный_градиент_48" x1="534.70089" y1="404.39607" x2="617.43913" y2="404.39607" gradientUnits="userSpaceOnUse"><stop offset="0" stop-color="#b5b5c1"/><stop offset="0.3561" stop-color="#d2cfda"/><stop offset="0.99268" stop-color="#f0eff4"/></linearGradient><linearGradient id="Безымянный_градиент_38" x1="617.44097" y1="375.34706" x2="651.4412" y2="375.34706" gradientUnits="userSpaceOnUse"><stop offset="0" stop-color="#fdfdfd"/><stop offset="1" stop-color="#f0eff4"/></linearGradient><linearGradient id="Безымянный_градиент_38-2" x1="0.00414" y1="340.18471" x2="280.02176" y2="340.18471" xlink:href="#Безымянный_градиент_38"/><linearGradient id="Безымянный_градиент_33" x1="21.14163" y1="360.15777" x2="676.5844" y2="360.15777" gradientUnits="userSpaceOnUse"><stop offset="0.57561" stop-color="#fbfbfd"/><stop offset="1" stop-color="#f3f3f5"/></linearGradient><linearGradient id="Безымянный_градиент_48-2" x1="14.22984" y1="144.04219" x2="641.99702" y2="144.04219" xlink:href="#Безымянный_градиент_48"/><linearGradient id="Безымянный_градиент_38-3" x1="18.17556" y1="223.70461" x2="638.10749" y2="223.70461" xlink:href="#Безымянный_градиент_38"/><linearGradient id="Безымянный_градиент_38-4" x1="12.58118" y1="442.33579" x2="280.02176" y2="442.33579" xlink:href="#Безымянный_градиент_38"/><linearGradient id="Безымянный_градиент_48-3" x1="280.02176" y1="312.39232" x2="655.44706" y2="312.39232" xlink:href="#Безымянный_градиент_48"/><linearGradient id="Безымянный_градиент_3-2" x1="280.02249" y1="415.15519" x2="645.18392" y2="415.15519" xlink:href="#Безымянный_градиент_3"/><linearGradient id="Безымянный_градиент_3-3" x1="307.42884" y1="483.9426" x2="523.53622" y2="483.9426" xlink:href="#Безымянный_градиент_3"/><linearGradient id="Безымянный_градиент_48-4" x1="299.65596" y1="481.35703" x2="534.70089" y2="481.35703" xlink:href="#Безымянный_градиент_48"/><linearGradient id="Безымянный_градиент_33-2" x1="2.84827" y1="532.68067" x2="307.42884" y2="532.68067" xlink:href="#Безымянный_градиент_33"/><linearGradient id="Безымянный_градиент_38-5" x1="2.84827" y1="546.19029" x2="280.02176" y2="546.19029" xlink:href="#Безымянный_градиент_38"/><linearGradient id="Безымянный_градиент_48-5" x1="280.02176" y1="620.39625" x2="307.42884" y2="620.39625" xlink:href="#Безымянный_градиент_48"/><linearGradient id="Безымянный_градиент_95" x1="359.58014" y1="626.09716" x2="380.84213" y2="626.09716" gradientUnits="userSpaceOnUse"><stop offset="0" stop-color="#ef6452"/><stop offset="0.3561" stop-color="#f77f48"/></linearGradient><linearGradient id="Безымянный_градиент_95-2" x1="400.34285" y1="602.41653" x2="421.60484" y2="602.41653" xlink:href="#Безымянный_градиент_95"/><linearGradient id="Безымянный_градиент_95-3" x1="441.13026" y1="578.8337" x2="462.39225" y2="578.8337" xlink:href="#Безымянный_градиент_95"/><linearGradient id="Безымянный_градиент_95-4" x1="481.89296" y1="555.15308" x2="503.15495" y2="555.15308" xlink:href="#Безымянный_градиент_95"/><linearGradient id="Безымянный_градиент_95-5" x1="522.66601" y1="531.4635" x2="543.928" y2="531.4635" xlink:href="#Безымянный_градиент_95"/><linearGradient id="Безымянный_градиент_95-6" x1="563.42872" y1="507.78288" x2="584.69071" y2="507.78288" xlink:href="#Безымянный_градиент_95"/><linearGradient id="Безымянный_градиент_95-7" x1="604.21613" y1="484.13389" x2="625.47811" y2="484.13389" xlink:href="#Безымянный_градиент_95"/><linearGradient id="Безымянный_градиент_95-8" x1="644.97883" y1="460.45326" x2="666.24082" y2="460.45326" xlink:href="#Безымянный_градиент_95"/><linearGradient id="Безымянный_градиент_95-9" x1="685.75426" y1="436.80537" x2="707.01253" y2="436.80537" xlink:href="#Безымянный_градиент_95"/><linearGradient id="Безымянный_градиент_95-10" x1="280.16152" y1="465.08344" x2="358.83012" y2="465.08344" xlink:href="#Безымянный_градиент_95"/><linearGradient id="Безымянный_градиент_95-11" x1="317.90547" y1="441.99167" x2="399.58397" y2="441.99167" xlink:href="#Безымянный_градиент_95"/><linearGradient id="Безымянный_градиент_95-12" x1="357.65109" y1="417.05389" x2="440.36849" y2="417.05389" xlink:href="#Безымянный_градиент_95"/><linearGradient id="Безымянный_градиент_95-13" x1="404.43949" y1="393.70608" x2="481.13824" y2="393.70608" xlink:href="#Безымянный_градиент_95"/><linearGradient id="Безымянный_градиент_95-14" x1="442.85079" y1="370.51356" x2="521.90723" y2="370.51356" xlink:href="#Безымянный_градиент_95"/><linearGradient id="Безымянный_градиент_95-15" x1="484.3803" y1="346.63059" x2="562.69213" y2="346.63059" xlink:href="#Безымянный_градиент_95"/><linearGradient id="Безымянный_градиент_95-16" x1="525.41328" y1="322.86389" x2="603.4615" y2="322.86389" xlink:href="#Безымянный_градиент_95"/><linearGradient id="Безымянный_градиент_95-17" x1="566.67919" y1="299.34565" x2="644.21534" y2="299.34565" xlink:href="#Безымянный_градиент_95"/><linearGradient id="Безымянный_градиент_95-18" x1="605.36719" y1="276.40145" x2="685.00065" y2="276.40145" xlink:href="#Безымянный_градиент_95"/><linearGradient id="Безымянный_градиент_3-4" x1="540.06583" y1="404.56549" x2="552.91808" y2="404.56549" xlink:href="#Безымянный_градиент_3"/><linearGradient id="Безымянный_градиент_48-6" x1="632.6952" y1="419.10922" x2="651.4412" y2="419.10922" xlink:href="#Безымянный_градиент_48"/><linearGradient id="Безымянный_градиент_3-5" x1="566.57253" y1="613.04622" x2="699.08318" y2="613.04622" xlink:href="#Безымянный_градиент_3"/><linearGradient id="Безымянный_градиент_38-6" x1="444.56121" y1="545.44694" x2="482.08434" y2="545.44694" xlink:href="#Безымянный_градиент_38"/><linearGradient id="Безымянный_градиент_3-6" x1="482.08434" y1="539.88814" x2="540.45367" y2="539.88814" xlink:href="#Безымянный_градиент_3"/><linearGradient id="Безымянный_градиент_3-7" x1="473.60043" y1="505.4271" x2="531.04865" y2="505.4271" xlink:href="#Безымянный_градиент_3"/><linearGradient id="Безымянный_градиент_3-8" x1="11.38066" y1="495.18985" x2="46.80302" y2="495.18985" xlink:href="#Безымянный_градиент_3"/><linearGradient id="Безымянный_градиент_3-9" x1="457.79611" y1="521.77296" x2="489.76064" y2="521.77296" xlink:href="#Безымянный_градиент_3"/><linearGradient id="Безымянный_градиент_3-10" x1="34.03808" y1="509.49155" x2="83.77755" y2="509.49155" xlink:href="#Безымянный_градиент_3"/><linearGradient id="Безымянный_градиент_81-5" x1="252.19504" y1="418.18283" x2="726.60313" y2="418.18283" gradientTransform="matrix(1, 0, 0, 1, 0, 0)" xlink:href="#Безымянный_градиент_81"/><linearGradient id="Безымянный_градиент_86" x1="370.81545" y1="267.02362" x2="341.79335" y2="267.02362" gradientUnits="userSpaceOnUse"><stop offset="0.57561" stop-color="#ff9c88"/><stop offset="1" stop-color="#f77f48"/></linearGradient><linearGradient id="Безымянный_градиент_86-2" x1="397.68159" y1="227.6529" x2="474.3023" y2="227.6529" xlink:href="#Безымянный_градиент_86"/><linearGradient id="Безымянный_градиент_62" x1="436.93013" y1="228.92937" x2="483.56645" y2="228.92937" gradientUnits="userSpaceOnUse"><stop offset="0" stop-color="#f77f48"/><stop offset="0.54634" stop-color="#ff9c88"/></linearGradient><linearGradient id="Безымянный_градиент_95-19" x1="417.38544" y1="230.09844" x2="499.43979" y2="230.09844" xlink:href="#Безымянный_градиент_95"/><linearGradient id="Безымянный_градиент_86-3" x1="304.52616" y1="282.15359" x2="380.01121" y2="282.15359" xlink:href="#Безымянный_градиент_86"/><linearGradient id="Безымянный_градиент_86-4" x1="332.90866" y1="213.59056" x2="343.46138" y2="213.59056" xlink:href="#Безымянный_градиент_86"/><linearGradient id="Безымянный_градиент_95-20" x1="341.79335" y1="298.95852" x2="362.4839" y2="298.95852" xlink:href="#Безымянный_градиент_95"/><linearGradient id="Безымянный_градиент_95-21" x1="324.19689" y1="285.14755" x2="403.1822" y2="285.14755" xlink:href="#Безымянный_градиент_95"/><linearGradient id="Безымянный_градиент_62-2" x1="350.55703" y1="316.9334" x2="383.48558" y2="316.9334" xlink:href="#Безымянный_градиент_62"/><linearGradient id="Безымянный_градиент_62-3" x1="355.82904" y1="225.54359" x2="378.80992" y2="225.54359" xlink:href="#Безымянный_градиент_62"/><linearGradient id="Безымянный_градиент_95-22" x1="216.15344" y1="193.27729" x2="268.00949" y2="193.27729" xlink:href="#Безымянный_градиент_95"/><linearGradient id="Безымянный_градиент_95-23" x1="-561.97981" y1="360.3284" x2="-551.42709" y2="360.3284" gradientTransform="translate(-218.51843 573.91896) rotate(180)" xlink:href="#Безымянный_градиент_95"/><linearGradient id="Безымянный_градиент_86-5" x1="196.48273" y1="131.69758" x2="268.00946" y2="131.69758" xlink:href="#Безымянный_градиент_86"/><linearGradient id="Безымянный_градиент_82" x1="231.0534" y1="217.80838" x2="250.72413" y2="217.80838" gradientUnits="userSpaceOnUse"><stop offset="0" stop-color="#f77f48"/><stop offset="0.42439" stop-color="#ff9c88"/></linearGradient></defs><title>2-160_Shop</title><polygon class="cls-1" points="55.794 534.175 345.913 636.097 405.013 432.856 66.047 485.665 55.794 534.175"/><polygon class="cls-2" points="23.6 512.064 313.719 613.987 372.819 410.745 33.853 463.554 23.6 512.064"/><polygon class="cls-3" points="484.38 567.349 566.679 596.411 630.595 534.477 540.454 534.878 484.38 567.349"/><polygon class="cls-4" points="280.027 638.799 560.277 720.85 957.717 387.273 646.503 336.516 617.439 428.353 307.429 605.527 307.429 622.917 280.027 638.799"/><polygon class="cls-5" points="542.376 460.931 541.615 366.146 599.987 327.257 609.424 334.755 609.424 423.569 542.376 460.931"/><polygon class="cls-6" points="542.376 460.931 609.424 423.569 609.424 334.755 617.439 333.721 617.439 428.353 534.701 475.071 534.701 352.725 541.615 366.146 542.376 460.931"/><polygon class="cls-7" points="651.441 402.757 632.695 413.224 632.695 435.461 617.441 428.357 617.441 333.72 619.368 325.086 619.377 325.077 620.414 320.401 621.572 315.233 625.055 321.784 627.008 325.449 627.008 410.38 645.184 400.043 651.441 402.757"/><polygon class="cls-8" points="0.004 249.043 0.004 269.211 280.022 431.326 280.022 410.383 0.004 249.043"/><path class="cls-9" d="M628.47937,304.77986,522.46826,242.50944l-26.15273-15.358-51.83-30.44811-15.09877-8.86739-29.7567-17.47545-46.705,26.93053-3.67313,2.11747v.00865l-3.267,1.8841h-.00865L307.335,223.582l-6.24,3.604-20.12876,11.6071h-.00865l-97.28189,56.09954L21.14163,388.6224,301.16412,549.9551l129.74375-74.96651L676.5844,333.03275ZM421.75531,471.99826,301.16412,541.42479,39.31719,390.88678l-3.9497-2.26438,146.83892-85.62293,86.99714-50.72383,31.89142-18.599,11.79726-6.87958L399.414,176.34981l25.349,15.05552,19.54972,11.6244,51.7868,30.75928,25.0379,14.88265L612.378,302.87851l50.75838,30.15424-3.8892,2.23847Z" transform="translate(-21.14163 -139.575)"/><polygon class="cls-10" points="18.176 251.312 377.756 45.559 638.107 195.698 641.997 193.458 378.269 36.773 14.23 249.043 18.176 251.312"/><polygon class="cls-11" points="18.176 251.312 280.022 401.851 638.107 195.698 377.756 45.559 18.176 251.312"/><polygon class="cls-12" points="12.581 276.492 12.581 454.596 280.022 608.179 280.022 431.326 12.581 276.492"/><polygon class="cls-13" points="280.022 410.383 280.022 431.326 655.447 216.206 655.447 193.458 280.022 410.383"/><polygon class="cls-14" points="627.008 302.044 606.94 312.096 584.841 323.158 563.13 334.031 540.893 345.171 519.381 355.94 496.763 367.271 475.364 377.987 455.114 388.125 453.74 388.817 432.929 399.24 410.553 410.441 385.887 422.8 364.072 433.715 342.725 444.415 321.412 455.08 301.041 465.287 299.676 465.97 299.676 597.84 299.659 597.848 280.022 608.176 280.022 431.33 409.801 356.968 409.801 356.96 645.106 222.134 645.115 242.073 645.123 265.235 645.132 287.706 645.141 310.108 645.149 315.164 645.184 400.043 627.008 410.38 627.008 302.044"/><polygon class="cls-15" points="307.429 469.19 307.429 593.442 523.536 469.19 523.536 374.444 307.429 469.19"/><polygon class="cls-16" points="523.536 374.444 523.536 469.189 307.429 593.442 307.429 511.996 341.817 488.137 340.007 483.942 307.429 506.449 307.429 469.189 299.656 464.441 299.656 609.989 534.701 475.071 534.701 352.725 523.536 374.444"/><polygon class="cls-17" points="12.581 448.391 2.848 453.562 280.022 616.97 307.429 601.974 299.672 597.837 280.022 608.179 12.581 454.596 12.581 448.391"/><polygon class="cls-18" points="2.848 453.562 2.848 476.703 280.022 638.818 280.022 616.97 2.848 453.562"/><polygon class="cls-19" points="307.429 601.974 307.429 622.917 280.022 638.818 280.022 616.97 307.429 601.974"/><path class="cls-20" d="M379.967,615.86447c.179,9.795,3.16077,15.2026-3.01826,18.69329-5.43052,3.06785-17.18953,2.9488-17.36857-6.84616Z" transform="translate(-21.14163 -139.575)"/><path class="cls-21" d="M400.351,604.01642c.179,9.795.58869,16.27406-5.59033,19.76476-5.43053,3.06784-14.61745,1.87733-14.79649-7.91764Z" transform="translate(-21.14163 -139.575)"/><path class="cls-22" d="M420.72967,592.18385c.179,9.795,3.16077,15.20259-3.01825,18.69329-5.43053,3.06784-17.18954,2.9488-17.36857-6.84617Z" transform="translate(-21.14163 -139.575)"/><path class="cls-21" d="M441.12764,580.421c.179,9.795.58869,16.27407-5.59034,19.76476-5.43052,3.06785-14.61745,1.87733-14.79648-7.91763Z" transform="translate(-21.14163 -139.575)"/><path class="cls-23" d="M461.51708,568.601c.179,9.795,3.16077,15.20259-3.01825,18.69329-5.43053,3.06784-17.18954,2.9488-17.36857-6.84617Z" transform="translate(-21.14163 -139.575)"/><path class="cls-21" d="M481.90109,556.753c.179,9.795.58869,16.27407-5.59034,19.76476-5.43053,3.06785-14.61745,1.87734-14.79648-7.91763Z" transform="translate(-21.14163 -139.575)"/><path class="cls-24" d="M502.27978,544.92039c.179,9.795,3.16078,15.2026-3.01825,18.69329-5.43053,3.06785-17.18953,2.9488-17.36857-6.84616Z" transform="translate(-21.14163 -139.575)"/><path class="cls-21" d="M522.66379,533.07234c.179,9.795.58869,16.27406-5.59034,19.76476-5.43052,3.06784-14.61745,1.87733-14.79648-7.91764Z" transform="translate(-21.14163 -139.575)"/><path class="cls-25" d="M543.05284,521.23081c.179,9.795,3.16077,15.2026-3.01826,18.69329-5.43053,3.06785-17.18953,2.9488-17.36857-6.84616Z" transform="translate(-21.14163 -139.575)"/><path class="cls-21" d="M563.43684,509.38276c.179,9.795.58869,16.27407-5.59033,19.76476-5.43053,3.06784-14.61745,1.87733-14.79649-7.91763Z" transform="translate(-21.14163 -139.575)"/><path class="cls-26" d="M583.81554,497.55019c.179,9.795,3.16077,15.2026-3.01825,18.69329-5.43053,3.06785-17.18954,2.9488-17.36857-6.84617Z" transform="translate(-21.14163 -139.575)"/><path class="cls-21" d="M604.21351,485.7212c.179,9.795.58869,16.27406-5.59034,19.76475-5.43052,3.06785-14.61745,1.87734-14.79648-7.91763Z" transform="translate(-21.14163 -139.575)"/><path class="cls-27" d="M624.603,473.9012c.179,9.795,3.16077,15.2026-3.01825,18.69329-5.43053,3.06785-17.18954,2.9488-17.36857-6.84617Z" transform="translate(-21.14163 -139.575)"/><path class="cls-21" d="M644.987,462.05315c.179,9.795.58869,16.27406-5.59034,19.76475-5.43053,3.06785-14.61745,1.87734-14.79649-7.91763Z" transform="translate(-21.14163 -139.575)"/><path class="cls-28" d="M665.36565,450.22057c.179,9.795,3.16078,15.2026-3.01825,18.69329-5.43053,3.06785-17.18953,2.9488-17.36857-6.84616Z" transform="translate(-21.14163 -139.575)"/><path class="cls-21" d="M680.16247,458.13539c-4.44234,2.50639-11.39973,2.16931-13.87142-3.39657a11.403,11.403,0,0,1-.92482-4.5201l.91617-.53584,1.00248-.57909,18.42623-10.71688.03449-.01731v.05186C685.92717,448.19632,686.33335,454.65242,680.16247,458.13539Z" transform="translate(-21.14163 -139.575)"/><path class="cls-29" d="M703.11735,445.26649c-5.42762,3.06814-17.18153,2.94713-17.36309-6.845L706.13363,426.581v-.0086h.00865c0,.20742.00865.41483.01731.62225v.0173C706.44486,436.59787,709.15857,441.85263,703.11735,445.26649Z" transform="translate(-21.14163 -139.575)"/><path class="cls-21" d="M720.93,434.48905c-5.30671,2.999-14.2086,1.9273-14.77039-7.27711v-.0173c-.01731-.19877-.026-.40618-.026-.61365v-.0086h.00865v-.00865l8.53907-4.96088,11.84041-6.87959v.00866C726.70323,424.51543,727.10941,430.99744,720.93,434.48905Z" transform="translate(-21.14163 -139.575)"/><polygon class="cls-30" points="358.83 476.284 338.445 488.137 280.162 452.533 298.126 442.17 298.374 442.03 358.83 476.284"/><polygon class="cls-31" points="399.584 452.61 379.199 464.463 317.905 430.768 337.127 419.676 337.39 419.521 399.584 452.61"/><polygon class="cls-21" points="379.199 464.463 358.83 476.284 298.374 442.03 317.735 430.861 317.905 430.768 379.199 464.463"/><polygon class="cls-21" points="419.984 440.867 399.584 452.61 337.39 419.521 357.419 407.979 357.651 407.839 419.984 440.867"/><polygon class="cls-32" points="440.368 429.03 419.984 440.867 357.651 407.839 382.969 393.241 440.368 429.03"/><polygon class="cls-21" points="460.753 417.194 440.368 429.03 382.969 393.241 403.912 381.156 404.439 380.861 460.753 417.194"/><polygon class="cls-33" points="481.138 405.341 460.753 417.194 404.439 380.861 422.575 370.405 422.901 370.219 481.138 405.341"/><polygon class="cls-21" points="501.523 393.505 481.138 405.341 422.901 370.219 442.432 358.94 442.851 358.708 501.523 393.505"/><polygon class="cls-34" points="521.907 381.652 501.523 393.505 442.851 358.708 462.243 347.523 521.907 381.652"/><polygon class="cls-21" points="542.292 369.816 521.907 381.652 462.243 347.523 484.38 334.755 542.292 369.816"/><polygon class="cls-35" points="562.692 357.994 542.292 369.816 484.38 334.755 503.99 323.446 562.692 357.994"/><polygon class="cls-21" points="583.077 346.173 562.692 357.994 503.99 323.446 525.165 311.236 525.413 311.082 583.077 346.173"/><polygon class="cls-36" points="603.461 334.32 583.077 346.173 525.413 311.082 545.41 299.555 603.461 334.32"/><polygon class="cls-21" points="623.831 322.5 603.461 334.32 545.41 299.555 566.462 287.408 566.679 287.284 623.831 322.5"/><polygon class="cls-37" points="644.215 310.647 623.831 322.5 566.679 287.284 585.9 276.192 585.916 276.192 644.215 310.647"/><polygon class="cls-21" points="664.613 298.838 664.604 298.846 646.143 309.529 645.141 310.108 644.225 310.644 644.216 310.644 585.913 276.194 605.367 264.976 645.132 287.706 664.569 298.812 664.604 298.829 664.613 298.838"/><polygon class="cls-38" points="685.001 286.989 684.992 286.997 664.613 298.838 664.604 298.829 664.569 298.812 645.132 287.706 605.367 264.976 624.467 253.965 645.123 265.235 685.001 286.989"/><polygon class="cls-21" points="705.38 275.148 705.38 275.157 693.54 282.028 685.001 286.989 645.123 265.235 624.467 253.965 645.098 242.064 645.115 242.073 705.38 275.148"/><polygon class="cls-21" points="526.427 470.885 526.427 380.861 523.536 381.652 523.536 469.189 307.429 593.442 307.429 595.769 526.427 470.885"/><polygon class="cls-21" points="606.838 340.573 606.838 421.63 542.355 458.345 542.376 460.931 609.424 423.569 609.424 340.055 606.838 340.573"/><polygon class="cls-39" points="540.066 393.706 552.918 387.501 552.918 413.874 540.066 421.63 540.066 393.706"/><polygon class="cls-40" points="651.441 402.757 651.441 424.087 640.638 430.647 632.695 435.461 632.695 413.224 651.441 402.757"/><path class="cls-41" d="M642.20056,574.3917l-75.628,44.21331s54.94344,33.22462,55.46056,33.09534,77.05009-43.56691,77.05009-43.56691Z" transform="translate(-21.14163 -139.575)"/><polygon class="cls-42" points="444.561 523.243 444.561 545.932 482.084 567.651 482.084 545.447 444.561 523.243"/><polygon class="cls-43" points="482.084 567.651 540.454 534.878 540.454 512.126 482.084 545.447 482.084 567.651"/><path class="cls-44" d="M552.18186,645.69861l-23.9143-15.21973-5.55728-3.54352-27.959,17.60511-1.452.90752c-.00865-.00865-.00865,0-.00865,0l-12.01323,7.57094-15.57411,9.80081,3.05949,1.81494,34.46692,20.37943,19.78319-11.296h.00865l25.40936-14.50237,13.16277-7.51048v-.00865ZM518.76062,673.3465l-15.531,8.9538-8.366-4.96954-13.96648-8.29694-9.723-5.78195-.726-.43213,9.03155-5.60909,15.384-9.56744,3.17179-1.97055,24.49341-15.22838,2.82616,1.70263,26.654,16.09265,5.03,3.03358-6.68941,3.8546Z" transform="translate(-21.14163 -139.575)"/><circle class="cls-45" cx="502.32454" cy="505.4271" r="28.72411"/><circle class="cls-46" cx="29.09184" cy="495.18985" r="17.71118"/><circle class="cls-47" cx="473.77838" cy="521.77296" r="15.98226"/><circle class="cls-48" cx="58.90781" cy="509.49155" r="24.86974"/><path class="cls-49" d="M720.93,434.48905c-5.30671,2.999-14.2086,1.9273-14.77039-7.27711.28527,9.38593,2.999,14.64069-3.04224,18.05455-5.42762,3.06814-17.18153,2.94713-17.36309-6.845L706.13363,426.581v-.0086l-20.37937,11.84042v.00865h-.00866c.18157,9.77486.58775,16.231-5.58313,19.71393-4.44234,2.50639-11.39973,2.16931-13.87142-3.39657a11.403,11.403,0,0,1-.92482-4.5201c.18146,9.80076,3.16314,15.20243-3.01629,18.6941-3.69043,2.08286-10.28479,2.69651-14.19995-.18151a7.84283,7.84283,0,0,1-3.14594-6.08442c.18146,9.47233.44078,15.74691-5.60909,19.16943a8.90372,8.90372,0,0,1-.81236.40618,11.52236,11.52236,0,0,1-8.02042.6396,8.11673,8.11673,0,0,1-2.58415-1.3137c-1.95325-1.47792-3.31021-3.94971-3.37931-7.64879.18157,9.80081,3.16325,15.20247-3.01628,18.69409-5.42752,3.06819-17.19029,2.94718-17.3631-6.845l-.00865.00866c.18146,9.77485.579,16.23955-5.59178,19.73122-5.42762,3.06814-14.60613,1.87545-14.79635-7.90806h-.00865c.19022,9.78351,3.1547,15.17653-3.01629,18.65955-5.36706,3.03353-16.9222,2.95578-17.35433-6.51661.09495,5.03869.23326,9.17851-.55325,12.48a9.96915,9.96915,0,0,1-5.04729,6.94009,11.19778,11.19778,0,0,1-1.9964.88151,10.85592,10.85592,0,0,1-8.27975-.42348,7.75954,7.75954,0,0,1-2.88662-2.5582,10.16712,10.16712,0,0,1-1.60752-5.177c.28517,9.39463,2.999,14.64068-3.03359,18.05455a13.773,13.773,0,0,1-4.13122,1.452L524.81914,538.832a8.26589,8.26589,0,0,1-2.15212-5.756c.03461,1.8841.07786,3.63858.07786,5.28066l-6.57706-1.50382-15.4704-3.55212h-.00865l-24.43284-5.60049-4.05336-.92472L430.977,517.329v-.0086l-.03456-20.777v-.00865l-.0346-21.54617-9.15256-2.99033L252.195,424.25632l36.95608-6.57666,116.92493-18.12791-63.80736-31.87851,54.54-21.29215,95.71529-1.27815-51.32381-31.39828,49.16819-18.71194,110.30742,6.50293h.00865l11.69356,1.38286h.00865l16.09275,1.90135.97652.11236,47.12851,28.14053v22.74751l-10.3366,5.92886-.00865,19.93.0173.00865,60.26531,33.07551v.00866C726.70323,424.51543,727.10941,430.99744,720.93,434.48905Z" transform="translate(-21.14163 -139.575)"/><path class="cls-50" d="M370.81545,265.02742h-.0173c-.59635-.13832-1.21-.25067-1.815-.34573a33.10113,33.10113,0,0,0-10.03412-.05185c-.44079.0605-.87292.13825-1.305.22471a33.50021,33.50021,0,0,0-12.55778,5.15965c-.06915.0432-.12966.08646-.19876.12966a33.83006,33.83006,0,0,0-3.09409,2.34218V262.01973C347.16041,261.6481,360.46149,260.31715,370.81545,265.02742Z" transform="translate(-21.14163 -139.575)"/><path class="cls-51" d="M417.35594,194.57949v75.922c0,.4008.01208.80155.03032,1.19627v.49789a43.14154,43.14154,0,0,0,23.77915,38.77167,43.86993,43.86993,0,0,0,13.76586,4.35991c.00608,0,.08684.39752.09292.40359-32.11033-1.74274-57.3426-22.95613-57.3426-48.31407V191.598a53.17913,53.17913,0,0,1,26.57848-46.04019c13.7417-7.93043,32.12-8.59087,50.04223,1.75053-3.96523-1.19019-14.10292,1.5672-18.31706,1.56113-7.27461-.01216-4.98273-2.59514-12.02058,1.46723a53.15743,53.15743,0,0,0-24.95707,33.00907.21508.21508,0,0,0-.01216.0607A38.802,38.802,0,0,0,417.35594,194.57949Z" transform="translate(-21.14163 -139.575)"/><path class="cls-52" d="M481.847,184.56287v74.34926c0,4.22026,2.45658,9.15523,1.49711,13.15689-2.70214,9.61851-10.816,20.34129-19.70592,25.47847-8.744,5.05212-19.99814.197-26.70807-5.57775a22.23584,22.23584,0,0,0,5.79908-2.356,38.859,38.859,0,0,0,19.407-33.64053V179.784a21.67151,21.67151,0,0,0-7.53567-16.56522c1.74883-.44327,6.84966-5.02285,8.58633-5.02285C474.66359,158.1959,481.847,171.75032,481.847,184.56287Z" transform="translate(-21.14163 -139.575)"/><path class="cls-53" d="M460.56222,144.4432a35.45375,35.45375,0,0,0-19.44689,5.89618,50.73385,50.73385,0,0,0-17.37049,19.45568,56.82422,56.82422,0,0,0-4.91184,13.55335.23881.23881,0,0,0-.01085.06074,59.0412,59.0412,0,0,0-1.43671,12.97043v75.81875c0,17.62183,8.96174,31.77029,21.23059,38.77167a34.84289,34.84289,0,0,0,36.9312-1.05657A50.7718,50.7718,0,0,0,493.037,290.397a58.21557,58.21557,0,0,0,6.40281-26.69993V188.05444C499.43979,162.66011,480.844,144.47963,460.56222,144.4432ZM481.847,260.75206a42.87276,42.87276,0,0,1-1.30117,10.52938,38.499,38.499,0,0,1-16.0314,23.11118c-7.80689,5.05213-16.77949,3.35189-22.77027-2.42288a22.96535,22.96535,0,0,1-6.79308-16.68667v-75.922c0-14.00273,6.701-26.93068,17.56023-33.87132a18.611,18.611,0,0,1,5.00945-2.271,17.11594,17.11594,0,0,1,4.68418-.64974c10.24663,0,19.64206,9.18131,19.64206,21.99386Z" transform="translate(-21.14163 -139.575)"/><path class="cls-54" d="M324.19689,248.468v20.04236c.0086-.00866.0259-.01731.03455-.02591V317.1427c0,1.331.03455,2.67056.11236,4.01021a72.26716,72.26716,0,0,0,1.84089,12.60963,68.89956,68.89956,0,0,0,5.05594,14.13079,42.99466,42.99466,0,0,0,6.4388,9.67975,44.38861,44.38861,0,0,0,10.328,7.28577c1.14084.57909,2.29893,1.10628,3.49162,1.59027a43.64227,43.64227,0,0,0,10.27615,2.77432c.00865,0,.06915.30247.0864.38028l.00865.00859v.00866c-.05185,0-.1037-.00866-.14691-.00866-.6655-.0432-1.3396-.07775-2.0051-.13826a.32364.32364,0,0,1-.08641-.00865c-4.52015-.37162-9.0748-.21263-13.47394-.84264-.8441-.14878-17.63107-3.99723-24.06982-9.373A41.30541,41.30541,0,0,1,311.544,345.56845a65.684,65.684,0,0,1-2.95578-7.02649,70.83438,70.83438,0,0,1-3.94971-19.71393c-.06915-1.33965-.11236-2.67926-.11236-4.01021V245.4863a53.18132,53.18132,0,0,1,26.57621-46.03946c10.47491-6.04122,25.87616-6.26594,38.33887-1.05444a39.15456,39.15456,0,0,1,10.57,6.47336,33.255,33.255,0,0,0-22.35858-3.64719,34.035,34.035,0,0,0-14.19125,6.32644,39.89459,39.89459,0,0,0-10.55272,12.09109c-.82966,1.305-1.60752,2.662-2.32488,4.05341q-1.05007,2.04834-1.93595,4.19168a56.20554,56.20554,0,0,0-2.97308,9.36c0,.01731-.00865.04321-.00865.06051-.19877.89882-.38028,1.79769-.53584,2.71381a.25187.25187,0,0,0-.01725.07775A38.493,38.493,0,0,0,324.19689,248.468Z" transform="translate(-21.14163 -139.575)"/><path class="cls-55" d="M343.46138,207.545a50.72527,50.72527,0,0,0-10.55272,12.09109A39.89459,39.89459,0,0,1,343.46138,207.545Z" transform="translate(-21.14163 -139.575)"/><path class="cls-56" d="M346.62457,233.06679l-.0432.07781a44.22765,44.22765,0,0,0-4.73617,17.21618c-.02595.30252-.0432.59635-.05185.89882v1.99651a41.88449,41.88449,0,0,1,8.08087-24.97734A23.16089,23.16089,0,0,0,346.62457,233.06679Zm0,0-.0432.07781a44.22765,44.22765,0,0,0-4.73617,17.21618c-.02595.30252-.0432.59635-.05185.89882v1.99651a41.88449,41.88449,0,0,1,8.08087-24.97734A23.16089,23.16089,0,0,0,346.62457,233.06679Zm15.237,136.53693.00865.00859c.20742.00866.40624.01731.61365.026C362.27649,369.62962,362.069,369.61231,361.8616,369.60372Z" transform="translate(-21.14163 -139.575)"/><path class="cls-57" d="M396.173,286.02044c-.17286-.34573-.35433-.6914-.52719-1.04578a42.3831,42.3831,0,0,0-6.95734-9.78351,36.71419,36.71419,0,0,0-6.10172-5.12509c-.83837-.5704-1.70263-1.089-2.57555-1.56433a33.70623,33.70623,0,0,0-9.19576-3.47431h-.0173c-.59635-.13832-1.21-.25067-1.815-.34573a33.10113,33.10113,0,0,0-10.03412-.05185c-.44079.0605-.87292.13825-1.305.22471a33.50021,33.50021,0,0,0-12.55778,5.15965c-.06915.0432-.12966.08646-.19876.12966a33.83006,33.83006,0,0,0-3.09409,2.34218V251.2596c.00865-.30247.0259-.5963.05185-.89882a44.22765,44.22765,0,0,1,4.73617-17.21618l.0432-.07781a23.16089,23.16089,0,0,1,3.24965-4.788A19.61815,19.61815,0,0,1,355.829,223.655a18.33808,18.33808,0,0,1,4.92633-1.63347,17.73163,17.73163,0,0,1,4.77937-.19882c.363.0346.726.07781,1.089.13831a18.66523,18.66523,0,0,1,9.64525,4.64111,21.4346,21.4346,0,0,1,2.54095,2.73971l15.479-10.40575a38.43366,38.43366,0,0,0-14.2777-14.07029,33.255,33.255,0,0,0-22.35858-3.64719,34.035,34.035,0,0,0-14.19125,6.32644,39.89459,39.89459,0,0,0-10.55272,12.09109c-.82966,1.305-1.60752,2.662-2.32488,4.05341q-1.05007,2.04834-1.93595,4.19168a56.20554,56.20554,0,0,0-2.97308,9.36c0,.01731-.00865.04321-.00865.06051-.19877.89882-.38028,1.79769-.53584,2.71381a.25187.25187,0,0,0-.01725.07775,38.493,38.493,0,0,0-.91612,8.37475v20.04236c.0086-.00866.0259-.01731.03455-.02591V317.1427c0,1.331.03455,2.67056.11236,4.01021a72.26716,72.26716,0,0,0,1.84089,12.60963,68.89956,68.89956,0,0,0,5.05594,14.13079,42.99466,42.99466,0,0,0,6.4388,9.67975,44.38861,44.38861,0,0,0,10.328,7.28577c1.14084.57909,2.29893,1.10628,3.49162,1.59027a43.64227,43.64227,0,0,0,10.27615,2.77432c.00865,0,.06915.30247.0864.38028.20742.00859.41489.0259.6223.03455s.41483.00865.62225.00865a.17736.17736,0,0,0,.09506,0,35.38684,35.38684,0,0,0,19.18673-5.84245c.61365-.39759,1.21865-.80377,1.815-1.2359a40.56858,40.56858,0,0,0,11.39969-13.89743,67.52447,67.52447,0,0,0,5.36706-14.19124,70.22242,70.22242,0,0,0,2.04831-12.85165c.11236-1.60752.16421-3.23235.16421-4.85718A70.15859,70.15859,0,0,0,396.173,286.02044Zm-12.8603,33.28293a76.62709,76.62709,0,0,1-1.71988,13.49119,26.65009,26.65009,0,0,1-3.43976,8.66863,19.16388,19.16388,0,0,1-9.67115,6.38689,18.74637,18.74637,0,0,1-17.92489-4.93493,22.83079,22.83079,0,0,1-4.35594-6.16223,44.81738,44.81738,0,0,1-4.40774-17.33719v-4.572a44.6735,44.6735,0,0,1,3.16319-14.52832c.49264-1.20994,1.02848-2.394,1.62483-3.55213l.0432-.07775a20.91507,20.91507,0,0,1,9.21312-9.40323,17.83956,17.83956,0,0,1,13.14546-1.17544,18.86806,18.86806,0,0,1,7.28582,4.12257,22.13978,22.13978,0,0,1,5.04729,6.74992,71.33073,71.33073,0,0,1,2.16932,17.47551C383.48558,316.071,383.43372,317.69585,383.31271,319.30337Z" transform="translate(-21.14163 -139.575)"/><path class="cls-58" d="M383.48558,314.45485c0,1.61617-.05186,3.241-.17287,4.84852a76.62709,76.62709,0,0,1-1.71988,13.49119,26.65009,26.65009,0,0,1-3.43976,8.66863,19.16388,19.16388,0,0,1-9.67115,6.38689,18.74637,18.74637,0,0,1-17.92489-4.93493,38.63442,38.63442,0,0,0,12.95535-13.18007,45.36474,45.36474,0,0,0,2.65331-15.32349,44.84344,44.84344,0,0,0-3.18055-16.68034c-.38888-.99388-.821-1.97915-1.2964-2.92988a22.32411,22.32411,0,0,0-5.1251-6.89683q-.363-.32411-.726-.62225a17.83956,17.83956,0,0,1,13.14546-1.17544,18.86806,18.86806,0,0,1,7.28582,4.12257,22.13978,22.13978,0,0,1,5.04729,6.74992A71.33073,71.33073,0,0,1,383.48558,314.45485Z" transform="translate(-21.14163 -139.575)"/><path class="cls-59" d="M378.80992,229.3418l-19.70533-2.32488a20.78254,20.78254,0,0,0-2.54095-2.73106c-.242-.21607-.484-.43213-.7346-.6309a18.33808,18.33808,0,0,1,4.92633-1.63347,17.73163,17.73163,0,0,1,4.77937-.19882c.363.0346.726.07781,1.089.13831a18.66523,18.66523,0,0,1,9.64525,4.64111A21.4346,21.4346,0,0,1,378.80992,229.3418Z" transform="translate(-21.14163 -139.575)"/><polygon class="cls-60" points="216.153 148.369 250.724 108.45 268.009 98.47 268.009 278.105 250.724 288.084 250.724 147.532 216.153 168.328 216.153 148.369"/><path class="cls-61" d="M332.90866,219.6361A50.72527,50.72527,0,0,1,343.46138,207.545,39.89459,39.89459,0,0,0,332.90866,219.6361Z" transform="translate(-21.14163 -139.575)"/><polygon class="cls-62" points="248.339 95.067 231.053 105.047 196.483 144.966 196.483 164.925 216.153 168.328 216.153 148.369 250.724 108.45 268.009 98.47 248.339 95.067"/><polygon class="cls-63" points="231.053 284.681 250.724 288.084 250.724 147.532 231.053 159.365 231.053 284.681"/></svg>