<svg id="Слой_1" data-name="Слой 1" xmlns="http://www.w3.org/2000/svg" xmlns:xlink="http://www.w3.org/1999/xlink" viewBox="0 0 809.24331 969.22043"><defs><style>.cls-1{fill:url(#Безымянный_градиент_81);}.cls-2{fill:url(#Безымянный_градиент_81-2);}.cls-3{fill:url(#Безымянный_градиент_81-3);}.cls-4{fill:url(#Безымянный_градиент_33);}.cls-5{fill:url(#Безымянный_градиент_38);}.cls-6{fill:url(#Безымянный_градиент_10);}.cls-7{opacity:0.2;}.cls-8{fill:url(#Безымянный_градиент_86);}.cls-9{fill:url(#Безымянный_градиент_96);}.cls-10{fill:url(#Безымянный_градиент_245);}.cls-11{fill:url(#Безымянный_градиент_33-2);}.cls-12{fill:url(#Безымянный_градиент_74);}.cls-13{fill:url(#Безымянный_градиент_22);}.cls-14{fill:url(#Безымянный_градиент_22-2);}.cls-15{fill:url(#Безымянный_градиент_81-4);}.cls-16{fill:url(#Безымянный_градиент_86-2);}.cls-17{fill:url(#Безымянный_градиент_237);}.cls-18{fill:url(#Безымянный_градиент_29);}.cls-19{fill:url(#Безымянный_градиент_33-3);}.cls-20{fill:url(#Безымянный_градиент_38-2);}.cls-21{fill:url(#Безымянный_градиент_48);}.cls-22{fill:url(#Безымянный_градиент_33-4);}.cls-23{fill:url(#Безымянный_градиент_38-3);}.cls-24{fill:url(#Безымянный_градиент_48-2);}.cls-25{fill:url(#Безымянный_градиент_81-5);}.cls-26{fill:url(#Безымянный_градиент_81-6);}.cls-27{fill:url(#Безымянный_градиент_38-4);}.cls-28{fill:url(#Безымянный_градиент_38-5);}.cls-29{fill:url(#Безымянный_градиент_48-3);}.cls-30{fill:#191718;}.cls-31{fill:#fff;}.cls-32{fill:url(#Безымянный_градиент_100);}.cls-33{fill:#e64415;}.cls-34{fill:url(#Безымянный_градиент_92);}.cls-35{fill:url(#Безымянный_градиент_93);}.cls-36{fill:url(#Безымянный_градиент_100-2);}.cls-37{fill:url(#Безымянный_градиент_100-3);}.cls-38{fill:url(#Безымянный_градиент_100-4);}.cls-39{fill:url(#Безымянный_градиент_100-5);}.cls-40{fill:url(#Безымянный_градиент_100-6);}.cls-41{fill:url(#Безымянный_градиент_100-7);}.cls-42{fill:url(#Безымянный_градиент_74-2);}.cls-43{fill:url(#Безымянный_градиент_74-3);}.cls-44{fill:url(#Безымянный_градиент_75);}.cls-45{fill:url(#Безымянный_градиент_100-8);}.cls-46{fill:url(#Безымянный_градиент_92-2);}.cls-47{fill:url(#Безымянный_градиент_93-2);}.cls-48{fill:url(#Безымянный_градиент_100-9);}.cls-49{fill:url(#Безымянный_градиент_100-10);}.cls-50{fill:url(#Безымянный_градиент_100-11);}.cls-51{fill:url(#Безымянный_градиент_100-12);}.cls-52{fill:url(#Безымянный_градиент_100-13);}.cls-53{fill:url(#Безымянный_градиент_100-14);}.cls-54{fill:url(#Безымянный_градиент_82);}.cls-55{fill:url(#Безымянный_градиент_96-2);}.cls-56{fill:url(#Безымянный_градиент_86-3);}.cls-57{fill:url(#Безымянный_градиент_82-2);}.cls-58{fill:url(#Безымянный_градиент_96-3);}.cls-59{fill:url(#Безымянный_градиент_82-3);}.cls-60{fill:url(#Безымянный_градиент_86-4);}.cls-61{fill:url(#Безымянный_градиент_86-5);}.cls-62{fill:url(#Безымянный_градиент_86-6);}.cls-63{fill:url(#Безымянный_градиент_96-4);}.cls-64{fill:url(#Безымянный_градиент_82-4);}.cls-65{fill:url(#Безымянный_градиент_86-7);}.cls-66{fill:url(#Безымянный_градиент_86-8);}.cls-67{fill:url(#Безымянный_градиент_82-5);}.cls-68{fill:url(#Безымянный_градиент_96-5);}.cls-69{fill:url(#Безымянный_градиент_86-9);}.cls-70{fill:url(#Безымянный_градиент_82-6);}</style><linearGradient id="Безымянный_градиент_81" x1="-5197.36025" y1="1856.05736" x2="-4694.55756" y2="1856.05736" gradientTransform="translate(5714.10639 -140.31306) rotate(10.74042)" gradientUnits="userSpaceOnUse"><stop offset="0" stop-color="#b5b5c1" stop-opacity="0.3"/><stop offset="0.99512" stop-color="#fdfdfd" stop-opacity="0"/></linearGradient><linearGradient id="Безымянный_градиент_81-2" x1="-5220.63667" y1="1723.08159" x2="-4697.71143" y2="1723.08159" xlink:href="#Безымянный_градиент_81"/><linearGradient id="Безымянный_градиент_81-3" x1="-5062.00507" y1="1619.98275" x2="-4808.33005" y2="1619.98275" xlink:href="#Безымянный_градиент_81"/><linearGradient id="Безымянный_градиент_33" x1="-216.48795" y1="337.28021" x2="-101.32108" y2="337.28021" gradientTransform="matrix(-1, 0, 0, 1, 302.93411, -15.38979)" gradientUnits="userSpaceOnUse"><stop offset="0.57561" stop-color="#fbfbfd"/><stop offset="1" stop-color="#f3f3f5"/></linearGradient><linearGradient id="Безымянный_градиент_38" x1="-216.48795" y1="425.94895" x2="-158.90452" y2="425.94895" gradientTransform="matrix(-1, 0, 0, 1, 302.93411, -15.38979)" gradientUnits="userSpaceOnUse"><stop offset="0" stop-color="#fdfdfd"/><stop offset="1" stop-color="#f0eff4"/></linearGradient><linearGradient id="Безымянный_градиент_10" x1="-158.90452" y1="425.94895" x2="-101.32108" y2="425.94895" gradientTransform="matrix(-1, 0, 0, 1, 302.93411, -15.38979)" gradientUnits="userSpaceOnUse"><stop offset="0.00732" stop-color="#f0eff4"/><stop offset="0.6439" stop-color="#d2cfda"/><stop offset="1" stop-color="#b5b5c1"/></linearGradient><linearGradient id="Безымянный_градиент_86" x1="-185.71394" y1="391.3705" x2="-70.54706" y2="391.3705" gradientTransform="matrix(-1, 0, 0, 1, 302.93411, -15.38979)" gradientUnits="userSpaceOnUse"><stop offset="0.57561" stop-color="#ff9c88"/><stop offset="1" stop-color="#f77f48"/></linearGradient><linearGradient id="Безымянный_градиент_96" x1="-185.71394" y1="480.03923" x2="-128.1305" y2="480.03923" gradientTransform="matrix(-1, 0, 0, 1, 302.93411, -15.38979)" gradientUnits="userSpaceOnUse"><stop offset="0" stop-color="#ef6452"/><stop offset="0.3561" stop-color="#f77f48"/></linearGradient><linearGradient id="Безымянный_градиент_245" x1="-128.1305" y1="480.03923" x2="-70.54706" y2="480.03923" gradientTransform="matrix(-1, 0, 0, 1, 302.93411, -15.38979)" gradientUnits="userSpaceOnUse"><stop offset="0" stop-color="#ff9c88"/><stop offset="1" stop-color="#f77f48"/></linearGradient><linearGradient id="Безымянный_градиент_33-2" x1="-5497.53656" y1="220.12147" x2="-5183.4794" y2="220.12147" gradientTransform="translate(5684.50322)" xlink:href="#Безымянный_градиент_33"/><linearGradient id="Безымянный_градиент_74" x1="-5497.55019" y1="339.91002" x2="-5183.49328" y2="339.91002" gradientTransform="translate(5684.50322)" gradientUnits="userSpaceOnUse"><stop offset="0" stop-color="#f77f48"/><stop offset="0.45366" stop-color="#ff9c88"/><stop offset="1" stop-color="#f77f48"/></linearGradient><linearGradient id="Безымянный_градиент_22" x1="-5497.53655" y1="295.86507" x2="-5183.47939" y2="295.86507" gradientTransform="translate(5684.50322)" gradientUnits="userSpaceOnUse"><stop offset="0" stop-color="#fdfdfd"/><stop offset="0.43171" stop-color="#fbfafb"/><stop offset="0.56585" stop-color="#f0eff4"/></linearGradient><linearGradient id="Безымянный_градиент_22-2" x1="-5497.55009" y1="498.84103" x2="-5183.49293" y2="498.84103" xlink:href="#Безымянный_градиент_22"/><linearGradient id="Безымянный_градиент_81-4" x1="-5548.64876" y1="662.82786" x2="-5386.48454" y2="662.82786" gradientTransform="translate(5684.50322)" xlink:href="#Безымянный_градиент_81"/><linearGradient id="Безымянный_градиент_86-2" x1="0" y1="608.31852" x2="80.95223" y2="608.31852" gradientTransform="matrix(1, 0, 0, 1, 0, 0)" xlink:href="#Безымянный_градиент_86"/><linearGradient id="Безымянный_градиент_237" y1="643.37185" x2="40.47612" y2="643.37185" gradientUnits="userSpaceOnUse"><stop offset="0" stop-color="#f77f48"/><stop offset="1" stop-color="#ff9c88"/></linearGradient><linearGradient id="Безымянный_градиент_29" x1="40.47612" y1="643.37185" x2="80.95223" y2="643.37185" gradientUnits="userSpaceOnUse"><stop offset="0" stop-color="#f77f48"/><stop offset="1" stop-color="#ef6452"/></linearGradient><linearGradient id="Безымянный_градиент_33-3" x1="80.95223" y1="608.31853" x2="161.90446" y2="608.31853" gradientTransform="matrix(1, 0, 0, 1, 0, 0)" xlink:href="#Безымянный_градиент_33"/><linearGradient id="Безымянный_градиент_38-2" x1="80.95223" y1="643.37185" x2="121.42835" y2="643.37185" gradientTransform="matrix(1, 0, 0, 1, 0, 0)" xlink:href="#Безымянный_градиент_38"/><linearGradient id="Безымянный_градиент_48" x1="121.42835" y1="643.37186" x2="161.90446" y2="643.37186" gradientUnits="userSpaceOnUse"><stop offset="0" stop-color="#b5b5c1"/><stop offset="0.3561" stop-color="#d2cfda"/><stop offset="0.99268" stop-color="#f0eff4"/></linearGradient><linearGradient id="Безымянный_градиент_33-4" x1="40.47612" y1="538.21187" x2="121.42835" y2="538.21187" gradientTransform="matrix(1, 0, 0, 1, 0, 0)" xlink:href="#Безымянный_градиент_33"/><linearGradient id="Безымянный_градиент_38-3" x1="40.47612" y1="573.26519" x2="80.95223" y2="573.26519" gradientTransform="matrix(1, 0, 0, 1, 0, 0)" xlink:href="#Безымянный_градиент_38"/><linearGradient id="Безымянный_градиент_48-2" x1="80.95223" y1="573.2652" x2="121.42835" y2="573.2652" xlink:href="#Безымянный_градиент_48"/><linearGradient id="Безымянный_градиент_81-5" x1="288.04137" y1="239.81214" x2="492.7768" y2="239.81214" gradientTransform="matrix(1, 0, 0, 1, 0, 0)" xlink:href="#Безымянный_градиент_81"/><linearGradient id="Безымянный_градиент_81-6" x1="367.40641" y1="225.23579" x2="492.7768" y2="225.23579" gradientTransform="matrix(1, 0, 0, 1, 0, 0)" xlink:href="#Безымянный_градиент_81"/><linearGradient id="Безымянный_градиент_38-4" x1="183.4679" y1="106.6881" x2="337.55961" y2="106.6881" gradientTransform="matrix(1, 0, 0, 1, 0, 0)" xlink:href="#Безымянный_градиент_38"/><linearGradient id="Безымянный_градиент_38-5" x1="246.5927" y1="46.56354" x2="372.84229" y2="46.56354" gradientTransform="matrix(1, 0, 0, 1, 0, 0)" xlink:href="#Безымянный_градиент_38"/><linearGradient id="Безымянный_градиент_48-3" x1="272.03463" y1="152.53159" x2="372.84229" y2="152.53159" xlink:href="#Безымянный_градиент_48"/><linearGradient id="Безымянный_градиент_100" x1="269.93447" y1="91.98699" x2="278.97516" y2="91.98699" gradientUnits="userSpaceOnUse"><stop offset="0" stop-color="#ef6452"/><stop offset="1" stop-color="#ef6452" stop-opacity="0"/></linearGradient><linearGradient id="Безымянный_градиент_92" x1="341.80544" y1="94.43588" x2="339.76861" y2="76.66532" gradientUnits="userSpaceOnUse"><stop offset="0"/><stop offset="1" stop-opacity="0"/></linearGradient><linearGradient id="Безымянный_градиент_93" x1="333.69101" y1="121.52189" x2="349.24358" y2="121.52189" gradientUnits="userSpaceOnUse"><stop offset="0" stop-opacity="0"/><stop offset="1"/></linearGradient><linearGradient id="Безымянный_градиент_100-2" x1="372.16788" y1="137.82268" x2="390.73388" y2="151.5143" xlink:href="#Безымянный_градиент_100"/><linearGradient id="Безымянный_градиент_100-3" x1="227.25123" y1="86.67658" x2="230.55148" y2="86.67658" xlink:href="#Безымянный_градиент_100"/><linearGradient id="Безымянный_градиент_100-4" x1="223.41592" y1="93.4771" x2="226.71617" y2="93.4771" xlink:href="#Безымянный_градиент_100"/><linearGradient id="Безымянный_градиент_100-5" x1="232.09658" y1="92.07699" x2="235.39683" y2="92.07699" xlink:href="#Безымянный_градиент_100"/><linearGradient id="Безымянный_градиент_100-6" x1="237.17697" y1="97.65742" x2="240.47722" y2="97.65742" xlink:href="#Безымянный_градиент_100"/><linearGradient id="Безымянный_градиент_100-7" x1="229.99642" y1="110.99843" x2="233.29667" y2="110.99843" xlink:href="#Безымянный_градиент_100"/><linearGradient id="Безымянный_градиент_74-2" x1="104.09631" y1="113.36861" x2="258.18801" y2="113.36861" gradientTransform="matrix(1, 0, 0, 1, 0, 0)" xlink:href="#Безымянный_градиент_74"/><linearGradient id="Безымянный_градиент_74-3" x1="167.22111" y1="53.24404" x2="293.4707" y2="53.24404" gradientTransform="matrix(1, 0, 0, 1, 0, 0)" xlink:href="#Безымянный_градиент_74"/><linearGradient id="Безымянный_градиент_75" x1="192.66304" y1="159.21209" x2="293.4707" y2="159.21209" gradientUnits="userSpaceOnUse"><stop offset="0" stop-color="#ef6452"/><stop offset="1" stop-color="#f77f48"/></linearGradient><linearGradient id="Безымянный_градиент_100-8" x1="190.56288" y1="98.66749" x2="199.60356" y2="98.66749" xlink:href="#Безымянный_градиент_100"/><linearGradient id="Безымянный_градиент_92-2" x1="262.43384" y1="101.11639" x2="260.39702" y2="83.34583" xlink:href="#Безымянный_градиент_92"/><linearGradient id="Безымянный_градиент_93-2" x1="254.31942" y1="128.2024" x2="269.87199" y2="128.2024" xlink:href="#Безымянный_градиент_93"/><linearGradient id="Безымянный_градиент_100-9" x1="292.79629" y1="144.50319" x2="311.36229" y2="158.19481" xlink:href="#Безымянный_градиент_100"/><linearGradient id="Безымянный_градиент_100-10" x1="147.87964" y1="93.35709" x2="151.17989" y2="93.35709" xlink:href="#Безымянный_градиент_100"/><linearGradient id="Безымянный_градиент_100-11" x1="144.04433" y1="100.15761" x2="147.34458" y2="100.15761" xlink:href="#Безымянный_градиент_100"/><linearGradient id="Безымянный_градиент_100-12" x1="152.72499" y1="98.7575" x2="156.02524" y2="98.7575" xlink:href="#Безымянный_градиент_100"/><linearGradient id="Безымянный_градиент_100-13" x1="157.80538" y1="104.33793" x2="161.10563" y2="104.33793" xlink:href="#Безымянный_градиент_100"/><linearGradient id="Безымянный_градиент_100-14" x1="150.62483" y1="117.67894" x2="153.92508" y2="117.67894" xlink:href="#Безымянный_градиент_100"/><linearGradient id="Безымянный_градиент_82" x1="643.38778" y1="631.0491" x2="643.38778" y2="507.29576" gradientUnits="userSpaceOnUse"><stop offset="0" stop-color="#f77f48"/><stop offset="0.42439" stop-color="#ff9c88"/></linearGradient><linearGradient id="Безымянный_градиент_96-2" x1="568.4937" y1="568.81955" x2="713.4958" y2="568.81955" gradientTransform="matrix(1, 0, 0, 1, 0, 0)" xlink:href="#Безымянный_градиент_96"/><linearGradient id="Безымянный_градиент_86-3" x1="546.44182" y1="561.21768" x2="687.86724" y2="561.21768" gradientTransform="matrix(1, 0, 0, 1, 0, 0)" xlink:href="#Безымянный_градиент_86"/><linearGradient id="Безымянный_градиент_82-2" x1="474.09181" y1="714.53065" x2="474.09181" y2="652.23478" xlink:href="#Безымянный_градиент_82"/><linearGradient id="Безымянный_градиент_96-3" x1="429.7788" y1="639.79895" x2="564.63028" y2="639.79895" gradientTransform="matrix(1, 0, 0, 1, 0, 0)" xlink:href="#Безымянный_градиент_96"/><linearGradient id="Безымянный_градиент_82-3" x1="481.00959" y1="615.677" x2="550.18767" y2="615.677" xlink:href="#Безымянный_градиент_82"/><linearGradient id="Безымянный_градиент_86-4" x1="333.61183" y1="533.51577" x2="458.85742" y2="533.51577" gradientTransform="matrix(1, 0, 0, 1, 0, 0)" xlink:href="#Безымянный_градиент_86"/><linearGradient id="Безымянный_градиент_86-5" x1="324.91162" y1="612.86214" x2="355.66423" y2="612.86214" gradientTransform="matrix(1, 0, 0, 1, 0, 0)" xlink:href="#Безымянный_градиент_86"/><linearGradient id="Безымянный_градиент_86-6" x1="312.34489" y1="711.63877" x2="349.86409" y2="711.63877" gradientTransform="matrix(1, 0, 0, 1, 0, 0)" xlink:href="#Безымянный_градиент_86"/><linearGradient id="Безымянный_градиент_96-4" x1="298.55179" y1="707.9182" x2="433.16313" y2="707.9182" gradientTransform="matrix(1, 0, 0, 1, 0, 0)" xlink:href="#Безымянный_градиент_96"/><linearGradient id="Безымянный_градиент_82-4" x1="342.74859" y1="781.84427" x2="342.74859" y2="721.16615" xlink:href="#Безымянный_градиент_82"/><linearGradient id="Безымянный_градиент_86-7" x1="189.57633" y1="654.71943" x2="211.62873" y2="654.71943" gradientTransform="matrix(1, 0, 0, 1, 0, 0)" xlink:href="#Безымянный_градиент_86"/><linearGradient id="Безымянный_градиент_86-8" x1="189.57633" y1="607.18291" x2="330.04711" y2="607.18291" gradientTransform="matrix(1, 0, 0, 1, 0, 0)" xlink:href="#Безымянный_градиент_86"/><linearGradient id="Безымянный_градиент_82-5" x1="255.22007" y1="637.88102" x2="255.22007" y2="696.09943" xlink:href="#Безымянный_градиент_82"/><linearGradient id="Безымянный_градиент_96-5" x1="226.79359" y1="703.56098" x2="248.84599" y2="703.56098" gradientTransform="matrix(1, 0, 0, 1, 0, 0)" xlink:href="#Безымянный_градиент_96"/><linearGradient id="Безымянный_градиент_86-9" x1="181.11787" y1="778.58143" x2="218.39561" y2="778.58143" gradientTransform="matrix(1, 0, 0, 1, 0, 0)" xlink:href="#Безымянный_градиент_86"/><linearGradient id="Безымянный_градиент_82-6" x1="387.2416" y1="680.07811" x2="418.77952" y2="680.07811" xlink:href="#Безымянный_градиент_82"/></defs><title>3-350_Brands</title><polygon class="cls-1" points="245.997 798.498 692.239 969.22 787.561 641.417 560.992 637.881 468.696 636.36 392.942 723.571 327.812 731.639 285.057 778.581 245.997 798.498"/><polygon class="cls-2" points="245.997 673.598 713.922 837.986 809.243 510.183 285.628 486.086 245.997 673.598"/><polygon class="cls-3" points="430.237 553.503 657.231 633.249 703.472 474.229 449.462 462.54 430.237 553.503"/><polygon class="cls-4" points="461.839 288.645 519.422 321.89 461.839 355.136 404.255 321.89 461.839 288.645"/><polygon class="cls-5" points="519.422 321.89 519.422 465.982 461.839 499.228 461.839 355.136 519.422 321.89"/><polygon class="cls-6" points="404.255 321.89 404.255 465.982 461.839 499.228 461.839 355.136 404.255 321.89"/><polygon class="cls-7" points="495.451 308.323 438.066 341.683 438.066 367.694 431.065 363.375 431.065 338.008 487.748 303.812 495.451 308.323"/><polygon class="cls-7" points="430.392 306.858 487.777 340.218 487.777 484.252 494.779 480.21 494.779 336.544 438.095 302.348 430.392 306.858"/><polygon class="cls-8" points="431.065 342.735 488.648 375.981 431.065 409.227 373.481 375.981 431.065 342.735"/><polygon class="cls-9" points="488.648 375.981 488.648 520.072 431.065 553.318 431.065 409.227 488.648 375.981"/><polygon class="cls-10" points="373.481 375.981 373.481 520.072 431.065 553.318 431.065 409.227 373.481 375.981"/><polygon class="cls-7" points="464.677 362.413 407.292 395.773 407.292 421.784 400.291 417.466 400.291 392.099 456.974 357.903 464.677 362.413"/><polygon class="cls-7" points="399.618 360.948 457.003 394.308 457.003 538.343 464.005 534.3 464.005 390.634 407.321 356.438 399.618 360.948"/><path class="cls-11" d="M501.02382,220.17806a9.18707,9.18707,0,0,1-4.47867,7.92946l-34.38847,20.66583L436.8893,263.975l-74.85775,45.02971a35.2845,35.2845,0,0,1-36.23737.04112l-74.07687-44.24907-25.473-15.20165L191.44483,228.8059a9.14535,9.14535,0,0,1-4.47817-7.31307v-1.15052a9.09548,9.09548,0,0,1,4.47817-7.35419l114.916-69.1057,20.99459-12.61325a35.17522,35.17522,0,0,1,36.48387.08225l20.5427,12.531L496.6274,212.28948A9.12864,9.12864,0,0,1,501.02382,220.17806Z" transform="translate(-95.37835 -15.38979)"/><path class="cls-12" d="M501.00994,277.71182v30.52644a9.13836,9.13836,0,0,1-4.47842,7.92945L362.01792,397.0649a35.19153,35.19153,0,0,1-36.23736.04112l-134.34935-80.1988a9.15469,9.15469,0,0,1-4.47817-7.3542V279.02634a9.1454,9.1454,0,0,0,4.47817,7.31332l12.28449,7.31307,122.06486,72.92661a35.28392,35.28392,0,0,0,36.23736-.04087l122.39336-73.58412,12.12024-7.31307A9.1868,9.1868,0,0,0,501.00994,277.71182Z" transform="translate(-95.37835 -15.38979)"/><path class="cls-13" d="M496.54516,228.10748l-34.38847,20.66584L436.88956,263.975l-74.858,45.0297a35.28407,35.28407,0,0,1-36.23712.04113l-74.07712-44.24907-25.47275-15.20166-34.79973-20.78921a9.14537,9.14537,0,0,1-4.47817-7.31307v57.51958a9.14537,9.14537,0,0,0,4.47817,7.31307l12.285,7.31333,122.0646,72.92661a35.28407,35.28407,0,0,0,36.23712-.04113l122.3936-73.58412,12.12-7.31307a9.187,9.187,0,0,0,4.47867-7.92945V220.178A9.187,9.187,0,0,1,496.54516,228.10748Z" transform="translate(-95.37835 -15.38979)"/><path class="cls-14" d="M496.53162,316.16754,362.018,397.06472a35.192,35.192,0,0,1-36.23762.04113L191.4313,316.907a9.15469,9.15469,0,0,1-4.47817-7.3542V596.90423a9.14535,9.14535,0,0,0,4.47817,7.31308l34.79923,20.78921,25.47275,15.20165,74.07712,44.24907a35.28493,35.28493,0,0,0,36.23762-.04113l74.8575-45.0297,25.26763-15.20165,34.38847-20.66583a9.18707,9.18707,0,0,0,4.47867-7.92946V308.23808A9.13864,9.13864,0,0,1,496.53162,316.16754Z" transform="translate(-95.37835 -15.38979)"/><path class="cls-15" d="M298.01868,657.68042a6.67333,6.67333,0,0,1-3.25362,5.76051L269.7832,678.45424,251.427,689.49762l-19.3414,11.64054L135.85446,693.815l113.94315-69.2974,43.62446,26.56651,1.40274.86569A6.63162,6.63162,0,0,1,298.01868,657.68042Z" transform="translate(-95.37835 -15.38979)"/><polygon class="cls-16" points="40.476 584.95 0 608.319 40.476 631.687 80.952 608.319 40.476 584.95"/><polygon class="cls-17" points="0 608.319 0 655.056 40.476 678.425 40.476 631.687 0 608.319"/><polygon class="cls-18" points="80.952 608.319 80.952 655.056 40.476 678.425 40.476 631.687 80.952 608.319"/><polygon class="cls-7" points="16.849 598.591 57.186 622.04 57.186 640.323 62.108 637.288 62.108 619.457 22.264 595.42 16.849 598.591"/><polygon class="cls-19" points="121.428 584.95 80.952 608.319 121.428 631.687 161.904 608.319 121.428 584.95"/><polygon class="cls-20" points="80.952 608.319 80.952 655.056 121.428 678.425 121.428 631.687 80.952 608.319"/><polygon class="cls-21" points="161.904 608.319 161.904 655.056 121.428 678.425 121.428 631.687 161.904 608.319"/><polygon class="cls-7" points="97.801 598.591 138.138 622.04 138.138 640.323 143.06 637.288 143.06 619.457 103.216 595.42 97.801 598.591"/><polygon class="cls-22" points="80.952 514.843 40.476 538.212 80.952 561.581 121.428 538.212 80.952 514.843"/><polygon class="cls-23" points="40.476 538.212 40.476 584.95 80.952 608.319 80.952 561.581 40.476 538.212"/><polygon class="cls-24" points="121.428 538.212 121.428 584.95 80.952 608.319 80.952 561.581 121.428 538.212"/><polygon class="cls-7" points="57.325 528.484 97.662 551.933 97.662 570.217 102.584 567.181 102.584 549.35 62.74 525.314 57.325 528.484"/><path class="cls-25" d="M492.7768,227.56132a8.32177,8.32177,0,0,1-4.0589,7.18642l-31.16372,18.72783-6.50164,3.9109L434.65638,267.25l-4.35506,2.60931-15.10069,9.08631L288.04137,235.44479,340.38183,201.314l69.71736-.38245,46.31381-.25289,32.37892,19.7333A8.26911,8.26911,0,0,1,492.7768,227.56132Z" transform="translate(-95.37835 -15.38979)"/><path class="cls-26" d="M492.7768,227.56132a8.32177,8.32177,0,0,1-4.0589,7.18642l-31.16372,18.72783-6.50164,3.9109-83.64613-28.6161,42.69278-27.83884,9.64776-6.292,24.20553-1.55446,12.46052,7.59354,32.37892,19.7333A8.26911,8.26911,0,0,1,492.7768,227.56132Z" transform="translate(-95.37835 -15.38979)"/><polygon class="cls-27" points="246.593 0 337.56 93.127 272.035 213.376 183.468 120.55 246.593 0"/><polygon class="cls-28" points="282.67 0 246.593 0 337.56 93.127 372.842 91.687 282.67 0"/><polygon class="cls-29" points="272.035 213.376 307.077 210.496 372.842 91.687 337.56 93.127 272.035 213.376"/><polygon class="cls-30" points="272.035 70.325 258.669 94.747 290.216 89.287 272.035 70.325"/><polygon class="cls-31" points="277.015 113.529 290.216 89.287 258.669 94.747 277.015 113.529"/><ellipse class="cls-32" cx="274.45481" cy="91.98699" rx="4.52034" ry="6.66051"/><polygon class="cls-33" points="258.984 72.666 261.684 75.276 264.054 72.185 261.144 69.275 258.984 72.666"/><polygon class="cls-30" points="259.464 78.606 261.684 75.276 264.444 77.976 262.284 81.426 259.464 78.606"/><polygon class="cls-31" points="257.063 76.056 259.464 78.606 257.544 81.996 254.813 79.386 257.063 76.056"/><polygon class="cls-31" points="253.523 82.926 255.923 85.476 254.003 88.867 251.273 86.257 253.523 82.926"/><path class="cls-34" d="M339.97089,76.1544s4.76036,9.88075,4.80036,14.16108-4.88037,7.8806-6.6005,1.52011S339.97089,76.1544,339.97089,76.1544Z" transform="translate(-95.37835 -15.38979)"/><path class="cls-35" d="M333.691,123.038s8.22153-6.70357,11.69076-6.65363,6.16109,7.32859.93006,9.68024S333.691,123.038,333.691,123.038Z" transform="translate(-95.37835 -15.38979)"/><ellipse class="cls-31" cx="232.39162" cy="75.16571" rx="3.44026" ry="5.2804"/><polygon class="cls-31" points="235.78 76.056 278.435 120.55 276.115 124.249 233.92 79.893 233.072 76.056 235.78 76.056"/><path class="cls-36" d="M386.61443,111.39708l-28.24214,52.244a18.04158,18.04158,0,0,0,16.48125,7.44056l21.68165-38.883S396.29517,118.1976,386.61443,111.39708Z" transform="translate(-95.37835 -15.38979)"/><ellipse class="cls-37" cx="228.90135" cy="86.67658" rx="1.65013" ry="2.37018"/><ellipse class="cls-38" cx="225.06605" cy="93.4771" rx="1.65013" ry="2.37018"/><ellipse cx="230.34645" cy="99.01752" rx="1.65013" ry="2.37018"/><ellipse class="cls-39" cx="233.74671" cy="92.07699" rx="1.65013" ry="2.37018"/><ellipse class="cls-40" cx="238.82709" cy="97.65742" rx="1.65013" ry="2.37018"/><ellipse class="cls-31" cx="226.58616" cy="105.75803" rx="1.65013" ry="2.37018"/><ellipse class="cls-31" cx="217.94551" cy="107.37816" rx="1.65013" ry="2.37018"/><ellipse class="cls-41" cx="231.64655" cy="110.99843" rx="1.65013" ry="2.37018"/><path d="M319.69256,127.82872a2.72861,2.72861,0,0,1-.74408,1.97775l-2.51058-2.5202c.17281-1.04647.82568-1.82893,1.60811-1.82893C318.95329,125.45734,319.69256,126.51823,319.69256,127.82872Z" transform="translate(-95.37835 -15.38979)"/><path class="cls-31" d="M325.13616,133.57a2.82959,2.82959,0,0,1-.60966,1.83852l-2.60179-2.6114c.22083-.93124.83526-1.5985,1.56012-1.5985C324.39691,131.19858,325.13616,132.25944,325.13616,133.57Z" transform="translate(-95.37835 -15.38979)"/><path class="cls-33" d="M388.27513,216.17867l6.38608-13.76256,2.0519.7263-3.95717,8.41836.93053.30426,1.75991-3.76624a14.53271,14.53271,0,0,1,2.70372-4.17642,2.543,2.543,0,0,1,2.53377-.93167q1.22487.38059,1.09543,2.30155a14.84555,14.84555,0,0,1-1.6025,5.0111l-3.88923,8.31821Zm9.84815-6.05993a3.7952,3.7952,0,0,0,.40431-1.26979q.03549-.48736-.28594-.58412-.618-.19-1.39925,1.46546l-1.27575,2.72422,1.28081.38242Z" transform="translate(-95.37835 -15.38979)"/><path class="cls-33" d="M403.3752,189.48681a6.42511,6.42511,0,0,1,2.177-1.62948,2.85214,2.85214,0,0,1,2.10984-.14609,2.07143,2.07143,0,0,1,1.3373,1.32371,4.58762,4.58762,0,0,1,.10459,2.39115,10.865,10.865,0,0,1-1.0243,2.938,8.68565,8.68565,0,0,1-2.0244,2.81726l2.639.76736-2.41226,4.88075-8.49014-2.64067,2.28524-4.70952.51886.18491a7.10478,7.10478,0,0,1,.9653-3.477A11.74314,11.74314,0,0,1,403.3752,189.48681Zm2.47277,3.92838a.886.886,0,0,0-.64021-.8352,1.26086,1.26086,0,0,0-1.18177.22594,3.31743,3.31743,0,0,0-1.01183,1.26486,2.82852,2.82852,0,0,0-.355,1.49472.90251.90251,0,0,0,.64735.8461,1.24162,1.24162,0,0,0,1.17347-.24515,3.46446,3.46446,0,0,0,1.0055-1.2748A2.837,2.837,0,0,0,405.848,193.41519Z" transform="translate(-95.37835 -15.38979)"/><path class="cls-33" d="M415.22715,174.58462l-4.11355,7.788a2.14887,2.14887,0,0,0,.97882-.64075,6.03912,6.03912,0,0,0,.94649-1.37761,7.44862,7.44862,0,0,0,.55124-1.27825,6.289,6.289,0,0,0,.22249-1.21961l2.65044-1.92479a10.40138,10.40138,0,0,1-1.57975,5.207,18.23482,18.23482,0,0,1-2.2997,3.45533,8.40886,8.40886,0,0,1-2.41586,2.03857,2.67469,2.67469,0,0,1-2.1198.29458,1.956,1.956,0,0,1-1.25338-1.449,5.93926,5.93926,0,0,1,.03182-2.76076,13.73953,13.73953,0,0,1,1.291-3.46629,14.64235,14.64235,0,0,1,2.01881-2.98368,7.19649,7.19649,0,0,1,2.30338-1.80057,2.80456,2.80456,0,0,1,2.208-.16452C414.68685,174.31653,414.87939,174.4111,415.22715,174.58462Zm-5.71309,6.58a1.00143,1.00143,0,0,0,.29971.84861l1.90074-3.63943a1.49182,1.49182,0,0,0-.94218.3916A3.56888,3.56888,0,0,0,409.92,179.881,3.21831,3.21831,0,0,0,409.51406,181.16465Z" transform="translate(-95.37835 -15.38979)"/><path class="cls-33" d="M412.36672,171.45731l2.44783-4.52771,2.22646.87783,1.68157-3.04832-2.2282-.88951,2.46346-4.41664,6.33846,2.45823-2.47047,4.36582-2.05393-.74081-1.68313,3.03714,2.05237.72958-2.45488,4.47732Z" transform="translate(-95.37835 -15.38979)"/><path class="cls-33" d="M431.94488,146.37051l3.30214,1.2839-2.32609,3.82927-1.24849-.46478-3.3452,5.64707,1.24662.45143-2.3058,3.96814-3.29112-1.19953.17643-.308a1.5,1.5,0,0,0,.21011-1.48753,2.75373,2.75373,0,0,0-1.28342-1.02332l-2.1672-1.06043,5.91108-10.11025,4.30916,1.81336Zm-5.36641,7.53524a1.17119,1.17119,0,0,1,.4196.75725l1.63752-2.78081-2.25424-.91042-1.24922,2.12938.38482.1802A5.22836,5.22836,0,0,1,426.57847,153.90575Z" transform="translate(-95.37835 -15.38979)"/><path class="cls-33" d="M427.63483,142.66282a1.41562,1.41562,0,0,1-1.38328.24965,1.074,1.074,0,0,1-.54989-1.1427,4.313,4.313,0,0,1,.71343-1.992,4.96,4.96,0,0,1,1.46681-1.63372,1.36788,1.36788,0,0,1,1.35115-.22667,1.09715,1.09715,0,0,1,.58992,1.136,4.12344,4.12344,0,0,1-.71127,1.97852A4.97264,4.97264,0,0,1,427.63483,142.66282Zm.73319.66847,2.51816-4.117,6.37222,2.69972-2.52524,4.06638Z" transform="translate(-95.37835 -15.38979)"/><path class="cls-33" d="M442.8344,129.61077q.87522.37687.70251,1.59058a8.60392,8.60392,0,0,1-1.45922,3.1774L438.44582,140.03l-6.37554-2.72347,3.44228-5.44371A10.75712,10.75712,0,0,1,437.877,129.091a1.89021,1.89021,0,0,1,1.92455-.47879,1.02685,1.02685,0,0,1,.58143.68836,2.34384,2.34384,0,0,1-.0477,1.20168C441.27753,129.589,442.11091,129.29454,442.8344,129.61077Zm-6.01923,5.31032,1.00041-1.56q.55062-.854.09546-1.05744a.45307.45307,0,0,0-.45666.05323,2.04935,2.04935,0,0,0-.527.60764l-1,1.56278Zm3.48267-1.92739q-.45494-.19556-1.00691.655l-1.18076,1.83452.932.39516,1.18118-1.83069Q440.77482,133.1974,440.29784,132.9937Z" transform="translate(-95.37835 -15.38979)"/><polygon class="cls-42" points="167.221 6.681 258.188 99.808 192.663 220.057 104.096 127.23 167.221 6.681"/><polygon class="cls-43" points="203.299 6.681 167.221 6.681 258.188 99.808 293.471 98.367 203.299 6.681"/><polygon class="cls-44" points="192.663 220.057 227.706 217.176 293.471 98.367 258.188 99.808 192.663 220.057"/><polygon class="cls-30" points="192.663 77.006 179.297 101.428 210.844 95.967 192.663 77.006"/><polygon class="cls-31" points="197.643 120.209 210.844 95.967 179.297 101.428 197.643 120.209"/><ellipse class="cls-45" cx="195.08322" cy="98.66749" rx="4.52034" ry="6.66051"/><polygon class="cls-33" points="179.612 79.346 182.312 81.956 184.682 78.866 181.772 75.956 179.612 79.346"/><polygon class="cls-30" points="180.092 85.286 182.312 81.956 185.072 84.656 182.912 88.107 180.092 85.286"/><polygon class="cls-31" points="177.692 82.736 180.092 85.286 178.172 88.677 175.442 86.067 177.692 82.736"/><polygon class="cls-31" points="174.152 89.607 176.552 92.157 174.632 95.547 171.901 92.937 174.152 89.607"/><path class="cls-46" d="M260.5993,82.83491s4.76036,9.88075,4.80036,14.16107-4.88037,7.8806-6.6005,1.52012S260.5993,82.83491,260.5993,82.83491Z" transform="translate(-95.37835 -15.38979)"/><path class="cls-47" d="M254.31942,129.71855s8.22153-6.70358,11.69076-6.65363,6.16109,7.32858.93,9.68024S254.31942,129.71855,254.31942,129.71855Z" transform="translate(-95.37835 -15.38979)"/><ellipse class="cls-31" cx="153.02003" cy="81.84622" rx="3.44026" ry="5.2804"/><polygon class="cls-31" points="156.408 82.736 199.064 127.23 196.743 130.93 154.549 86.574 153.7 82.736 156.408 82.736"/><path class="cls-48" d="M307.24284,118.07759l-28.24214,52.244a18.04157,18.04157,0,0,0,16.48125,7.44057l21.68165-38.883S316.92358,124.8781,307.24284,118.07759Z" transform="translate(-95.37835 -15.38979)"/><ellipse class="cls-49" cx="149.52976" cy="93.35709" rx="1.65013" ry="2.37018"/><ellipse class="cls-50" cx="145.69446" cy="100.15761" rx="1.65013" ry="2.37018"/><ellipse cx="150.97486" cy="105.69803" rx="1.65013" ry="2.37018"/><ellipse class="cls-51" cx="154.37512" cy="98.7575" rx="1.65013" ry="2.37018"/><ellipse class="cls-52" cx="159.4555" cy="104.33793" rx="1.65013" ry="2.37018"/><ellipse class="cls-31" cx="147.21457" cy="112.43854" rx="1.65013" ry="2.37018"/><ellipse class="cls-31" cx="138.57392" cy="114.05866" rx="1.65013" ry="2.37018"/><ellipse class="cls-53" cx="152.27496" cy="117.67894" rx="1.65013" ry="2.37018"/><path d="M240.321,134.50923a2.72858,2.72858,0,0,1-.74408,1.97774l-2.51058-2.52019c.17281-1.04647.82568-1.82894,1.60811-1.82894C239.5817,132.13784,240.321,133.19873,240.321,134.50923Z" transform="translate(-95.37835 -15.38979)"/><path class="cls-31" d="M245.76457,140.25047a2.82964,2.82964,0,0,1-.60966,1.83852l-2.60179-2.6114c.22083-.93124.83526-1.5985,1.56012-1.5985C245.02532,137.87909,245.76457,138.94,245.76457,140.25047Z" transform="translate(-95.37835 -15.38979)"/><path class="cls-31" d="M333.514,186.6975a2.74728,2.74728,0,0,1,2.47157-.41815,2.04489,2.04489,0,0,1,1.22606,1.546,6.9443,6.9443,0,0,1-.22333,3.26912,23.93935,23.93935,0,0,1-2.03363,4.98541q-1.04059,2.0241-2.30109,3.98864a29.68327,29.68327,0,0,1-2.47279,3.3938l-1.40969-3.08509a22.0448,22.0448,0,0,0,1.84416-2.39617,24.575,24.575,0,0,0,1.52756-2.57433,7.54155,7.54155,0,0,0,.7239-1.87832q.14761-.75509-.23159-.89337c-.4679-.1743-1.09009.49286-1.86707,2.01228l-1.30233,2.57675-2.12264-.81439-.10445-3.51242-3.48252,7.04835-2.625-1.13586,7.29371-14.56921,2.151,1.0092.1141,4.36175A10.06284,10.06284,0,0,1,333.514,186.6975Z" transform="translate(-95.37835 -15.38979)"/><path class="cls-31" d="M341.33293,171.29422a3.468,3.468,0,0,1,3.39137-.65449,2.21152,2.21152,0,0,1,1.28492,1.57322,6.13184,6.13184,0,0,1-.22609,3.10991,20.6388,20.6388,0,0,1-2.07909,4.635,42.5899,42.5899,0,0,1-2.34863,3.66969,26.545,26.545,0,0,1-2.51732,3.09582l-1.40073-3.02592a22.2144,22.2144,0,0,0,3.4208-4.51988,6.53332,6.53332,0,0,0,.7433-1.7645q.15332-.72643-.228-.88184-.36712-.15106-.882.35214a10.06329,10.06329,0,0,0-1.375,2.03121l-2.898,5.25526-5.78508-3.73254,6.64762-11.97324,2.65523,1.3382-3.89508,6.83981.95078.59828.51536-.921A15.05,15.05,0,0,1,341.33293,171.29422Z" transform="translate(-95.37835 -15.38979)"/><path class="cls-31" d="M350.60724,167.09392a8.88272,8.88272,0,0,1-3.48557,1.9073,5.16926,5.16926,0,0,1-3.48757-.28259,4.37235,4.37235,0,0,1-2.33086-2.37461,6.55163,6.55163,0,0,1-.25647-3.6836,13.81725,13.81725,0,0,1,4.81236-7.74306,7.57722,7.57722,0,0,1,3.54343-1.51855,5.90891,5.90891,0,0,1,3.53587.60437,4.51846,4.51846,0,0,1,2.31527,2.27173,5.23759,5.23759,0,0,1,.19783,3.28969,12.44741,12.44741,0,0,1-1.791,3.97372A15.62561,15.62561,0,0,1,350.60724,167.09392Zm-1.1709-7.74991c-1.75677-.86332-3.02922-.69591-3.81118.54666-.78052,1.25224-.29072,2.32273,1.46325,3.16663,1.7467.79816,3.00855.559,3.792-.67459C351.66517,161.15915,351.18592,160.16078,349.43634,159.344Z" transform="translate(-95.37835 -15.38979)"/><path class="cls-54" d="M674.10411,551.69684q0,29.88866-8.821,48.80531-8.82678,18.8865-24.28782,26.94621-15.22527,7.93887-24.04621-1.61915a23.49467,23.49467,0,0,1-4.27761-6.948,35.42213,35.42213,0,0,0,6.27141-2.61008q15.46091-8.06565,24.28783-26.9462,8.82722-18.90464,8.821-48.80531,0-21.18843-4.44665-32.1421,10.83887-3.40756,17.678,3.92714Q674.11031,521.8204,674.10411,551.69684Z" transform="translate(-95.37835 -15.38979)"/><path class="cls-55" d="M603.53587,671.04676q-16.43664-2.53463-25.73763-18.51984-9.3069-15.9297-9.30454-44.70124a159.42219,159.42219,0,0,1,9.30454-54.55185,152.97724,152.97724,0,0,1,25.73763-45.80746,128.40317,128.40317,0,0,1,37.45888-31.59412q21.02637-11.56943,37.45887-9.44813,16.43133,2.17388,25.73764,18.3732,9.30159,16.2585,9.30454,45.84187a165.6527,165.6527,0,0,1-9.30454,55.80294,148.88762,148.88762,0,0,1-25.73764,45.88747,120.68191,120.68191,0,0,1-37.45887,30.493Q619.97015,673.63765,603.53587,671.04676Zm61.74744-70.5435q8.81837-18.9099,8.82072-48.80434,0-29.87589-8.82072-39.39143-8.82545-9.4676-24.28856-1.059-15.22416,8.26723-24.04547,27.18778-8.82545,18.88356-8.82191,48.38321,0,29.51248,8.82191,39.01315,8.81836,9.54148,24.04547,1.61363Q656.45786,619.38085,665.28331,600.50326Z" transform="translate(-95.37835 -15.38979)"/><path class="cls-56" d="M687.86724,469.0336h-.10871a32.76405,32.76405,0,0,0-9.30439-2.61008c-.50756-.0604-1.015-.12081-1.53448-.16911q-10.60346-.94256-23.07962,3.67336a94.548,94.548,0,0,0-12.84477,5.94506,128.17107,128.17107,0,0,0-37.45888,31.5984,152.755,152.755,0,0,0-25.73778,45.80855,159.17174,159.17174,0,0,0-9.30439,54.545q0,25.86478,7.504,41.33771c.56789,1.16,1.17206,2.2838,1.80043,3.35918a45.76375,45.76375,0,0,0,5.486,7.58848,34.21607,34.21607,0,0,0,9.413,7.40719L571.9017,656.96836l-.07242-.03621-.9545-.48337q-9.08078-4.69439-15.12857-15.10439-9.31664-15.91392-9.30439-44.69688a159.17165,159.17165,0,0,1,9.30439-54.545A152.75455,152.75455,0,0,1,581.484,496.294a128.171,128.171,0,0,1,37.45887-31.5984q21.02526-11.56393,37.45888-9.44932a33.1801,33.1801,0,0,1,9.37681,2.6463l.03629-.03622Z" transform="translate(-95.37835 -15.38979)"/><path class="cls-57" d="M524.99359,664.89514q0,10.87515-8.45846,21.30323-8.46457,10.422-23.20027,18.00446a94.235,94.235,0,0,1-25.85874,9.18343q-12.56068,2.35638-22.23368-.1329L423.19,702.07612q9.66069,2.48315,22.23369.1329a94.23539,94.23539,0,0,0,25.85874-9.18344q14.73584-7.57635,23.20027-18.00445,8.06588-9.95076,8.43441-20.28819c5.6671-2.01792,10.08956-2.80338,13.25558-2.39251Q524.99949,653.53665,524.99359,664.89514Z" transform="translate(-95.37835 -15.38979)"/><path class="cls-58" d="M547.593,611.77293q17.03846,5.97505,17.03727,31.18274,0,16.29013-7.73274,33.64658-7.73686,17.32548-23.56284,33.41343-15.83128,16.049-39.02949,27.84494a151.4387,151.4387,0,0,1-35.16372,12.98614q-17.28094,3.91936-29.36269,1.12937l15.46666-38.72468q9.66444,2.48425,22.23412.13612a94.492,94.492,0,0,0,25.858-9.17874q14.73916-7.59263,23.20058-18.0101,8.45727-10.43336,8.45845-21.29913,0-11.36641-8.82072-12.55514-8.82544-1.1727-30.571,10.22041l-43.25873,22.6L451.04649,582.516l103.19245-56.05338v33.02052l-70.56816,37.93912-2.65743,34.73492,13.77449-7.298Q530.55161,605.88129,547.593,611.77293Z" transform="translate(-95.37835 -15.38979)"/><path class="cls-59" d="M550.18767,612.85154a24.8949,24.8949,0,0,0-2.59783-1.07545,28.14436,28.14436,0,0,0-9.84809-1.38964,61.40457,61.40457,0,0,0-17.364,3.27466h-.02419a157.765,157.765,0,0,0-25.56874,11.20144L481.00959,632.161,482.81,608.65852q28.18488-13.10452,42.72742-8.05968a24.8949,24.8949,0,0,1,2.59783,1.07545l1.38964.71289Z" transform="translate(-95.37835 -15.38979)"/><polygon class="cls-60" points="458.857 511.077 436.805 523.051 355.664 567.132 333.612 555.955 436.805 499.899 458.857 511.077"/><polygon class="cls-61" points="355.664 567.132 348.982 646.025 346.964 669.769 324.912 658.592 333.612 555.955 355.664 567.132"/><polygon class="cls-62" points="349.864 697.864 339.098 724.834 334.397 736.591 312.345 725.414 327.812 686.686 349.864 697.864"/><path class="cls-63" d="M421.32035,686.09365q11.83806,7.0788,11.84278,26.68833,0,15.13785-7.73392,31.86908-7.73687,16.70217-23.56284,32.37362-15.83129,15.63077-38.78818,27.17825a155.01392,155.01392,0,0,1-35.16312,12.91018q-17.28184,3.94513-29.36328,1.3138l15.22534-37.73027q9.66355,2.35,22.35449-.09258a98.23178,98.23178,0,0,0,25.97954-9.19773q14.73828-7.50827,23.20057-17.60352,8.45727-10.10487,8.45846-20.70219,0-21.1758-31.659-4.766l-17.88336,9.25112V711.49182l34.80027-58.2166-72.01783,38.1579v-31.4699l118.419-63.60549v26.01633L387.2458,687.02633Q409.47757,679.062,421.32035,686.09365Z" transform="translate(-95.37835 -15.38979)"/><path class="cls-64" d="M393.77117,733.10058q0,10.5851-8.45845,20.699-8.46437,10.09578-23.20028,17.60568a98.55812,98.55812,0,0,1-25.97954,9.1956q-12.68769,2.44687-22.35449.08452L291.726,769.50813q9.6609,2.35636,22.35449-.08452A98.55805,98.55805,0,0,0,340.06,760.228q14.73585-7.52191,23.20028-17.60568,7.6488-9.13509,8.37393-18.65694Q393.76513,715.39218,393.77117,733.10058Z" transform="translate(-95.37835 -15.38979)"/><polygon class="cls-65" points="211.629 644.575 211.629 676.041 189.576 664.864 189.576 633.398 211.629 644.575"/><polygon class="cls-66" points="330.047 580.968 307.995 592.81 211.629 644.575 189.576 633.398 307.995 569.79 330.047 580.968"/><polygon class="cls-67" points="283.647 637.881 270.246 660.308 270.234 660.308 248.846 696.099 226.794 684.922 241.596 660.163 282.921 638.268 283.647 637.881"/><polygon class="cls-68" points="248.846 696.099 248.846 722.2 226.794 711.023 226.794 684.922 248.846 696.099"/><polygon class="cls-69" points="218.396 765.302 207.992 791.088 203.17 803.038 181.118 791.861 196.343 754.124 218.396 765.302"/><path class="cls-70" d="M418.77952,684.80881q-11.58184-4.93012-31.53792,2.22333l8.20475-13.90806h.01209a21.51461,21.51461,0,0,1,3.80634,1.78834Z" transform="translate(-95.37835 -15.38979)"/></svg>