<svg id="Слой_1" data-name="Слой 1" xmlns="http://www.w3.org/2000/svg" xmlns:xlink="http://www.w3.org/1999/xlink" viewBox="0 0 687.60634 958.74286"><defs><style>.cls-1{fill:url(#Безымянный_градиент_81);}.cls-2{fill:#292941;}.cls-3{fill:#111423;}.cls-4{fill:#f9c4b7;}.cls-5{fill:#d7e3f4;}.cls-6{fill:#e64415;}.cls-7{fill:#f4b1a4;}.cls-8{fill:url(#Безымянный_градиент_81-2);}.cls-9{fill:url(#Безымянный_градиент_81-3);}.cls-10{fill:url(#Безымянный_градиент_33);}.cls-11{fill:url(#Безымянный_градиент_77);}.cls-12{fill:url(#Безымянный_градиент_22);}.cls-13{fill:url(#Безымянный_градиент_22-2);}.cls-14{fill:url(#Безымянный_градиент_81-4);}.cls-15{fill:#b53010;}.cls-16{fill:url(#Безымянный_градиент_77-2);}.cls-17{fill:url(#Безымянный_градиент_102);}.cls-18{fill:url(#Безымянный_градиент_102-2);}.cls-19{fill:url(#Безымянный_градиент_77-3);}.cls-20{fill:url(#Безымянный_градиент_33-2);}.cls-21{fill:url(#Безымянный_градиент_96);}.cls-22{fill:url(#Безымянный_градиент_86);}.cls-23{fill:url(#Безымянный_градиент_96-2);}.cls-24{fill:url(#Безымянный_градиент_96-3);}.cls-25{fill:url(#Безымянный_градиент_86-2);}.cls-26{fill:url(#Безымянный_градиент_86-3);}.cls-27{fill:url(#Безымянный_градиент_50);}.cls-28{fill:url(#Безымянный_градиент_86-4);}.cls-29{fill:url(#Безымянный_градиент_86-5);}.cls-30{fill:url(#Безымянный_градиент_86-6);}.cls-31{fill:url(#Безымянный_градиент_82);}.cls-32{fill:url(#Безымянный_градиент_96-4);}.cls-33{fill:url(#Безымянный_градиент_96-5);}.cls-34{fill:url(#Безымянный_градиент_82-2);}.cls-35{fill:url(#Безымянный_градиент_86-7);}.cls-36{fill:url(#Безымянный_градиент_50-2);}.cls-37{fill:url(#Безымянный_градиент_86-8);}.cls-38{fill:url(#Безымянный_градиент_82-3);}.cls-39{fill:url(#Безымянный_градиент_96-6);}.cls-40{fill:url(#Безымянный_градиент_96-7);}.cls-41{fill:url(#Безымянный_градиент_96-8);}.cls-42{fill:url(#Безымянный_градиент_82-4);}.cls-43{fill:url(#Безымянный_градиент_86-9);}.cls-44{fill:url(#Безымянный_градиент_86-10);}.cls-45{fill:url(#Безымянный_градиент_86-11);}.cls-46{fill:url(#Безымянный_градиент_86-12);}.cls-47{fill:url(#Безымянный_градиент_82-5);}.cls-48{fill:url(#Безымянный_градиент_86-13);}.cls-49{fill:url(#Безымянный_градиент_86-14);}.cls-50{fill:url(#Безымянный_градиент_86-15);}.cls-51{fill:url(#Безымянный_градиент_86-16);}.cls-52{fill:url(#Безымянный_градиент_82-6);}.cls-53{fill:url(#Безымянный_градиент_82-7);}</style><linearGradient id="Безымянный_градиент_81" x1="-5118.69137" y1="1827.07308" x2="-4915.28483" y2="1933.13204" gradientTransform="translate(5653.28791 -145.55184) rotate(10.74042)" gradientUnits="userSpaceOnUse"><stop offset="0" stop-color="#b5b5c1" stop-opacity="0.3"/><stop offset="0.99512" stop-color="#fdfdfd" stop-opacity="0"/></linearGradient><linearGradient id="Безымянный_градиент_81-2" x1="-5279.41291" y1="1832.55192" x2="-4900.36922" y2="1832.55192" xlink:href="#Безымянный_градиент_81"/><linearGradient id="Безымянный_градиент_81-3" x1="-5682.25453" y1="1747.14721" x2="-5303.21085" y2="1747.14721" gradientTransform="matrix(0.46688, 0.08856, -0.0741, 0.39064, 2962.76881, 388.53171)" xlink:href="#Безымянный_градиент_81"/><linearGradient id="Безымянный_градиент_33" x1="-5528.29652" y1="419.88294" x2="-5300.65139" y2="419.88294" gradientTransform="translate(5684.50322)" gradientUnits="userSpaceOnUse"><stop offset="0.57561" stop-color="#fbfbfd"/><stop offset="1" stop-color="#f3f3f5"/></linearGradient><linearGradient id="Безымянный_градиент_77" x1="-5528.30639" y1="506.71198" x2="-5300.66145" y2="506.71198" gradientTransform="translate(5684.50322)" gradientUnits="userSpaceOnUse"><stop offset="0" stop-color="#f77f48"/><stop offset="0.45366" stop-color="#ff9c88"/><stop offset="1" stop-color="#f77f48"/></linearGradient><linearGradient id="Безымянный_градиент_22" x1="-5528.29651" y1="474.78588" x2="-5300.65138" y2="474.78588" gradientTransform="translate(5684.50322)" gradientUnits="userSpaceOnUse"><stop offset="0" stop-color="#fdfdfd"/><stop offset="0.43171" stop-color="#fbfafb"/><stop offset="0.56585" stop-color="#f0eff4"/></linearGradient><linearGradient id="Безымянный_градиент_22-2" x1="-5528.30632" y1="621.91352" x2="-5300.6612" y2="621.91352" xlink:href="#Безымянный_градиент_22"/><linearGradient id="Безымянный_градиент_81-4" x1="-5489.18073" y1="441.42559" x2="-5300.64209" y2="441.42559" gradientTransform="translate(5684.50322)" xlink:href="#Безымянный_градиент_81"/><linearGradient id="Безымянный_градиент_77-2" x1="1162.44658" y1="418.30444" x2="1216.61722" y2="418.30444" gradientTransform="matrix(-1, 0, 0, 1, 1245.76244, -20.62857)" xlink:href="#Безымянный_градиент_77"/><linearGradient id="Безымянный_градиент_102" x1="1126.55451" y1="351.93787" x2="1230.94523" y2="351.93787" gradientTransform="matrix(-1, 0, 0, 1, 1401.95927, 0)" gradientUnits="userSpaceOnUse"><stop offset="0" stop-color="#f77f48"/><stop offset="0.54634" stop-color="#ff9c88"/></linearGradient><linearGradient id="Безымянный_градиент_102-2" x1="1177.82311" y1="384.91315" x2="1201.24069" y2="384.91315" xlink:href="#Безымянный_градиент_102"/><linearGradient id="Безымянный_градиент_77-3" x1="352.20118" y1="116.55611" x2="492.13955" y2="116.55611" gradientTransform="matrix(1, 0, 0, 1, 0, 0)" xlink:href="#Безымянный_градиент_77"/><linearGradient id="Безымянный_градиент_33-2" x1="354.33652" y1="116.93059" x2="488.34697" y2="116.93059" gradientTransform="matrix(1, 0, 0, 1, 0, 0)" xlink:href="#Безымянный_градиент_33"/><linearGradient id="Безымянный_градиент_96" x1="310.03164" y1="684.48037" x2="310.05166" y2="684.48037" gradientUnits="userSpaceOnUse"><stop offset="0" stop-color="#ef6452"/><stop offset="0.3561" stop-color="#f77f48"/></linearGradient><linearGradient id="Безымянный_градиент_86" x1="644.88973" y1="651.14959" x2="682.6097" y2="651.14959" gradientUnits="userSpaceOnUse"><stop offset="0.57561" stop-color="#ff9c88"/><stop offset="1" stop-color="#f77f48"/></linearGradient><linearGradient id="Безымянный_градиент_96-2" x1="667.67977" y1="655.36342" x2="687.07967" y2="655.36342" xlink:href="#Безымянный_градиент_96"/><linearGradient id="Безымянный_градиент_96-3" x1="607.37883" y1="656.62538" x2="661.87883" y2="656.62538" xlink:href="#Безымянный_градиент_96"/><linearGradient id="Безымянный_градиент_86-2" x1="428.39285" y1="647.3143" x2="451.18289" y2="647.3143" xlink:href="#Безымянный_градиент_86"/><linearGradient id="Безымянный_градиент_86-3" x1="428.39285" y1="610.98931" x2="466.68289" y2="610.98931" xlink:href="#Безымянный_градиент_86"/><linearGradient id="Безымянный_градиент_50" x1="468.15734" y1="636.6606" x2="479.61923" y2="616.80802" gradientUnits="userSpaceOnUse"><stop offset="0" stop-color="#f77f48"/><stop offset="0.42439" stop-color="#ff9c88"/></linearGradient><linearGradient id="Безымянный_градиент_86-4" x1="467.30276" y1="606.0993" x2="490.08304" y2="606.0993" xlink:href="#Безымянный_градиент_86"/><linearGradient id="Безымянный_градиент_86-5" x1="478.6929" y1="662.46929" x2="478.6929" y2="638.18927" xlink:href="#Безымянный_градиент_86"/><linearGradient id="Безымянный_градиент_86-6" x1="467.30276" y1="588.99429" x2="505.68289" y2="588.99429" xlink:href="#Безымянный_градиент_86"/><linearGradient id="Безымянный_градиент_82" x1="534.18966" y1="725.05789" x2="534.18966" y2="663.23788" xlink:href="#Безымянный_градиент_50"/><linearGradient id="Безымянный_градиент_96-4" x1="291.33575" y1="838.70177" x2="318.24317" y2="838.70177" xlink:href="#Безымянный_градиент_96"/><linearGradient id="Безымянный_градиент_96-5" x1="538.98039" y1="692.96344" x2="597.37981" y2="692.96344" xlink:href="#Безымянный_градиент_96"/><linearGradient id="Безымянный_градиент_82-2" x1="287.85551" y1="836.37592" x2="287.85551" y2="867.3825" xlink:href="#Безымянный_градиент_50"/><linearGradient id="Безымянный_градиент_86-7" x1="275.45424" y1="822.51239" x2="313.6271" y2="822.51239" xlink:href="#Безымянный_градиент_86"/><linearGradient id="Безымянный_градиент_50-2" x1="360.00296" y1="707.96929" x2="383.58304" y2="707.96929" xlink:href="#Безымянный_градиент_50"/><linearGradient id="Безымянный_градиент_86-8" x1="372.40286" y1="633.82428" x2="441.18289" y2="633.82428" xlink:href="#Безымянный_градиент_86"/><linearGradient id="Безымянный_градиент_82-3" x1="572.12484" y1="669.44784" x2="572.12484" y2="717.64785" xlink:href="#Безымянный_градиент_50"/><linearGradient id="Безымянный_градиент_96-6" x1="214.28313" y1="813.47449" x2="274.68254" y2="813.47449" xlink:href="#Безымянный_градиент_96"/><linearGradient id="Безымянный_градиент_96-7" x1="328.88372" y1="737.3245" x2="444.4843" y2="737.3245" xlink:href="#Безымянный_градиент_96"/><linearGradient id="Безымянный_градиент_96-8" x1="469.28215" y1="728.58304" x2="535.88176" y2="728.58304" xlink:href="#Безымянный_градиент_96"/><linearGradient id="Безымянный_градиент_82-4" x1="389.11971" y1="798.95302" x2="389.11971" y2="745.74713" xlink:href="#Безымянный_градиент_50"/><linearGradient id="Безымянный_градиент_86-9" x1="35.30276" y1="755.98931" x2="58.08304" y2="755.98931" xlink:href="#Безымянный_градиент_86"/><linearGradient id="Безымянный_градиент_86-10" x1="35.30276" y1="725.8193" x2="118.48294" y2="725.8193" xlink:href="#Безымянный_градиент_86"/><linearGradient id="Безымянный_градиент_86-11" x1="63.30276" y1="815.24429" x2="86.08304" y2="815.24429" xlink:href="#Безымянный_градиент_86"/><linearGradient id="Безымянный_градиент_86-12" x1="306.09969" y1="732.18205" x2="439.27987" y2="732.18205" xlink:href="#Безымянный_градиент_86"/><linearGradient id="Безымянный_градиент_82-5" x1="361.67977" y1="728.06532" x2="428.6097" y2="728.06532" xlink:href="#Безымянный_градиент_50"/><linearGradient id="Безымянный_градиент_86-13" x1="290.30276" y1="722.2243" x2="313.08304" y2="722.2243" xlink:href="#Безымянный_градиент_86"/><linearGradient id="Безымянный_градиент_86-14" x1="290.30276" y1="687.6043" x2="329.38284" y2="687.6043" xlink:href="#Безымянный_градиент_86"/><linearGradient id="Безымянный_градиент_86-15" x1="330.35281" y1="686.24429" x2="364.88284" y2="686.24429" xlink:href="#Безымянный_градиент_86"/><linearGradient id="Безымянный_градиент_86-16" x1="342.10281" y1="659.45929" x2="379.48294" y2="659.45929" xlink:href="#Безымянный_градиент_86"/><linearGradient id="Безымянный_градиент_82-6" x1="359.01297" y1="691.93927" x2="359.01297" y2="728.8493" xlink:href="#Безымянный_градиент_50"/><linearGradient id="Безымянный_градиент_82-7" x1="335.03287" y1="712.63928" x2="335.03287" y2="734.89929" xlink:href="#Безымянный_градиент_50"/></defs><title>4-1,6m_Call</title><polygon class="cls-1" points="86.083 873.038 310.102 958.743 687.606 680.828 521.183 646.649 504.425 642.609 467.303 647.842 345.425 717.765 290.303 748.299 258.494 782.981 176.404 800.015 159.298 811.823 120.652 841.087 118.486 842.765 118.486 856.619 86.083 873.038"/><path class="cls-2" d="M371.64981,596.90806s.96127,10.574-.96128,13.74626-7.83441,15.813-13.07337,16.00526-8.44306-3.66033-5.80764-16.12916S371.64981,596.90806,371.64981,596.90806Z" transform="translate(-156.19683 -20.62857)"/><path class="cls-2" d="M352.31908,583.30782a25.42323,25.42323,0,0,1,0,3.26651c-.13513.81708-1.06618,3.3164-1.0092,4.90251s-.38774,8.969-.38774,8.969h-2.24685s.57676-7.62324-1.2016-8.969-4.46994,2.7877-4.71026,3.65285-1.29772,8.79569-1.00934,10.04535-5.86379,8.267-11.91983,7.78634-10.09168-1.29765-10.33286-3.19621a10.41193,10.41193,0,0,1,.00633-3.10314Z" transform="translate(-156.19683 -20.62857)"/><path class="cls-3" d="M382.878,246.85581s-1.8938,108.06267-6.72784,110.87816-12.96738-3.18368-12.96738-3.18368l4.72383-125.12024Z" transform="translate(-156.19683 -20.62857)"/><path class="cls-4" d="M322.04705,244.98347s-9.85309-2.59545-13.36175.48064-16.61841,23.67721-24.371,38.81575a333.77678,333.77678,0,0,0-14,30.75c-.832,2.1604-31.32385,78.18716-31.70836,76.84137s4.95058-8.69956,3.028-10.95856-5.239,3.84511-6.34443,3.79705-1.34578-10.42986-1.34578-10.42986-.52871-10.526-7.73828-10.14147-8.267,10.33373-7.93054,16.00526,3.028,18.36039,9.99728,24.36837,46.21011-71.40263,49.0543-75.98216a222.54278,222.54278,0,0,0,15.23779-27.84408c5.65623-12.73808,18.90875-33.73713,19.87-32.29521s4.03736,3.07608,4.03736,3.07608l16.11741-13.07336Z" transform="translate(-156.19683 -20.62857)"/><path class="cls-5" d="M350.71335,574.21422c1.29436-.00832,2.57607,8.38683,1.42253,9.34811s-11.47124,6.53668-11.08673,19.41779c.12621,4.22774-13.84238,7.62613-16.66213,6.60077s-6.92119-.32043-3.71694-6.08809a35.32847,35.32847,0,0,1,7.7543-9.42051Z" transform="translate(-156.19683 -20.62857)"/><path class="cls-4" d="M373.21989,267.81487s15.63677,8.65149,16.98256,12.4966,12.4966,61.13722,11.72758,78.82472-8.267,59.98368-7.88247,65.75134,3.4606,14.99593,3.07609,17.11074-2.30707,7.11345-7.11345,7.498-8.07473-8.07473-9.22826-8.267-3.4606,2.49932-4.22962.57677,3.65285-6.15217,3.4606-9.42051-2.11481-12.1121-.38451-15.9572,6.30531-45.56453,6.51712-54.40828-5.10725-58.31747-6.32487-58.6379-2.69157,5.1909-2.69157,5.1909-19.4178-9.61277-19.80231-12.11209.57676-26.41163.57676-26.41163Z" transform="translate(-156.19683 -20.62857)"/><path class="cls-5" d="M370.08175,577.39413s2.43321,16.29365,1.56806,19.51393-5.287,27.15607-14.46722,26.5793-4.85445-15.18817-4.85445-15.18817Z" transform="translate(-156.19683 -20.62857)"/><path class="cls-4" d="M314.83833,467.56823c-.91868,1.3914,4.22962,37.87432,6.9212,49.79415s12.30435,52.29347,11.91983,58.44564-1.85846,14.2269-3.65285,16.66214-4.10145,5.63949-2.69157,6.66485,7.562,3.97328,9.22826,1.40988,3.71693-9.22826,4.99864-11.15082,9.10008-11.40715,9.35643-12.817-12.30435-97.28124-12.30435-97.28124Z" transform="translate(-156.19683 -20.62857)"/><path class="cls-4" d="M346.0478,482.75641s8.07472,93.5643,7.81838,101.51085-1.538,24.03193-1.538,24.03193,3.781-2.81975,6.4726-1.7303,6.92119,4.93455,6.92119,4.93455,4.29371-11.85575,4.35779-31.14537-1.40987-104.52285-1.40987-104.52285Z" transform="translate(-156.19683 -20.62857)"/><path class="cls-6" d="M323.97047,247.14742s-9.94488,10.89292-12.59273,14.99592c-1.46884,2.276-9.036,20.90334-9.036,26.69146,0,8.97191,8.45924,9.22825,8.45924,14.86775s2.94792,31.78622.64085,35.88767-7.81838,24.22418-7.69021,29.99184,7.43387,95.615,8.84375,98.05026,31.658,23.96784,45.11593,19.61005,12.43252-5.63949,12.30435-8.71558,3.33242-55.49772,6.15217-60.11185,7.69021-17.81567,6.53668-27.55661-13.45788-34.34963-13.07337-38.32291,10.12546-42.6807,10.12546-42.6807.12817-6.793-1.15354-6.793-2.43523,3.20426-5.255,2.94792-6.92119-16.27762-6.15217-22.68614,6.024-12.97276,6.024-15.5086-26.12436-17.04937-26.12436-17.04937Z" transform="translate(-156.19683 -20.62857)"/><path class="cls-6" d="M323.97047,247.14742s-9.94488,10.89292-12.59273,14.99592c-1.46884,2.276-9.036,20.90334-9.036,26.69146,0,8.97191,8.45924,9.22825,8.45924,14.86775s2.94792,31.78622.64085,35.88767-7.81838,24.22418-7.69021,29.99184,7.43387,95.615,8.84375,98.05026,31.658,23.96784,45.11593,19.61005,12.43252-5.63949,12.30435-8.71558,3.33242-55.49772,6.15217-60.11185,7.69021-17.81567,6.53668-27.55661-13.45788-34.34963-13.07337-38.32291,10.12546-42.6807,10.12546-42.6807.12817-6.793-1.15354-6.793-2.43523,3.20426-5.255,2.94792-6.92119-16.27762-6.15217-22.68614,6.024-12.97276,6.024-15.5086-26.12436-17.04937-26.12436-17.04937Z" transform="translate(-156.19683 -20.62857)"/><path class="cls-7" d="M338.96639,250.12737s-.91322,5.239-.38451,6.48862a6.01776,6.01776,0,0,0,6.48862,4.22962c4.61413-.33644,7.3057-3.53289,7.78634-5.3472s-.28838-12.00385-.28838-12.00385Z" transform="translate(-156.19683 -20.62857)"/><path class="cls-4" d="M320.67008,207.19033s-10.38179,44.98777,9.99728,44.47509,28.83831-10.25362,28.83831-10.25362l7.69022-32.93976Z" transform="translate(-156.19683 -20.62857)"/><path class="cls-3" d="M318.02589,204.71855c.8972,4.61413,21.48522,18.44647,23.40778,17.0599s4.61413-1.81769,4.61413,0,12.94519-1.38658,12.30434,3.48389-7.94656,33.45244-6.53668,36.01585,16.27762,11.02264,18.32835,8.20289,8.561,2.11875,9.45819,2.11875,0-7.31168.41092-13.01322c.22885-3.17545,17.17481-52.54981-10.25363-67.93024s-38.684-7.617-44.57978.07323S318.02589,204.71855,318.02589,204.71855Z" transform="translate(-156.19683 -20.62857)"/><path d="M371.169,353.81365a14.6334,14.6334,0,0,1-7.3211,8.13631,23.81846,23.81846,0,0,1-11.30439,2.52231,54.82466,54.82466,0,0,1-17.10322-3.22985c-12.91941-4.3065-21.00991-9.84351-24.03943-16.45708-2.19968-4.78329-.7848-8.35156-.72322-8.50533a1.536,1.536,0,0,1,1.55344-.93828,45.70986,45.70986,0,0,0,1.75358,7.67492c.092.19986.169.39981.27675.61516,1.861,3.96818,7.22872,9.72044,22.14767,14.70369,11.13579,3.70673,20.11772,4.01427,26.00855.89209a15.00084,15.00084,0,0,0,2.44525-1.63032l.16935-.16917a9.83731,9.83731,0,0,0,1.38409-1.39967,21.02917,21.02917,0,0,0,3.307-4.168,1.51525,1.51525,0,0,1,.36912.04609A1.54014,1.54014,0,0,1,371.169,353.81365Z" transform="translate(-156.19683 -20.62857)"/><path d="M312.231,335.32643a.1197.1197,0,0,1,.04619.0153c-.0154,0-.03079-.0153-.04619,0Z" transform="translate(-156.19683 -20.62857)"/><polygon class="cls-8" points="111.933 739.113 451.11 858.271 520.204 620.661 140.66 603.194 111.933 739.113"/><polygon class="cls-9" points="175.257 594.899 337.213 647.417 366.485 553.283 186.899 540.899 175.257 594.899"/><path class="cls-10" d="M383.85183,419.924a6.65927,6.65927,0,0,1-3.24637,5.74769l-24.92657,14.97968-18.31513,11.019-54.26083,32.63989a25.576,25.576,0,0,1-26.26674.02981l-53.69481-32.074-18.46417-11.019-25.22449-15.06911a6.629,6.629,0,0,1-3.246-5.3009V420.043a6.59288,6.59288,0,0,1,3.246-5.33071l83.29717-50.09144,15.218-9.14274a25.49683,25.49683,0,0,1,26.44543.05962l14.89043,9.08312,81.36135,49.585A6.61691,6.61691,0,0,1,383.85183,419.924Z" transform="translate(-156.19683 -20.62857)"/><path class="cls-11" d="M383.84178,461.62746v22.12716a6.624,6.624,0,0,1-3.2462,5.74768l-97.50252,58.63854a25.50872,25.50872,0,0,1-26.26675.02981l-97.38347-58.13231a6.63581,6.63581,0,0,1-3.246-5.33071V462.58028a6.62909,6.62909,0,0,0,3.246,5.30109l8.90445,5.3009,88.479,52.861a25.57564,25.57564,0,0,0,26.26675-.02963L371.81019,472.676l8.78539-5.3009A6.65906,6.65906,0,0,0,383.84178,461.62746Z" transform="translate(-156.19683 -20.62857)"/><path class="cls-12" d="M380.60547,425.67162,355.6789,440.65131l-18.315,11.01895-54.261,32.6399a25.57575,25.57575,0,0,1-26.26656.02981l-53.695-32.074-18.464-11.019-25.22467-15.06911a6.62906,6.62906,0,0,1-3.246-5.3009v41.69321a6.629,6.629,0,0,0,3.246,5.3009l8.90481,5.30108,88.47884,52.861a25.57575,25.57575,0,0,0,26.26656-.02981l88.71732-53.33763,8.78521-5.3009a6.65927,6.65927,0,0,0,3.24637-5.74769V419.92394A6.65925,6.65925,0,0,1,380.60547,425.67162Z" transform="translate(-156.19683 -20.62857)"/><path class="cls-13" d="M380.59565,489.50218l-97.50253,58.63853a25.509,25.509,0,0,1-26.26692.02981l-97.38329-58.13231a6.6358,6.6358,0,0,1-3.246-5.33071V692.99488a6.629,6.629,0,0,0,3.246,5.3009l25.22431,15.06912,18.464,11.019,53.695,32.074a25.57635,25.57635,0,0,0,26.26692-.02981l54.26065-32.63989,18.31531-11.019,24.92657-14.97968a6.65926,6.65926,0,0,0,3.24638-5.74768V483.75449A6.62417,6.62417,0,0,1,380.59565,489.50218Z" transform="translate(-156.19683 -20.62857)"/><path class="cls-14" d="M383.86113,419.93456a6.65889,6.65889,0,0,1-3.246,5.74768l-24.92657,14.97987-18.31531,11.019-54.26065,32.63972a24.84515,24.84515,0,0,1-6.64126,2.79941L246.73151,463.575l-51.409-35.70917L225.01673,395.731l157.98082,20.89794A6.45238,6.45238,0,0,1,383.86113,419.93456Z" transform="translate(-156.19683 -20.62857)"/><ellipse class="cls-15" cx="56.23054" cy="399.2049" rx="27.08532" ry="15.59799"/><ellipse class="cls-16" cx="56.23054" cy="397.67587" rx="27.08532" ry="15.59799"/><path class="cls-15" d="M173.78024,275.64089a2.83064,2.83064,0,0,1,1.40952.12264h.06132a2.64624,2.64624,0,0,1,.79636.30583l.85693.48978,94.57991,54.08967a7.8475,7.8475,0,0,1,3.92049,6.79935V425.2893a2.43827,2.43827,0,0,1-.42922,1.47008,2.22158,2.22158,0,0,1-.85692.98031l1.89855-.79636h.06131a2.94884,2.94884,0,0,0,1.95987-.79636l.06132-.06131h.06132v-.06132a2.95305,2.95305,0,0,0,.85842-2.0825V336.1a7.79421,7.79421,0,0,0-3.92123-6.7986L179.72266,274.7219a3.60843,3.60843,0,0,0-2.51171-.36715l-.48978.1832Z" transform="translate(-156.19683 -20.62857)"/><path class="cls-17" d="M271.46333,330.6296,176.05859,276.046a3.37068,3.37068,0,0,0-5.04454,2.92569v82.76911a8.20057,8.20057,0,0,0,3.89886,6.98174l95.93345,59.10814a2.99,2.99,0,0,0,4.55841-2.54559V337.42552A7.82956,7.82956,0,0,0,271.46333,330.6296Z" transform="translate(-156.19683 -20.62857)"/><path class="cls-18" d="M224.13616,366.62464v59.03724l-23.41758-13.27217v-60.8051a7.40894,7.40894,0,0,1,11.167-6.38512l0,0A24.86055,24.86055,0,0,1,224.13616,366.62464Z" transform="translate(-156.19683 -20.62857)"/><path class="cls-15" d="M209.27127,344.26216a7.11972,7.11972,0,0,1,2.6336.91974,24.86193,24.86193,0,0,1,12.25123,21.43966v59.05029H226.362V366.62156a24.86193,24.86193,0,0,0-12.25123-21.43966A7.21479,7.21479,0,0,0,209.27127,344.26216Z" transform="translate(-156.19683 -20.62857)"/><path class="cls-19" d="M352.20118,23.70172V132.65789a3.06855,3.06855,0,0,0,1.54171,2.66173l133.80125,76.75265a3.06856,3.06856,0,0,0,4.59541-2.66173V101.00927a3.06859,3.06859,0,0,0-1.53342-2.657L356.80488,21.04475A3.06857,3.06857,0,0,0,352.20118,23.70172Z" transform="translate(-156.19683 -20.62857)"/><path class="cls-20" d="M354.69828,31.65207l-.36175,99.78176a2.7909,2.7909,0,0,0,1.46641,2.443l127.778,70.754a2.93818,2.93818,0,0,0,4.40614-2.42166l.3599-99.27359a2.79039,2.79039,0,0,0-1.4585-2.43856L359.11232,29.2348A2.93844,2.93844,0,0,0,354.69828,31.65207Z" transform="translate(-156.19683 -20.62857)"/><path class="cls-6" d="M405.796,79.306l-3.21657,31.13953-9.1857-4.67125,2.32959-22.77311L391.01705,80.852l.79155-7.74547Z" transform="translate(-156.19683 -20.62857)"/><path class="cls-6" d="M415.408,106.88128a8.24344,8.24344,0,0,1,1.00088,4.948,8.84824,8.84824,0,0,1-.5187,2.222,17.641,17.641,0,0,1-1.61711,2.93573l-3.41553,5.28018-5.43319-2.87757,2.72083-6.51323a8.23984,8.23984,0,0,1-1.66743-2.89579,7.91766,7.91766,0,0,1-.35024-3.34138q.26709-2.58434,1.87177-3.43479a4.11335,4.11335,0,0,1,3.86931.25753A8.0648,8.0648,0,0,1,415.408,106.88128Z" transform="translate(-156.19683 -20.62857)"/><path class="cls-6" d="M438.67451,108.04625a16.56892,16.56892,0,0,1,3.03171,5.46246,14.60136,14.60136,0,0,1,.68955,6.22984,9.19677,9.19677,0,0,1-2.11239,5.38338,5.99073,5.99073,0,0,1-4.41149,1.96991,11.667,11.667,0,0,1-5.73727-1.55312,21.6001,21.6001,0,0,1-6.66442-5.40338,21.08748,21.08748,0,0,1-4.01241-7.669,24.42369,24.42369,0,0,1-.73361-9.45534,17.41365,17.41365,0,0,1,2.89633-8.63224,8.83814,8.83814,0,0,1,5.979-3.72087,14.36743,14.36743,0,0,1,8.20223,1.52679,22.53536,22.53536,0,0,1,4.62751,2.873,19.31269,19.31269,0,0,1,3.58973,3.722l-4.16515,6.2935a11.84656,11.84656,0,0,0-4.77559-4.14854,4.99479,4.99479,0,0,0-4.07923-.45037,4.53056,4.53056,0,0,0-2.44911,3.16106q2.33838-.77528,5.62068.8152A13.78577,13.78577,0,0,1,438.67451,108.04625Zm-6.24307,9.72467a2.4624,2.4624,0,0,0,1.03554-2.04078,4.92462,4.92462,0,0,0-.517-2.85681,4.33529,4.33529,0,0,0-1.9293-1.92973,2.133,2.133,0,0,0-2.123-.1046,2.50942,2.50942,0,0,0-1.03655,2.0502,4.75794,4.75794,0,0,0,.52355,2.81121,4.46183,4.46183,0,0,0,1.9303,1.91946A2.16562,2.16562,0,0,0,432.43144,117.77092Z" transform="translate(-156.19683 -20.62857)"/><path class="cls-6" d="M380.5736,120.65951l.39909-4.1381-2.14021,2.43139-1.47153-.79611-1.39158-4.39206-.41672,4.17107-3.14666-1.6993.90453-9.07833,3.71573,1.932,1.59038,5.34116,2.71406-3.09189,3.29308,1.72675-.906,9.3074Z" transform="translate(-156.19683 -20.62857)"/><path class="cls-6" d="M386.28557,113.94027l3.50924,1.85144-.952,9.38743-3.49913-1.91727Zm.35751-1.189a2.71193,2.71193,0,0,1-.44-1.71377,1.2043,1.2043,0,0,1,.72566-1.10884,1.92522,1.92522,0,0,1,1.58855.23644,3.72562,3.72562,0,0,1,1.4852,1.33146,2.615,2.615,0,0,1,.435,1.67728,1.29128,1.29128,0,0,1-.72444,1.17008,1.85459,1.85459,0,0,1-1.59615-.23261A3.71324,3.71324,0,0,1,386.64308,112.75127Z" transform="translate(-156.19683 -20.62857)"/><path class="cls-6" d="M400.596,121.53558l-.9832,9.58932-3.496-1.9378.65936-6.45481-1.59687-.8606-.17259,1.207a13.02106,13.02106,0,0,1-.64872,2.832A2.09523,2.09523,0,0,1,393.253,127.213a2.19286,2.19286,0,0,1-1.82029-.33812,10.04224,10.04224,0,0,1-1.59915-1.15219l.45789-3.06666q.24432.16871.353.22818.63543.34488.88833-.05385a4.49185,4.49185,0,0,0,.42079-1.56386l.54275-4.04485Z" transform="translate(-156.19683 -20.62857)"/><path class="cls-6" d="M409.83083,130.522a4.609,4.609,0,0,1,.66145,2.93506,2.04943,2.04943,0,0,1-1.32776,1.99987,4.00318,4.00318,0,0,1-2.99559-.67862l-4.917-2.74283.988-9.62019,3.4892,1.873-.30161,2.92625,1.87444,1.02094A6.50782,6.50782,0,0,1,409.83083,130.522Zm-2.89028.89524a1.20254,1.20254,0,0,0-.66986-1.26938l-1.08436-.595-.1787,1.73343,1.0838.5995Q406.84836,132.30425,406.94055,131.41725Z" transform="translate(-156.19683 -20.62857)"/><path class="cls-6" d="M412.14684,127.75272l3.48632,1.89177-.46421,4.46265,3.39188-2.86779,3.22181,1.76043-1.04441,9.98847-3.47445-1.96989.4681-4.494-3.37241,2.85352L411.13029,137.56Zm2.3956-.369a4.56578,4.56578,0,0,1-.49539-2.79119l2.24968,1.20383a2.2014,2.2014,0,0,0,.08476.993,1.26283,1.26283,0,0,0,.6281.6539q.86709.46718.9927-.73274l2.2797,1.22525q-.17157,1.64311-1.00483,2.0099a3,3,0,0,1-2.45867-.51754A5.55549,5.55549,0,0,1,414.54244,127.38374Z" transform="translate(-156.19683 -20.62857)"/><path class="cls-6" d="M424.2547,144.47307a9.06088,9.06088,0,0,1-1.55932-2.84438,7.176,7.176,0,0,1-.35244-3.03541,3.97548,3.97548,0,0,1,.91462-2.3313,2.66143,2.66143,0,0,1,1.95074-.87765,5.04807,5.04807,0,0,1,2.60048.72858,8.41993,8.41993,0,0,1,2.47524,2.07236,8.687,8.687,0,0,1,1.55008,2.84176,7.422,7.422,0,0,1,.33777,3.08173,4.12643,4.12643,0,0,1-.91325,2.37244,2.595,2.595,0,0,1-1.94148.87919,5.02507,5.02507,0,0,1-2.609-.77695A8.59765,8.59765,0,0,1,424.2547,144.47307Zm3.83774-1.10316a1.67757,1.67757,0,0,0,.54068-1.254,3.1979,3.1979,0,0,0-.23209-1.678,2.21889,2.21889,0,0,0-.93455-1.07043.93822.93822,0,0,0-1.04441-.03477,1.63927,1.63927,0,0,0-.53963,1.23979,3.239,3.239,0,0,0,.23271,1.68137,2.23783,2.23783,0,0,0,.93387,1.08392A.92269.92269,0,0,0,428.09244,143.36991Z" transform="translate(-156.19683 -20.62857)"/><path class="cls-6" d="M433.79139,139.61576l3.48038,1.933-.383,3.613,2.37937,1.34269.38547-3.62877,3.47792,1.94473-1.10619,10.38954-3.46785-2.00932.356-3.3561-2.37715-1.3572-.35377,3.34149-3.4703-1.99945Z" transform="translate(-156.19683 -20.62857)"/><path class="cls-6" d="M444.77023,145.73837l3.47643,1.95446-.50683,4.73994,3.42688-3.09388,3.21227,1.81736-1.13879,10.60259-3.46456-2.03166.51089-4.77249-3.40763,3.08008-3.2196-1.875Z" transform="translate(-156.19683 -20.62857)"/><path class="cls-3" d="M356.89256,219.96862s-7.5,17.58337-10.59375,21.84247-16.8996,2.149-16.8996,2.149v.00006a2.56214,2.56214,0,0,0-1.71411-1.58643c-2.2843-.85663-3.28375-.85663-3.56927.85663s3.141,3.42651,4.4259,2.71265a1.8585,1.8585,0,0,0,.44623-.34717c1.98883.24707,12.16168,1.42535,16.72809.28943,3.30572-.82233,13.67651-24.25,13.67651-24.25Z" transform="translate(-156.19683 -20.62857)"/><path d="M466.22847,705.13393l.02-.01v-.04Z" transform="translate(-156.19683 -20.62857)"/><polygon class="cls-21" points="310.052 684.455 310.052 684.495 310.032 684.505 310.052 684.455"/><path class="cls-22" d="M682.6097,642.34787a7.91138,7.91138,0,0,0-5.23,1.19,18.29306,18.29306,0,0,0-6.8999,7.03,19.45989,19.45989,0,0,0-2.80005,10.01q0,5.115,2.80005,7.02a5.14242,5.14242,0,0,0,1.11987.57v.01l-22.58984-8.06.00976-.01a4.96982,4.96982,0,0,1-1.32983-.65c-1.86011-1.26-2.80005-3.6-2.80005-7.01a19.55606,19.55606,0,0,1,2.80005-10.01,18.43238,18.43238,0,0,1,6.8999-7.03q3.31494-1.83,5.76-1.06l.44995.16.07007.03Z" transform="translate(-156.19683 -20.62857)"/><path class="cls-23" d="M687.07967,649.98788a20.41433,20.41433,0,0,1-2.7998,10.12,17.846,17.846,0,0,1-6.90015,7.17c-2.22,1.2-4.13989,1.49-5.78.89a5.14242,5.14242,0,0,1-1.11987-.57q-2.80518-1.905-2.80005-7.02a19.45989,19.45989,0,0,1,2.80005-10.01,18.29306,18.29306,0,0,1,6.8999-7.03,7.91138,7.91138,0,0,1,5.23-1.19,4.86227,4.86227,0,0,1,1.67017.64C686.13973,644.13784,687.07967,646.46786,687.07967,649.98788Z" transform="translate(-156.19683 -20.62857)"/><path class="cls-24" d="M607.37883,640.04323l15.5-8.7236v25.11958l23.40039-12.9656V618.10722l15.59961-8.83626v65.40927l-15.59961,8.413v-24.28l-23.40039,12.81634v24.04373l-15.5,8.30644Z" transform="translate(-156.19683 -20.62857)"/><polygon class="cls-25" points="451.183 619.419 451.183 683.349 428.393 675.219 428.393 611.279 451.183 619.419"/><polygon class="cls-26" points="466.683 610.689 451.183 619.419 428.393 611.279 443.893 602.559 466.683 610.689"/><polygon class="cls-27" points="490.083 622.849 473.243 632.169 467.303 635.469 466.683 635.809 466.683 615.049 467.303 614.709 490.083 622.849"/><polygon class="cls-28" points="490.083 597.479 490.083 622.849 467.303 614.709 467.303 589.349 490.083 597.479"/><polygon class="cls-29" points="490.083 638.189 490.083 662.469 467.303 654.329 467.303 650.659 490.083 638.189"/><polygon class="cls-30" points="505.683 588.639 490.083 597.479 467.303 589.349 482.893 580.509 505.683 588.639"/><path class="cls-31" d="M551.37972,671.37783l-.80005,25.5q-.29992,7.71-.8999,12.61005a30.36342,30.36342,0,0,1-2.3501,8.81,11.829,11.829,0,0,1-5.25,5.76,21.9351,21.9351,0,0,1-2.2998,1l-7.48023-2.67005-15.3-5.46a22.929,22.929,0,0,0,2.3-1,11.80888,11.80888,0,0,0,5.25-5.77,30.52625,30.52625,0,0,0,2.3501-8.8q.59985-4.905.8999-12.61l.80005-25.51,16.3501,5.84Z" transform="translate(-156.19683 -20.62857)"/><path class="cls-32" d="M314.47929,810.73855q3.76389,1.90738,3.76388,8.21849a30.13988,30.13988,0,0,1-.69709,6.22819,105.931,105.931,0,0,1-3.06679,10.36246l-7.9471,25.01448-13.80226,6.82176,6.13426-26.068a6.21984,6.21984,0,0,1-5.50661-1.8913q-2.02285-2.21151-2.02183-6.53659a21.59983,21.59983,0,0,1,3.834-12.02628,25.9636,25.9636,0,0,1,9.68983-8.92862Q310.71473,808.84746,314.47929,810.73855Z" transform="translate(-156.19683 -20.62857)"/><path class="cls-33" d="M597.37981,645.659v63.66818l-15.59961,8.325V669.44986l-17,9.39382-.5,11.36227a154.193,154.193,0,0,1-2,21.615A50.78752,50.78752,0,0,1,557.08,727.416a24.077,24.077,0,0,1-10,9.95226,33.75375,33.75375,0,0,1-8.09961,2.89963l.79981-15.20576a23.14932,23.14932,0,0,0,2.2998-1.00076,11.79544,11.79544,0,0,0,5.25-5.76833,30.42273,30.42273,0,0,0,2.35059-8.80222q.59911-4.90506.89941-12.611l.79981-25.50558Z" transform="translate(-156.19683 -20.62857)"/><path class="cls-34" d="M298.86259,841.31827l-6.13426,26.06423-15.87991-5.66735,5.96016-25.33923L294.945,840.663a1.67705,1.67705,0,0,0,.19521.0976,5.64892,5.64892,0,0,0,1.34534.44615A8.03063,8.03063,0,0,0,298.86259,841.31827Z" transform="translate(-156.19683 -20.62857)"/><path class="cls-35" d="M313.6271,810.38138q-3.55532-1.192-8.76946,1.55454a23.71465,23.71465,0,0,0-2.49564,1.5057,25.89735,25.89735,0,0,0-6.30172,6.13439c-.30668.4113-.59941.84349-.89213,1.28266a21.61223,21.61223,0,0,0-3.834,12.03179,12.70075,12.70075,0,0,0,.52282,3.841,7.11025,7.11025,0,0,0,1.408,2.58618c.02791.03485.0628.06973.09071.10458a5.64195,5.64195,0,0,0,1.58938,1.2408l-12.13645-4.28708-2.87891-1.01777a5.72416,5.72416,0,0,1-2.45377-1.6033q-2.02847-2.20628-2.02166-6.53871a21.60893,21.60893,0,0,1,3.834-12.02482,25.97677,25.97677,0,0,1,9.68966-8.92973c3.63879-1.917,6.66422-2.3771,9.09009-1.40813l.26481.0976Z" transform="translate(-156.19683 -20.62857)"/><polygon class="cls-36" points="383.583 704.429 382.783 719.639 360.003 711.509 360.803 696.299 376.103 701.759 383.583 704.429"/><polygon class="cls-37" points="441.183 625.029 418.403 637.769 409.133 642.949 402.803 646.489 395.183 650.749 388.753 648.449 372.403 642.609 418.403 616.899 441.183 625.029"/><path class="cls-38" d="M581.77987,669.44784v48.2l-19.31006-6.89c.17993-1.08.33984-2.19995.5-3.36q1.00488-7.545,1.31006-17.19l.5-11.36,9.81982-5.43Z" transform="translate(-156.19683 -20.62857)"/><path class="cls-39" d="M274.68254,733.33667v143.9105l-32.39941,16.36514v-115.471l-28,15.54195v-26Z" transform="translate(-156.19683 -20.62857)"/><path class="cls-40" d="M420.68352,711.99609q10.998-.20353,17.40039,7.17756,6.39844,7.42551,6.40039,21.843a74.52965,74.52965,0,0,1-7,30.97844,99.51376,99.51376,0,0,1-19.10058,27.96893,102.8404,102.8404,0,0,1-26.89942,20.1393q-29.40087,15.12708-46,4.51494-16.604-10.3818-16.60058-45.52059a130.56241,130.56241,0,0,1,9-48.03576,142.79271,142.79271,0,0,1,25.10058-41.74811,145.90235,145.90235,0,0,1,37.29981-31.17421,108.33582,108.33582,0,0,1,21.5-9.86449q10.29784-3.28554,17.5-2.42316l-12,33.19173q-10.40186-1.7302-26.2002,7.34016a77.4575,77.4575,0,0,0-28.20019,27.28453q-10.40187,17.01327-11.2002,38.60147,12.39843-20.12037,34.60059-32.53264Q409.6801,712.24507,420.68352,711.99609ZM406.58391,779.824a35.19556,35.19556,0,0,0,6.5-20.07156q0-10.49493-6.5-13.17978-6.501-2.65692-17.2998,3.25637a49.28633,49.28633,0,0,0-17.40039,15.83289q-6.80127,10.01031-6.79981,19.848,0,9.8502,6.59961,12.57428,6.60059,2.757,18-3.2396A46.12771,46.12771,0,0,0,406.58391,779.824Z" transform="translate(-156.19683 -20.62857)"/><path class="cls-41" d="M521.78215,749.4735V712.57064l-16.09961,39.46974-6.60058,3.4892-15.7002-22.26471v36.411l-14.09961,7.38568V716.78262l16.29981-8.966,17.20019,25.86442L521.082,688.20451l14.60058-8.09993.19922,61.919Z" transform="translate(-156.19683 -20.62857)"/><path class="cls-42" d="M413.07967,759.74789a33.09469,33.09469,0,0,1-1.8999,11.08,38.72009,38.72009,0,0,1-4.6001,9,45.49775,45.49775,0,0,1-8.77,9.63,47.59045,47.59045,0,0,1-8.12988,5.39q-11.40015,6-18,3.24-5.87988-2.43-6.52-10.51.85511-.40494,1.74-.87a46.01919,46.01919,0,0,0,16.8999-15.02,35.17868,35.17868,0,0,0,6.5-20.07c0-.8-.03-1.56-.08984-2.29q10.155-5.295,16.36987-2.76Q413.0898,749.2529,413.07967,759.74789Z" transform="translate(-156.19683 -20.62857)"/><polygon class="cls-43" points="58.083 747.059 58.083 773.059 35.303 764.919 35.303 738.919 58.083 747.059"/><polygon class="cls-44" points="118.483 712.709 58.083 747.059 35.303 738.919 95.703 704.579 118.483 712.709"/><polygon class="cls-45" points="86.083 757.509 86.083 872.979 63.303 864.849 63.303 770.159 86.083 757.509"/><path class="cls-46" d="M439.27987,645.84787q-7.20008-.855-17.5,2.43a92.65789,92.65789,0,0,0-10.6001,4.16q-3.43506,1.575-6.97,3.49-1.95007,1.04993-3.92993,2.21a146.17629,146.17629,0,0,0-37.3,31.18c-.40015.46-.8.93-1.18018,1.4a143.86263,143.86263,0,0,0-23.91992,40.34,130.59576,130.59576,0,0,0-9,48.04,97.21133,97.21133,0,0,0,2.45,23.34q2.93994,11.805,9.39014,18.35a25.96272,25.96272,0,0,0,4.76,3.83,26.339,26.339,0,0,0,4.28979,2.21l-19.1499-6.93v-.01a26.95639,26.95639,0,0,1-7.91992-3.4q-16.6051-10.38006-16.6001-45.52a130.59583,130.59583,0,0,1,9-48.04,142.964,142.964,0,0,1,25.1001-41.75,145.96939,145.96939,0,0,1,37.2998-31.17,109.0287,109.0287,0,0,1,21.5-9.87q10.30518-3.285,17.5-2.42Z" transform="translate(-156.19683 -20.62857)"/><path class="cls-47" d="M428.6097,712.99789a26.00321,26.00321,0,0,0-7.92993-1,36.26023,36.26023,0,0,0-4.34009.36,52.93191,52.93191,0,0,0-14.55,4.56q-2.6997,1.245-5.50976,2.82a95.86379,95.86379,0,0,0-24.94019,19.66,87.21458,87.21458,0,0,0-9.65991,12.87q.15015-4.095.6499-8.02a76.26167,76.26167,0,0,1,10.55-30.58c.55-.9,1.11011-1.78,1.7-2.65q12.765-6.93,23.32007-7.15a24.55222,24.55222,0,0,1,9.21,1.45l.01-.01Z" transform="translate(-156.19683 -20.62857)"/><polygon class="cls-48" points="313.083 696.149 313.083 756.429 290.303 748.299 290.303 688.019 313.083 696.149"/><polygon class="cls-49" points="329.383 687.189 316.663 694.179 313.083 696.149 290.303 688.019 306.603 679.059 329.383 687.189"/><polygon class="cls-50" points="364.883 667.579 356.823 687.609 356.403 688.659 346.583 713.049 342.803 707.369 336.843 698.409 330.353 688.649 342.103 659.439 356.743 664.669 364.883 667.579"/><polygon class="cls-51" points="379.483 659.479 364.883 667.579 356.743 664.669 342.103 659.439 356.703 651.339 379.483 659.479"/><polygon class="cls-52" points="365.583 691.939 365.583 728.849 352.443 724.149 356.883 713.269 356.903 713.259 356.903 713.219 365.583 691.939"/><polygon class="cls-53" points="342.883 734.899 327.183 729.299 327.183 712.639 329.633 716.109 342.883 734.899"/></svg>