<svg id="Слой_1" data-name="Слой 1" xmlns="http://www.w3.org/2000/svg" xmlns:xlink="http://www.w3.org/1999/xlink" viewBox="0 0 934.49089 802.57161"><defs><style>.cls-1{fill:url(#Безымянный_градиент_73);}.cls-2{fill:url(#Безымянный_градиент_81);}.cls-3{fill:url(#Безымянный_градиент_33);}.cls-4{fill:url(#Безымянный_градиент_74);}.cls-5{fill:url(#Безымянный_градиент_22);}.cls-6{fill:url(#Безымянный_градиент_22-2);}.cls-7{fill:url(#Безымянный_градиент_81-2);}.cls-8{fill:url(#Безымянный_градиент_86);}.cls-9{fill:url(#Безымянный_градиент_74-2);}.cls-10{fill:url(#Безымянный_градиент_96);}.cls-11{fill:url(#Безымянный_градиент_74-3);}.cls-12{fill:url(#Безымянный_градиент_86-2);}.cls-13{fill:url(#Безымянный_градиент_86-3);}.cls-14{fill:url(#Безымянный_градиент_80);}.cls-15{fill:url(#Безымянный_градиент_96-2);}.cls-16{fill:url(#Безымянный_градиент_86-4);}.cls-17{fill:url(#Безымянный_градиент_74-4);}.cls-18{fill:url(#Безымянный_градиент_29);}.cls-19{fill:url(#Безымянный_градиент_96-3);}.cls-20{fill:url(#Безымянный_градиент_96-4);}.cls-21{fill:url(#Безымянный_градиент_103);}.cls-22{fill:url(#Безымянный_градиент_86-5);}.cls-23{fill:url(#Безымянный_градиент_74-5);}.cls-24{fill:url(#Безымянный_градиент_86-6);}.cls-25{fill:url(#Безымянный_градиент_38);}.cls-26{fill:url(#Безымянный_градиент_33-2);}.cls-27{fill:url(#Безымянный_градиент_38-2);}.cls-28{fill:url(#Безымянный_градиент_63);}.cls-29{fill:url(#Безымянный_градиент_33-3);}.cls-30{fill:url(#Безымянный_градиент_23);}.cls-31{fill:url(#Безымянный_градиент_23-2);}.cls-32{fill:url(#Безымянный_градиент_33-4);}.cls-33{fill:url(#Безымянный_градиент_38-3);}.cls-34{fill:url(#Безымянный_градиент_23-3);}.cls-35{fill:url(#Безымянный_градиент_23-4);}.cls-36{fill:url(#Безымянный_градиент_33-5);}.cls-37{fill:url(#Безымянный_градиент_33-6);}.cls-38{fill:url(#Безымянный_градиент_38-4);}.cls-39{fill:url(#Безымянный_градиент_23-5);}.cls-40{fill:url(#Безымянный_градиент_23-6);}.cls-41{fill:url(#Безымянный_градиент_38-5);}.cls-42{fill:url(#Безымянный_градиент_44);}.cls-43{fill:url(#Безымянный_градиент_54);}.cls-44{fill:url(#Безымянный_градиент_81-3);}.cls-45{fill:url(#Безымянный_градиент_81-4);}.cls-46{fill:#292941;}.cls-47{fill:#ffadae;}.cls-48{fill:#d7e3f4;}.cls-49{fill:#e64415;}.cls-50{fill:#fa99b0;}.cls-51{fill:#ffafb0;}.cls-52{fill:#ffe5d6;}.cls-53{fill:#111423;}.cls-54{fill:#3f4155;}.cls-55{fill:#cacad2;}.cls-56{fill:#d5f4ff;}.cls-57{fill:#564334;}.cls-58{fill:#b53010;}.cls-59{fill:#fcb2b2;}.cls-60{fill:#f3fdfc;}.cls-61{fill:#723c22;}.cls-62{fill:#4d4d4d;}.cls-63{fill:url(#Безымянный_градиент_9);}.cls-64{fill:url(#Безымянный_градиент_82);}.cls-65{fill:url(#Безымянный_градиент_86-7);}.cls-66{fill:url(#Безымянный_градиент_82-2);}.cls-67{fill:url(#Безымянный_градиент_82-3);}.cls-68{fill:url(#Безымянный_градиент_82-4);}.cls-69{fill:url(#Безымянный_градиент_82-5);}.cls-70{fill:url(#Безымянный_градиент_86-8);}.cls-71{fill:url(#Безымянный_градиент_86-9);}.cls-72{fill:url(#Безымянный_градиент_82-6);}.cls-73{fill:url(#Безымянный_градиент_86-10);}.cls-74{fill:url(#Безымянный_градиент_11);}.cls-75{fill:url(#Безымянный_градиент_82-7);}.cls-76{fill:url(#Безымянный_градиент_86-11);}.cls-77{fill:url(#Безымянный_градиент_86-12);}.cls-78{fill:url(#Безымянный_градиент_86-13);}.cls-79{fill:url(#Безымянный_градиент_82-8);}.cls-80{fill:url(#Безымянный_градиент_82-9);}.cls-81{fill:url(#Безымянный_градиент_96-5);}.cls-82{fill:url(#Безымянный_градиент_96-6);}.cls-83{fill:url(#Безымянный_градиент_96-7);}.cls-84{fill:url(#Безымянный_градиент_96-8);}.cls-85{fill:url(#Безымянный_градиент_96-9);}</style><linearGradient id="Безымянный_градиент_73" x1="-5039.71422" y1="1619.95214" x2="-4827.15161" y2="1780.37157" gradientTransform="translate(5764.97563 -147.92327) rotate(10.74042)" gradientUnits="userSpaceOnUse"><stop offset="0" stop-color="#b5b5c1" stop-opacity="0.2"/><stop offset="0.99512" stop-color="#fdfdfd" stop-opacity="0"/></linearGradient><linearGradient id="Безымянный_градиент_81" x1="-5118.59351" y1="1548.06872" x2="-4842.23636" y2="1548.06872" gradientTransform="translate(5764.97563 -147.92327) rotate(10.74042)" gradientUnits="userSpaceOnUse"><stop offset="0" stop-color="#b5b5c1" stop-opacity="0.3"/><stop offset="0.99512" stop-color="#fdfdfd" stop-opacity="0"/></linearGradient><linearGradient id="Безымянный_градиент_33" x1="-5283.45835" y1="243.97945" x2="-5117.48445" y2="243.97945" gradientTransform="translate(5684.50322)" gradientUnits="userSpaceOnUse"><stop offset="0.57561" stop-color="#fbfbfd"/><stop offset="1" stop-color="#f3f3f5"/></linearGradient><linearGradient id="Безымянный_градиент_74" x1="-5283.46555" y1="307.28568" x2="-5117.49179" y2="307.28568" gradientTransform="translate(5684.50322)" gradientUnits="userSpaceOnUse"><stop offset="0" stop-color="#f77f48"/><stop offset="0.45366" stop-color="#ff9c88"/><stop offset="1" stop-color="#f77f48"/></linearGradient><linearGradient id="Безымянный_градиент_22" x1="-5283.45835" y1="284.00867" x2="-5117.48445" y2="284.00867" gradientTransform="translate(5684.50322)" gradientUnits="userSpaceOnUse"><stop offset="0" stop-color="#fdfdfd"/><stop offset="0.43171" stop-color="#fbfafb"/><stop offset="0.56585" stop-color="#f0eff4"/></linearGradient><linearGradient id="Безымянный_градиент_22-2" x1="-5283.4655" y1="391.27803" x2="-5117.4916" y2="391.27803" xlink:href="#Безымянный_градиент_22"/><linearGradient id="Безымянный_градиент_81-2" x1="-5225.56709" y1="257.20091" x2="-5117.75811" y2="257.20091" gradientTransform="translate(5684.50322)" xlink:href="#Безымянный_градиент_81"/><linearGradient id="Безымянный_градиент_86" x1="464.81615" y1="188.62282" x2="494.38418" y2="188.62282" gradientUnits="userSpaceOnUse"><stop offset="0.57561" stop-color="#ff9c88"/><stop offset="1" stop-color="#f77f48"/></linearGradient><linearGradient id="Безымянный_градиент_74-2" x1="385.68105" y1="191.43763" x2="406.25594" y2="179.55871" gradientTransform="matrix(1, 0, 0, 1, 0, 0)" xlink:href="#Безымянный_градиент_74"/><linearGradient id="Безымянный_градиент_96" x1="446.01139" y1="205.71768" x2="485.28779" y2="205.71768" gradientUnits="userSpaceOnUse"><stop offset="0" stop-color="#ef6452"/><stop offset="0.3561" stop-color="#f77f48"/></linearGradient><linearGradient id="Безымянный_градиент_74-3" x1="435.47905" y1="228.3742" x2="452.13748" y2="228.3742" gradientTransform="matrix(1, 0, 0, 1, 0, 0)" xlink:href="#Безымянный_градиент_74"/><linearGradient id="Безымянный_градиент_86-2" x1="445.43132" y1="193.33394" x2="464.29936" y2="177.7343" xlink:href="#Безымянный_градиент_86"/><linearGradient id="Безымянный_градиент_86-3" x1="436.79571" y1="213.69645" x2="455.48408" y2="212.15899" xlink:href="#Безымянный_градиент_86"/><linearGradient id="Безымянный_градиент_80" x1="405.48184" y1="207.48069" x2="414.42012" y2="205.91598" gradientUnits="userSpaceOnUse"><stop offset="0" stop-color="#e64415"/><stop offset="0.3561" stop-color="#f77f48"/></linearGradient><linearGradient id="Безымянный_градиент_96-2" x1="440.77812" y1="183.65159" x2="449.87454" y2="183.65159" xlink:href="#Безымянный_градиент_96"/><linearGradient id="Безымянный_градиент_86-4" x1="409.54781" y1="203.41375" x2="462.62665" y2="172.81458" xlink:href="#Безымянный_градиент_86"/><linearGradient id="Безымянный_градиент_74-4" x1="402.98038" y1="221.09228" x2="418.42466" y2="212.18888" gradientTransform="matrix(1, 0, 0, 1, 0, 0)" xlink:href="#Безымянный_градиент_74"/><linearGradient id="Безымянный_градиент_29" x1="408.41581" y1="222.3045" x2="470.91067" y2="186.27714" gradientUnits="userSpaceOnUse"><stop offset="0" stop-color="#f77f48"/><stop offset="1" stop-color="#ef6452"/></linearGradient><linearGradient id="Безымянный_градиент_96-3" x1="517.55296" y1="245.66418" x2="538.36015" y2="233.66914" xlink:href="#Безымянный_градиент_96"/><linearGradient id="Безымянный_градиент_96-4" x1="501.93916" y1="232.12806" x2="520.57453" y2="221.38505" xlink:href="#Безымянный_градиент_96"/><linearGradient id="Безымянный_градиент_103" x1="467.85741" y1="223.67673" x2="483.86815" y2="214.44678" gradientUnits="userSpaceOnUse"><stop offset="0" stop-color="#f77f48"/><stop offset="0.3561" stop-color="#ff9c88"/></linearGradient><linearGradient id="Безымянный_градиент_86-5" x1="471.9609" y1="236.37433" x2="510.18539" y2="226.3231" xlink:href="#Безымянный_градиент_86"/><linearGradient id="Безымянный_градиент_74-5" x1="468.86175" y1="259.41752" x2="515.63406" y2="232.45397" gradientTransform="matrix(1, 0, 0, 1, 0, 0)" xlink:href="#Безымянный_градиент_74"/><linearGradient id="Безымянный_градиент_86-6" x1="505.14213" y1="217.64673" x2="532.56699" y2="215.95489" xlink:href="#Безымянный_градиент_86"/><linearGradient id="Безымянный_градиент_38" x1="435.47905" y1="213.03204" x2="452.13748" y2="213.03204" gradientUnits="userSpaceOnUse"><stop offset="0" stop-color="#fdfdfd"/><stop offset="1" stop-color="#f0eff4"/></linearGradient><linearGradient id="Безымянный_градиент_33-2" x1="436.79571" y1="210.76538" x2="455.48408" y2="209.22792" gradientTransform="matrix(1, 0, 0, 1, 0, 0)" xlink:href="#Безымянный_градиент_33"/><linearGradient id="Безымянный_градиент_38-2" x1="390.32714" y1="172.01456" x2="401.50215" y2="168.39612" xlink:href="#Безымянный_градиент_38"/><linearGradient id="Безымянный_градиент_63" x1="464.81615" y1="185.69175" x2="494.38418" y2="185.69175" gradientUnits="userSpaceOnUse"><stop offset="0.00732" stop-color="#d2cfda"/><stop offset="0.29756" stop-color="#fbfbfd"/><stop offset="0.57561" stop-color="#fbfbfd"/><stop offset="1" stop-color="#f3f3f5"/></linearGradient><linearGradient id="Безымянный_градиент_33-3" x1="445.43132" y1="190.40287" x2="464.29936" y2="174.80323" gradientTransform="matrix(1, 0, 0, 1, 0, 0)" xlink:href="#Безымянный_градиент_33"/><linearGradient id="Безымянный_градиент_23" x1="407.25091" y1="191.82806" x2="412.24926" y2="190.95306" gradientUnits="userSpaceOnUse"><stop offset="0" stop-color="#b5b5c1"/><stop offset="0.3561" stop-color="#d2cfda"/><stop offset="0.99268" stop-color="#f0eff4"/></linearGradient><linearGradient id="Безымянный_градиент_23-2" x1="446.01139" y1="190.37748" x2="485.28779" y2="190.37748" xlink:href="#Безымянный_градиент_23"/><linearGradient id="Безымянный_градиент_33-4" x1="409.54781" y1="200.48268" x2="462.62665" y2="169.88351" gradientTransform="matrix(1, 0, 0, 1, 0, 0)" xlink:href="#Безымянный_градиент_33"/><linearGradient id="Безымянный_градиент_38-3" x1="408.18915" y1="202.74935" x2="413.13303" y2="199.89927" xlink:href="#Безымянный_градиент_38"/><linearGradient id="Безымянный_градиент_23-3" x1="413.78507" y1="203.86905" x2="465.54141" y2="174.03228" xlink:href="#Безымянный_градиент_23"/><linearGradient id="Безымянный_градиент_23-4" x1="440.77812" y1="168.31143" x2="449.87454" y2="168.31143" xlink:href="#Безымянный_градиент_23"/><linearGradient id="Безымянный_градиент_33-5" x1="471.9609" y1="233.44326" x2="510.18539" y2="223.39203" gradientTransform="matrix(1, 0, 0, 1, 0, 0)" xlink:href="#Безымянный_градиент_33"/><linearGradient id="Безымянный_градиент_33-6" x1="505.14213" y1="214.71566" x2="532.56699" y2="213.02382" gradientTransform="matrix(1, 0, 0, 1, 0, 0)" xlink:href="#Безымянный_градиент_33"/><linearGradient id="Безымянный_градиент_38-4" x1="474.20835" y1="240.99514" x2="510.2648" y2="220.20912" xlink:href="#Безымянный_градиент_38"/><linearGradient id="Безымянный_градиент_23-5" x1="522.93286" y1="227.19799" x2="532.98025" y2="221.40582" xlink:href="#Безымянный_градиент_23"/><linearGradient id="Безымянный_градиент_23-6" x1="507.30769" y1="213.69135" x2="515.20455" y2="209.13893" xlink:href="#Безымянный_градиент_23"/><linearGradient id="Безымянный_градиент_38-5" x1="473.07651" y1="205.30324" x2="478.56602" y2="202.13862" xlink:href="#Безымянный_градиент_38"/><linearGradient id="Безымянный_градиент_44" x1="484.03309" y1="160.59277" x2="484.03309" y2="293.97043" gradientUnits="userSpaceOnUse"><stop offset="0" stop-color="#f0eff4" stop-opacity="0.2"/><stop offset="1" stop-color="#d2cfda" stop-opacity="0.5"/></linearGradient><linearGradient id="Безымянный_градиент_54" x1="444.43503" y1="192.76677" x2="520.82258" y2="130.36159" gradientUnits="userSpaceOnUse"><stop offset="0" stop-color="#f0eff4" stop-opacity="0.2"/><stop offset="1" stop-color="#d2cfda" stop-opacity="0.3"/></linearGradient><linearGradient id="Безымянный_градиент_81-3" x1="-5530.03408" y1="1745.93765" x2="-5200.20534" y2="1745.93765" xlink:href="#Безымянный_градиент_81"/><linearGradient id="Безымянный_градиент_81-4" x1="267.30555" y1="551.13299" x2="478.68154" y2="551.13299" gradientTransform="matrix(1, 0, 0, 1, 0, 0)" xlink:href="#Безымянный_градиент_81"/><linearGradient id="Безымянный_градиент_9" x1="690.90057" y1="509.70783" x2="712.91399" y2="471.57948" gradientUnits="userSpaceOnUse"><stop offset="0" stop-color="#f77f48"/><stop offset="1" stop-color="#ff9c88"/></linearGradient><linearGradient id="Безымянный_градиент_82" x1="657.74423" y1="524.89697" x2="675.42922" y2="494.26568" gradientUnits="userSpaceOnUse"><stop offset="0" stop-color="#f77f48"/><stop offset="0.42439" stop-color="#ff9c88"/></linearGradient><linearGradient id="Безымянный_градиент_86-7" x1="598.56101" y1="493.48411" x2="697.62822" y2="493.48411" xlink:href="#Безымянный_градиент_86"/><linearGradient id="Безымянный_градиент_82-2" x1="658.42338" y1="496.60835" x2="705.8189" y2="496.60835" xlink:href="#Безымянный_градиент_82"/><linearGradient id="Безымянный_градиент_82-3" x1="546.16642" y1="510.15468" x2="546.16642" y2="559.02194" xlink:href="#Безымянный_градиент_82"/><linearGradient id="Безымянный_градиент_82-4" x1="506.17704" y1="536.24653" x2="545.4114" y2="468.29063" xlink:href="#Безымянный_градиент_82"/><linearGradient id="Безымянный_градиент_82-5" x1="484.6104" y1="497.91009" x2="484.6104" y2="590.43859" xlink:href="#Безымянный_градиент_82"/><linearGradient id="Безымянный_градиент_86-8" x1="468.53425" y1="497.52832" x2="522.2048" y2="497.52832" xlink:href="#Безымянный_градиент_86"/><linearGradient id="Безымянный_градиент_86-9" x1="526.42521" y1="464.2028" x2="578.4299" y2="464.2028" xlink:href="#Безымянный_градиент_86"/><linearGradient id="Безымянный_градиент_82-6" x1="433.24426" y1="558.27222" x2="433.24426" y2="618.89821" xlink:href="#Безымянный_градиент_82"/><linearGradient id="Безымянный_градиент_86-10" x1="391.90142" y1="557.37684" x2="424.05389" y2="557.37684" xlink:href="#Безымянный_градиент_86"/><linearGradient id="Безымянный_градиент_11" x1="391.90142" y1="527.21653" x2="496.11908" y2="527.21653" xlink:href="#Безымянный_градиент_86"/><linearGradient id="Безымянный_градиент_82-7" x1="334.07391" y1="693.58263" x2="334.07391" y2="619.91978" xlink:href="#Безымянный_градиент_82"/><linearGradient id="Безымянный_градиент_86-11" x1="209.89872" y1="685.88934" x2="259.8349" y2="685.88934" xlink:href="#Безымянный_градиент_86"/><linearGradient id="Безымянный_градиент_86-12" x1="224.33988" y1="574.51424" x2="266.49741" y2="574.51424" xlink:href="#Безымянный_градиент_86"/><linearGradient id="Безымянный_градиент_86-13" x1="234.33231" y1="480.93148" x2="385.05724" y2="480.93148" xlink:href="#Безымянный_градиент_86"/><linearGradient id="Безымянный_градиент_82-8" x1="404.46641" y1="571.84587" x2="405.00778" y2="571.84587" xlink:href="#Безымянный_градиент_82"/><linearGradient id="Безымянный_градиент_82-9" x1="345.43697" y1="579.1878" x2="422.69437" y2="579.1878" xlink:href="#Безымянный_градиент_82"/><linearGradient id="Безымянный_градиент_96-5" x1="286.57276" y1="605.91444" x2="441.50496" y2="605.91444" xlink:href="#Безымянный_градиент_96"/><linearGradient id="Безымянный_градиент_96-6" x1="468.56952" y1="588.60498" x2="540.62149" y2="588.60498" xlink:href="#Безымянный_градиент_96"/><linearGradient id="Безымянный_градиент_96-7" x1="545.20116" y1="550.34543" x2="622.94451" y2="550.34543" xlink:href="#Безымянный_градиент_96"/><linearGradient id="Безымянный_градиент_96-8" x1="630.71695" y1="500.01933" x2="705.82339" y2="500.01933" xlink:href="#Безымянный_градиент_96"/><linearGradient id="Безымянный_градиент_96-9" x1="709.15308" y1="499.18452" x2="736.08478" y2="499.18452" xlink:href="#Безымянный_градиент_96"/></defs><title>5-5t_Employees</title><polygon class="cls-1" points="276.294 710.695 482.524 802.572 934.491 504.831 678.109 491.599 653.119 487.085 471.805 570.402 417.168 607.153 340.109 678.155 276.294 710.695"/><polygon class="cls-2" points="438.138 468.767 685.429 555.644 735.804 382.405 459.083 369.67 438.138 468.767"/><path class="cls-3" d="M567.01877,244.00936a4.85522,4.85522,0,0,1-2.3669,4.19059l-18.17373,10.92154-13.35338,8.03382L493.5637,290.95274a18.64727,18.64727,0,0,1-19.15083.02174l-39.14838-23.38489-13.46205-8.03382L403.41151,248.569a4.83315,4.83315,0,0,1-2.36664-3.86484v-.608a4.80681,4.80681,0,0,1,2.36664-3.88657l60.73118-36.52119,11.09528-6.66589a18.58951,18.58951,0,0,1,19.28111.04346l10.85647,6.62243,59.31978,36.152A4.82434,4.82434,0,0,1,567.01877,244.00936Z" transform="translate(-44.50911 -23)"/><path class="cls-4" d="M567.01143,274.415v16.13271a4.82947,4.82947,0,0,1-2.36676,4.19058l-71.08817,42.7528a18.59814,18.59814,0,0,1-19.15083.02173l-71.00136-42.38371a4.83809,4.83809,0,0,1-2.36664-3.88657V275.10968a4.83317,4.83317,0,0,0,2.36664,3.865l6.49215,3.86483L474.40567,321.38a18.647,18.647,0,0,0,19.15083-.0216l64.68282-38.888,6.40535-3.86483A4.85508,4.85508,0,0,0,567.01143,274.415Z" transform="translate(-44.50911 -23)"/><path class="cls-5" d="M564.65187,248.19993l-18.17372,10.92154-13.35325,8.03382-39.56119,23.79743a18.647,18.647,0,0,1-19.1507.02174L435.2645,267.58957l-13.46192-8.03381L403.41151,248.569a4.83313,4.83313,0,0,1-2.36663-3.86483V275.1023a4.83315,4.83315,0,0,0,2.36663,3.86484l6.49242,3.865L474.413,321.37258a18.647,18.647,0,0,0,19.1507-.02173l64.683-38.888,6.40521-3.86484a4.85519,4.85519,0,0,0,2.3669-4.19058V244.00935A4.85522,4.85522,0,0,1,564.65187,248.19993Z" transform="translate(-44.50911 -23)"/><path class="cls-6" d="M564.64472,294.73818,493.55655,337.491a18.59839,18.59839,0,0,1-19.151.02174L403.40436,295.129a4.83808,4.83808,0,0,1-2.36664-3.88657V443.10278a4.83314,4.83314,0,0,0,2.36664,3.86483l18.3908,10.98675,13.46192,8.03381,39.1485,23.38489a18.64748,18.64748,0,0,0,19.151-.02174l39.56093-23.79743,13.35351-8.03382,18.17373-10.92154a4.85522,4.85522,0,0,0,2.3669-4.19058V290.54759A4.82962,4.82962,0,0,1,564.64472,294.73818Z" transform="translate(-44.50911 -23)"/><path class="cls-7" d="M566.74511,244.42366a4.33859,4.33859,0,0,1-2.11494,3.7449l-16.24087,9.76011L536.456,265.10806l-35.35346,21.26636a16.1871,16.1871,0,0,1-4.3271,1.824l-37.83929-32.46653,49.85278-29.52838,57.39354,16.06642A4.20411,4.20411,0,0,1,566.74511,244.42366Z" transform="translate(-44.50911 -23)"/><path class="cls-8" d="M466.82119,181.94406q-1.01073,0-2.005.03406l.30789,3.04854.00126.01262.42271,4.17407.00631.024q.63975-.0246,1.29083-.024a36.64614,36.64614,0,0,1,3.74379.18927q.42209.04353.83786.0959c.18422.02271.36717.04669.54888.07319.07192.01009.14385.02018.2145.03154.09843.01388.19684.029.294.04416.11988.01893.241.03912.35963.0593l.2839.04922c.06436.01009.12871.02271.19307.03407.08453.0164.16907.03154.25362.048.12113.02271.241.04668.36086.07066.23976.04921.47823.09968.71421.15394.11734.0265.23468.05425.352.082.09337.02145.188.04416.28012.06813.03786.00884.07571.01893.1123.02777.101.02523.2019.05046.30158.07823.11483.029.22964.06056.34321.09211.11356.03028.22587.06309.33817.09463q.3388.09843.66876.2019c.10977.03406.21956.0694.32932.10472.10853.0366.217.07193.32556.10978.09716.03154.19306.06562.289.09969l.06309.02271c.07569.02649.14888.053.22334.07949.15394.05679.30535.11482.4555.17287.07824.03028.1552.06057.23344.09085.1022.04164.2044.082.30662.12492.10095.04164.2019.08454.30283.12744.09968.0429.19936.0858.29779.13.07823.03406.15394.06813.23092.10347.23973.10978.47444.22082.70409.33564.06812.03407.135.06813.20188.10094.09969.05174.19685.10221.294.154.14131.0757.28138.15141.42018.22965.053.029.106.058.15773.08832.09714.05426.19178.10978.28642.16656.01894.01136.03786.02271.05679.03281.06688.04037.13248.07949.19809.11987.05931.03659.11862.07319.17792.111q.68895.43153,1.306.9022c.06815.05173.13629.10472.20317.15646.0126.01135.02523.02019.03785.03028.07317.058.14511.11609.21578.1754.09337.0757.18548.15267.27506.2309.06941.05931.13755.11861.20441.17918q.229.2044.44543.41514l9.09639-5.25166C488.1912,185.1377,478.15224,181.94406,466.82119,181.94406Z" transform="translate(-44.50911 -23)"/><polygon class="cls-9" points="390.199 167.7 390.199 199.795 401.502 203.433 401.502 171.338 390.199 167.7"/><path class="cls-10" d="M484.84236,194.88645q.229.2044.44543.41514v27.95133c-3.10027-3.07629-8.42512-5.30465-14.69885-5.95827h0a36.98695,36.98695,0,0,0-8.61186.11608,27.96834,27.96834,0,0,0-10.61182,3.47251,12.81822,12.81822,0,0,0-5.35387,5.54944V194.33756a12.81816,12.81816,0,0,1,5.35387-5.54944,27.968,27.968,0,0,1,10.61182-3.47251q1.359-.18169,2.77851-.25867c.1224-.0063.24606-.01261.36971-.01766.54257-.02524,1.09274-.03659,1.64666-.03659a36.61893,36.61893,0,0,1,3.817.19684v4.20309q.42209.04353.83786.0959c.18422.02271.36717.04669.54888.07319.07192.01009.14385.02018.2145.03154.09843.01388.19684.029.294.04416.12114.01893.241.03912.35963.0593l.2839.04922c.06436.01009.12871.02271.19307.03407.08453.0164.16907.03154.25362.048.12113.02271.241.04668.36086.07066.23976.04921.47823.09968.71421.15394.11734.0265.23468.05425.352.082q.14006.03218.28012.06813c.03786.00884.07571.01893.1123.02777.101.02523.2019.05173.30158.07823.11483.029.22964.06056.34321.09211.11356.03028.22587.06309.33817.09463q.3388.09843.66876.2019c.10977.03406.21956.0694.32932.10472.10853.0366.217.07193.32556.10978.0959.03281.19306.06562.289.09969l.06309.02271.22334.07949c.15394.05679.30535.11482.4555.17287.07824.03028.1552.06057.23344.09085.1022.04164.2044.082.30662.12492.10095.04164.2019.08454.30283.12744.09968.0429.19936.0858.29779.13.07823.03406.15394.06813.23092.10347.23973.10978.47444.22082.70409.33564.06812.03407.135.06813.20188.10094.09969.05174.19685.10221.294.154.14131.0757.28138.15141.42018.22965.053.029.106.058.15773.08832.09714.05426.19178.10978.28642.16656.01894.01136.03786.02271.05679.03281.06688.04037.13248.07949.19809.11987.05931.03659.11862.07319.17792.111q.68895.43153,1.306.9022c.06815.05173.13629.10472.20317.15646.0126.01135.02523.02019.03785.03028.07317.058.14511.11609.21578.1754.09337.0757.18548.15267.27506.2309C484.70736,194.76658,484.7755,194.82588,484.84236,194.88645Z" transform="translate(-44.50911 -23)"/><path class="cls-11" d="M437.62413,211.825a19.27318,19.27318,0,0,1-2.11227-2.347l-.03281.0101v27.82908c3.282,4.36839,9.23016,7.91408,16.65843,9.95317V219.387C446.11738,217.73532,441.06888,215.09309,437.62413,211.825Z" transform="translate(-44.50911 -23)"/><path class="cls-12" d="M464.7455,177.76746q-1.40062.04542-2.76842.15646c-8.60555.69652-16.17894,3.24917-21.46971,6.93366a20.72925,20.72925,0,0,0-5.79928,5.84218l11.3033,3.6378a12.81816,12.81816,0,0,1,5.35387-5.54944,27.968,27.968,0,0,1,10.61182-3.47251,36.98695,36.98695,0,0,1,8.61186-.11608Z" transform="translate(-44.50911 -23)"/><path class="cls-13" d="M446.689,205.92982l-1.15456.36593L435.51186,209.478a19.27318,19.27318,0,0,0,2.11227,2.347c3.44475,3.26809,8.49325,5.91032,14.51335,7.562l2.38861-4.54379,1.3451-2.55894C451.67945,210.8471,448.40883,208.60739,446.689,205.92982Z" transform="translate(-44.50911 -23)"/><polygon class="cls-14" points="411.362 189.284 411.362 217.169 409.045 221.577 407.628 224.272 407.628 196.387 410.017 191.843 411.362 189.284"/><polygon class="cls-15" points="449.875 167.05 440.778 172.302 440.778 200.253 449.875 195.031 449.875 167.05"/><polygon class="cls-16" points="464.899 175.85 462.238 177.386 456.101 180.93 450.997 183.877 431.184 195.316 426.012 198.302 419.858 201.855 414.427 204.99 406.856 200.62 412.175 197.548 418.72 193.77 423.29 191.131 443.656 179.373 448.237 176.728 454.796 172.942 457.329 171.479 464.899 175.85"/><polygon class="cls-17" points="406.856 200.62 406.856 228.361 414.427 232.732 414.427 204.99 406.856 200.62"/><polygon class="cls-18" points="464.899 175.85 464.899 203.592 462.238 205.127 456.101 208.672 450.997 211.618 431.184 223.058 426.012 226.043 419.858 229.596 414.427 232.732 414.427 204.99 419.858 201.854 426.012 198.301 431.184 195.316 450.997 183.876 456.101 180.93 462.238 177.385 462.367 177.311 464.899 175.85"/><path class="cls-19" d="M531.09909,246.985c0,4.2195-2.3028,8.18032-6.222,11.38406V231.10169c3.54568-2.89964,5.76773-6.37593,6.15889-10.13739C531.07765,221.36177,531.09909,246.58119,531.09909,246.985Z" transform="translate(-44.50911 -23)"/><path class="cls-20" d="M518.47342,219.76432c0,.40378-.03281,25.6253-.09969,26.019-.82648-4.97153-6.72544-9.08714-14.666-10.58744V207.979q1.52552.28579,2.9438.699C513.66213,210.71587,518.47342,214.91518,518.47342,219.76432Z" transform="translate(-44.50911 -23)"/><polygon class="cls-21" points="480.368 208.102 480.368 235.369 478.555 234.164 471.231 230.095 471.231 202.827 480.368 208.102"/><path class="cls-22" d="M508.35437,230.27016l9.06106,5.23148q-1.19619.51671-2.47315.97285a53.64934,53.64934,0,0,1-17.9051,2.93244c-11.8585,0-22.30125-3.49773-28.40336-8.80491a21.55448,21.55448,0,0,1-1.56213-1.49777l8.81628-5.08888.79242-.458v.00126c2.78481,4.97532,10.85661,8.57275,20.38077,8.57275A33.64236,33.64236,0,0,0,508.35437,230.27016Z" transform="translate(-44.50911 -23)"/><path class="cls-23" d="M514.93529,236.50476q1.27569-.45613,2.47315-.97285V262.75h-.00126a52.04649,52.04649,0,0,1-20.377,3.8903c-12.94239,0-24.19775-4.20386-29.96548-10.34V229.13453a21.55225,21.55225,0,0,0,1.56212,1.49777c6.10212,5.30717,16.54487,8.80491,28.40336,8.80491A53.64933,53.64933,0,0,0,514.93529,236.50476Z" transform="translate(-44.50911 -23)"/><path class="cls-24" d="M531.09679,219.77021a11.44022,11.44022,0,0,1-.06309,1.19746c-.39116,3.76146-2.61321,7.23775-6.15889,10.13739l-9.13678-5.27437a9.20467,9.20467,0,0,0,2.6334-4.86555,7.14393,7.14393,0,0,0,.09969-1.19745c0-4.84914-4.81129-9.04845-11.82192-11.08627q-1.41574-.41071-2.9438-.699v-.00126l6.7469-3.89395,2.8-1.61638C523.8805,205.79944,531.09679,212.299,531.09679,219.77021Z" transform="translate(-44.50911 -23)"/><path class="cls-25" d="M437.62413,208.89393a19.27392,19.27392,0,0,1-2.11227-2.347l-.03281.0101V209.564c3.282,4.36839,9.23016,7.91408,16.65843,9.95317V216.456C446.11738,214.80425,441.06888,212.162,437.62413,208.89393Z" transform="translate(-44.50911 -23)"/><path class="cls-26" d="M446.689,202.99875l-1.15456.36593L435.51186,206.547a19.27392,19.27392,0,0,0,2.11227,2.347c3.44475,3.26809,8.49325,5.91032,14.51335,7.562l2.38861-4.54379,1.3451-2.559C451.67945,207.916,448.40883,205.67631,446.689,202.99875Z" transform="translate(-44.50911 -23)"/><polygon class="cls-27" points="390.199 164.769 390.199 172.046 401.502 175.683 401.502 168.406 390.199 164.769"/><path class="cls-28" d="M466.82119,179.013q-1.01073,0-2.005.03406l.30789,3.04854.00126.01261.42271,4.17408.00631.024q.63975-.0246,1.29083-.024a36.64614,36.64614,0,0,1,3.74379.18927q.42209.04353.83786.0959c.18422.02271.36717.04668.54888.07319.07192.01008.14385.02018.2145.03154.09843.01388.19684.029.294.04416.11988.01893.241.03912.35963.0593l.2839.04921c.06436.0101.12871.02272.19307.03408.08453.0164.16907.03154.25362.048.12113.02271.241.04668.36086.07066.23976.04921.47823.09968.71421.15393.11734.0265.23468.05426.352.082.09337.02145.188.04416.28012.06814.03786.00883.07571.01893.1123.02776.101.02524.2019.05047.30158.07824.11483.029.22964.06056.34321.0921.11356.03029.22587.0631.33817.09464q.3388.09843.66876.2019c.10977.03406.21956.06939.32932.10472.10853.0366.217.07192.32556.10978.09716.03154.19306.06561.289.09968l.06309.02272c.07569.02649.14888.053.22334.07949.15394.05678.30535.11482.4555.17287.07824.03028.1552.06056.23344.09085.1022.04164.2044.082.30662.12491.10095.04165.2019.08455.30283.12745.09968.0429.19936.0858.29779.13.07823.03406.15394.06813.23092.10347.23973.10977.47444.22081.70409.33564.06812.03407.135.06813.20188.10094.09969.05174.19685.10221.294.15394.14131.07571.28138.15142.42018.22965.053.029.106.058.15773.08833.09714.05426.19178.10978.28642.16656.01894.01135.03786.02271.05679.0328.06688.04038.13248.0795.19809.11988.05931.03659.11862.07318.17792.111q.68895.43153,1.306.90219c.06815.05174.13629.10473.20317.15647.0126.01135.02523.02018.03785.03028.07317.058.14511.11608.21578.17539.09337.07571.18548.15268.27506.23091.06941.05931.13755.11861.20441.17918q.229.20441.44543.41514l9.09639-5.25166C488.1912,182.20663,478.15224,179.013,466.82119,179.013Z" transform="translate(-44.50911 -23)"/><path class="cls-29" d="M464.7455,174.83639q-1.40062.04542-2.76842.15646c-8.60555.69652-16.17894,3.24916-21.46971,6.93365a20.7294,20.7294,0,0,0-5.79928,5.84219l11.3033,3.6378a12.81816,12.81816,0,0,1,5.35387-5.54944,27.968,27.968,0,0,1,10.61182-3.47251,36.98547,36.98547,0,0,1,8.61186-.11608Z" transform="translate(-44.50911 -23)"/><polygon class="cls-30" points="411.362 186.353 411.362 189.414 409.045 193.822 407.628 196.517 407.628 193.456 410.017 188.912 411.362 186.353"/><path class="cls-31" d="M484.84236,191.95538q.229.20441.44543.41514v3.13307c-3.10027-3.07629-8.42512-5.3097-14.69885-5.96332v.00505a36.98695,36.98695,0,0,0-8.61186.11608,27.96834,27.96834,0,0,0-10.61182,3.47251,12.81822,12.81822,0,0,0-5.35387,5.54944v-7.27686a12.81816,12.81816,0,0,1,5.35387-5.54944,27.968,27.968,0,0,1,10.61182-3.47251q1.359-.18169,2.77851-.25867c.1224-.00631.24606-.01261.36971-.01767.54257-.02523,1.09274-.03659,1.64666-.03659a36.6189,36.6189,0,0,1,3.817.19685v4.20309q.42209.04353.83786.0959c.18422.02271.36717.04668.54888.07319.07192.01008.14385.02018.2145.03154.09843.01388.19684.029.294.04416.12114.01893.241.03912.35963.0593l.2839.04921c.06436.0101.12871.02272.19307.03408.08453.0164.16907.03154.25362.048.12113.02271.241.04668.36086.07066.23976.04921.47823.09968.71421.15393.11734.0265.23468.05426.352.082q.14006.03217.28012.06814c.03786.00883.07571.01893.1123.02776.101.02524.2019.05173.30158.07824.11483.029.22964.06056.34321.0921.11356.03029.22587.0631.33817.09464q.3388.09843.66876.2019c.10977.03406.21956.06939.32932.10472.10853.0366.217.07192.32556.10978.0959.03281.19306.06561.289.09968l.06309.02272.22334.07949c.15394.05678.30535.11482.4555.17287.07824.03028.1552.06056.23344.09085.1022.04164.2044.082.30662.12491.10095.04165.2019.08455.30283.12745.09968.0429.19936.0858.29779.13.07823.03406.15394.06813.23092.10347.23973.10977.47444.22081.70409.33564.06812.03407.135.06813.20188.10094.09969.05174.19685.10221.294.15394.14131.07571.28138.15142.42018.22965.053.029.106.058.15773.08833.09714.05426.19178.10978.28642.16656.01894.01135.03786.02271.05679.0328.06688.04038.13248.0795.19809.11988.05931.03659.11862.07318.17792.111q.68895.43153,1.306.90219c.06815.05174.13629.10473.20317.15647.0126.01135.02523.02018.03785.03028.07317.058.14511.11608.21578.17539.09337.07571.18548.15268.27506.23091C484.70736,191.83551,484.7755,191.89481,484.84236,191.95538Z" transform="translate(-44.50911 -23)"/><polygon class="cls-32" points="464.899 172.919 462.238 174.455 456.101 177.999 450.997 180.946 431.184 192.385 426.012 195.371 419.858 198.924 414.427 202.059 406.856 197.689 412.175 194.617 418.72 190.839 423.29 188.2 443.656 176.442 448.237 173.797 454.796 170.011 457.329 168.548 464.899 172.919"/><polygon class="cls-33" points="406.856 197.689 406.856 200.612 414.427 204.983 414.427 202.059 406.856 197.689"/><polygon class="cls-34" points="464.899 172.919 464.899 175.842 462.238 177.378 456.101 180.922 450.997 183.869 431.184 195.308 426.012 198.294 419.858 201.847 414.427 204.983 414.427 202.059 419.858 198.923 426.012 195.37 431.184 192.385 450.997 180.945 456.101 177.999 462.238 174.454 462.367 174.38 464.899 172.919"/><polygon class="cls-35" points="449.875 164.119 440.778 169.371 440.778 172.504 449.875 167.282 449.875 164.119"/><path class="cls-36" d="M508.35437,227.33909l9.06106,5.23147q-1.19619.51672-2.47315.97286a53.64959,53.64959,0,0,1-17.9051,2.93244c-11.8585,0-22.30125-3.49773-28.40336-8.80491a21.55448,21.55448,0,0,1-1.56213-1.49777l8.81628-5.08889.79242-.458v.00126c2.78481,4.97532,10.85661,8.57274,20.38077,8.57274A33.64237,33.64237,0,0,0,508.35437,227.33909Z" transform="translate(-44.50911 -23)"/><path class="cls-37" d="M531.09679,216.83914a11.44022,11.44022,0,0,1-.06309,1.19746c-.39116,3.76146-2.61321,7.23774-6.15889,10.13738l-9.13678-5.27436a9.20467,9.20467,0,0,0,2.6334-4.86555,7.144,7.144,0,0,0,.09969-1.19746c0-4.84913-4.81129-9.04845-11.82192-11.08627q-1.41574-.41071-2.9438-.699V205.05l6.7469-3.89395,2.8-1.61638C523.8805,202.86836,531.09679,209.368,531.09679,216.83914Z" transform="translate(-44.50911 -23)"/><path class="cls-38" d="M514.93529,233.57369q1.27569-.45614,2.47315-.97285v2.4h-.00126a52.04185,52.04185,0,0,1-20.377,3.90531c-12.94239,0-24.19775-4.16651-29.96548-10.30269v-2.4a21.55214,21.55214,0,0,0,1.56212,1.49776c6.10212,5.30718,16.54487,8.80492,28.40336,8.80492A53.64933,53.64933,0,0,0,514.93529,233.57369Z" transform="translate(-44.50911 -23)"/><path class="cls-39" d="M531.09909,219.23573c0,4.2195-2.3028,8.13111-6.222,11.33485v-2.4c3.54568-2.89963,5.76773-6.37592,6.15889-10.13738A11.53679,11.53679,0,0,1,531.09909,219.23573Z" transform="translate(-44.50911 -23)"/><path class="cls-40" d="M518.47342,216.83325a7.14393,7.14393,0,0,1-.09969,1.19745c-.82648-4.97153-6.72544-9.08377-14.666-10.58407v-2.3987q1.52552.2858,2.9438.699C513.66213,207.7848,518.47342,211.98411,518.47342,216.83325Z" transform="translate(-44.50911 -23)"/><polygon class="cls-41" points="480.368 205.171 480.368 207.571 478.555 206.523 471.231 202.296 471.231 199.896 480.368 205.171"/><path class="cls-42" d="M566.83665,160.23275v83.88234a4.8382,4.8382,0,0,1-2.3754,4.18434L546.32935,259.207l-13.3158,8.009-39.46761,23.74376a18.61782,18.61782,0,0,1-19.11275.02182L435.35784,267.641l-13.42467-8.01992-18.34992-10.962a4.77261,4.77261,0,0,1-2.35371-3.84655V160.93015a4.77239,4.77239,0,0,0,2.35371,3.84648l18.34992,10.97293,13.42467,8.009,39.07535,23.34066a18.59344,18.59344,0,0,0,19.11275-.03273l39.46761-23.73285,13.3158-8.03082,18.1319-10.89665A4.83377,4.83377,0,0,0,566.83665,160.23275Z" transform="translate(-44.50911 -23)"/><path class="cls-43" d="M566.8383,160.23184a4.82534,4.82534,0,0,1-2.37657,4.17568l-18.12785,10.897-13.32455,8.02854-39.464,23.72927a18.56673,18.56673,0,0,1-19.112.034l-39.0736-23.3389-13.42649-8.01156-18.34872-10.965a4.79642,4.79642,0,0,1-2.35917-3.85308v-.61123a4.7759,4.7759,0,0,1,2.35917-3.86986l6.94241-4.17568,53.65419-32.26711,11.06692-6.65357a18.5462,18.5462,0,0,1,19.248.034l10.82946,6.61959,52.941,32.26711,6.24622,3.8021A4.80155,4.80155,0,0,1,566.8383,160.23184Z" transform="translate(-44.50911 -23)"/><polygon class="cls-44" points="8.796 524.467 116.043 611.984 315.163 679.16 344.449 517.217 99.802 494.686 8.796 524.467"/><polygon class="cls-45" points="309.237 604.24 478.682 634.248 470.474 468.018 285.011 556.967 267.306 582.688 309.237 604.24"/><path class="cls-46" d="M375.8087,587.5244s1.21305,13.34355-1.21305,17.34661-9.88636,19.95468-16.49748,20.19729-10.65443-4.619-7.32875-20.35363S375.8087,587.5244,375.8087,587.5244Z" transform="translate(-44.50911 -23)"/><path class="cls-46" d="M351.415,570.36206a32.08,32.08,0,0,1,0,4.122c-.17052,1.03109-1.34543,4.185-1.27352,6.18656s-.4893,11.31816-.4893,11.31816h-2.83533s.72783-9.61989-1.51632-11.31816-5.64068,3.51784-5.94394,4.60959-1.63762,11.0994-1.2737,12.67637-7.39961,10.43223-15.04182,9.8257-12.73484-1.63752-13.0392-4.03334a13.13941,13.13941,0,0,1,.008-3.9159Z" transform="translate(-44.50911 -23)"/><path class="cls-47" d="M310.51773,141.69655s-12.43376-3.27523-16.86139.60653-19.894,31.84256-34.69324,47.3696-23.77578,24.98883-26.6871,25.23144-33.72279-29.59842-34.208-31.29669,6.24721-10.9781,3.82111-13.82877-6.61112,4.8522-8.00613,4.79155-1.69827-13.16159-1.69827-13.16159-.66718-13.2829-9.76505-12.79768-10.43223,13.04029-10.00766,20.19728,3.8211,23.16926,12.61572,30.75082,40.2126,38.75695,47.00568,38.393,26.80841-18.681,36.3915-29.71972,28.74929-38.8176,29.96234-36.998,5.09481,3.88176,5.09481,3.88176l20.33881-16.49748Z" transform="translate(-44.50911 -23)"/><path class="cls-48" d="M349.38868,558.88671c1.63337-.01051,3.25077,10.58346,1.79511,11.79651s-14.47573,8.24874-13.99051,24.50361c.15925,5.33505-17.46792,9.62353-21.0262,8.32961s-8.734-.40435-4.69046-7.68265a44.58146,44.58146,0,0,1,9.78527-11.88789Z" transform="translate(-44.50911 -23)"/><path class="cls-47" d="M414.02338,287.47568c-.97524,22.324-10.43264,75.69172-9.94909,82.97729.48354,7.27742,4.3681,18.92294,3.87635,21.58641-.48349,2.67167-2.90931,8.98205-8.9738,9.46555S388.79006,391.31,387.33132,391.07234c-1.45058-.24585-4.3681,3.15517-5.33514.72939-.97524-2.42582,4.60575-7.76916,4.3681-11.89137-.24584-4.12225-2.67167-15.28423-.48354-20.13582.81133-1.81118,2.1226-10.25232,3.45844-20.71772.0082-.03276.0082-.06552.01635-.09834,0-.03276.00821-.06552.00821-.09833.03281-.22124.06557-.44253.09013-.66382.10655-.672.18853-1.33584.25406-2.00786.02461-.15571.041-.31957.05737-.47529v-.02461c2.1144-17.09535,4.17963-38.00974,4.33534-44.57418.27041-11.162-6.44154-73.59367-7.9822-73.99523-.26226-.06558-.53272.08193-.80318.3688-1.31122,1.40956-2.58969,6.17922-2.58969,6.17922s-24.50393-12.129-24.98742-15.28418c-.49175-3.15521.72119-33.33027.72119-33.33027l8.36736-1.22109,7.99861-1.16371,2.96669-.43438s19.73426,10.92433,21.43069,15.77593S414.99042,265.15993,414.02338,287.47568Z" transform="translate(-44.50911 -23)"/><path class="cls-48" d="M373.83,562.89948s3.0705,20.5612,1.97875,24.62492-6.67177,34.26866-18.2564,33.54083-6.1259-19.16619-6.1259-19.16619Z" transform="translate(-44.50911 -23)"/><path class="cls-47" d="M304.11745,424.30852c-1.1593,1.75583,5.33742,47.79417,8.734,62.836s15.527,65.98992,15.04182,73.75344-2.34523,17.95314-4.60959,21.0262-5.17568,7.11656-3.39654,8.41048,9.54266,5.01394,11.64528,1.77914,4.69046-11.64528,6.30786-14.07138,11.48354-14.39486,11.807-16.174-15.527-122.76066-15.527-122.76066Z" transform="translate(-44.50911 -23)"/><path class="cls-47" d="M343.50114,443.47471s10.18962,118.0702,9.86614,128.09808S351.4264,601.899,351.4264,601.899s4.77133-3.55828,8.16787-2.18349,8.734,6.227,8.734,6.227,5.41829-14.961,5.49916-39.30282-1.77914-131.899-1.77914-131.899Z" transform="translate(-44.50911 -23)"/><path class="cls-49" d="M389.75715,327.50969c-1.22114-10.36706-12.45685-34.06781-15.66124-44.25455a12.82184,12.82184,0,0,1-.83588-4.10585,8.43843,8.43843,0,0,1,.1229-.85229c1.3686-8.16252,12.65352-53.00711,12.65352-53.00711s.10655-5.69574-.72119-7.80193c-.18847-.47535-.43432-.77036-.72939-.77036-1.62265,0-3.07323,4.04027-6.63816,3.72064-3.55673-.32778-8.728-20.54559-7.76092-28.63434.97525-8.08054,7.60521-19.57035,7.60521-19.57035l-1.16372-4.909a42.62431,42.62431,0,0,1-1.803,5.34335l-7.99861,1.16371c-6.41693-2.40941-14.87442-7.71995-16.04639-9.84255-.336-.61464-.27861-2.40121.041-4.94993a6.751,6.751,0,0,0,1.27026-2.34384,30.86556,30.86556,0,0,0,.1393-6.05633c-.05737-1.88491-.16391-3.87636-.26225-5.51541.54912-.29507,1.06537-.58189,1.55712-.87691a30.05512,30.05512,0,0,0,6.95779-5.32693l4.64672-19.90639v-.00815l-6.90863,3.78622-39.81272,21.84041-2.77,1.52431s-.57368.62285-1.50795,1.66367c-3.43383,3.819-11.75207,13.18624-14.38272,17.25927-.06558.09834-.13931.22949-.22129.377-2.28647,4.12221-11.17839,26.25769-11.17839,33.30561,0,11.3259,10.67028,11.64552,10.67028,18.759,0,5.80228,2.475,28.80645,1.81118,39.91106v.01641a14.28192,14.28192,0,0,1-.99985,5.3597,24.09322,24.09322,0,0,0-1.27846,2.86014v.00821c-3.27812,8.46574-8.56409,28.62613-8.42473,34.98568.16386,7.27742,9.38356,120.651,11.162,123.72424a14.4078,14.4078,0,0,0,2.73719,2.557A149.17724,149.17724,0,0,0,334.92245,445.276a72.44977,72.44977,0,0,0,9.00661,3.17977c5.41707,1.48335,10.408,1.93408,14.29258.68017,8.14612-2.63885,12.08805-4.38445,13.96481-5.90877,2.03241-1.66366,1.639-3.06508,1.55707-5.08929-.15571-3.88456,4.20419-70.03694,7.76912-75.85558,2.516-4.12225,6.32679-13.65333,7.82654-23.22547.0082-.03276.0082-.06552.01635-.09834,0-.03276.00821-.06552.00821-.09833.03281-.22124.06557-.44253.09013-.66382.10655-.672.18853-1.33584.25406-2.00786.02461-.15571.041-.31957.05737-.47529v-.02461A38.94176,38.94176,0,0,0,389.75715,327.50969Z" transform="translate(-44.50911 -23)"/><path class="cls-50" d="M352.09159,156.69532a6.751,6.751,0,0,1-1.27026,2.34384,11.85152,11.85152,0,0,1-8.55589,4.40086c-5.81868.42617-7.51511-3.76166-8.18708-5.33514-.49995-1.19648.03276-5.286.32778-7.19543.09014-.60645.15571-.99165.15571-.99165l17.16914-8.36741s.11475,1.49975.23765,3.57319c.09834,1.639.20488,3.6305.26225,5.51541A30.86556,30.86556,0,0,1,352.09159,156.69532Z" transform="translate(-44.50911 -23)"/><path class="cls-51" d="M370.18679,97.35321l-5.05652,21.652v.00815l-4.64672,19.90639a30.05512,30.05512,0,0,1-6.95779,5.32693c-.49175.295-1.008.58184-1.55712.87691a56.4582,56.4582,0,0,1-17.5625,5.78587,74.1637,74.1637,0,0,1-10.31784.95063,12.35686,12.35686,0,0,1-9.95729-4.04027c-2.88476-3.17158-4.50741-7.933-5.31874-13.32555-1.99145-13.23536.93428-30.22422,2.16357-36.387.30322-1.51615.4999-2.37665.4999-2.37665Z" transform="translate(-44.50911 -23)"/><path d="M375.20192,280.75989c-.07771.25232-1.86317,6.36614-9.23861,10.26733a30.05686,30.05686,0,0,1-14.26518,3.183c-6.25,0-13.47007-1.35852-21.58282-4.0758-16.3032-5.43444-26.51272-12.42168-30.33572-20.76744-2.7758-6.03611-.99034-10.539-.91263-10.733a1.93827,1.93827,0,0,1,1.9603-1.184c.05829.40762,1.02873,6.81251,2.21287,9.68509.1161.2522.21323.50453.34923.77628,2.34839,5.0075,9.122,12.26638,27.94848,18.55481,14.05243,4.67758,25.38686,5.06567,32.82059,1.12574a18.92926,18.92926,0,0,0,3.08569-2.05733l.21371-.21347a12.41406,12.41406,0,0,0,1.7466-1.76626,26.5373,26.5373,0,0,0,4.17318-5.25971,1.91234,1.91234,0,0,1,.46579.05816A1.94354,1.94354,0,0,1,375.20192,280.75989Z" transform="translate(-44.50911 -23)"/><path d="M300.82726,257.43059a.15107.15107,0,0,1,.05829.01931c-.01943,0-.03886-.01931-.05829,0Z" transform="translate(-44.50911 -23)"/><path class="cls-52" d="M373.42389,74.86534c-34.61688-19.40644-57.58-7.597-65.02138,2.10619S302.256,88.93668,302.256,88.93668c.3688,1.88491,3.95014,5.37611,8.7198,9.17053,9.95725,7.94124,25.06115,17.21826,26.70021,16.03814,2.42583-1.75376,5.82689-2.29467,5.82689,0s16.3332-1.75376,15.52188,4.39271c-.11475.8769-.40161,2.352-.80318,4.25336-1.08178,5.204-3.03226,13.58775-4.69588,21.45525-.49175.295-1.008.58184-1.55712.87691.09834,1.639.20488,3.6305.26225,5.51541-.61465,3.20433-1.12275,6.1055-1.40956,8.40017-.31963,2.54872-.377,4.33529-.041,4.94993,1.172,2.1226,9.62946,7.43314,16.04639,9.84255,3.37645,1.27026,6.18743,1.7374,7.08074.50811a9.61733,9.61733,0,0,0,.91787-1.67182,42.62431,42.62431,0,0,0,1.803-5.34335c1.32763-4.72049,2.40121-9.80973,3.106-9.80973,1.131,0,3.55678,5.66292,6.63,3.07323C389.43752,158.00654,408.03263,94.28,373.42389,74.86534Z" transform="translate(-44.50911 -23)"/><polygon class="cls-53" points="295.702 182.215 317.722 189.832 315.425 196.219 294.653 189.571 295.702 182.215"/><path class="cls-54" d="M99.26848,511.0257s-46.35,11.90022-48.16,29.74206,30.4475,7.75733,31.54645,6.85231,22.94875-9.37344,26.31026-8.33913,10.14917,3.36151,23.078,1.61611,13.27365-4.33117,13.42448-21.59122S99.26848,511.0257,99.26848,511.0257Z" transform="translate(-44.50911 -23)"/><path class="cls-54" d="M174.22223,577.11089s-28.065,47.005-18.49766,56.22762,30.94311.17238,34.13223-7.84352,13.18745-48.3841,13.18745-48.3841Z" transform="translate(-44.50911 -23)"/><path class="cls-55" d="M197.229,324.32386s.64375,100.515,6.50484,112.92671,5.17155,44.13056,3.79247,69.98831,1.90371,43.46905.95186,54.14291-4.74433,25.15419-19.22467,22.7408-21.031-8.27448-20.6862-33.09792-1.72385-89.04961-11.37741-106.06625-17.58327-43.9087-17.58327-43.9087,11.03264,112.395,5.86109,118.25611-44.46135,13.10126-46.36457-9.65356-1.64465-88.95066-4.87687-107.913-13.60244-75.44491-12.03741-95.98858,39.31734-38.81649,39.31734-38.81649Z" transform="translate(-44.50911 -23)"/><path class="cls-56" d="M191.32207,113.77349l-40.32779,42.10167s-27.41951,86.882-27.29022,87.52848,4.913,48.87115,4.913,48.87115l-13.446,5.94761-20.94478-8.92125V210.435l24.55545-101.37768,31.168-3.99265,14.69914-1.57914s-3.21681-2.77634,6.03377-.87253S191.32207,113.77349,191.32207,113.77349Z" transform="translate(-44.50911 -23)"/><polygon class="cls-57" points="61.33 264.104 76.653 270.662 76.997 286.341 57.992 279.941 61.33 264.104"/><path class="cls-49" d="M143.24728,161.7766l1.55556-9.87649-22.09716-1.58382-2.1209,9.13635c.914-4.01828,2.1209-9.13635,2.1209-9.13635l-7.02112-.26986S105.12335,200.328,106.393,210.28089l5.68311.21839c-.077-7.9041,2.10889-20.2052,4.88-33.66631l13.54895,1.42517,1.94508-9.7597L118.899,167.21435c.851-3.9695,1.00147-4.69954,1.64233-7.5171ZM117.657,173.123c.41475-2.01245.82671-3.971,1.227-5.83885Z" transform="translate(-44.50911 -23)"/><path class="cls-49" d="M129.59452,104.38187s-6.53691,22.75482-12.12208,39.30378c-5.58542,16.549-10.96379,72.0709-11.50165,79.5593-.28963,4.13724-.24822,31.774-.1654,56.05955v.04141c.08258,19.44508.1654,36.78013.1654,38.26947,0,3.35116-28.671-8.27448-28.671-21.96873s4.7293-47.28818,4.7293-47.28818V201.64354c0-21.58705,9.63823-72.72117,17.074-97.45678,3.03543-10.09754,17.64187-9.06844,17.9315-9.06844l7.4298,3.67838Z" transform="translate(-44.50911 -23)"/><path class="cls-49" d="M194.87963,218.47813s-6.31572,17.082-5.62618,30.528,25.513,67.23015,19.30712,71.36739-78.95233,21.72051-87.57158,11.03264,2.93754-48.25408,2.93754-48.25408l1.88924-40.35181Z" transform="translate(-44.50911 -23)"/><path class="cls-58" d="M129.59452,104.38187s-6.53691,22.75482-12.12208,39.30378c-5.58542,16.549-10.96379,72.0709-11.50165,79.5593-.28963,4.13724-.24822,31.774-.1654,56.05955-.16565-2.77188-6.7023-128.99911-6.7023-136.15671,0-7.24017,11.00494-9.80524,13.28037-12.20465,2.23428-2.44109-7.40556-2.77214-8.27448-5.544-.86865-2.77188,15.14244-25.69235,16.17675-27.14028l4.17866.53786Z" transform="translate(-44.50911 -23)"/><path class="cls-59" d="M130.94413,111.0027s-.22117,14.9586,10.49436,14.01024,27.51663-12.83738,28.93881-20.20684a183.009,183.009,0,0,0-.77574-21.45847l-32.32218,17.06265Z" transform="translate(-44.50911 -23)"/><path class="cls-59" d="M93.50625,216.47073s14.11326-5.67255,19.3447-8.78157c3.40115-2.02129,4.5902-13.40271,1.17412-18.33581-7.06606-10.20394-9.04134-12.74134-15.559-8.95289s-19.28284,13.91921-19.28284,13.91921l1.866,18.8238Z" transform="translate(-44.50911 -23)"/><path class="cls-60" d="M93.57687,218.15272l.59611-1.33945s-7.30321-4.698-10.163-10.58207-3.38822-13.449-3.38822-13.449l-1.33395.68784-6.90509,21.4089Z" transform="translate(-44.50911 -23)"/><path class="cls-59" d="M112.42424,55.38986s-2.03692,56.26855,20.7179,55.75139S176.461,77.7427,176.461,77.7427l-.78281-28.66s-52.62053-.905-53.52555-.905S112.42424,55.38986,112.42424,55.38986Z" transform="translate(-44.50911 -23)"/><path class="cls-61" d="M145.46766,23.00942c19.12775-.517,33.27031,20.34143,33.27031,38.78662s-4.482,17.928-4.482,17.928l-.51716-3.4477s2.75979-21.72213-6.37824-12.5841c-2.93055,2.93054.68954,19.30712-2.41339,19.65189S162.53378,58.176,145.46766,57.314s-14.13557,3.27532-21.72051,2.58578-16.89373-6.37825-16.0318-13.96319S119.95468,23.699,145.46766,23.00942Z" transform="translate(-44.50911 -23)"/><path class="cls-49" d="M228.55725,157.66951c-1.03431,17.08685-.72181,35.26464-1.28965,52.3a63.55924,63.55924,0,0,1-9.62243,32.57457c-10.64891,17.40261-73.72691-21.93577-76.99523-22.59758,0,0,7.23976.99311,13.92785-10.36662,2.9963-5.08923,1.79-12.61476,1.79-12.61476s30.28457,16.97984,31.07067,13.87695c.00641-.02566,3.88366-12.39908,7.78352-24.40239.25021-.77014,1.974,15.92962-.3423,32.03847-1.832,12.74038-5.51347,27.823-6.31051,27.7842-12.28427-.5981-33.87912-3.79566-45.795-7.50355-2.72794-.84886-9.61639,6.22459-12.0643,5.46126-8.77831-2.73736-10.93365-13.10356-10.92058-13.15589,1.24114-6.20589,10.59136-60.85869,23.41667-75.50466,11.54282-13.19756,39.71741-35.29055,46.58536-40.62745l1.53075-1.15855S229.59156,140.62416,228.55725,157.66951Z" transform="translate(-44.50911 -23)"/><path class="cls-59" d="M154.8665,197.7269s-11.01465-10.49-16.01324-13.961c-3.24977-2.25665-14.09945,1.38135-17.17166,6.53562-6.35478,10.66145-7.84452,13.51114-1.69426,17.87086s20.6626,11.7741,20.6626,11.7741l16.355-9.50437Z" transform="translate(-44.50911 -23)"/><path class="cls-60" d="M156.36774,196.9651l-1.466.013s-1.24623,8.59387-5.41449,13.63638-10.83285,8.66055-10.83285,8.66055l1.1791.92858,22.34472-2.59514Z" transform="translate(-44.50911 -23)"/><path class="cls-58" d="M123.84076,210.6737c4.66163,2.84414,10.70337,6.07543,14.11965,7.87607-1.71651,6.04174-3.02924,10.80444-3.02924,10.80444l-7.74141,32.09337c-1.95225,9.27282-3.23119,17.09846-3.26488,21.6928,0,0-4.67857-4.47653-6.09217-18.83192l1.868-32.817c.03369-.1514.03369-.28607.08412-.45432C120.22243,228.88294,121.63613,220.85547,123.84076,210.6737Z" transform="translate(-44.50911 -23)"/><path class="cls-58" d="M182.06321,107.43494l10.181,6.99966s-14.29748,38.14043-18.5847,37.92585c-4.029-.20165-11.061-4.47663-11.29667-3.36584-.25238,1.12753,9.62638,9.172,4.03906,14.30485-5.06562,4.69542-12.30217,9.5253-19.65654,26.96036a95.99217,95.99217,0,0,0-7.89291-6.49606c-1.58195-1.09384-4.9478-.80777-8.34734.38714,3.58464-12.04979,7.89292-23.12345,12.68931-28.6097,11.54483-13.19416,32.00247-42.77142,38.86883-48.10626Z" transform="translate(-44.50911 -23)"/><path class="cls-49" d="M194.8769,218.48249c-1.69977,11.831-6.84951,23.77972-8.21268,25.39536-21.59183-10.23221-44.29456-23.59462-46.01107-23.93123,0,0,7.23655.993,13.91771-10.36676,2.99565-5.08247,1.80074-12.62193,1.80074-12.62193s30.27588,16.98064,31.06681,13.88412c0-.03369,3.88754-12.40314,7.77509-24.40239C195.466,185.66547,197.19934,202.37689,194.8769,218.48249Z" transform="translate(-44.50911 -23)"/><path class="cls-49" d="M93.57687,218.15272S46.334,241.44441,44.692,220.20366c-3.87835-50.17251,55.20181-117.94905,55.20181-117.94905l-4.876,45.73108s-5.54575,33.14326-4.628,35.09773S79.28776,193.47,79.28776,193.47s-4.51632,8.32865.54871,16.215A19.13071,19.13071,0,0,0,93.57687,218.15272Z" transform="translate(-44.50911 -23)"/><polygon class="cls-62" points="266.499 522.469 259.21 606.917 224.337 626.561 234.332 510.724 266.499 522.469"/><path class="cls-49" d="M404.46641,571.80426c.02771.0555.0555.111.0833.1804l.45807-.27759C404.82729,571.73478,404.64681,571.76257,404.46641,571.80426Z" transform="translate(-44.50911 -23)"/><path class="cls-63" d="M731.29387,482.19111c-2.41559-.819-5.3172-.236-8.67672,1.72144a26.04286,26.04286,0,0,0-7.84378,7.16354,28.629,28.629,0,0,0-1.73534,2.56828,25.18968,25.18968,0,0,0-3.88707,13.2025c0,4.137,1.12442,6.95526,3.40121,8.49623a5.73429,5.73429,0,0,0,.48586.30546c.13879.0694.26386.13879.40265.20819l-1.08289-.38867-29.66741-10.84242a7.07289,7.07289,0,0,1-1.81872-.708,5.72877,5.72877,0,0,1-.48569-.30547c-2.26307-1.541-3.40138-4.3869-3.40138-8.51a25.31855,25.31855,0,0,1,3.88707-13.2025c.55551-.91631,1.13848-1.777,1.74924-2.59606a26.07635,26.07635,0,0,1,7.83005-7.13575q5.18518-2.99868,8.84313-1.66595l.37486.1388,15.10443,5.51149,6.997,2.55437Z" transform="translate(-44.50911 -23)"/><path class="cls-64" d="M689.021,502.11289a51.36717,51.36717,0,0,1-4.55358,9.21807,35.23513,35.23513,0,0,1-12.24467,12.00861q-8.45447,4.852-14.02154,1.81863a9.10128,9.10128,0,0,1-3.81775-4.16482,22.16257,22.16257,0,0,1-1.73534-9.55133,38.82783,38.82783,0,0,1,2.84586-14.66017,42.57462,42.57462,0,0,1,2.70723-5.4698c.06932-.1249.15269-.26378.22218-.37478l13.46619,4.91446Z" transform="translate(-44.50911 -23)"/><path class="cls-65" d="M697.62822,451.02442a16.37069,16.37069,0,0,0-4.65085-.833q-8.80855-.33314-20.61567,6.66369a85.42533,85.42533,0,0,0-21.44893,18.18645,94.985,94.985,0,0,0-7.46893,9.9539c-.45807.69413-.90224,1.40217-1.33268,2.1102a88.46794,88.46794,0,0,0-6.053,11.86973c-.79107,1.90192-1.4991,3.79-2.11,5.678q-1.04121,3.18615-1.74924,6.33053c-.26386,1.194-.49976,2.374-.69414,3.56787a58.716,58.716,0,0,0-.79124,9.55133,39.869,39.869,0,0,0,1.44369,11.259,22.2138,22.2138,0,0,0,3.901,7.7188,17.44024,17.44024,0,0,0,4.55358,4.05374l.09728.0555a16.0804,16.0804,0,0,0,2.73485,1.33277v.0139l-31.23616-11.41166-.91614-.33317a17.16827,17.16827,0,0,1-7.38571-5.442,22.91467,22.91467,0,0,1-4.20651-8.82941,33.94885,33.94885,0,0,1-.87445-5.03944,45.98584,45.98584,0,0,1-.26386-5.10892,64.96005,64.96005,0,0,1,5.34482-25.14162,85.81108,85.81108,0,0,1,7.38571-13.97993,91.21837,91.21837,0,0,1,7.46875-9.9539c.30538-.361.62483-.72193.9441-1.08281.708-.79133,1.41607-1.58266,2.13783-2.34619a84.02052,84.02052,0,0,1,18.367-14.75736q11.78652-6.997,20.61583-6.66378a16.626,16.626,0,0,1,4.09534.65253l1.37438.49976,15.96515,5.81687Z" transform="translate(-44.50911 -23)"/><path class="cls-66" d="M705.8189,502.77923l-16.79791-.66634-17.13142-6.26113-13.46619-4.91446c.02779-.04169.04168-.06948.06948-.11109.08321-.13887.15252-.26377.2359-.38875l14.93784.59694Z" transform="translate(-44.50911 -23)"/><polygon class="cls-67" points="556.912 510.155 556.912 559.022 535.421 551.164 542.765 537.143 546.278 530.451 556.912 510.155"/><polygon class="cls-68" points="558.578 475.892 546.278 499.437 543.279 505.171 524.759 540.613 522.205 545.5 522.205 497.147 511.279 493.148 526.425 464.161 546.278 471.408 558.578 475.892"/><polygon class="cls-69" points="500.687 509.655 500.687 590.439 468.534 578.694 468.534 497.91 490.052 505.768 500.687 509.655"/><polygon class="cls-70" points="522.205 497.147 503.505 508.017 500.687 509.655 490.052 505.768 468.534 497.91 490.052 485.402 511.279 493.148 522.205 497.147"/><polygon class="cls-71" points="578.43 464.258 558.578 475.892 546.278 471.408 526.425 464.161 546.278 452.514 578.43 464.258"/><polygon class="cls-72" points="449.32 558.272 449.32 618.898 417.168 607.153 417.168 570.128 424.054 572.641 438.686 564.325 449.32 558.272"/><polygon class="cls-73" points="424.054 553.858 424.054 572.641 417.168 570.128 391.901 560.896 391.901 542.113 412.018 549.457 417.168 551.345 424.054 553.858"/><polygon class="cls-74" points="496.119 512.306 438.686 545.417 429.163 550.914 424.054 553.858 417.168 551.345 412.018 549.457 391.901 542.113 463.953 500.576 496.119 512.306"/><path class="cls-75" d="M395.9701,633.749a34.38795,34.38795,0,0,1-3.79,15.36812.051.051,0,0,1-.0139.04169,140.21222,140.21222,0,0,1-10.43976,14.36861,93.01283,93.01283,0,0,1-22.12909,16.4372A115.20341,115.20341,0,0,1,329.88829,691.64q-14.45194,3.29025-25.54428,1.0135l-32.16628-11.74483q11.09928,2.2906,25.54427-1.01341a115.00968,115.00968,0,0,0,29.709-11.67543q16.93-9.32916,26.65487-21.58765,7.91314-9.9747,9.37085-20.01888,15.05592-7.24675,22.379-6.64989Q395.977,620.81727,395.9701,633.749Z" transform="translate(-44.50911 -23)"/><polygon class="cls-76" points="259.835 669.654 248.396 698.127 242.065 713.87 209.899 702.125 227.669 657.909 259.835 669.654"/><polygon class="cls-77" points="256.502 638.303 224.34 626.561 234.336 510.725 266.497 522.467 256.502 638.303"/><polygon class="cls-78" points="385.057 451.125 352.891 470.478 266.499 522.469 234.332 510.724 352.891 439.394 385.057 451.125"/><path class="cls-79" d="M405.00778,571.70707l-.45807.27759c-.0278-.0694-.05559-.1249-.0833-.1804C404.64681,571.76257,404.82729,571.73478,405.00778,571.70707Z" transform="translate(-44.50911 -23)"/><path class="cls-80" d="M422.69437,572.20683a7.00475,7.00475,0,0,0-.76353-.24988q-7.05927-2.06155-16.92306-.24988c-.18049.02771-.361.0555-.54137.09719q-17.34651,3.311-43.20316,18.31126l-9.232,5.331-6.59431,3.80385,1.52707-19.63021v-.01381l.33317-4.27591.52756-6.80258q14.202-6.6012,25.01672-8.56562,9.87061-1.79085,16.92306.24987c.20828.0694.40257.125.59695.19438l2.13791.77743,18.67231,6.81639Z" transform="translate(-44.50911 -23)"/><path class="cls-81" d="M421.92948,571.954q19.57548,5.808,19.57548,34.653,0,18.63358-8.8855,38.8543-8.88888,20.15046-27.07134,39.19253-18.18856,18.95278-44.84166,33.32712a182.75128,182.75128,0,0,1-40.39891,16.22741q-19.85409,5.20213-33.73479,2.65559l17.76963-44.20749q11.10247,2.273,25.54479-1.02037a114.588,114.588,0,0,0,29.70893-11.67583q16.93281-9.3323,26.65445-21.57931,9.71657-12.28163,9.71792-24.6373,0-12.92082-10.13413-13.77472-10.13751-.826-35.12306,13.3388l-49.70062,27.99577,9.99585-115.836L429.565,474.13v37.70931l-81.07507,48.01352-3.05448,39.39936,15.82619-9.13517Q402.35061,566.31542,421.92948,571.954Z" transform="translate(-44.50911 -23)"/><path class="cls-82" d="M540.62149,554.50482l-25.26686,14.48062v61.019l-21.51825,11.89437V581.27158l-25.26686,14.37229V576.85974l72.052-41.54859Z" transform="translate(-44.50911 -23)"/><path class="cls-83" d="M545.20116,532.65406l21.51825-12.51064v48.3585l36.373-69.603,19.85205-11.64653v82.664l-21.51825,12.1V533.15877L565.19285,602.298l-19.99169,11.14044Z" transform="translate(-44.50911 -23)"/><path class="cls-84" d="M650.91742,549.8653q-9.51117-.096-14.8548-6.7797-5.34636-6.66042-5.34567-18.97711a65.029,65.029,0,0,1,5.34567-25.13775,89.33529,89.33529,0,0,1,14.8548-23.93056,85.49558,85.49558,0,0,1,21.44775-18.186q11.799-6.99524,20.61668-6.66783,8.81364.35136,12.84154,8.35736l-16.79893,20.06952q-5.83035-8.16879-16.79758-1.72392a41.27049,41.27049,0,0,0-19.57412,34.55956q0,10.69614,5.5531,13.71105,5.5497,3.03287,14.021-1.81667,11.10552-6.36822,16.79758-21.23215l16.79893.66858a70.25474,70.25474,0,0,1-12.84154,23.07865A73.911,73.911,0,0,1,672.36517,543.218Q660.42383,549.98792,650.91742,549.8653Z" transform="translate(-44.50911 -23)"/><path class="cls-85" d="M713.04,515.654q-3.88826-2.186-3.88689-8.8068A25.19718,25.19718,0,0,1,713.04,493.64752a27.20035,27.20035,0,0,1,9.57828-9.73675q5.69205-3.30593,9.57963-1.36356,3.88419,1.95467,3.8869,8.78132a28.86394,28.86394,0,0,1-13.46653,23.27006Q716.92416,517.85311,713.04,515.654Z" transform="translate(-44.50911 -23)"/></svg>