<svg id="Слой_1" data-name="Слой 1" xmlns="http://www.w3.org/2000/svg" xmlns:xlink="http://www.w3.org/1999/xlink" viewBox="0 0 965.43889 889.94007"><defs><style>.cls-1{fill:url(#Безымянный_градиент_81);}.cls-2{fill:url(#Безымянный_градиент_81-2);}.cls-3{fill:url(#Безымянный_градиент_81-3);}.cls-4{fill:url(#Безымянный_градиент_81-4);}.cls-5{fill:url(#Безымянный_градиент_38);}.cls-6{fill:url(#Безымянный_градиент_10);}.cls-7{fill:url(#Безымянный_градиент_33);}.cls-8{fill:url(#Безымянный_градиент_33-2);}.cls-9{fill:url(#Безымянный_градиент_17);}.cls-10{opacity:0.1;}.cls-11{fill:#828282;}.cls-12{fill:url(#Безымянный_градиент_23);}.cls-13{fill:url(#Безымянный_градиент_23-2);}.cls-14{fill:#f4f4f4;}.cls-15{fill:url(#Безымянный_градиент_23-3);}.cls-16{fill:url(#Безымянный_градиент_23-4);}.cls-17{fill:url(#Безымянный_градиент_23-5);}.cls-18{fill:url(#Безымянный_градиент_38-2);}.cls-19{fill:url(#Безымянный_градиент_23-6);}.cls-20{fill:url(#Безымянный_градиент_23-7);}.cls-21{fill:url(#Безымянный_градиент_86);}.cls-22{fill:url(#Безымянный_градиент_23-8);}.cls-23{fill:url(#Безымянный_градиент_23-9);}.cls-24{fill:url(#Безымянный_градиент_23-10);}.cls-25{fill:url(#Безымянный_градиент_23-11);}.cls-26{fill:url(#Безымянный_градиент_10-2);}.cls-27{fill:url(#Безымянный_градиент_159);}.cls-28{fill:url(#Безымянный_градиент_23-12);}.cls-29{fill:url(#Безымянный_градиент_10-3);}.cls-30{fill:url(#Безымянный_градиент_159-2);}.cls-31{fill:url(#Безымянный_градиент_23-14);}.cls-32{fill:url(#Безымянный_градиент_10-4);}.cls-33{fill:url(#Безымянный_градиент_159-3);}.cls-34{fill:url(#Безымянный_градиент_23-16);}.cls-35{fill:url(#Безымянный_градиент_10-5);}.cls-36{fill:url(#Безымянный_градиент_159-4);}.cls-37{fill:url(#Безымянный_градиент_23-18);}.cls-38{fill:url(#Безымянный_градиент_10-6);}.cls-39{fill:url(#Безымянный_градиент_159-5);}.cls-40{fill:url(#Безымянный_градиент_23-20);}.cls-41{fill:url(#Безымянный_градиент_10-7);}.cls-42{fill:url(#Безымянный_градиент_10-8);}.cls-43{fill:url(#Безымянный_градиент_10-9);}.cls-44{fill:url(#Безымянный_градиент_10-10);}.cls-45{fill:url(#Безымянный_градиент_10-11);}.cls-46{fill:url(#Безымянный_градиент_10-12);}.cls-47{fill:url(#Безымянный_градиент_10-13);}.cls-48{fill:url(#Безымянный_градиент_10-14);}.cls-49{fill:url(#Безымянный_градиент_10-15);}.cls-50{fill:url(#Безымянный_градиент_23-22);}.cls-51{fill:url(#Безымянный_градиент_38-3);}.cls-52{fill:url(#Безымянный_градиент_10-16);}.cls-53{fill:#474747;}.cls-54{fill:url(#Безымянный_градиент_10-17);}.cls-55{fill:url(#Безымянный_градиент_159-6);}.cls-56{fill:url(#Безымянный_градиент_23-23);}.cls-57{fill:url(#Безымянный_градиент_10-18);}.cls-58{fill:url(#Безымянный_градиент_159-7);}.cls-59{fill:url(#Безымянный_градиент_23-25);}.cls-60{fill:url(#Безымянный_градиент_10-19);}.cls-61{fill:url(#Безымянный_градиент_159-8);}.cls-62{fill:url(#Безымянный_градиент_23-27);}.cls-63{fill:url(#Безымянный_градиент_10-20);}.cls-64{fill:url(#Безымянный_градиент_159-9);}.cls-65{fill:url(#Безымянный_градиент_23-29);}.cls-66{fill:url(#Безымянный_градиент_10-21);}.cls-67{fill:url(#Безымянный_градиент_159-10);}.cls-68{fill:url(#Безымянный_градиент_23-31);}.cls-69{fill:#ff9c7b;}.cls-70{fill:#d1d1d1;}.cls-71{fill:#fff;}.cls-72{fill:#a8bdcc;}.cls-73{fill:#111423;}.cls-74{fill:#f2b1a5;}.cls-75{fill:#f9c4b7;}.cls-76{fill:#c7d0d8;}.cls-77{fill:url(#Безымянный_градиент_159-11);}.cls-78{fill:#e5e5e5;}.cls-79{fill:#afafaf;}.cls-80{fill:#212121;}.cls-81{fill:url(#Безымянный_градиент_82);}.cls-82{fill:url(#Безымянный_градиент_96);}.cls-83{fill:url(#Безымянный_градиент_86-2);}.cls-84{fill:url(#Безымянный_градиент_86-3);}.cls-85{fill:url(#Безымянный_градиент_82-2);}.cls-86{fill:url(#Безымянный_градиент_86-4);}.cls-87{fill:url(#Безымянный_градиент_96-2);}.cls-88{fill:url(#Безымянный_градиент_96-3);}.cls-89{fill:url(#Безымянный_градиент_86-5);}.cls-90{fill:url(#Безымянный_градиент_86-6);}.cls-91{fill:url(#Безымянный_градиент_86-7);}.cls-92{fill:url(#Безымянный_градиент_86-8);}.cls-93{fill:url(#Безымянный_градиент_53);}.cls-94{fill:url(#Безымянный_градиент_86-9);}.cls-95{fill:url(#Безымянный_градиент_82-3);}.cls-96{fill:url(#Безымянный_градиент_86-10);}.cls-97{fill:url(#Безымянный_градиент_86-11);}.cls-98{fill:url(#Безымянный_градиент_11);}.cls-99{fill:url(#Безымянный_градиент_86-12);}.cls-100{fill:url(#Безымянный_градиент_86-13);}.cls-101{fill:url(#Безымянный_градиент_11-2);}.cls-102{fill:url(#Безымянный_градиент_86-14);}.cls-103{fill:url(#Безымянный_градиент_11-3);}.cls-104{fill:url(#Безымянный_градиент_86-15);}.cls-105{fill:url(#Безымянный_градиент_96-4);}.cls-106{fill:url(#Безымянный_градиент_96-5);}.cls-107{fill:url(#Безымянный_градиент_96-6);}.cls-108{fill:url(#Безымянный_градиент_86-16);}.cls-109{fill:url(#Безымянный_градиент_86-17);}.cls-110{fill:url(#Безымянный_градиент_11-4);}.cls-111{fill:url(#Безымянный_градиент_82-4);}.cls-112{fill:url(#Безымянный_градиент_86-18);}</style><linearGradient id="Безымянный_градиент_81" x1="-4991.12909" y1="1734.30705" x2="-4809.61089" y2="1878.98392" gradientTransform="translate(5792.20418 -179.95324) rotate(10.74042)" gradientUnits="userSpaceOnUse"><stop offset="0" stop-color="#b5b5c1" stop-opacity="0.3"/><stop offset="0.99512" stop-color="#fdfdfd" stop-opacity="0"/></linearGradient><linearGradient id="Безымянный_градиент_81-2" x1="-5494.87286" y1="1831.35453" x2="-5338.82625" y2="1831.35453" xlink:href="#Безымянный_градиент_81"/><linearGradient id="Безымянный_градиент_81-3" x1="-5236.88942" y1="1826.48559" x2="-5082.97281" y2="1826.48559" xlink:href="#Безымянный_градиент_81"/><linearGradient id="Безымянный_градиент_81-4" x1="998.30103" y1="505.64144" x2="1340.78188" y2="505.64144" gradientTransform="translate(-656.11259 -55.02996)" xlink:href="#Безымянный_градиент_81"/><linearGradient id="Безымянный_градиент_38" x1="901.33583" y1="665.96637" x2="901.33583" y2="279.89647" gradientTransform="translate(-656.11259 -55.02996)" gradientUnits="userSpaceOnUse"><stop offset="0" stop-color="#fdfdfd"/><stop offset="1" stop-color="#f0eff4"/></linearGradient><linearGradient id="Безымянный_градиент_10" x1="1137.64015" y1="392.49802" x2="1137.64015" y2="665.96637" gradientTransform="translate(-656.11259 -55.02996)" gradientUnits="userSpaceOnUse"><stop offset="0.00732" stop-color="#f0eff4"/><stop offset="0.6439" stop-color="#d2cfda"/><stop offset="1" stop-color="#b5b5c1"/></linearGradient><linearGradient id="Безымянный_градиент_33" x1="789.04101" y1="410.06671" x2="1152.36675" y2="200.61475" gradientTransform="translate(-638.83204)" gradientUnits="userSpaceOnUse"><stop offset="0.57561" stop-color="#fbfbfd"/><stop offset="1" stop-color="#f3f3f5"/></linearGradient><linearGradient id="Безымянный_градиент_33-2" x1="1109.07622" y1="373.12087" x2="1181.17124" y2="331.55915" gradientTransform="translate(-656.11259 -55.02996)" xlink:href="#Безымянный_градиент_33"/><linearGradient id="Безымянный_градиент_17" x1="784.95732" y1="434.45504" x2="1157.63653" y2="219.61095" gradientTransform="translate(-638.83204)" gradientUnits="userSpaceOnUse"><stop offset="0" stop-color="#f0eff4"/><stop offset="0.43171" stop-color="#f0eff4"/><stop offset="0.56585" stop-color="#d2cfda"/></linearGradient><linearGradient id="Безымянный_градиент_23" x1="1514.07379" y1="302.94231" x2="1538.31276" y2="302.94231" gradientTransform="translate(-1071.99133 -55.02996)" gradientUnits="userSpaceOnUse"><stop offset="0" stop-color="#b5b5c1"/><stop offset="0.3561" stop-color="#d2cfda"/><stop offset="0.99268" stop-color="#f0eff4"/></linearGradient><linearGradient id="Безымянный_градиент_23-2" x1="1522.84141" y1="297.45243" x2="1528.20031" y2="297.45243" gradientTransform="translate(-1054.71078)" xlink:href="#Безымянный_градиент_23"/><linearGradient id="Безымянный_градиент_23-3" x1="1517.69053" y1="176.02446" x2="1539.19446" y2="174.69789" xlink:href="#Безымянный_градиент_23"/><linearGradient id="Безымянный_градиент_23-4" x1="1520.35251" y1="237.65651" x2="1543.06621" y2="236.2553" xlink:href="#Безымянный_градиент_23"/><linearGradient id="Безымянный_градиент_23-5" x1="1621.98091" y1="421.31859" x2="1666.4188" y2="421.93217" gradientTransform="translate(-1219.50916 333.69717) rotate(-16.65773)" xlink:href="#Безымянный_градиент_23"/><linearGradient id="Безымянный_градиент_38-2" x1="1520.78771" y1="347.08045" x2="1531.7874" y2="343.95402" gradientTransform="translate(-1071.99133 -55.02996)" xlink:href="#Безымянный_градиент_38"/><linearGradient id="Безымянный_градиент_23-6" x1="1528.71606" y1="368.02385" x2="1581.31366" y2="353.0741" xlink:href="#Безымянный_градиент_23"/><linearGradient id="Безымянный_градиент_23-7" x1="1521.14544" y1="347.1859" x2="1525.90842" y2="345.83212" gradientTransform="translate(-1054.71078)" xlink:href="#Безымянный_градиент_23"/><linearGradient id="Безымянный_градиент_86" x1="1520.44939" y1="331.88184" x2="1530.93107" y2="331.88184" gradientTransform="translate(-1071.99133 -55.02996)" gradientUnits="userSpaceOnUse"><stop offset="0.57561" stop-color="#ff9c88"/><stop offset="1" stop-color="#f77f48"/></linearGradient><linearGradient id="Безымянный_градиент_23-8" x1="1546.58267" y1="415.14764" x2="1570.82163" y2="415.14764" xlink:href="#Безымянный_градиент_23"/><linearGradient id="Безымянный_градиент_23-9" x1="1555.35029" y1="409.65777" x2="1560.70918" y2="409.65777" gradientTransform="translate(-1054.71078)" xlink:href="#Безымянный_градиент_23"/><linearGradient id="Безымянный_градиент_23-10" x1="1550.1994" y1="288.2298" x2="1571.70334" y2="286.90322" xlink:href="#Безымянный_градиент_23"/><linearGradient id="Безымянный_градиент_23-11" x1="1552.86138" y1="349.86185" x2="1575.57508" y2="348.46064" xlink:href="#Безымянный_градиент_23"/><linearGradient id="Безымянный_градиент_10-2" x1="1045.35485" y1="309.77059" x2="1066.10086" y2="309.77059" gradientTransform="translate(-638.83204)" xlink:href="#Безымянный_градиент_10"/><linearGradient id="Безымянный_градиент_159" x1="495.64052" y1="708.93567" x2="516.98666" y2="708.93567" gradientTransform="matrix(0.99935, -0.03617, 0.03617, 0.99935, -115.20578, -379.82862)" gradientUnits="userSpaceOnUse"><stop offset="0" stop-color="#4d4d4d"/><stop offset="0.3561" stop-color="#1a1a1a"/><stop offset="0.99268" stop-color="#4d4d4d"/></linearGradient><linearGradient id="Безымянный_градиент_23-12" x1="1194.84005" y1="393.78663" x2="1243.78098" y2="393.78663" gradientTransform="translate(486.06903 1589.85024) rotate(-111.01669)" xlink:href="#Безымянный_градиент_23"/><linearGradient id="Безымянный_градиент_10-3" x1="1020.01863" y1="293.1105" x2="1040.76465" y2="293.1105" gradientTransform="translate(-638.83204)" xlink:href="#Безымянный_градиент_10"/><linearGradient id="Безымянный_градиент_159-2" x1="470.92342" y1="691.37015" x2="492.26956" y2="691.37015" xlink:href="#Безымянный_градиент_159"/><linearGradient id="Безымянный_градиент_23-14" x1="1219.47843" y1="376.11085" x2="1268.41935" y2="376.11085" gradientTransform="translate(486.06903 1589.85024) rotate(-111.01669)" xlink:href="#Безымянный_градиент_23"/><linearGradient id="Безымянный_градиент_10-4" x1="993.58094" y1="277.24586" x2="1014.32696" y2="277.24586" gradientTransform="translate(-638.83204)" xlink:href="#Безымянный_градиент_10"/><linearGradient id="Безымянный_градиент_159-3" x1="445.0768" y1="674.55972" x2="466.42294" y2="674.55972" xlink:href="#Безымянный_градиент_159"/><linearGradient id="Безымянный_градиент_23-16" x1="1243.7693" y1="357.1216" x2="1292.71022" y2="357.1216" gradientTransform="translate(486.06903 1589.85024) rotate(-111.01669)" xlink:href="#Безымянный_градиент_23"/><linearGradient id="Безымянный_градиент_10-5" x1="967.1319" y1="261.01332" x2="987.87792" y2="261.01332" gradientTransform="translate(-638.83204)" xlink:href="#Безымянный_градиент_10"/><linearGradient id="Безымянный_градиент_159-4" x1="419.23214" y1="657.38122" x2="440.57828" y2="657.38122" xlink:href="#Безымянный_градиент_159"/><linearGradient id="Безымянный_градиент_23-18" x1="1268.40767" y1="338.25369" x2="1317.3486" y2="338.25369" gradientTransform="translate(486.06903 1589.85024) rotate(-111.01669)" xlink:href="#Безымянный_градиент_23"/><linearGradient id="Безымянный_градиент_10-6" x1="940.55549" y1="244.82971" x2="961.3015" y2="244.82971" gradientTransform="translate(-638.83204)" xlink:href="#Безымянный_градиент_10"/><linearGradient id="Безымянный_градиент_159-5" x1="393.25842" y1="640.24702" x2="414.60456" y2="640.24702" xlink:href="#Безымянный_градиент_159"/><linearGradient id="Безымянный_градиент_23-20" x1="1293.04604" y1="319.24933" x2="1341.98697" y2="319.24933" gradientTransform="translate(486.06903 1589.85024) rotate(-111.01669)" xlink:href="#Безымянный_градиент_23"/><linearGradient id="Безымянный_градиент_10-7" x1="868.05471" y1="200.70817" x2="882.23007" y2="196.98072" xlink:href="#Безымянный_градиент_10"/><linearGradient id="Безымянный_градиент_10-8" x1="866.23083" y1="164.36016" x2="890.71464" y2="157.92208" gradientTransform="translate(-638.83204)" xlink:href="#Безымянный_градиент_10"/><linearGradient id="Безымянный_градиент_10-9" x1="897.61356" y1="171.64383" x2="914.28578" y2="167.25982" gradientTransform="translate(-638.83204)" xlink:href="#Безымянный_градиент_10"/><linearGradient id="Безымянный_градиент_10-10" x1="903.86537" y1="169.10083" x2="916.11363" y2="169.10083" xlink:href="#Безымянный_градиент_10"/><linearGradient id="Безымянный_градиент_10-11" x1="911.7757" y1="169.10083" x2="918.41018" y2="169.10083" xlink:href="#Безымянный_градиент_10"/><linearGradient id="Безымянный_градиент_10-12" x1="1173.36616" y1="171.64383" x2="1190.03838" y2="167.25982" gradientTransform="matrix(-1, 0, 0, 1, 1391.75198, 0)" xlink:href="#Безымянный_градиент_10"/><linearGradient id="Безымянный_градиент_10-13" x1="1179.61797" y1="169.10083" x2="1191.86623" y2="169.10083" gradientTransform="matrix(-1, 0, 0, 1, 1374.47142, -55.02996)" xlink:href="#Безымянный_градиент_10"/><linearGradient id="Безымянный_градиент_10-14" x1="1187.52831" y1="169.10083" x2="1194.16278" y2="169.10083" gradientTransform="matrix(-1, 0, 0, 1, 1374.47142, -55.02996)" xlink:href="#Безымянный_градиент_10"/><linearGradient id="Безымянный_градиент_10-15" x1="847.71361" y1="149.52382" x2="899.97774" y2="135.78082" gradientTransform="translate(-638.83204)" xlink:href="#Безымянный_градиент_10"/><linearGradient id="Безымянный_градиент_23-22" x1="850.79854" y1="150.5609" x2="897.20484" y2="138.35823" gradientTransform="translate(-638.83204)" xlink:href="#Безымянный_градиент_23"/><linearGradient id="Безымянный_градиент_38-3" x1="1126.53417" y1="315.62335" x2="1158.35601" y2="315.62335" gradientTransform="matrix(-1, 0, 0, 1, 1403.83537, 0)" xlink:href="#Безымянный_градиент_38"/><linearGradient id="Безымянный_градиент_10-16" x1="1132.96169" y1="312.39177" x2="1173.49704" y2="312.39177" gradientTransform="matrix(-1, 0, 0, 1, 1403.83537, 0)" xlink:href="#Безымянный_градиент_10"/><linearGradient id="Безымянный_градиент_10-17" x1="1050.05003" y1="340.28774" x2="1070.79605" y2="340.28774" gradientTransform="translate(-638.83204)" xlink:href="#Безымянный_градиент_10"/><linearGradient id="Безымянный_градиент_159-6" x1="499.22893" y1="739.60266" x2="520.57507" y2="739.60266" xlink:href="#Безымянный_градиент_159"/><linearGradient id="Безымянный_градиент_23-23" x1="1164.66915" y1="387.22481" x2="1213.61007" y2="387.22481" gradientTransform="translate(486.06903 1589.85024) rotate(-111.01669)" xlink:href="#Безымянный_градиент_23"/><linearGradient id="Безымянный_градиент_10-18" x1="1024.71381" y1="323.62765" x2="1045.45983" y2="323.62765" gradientTransform="translate(-638.83204)" xlink:href="#Безымянный_градиент_10"/><linearGradient id="Безымянный_градиент_159-7" x1="474.51183" y1="722.03714" x2="495.85796" y2="722.03714" xlink:href="#Безымянный_градиент_159"/><linearGradient id="Безымянный_градиент_23-25" x1="1189.30752" y1="369.54903" x2="1238.24845" y2="369.54903" gradientTransform="translate(486.06903 1589.85024) rotate(-111.01669)" xlink:href="#Безымянный_градиент_23"/><linearGradient id="Безымянный_градиент_10-19" x1="998.27613" y1="307.76301" x2="1019.02214" y2="307.76301" gradientTransform="translate(-638.83204)" xlink:href="#Безымянный_градиент_10"/><linearGradient id="Безымянный_градиент_159-8" x1="448.66521" y1="705.22672" x2="470.01135" y2="705.22672" xlink:href="#Безымянный_градиент_159"/><linearGradient id="Безымянный_градиент_23-27" x1="1213.59839" y1="350.55977" x2="1262.53931" y2="350.55977" gradientTransform="translate(486.06903 1589.85024) rotate(-111.01669)" xlink:href="#Безымянный_градиент_23"/><linearGradient id="Безымянный_градиент_10-20" x1="971.82708" y1="291.53047" x2="992.5731" y2="291.53047" gradientTransform="translate(-638.83204)" xlink:href="#Безымянный_градиент_10"/><linearGradient id="Безымянный_градиент_159-9" x1="422.82054" y1="688.04822" x2="444.16668" y2="688.04822" xlink:href="#Безымянный_градиент_159"/><linearGradient id="Безымянный_градиент_23-29" x1="1238.23676" y1="331.69186" x2="1287.17769" y2="331.69186" gradientTransform="translate(486.06903 1589.85024) rotate(-111.01669)" xlink:href="#Безымянный_градиент_23"/><linearGradient id="Безымянный_градиент_10-21" x1="945.25067" y1="275.34686" x2="965.99669" y2="275.34686" gradientTransform="translate(-638.83204)" xlink:href="#Безымянный_градиент_10"/><linearGradient id="Безымянный_градиент_159-10" x1="396.84683" y1="670.91402" x2="418.19297" y2="670.91402" xlink:href="#Безымянный_градиент_159"/><linearGradient id="Безымянный_градиент_23-31" x1="1262.87513" y1="312.68751" x2="1311.81606" y2="312.68751" gradientTransform="translate(486.06903 1589.85024) rotate(-111.01669)" xlink:href="#Безымянный_градиент_23"/><linearGradient id="Безымянный_градиент_159-11" x1="308.91906" y1="195.86376" x2="344.39435" y2="195.86376" gradientTransform="matrix(1, 0, 0, 1, 0, 0)" xlink:href="#Безымянный_градиент_159"/><linearGradient id="Безымянный_градиент_82" x1="450.49022" y1="723.10576" x2="536.27815" y2="723.10576" gradientUnits="userSpaceOnUse"><stop offset="0" stop-color="#f77f48"/><stop offset="0.42439" stop-color="#ff9c88"/></linearGradient><linearGradient id="Безымянный_градиент_96" x1="460.10447" y1="686.68992" x2="567.99156" y2="686.68992" gradientUnits="userSpaceOnUse"><stop offset="0" stop-color="#ef6452"/><stop offset="0.3561" stop-color="#f77f48"/></linearGradient><linearGradient id="Безымянный_градиент_86-2" x1="420.83543" y1="706.41249" x2="455.19318" y2="706.41249" gradientTransform="matrix(1, 0, 0, 1, 0, 0)" xlink:href="#Безымянный_градиент_86"/><linearGradient id="Безымянный_градиент_86-3" x1="437.85004" y1="557.50653" x2="542.40217" y2="557.50653" gradientTransform="matrix(1, 0, 0, 1, 0, 0)" xlink:href="#Безымянный_градиент_86"/><linearGradient id="Безымянный_градиент_82-2" x1="501.09882" y1="666.60684" x2="554.80068" y2="666.60684" xlink:href="#Безымянный_градиент_82"/><linearGradient id="Безымянный_градиент_86-4" x1="772.78941" y1="582.50174" x2="809.9218" y2="582.50174" gradientTransform="matrix(1, 0, 0, 1, 0, 0)" xlink:href="#Безымянный_градиент_86"/><linearGradient id="Безымянный_градиент_96-2" x1="794.78025" y1="587.21104" x2="813.53432" y2="587.21104" xlink:href="#Безымянный_градиент_96"/><linearGradient id="Безымянный_градиент_96-3" x1="736.48736" y1="590.42977" x2="789.17433" y2="590.42977" xlink:href="#Безымянный_градиент_96"/><linearGradient id="Безымянный_градиент_86-5" x1="697.22469" y1="546.37458" x2="719.20796" y2="546.37458" gradientTransform="matrix(1, 0, 0, 1, 0, 0)" xlink:href="#Безымянный_градиент_86"/><linearGradient id="Безымянный_градиент_86-6" x1="697.22469" y1="512.32622" x2="734.19233" y2="512.32622" gradientTransform="matrix(1, 0, 0, 1, 0, 0)" xlink:href="#Безымянный_градиент_86"/><linearGradient id="Безымянный_градиент_86-7" x1="734.83053" y1="506.45814" x2="756.81404" y2="506.45814" gradientTransform="matrix(1, 0, 0, 1, 0, 0)" xlink:href="#Безымянный_градиент_86"/><linearGradient id="Безымянный_градиент_86-8" x1="734.83053" y1="490.35236" x2="771.89494" y2="490.35236" gradientTransform="matrix(1, 0, 0, 1, 0, 0)" xlink:href="#Безымянный_градиент_86"/><linearGradient id="Безымянный_градиент_53" x1="734.19233" y1="524.69075" x2="756.81404" y2="524.69075" xlink:href="#Безымянный_градиент_82"/><linearGradient id="Безымянный_градиент_86-9" x1="745.82228" y1="559.17415" x2="745.82228" y2="536.74592" gradientTransform="matrix(1, 0, 0, 1, 0, 0)" xlink:href="#Безымянный_градиент_86"/><linearGradient id="Безымянный_градиент_82-3" x1="665.7527" y1="658.72218" x2="665.7527" y2="599.13271" xlink:href="#Безымянный_градиент_82"/><linearGradient id="Безымянный_градиент_86-10" x1="631.09997" y1="606.42809" x2="653.85692" y2="606.42809" gradientTransform="matrix(1, 0, 0, 1, 0, 0)" xlink:href="#Безымянный_градиент_86"/><linearGradient id="Безымянный_градиент_86-11" x1="643.08761" y1="535.43602" x2="709.54063" y2="535.43602" gradientTransform="matrix(1, 0, 0, 1, 0, 0)" xlink:href="#Безымянный_градиент_86"/><linearGradient id="Безымянный_градиент_11" x1="702.55631" y1="649.51886" x2="702.55631" y2="604.65278" gradientTransform="matrix(1, 0, 0, 1, 0, 0)" xlink:href="#Безымянный_градиент_86"/><linearGradient id="Безымянный_градиент_86-12" x1="563.71869" y1="623.89694" x2="585.70221" y2="623.89694" gradientTransform="matrix(1, 0, 0, 1, 0, 0)" xlink:href="#Безымянный_градиент_86"/><linearGradient id="Безымянный_градиент_86-13" x1="563.71869" y1="590.796" x2="601.46001" y2="590.796" gradientTransform="matrix(1, 0, 0, 1, 0, 0)" xlink:href="#Безымянный_градиент_86"/><linearGradient id="Безымянный_градиент_11-2" x1="606.92196" y1="634.60834" x2="606.92196" y2="614.59694" gradientTransform="matrix(1, 0, 0, 1, 0, 0)" xlink:href="#Безымянный_градиент_86"/><linearGradient id="Безымянный_градиент_86-14" x1="601.79822" y1="587.62511" x2="635.77905" y2="587.62511" gradientTransform="matrix(1, 0, 0, 1, 0, 0)" xlink:href="#Безымянный_градиент_86"/><linearGradient id="Безымянный_градиент_11-3" x1="630.36041" y1="627.58022" x2="630.36041" y2="592.99047" gradientTransform="matrix(1, 0, 0, 1, 0, 0)" xlink:href="#Безымянный_градиент_86"/><linearGradient id="Безымянный_градиент_86-15" x1="613.79554" y1="561.61512" x2="649.89322" y2="561.61512" gradientTransform="matrix(1, 0, 0, 1, 0, 0)" xlink:href="#Безымянный_градиент_86"/><linearGradient id="Безымянный_градиент_96-4" x1="344.29093" y1="768.86746" x2="452.75862" y2="768.86746" xlink:href="#Безымянный_градиент_96"/><linearGradient id="Безымянный_градиент_96-5" x1="602.98372" y1="664.31303" x2="667.3678" y2="664.31303" xlink:href="#Безымянный_градиент_96"/><linearGradient id="Безымянный_градиент_96-6" x1="670.36429" y1="627.3929" x2="726.82096" y2="627.3929" xlink:href="#Безымянный_градиент_96"/><linearGradient id="Безымянный_градиент_86-16" x1="322.30126" y1="710.03962" x2="437.449" y2="710.03962" gradientTransform="matrix(1, 0, 0, 1, 0, 0)" xlink:href="#Безымянный_градиент_86"/><linearGradient id="Безымянный_градиент_86-17" x1="311.20795" y1="789.6579" x2="333.20113" y2="789.6579" gradientTransform="matrix(1, 0, 0, 1, 0, 0)" xlink:href="#Безымянный_градиент_86"/><linearGradient id="Безымянный_градиент_11-4" x1="372.64398" y1="838.9116" x2="372.64398" y2="713.63817" gradientTransform="matrix(1, 0, 0, 1, 0, 0)" xlink:href="#Безымянный_градиент_86"/><linearGradient id="Безымянный_градиент_82-4" x1="377.28404" y1="730.4358" x2="435.48159" y2="730.4358" xlink:href="#Безымянный_градиент_82"/><linearGradient id="Безымянный_градиент_86-18" x1="430.89213" y1="625.54002" x2="459.83805" y2="625.54002" gradientTransform="matrix(1, 0, 0, 1, 0, 0)" xlink:href="#Безымянный_градиент_86"/></defs><title>6-25m_Visitors</title><polygon class="cls-1" points="333.213 804.236 557.232 889.94 965.439 578.756 786.877 542.085 734.192 546.782 595.844 623.448 563.719 647.93 547.202 651.785 510.669 701.143 435.482 724.06 435.478 743.985 375.594 779.834 365.616 773.963 364.731 785.654 333.213 804.236"/><polygon class="cls-2" points="21.167 614.225 173.791 678.935 236.522 569.645 106.335 595.183 52.762 601.542 21.167 614.225"/><polygon class="cls-3" points="285.073 609.233 315.568 626.751 393.962 711.368 486.711 622.084 358.715 609.771 333.81 610.287 309.025 582.816 285.073 609.233"/><polygon class="cls-4" points="412.418 610.936 684.669 673.942 602.077 227.28 342.188 292.424 412.418 610.936"/><polygon class="cls-5" points="78.029 257.026 78.029 417.877 412.418 610.936 412.418 417.926 78.029 224.867 78.029 257.026"/><polygon class="cls-6" points="412.418 610.936 550.637 531.136 550.637 337.468 412.418 417.926 412.418 610.936"/><path class="cls-7" d="M206.24248,152.69483,70.95432,230.80341a20.85107,20.85107,0,0,0,0,36.11512L400.75142,457.327a57.894,57.894,0,0,0,57.894,0l133.265-76.94053a21.86556,21.86556,0,0,0,0-37.87226L263.13372,152.69484A56.89127,56.89127,0,0,0,206.24248,152.69483Z" transform="translate(-17.28055 -55.02996)"/><polygon class="cls-8" points="539.558 345.601 502.228 367.164 488.716 366.996 486.711 366.077 486.711 333.538 470.386 336.171 459.813 329.972 473.408 264.672 456.205 238.749 483.395 234.807 509.791 250.046 503.119 251.3 521.004 327.994 497.199 331.839 496.531 347.663 539.558 345.601"/><path class="cls-9" d="M602.55873,364.8952v28.78708A19.66858,19.66858,0,0,1,592.831,410.6538L459.149,488.95645a58.6941,58.6941,0,0,1-59.01284.18454L71.97008,299.66821a22.88528,22.88528,0,0,1-11.44237-19.81908v-30.985l.01386-.02789a20.61178,20.61178,0,0,0,10.41918,18.0803L400.75107,457.33007a57.91694,57.91694,0,0,0,57.89029,0l133.27553-76.94549A21.53441,21.53441,0,0,0,602.55873,364.8952Z" transform="translate(-17.28055 -55.02996)"/><polygon class="cls-10" points="539.558 345.601 502.228 367.164 488.716 366.996 486.711 366.077 486.711 333.538 470.386 336.171 459.813 329.972 473.408 264.672 456.205 238.749 483.395 234.807 509.791 250.046 503.119 251.3 521.004 327.994 497.199 331.839 496.531 347.663 539.558 345.601"/><ellipse class="cls-11" cx="454.20194" cy="248.59652" rx="12.11948" ry="6.97941"/><ellipse class="cls-12" cx="454.20194" cy="247.91234" rx="12.11948" ry="6.97941"/><path class="cls-13" d="M468.13063,291.37457l1.31223,4.05886v6.93165c0,.64356.906,1.16521,2.02346,1.16521s2.02321-.52165,2.02321-1.16521v-8.58633Z" transform="translate(-17.28055 -55.02996)"/><polygon class="cls-14" points="444.458 111.558 444.458 121.524 444.458 227.044 444.458 228.54 451.262 240.939 451.262 230.972 451.262 125.453 451.262 123.957 444.458 111.558"/><path class="cls-11" d="M462.55409,171.1479l.05642,70.92408a1.97141,1.97141,0,0,0,.23153.92539l3.93411,7.38432a.41058.41058,0,0,0,.77294-.19339l-.056-68.35352a5.40277,5.40277,0,0,0-.55449-2.38416l-4.11382-8.3658A.14269.14269,0,0,0,462.55409,171.1479Z" transform="translate(-17.28055 -55.02996)"/><path class="cls-11" d="M462.56435,252.17651l.03882,23.0009a18.40067,18.40067,0,0,0,2.16091,8.62082h0a1.47465,1.47465,0,0,0,2.77611-.69593l-.0397-22.98309a18.40044,18.40044,0,0,0-1.8884-8.08792l-.2498-.508A1.47465,1.47465,0,0,0,462.56435,252.17651Z" transform="translate(-17.28055 -55.02996)"/><polygon class="cls-15" points="444.458 111.558 459.668 118.742 466.473 129.226 451.262 123.957 444.458 111.558"/><polygon class="cls-16" points="466.473 234.395 466.473 129.226 451.262 123.957 451.262 240.939 466.473 234.395"/><polygon class="cls-17" points="447.771 251.296 459.813 291.541 501.412 282.443 488.385 245.844 447.771 251.296"/><polygon class="cls-18" points="459.813 329.965 459.813 291.541 447.771 251.296 447.771 289.72 459.813 329.965"/><polygon class="cls-19" points="501.412 320.868 501.412 282.443 459.813 291.541 459.813 329.965 501.412 320.868"/><path class="cls-20" d="M470.17328,346.571a22.28958,22.28958,0,0,1-.4702,4.853c-.288,1.224-.66716,1.954-1.107,1.954-.8645,0-1.57719-3.0492-1.57719-6.80706s.71269-6.80706,1.57719-6.80706c.43983,0,.83413.75152,1.107,1.97552A22.22045,22.22045,0,0,1,470.17328,346.571Z" transform="translate(-17.28055 -55.02996)"/><path class="cls-11" d="M472.38727,346.571c0,3.75786-.7127,6.80706-1.57719,6.80706h-2.214c.43983,0,.81895-.73,1.107-1.954a25.16876,25.16876,0,0,0,0-9.68457c-.27286-1.224-.66716-1.97552-1.107-1.97552h2.214C471.67457,339.764,472.38727,342.81318,472.38727,346.571Z" transform="translate(-17.28055 -55.02996)"/><polygon class="cls-21" points="448.458 254.804 448.458 262.781 458.795 298.9 458.94 290.213 448.458 254.804"/><ellipse class="cls-11" cx="486.71082" cy="360.80185" rx="12.11948" ry="6.97941"/><ellipse class="cls-22" cx="486.71082" cy="360.11768" rx="12.11948" ry="6.97941"/><path class="cls-23" d="M500.63951,403.57991l1.31223,4.05885v6.93166c0,.64356.906,1.16521,2.02345,1.16521s2.02321-.52165,2.02321-1.16521v-8.58633Z" transform="translate(-17.28055 -55.02996)"/><polygon class="cls-14" points="476.967 223.763 476.967 233.73 476.967 339.249 476.967 340.745 483.771 353.144 483.771 343.177 483.771 237.658 483.771 236.162 476.967 223.763"/><path class="cls-11" d="M495.063,283.35324l.05642,70.92407a1.97152,1.97152,0,0,0,.23152.9254L499.285,362.587a.41058.41058,0,0,0,.77294-.19339l-.05595-68.35352a5.40287,5.40287,0,0,0-.55449-2.38416l-4.11383-8.3658A.14268.14268,0,0,0,495.063,283.35324Z" transform="translate(-17.28055 -55.02996)"/><path class="cls-11" d="M495.07322,364.38185l.03883,23.0009a18.40055,18.40055,0,0,0,2.16091,8.62082h0a1.47465,1.47465,0,0,0,2.77611-.69593l-.03971-22.9831a18.4005,18.4005,0,0,0-1.88839-8.08792l-.24981-.508A1.47465,1.47465,0,0,0,495.07322,364.38185Z" transform="translate(-17.28055 -55.02996)"/><polygon class="cls-24" points="476.967 223.763 492.177 230.948 498.982 241.431 483.771 236.162 476.967 223.763"/><polygon class="cls-25" points="498.982 346.6 498.982 241.431 483.771 236.162 483.771 353.144 498.982 346.6"/><polygon class="cls-10" points="284.562 201.81 305.189 179.188 323.958 192.5 302.088 213.588 284.562 201.81"/><polygon class="cls-10" points="311.1 218.025 331.727 195.403 350.496 208.715 328.626 229.803 311.1 218.025"/><polygon class="cls-10" points="337.549 234.109 358.176 211.486 376.945 224.798 355.075 245.886 337.549 234.109"/><polygon class="cls-10" points="363.987 249.903 384.614 227.28 403.383 240.592 381.513 261.681 363.987 249.903"/><polygon class="cls-10" points="389.323 266.77 409.95 244.147 428.719 257.459 406.849 278.547 389.323 266.77"/><path class="cls-26" d="M426.69576,298.84963l-17.0996-12.30205c-.27015-.21352-.51267.37484-.59,1.43133L406.548,317.60739c-.11311,1.54567.16891,3.35494.56439,3.62071l17.52554,11.77756c.26686.17934.50231-.42261.57555-1.47144l2.03223-29.104C427.35155,300.91438,427.08121,299.15429,426.69576,298.84963Z" transform="translate(-17.28055 -55.02996)"/><path class="cls-27" d="M426.22556,299.40255,409.126,287.1005c-.27016-.21353-.51268.37483-.59,1.43132l-2.45818,29.62849c-.11312,1.54567.1689,3.35494.56438,3.62071l17.52554,11.77756c.26687.17934.50232-.42261.57555-1.47145l2.03224-29.104C426.88135,301.4673,426.611,299.70721,426.22556,299.40255Z" transform="translate(-17.28055 -55.02996)"/><path class="cls-28" d="M426.22435,299.40033,409.1227,287.10062a.188.188,0,0,0-.11313-.05313l-.00653.00024c-.111.004-.21034.15048-.28594.41053a2.69225,2.69225,0,0,0-.10753.46111,5.52407,5.52407,0,0,0-.07629.603l-2.45213,29.64171c-.114,1.54763.16663,3.33811.56219,3.60954l17.52171,11.79885c.03261-.00118.06632.026.09893.02485.22865-.00827.417-.58657.48188-1.50355l2.02657-29.112C426.881,301.46312,426.60787,299.701,426.22435,299.40033Zm.07095,2.68408-2.02657,29.112c-.01444.14339-.043.25869-.0953.26058l-17.52808-11.79844c-.04026-.02716-.064-.14056-.08018-.2258a1.98194,1.98194,0,0,1-.01686-.28513l2.46321-29.69933c.00791-.14333.04292-.25886.07553-.26l.02718.02762,17.095,12.30013c.04026.027.064.14055.0726.19729A1.39262,1.39262,0,0,1,426.2953,302.08441Z" transform="translate(-17.28055 -55.02996)"/><path class="cls-28" d="M426.22435,299.40033,409.1227,287.10062a.188.188,0,0,0-.11313-.05313l-.00653.00024c-.111.004-.21034.15048-.28594.41053a2.69225,2.69225,0,0,0-.10753.46111,5.52407,5.52407,0,0,0-.07629.603l-2.45213,29.64171c-.114,1.54763.16663,3.33811.56219,3.60954l17.52171,11.79885c.03261-.00118.06632.026.09893.02485.22865-.00827.417-.58657.48188-1.50355l2.02657-29.112C426.881,301.46312,426.60787,299.701,426.22435,299.40033Zm.07095,2.68408-2.02657,29.112c-.01444.14339-.043.25869-.0953.26058l-17.52808-11.79844c-.04026-.02716-.064-.14056-.08018-.2258a1.98194,1.98194,0,0,1-.01686-.28513l2.46321-29.69933c.00791-.14333.04292-.25886.07553-.26l.02718.02762,17.095,12.30013c.04026.027.064.14055.0726.19729A1.39262,1.39262,0,0,1,426.2953,302.08441Z" transform="translate(-17.28055 -55.02996)"/><path class="cls-29" d="M401.35954,282.18954,384.26,269.88749c-.27016-.21352-.51268.37484-.59,1.43133l-2.45818,29.62848c-.11311,1.54567.16891,3.35494.56439,3.62071l17.52554,11.77756c.26686.17934.50232-.42261.57555-1.47144l2.03224-29.104C402.01533,284.25429,401.745,282.4942,401.35954,282.18954Z" transform="translate(-17.28055 -55.02996)"/><path class="cls-30" d="M400.88934,282.74246l-17.09959-12.30205c-.27015-.21353-.51268.37483-.59,1.43132l-2.45818,29.62849c-.11312,1.54567.16891,3.35494.56438,3.62071l17.52554,11.77756c.26687.17934.50232-.42261.57556-1.47145l2.03223-29.104C401.54513,284.80721,401.2748,283.04712,400.88934,282.74246Z" transform="translate(-17.28055 -55.02996)"/><path class="cls-31" d="M400.88813,282.74024l-17.10165-12.29971a.188.188,0,0,0-.11312-.05313l-.00654.00024c-.111.004-.21033.15048-.28594.41053a2.6932,2.6932,0,0,0-.10753.46111,5.524,5.524,0,0,0-.07629.603l-2.45213,29.6417c-.114,1.54763.16663,3.33811.56219,3.60954l17.52171,11.79885c.03261-.00118.06632.026.09893.02485.22865-.00827.417-.58657.48188-1.50355l2.02657-29.112C401.54474,284.803,401.27166,283.04089,400.88813,282.74024Zm.07095,2.68408-2.02656,29.112c-.01445.14339-.043.25869-.09531.26058L381.30913,302.9985c-.04026-.02716-.064-.14056-.08018-.2258a1.98339,1.98339,0,0,1-.01686-.28513l2.46321-29.69933c.00791-.14333.04292-.25886.07553-.26l.02719.02762,17.095,12.30013c.04026.027.064.14055.0726.19729A1.39262,1.39262,0,0,1,400.95908,285.42432Z" transform="translate(-17.28055 -55.02996)"/><path class="cls-31" d="M400.88813,282.74024l-17.10165-12.29971a.188.188,0,0,0-.11312-.05313l-.00654.00024c-.111.004-.21033.15048-.28594.41053a2.6932,2.6932,0,0,0-.10753.46111,5.524,5.524,0,0,0-.07629.603l-2.45213,29.6417c-.114,1.54763.16663,3.33811.56219,3.60954l17.52171,11.79885c.03261-.00118.06632.026.09893.02485.22865-.00827.417-.58657.48188-1.50355l2.02657-29.112C401.54474,284.803,401.27166,283.04089,400.88813,282.74024Zm.07095,2.68408-2.02656,29.112c-.01445.14339-.043.25869-.09531.26058L381.30913,302.9985c-.04026-.02716-.064-.14056-.08018-.2258a1.98339,1.98339,0,0,1-.01686-.28513l2.46321-29.69933c.00791-.14333.04292-.25886.07553-.26l.02719.02762,17.095,12.30013c.04026.027.064.14055.0726.19729A1.39262,1.39262,0,0,1,400.95908,285.42432Z" transform="translate(-17.28055 -55.02996)"/><path class="cls-32" d="M374.92185,266.3249l-17.09959-12.30205c-.27016-.21352-.51268.37484-.59,1.43133l-2.45818,29.62848c-.11312,1.54567.1689,3.35494.56438,3.62071L372.864,300.48093c.26687.17934.50232-.42261.57555-1.47144l2.03224-29.104C375.57764,268.38965,375.30731,266.62956,374.92185,266.3249Z" transform="translate(-17.28055 -55.02996)"/><path class="cls-33" d="M374.45166,266.87782l-17.0996-12.302c-.27015-.21353-.51267.37483-.59,1.43132l-2.45818,29.62849c-.11311,1.54567.16891,3.35494.56439,3.62071l17.52554,11.77756c.26686.17934.50231-.42261.57555-1.47145l2.03223-29.104C375.10745,268.94257,374.83711,267.18248,374.45166,266.87782Z" transform="translate(-17.28055 -55.02996)"/><path class="cls-34" d="M374.45044,266.8756l-17.10165-12.29971a.188.188,0,0,0-.11312-.05313l-.00654.00024c-.111.004-.21033.15048-.28594.41053a2.6932,2.6932,0,0,0-.10753.46111,5.52427,5.52427,0,0,0-.07628.603l-2.45213,29.64171c-.114,1.54763.16663,3.33811.56219,3.60954l17.5217,11.79885c.03261-.00118.06633.026.09893.02485.22866-.00827.417-.58657.48189-1.50355l2.02656-29.112C375.10705,268.93839,374.834,267.17625,374.45044,266.8756Zm.071,2.68408-2.02657,29.112c-.01445.14339-.043.25869-.09531.26058l-17.52808-11.79844c-.04026-.02716-.064-.14056-.08017-.2258a1.98325,1.98325,0,0,1-.01687-.28513l2.46322-29.69933c.0079-.14333.04292-.25886.07552-.26l.02719.02762,17.095,12.30013c.04025.027.064.14055.0726.19729A1.393,1.393,0,0,1,374.5214,269.55968Z" transform="translate(-17.28055 -55.02996)"/><path class="cls-34" d="M374.45044,266.8756l-17.10165-12.29971a.188.188,0,0,0-.11312-.05313l-.00654.00024c-.111.004-.21033.15048-.28594.41053a2.6932,2.6932,0,0,0-.10753.46111,5.52427,5.52427,0,0,0-.07628.603l-2.45213,29.64171c-.114,1.54763.16663,3.33811.56219,3.60954l17.5217,11.79885c.03261-.00118.06633.026.09893.02485.22866-.00827.417-.58657.48189-1.50355l2.02656-29.112C375.10705,268.93839,374.834,267.17625,374.45044,266.8756Zm.071,2.68408-2.02657,29.112c-.01445.14339-.043.25869-.09531.26058l-17.52808-11.79844c-.04026-.02716-.064-.14056-.08017-.2258a1.98325,1.98325,0,0,1-.01687-.28513l2.46322-29.69933c.0079-.14333.04292-.25886.07552-.26l.02719.02762,17.095,12.30013c.04025.027.064.14055.0726.19729A1.393,1.393,0,0,1,374.5214,269.55968Z" transform="translate(-17.28055 -55.02996)"/><path class="cls-35" d="M348.47281,250.09236l-17.0996-12.30205c-.27015-.21353-.51267.37483-.59,1.43132L328.325,268.85012c-.11311,1.54567.16891,3.35494.56439,3.62071L346.415,284.24839c.26686.17934.50231-.42261.57555-1.47145l2.03223-29.104C349.1286,252.15711,348.85826,250.397,348.47281,250.09236Z" transform="translate(-17.28055 -55.02996)"/><path class="cls-36" d="M348.00261,250.64527l-17.09959-12.302c-.27016-.21353-.51268.37483-.59,1.43132L327.85485,269.403c-.11312,1.54567.1689,3.35493.56438,3.6207l17.52554,11.77757c.26687.17934.50232-.42261.57555-1.47145l2.03224-29.104C348.6584,252.71,348.38807,250.94993,348.00261,250.64527Z" transform="translate(-17.28055 -55.02996)"/><path class="cls-37" d="M348.0014,250.64306l-17.10165-12.29972a.188.188,0,0,0-.11313-.05312l-.00653.00024c-.111.004-.21034.15048-.28594.41052a2.69239,2.69239,0,0,0-.10753.46112,5.52407,5.52407,0,0,0-.07629.603l-2.45213,29.64171c-.114,1.54763.16663,3.3381.56219,3.60953l17.52171,11.79885c.03261-.00118.06632.026.09893.02486.22865-.00828.417-.58658.48188-1.50355l2.02657-29.112C348.658,252.70585,348.38492,250.9437,348.0014,250.64306Zm.07095,2.68408-2.02657,29.112c-.01444.1434-.043.2587-.0953.26059L328.4224,270.90131c-.04026-.02715-.064-.14055-.08018-.2258a1.98185,1.98185,0,0,1-.01686-.28513l2.46321-29.69933c.00791-.14333.04292-.25886.07553-.26l.02718.02763,17.095,12.30012c.04026.027.064.14056.0726.19729A1.39268,1.39268,0,0,1,348.07235,253.32714Z" transform="translate(-17.28055 -55.02996)"/><path class="cls-37" d="M348.0014,250.64306l-17.10165-12.29972a.188.188,0,0,0-.11313-.05312l-.00653.00024c-.111.004-.21034.15048-.28594.41052a2.69239,2.69239,0,0,0-.10753.46112,5.52407,5.52407,0,0,0-.07629.603l-2.45213,29.64171c-.114,1.54763.16663,3.3381.56219,3.60953l17.52171,11.79885c.03261-.00118.06632.026.09893.02486.22865-.00828.417-.58658.48188-1.50355l2.02657-29.112C348.658,252.70585,348.38492,250.9437,348.0014,250.64306Zm.07095,2.68408-2.02657,29.112c-.01444.1434-.043.2587-.0953.26059L328.4224,270.90131c-.04026-.02715-.064-.14055-.08018-.2258a1.98185,1.98185,0,0,1-.01686-.28513l2.46321-29.69933c.00791-.14333.04292-.25886.07553-.26l.02718.02763,17.095,12.30012c.04026.027.064.14056.0726.19729A1.39268,1.39268,0,0,1,348.07235,253.32714Z" transform="translate(-17.28055 -55.02996)"/><path class="cls-38" d="M321.8964,233.90875,304.7968,221.6067c-.27015-.21353-.51267.37483-.59,1.43132l-2.45818,29.62849c-.11311,1.54567.16891,3.35494.56439,3.62071l17.52554,11.77756c.26686.17934.50231-.42261.57555-1.47145l2.03223-29.104C322.55219,235.9735,322.28185,234.21341,321.8964,233.90875Z" transform="translate(-17.28055 -55.02996)"/><path class="cls-39" d="M321.4262,234.46166l-17.09959-12.302c-.27016-.21353-.51268.37483-.59,1.43132l-2.45818,29.62849c-.11312,1.54567.1689,3.35493.56438,3.6207l17.52554,11.77757c.26687.17934.50232-.42261.57555-1.47145l2.03224-29.104C322.082,236.52641,321.81166,234.76632,321.4262,234.46166Z" transform="translate(-17.28055 -55.02996)"/><path class="cls-40" d="M321.425,234.45945l-17.10165-12.29972a.188.188,0,0,0-.11313-.05312l-.00653.00024c-.111.004-.21034.15048-.28594.41052a2.69239,2.69239,0,0,0-.10753.46112,5.52407,5.52407,0,0,0-.07629.603l-2.45213,29.64171c-.114,1.54763.16663,3.3381.56219,3.60953l17.52171,11.79885c.03261-.00118.06632.026.09893.02486.22865-.00828.41695-.58658.48188-1.50355l2.02657-29.112C322.0816,236.52224,321.80851,234.76009,321.425,234.45945Zm.071,2.68408-2.02657,29.112c-.01445.1434-.043.2587-.0953.26059L301.846,254.7177c-.04026-.02715-.064-.14055-.08018-.2258a1.98185,1.98185,0,0,1-.01686-.28513l2.46321-29.69933c.00791-.14333.04292-.25886.07553-.26l.02718.02763,17.095,12.30012c.04025.027.064.14056.0726.19729A1.39268,1.39268,0,0,1,321.49594,237.14353Z" transform="translate(-17.28055 -55.02996)"/><path class="cls-40" d="M321.425,234.45945l-17.10165-12.29972a.188.188,0,0,0-.11313-.05312l-.00653.00024c-.111.004-.21034.15048-.28594.41052a2.69239,2.69239,0,0,0-.10753.46112,5.52407,5.52407,0,0,0-.07629.603l-2.45213,29.64171c-.114,1.54763.16663,3.3381.56219,3.60953l17.52171,11.79885c.03261-.00118.06632.026.09893.02486.22865-.00828.41695-.58658.48188-1.50355l2.02657-29.112C322.0816,236.52224,321.80851,234.76009,321.425,234.45945Zm.071,2.68408-2.02657,29.112c-.01445.1434-.043.2587-.0953.26059L301.846,254.7177c-.04026-.02715-.064-.14055-.08018-.2258a1.98185,1.98185,0,0,1-.01686-.28513l2.46321-29.69933c.00791-.14333.04292-.25886.07553-.26l.02718.02763,17.095,12.30012c.04025.027.064.14056.0726.19729A1.39268,1.39268,0,0,1,321.49594,237.14353Z" transform="translate(-17.28055 -55.02996)"/><path class="cls-10" d="M288.60266,194.43427a5.25689,5.25689,0,0,0-1.17462.14143,12.022,12.022,0,0,0-4.58045-.83619c-3.81386,0-6.905,1.45784-6.90609,3.25619v-.001c0-1.7937,3.08436-3.25793,6.90609-3.25793.23043,0,.45973.00733.64407.01465-3.57781-2.31986-15.40044-4.11811-30.267-4.56693.56764-.17977.98016-.31,1.08357-.34063.46873-.14-2.45265-.29559-3.30579-.06109-.16748.04594-.59911.16453-1.17687.32339-1.27016-.02-2.55269-.033-3.85657-.033-18.18581,0-33.37942,1.99867-37.47767,4.6929.27652-.022.59912-.02931.87563-.02931h.01461c3.82173,0,6.90609,1.46423,6.90609,3.25793l-.00056.001c-.00113-1.79835-3.09279-3.25619-6.90553-3.25619a12.02711,12.02711,0,0,0-4.581.83619,5.25587,5.25587,0,0,0-1.17406-.14143c-2.066,0-3.7408,1.14724-3.7408,2.56241s1.67482,2.56241,3.7408,2.56241a5.25646,5.25646,0,0,0,1.17406-.14142,12.02731,12.02731,0,0,0,4.581.83618l.02586-.00125h5.637c4.005,0,7.27478-1.4569,7.27478-3.25793,0-1.7937-3.26983-3.25793-7.27478-3.25793H212.82c5.709-2.08652,18.18581-3.53614,32.64206-3.53614.11352,0,.22087.004.33384.00415-.19278.05313-.39454.1076-.56315.15693h.02586c-1.50959.415-2.72467.7491-2.72467.7491-.73512.20229-1.12292.43184-1.12292.66554v9.85973c-4.36632.0778-7.608.35109-7.608.67921,0,.01256.04383.02422.05339.0366-.00956.01237-.05339.024-.05339.03659,0,.38854,4.52481.70352,10.10734.70352,5.582,0,10.10735-.315,10.10735-.70352,0-.01255-.04384-.02422-.05339-.03659.00955-.01238.05339-.024.05339-.0366,0-.33331-3.34008-.61093-7.81038-.68359v-9.898c0-.20654.30237-.41021.8835-.59489,0,0,1.28252-.40963,2.76738-.88316,12.51278.26145,23.08323,1.61081,28.201,3.48114h-.8745c-4.00607,0-7.27477,1.46423-7.27477,3.25793,0,1.801,3.2687,3.25793,7.27477,3.25793h5.63592l.027.00125a12.02218,12.02218,0,0,0,4.58045-.83618,5.25748,5.25748,0,0,0,1.17462.14142c2.066,0,3.7408-1.14724,3.7408-2.56241S290.66864,194.43427,288.60266,194.43427Zm-75.35942,5.26308a5.70358,5.70358,0,0,0,2.49818-1.42974A5.69049,5.69049,0,0,1,213.24324,199.69735Zm2.68027-1.70446a2.33464,2.33464,0,0,1-.17872.27164A2.33126,2.33126,0,0,0,215.92351,197.99289Zm60.70253.3955a5.89545,5.89545,0,0,0,2.35935,1.309A5.87641,5.87641,0,0,1,276.626,198.38839Zm-.24167-.27526c.03822.0492.0562.10278.09892.15082C276.44057,198.21591,276.42259,198.16238,276.38437,198.11313Z" transform="translate(-17.28055 -55.02996)"/><ellipse class="cls-11" cx="219.34873" cy="144.13874" rx="8.96292" ry="3.92327"/><ellipse class="cls-41" cx="219.34873" cy="143.73061" rx="8.96292" ry="3.92327"/><path class="cls-42" d="M242.91807,123.2946c-.756,1.30776-7.50963,12.98263-7.50963,12.98263a7.41847,7.41847,0,0,0-.99577,3.71146v58.24355c0,.51732.95988.93646,2.14354.93646s2.14355-.41914,2.14355-.93646c0-.02592-.02941-.04785-.03389-.07326V139.75071a7.41349,7.41349,0,0,1,.78346-3.31748s5.98358-12.01752,6.40023-12.798C246.26521,122.85478,243.67462,121.98684,242.91807,123.2946Z" transform="translate(-17.28055 -55.02996)"/><path class="cls-11" d="M242.17,130.99736c-.24471.449-.449.89834-.69425,1.30651a32.37335,32.37335,0,0,0-3.47024-.20408h-.20384c.24471-.449.53028-.939.81635-1.42887A26.08345,26.08345,0,0,1,242.17,130.99736Z" transform="translate(-17.28055 -55.02996)"/><path class="cls-43" d="M271.15746,187.25784h-5.02171c-3.552,0-6.45107-8.12464-6.45107-18.16831,0-10.0028,2.89909-18.1683,6.45107-18.1683h5.02171c-3.389,0-6.12413,8.1655-6.12413,18.1683C265.03333,179.1332,267.76845,187.25784,271.15746,187.25784Z" transform="translate(-17.28055 -55.02996)"/><ellipse class="cls-44" cx="253.8769" cy="114.07086" rx="6.12413" ry="18.16415"/><ellipse class="cls-45" cx="258.98035" cy="114.07086" rx="3.31724" ry="14.28964"/><path class="cls-46" d="M206.00987,187.25784h5.02171c3.552,0,6.45107-8.12464,6.45107-18.16831,0-10.0028-2.89909-18.1683-6.45107-18.1683h-5.02171c3.389,0,6.12414,8.1655,6.12414,18.1683C212.134,179.1332,209.39888,187.25784,206.00987,187.25784Z" transform="translate(-17.28055 -55.02996)"/><ellipse class="cls-47" cx="188.72932" cy="114.07086" rx="6.12413" ry="18.16415"/><ellipse class="cls-48" cx="183.62588" cy="114.07086" rx="3.31724" ry="14.28964"/><path class="cls-49" d="M271.7291,151.003a2.40745,2.40745,0,0,0-.57164-.08173h-3.63371c-4.777-12.41149-16.20842-21.14864-29.51824-21.14864-13.35069,0-24.7821,8.73715-29.5591,21.14864h-2.44956a1.76743,1.76743,0,0,0-.776.16346,34.22539,34.22539,0,0,1,66.50823-.08173Z" transform="translate(-17.28055 -55.02996)"/><path class="cls-50" d="M267.52375,150.92123h-.61252c-5.06257-11.63576-16.12668-19.71978-28.90572-19.71978-12.81991,0-23.884,8.084-28.94659,19.71978h-.61251c4.777-12.41149,16.20841-21.14864,29.5591-21.14864C251.31533,129.77259,262.74675,138.50974,267.52375,150.92123Z" transform="translate(-17.28055 -55.02996)"/><path class="cls-10" d="M220.33212,286.53279a48.75155,48.75155,0,0,0,6.00791-3.212c5.02628-2.90985,11.2999-6.49988,18.74429-7.86024,9.33386-1.62492,14.9266,7.48244,16.62694,12.62174-.14946.04059-.29523.12754-.44377.18267a5.18414,5.18414,0,0,1,3.44819-.20159h.03782l15.10282,5.83539.60476.22673c3.28766,1.39819,5.93272,6.00837,5.81925,11.97915v.03783c-.03783,4.27021-1.549,8.1624-3.96761,10.27859l-15.98481,14.13341a5.57477,5.57477,0,0,1-5.25278,1.47361l-.94473-.34-.18913-.11348-14.23374-5.45736-.86908-.3402a7.2564,7.2564,0,0,1-1.83-1.34283c.01245.01176.0226.02767.03506.03921-3.85459-2.56965-12.43284-8.04915-19.87723-11.22356-5.21541-2.22944-8.27564-7.74676-8.23782-14.77553C215.00323,292.7303,217.19531,287.81773,220.33212,286.53279Zm38.961,2.90986-.07566.03782c-.643-1.73839-5.0641-12.735-13.64235-11.22355-6.95357,1.24711-12.96149,4.72367-17.79863,7.52027-.52865.34-1.02039.5667-1.51121.86908,1.09512,1.13364,2.8342,2.8342,5.5171,5.366,5.54846,5.28484,18.97632,2.80237,22.16894,2.15656l5.32243-4.70729a7.39765,7.39765,0,0,1,1.29532-.90852A6.405,6.405,0,0,0,259.29315,289.44265Zm-35.03079,21.19976c5.70622,2.41857,11.41245,5.32843,15.45525,7.48245a14.74353,14.74353,0,0,0,.95811,2.83189,16.87071,16.87071,0,0,1-1.35483-6.781c0-4.34563,1.51213-8.38912,3.93024-10.54314l8.28672-7.32929-1.692,1.4909a38.63228,38.63228,0,0,1-6.68878.60453c-4.49764,0-9.74995-.90691-13.33975-4.308-2.90985-2.79637-4.875-4.72367-6.16014-6.0462a20.10783,20.10783,0,0,1-2.229,1.09581c-1.776.718-3.62763,4.42152-3.66546,9.33408C217.7627,300.6662,218.17787,308.03494,224.26236,310.64241Zm17.84291,12.7682c-.06181-.08142-.12824-.15546-.18913-.23987C241.977,323.25469,242.04254,323.32942,242.10527,323.41061Zm-.81326-1.23027c-.10472-.18222-.21819-.351-.31553-.54364C241.0752,321.82814,241.18637,321.99882,241.292,322.18034Z" transform="translate(-17.28055 -55.02996)"/><path class="cls-51" d="M245.47935,322.69647c0,5.6684,2.41858,10.0521,5.47927,11.56353l.18913.11348.94474.34a5.57475,5.57475,0,0,0,5.25277-1.47361l15.98482-14.13341c2.41857-2.11619,3.92977-6.00838,3.9676-10.27859V308.79c.11348-5.97078-2.53159-10.581-5.81924-11.97915l-.60476-.22673a5.51969,5.51969,0,0,0-5.44145,1.436l-14.13317,12.50826-1.85164,1.66274C246.991,314.34518,245.47935,318.38866,245.47935,322.69647Z" transform="translate(-17.28055 -55.02996)"/><path class="cls-52" d="M230.33832,316.86116c0,5.6684,2.419,10.08992,5.51756,11.60135l.86908.34021L250.95862,334.26c-3.06069-1.51143-5.47927-5.89513-5.47927-11.56353,0-4.30781,1.51167-8.35129,3.96807-10.50531l1.85164-1.66274,14.13317-12.50826a5.51969,5.51969,0,0,1,5.44145-1.436l-15.10274-5.83531h-.03783a5.58323,5.58323,0,0,0-5.44191,1.39819l-16.02264,14.171C231.85045,308.472,230.33832,312.51552,230.33832,316.86116Z" transform="translate(-17.28055 -55.02996)"/><path class="cls-53" d="M205.9457,301.15981c-.03782,7.02876,3.02287,12.54609,8.23782,14.77553,7.44439,3.17441,16.02264,8.65391,19.87723,11.22355a12.43023,12.43023,0,0,1-3.32548-6.34858c-4.04326-2.154-9.74949-5.06387-15.45571-7.48244-6.08449-2.60748-6.49966-9.97621-6.49966-12.16806.03783-4.91257,1.88947-8.61608,3.66546-9.33409a20.15192,20.15192,0,0,0,2.22944-1.0958c1.28471,1.32253,3.24983,3.24982,6.15968,6.0462,3.5898,3.40113,8.84258,4.308,13.33975,4.308a38.62774,38.62774,0,0,0,6.68878-.60453l4.11845-3.62786c-3.17371.64235-16.62694,3.13658-22.18186-2.154-2.6829-2.53182-4.42152-4.23239-5.5171-5.366.49082-.30238.98256-.52911,1.51121-.86908,4.83714-2.79661,10.84552-6.27316,17.79863-7.52027,8.57825-1.51144,12.99977,9.48516,13.64236,11.22355l.07565-.03783a6.00629,6.00629,0,0,1,2.41811-1.36036c-1.70034-5.13929-7.29308-14.24665-16.62694-12.62174-7.44439,1.36036-13.718,4.9504-18.74383,7.86025a48.78631,48.78631,0,0,1-6.00837,3.212C208.21251,290.50319,206.02089,295.41576,205.9457,301.15981Z" transform="translate(-17.28055 -55.02996)"/><polygon class="cls-10" points="289.138 232.106 309.765 209.484 328.534 222.796 306.664 243.884 289.138 232.106"/><polygon class="cls-10" points="315.676 248.321 336.303 225.699 355.072 239.011 333.202 260.099 315.676 248.321"/><polygon class="cls-10" points="342.125 264.405 362.752 241.782 381.521 255.094 359.651 276.183 342.125 264.405"/><polygon class="cls-10" points="368.563 280.199 389.19 257.577 407.959 270.889 386.089 291.977 368.563 280.199"/><polygon class="cls-10" points="393.899 297.066 414.526 274.443 433.295 287.755 411.425 308.843 393.899 297.066"/><path class="cls-54" d="M431.39094,329.36679l-17.09959-12.30205c-.27016-.21353-.51268.37483-.59,1.43132l-2.45817,29.62849c-.11312,1.54567.1689,3.35493.56438,3.6207l17.52554,11.77757c.26686.17934.50232-.42261.57555-1.47145l2.03224-29.104C432.04673,331.43153,431.7764,329.67144,431.39094,329.36679Z" transform="translate(-17.28055 -55.02996)"/><path class="cls-55" d="M430.92074,329.9197l-17.09959-12.302c-.27015-.21352-.51267.37484-.59,1.43133L410.773,348.67746c-.11312,1.54567.16891,3.35494.56438,3.62071l17.52554,11.77756c.26687.17934.50232-.42261.57556-1.47144l2.03223-29.104C431.57654,331.98445,431.3062,330.22436,430.92074,329.9197Z" transform="translate(-17.28055 -55.02996)"/><path class="cls-56" d="M430.91953,329.91748l-17.10165-12.29971a.188.188,0,0,0-.11312-.05312l-.00654.00023c-.111.004-.21033.15049-.28594.41053a2.69333,2.69333,0,0,0-.10753.46112,5.52116,5.52116,0,0,0-.07628.603l-2.45214,29.6417c-.114,1.54763.16663,3.33811.56219,3.60954l17.52171,11.79885c.03261-.00118.06632.026.09893.02485.22865-.00827.417-.58657.48188-1.50354l2.02657-29.112C431.57614,331.98027,431.30306,330.21813,430.91953,329.91748Zm.071,2.68408-2.02657,29.112c-.01445.1434-.043.25869-.09531.26058l-17.52808-11.79844c-.04026-.02715-.064-.14056-.08018-.2258a1.98339,1.98339,0,0,1-.01686-.28513l2.46322-29.69933c.0079-.14333.04292-.25886.07552-.26l.02719.02762,17.095,12.30013c.04025.027.064.14056.0726.19729A1.39346,1.39346,0,0,1,430.99049,332.60156Z" transform="translate(-17.28055 -55.02996)"/><path class="cls-56" d="M430.91953,329.91748l-17.10165-12.29971a.188.188,0,0,0-.11312-.05312l-.00654.00023c-.111.004-.21033.15049-.28594.41053a2.69333,2.69333,0,0,0-.10753.46112,5.52116,5.52116,0,0,0-.07628.603l-2.45214,29.6417c-.114,1.54763.16663,3.33811.56219,3.60954l17.52171,11.79885c.03261-.00118.06632.026.09893.02485.22865-.00827.417-.58657.48188-1.50354l2.02657-29.112C431.57614,331.98027,431.30306,330.21813,430.91953,329.91748Zm.071,2.68408-2.02657,29.112c-.01445.1434-.043.25869-.09531.26058l-17.52808-11.79844c-.04026-.02715-.064-.14056-.08018-.2258a1.98339,1.98339,0,0,1-.01686-.28513l2.46322-29.69933c.0079-.14333.04292-.25886.07552-.26l.02719.02762,17.095,12.30013c.04025.027.064.14056.0726.19729A1.39346,1.39346,0,0,1,430.99049,332.60156Z" transform="translate(-17.28055 -55.02996)"/><path class="cls-57" d="M406.05472,312.7067l-17.09959-12.30205c-.27016-.21353-.51268.37483-.59,1.43132L385.907,331.46446c-.11312,1.54567.1689,3.35493.56438,3.6207l17.52554,11.77757c.26687.17934.50232-.42261.57555-1.47145l2.03224-29.104C406.71051,314.77144,406.44018,313.01135,406.05472,312.7067Z" transform="translate(-17.28055 -55.02996)"/><path class="cls-58" d="M405.58452,313.25961l-17.09959-12.30205c-.27015-.21352-.51267.37484-.59,1.43133l-2.45818,29.62848c-.11312,1.54567.16891,3.35494.56439,3.62071l17.52553,11.77756c.26687.17934.50232-.42261.57556-1.47144l2.03223-29.104C406.24032,315.32436,405.97,313.56427,405.58452,313.25961Z" transform="translate(-17.28055 -55.02996)"/><path class="cls-59" d="M405.58331,313.25739l-17.10165-12.29971a.188.188,0,0,0-.11312-.05312l-.00654.00023c-.111.004-.21033.15049-.28594.41053a2.69333,2.69333,0,0,0-.10753.46112,5.52363,5.52363,0,0,0-.07628.603l-2.45213,29.6417c-.114,1.54763.16663,3.33811.56219,3.60954l17.5217,11.79885c.03261-.00118.06633.026.09893.02485.22866-.00827.417-.58657.48188-1.50354l2.02657-29.112C406.23992,315.32018,405.96684,313.558,405.58331,313.25739Zm.071,2.68408-2.02657,29.112c-.01445.1434-.043.25869-.09531.26058l-17.52808-11.79844c-.04026-.02715-.064-.14056-.08017-.2258a1.98325,1.98325,0,0,1-.01687-.28513l2.46322-29.69933c.0079-.14333.04292-.25886.07552-.26l.02719.02762,17.095,12.30013c.04025.027.064.14056.0726.19729A1.393,1.393,0,0,1,405.65427,315.94147Z" transform="translate(-17.28055 -55.02996)"/><path class="cls-59" d="M405.58331,313.25739l-17.10165-12.29971a.188.188,0,0,0-.11312-.05312l-.00654.00023c-.111.004-.21033.15049-.28594.41053a2.69333,2.69333,0,0,0-.10753.46112,5.52363,5.52363,0,0,0-.07628.603l-2.45213,29.6417c-.114,1.54763.16663,3.33811.56219,3.60954l17.5217,11.79885c.03261-.00118.06633.026.09893.02485.22866-.00827.417-.58657.48188-1.50354l2.02657-29.112C406.23992,315.32018,405.96684,313.558,405.58331,313.25739Zm.071,2.68408-2.02657,29.112c-.01445.1434-.043.25869-.09531.26058l-17.52808-11.79844c-.04026-.02715-.064-.14056-.08017-.2258a1.98325,1.98325,0,0,1-.01687-.28513l2.46322-29.69933c.0079-.14333.04292-.25886.07552-.26l.02719.02762,17.095,12.30013c.04025.027.064.14056.0726.19729A1.393,1.393,0,0,1,405.65427,315.94147Z" transform="translate(-17.28055 -55.02996)"/><path class="cls-60" d="M379.617,296.84206,362.51744,284.54c-.27015-.21353-.51267.37483-.59,1.43132l-2.45818,29.62849c-.11312,1.54567.16891,3.35493.56439,3.6207l17.52553,11.77757c.26687.17934.50232-.42261.57556-1.47145l2.03223-29.104C380.27283,298.9068,380.00249,297.14671,379.617,296.84206Z" transform="translate(-17.28055 -55.02996)"/><path class="cls-61" d="M379.14684,297.395l-17.0996-12.30205c-.27015-.21352-.51267.37484-.59,1.43133l-2.45818,29.62848c-.11311,1.54567.16891,3.35494.56439,3.62071L377.089,331.551c.26686.17934.50231-.42261.57555-1.47144l2.03223-29.104C379.80263,299.45972,379.5323,297.69963,379.14684,297.395Z" transform="translate(-17.28055 -55.02996)"/><path class="cls-62" d="M379.14563,297.39275,362.044,285.093a.188.188,0,0,0-.11313-.05312l-.00654.00023c-.111.004-.21033.15049-.28594.41053a2.69341,2.69341,0,0,0-.10752.46112,5.521,5.521,0,0,0-.07629.603l-2.45213,29.6417c-.114,1.54763.16663,3.33811.56219,3.60954l17.52171,11.79885c.0326-.00118.06632.026.09893.02485.22865-.00827.41695-.58657.48188-1.50354l2.02657-29.112C379.80224,299.45554,379.52915,297.6934,379.14563,297.39275Zm.071,2.68408-2.02657,29.112c-.01445.1434-.043.25869-.0953.26058L359.56663,317.651c-.04026-.02715-.064-.14056-.08018-.2258a1.98325,1.98325,0,0,1-.01687-.28513l2.46322-29.69933c.0079-.14333.04292-.25886.07553-.26l.02718.02762,17.095,12.30013c.04025.027.064.14056.0726.19729A1.39262,1.39262,0,0,1,379.21658,300.07683Z" transform="translate(-17.28055 -55.02996)"/><path class="cls-62" d="M379.14563,297.39275,362.044,285.093a.188.188,0,0,0-.11313-.05312l-.00654.00023c-.111.004-.21033.15049-.28594.41053a2.69341,2.69341,0,0,0-.10752.46112,5.521,5.521,0,0,0-.07629.603l-2.45213,29.6417c-.114,1.54763.16663,3.33811.56219,3.60954l17.52171,11.79885c.0326-.00118.06632.026.09893.02485.22865-.00827.41695-.58657.48188-1.50354l2.02657-29.112C379.80224,299.45554,379.52915,297.6934,379.14563,297.39275Zm.071,2.68408-2.02657,29.112c-.01445.1434-.043.25869-.0953.26058L359.56663,317.651c-.04026-.02715-.064-.14056-.08018-.2258a1.98325,1.98325,0,0,1-.01687-.28513l2.46322-29.69933c.0079-.14333.04292-.25886.07553-.26l.02718.02762,17.095,12.30013c.04025.027.064.14056.0726.19729A1.39262,1.39262,0,0,1,379.21658,300.07683Z" transform="translate(-17.28055 -55.02996)"/><path class="cls-63" d="M353.168,280.60951,336.0684,268.30746c-.27016-.21352-.51268.37484-.59,1.43133l-2.45817,29.62848c-.11312,1.54567.1689,3.35494.56438,3.62071l17.52554,11.77756c.26686.17934.50232-.42261.57555-1.47144l2.03224-29.104C353.82378,282.67426,353.55345,280.91417,353.168,280.60951Z" transform="translate(-17.28055 -55.02996)"/><path class="cls-64" d="M352.69779,281.16243l-17.09959-12.302c-.27015-.21353-.51267.37483-.59,1.43132L332.55,299.92019c-.11312,1.54567.16891,3.35493.56438,3.6207L350.64,315.31846c.26687.17934.50232-.42261.57556-1.47145l2.03223-29.104C353.35359,283.22718,353.08325,281.46709,352.69779,281.16243Z" transform="translate(-17.28055 -55.02996)"/><path class="cls-65" d="M352.69658,281.16021,335.59493,268.8605a.188.188,0,0,0-.11312-.05313l-.00654.00024c-.111.004-.21033.15048-.28594.41053a2.6932,2.6932,0,0,0-.10753.46111,5.52181,5.52181,0,0,0-.07628.603L332.55339,299.924c-.114,1.54763.16662,3.33811.56218,3.60953l17.52171,11.79886c.03261-.00118.06632.026.09893.02485.22865-.00827.417-.58658.48188-1.50355l2.02657-29.112C353.35319,283.223,353.08011,281.46086,352.69658,281.16021Zm.071,2.68408-2.02657,29.112c-.01445.14339-.043.25869-.09531.26058l-17.52808-11.79845c-.04026-.02715-.064-.14055-.08018-.22579a1.98353,1.98353,0,0,1-.01686-.28514l2.46322-29.69932c.0079-.14334.04292-.25886.07552-.26l.02719.02762,17.095,12.30013c.04025.027.064.14055.0726.19728A1.39356,1.39356,0,0,1,352.76754,283.84429Z" transform="translate(-17.28055 -55.02996)"/><path class="cls-65" d="M352.69658,281.16021,335.59493,268.8605a.188.188,0,0,0-.11312-.05313l-.00654.00024c-.111.004-.21033.15048-.28594.41053a2.6932,2.6932,0,0,0-.10753.46111,5.52181,5.52181,0,0,0-.07628.603L332.55339,299.924c-.114,1.54763.16662,3.33811.56218,3.60953l17.52171,11.79886c.03261-.00118.06632.026.09893.02485.22865-.00827.417-.58658.48188-1.50355l2.02657-29.112C353.35319,283.223,353.08011,281.46086,352.69658,281.16021Zm.071,2.68408-2.02657,29.112c-.01445.14339-.043.25869-.09531.26058l-17.52808-11.79845c-.04026-.02715-.064-.14055-.08018-.22579a1.98353,1.98353,0,0,1-.01686-.28514l2.46322-29.69932c.0079-.14334.04292-.25886.07552-.26l.02719.02762,17.095,12.30013c.04025.027.064.14055.0726.19728A1.39356,1.39356,0,0,1,352.76754,283.84429Z" transform="translate(-17.28055 -55.02996)"/><path class="cls-66" d="M326.59158,264.4259,309.492,252.12385c-.27016-.21352-.51268.37484-.59,1.43133l-2.45818,29.62848c-.11311,1.54567.16891,3.35494.56439,3.62071l17.52554,11.77756c.26686.17934.50232-.42261.57555-1.47144l2.03223-29.104C327.24737,266.49065,326.977,264.73056,326.59158,264.4259Z" transform="translate(-17.28055 -55.02996)"/><path class="cls-67" d="M326.12138,264.97882l-17.09959-12.302c-.27015-.21353-.51268.37483-.59,1.43132l-2.45818,29.62849c-.11312,1.54567.16891,3.35493.56438,3.6207l17.52554,11.77757c.26687.17934.50232-.42261.57556-1.47145l2.03223-29.104C326.77717,267.04357,326.50684,265.28348,326.12138,264.97882Z" transform="translate(-17.28055 -55.02996)"/><path class="cls-68" d="M326.12017,264.9766l-17.10165-12.29971a.188.188,0,0,0-.11312-.05313l-.00654.00024c-.111.004-.21034.15048-.28594.41053a2.6932,2.6932,0,0,0-.10753.46111,5.52407,5.52407,0,0,0-.07629.603L305.977,283.74038c-.114,1.54763.16663,3.33811.56219,3.60953l17.52171,11.79886c.03261-.00118.06632.026.09893.02485.22865-.00827.417-.58658.48188-1.50355l2.02657-29.112C326.77678,267.03939,326.5037,265.27725,326.12017,264.9766Zm.071,2.68408-2.02656,29.112c-.01445.14339-.043.25869-.09531.26058l-17.52808-11.79845c-.04026-.02715-.064-.14055-.08018-.22579a1.98353,1.98353,0,0,1-.01686-.28514l2.46321-29.69932c.00791-.14334.04292-.25886.07553-.26l.02719.02762,17.095,12.30013c.04026.027.064.14055.0726.19728A1.39272,1.39272,0,0,1,326.19112,267.66068Z" transform="translate(-17.28055 -55.02996)"/><path class="cls-68" d="M326.12017,264.9766l-17.10165-12.29971a.188.188,0,0,0-.11312-.05313l-.00654.00024c-.111.004-.21034.15048-.28594.41053a2.6932,2.6932,0,0,0-.10753.46111,5.52407,5.52407,0,0,0-.07629.603L305.977,283.74038c-.114,1.54763.16663,3.33811.56219,3.60953l17.52171,11.79886c.03261-.00118.06632.026.09893.02485.22865-.00827.417-.58658.48188-1.50355l2.02657-29.112C326.77678,267.03939,326.5037,265.27725,326.12017,264.9766Zm.071,2.68408-2.02656,29.112c-.01445.14339-.043.25869-.09531.26058l-17.52808-11.79845c-.04026-.02715-.064-.14055-.08018-.22579a1.98353,1.98353,0,0,1-.01686-.28514l2.46321-29.69932c.00791-.14334.04292-.25886.07553-.26l.02719.02762,17.095,12.30013c.04026.027.064.14055.0726.19728A1.39272,1.39272,0,0,1,326.19112,267.66068Z" transform="translate(-17.28055 -55.02996)"/><path class="cls-69" d="M218.30927,283.52643s-9.41533,4.26168-12.19038,16.55116l-9.118,10.30731,9.51444,9.81176s15.85739-5.05455,15.461-12.68592S220.88609,284.51752,218.30927,283.52643Z" transform="translate(-17.28055 -55.02996)"/><path d="M93.06063,649.13847c.37166-.223,22.89411-14.42032,28.32032-6.91283s1.76851,11.893-1.38286,13.9-16.45671,11.07539-18.092,10.55507-3.49358-.84893-4.68288.02152,0,4.587-3.71658,5.55335-17.68934,8.6147-23.19144,2.52727c-3.49358-3.86524.14866-18.13689.14866-18.13689Z" transform="translate(-17.28055 -55.02996)"/><path d="M74.55208,633.52885l-20.14385,9.14278L33.228,647.4388s-5.13312,22.36384,7.42891,21.3232,15.89159-7.48647,24.00909-10.18659,10.52676-3.50057,10.52676-3.50057Z" transform="translate(-17.28055 -55.02996)"/><path class="cls-69" d="M99.8248,195.27013s1.08808,12.48769.61837,14.569,2.20623,3.41925,2.05757,7.43315-.14867,33.0032-7.43316,34.34117a54.754,54.754,0,0,1-12.04171,1.04064l1.18931,8.02781L50.766,255.33l-1.48663-17.24492Z" transform="translate(-17.28055 -55.02996)"/><path class="cls-70" d="M117.21838,434.76633s4.45989,107.03741,2.08128,116.25452S94.02694,646.859,94.02694,646.859s1.58574,19.02887-7.9287,18.236-16.05561-4.75721-16.05561-8.52334,15.461-97.91941,14.07344-102.87485-13.08235-69.77253-13.08235-69.77253l-14.46987,156.79s2.37861,12.09126-6.343,12.88413-16.05561-.99108-16.84848-4.559-9.31622-216.45342-9.31622-216.45342Z" transform="translate(-17.28055 -55.02996)"/><path class="cls-71" d="M40.58257,256.891l9.64364-7.82236s34.58362,8.64,35.99592,10.34963,6.98716,13.52834,6.98716,13.52834S59.23978,267.14872,40.58257,256.891Z" transform="translate(-17.28055 -55.02996)"/><path class="cls-72" d="M43.71936,255.99287c-16.39841-1.11935-22.72271,19.36467-22.72271,19.36467s-7.24777,40.47833-1.49946,89.83447.19822,66.99749,1.1893,68.385,22.00214,18.83066,50.149,17.24492S125.94,437.34316,125.94,434.17168s-12.28948-22.20036-12.4877-36.27379,6.343-50.34723,6.343-50.34723,15.06452,34.29162,29.33617,35.2827,62.04206-52.13118,62.24028-55.89731-11.2984-17.83957-13.677-17.83957-42.815,36.472-45.19357,34.88627-26.98624-58.63287-46.72965-68.385C85.30537,265.48865,43.71936,255.99287,43.71936,255.99287Z" transform="translate(-17.28055 -55.02996)"/><path class="cls-73" d="M68.15957,169.10543c-19.92085,0-39.54438,14.569-39.54438,31.51657s15.75829,39.54437,19.77219,42.96362,20.06951,6.54118,24.23208,2.67594,8.77112-13.677,8.32513-17.69091-.29732-10.55507,3.27059-10.70374,3.71658,7.13583,6.39251,6.68984,6.8385-27.94866,9.21711-29.28662S98.93282,168.36211,68.15957,169.10543Z" transform="translate(-17.28055 -55.02996)"/><path class="cls-74" d="M376.57092,73.4054c.04564,0-17.748,11.77891-17.748,11.77891l2.58968,34.33425,22.97305-.83538S403.01468,92.118,402.597,91.032,376.57092,73.4054,376.57092,73.4054Z" transform="translate(-17.28055 -55.02996)"/><path d="M442.58638,256.30188,369.9796,214.38234c-.06118-.48906-.20249-1.59572-.26293-2.0236-.42751-3.60623-.79458-7.33444-.97812-11.185a191.27567,191.27567,0,0,1,1.09974-35.14383,1.694,1.694,0,0,1,.55061.06117c12.77381,1.10011,28.48125,6.66184,41.86685,12.40711,10.51316,4.52317,19.55875,9.168,24.50906,11.79643,2.5673,1.40564,4.03411,2.20022,4.03411,2.20022v.122C441.47115,194.32835,449.22771,214.529,442.58638,256.30188Z" transform="translate(-17.28055 -55.02996)"/><path class="cls-75" d="M356.9482,116.649s2.07027,12.5099-.99607,16.47256-21.08705,20.66247-20.521,21.98336,4.24571,3.96267,4.67028,5.00051.7548,13.775.7548,13.775-1.27372,3.91549-3.67962,0c-.09435-3.49092-1.41524-10.18971-4.43441-9.57644s-5.99117,8.633-2.26438,14.01085c2.45308,4.19854-4.38616,4.47965-7.21771-1.69828-1.03785-2.26439-4.52877-2.92483-8.06686-2.87765s-6.17987-6.98184-3.25505-10.51994,10.33124-8.7273,11.65213-12.83149,12.59561-24.10621,12.21822-28.72932-1.27372-10.75581-1.27372-10.75581Z" transform="translate(-17.28055 -55.02996)"/><path class="cls-72" d="M357.41454,116.61045s-15.99219,1.60393-23.54012-5.04768C333.26115,110.99667,336.186,98.92,336.186,98.92l23.25708,7.73663Z" transform="translate(-17.28055 -55.02996)"/><path class="cls-76" d="M361.28728,104.39813s2.38084,10.0246,7.39314,10.40052,20.0492-10.77645,19.29736-27.44235-21.42759-7.76906-21.42759-7.76906l4.25788-11.36114s53.22261,15.46748,59.649,26.89927c8.31206,14.78629,17.25558,22.21923,10.73959,97.15312-.33415,2.25553-52.50548,5.14921-64.68447-10.69094-10.21256-13.2826-6.57864-16.11365-6.57864-16.11365s.70916-16.51206.27059-18.0784-11.73623-17.4973-12.98931-30.404,2.31819-13.97179,2.31819-13.97179Z" transform="translate(-17.28055 -55.02996)"/><path class="cls-77" d="M329.95893,182.18313H308.91906l14.62412,25.2384,20.85117,2.12286Z" transform="translate(-17.28055 -55.02996)"/><path class="cls-75" d="M437.344,154.14662l-.06118,1.65035-1.40564,34.77713L435.816,191.613a14.68344,14.68344,0,0,1-.18279,1.95588c-.673,4.5228-3.85132,15.52427-18.58063,16.1965-14.73006.7334-36.85536,1.71153-48.22354,2.87282-1.71153.18316-3.17834.3667-4.34.54986-.06118.06118-.06118.06118-.06118,0a18.56677,18.56677,0,0,0-2.1383.42789c-5.37931,1.65035-24.14273,6.05079-31.17164,2.50611-5.07267-2.6281-11.49054-8.74007-14.119-12.65182-.97738-1.46681-1.40564-2.6281-1.09974-3.23952.61179-1.10011,2.2614-.18317,4.15572,1.22246a62.39625,62.39625,0,0,0,5.624,3.91176c.06043.06117.18279.06117.244.12235a14.74176,14.74176,0,0,0,5.5621,1.10011c3.54468.24435,7.21171-.24471,7.88468-.79458.54913-.42788.9162-2.2614.9162-3.97293v-.06118c0-1.528-.30589-2.87245-1.03856-3.178-.18353-.06118-.42825-.12236-.79533-.24472-2.87244-.79459-10.93992-2.44456-10.69595-4.27845.18354-1.34446,3.54542-2.07787,7.45718-1.8947a22.78653,22.78653,0,0,1,6.41712,1.10048c5.62328,2.01668,14.91359,11.06265,19.19242,9.90137.855-.24472,3.42232-.85577,7.02817-1.71154,8.86206-2.20022,24.01963-5.98961,33.98291-9.04559,5.68372-1.71153,9.65665-3.17835,9.83944-3.97293a77.76244,77.76244,0,0,0-.30515-9.657c-.54987-8.43418-1.58917-19.80273-1.89432-23.46976-.06118-.73341-.12236-1.16129-.12236-1.16129Z" transform="translate(-17.28055 -55.02996)"/><path class="cls-75" d="M373.75537,83.84769c1.38033,3.34634-2.31818,7.4558-4.57372,8.89684S365.35977,110.78881,355.0219,111.29s-32.01607-21.55289-32.01607-21.55289l32.01607-6.6413s9.23295,3.90468,10.145,1.3258S371.87109,79.27962,373.75537,83.84769Z" transform="translate(-17.28055 -55.02996)"/><path class="cls-72" d="M421.64373,101.22367c-14.20152,0-19.04675,16.7912-14.61921,54.0493l31.99518.50123C440.22827,117.263,435.84524,101.22367,421.64373,101.22367Z" transform="translate(-17.28055 -55.02996)"/><path class="cls-73" d="M321.648,60.87457c-3.9261,2.82451-4.03138,3.69706-5.26291,7.26784-1.26483,3.66671-1.91682,16.54059-1.00246,19.04674a8.36074,8.36074,0,0,0,6.516,5.17945c3.07688.36,3.76509-1.81084,7.51845-2.00492,3.82579-.19775,4.22129,1.99979,8.27029,2.339,5.26194.44078,12.65281-4.77156,19.966,1.42023,2.91819,2.47072,12.18224-9.08553,14.45246-10.693.31816-.22541,1.28982-3.5808,3.42442-5.68044C380.7134,72.65119,347.0932,42.56884,321.648,60.87457Z" transform="translate(-17.28055 -55.02996)"/><path class="cls-75" d="M418.70155,354.66685c1.6389,2.0031,6.3735,7.1626,5.6451,11.0474s-17.20845,24.0979-17.20845,24.0979V407.749s9.8334-2.7315,19.94-25.6761,15.75164-26.2224,18.39209-28.5897-3.41276-7.44146-4.98954-6.01894-5.03881,5.57012-5.38159,4.40468,2.86219-4.936,2.14236-5.433-4.541.78758-6.38475,4.38405-4.41592,7.89859-6.03206,6.87428-4.66631-5.21262-5.55405-4.1883S418.70155,354.66685,418.70155,354.66685Z" transform="translate(-17.28055 -55.02996)"/><path class="cls-78" d="M286.8641,366.2151s-8.65269,34.6141-6.64959,36.9814,17.8458,13.2933,17.8458,13.2933l1.912-37.42155Z" transform="translate(-17.28055 -55.02996)"/><path class="cls-75" d="M366.8941,285.01361c.091,5.91825-4.09725,7.375-4.1883,10.1976s1.72995,6.3735,0,8.9229-8.3766,12.29175-8.3766,12.29175l-17.29949-24.12825Z" transform="translate(-17.28055 -55.02996)"/><path class="cls-79" d="M369.83805,658.34892s5.7665-1.6996,6.1307,4.3097-2.9136,11.2295-13.6575,14.1431-28.65039,8.9836-32.29239,2.9136-2.65322-10.856-2.65322-10.856Z" transform="translate(-17.28055 -55.02996)"/><path class="cls-79" d="M297.26017,653.25282s-.44421,12.6591,7.02189,11.4696,14.8108-5.6451,17.9672-12.2614,5.5237-15.3571,4.3704-17.2388-3.12459-4.60714-5.2809-2.7922-3.8241,3.3385-3.8241,3.3385Z" transform="translate(-17.28055 -55.02996)"/><path class="cls-78" d="M355.98738,661.80782s13.72927-6.03865,17.82652-1.5772-4.0062,14.84115-24.85664,15.93375-21.3057-1.821-21.57885-7.01085a83.34566,83.34566,0,0,1,.9105-13.1112Z" transform="translate(-17.28055 -55.02996)"/><path class="cls-78" d="M314.03958,637.14945c.13658,0,7.07765-6.08518,8.89862-3.08053s2.45242,15.28123-6.33391,21.9734-17.08718,7.288-18.45293,2.91755-.95583-12.505-.95583-12.505Z" transform="translate(-17.28055 -55.02996)"/><path class="cls-75" d="M346.95416,610.51732s-2.64045,45.3429-1.0926,46.6176,5.2809,4.7346,9.65129,4.64355,7.8303,6.28245,0,6.3735-16.33121.74025-19.93994,0c-3.55095-.7284-7.01085-1.821-7.55715-7.73925s-6.9198-32.50485-4.5525-50.71484S346.95416,610.51732,346.95416,610.51732Z" transform="translate(-17.28055 -55.02996)"/><path class="cls-75" d="M318.72866,637.10392c7.19295,4.46145-11.95315,32.7081-20.9415,17.2995-1.2747-2.1852-.81945-63.09764-.81945-63.09764l1.54785-76.93724,30.7749,26.95079-10.9867,66.1023s-5.2809,27.315-3.7027,29.80369C315.51915,638.74282,318.023,636.717,318.72866,637.10392Z" transform="translate(-17.28055 -55.02996)"/><path class="cls-69" d="M285.40436,405.0175c.1821,8.28555-2.24076,42.88454-5.49078,49.258s-6.801,9.014-6.25467,14.84115,4.96137,12.656,5.84954,11.56335,24.65221-59.63774,24.65221-59.63774Z" transform="translate(-17.28055 -55.02996)"/><path class="cls-79" d="M375.96875,597.95243c-1.8817,2.428-25.12979,32.89939-74.17539,4.0062-2.428-1.214,3.3992-77.696,3.3992-77.696s-6.7377,72.233-8.0124,73.447-27.4364-12.14-28.1041-17.4816,4.7953-117.39379,14.2645-133.41859,16.5104-26.95079,16.5104-26.95079l62.62412,9.66145.38247,2.96415a281.45858,281.45858,0,0,1,7.74087,52.0891C371.96255,512.60824,375.96875,597.95243,375.96875,597.95243Z" transform="translate(-17.28055 -55.02996)"/><path class="cls-78" d="M360.91515,417.43065l1.9424,15.0536s-14.68939,14.32519-25.25119,14.32519-36.7842-15.66059-39.6978-23.91579a27.86124,27.86124,0,0,1-.7284-15.6606Z" transform="translate(-17.28055 -55.02996)"/><path class="cls-79" d="M292.825,338.27786c-4.14281,2.1852-8.149,31.32119-5.23541,54.99419.81945,5.3416,8.04275,8.04275,8.04275,8.04275s-1.1533,6.95015,1.97275,9.19605,26.6473,21.3664,41.276,20.5166,18.39209-7.7696,18.39209-7.9517,11.7151-7.9517,11.3509-34.5383-32.89939-52.74829-32.89939-52.74829Z" transform="translate(-17.28055 -55.02996)"/><path class="cls-78" d="M351.097,324.62036c16.43449,9.105,16.43449,9.4692,27.54259,26.22239s28.9539,35.8737,28.9539,35.8737v21.6699s.1821,21.6699-7.6482,21.1236-46.4355-60.8214-46.4355-60.8214-21.30569-34.78109-9.65129-42.61139S351.097,324.62036,351.097,324.62036Z" transform="translate(-17.28055 -55.02996)"/><path class="cls-80" d="M342.58376,255.96867c-39.78885,0-33.5064,40.30479-36.1772,47.346s-16.996,9.4692-16.996,22.5804,6.3128,20.1524,11.1688,20.1524,10.926.9712,14.0824,4.1276,14.35562,15.53919,21.86721,15.53919,12.12479-3.3992,12.12479-8.7408-4.3704-16.26759-2.6708-20.638,11.65439-9.4692,11.65439-13.5968-5.40229-16.96565-5.40229-16.96565-6.03834-11.94822.72839-14.2038c3.2778-1.0926,4.27935,3.62276,5.73615,2.4032s12.83805-6.7736,11.8365-17.79065S356.8786,255.96867,342.58376,255.96867Z" transform="translate(-17.28055 -55.02996)"/><path class="cls-81" d="M529.23062,696.05743q-5.01729-.36253-15.25508,4.84334a31.81946,31.81946,0,0,1-6.448,14.02731q-6.77186,8.93259-18.56123,15.8931a80.22988,80.22988,0,0,1-20.68824,8.88429q-10.0491,2.61016-17.78781,1.15041l21.98352,8.79725q7.74366,1.46461,17.79747-1.16009a80.12415,80.12415,0,0,0,20.67857-8.8746,68.448,68.448,0,0,0,14.31738-10.98208,104.85372,104.85372,0,0,0,8.42965-11.75552,25.80664,25.80664,0,0,0,2.58134-11.01105Q536.27815,696.57461,529.23062,696.05743Z" transform="translate(-17.28055 -55.02996)"/><path class="cls-82" d="M554.361,661.22415q13.6315,4.06074,13.63057,24.76121,0,13.37149-6.18653,27.96083-6.18984,14.55733-18.85131,28.458a130.69581,130.69581,0,0,1-31.2253,24.64062,129.34993,129.34993,0,0,1-28.13251,12.41443q-13.82551,4.13616-23.49144,2.56605l12.374-32.37406q7.73056,1.46109,17.78828-1.15448a80.42,80.42,0,0,0,20.68753-8.87492q11.792-6.96166,18.56147-15.90116,6.76618-8.95586,6.76714-17.84816,0-9.30178-7.057-9.81969-7.06074-.4941-24.45817,10.00188l-34.60887,20.93189,6.95972-84.03714L559.678,590.92292V618.006l-56.45762,35.01926-2.12606,28.48913,11.0202-6.75178Q540.72713,657.26078,554.361,661.22415Z" transform="translate(-17.28055 -55.02996)"/><polygon class="cls-83" points="455.193 694.623 447.556 714.615 442.829 726.999 420.835 718.202 433.21 685.826 455.193 694.623"/><polygon class="cls-84" points="542.402 535.895 520.409 549.748 459.834 587.915 437.85 579.127 520.409 527.098 542.402 535.895"/><path class="cls-85" d="M554.80068,661.371c-.14492-.058-.28983-.09665-.435-.145a24.67879,24.67879,0,0,0-11.53306-.116q-9.01958,1.72561-21.423,8.32362-4.437,2.34915-9.29985,5.32665l-11.011,6.75751,1.68187-22.60223q19.17063-9.52717,29.59182-6.4868c.34812.10632.696.22233,1.03447.33833h.00967l1.03448.41575Z" transform="translate(-17.28055 -55.02996)"/><path class="cls-86" d="M809.9218,575.15773c-1.62429-.48336-3.54808-.087-5.76193,1.16977a18.37006,18.37006,0,0,0-6.67037,6.76714,17.935,17.935,0,0,0-2.7069,9.34829c0,3.14189.899,5.259,2.7069,6.3321.03871.01935.07741.04832.11612.06768l-20.64953-8.27524-1.45978-.58969c-1.798-1.07312-2.7069-3.19027-2.7069-6.33216a17.96906,17.96906,0,0,1,2.7069-9.33862,18.54562,18.54562,0,0,1,6.67037-6.77681q3.9736-2.24763,6.6706-.8024Z" transform="translate(-17.28055 -55.02996)"/><path class="cls-87" d="M797.48692,598.77738q-2.70761-1.61776-2.70667-6.33628a17.932,17.932,0,0,1,2.70667-9.34257,18.46712,18.46712,0,0,1,6.66989-6.77061q3.96371-2.25267,6.67084-.80037,2.70479,1.46022,2.70667,6.31532a18.68409,18.68409,0,0,1-2.70667,9.42758,17.95394,17.95394,0,0,1-6.67084,6.90532Q800.1917,600.40352,797.48692,598.77738Z" transform="translate(-17.28055 -55.02996)"/><path class="cls-88" d="M736.48736,576.13351l14.98437-8.76337v23.2692l22.62194-13.03607v-23.433l15.08066-8.77926v60.31246l-15.08066,8.49973v-22.4283l-22.62194,12.937V626.9834l-14.98437,8.48516Z" transform="translate(-17.28055 -55.02996)"/><polygon class="cls-89" points="719.208 521.104 719.208 580.442 697.225 571.645 697.225 512.307 719.208 521.104"/><polygon class="cls-90" points="734.192 512.336 719.208 521.104 697.225 512.307 712.209 503.548 734.192 512.336"/><polygon class="cls-91" points="756.814 499.14 756.814 522.574 734.831 513.776 734.831 490.343 756.814 499.14"/><polygon class="cls-92" points="771.895 490.362 756.814 499.14 734.831 490.343 749.912 481.565 771.895 490.362"/><polygon class="cls-93" points="756.814 522.574 742.294 530.936 734.831 535.238 734.192 535.605 734.192 514.144 734.831 513.776 756.814 522.574"/><polygon class="cls-94" points="756.814 536.746 756.814 559.174 734.831 550.377 734.831 549.313 756.814 536.746"/><path class="cls-95" d="M682.35144,607.93l-.7732,23.859q-.2903,7.22146-.8702,11.83281a28.74064,28.74064,0,0,1-2.27168,8.35259,12.14626,12.14626,0,0,1-5.07535,5.6844,23.19459,23.19459,0,0,1-2.22354,1.06338l-8.1882-3.27724-13.79531-5.52a24.37248,24.37248,0,0,0,2.22354-1.06344,12.14569,12.14569,0,0,0,5.07535-5.6844,28.96176,28.96176,0,0,0,2.27168-8.35259q.58026-4.61131.8702-11.82313l.77344-23.86866,14.09481,5.63608Z" transform="translate(-17.28055 -55.02996)"/><polygon class="cls-96" points="653.857 603.692 653.083 617.961 631.1 609.164 631.873 594.895 645.669 600.415 653.857 603.692"/><polygon class="cls-97" points="709.541 526.769 687.557 539.685 680.297 543.958 672.476 548.55 665.071 552.9 657.182 549.739 643.088 544.103 687.557 517.972 709.541 526.769"/><path class="cls-98" d="M711.74028,604.65278v44.86608l-18.36794-7.34715c.1933-1.2181.35757-2.48451.50273-3.78958q.71053-6.11947.94738-13.52465l.48336-10.62439,9.5321-5.55872Z" transform="translate(-17.28055 -55.02996)"/><polygon class="cls-99" points="585.702 599.874 585.702 656.718 563.719 647.93 563.719 591.076 585.702 599.874"/><polygon class="cls-100" points="601.46 590.516 585.702 599.874 563.719 591.076 579.476 581.718 601.46 590.516"/><polygon class="cls-101" points="614.511 634.608 599.333 628.537 599.333 614.597 614.511 634.608"/><polygon class="cls-102" points="635.779 570.185 627.929 589.578 618.088 613.862 614.472 608.787 601.798 590.999 613.796 561.388 635.779 570.185"/><polygon class="cls-103" points="636.456 592.99 636.456 627.58 624.265 622.698 636.456 592.99"/><polygon class="cls-104" points="649.893 561.842 635.779 570.185 613.796 561.388 627.91 553.045 649.893 561.842"/><path class="cls-105" d="M452.75862,772.49594v26.519L350.47746,859.2573V838.91066l52.20361-81.55129q8.31117-13.21005,11.21467-20.85405a38.57992,38.57992,0,0,0,2.9002-13.399q0-8.33349-5.51057-9.34316-5.51008-.99445-16.14464,5.69972a76.87158,76.87158,0,0,0-28.03527,31.31858l-22.81453-.38766a135.55966,135.55966,0,0,1,21.8478-32.42649,152.45681,152.45681,0,0,1,31.90221-27.13428q15.0816-9.62928,26.39163-11.7636,11.31192-2.09911,17.59474,3.24148,6.28047,5.37,6.28377,18.01234a71.80985,71.80985,0,0,1-4.64013,24.31195q-4.64061,12.85446-17.98087,33.73874l-31.129,48.854Z" transform="translate(-17.28055 -55.02996)"/><path class="cls-106" d="M653.73723,682.60777V648.01593L638.1732,685.968l-6.381,3.67275L616.61429,669.624v34.28339l-13.63057,7.844V654.90191l15.75757-9.36085,16.628,23.352,17.691-43.68088,14.11488-8.33751.19259,57.93595Z" transform="translate(-17.28055 -55.02996)"/><path class="cls-107" d="M726.821,581.79517v59.15548l-15.08066,8.56566V604.64843l-16.43447,9.58547-.48337,10.62288a141.16517,141.16517,0,0,1-1.93346,20.26789,48.76048,48.76048,0,0,1-5.02721,14.83654,24.95393,24.95393,0,0,1-9.66733,9.85583,35.479,35.479,0,0,1-7.83017,3.1736l.7732-14.27044a24.33286,24.33286,0,0,0,2.2233-1.06352,12.13624,12.13624,0,0,0,5.07535-5.68124,28.89233,28.89233,0,0,0,2.27239-8.35238q.57919-4.61481.86949-11.82977l.7732-23.86758Z" transform="translate(-17.28055 -55.02996)"/><path class="cls-108" d="M437.449,679.64231c-3.56743-1.32442-7.89837-1.52746-13.0122-.5704-.10644.01935-.21265.03865-.31909.06768Q412.923,681.32926,398.04493,690.837a152.47482,152.47482,0,0,0-25.0383,19.92442q-3.553,3.48019-6.86391,7.20212a135.49913,135.49913,0,0,0-21.84827,32.434l-21.99319-8.79731A135.54693,135.54693,0,0,1,344.14954,709.176a152.20845,152.20845,0,0,1,31.9022-27.13622q15.08091-9.62869,26.39188-11.76513a25.62814,25.62814,0,0,1,11.8328.18368l2.91956,1.15042.04815.029Z" transform="translate(-17.28055 -55.02996)"/><polygon class="cls-109" points="333.201 783.882 333.201 804.231 311.208 795.434 311.208 775.084 331.78 783.311 333.201 783.882"/><path class="cls-110" d="M416.79947,723.10661a28.3501,28.3501,0,0,1-.42531,4.69837,48.22338,48.22338,0,0,1-2.47489,8.7006q-2.90021,7.642-11.214,20.85239L378.749,794.74154l-3.13221,4.911-23.69465,37.00659-1.44042,2.25245-1.42107-.57034-20.57212-8.22691,52.20361-81.55363q8.30905-13.21039,11.214-20.85245a48.18672,48.18672,0,0,0,2.26224-7.60819c.31886-.22233.64764-.435.97641-.638q10.62935-6.685,16.1444-5.69408Q416.79959,714.76856,416.79947,723.10661Z" transform="translate(-17.28055 -55.02996)"/><polygon class="cls-111" points="435.482 717.467 413.488 730.595 377.284 752.202 399.819 716.829 413.488 708.67 435.482 717.467"/><polygon class="cls-112" points="452.878 671.957 430.892 663.161 437.852 579.123 459.838 587.92 452.878 671.957"/></svg>