<svg id="Слой_1" data-name="Слой 1" xmlns="http://www.w3.org/2000/svg" xmlns:xlink="http://www.w3.org/1999/xlink" viewBox="0 0 960.13289 976.44659"><defs><style>.cls-1{fill:url(#Безымянный_градиент_81);}.cls-2{fill:url(#Безымянный_градиент_81-2);}.cls-3{fill:url(#Безымянный_градиент_81-3);}.cls-4{fill:url(#Безымянный_градиент_38);}.cls-5{fill:url(#Безымянный_градиент_23);}.cls-6{fill:url(#Безымянный_градиент_23-2);}.cls-7{fill:url(#Безымянный_градиент_38-2);}.cls-8{fill:url(#Безымянный_градиент_23-3);}.cls-9{fill:url(#Безымянный_градиент_37);}.cls-10{fill:url(#Безымянный_градиент_33);}.cls-11{fill:#723c22;}.cls-12{fill:#ff9c7b;}.cls-13{fill:#212121;}.cls-14{fill:#e64415;}.cls-15{fill:url(#Безымянный_градиент_23-4);}.cls-16{fill:url(#Безымянный_градиент_23-5);}.cls-17{fill:url(#Безымянный_градиент_38-3);}.cls-18{fill:url(#Безымянный_градиент_23-6);}.cls-19{fill:url(#Безымянный_градиент_23-7);}.cls-20{fill:url(#Безымянный_градиент_38-4);}.cls-21{fill:#828282;}.cls-22{fill:url(#Безымянный_градиент_23-8);}.cls-23{fill:url(#Безымянный_градиент_23-9);}.cls-24{fill:url(#Безымянный_градиент_23-10);}.cls-25{fill:url(#Безымянный_градиент_80);}.cls-26{fill:url(#Безымянный_градиент_74);}.cls-27{fill:url(#Безымянный_градиент_74-2);}.cls-28{fill:url(#Безымянный_градиент_74-3);}.cls-29{fill:url(#Безымянный_градиент_10);}.cls-30{fill:url(#Безымянный_градиент_23-11);}.cls-31{fill:#009e07;}.cls-32{fill:#036614;}.cls-33{fill:#f12613;}.cls-34{fill:#b9bfc9;}.cls-35{fill:#fff;}.cls-36{fill:#d3d7db;}.cls-37{fill:#3e384d;}.cls-38{fill:#a8bdcc;}.cls-39{fill:#72140f;}.cls-40{fill:url(#Безымянный_градиент_80-2);}.cls-41{fill:url(#Безымянный_градиент_74-4);}.cls-42{fill:url(#Безымянный_градиент_74-5);}.cls-43{fill:url(#Безымянный_градиент_74-6);}.cls-44{fill:#c7d0d8;}.cls-45{fill:#4c2552;}.cls-46{fill:url(#Безымянный_градиент_80-3);}.cls-47{fill:url(#Безымянный_градиент_80-4);}.cls-48{fill:url(#Безымянный_градиент_74-7);}.cls-49{fill:url(#Безымянный_градиент_74-8);}.cls-50{fill:url(#Безымянный_градиент_74-9);}.cls-51{fill:url(#Безымянный_градиент_41);}.cls-52{fill:url(#Безымянный_градиент_81-4);}.cls-53{fill:url(#Безымянный_градиент_74-10);}.cls-54{fill:#4e5065;}.cls-55{fill:#575d7b;}.cls-56{fill:#fcb2b2;}.cls-57{fill:#cacad2;}.cls-58{fill:#d6d6dc;}.cls-59{fill:#cbcbd6;}.cls-60{fill:#e6e7e8;}.cls-61{fill:#111423;}.cls-62{fill:url(#Безымянный_градиент_74-11);}.cls-63{fill:url(#Безымянный_градиент_81-5);}.cls-64{fill:url(#Безымянный_градиент_96);}.cls-65{fill:url(#Безымянный_градиент_86);}.cls-66{fill:url(#Безымянный_градиент_96-2);}.cls-67{fill:url(#Безымянный_градиент_86-2);}.cls-68{fill:url(#Безымянный_градиент_86-3);}.cls-69{fill:url(#Безымянный_градиент_82);}.cls-70{fill:url(#Безымянный_градиент_86-4);}.cls-71{fill:url(#Безымянный_градиент_86-5);}.cls-72{fill:url(#Безымянный_градиент_86-6);}.cls-73{fill:url(#Безымянный_градиент_82-2);}.cls-74{fill:url(#Безымянный_градиент_96-3);}.cls-75{fill:url(#Безымянный_градиент_82-3);}.cls-76{fill:url(#Безымянный_градиент_86-7);}.cls-77{fill:url(#Безымянный_градиент_90);}.cls-78{fill:url(#Безымянный_градиент_96-4);}.cls-79{fill:url(#Безымянный_градиент_86-8);}.cls-80{fill:url(#Безымянный_градиент_86-9);}.cls-81{fill:url(#Безымянный_градиент_86-10);}.cls-82{fill:url(#Безымянный_градиент_83);}.cls-83{fill:url(#Безымянный_градиент_90-2);}.cls-84{fill:url(#Безымянный_градиент_90-3);}.cls-85{fill:url(#Безымянный_градиент_96-5);}.cls-86{fill:url(#Безымянный_градиент_86-11);}.cls-87{fill:url(#Безымянный_градиент_90-4);}.cls-88{fill:url(#Безымянный_градиент_86-12);}.cls-89{fill:url(#Безымянный_градиент_90-5);}.cls-90{fill:url(#Безымянный_градиент_82-4);}.cls-91{fill:url(#Безымянный_градиент_82-5);}.cls-92{fill:url(#Безымянный_градиент_82-6);}.cls-93{fill:url(#Безымянный_градиент_82-7);}</style><linearGradient id="Безымянный_градиент_81" x1="1370.75523" y1="746.51117" x2="1643.12472" y2="699.85964" gradientTransform="translate(634.88866 -1126.64069) rotate(71.08789)" gradientUnits="userSpaceOnUse"><stop offset="0" stop-color="#b5b5c1" stop-opacity="0.3"/><stop offset="0.99512" stop-color="#fdfdfd" stop-opacity="0"/></linearGradient><linearGradient id="Безымянный_градиент_81-2" x1="406.25583" y1="533.45854" x2="582.55102" y2="533.45854" gradientTransform="matrix(1, 0, 0, 1, 0, 0)" xlink:href="#Безымянный_градиент_81"/><linearGradient id="Безымянный_градиент_81-3" x1="67.96187" y1="638.04656" x2="237.52565" y2="638.04656" gradientTransform="matrix(1, 0, 0, 1, 0, 0)" xlink:href="#Безымянный_градиент_81"/><linearGradient id="Безымянный_градиент_38" x1="408.863" y1="274.0845" x2="541.78645" y2="274.0845" gradientUnits="userSpaceOnUse"><stop offset="0" stop-color="#fdfdfd"/><stop offset="1" stop-color="#f0eff4"/></linearGradient><linearGradient id="Безымянный_градиент_23" x1="233.33037" y1="392.71001" x2="522.02392" y2="392.71001" gradientUnits="userSpaceOnUse"><stop offset="0" stop-color="#b5b5c1"/><stop offset="0.3561" stop-color="#d2cfda"/><stop offset="0.99268" stop-color="#f0eff4"/></linearGradient><linearGradient id="Безымянный_градиент_23-2" x1="541.78645" y1="309.30629" x2="555.08802" y2="309.30629" xlink:href="#Безымянный_градиент_23"/><linearGradient id="Безымянный_градиент_38-2" x1="87.0942" y1="452.63156" x2="220.02726" y2="452.63156" xlink:href="#Безымянный_градиент_38"/><linearGradient id="Безымянный_градиент_23-3" x1="220.02726" y1="488.40509" x2="233.33037" y2="488.40509" xlink:href="#Безымянный_градиент_23"/><linearGradient id="Безымянный_градиент_37" x1="73.78218" y1="346.46839" x2="567.98101" y2="346.46839" gradientUnits="userSpaceOnUse"><stop offset="0" stop-color="#fdfdfd"/><stop offset="0.27561" stop-color="#fbfafb"/><stop offset="0.3561" stop-color="#f0eff4"/></linearGradient><linearGradient id="Безымянный_градиент_33" x1="73.7822" y1="274.8986" x2="567.98111" y2="274.8986" gradientUnits="userSpaceOnUse"><stop offset="0.57561" stop-color="#fbfbfd"/><stop offset="1" stop-color="#f3f3f5"/></linearGradient><linearGradient id="Безымянный_градиент_23-4" x1="246.94171" y1="285.95158" x2="300.87822" y2="285.95158" xlink:href="#Безымянный_градиент_23"/><linearGradient id="Безымянный_градиент_23-5" x1="1709.7289" y1="297.72829" x2="1771.25094" y2="297.72829" gradientTransform="matrix(-1, 0, 0, 1, 1956.67061, -11.7767)" xlink:href="#Безымянный_градиент_23"/><linearGradient id="Безымянный_градиент_38-3" x1="185.89481" y1="234.93812" x2="300.5748" y2="234.93812" xlink:href="#Безымянный_градиент_38"/><linearGradient id="Безымянный_градиент_23-6" x1="289.63327" y1="298.99566" x2="310.85377" y2="298.99566" xlink:href="#Безымянный_градиент_23"/><linearGradient id="Безымянный_градиент_23-7" x1="1667.03734" y1="310.77237" x2="1691.24226" y2="310.77237" gradientTransform="matrix(-1, 0, 0, 1, 1956.67061, -11.7767)" xlink:href="#Безымянный_градиент_23"/><linearGradient id="Безымянный_градиент_38-4" x1="265.61529" y1="261.81796" x2="310.7344" y2="261.81796" xlink:href="#Безымянный_градиент_38"/><linearGradient id="Безымянный_градиент_23-8" x1="327.88291" y1="204.75805" x2="375.75034" y2="204.75805" xlink:href="#Безымянный_градиент_23"/><linearGradient id="Безымянный_градиент_23-9" x1="316.10073" y1="157.89049" x2="408.34471" y2="157.89049" xlink:href="#Безымянный_градиент_23"/><linearGradient id="Безымянный_градиент_23-10" x1="361.4038" y1="187.02881" x2="382.09655" y2="187.02881" xlink:href="#Безымянный_градиент_23"/><linearGradient id="Безымянный_градиент_80" x1="-516.49947" y1="368.84668" x2="-504.07258" y2="348.1522" gradientTransform="translate(1021.82863 -11.7767)" gradientUnits="userSpaceOnUse"><stop offset="0" stop-color="#e64415"/><stop offset="0.3561" stop-color="#f77f48"/></linearGradient><linearGradient id="Безымянный_градиент_74" x1="-500.97905" y1="429.51962" x2="-487.61509" y2="429.51962" gradientTransform="translate(1021.82863 -11.7767)" gradientUnits="userSpaceOnUse"><stop offset="0" stop-color="#f77f48"/><stop offset="0.45366" stop-color="#ff9c88"/><stop offset="1" stop-color="#f77f48"/></linearGradient><linearGradient id="Безымянный_градиент_74-2" x1="-505.97366" y1="433.90678" x2="-500.16911" y2="433.90678" xlink:href="#Безымянный_градиент_74"/><linearGradient id="Безымянный_градиент_74-3" x1="-551.87006" y1="429.68836" x2="-505.16372" y2="429.68836" xlink:href="#Безымянный_градиент_74"/><linearGradient id="Безымянный_градиент_10" x1="171.49498" y1="319.35579" x2="240.16175" y2="319.35579" gradientUnits="userSpaceOnUse"><stop offset="0.00732" stop-color="#f0eff4"/><stop offset="0.6439" stop-color="#d2cfda"/><stop offset="1" stop-color="#b5b5c1"/></linearGradient><linearGradient id="Безымянный_градиент_23-11" x1="189.91673" y1="351.6592" x2="222.58993" y2="351.6592" xlink:href="#Безымянный_градиент_23"/><linearGradient id="Безымянный_градиент_80-2" x1="2669.20211" y1="470.54632" x2="2681.629" y2="449.85185" gradientTransform="matrix(-1, 0, 0, 1, 2698.08649, -11.7767)" xlink:href="#Безымянный_градиент_80"/><linearGradient id="Безымянный_градиент_74-4" x1="2684.72253" y1="531.21927" x2="2698.08649" y2="531.21927" gradientTransform="matrix(-1, 0, 0, 1, 2698.08649, -11.7767)" xlink:href="#Безымянный_градиент_74"/><linearGradient id="Безымянный_градиент_74-5" x1="2679.72793" y1="535.60642" x2="2685.53247" y2="535.60642" gradientTransform="matrix(-1, 0, 0, 1, 2698.08649, -11.7767)" xlink:href="#Безымянный_градиент_74"/><linearGradient id="Безымянный_градиент_74-6" x1="2633.83152" y1="531.38801" x2="2680.53786" y2="531.38801" gradientTransform="matrix(-1, 0, 0, 1, 2698.08649, -11.7767)" xlink:href="#Безымянный_градиент_74"/><linearGradient id="Безымянный_градиент_80-3" x1="710.36113" y1="332.35976" x2="715.94044" y2="332.35976" gradientTransform="matrix(1, 0, 0, 1, 0, 0)" xlink:href="#Безымянный_градиент_80"/><linearGradient id="Безымянный_градиент_80-4" x1="-353.67252" y1="339.83942" x2="-342.43334" y2="321.12283" xlink:href="#Безымянный_градиент_80"/><linearGradient id="Безымянный_градиент_74-7" x1="-318.7478" y1="407.25642" x2="-306.66112" y2="407.25642" xlink:href="#Безымянный_градиент_74"/><linearGradient id="Безымянный_градиент_74-8" x1="-323.26505" y1="411.22427" x2="-318.01527" y2="411.22427" xlink:href="#Безымянный_градиент_74"/><linearGradient id="Безымянный_градиент_74-9" x1="-400.94595" y1="393.81808" x2="-322.53252" y2="393.81808" xlink:href="#Безымянный_градиент_74"/><linearGradient id="Безымянный_градиент_41" x1="629.19004" y1="307.92551" x2="642.84387" y2="307.92551" gradientUnits="userSpaceOnUse"><stop offset="0" stop-color="#e64415"/><stop offset="1" stop-color="#f77f48"/></linearGradient><linearGradient id="Безымянный_градиент_81-4" x1="-4863.92671" y1="1579.35586" x2="-4625.20461" y2="1579.35586" gradientTransform="translate(5789.55118 -136.69998) rotate(10.74042)" xlink:href="#Безымянный_градиент_81"/><linearGradient id="Безымянный_градиент_74-10" x1="675.73532" y1="329.56979" x2="685.7261" y2="329.56979" gradientTransform="matrix(1, 0, 0, 1, 0, 0)" xlink:href="#Безымянный_градиент_74"/><linearGradient id="Безымянный_градиент_74-11" x1="702.97368" y1="337.11462" x2="711.27713" y2="337.11462" gradientTransform="matrix(1, 0, 0, 1, 0, 0)" xlink:href="#Безымянный_градиент_74"/><linearGradient id="Безымянный_градиент_81-5" x1="-5081.10188" y1="1756.53538" x2="-4839.56731" y2="1882.47482" gradientTransform="translate(5789.55118 -136.69998) rotate(10.74042)" xlink:href="#Безымянный_градиент_81"/><linearGradient id="Безымянный_градиент_96" x1="703.95144" y1="599.81121" x2="730.03873" y2="599.81121" gradientUnits="userSpaceOnUse"><stop offset="0" stop-color="#ef6452"/><stop offset="0.3561" stop-color="#f77f48"/></linearGradient><linearGradient id="Безымянный_градиент_86" x1="673.35238" y1="593.86869" x2="724.49297" y2="593.86869" gradientUnits="userSpaceOnUse"><stop offset="0.57561" stop-color="#ff9c88"/><stop offset="1" stop-color="#f77f48"/></linearGradient><linearGradient id="Безымянный_градиент_96-2" x1="622.86479" y1="604.03616" x2="696.15348" y2="604.03616" xlink:href="#Безымянный_градиент_96"/><linearGradient id="Безымянный_градиент_86-2" x1="572.344" y1="608.34728" x2="602.93698" y2="608.34728" xlink:href="#Безымянный_градиент_86"/><linearGradient id="Безымянный_градиент_86-3" x1="572.344" y1="560.90462" x2="623.78056" y2="560.90462" xlink:href="#Безымянный_градиент_86"/><linearGradient id="Безымянный_градиент_82" x1="639.51411" y1="592.7549" x2="639.51411" y2="563.64119" gradientUnits="userSpaceOnUse"><stop offset="0" stop-color="#f77f48"/><stop offset="0.42439" stop-color="#ff9c88"/></linearGradient><linearGradient id="Безымянный_градиент_86-4" x1="639.95117" y1="625.8088" x2="639.95117" y2="594.409" xlink:href="#Безымянный_градиент_86"/><linearGradient id="Безымянный_градиент_86-5" x1="624.65468" y1="530.09643" x2="676.22568" y2="530.09643" xlink:href="#Безымянный_градиент_86"/><linearGradient id="Безымянный_градиент_86-6" x1="624.65468" y1="552.69493" x2="655.24766" y2="552.69493" xlink:href="#Безымянный_градиент_86"/><linearGradient id="Безымянный_градиент_82-2" x1="524.46872" y1="698.0991" x2="524.46872" y2="617.11841" xlink:href="#Безымянный_градиент_82"/><linearGradient id="Безымянный_градиент_96-3" x1="530.88622" y1="654.95706" x2="609.41864" y2="654.95706" xlink:href="#Безымянный_градиент_96"/><linearGradient id="Безымянный_градиент_82-3" x1="480.3633" y1="690.71301" x2="512.03215" y2="690.71301" xlink:href="#Безымянный_градиент_82"/><linearGradient id="Безымянный_градиент_86-7" x1="497.03819" y1="592.84231" x2="589.48952" y2="592.84231" xlink:href="#Безымянный_градиент_86"/><linearGradient id="Безымянный_градиент_90" x1="575.56909" y1="686.10398" x2="575.56909" y2="623.78839" xlink:href="#Безымянный_градиент_86"/><linearGradient id="Безымянный_градиент_96-4" x1="437.15844" y1="704.72207" x2="526.71804" y2="704.72207" xlink:href="#Безымянный_градиент_96"/><linearGradient id="Безымянный_градиент_86-8" x1="386.63452" y1="713.0425" x2="417.22751" y2="713.0425" xlink:href="#Безымянный_градиент_86"/><linearGradient id="Безымянный_градиент_86-9" x1="386.63452" y1="667.87247" x2="439.14694" y2="667.87247" xlink:href="#Безымянный_градиент_86"/><linearGradient id="Безымянный_градиент_86-10" x1="456.29246" y1="628.65292" x2="506.51872" y2="628.65292" xlink:href="#Безымянный_градиент_86"/><linearGradient id="Безымянный_градиент_83" x1="463.4599" y1="699.55474" x2="463.4599" y2="628.83448" xlink:href="#Безымянный_градиент_82"/><linearGradient id="Безымянный_градиент_90-2" x1="479.17327" y1="718.89212" x2="479.17327" y2="671.20746" xlink:href="#Безымянный_градиент_86"/><linearGradient id="Безымянный_градиент_90-3" x1="446.74471" y1="727.98262" x2="446.74471" y2="700.09259" xlink:href="#Безымянный_градиент_86"/><linearGradient id="Безымянный_градиент_96-5" x1="218.775" y1="731.80474" x2="393.32285" y2="731.80474" xlink:href="#Безымянный_градиент_96"/><linearGradient id="Безымянный_градиент_86-11" x1="257.00092" y1="613.88763" x2="333.31529" y2="613.88763" xlink:href="#Безымянный_градиент_86"/><linearGradient id="Безымянный_градиент_90-4" x1="168.24764" y1="713.60731" x2="287.5939" y2="713.60731" xlink:href="#Безымянный_градиент_86"/><linearGradient id="Безымянный_градиент_86-12" x1="168.24764" y1="814.28849" x2="198.84062" y2="814.28849" xlink:href="#Безымянный_градиент_86"/><linearGradient id="Безымянный_градиент_90-5" x1="284.93806" y1="820.35327" x2="284.93806" y2="779.43264" xlink:href="#Безымянный_градиент_86"/><linearGradient id="Безымянный_градиент_82-4" x1="251.01686" y1="750.54747" x2="301.5793" y2="750.54747" xlink:href="#Безымянный_градиент_82"/><linearGradient id="Безымянный_градиент_82-5" x1="286.28281" y1="741.9411" x2="286.28281" y2="699.93122" xlink:href="#Безымянный_градиент_82"/><linearGradient id="Безымянный_градиент_82-6" x1="286.12817" y1="688.1983" x2="342.72851" y2="688.1983" xlink:href="#Безымянный_градиент_82"/><linearGradient id="Безымянный_градиент_82-7" x1="342.72851" y1="704.73871" x2="373.3888" y2="704.73871" xlink:href="#Безымянный_градиент_82"/></defs><title>7-4m_Bayers</title><polygon class="cls-1" points="87.094 506.553 245.761 802.255 762.737 502.86 555.088 395.432 453.793 397.548 87.094 506.553"/><polygon class="cls-2" points="452.324 556.329 582.551 595.44 571.865 471.477 449.663 517.488 406.256 523.946 452.324 556.329"/><polygon class="cls-3" points="102.783 653.687 220.027 701.755 237.526 574.338 103.596 604.009 67.962 634.744 102.783 653.687"/><polygon class="cls-4" points="541.786 215.463 541.786 403.15 408.863 327.451 408.863 152.08 423.642 145.019 486.449 181.391 541.786 215.463"/><polygon class="cls-5" points="521.497 255.304 233.33 420.647 233.33 530.117 522.024 356.519 521.497 255.304"/><polygon class="cls-6" points="555.088 221.046 555.088 395.432 541.786 403.15 541.786 215.463 545.399 215.463 555.088 221.046"/><polygon class="cls-7" points="87.094 331.14 87.094 506.553 220.027 582.225 220.027 394.585 104.057 323.038 87.094 331.14"/><polygon class="cls-8" points="220.027 582.225 233.33 574.545 233.33 394.585 220.027 394.585 220.027 582.225"/><polygon class="cls-9" points="237.987 418.258 73.782 323.551 73.782 368.872 237.987 463.372 567.981 273.51 567.981 229.565 237.987 418.258"/><polygon class="cls-10" points="402.192 132.614 73.782 322.476 237.987 417.183 567.981 228.49 402.192 132.614"/><polygon class="cls-11" points="249.259 90.174 227.357 94.342 226.291 75.25 248.871 73.99 249.259 90.174"/><path class="cls-12" d="M278.575,40.37438s2.82818,24.70193-4.5856,38.80264-11.19335,14.82756-13.66461,14.39146-9.885-3.48884-10.90262-3.34347,0,10.75725,0,10.75725,2.47126,4.79715,1.01758,8.43135-7.70452,7.99526-11.048,7.99526-7.41378,0-8.286-2.03516-.87221-10.46651-.87221-10.46651l-5.37862-26.01558-5.9601-22.1013,13.66462-19.334,24.13112-6.3962Z" transform="translate(-19.93355 -11.7767)"/><path class="cls-11" d="M202.03213,113.48393c1.88979-5.9601,13.66461-17.00809,14.24608-24.13113s2.61663-49.4252,2.61663-49.4252,3.48884-26.60238,26.16628-28.05606,32.41712,14.24608,32.85322,16.86271,1.30832,13.66461,0,15.1183-7.99525-4.07031-12.06556-3.925-9.30357,6.83231-14.97293,7.55915-9.1582,3.05273-12.21093,4.79715-9.01283-1.59905-11.048,0-7.41378,3.77958-6.10547,8.43136,10.03041,14.97293,9.885,17.29882-1.16295,26.89312-1.16295,26.89312-17.15345,3.63421-24.13112,17.29882C204.93949,124.38654,200.14234,119.444,202.03213,113.48393Z" transform="translate(-19.93355 -11.7767)"/><path class="cls-12" d="M288.52622,168.43311a7.764,7.764,0,0,0,3.48884,6.68694c3.92494,2.90737,34.01616,18.60713,34.01616,18.60713l3.77958-19.91544s-14.10072-1.599-17.58956-5.37863-35.68132-56.95668-35.68132-56.95668Z" transform="translate(-19.93355 -11.7767)"/><path class="cls-13" d="M238.29679,252.35241v.102l-15.58511,8.964-15.28045,8.76126a73.08817,73.08817,0,0,1,.81451-14.364l.30591-1.52767,22.10492-17.72522Z" transform="translate(-19.93355 -11.7767)"/><path class="cls-14" d="M288.927,171.06c-1.01845,1.73223-2.24208,3.66778-3.46322,5.90861-2.3428,4.27835-3.56643,14.364-4.177,25.06016-.20394,5.09348-.30591,10.28894-.40788,15.07651-.102,3.97307,0,7.53826,0,10.69619l-42.58207,24.55094v.102l-15.58511,8.964c-7.23359-1.83358-13.54822-3.76913-14.46594-5.60271a.77143.77143,0,0,1-.20394-.40725c-.61057-4.88955,6.51981-33.5149,7.64023-36.06164,1.22363-2.64871.20393-23.32855.61181-25.77332s-7.13038-21.49435-12.12189-40.13668c-4.89079-18.33641-.30591-28.21809,7.64022-38.71034,0-.102,0-.102.102-.20394.10073-.102.10073-.102.2027-.20332,2.95461-3.8711,9.98427-7.43691,17.92916-10.28894h.20394a151.54206,151.54206,0,0,1,16.6048-4.78819,19.29728,19.29728,0,0,0,2.3428-.50923c7.02841-1.32435,12.73371-1.93554,14.77061-1.42632a12.77965,12.77965,0,0,1,5.19545,3.056,21.08592,21.08592,0,0,1,3.77037,4.38095s1.52705,2.75006,3.66592,6.92706c.102.102.102.102.102.20332,5.80726,11.10406,16.30014,31.68193,17.62325,39.11822C295.85465,159.24339,293.20593,163.82765,288.927,171.06Z" transform="translate(-19.93355 -11.7767)"/><path class="cls-12" d="M322.84911,232.38573c-5.50136,2.03752-13.65019-3.36187-16.2989-4.68623-.91647-.40725-6.82571-2.75-14.97578-6.11193-3.258-1.42632-6.92644-2.954-10.69557-4.48229-15.28045-6.62177-33.51427-15.17848-43.4973-22.41145-18.74492-13.44687-30.66287-51.95328-32.19241-59.79744-1.42508-7.84354,3.56644-16.40087,8.456-14.77123,13.14158,4.381,35.04257,59.49216,41.76631,66.72513,2.95462,3.36125,14.262,9.47381,25.8753,15.17848,9.16851,4.58426,18.53973,8.96458,24.347,11.40935a53.31044,53.31044,0,0,0,5.60332,2.34281c2.13887.50922,3.36-1.42633,7.13038-1.01845,3.76789.50922,7.53826,4.38032,7.53826,4.38032S328.35047,230.34821,322.84911,232.38573Z" transform="translate(-19.93355 -11.7767)"/><polygon class="cls-15" points="300.878 310.234 246.942 337.402 246.942 257.534 300.878 234.501 300.878 310.234"/><polygon class="cls-16" points="185.42 310.234 246.942 337.402 246.942 257.534 185.42 234.501 185.42 310.234"/><polygon class="cls-17" points="300.575 234.529 246.912 257.534 185.895 234.529 243.149 212.342 300.575 234.529"/><polygon class="cls-18" points="310.854 324.234 289.633 337.402 289.633 272.665 310.854 260.589 310.854 324.234"/><polygon class="cls-19" points="265.428 324.234 289.633 337.402 289.633 272.665 265.428 260.589 265.428 324.234"/><polygon class="cls-20" points="310.734 260.613 289.622 272.616 265.615 260.613 288.175 251.02 310.734 260.613"/><ellipse class="cls-21" cx="351.81662" cy="206.10916" rx="23.93371" ry="13.78303"/><ellipse class="cls-22" cx="351.81662" cy="204.75805" rx="23.93371" ry="13.78303"/><path class="cls-21" d="M405.90038,90.4713a2.50119,2.50119,0,0,0-1.24551.10837h-.05418a2.33848,2.33848,0,0,0-.70369.27024l-.75722.43279L319.565,139.07859a6.93436,6.93436,0,0,0-3.4643,6.00818v77.62009a2.15456,2.15456,0,0,0,.37927,1.299,1.96315,1.96315,0,0,0,.75721.86624l-1.67764-.7037h-.05418a2.60572,2.60572,0,0,1-1.73182-.70369l-.05418-.05419h-.05418v-.05418a2.60941,2.60941,0,0,1-.75854-1.84018V143.89545a6.8873,6.8873,0,0,1,3.465-6.00753l84.27779-48.22868a3.18845,3.18845,0,0,1,2.21945-.32442l.43279.16188Z" transform="translate(-19.93355 -11.7767)"/><path class="cls-23" d="M319.58354,139.06161l84.3036-48.23237a2.97847,2.97847,0,0,1,4.45757,2.58526v73.13823a7.24636,7.24636,0,0,1-3.4452,6.16935l-84.77079,52.23041a2.64206,2.64206,0,0,1-4.028-2.24938V145.06677A6.91854,6.91854,0,0,1,319.58354,139.06161Z" transform="translate(-19.93355 -11.7767)"/><path class="cls-24" d="M361.4038,170.86833v52.16776l20.69275-11.72784V157.57833a6.54685,6.54685,0,0,0-9.86759-5.64216l0,0A21.96781,21.96781,0,0,0,361.4038,170.86833Z" transform="translate(-19.93355 -11.7767)"/><path class="cls-21" d="M374.539,151.10791a6.29131,6.29131,0,0,0-2.32716.81272,21.969,21.969,0,0,0-10.8257,18.945V223.0449H359.437V170.86561a21.969,21.969,0,0,1,10.8257-18.945A6.3753,6.3753,0,0,1,374.539,151.10791Z" transform="translate(-19.93355 -11.7767)"/><polygon class="cls-25" points="494.122 330.472 534.214 354.23 520.85 355.85 516.665 364.355 488.722 347.413 494.122 330.472"/><polygon class="cls-26" points="520.85 355.85 521.66 481.255 534.214 479.096 534.214 354.23 520.85 355.85"/><polygon class="cls-27" points="516.665 364.355 515.855 488.41 521.66 481.255 520.85 355.85 516.665 364.355"/><polygon class="cls-28" points="516.665 364.355 488.722 347.413 469.959 450.748 470.364 463.003 515.855 488.41 516.665 364.355"/><path class="cls-29" d="M205.82836,286.93525c-24.72271,0-34.33338,21.17872-34.33338,35.17267s12.689,29.66841,34.33338,29.66841,34.33339-15.67446,34.33339-29.66841S230.552,286.93525,205.82836,286.93525Z" transform="translate(-19.93355 -11.7767)"/><path class="cls-30" d="M213.70722,351.02514a41.32353,41.32353,0,0,1-7.85078.71344,41.95316,41.95316,0,0,1-7.13638-.63407,33.5796,33.5796,0,0,1-8.80333-2.697c.3969,2.45882.635,3.4104,1.7444,4.12384a2.54034,2.54034,0,0,0,1.03193.3969,8.58672,8.58672,0,0,0,1.10937.39689,1.621,1.621,0,0,0,.23814,0H194.12a36.61317,36.61317,0,0,0,12.054,1.90316,37.96379,37.96379,0,0,0,11.97463-1.82378,1.54223,1.54223,0,0,0,.55468-.07938,9.1276,9.1276,0,0,0,2.22068-.87317c1.031-.71344,1.2691-1.7444,1.666-4.362A37.66561,37.66561,0,0,1,213.70722,351.02514Z" transform="translate(-19.93355 -11.7767)"/><path class="cls-31" d="M311.27165,195.66025l13.65493-5.3635s22.70984,10.79321,25.24229,18.38374l-8.07471,7.75693Z" transform="translate(-19.93355 -11.7767)"/><path class="cls-32" d="M350.16763,208.67988l-8.07375,7.75746s-15.54023-16.94943-30.82353-20.77707v5.14147s28.42748,12.62935,30.82353,21.761l8.72-8.81729Z" transform="translate(-19.93355 -11.7767)"/><path class="cls-12" d="M334.47006,202.249s8.784,3.97593,11.373,15.44139l8.50663,9.61619-8.87648,9.15387s-14.79415-4.71563-14.42429-11.83531S332.066,203.17366,334.47006,202.249Z" transform="translate(-19.93355 -11.7767)"/><path class="cls-33" d="M451.32066,543.34643c-.34674-.208-21.359-13.45342-26.42141-6.44932s-1.64993,11.09561,1.29013,12.968,15.35328,10.33278,16.87892,9.84735,3.25934-.792,4.3689.02008,0,4.27947,3.46737,5.181,16.50326,8.03707,21.63643,2.35781c3.25934-3.60607-.13869-16.9208-.13869-16.9208Z" transform="translate(-19.93355 -11.7767)"/><path class="cls-33" d="M468.5882,528.78345l18.79318,8.52975,19.76009,4.44752s4.78893,20.86433-6.9308,19.89346-14.826-6.98449-22.39925-9.50357-9.82094-3.26585-9.82094-3.26585Z" transform="translate(-19.93355 -11.7767)"/><path class="cls-12" d="M445.01,119.91038s-1.01512,11.65039-.57691,13.59212-2.05829,3.19-1.9196,6.93476.1387,30.7903,6.93476,32.03856a51.083,51.083,0,0,0,11.2343.97086l-1.10956,7.48954,31.20639-4.993,1.387-16.08863Z" transform="translate(-19.93355 -11.7767)"/><path class="cls-34" d="M428.78271,343.34814s-4.16085,99.86045-1.94173,108.45955,23.57816,89.41208,23.57816,89.41208-1.47941,17.753,7.39707,17.01327,14.97907-4.43825,14.97907-7.95185-14.42429-91.35382-13.1298-95.977S471.87065,389.21,471.87065,389.21L485.3703,535.487s-2.21912,11.28054,5.91766,12.02024,14.97906-.92463,15.71877-4.25331,8.69156-201.94,8.69156-201.94Z" transform="translate(-19.93355 -11.7767)"/><path class="cls-35" d="M500.28,177.39949l-8.997-7.29786s-32.26475,8.06068-33.58236,9.65568-6.51867,12.62125-6.51867,12.62125S482.87379,186.96945,500.28,177.39949Z" transform="translate(-19.93355 -11.7767)"/><path class="cls-36" d="M497.35355,176.56161c15.29888-1.04429,21.19914,18.06626,21.19914,18.06626s6.76179,37.76422,1.39891,83.811-.18492,62.50524-1.10956,63.79973-20.52687,17.568-46.78647,16.08863-51.40964-12.575-51.40964-15.53385,11.46546-20.7118,11.65039-33.8416-5.91766-46.97139-5.91766-46.97139-14.05443,31.99233-27.36916,32.917-57.88207-48.63574-58.067-52.14935,10.54082-16.6434,12.76-16.6434,39.94418,34.02652,42.1633,32.54711,25.17679-54.70149,43.59638-63.79974C458.55592,185.42069,497.35355,176.56161,497.35355,176.56161Z" transform="translate(-19.93355 -11.7767)"/><path class="cls-37" d="M474.55208,95.50005c18.58514,0,36.89289,13.59212,36.89289,29.40336s-14.70168,36.89289-18.44644,40.08287-18.72384,6.10259-22.6073,2.49651-8.183-12.75994-7.76692-16.50471.27739-9.84735-3.05129-9.986-3.46738,6.65736-5.96389,6.24127-6.38-26.07467-8.5991-27.32293S445.8422,94.80658,474.55208,95.50005Z" transform="translate(-19.93355 -11.7767)"/><path class="cls-12" d="M69.74465,357.65663c.20248,9.213-2.49159,47.685-6.10541,54.772s-7.56227,10.023-6.95482,16.50246,5.51674,14.07265,6.50433,12.85774,27.41176-66.31355,27.41176-66.31355Z" transform="translate(-19.93355 -11.7767)"/><path class="cls-12" d="M217.963,301.66977c1.82235,2.22732,7.08694,7.96437,6.277,12.284s-19.13475,26.7954-19.13475,26.7954v19.94469s10.93415-3.03726,22.172-28.55026,17.51487-29.15772,20.45089-31.79-3.79479-8.27445-5.54806-6.6927-5.60286,6.19364-5.984,4.89774,3.18257-5.48851,2.38216-6.04118-5.0493.87575-7.09945,4.87481-4.91024,8.78275-6.70729,7.64378-5.18865-5.79611-6.17576-4.65714S217.963,301.66977,217.963,301.66977Z" transform="translate(-19.93355 -11.7767)"/><path class="cls-38" d="M71.36779,314.51072s-9.62127,38.48877-7.39394,41.12107,19.84344,14.78134,19.84344,14.78134l2.12609-41.61049Z" transform="translate(-19.93355 -11.7767)"/><path class="cls-12" d="M160.35629,224.21959c.10125,6.58073-4.55589,8.20061-4.65713,11.33911s1.9236,7.08694,0,9.92172-9.31427,13.66768-9.31427,13.66768L127.1489,232.319Z" transform="translate(-19.93355 -11.7767)"/><path class="cls-39" d="M163.62979,639.34579s6.412-1.88985,6.817,4.79212-3.23974,12.48653-15.18631,15.72627-31.8575,9.98922-35.90718,3.23975-2.95021-12.07122-2.95021-12.07122Z" transform="translate(-19.93355 -11.7767)"/><path class="cls-39" d="M82.92758,633.67924s-.49393,14.07615,7.80792,12.75349,16.46871-6.277,19.97844-13.63393,6.142-17.07616,4.85961-19.16849-3.47435-5.12287-5.872-3.10476-4.25216,3.71221-4.25216,3.71221Z" transform="translate(-19.93355 -11.7767)"/><path class="cls-33" d="M148.22868,643.19188s15.26612-6.71461,19.822-1.75375-4.45465,16.50245-27.63908,17.71736-23.69065-2.02484-23.99437-7.79564,1.01242-14.57886,1.01242-14.57886Z" transform="translate(-19.93355 -11.7767)"/><path class="cls-33" d="M101.58528,615.77326c.15186,0,7.86991-6.76634,9.89472-3.42535s2.72694,16.99179-7.04292,24.43308-18.99991,8.10376-20.51854,3.24414-1.06283-13.90475-1.06283-13.90475Z" transform="translate(-19.93355 -11.7767)"/><path class="cls-12" d="M138.18428,586.16s-2.936,50.41855-1.2149,51.83594,5.872,5.26458,10.73166,5.16334,8.70681,6.9857,0,7.087-18.15933.82311-22.172,0c-3.94844-.80994-7.79564-2.02485-8.40309-8.60558s-7.69439-36.14342-5.0621-56.39183S138.18428,586.16,138.18428,586.16Z" transform="translate(-19.93355 -11.7767)"/><polygon class="cls-40" points="40.092 432.172 0 455.93 13.364 457.55 17.549 466.054 45.491 449.113 40.092 432.172"/><polygon class="cls-41" points="13.364 457.55 12.554 582.955 0 580.795 0 455.93 13.364 457.55"/><polygon class="cls-42" points="17.549 466.054 18.359 590.11 12.554 582.955 13.364 457.55 17.549 466.054"/><polygon class="cls-43" points="17.549 466.054 45.491 449.113 64.255 552.447 63.85 564.703 18.359 590.11 17.549 466.054"/><path class="cls-12" d="M106.79924,615.72264c7.99813,4.96086-13.29117,36.36943-23.28567,19.236-1.41739-2.42981-.91118-70.16074-.91118-70.16074l1.72111-85.54955L118.54332,509.216l-12.21654,73.50174s-5.872,30.37262-4.11718,33.1399C103.23046,617.545,106.01462,615.29236,106.79924,615.72264Z" transform="translate(-19.93355 -11.7767)"/><path class="cls-44" d="M170.44675,572.18856c-2.09233,2.69978-27.94281,36.58213-82.47853,4.45465-2.69979-1.3499,3.7797-86.39323,3.7797-86.39323s-7.49191,80.3187-8.9093,81.6686S52.331,558.41964,51.58857,552.4801s5.33208-130.53476,15.86126-148.35337,18.35856-29.96765,18.35856-29.96765l69.63422,10.743.42528,3.29594a312.96492,312.96492,0,0,1,8.60738,57.91992C165.9921,477.291,170.44675,572.18856,170.44675,572.18856Z" transform="translate(-19.93355 -11.7767)"/><path class="cls-33" d="M153.70806,371.45929l2.15983,16.73869s-16.33371,15.92875-28.07779,15.92875S86.8883,386.7131,83.64856,377.53382a30.98,30.98,0,0,1-.80994-17.41364Z" transform="translate(-19.93355 -11.7767)"/><path class="cls-44" d="M77.99591,283.4462c-4.60655,2.42981-9.0612,34.82727-5.82145,61.1502.91118,5.93954,8.94305,8.943,8.94305,8.943s-1.2824,7.72814,2.19357,10.22545,29.63018,23.75814,45.89641,22.81321,20.45089-8.63932,20.45089-8.84181,13.02648-8.8418,12.62151-38.40449-36.58213-58.6529-36.58213-58.6529Z" transform="translate(-19.93355 -11.7767)"/><path class="cls-38" d="M142.79083,268.25989c18.27416,10.1242,18.27416,10.52917,30.62569,29.15771s32.195,39.88937,32.195,39.88937v24.09561s.20249,24.09561-8.50433,23.48816-51.63345-67.6297-51.63345-67.6297-23.69064-38.67446-10.73166-47.38128S142.79083,268.25989,142.79083,268.25989Z" transform="translate(-19.93355 -11.7767)"/><path class="cls-45" d="M133.32466,191.92337c-44.24278,0-37.25708,44.81649-40.22684,52.64587s-18.89852,10.52918-18.89852,25.108,7.01945,22.40824,12.419,22.40824,12.14905,1.07991,15.65878,4.58964,15.96257,17.27864,24.315,17.27864,13.482-3.7797,13.482-9.71923-4.85962-18.08859-2.96976-22.9482,12.959-10.52918,12.959-15.11882-6.007-18.86477-6.007-18.86477-6.71426-13.2857.80994-15.79376c3.64471-1.21491,4.75837,4.02828,6.37825,2.67221s14.27513-7.53183,13.16147-19.78212S149.21967,191.92337,133.32466,191.92337Z" transform="translate(-19.93355 -11.7767)"/><path class="cls-46" d="M711.27713,325.65295s5.04654,10.11935,4.64,12.58323-3.38344-1.34-3.38344-1.34l-2.17257-6.766Z" transform="translate(-19.93355 -11.7767)"/><polygon class="cls-47" points="647.437 297.901 715.168 338.037 703.081 339.502 699.296 347.194 629.19 304.69 642.844 302.883 647.437 297.901"/><polygon class="cls-48" points="703.081 339.502 703.813 452.922 715.168 450.969 715.168 338.037 703.081 339.502"/><polygon class="cls-49" points="699.296 347.194 698.564 459.393 703.813 452.922 703.081 339.502 699.296 347.194"/><polygon class="cls-50" points="699.296 347.194 629.19 304.69 620.883 417.008 657.42 436.414 698.564 459.393 699.296 347.194"/><polygon class="cls-51" points="642.844 302.883 642.844 312.968 629.19 304.69 642.844 302.883"/><polygon class="cls-52" points="791.046 561.458 908.745 594.65 960.133 505.123 783.662 491.192 718.58 497.605 791.046 561.458"/><path class="cls-53" d="M685.095,320.00509a1.83219,1.83219,0,0,0-.13992.29125c-.716,1.89279-7.46747,19.75562-7.659,20.84094-.07866.44572-.36256.42553-.68018.2344a1.91134,1.91134,0,0,1-.822-2.10221c1.10838-4.513,5.55565-21.6368,9.22243-21.63013C686.3929,317.64185,685.39626,319.494,685.095,320.00509Z" transform="translate(-19.93355 -11.7767)"/><path class="cls-54" d="M781.39288,540.66468v5.59585l18.40566,25.21508s11.73108,8.61178,20.29341-2.099-16.92241-31.3413-16.92241-31.3413Z" transform="translate(-19.93355 -11.7767)"/><path class="cls-54" d="M737.3002,505.74112s-.60677,2.62938,1.21356,3.64068S782.60644,526.102,782.60644,526.102l2.42712-6.33748Z" transform="translate(-19.93355 -11.7767)"/><path class="cls-55" d="M781.39288,522.92258v17.7421l16.31564,22.24859s6.87684,10.51752,16.72015,4.7194,2.42712-15.91112,2.42712-15.91112-12.80979-17.12467-13.484-21.84407-.94388-9.03428-.94388-9.03428Z" transform="translate(-19.93355 -11.7767)"/><path class="cls-55" d="M744.09176,483.71135,738.6486,496.2349s-2.53506,5.94621-1.3484,9.50622c.40452,1.21356,43.10413,16.48593,43.10413,16.48593l-3.35626-20.18749-11.16179-5.9395s-2.06966-.522-1.10225-4.20508S744.09176,483.71135,744.09176,483.71135Z" transform="translate(-19.93355 -11.7767)"/><path class="cls-56" d="M687.13973,304.49245s-3.371,14.56271-1.61808,17.12467,10.18042,10.113,15.77628,9.70848,6.66592-2.34979,6.66592-2.34979l2.90772-5.13383s4.98908-3.16874,3.16874-5.25876-7.91922-6.52264-8.03852-9.69993S687.13973,304.49245,687.13973,304.49245Z" transform="translate(-19.93355 -11.7767)"/><path class="cls-35" d="M687.42853,296.75084l-.2888,7.74161s6.60716,6.27006,12.87722,5.461,7.33189-1.55066,7.33189-1.55066l1.43271-6.60716Z" transform="translate(-19.93355 -11.7767)"/><path class="cls-56" d="M879.65724,299.23369s3.405,7.18023,7.45019,10.82091,11.73107,11.8322,10.41638,15.47288-9.40509,3.0339-14.36045,0-10.41639-8.79831-11.22543-8.0904-.30339,8.39379-4.34859,7.48362-4.652-4.652-4.0452-8.29266,1.71921-7.07909,1.11243-11.02316,8.596-9.1017,8.596-9.1017Z" transform="translate(-19.93355 -11.7767)"/><path class="cls-35" d="M877.84475,291.32613l1.81249,7.90756s-11.25886-.70791-15.00067,6.37119l-6.27006-5.15763V285.07549l17.29323,2.62938Z" transform="translate(-19.93355 -11.7767)"/><path class="cls-57" d="M818.47387,323.16778s-13.484,61.21736-19.417,81.17367-32.09192,87.37631-33.17064,87.37631-7.01168,2.42712-17.25952-4.31488-6.47232-11.32656-6.47232-11.32656l27.23768-76.85879,10.58228-81.30068Z" transform="translate(-19.93355 -11.7767)"/><path class="cls-58" d="M748.39984,340.29166s25.50719,82.388,25.8117,90.20875,3.54066,89.26407,3.54066,89.26407a17.48,17.48,0,0,0,17.74792,5.3936c11.10784-2.96648,8.9335-5.12392,8.9335-5.12392s-.52246-96.81511-4.56766-119.19855-9.2629-65.26255-9.2629-65.26255l27.87081-12.40528v-8.0904l-9.92629-28.85575-42.6613,3.77552-21.5744,29.93447Z" transform="translate(-19.93355 -11.7767)"/><path class="cls-35" d="M811.69186,296.75084c.04.12315-29.48994,7.74161-29.48994,7.74161L774.21154,173.509l23.15908-8.33925,15.48063,7.24689,7.56779,42.60944Z" transform="translate(-19.93355 -11.7767)"/><path class="cls-33" d="M801.10593,178.23132s2.46813,3.69158,1.11973,4.90514-5.32618,3.64068-7.0791,2.562a10.8834,10.8834,0,0,1-3.0339-3.23616l1.21356-6.3564Z" transform="translate(-19.93355 -11.7767)"/><path class="cls-33" d="M795.50012,185.86075s5.78006,82.2249,1.8705,94.15824c-.25665,3.64068,7.90312,7.68588,7.90312,7.68588s6.63668-9.70848,6.41257-12.1356-4.79918-72.72508-11.71448-90.8716Z" transform="translate(-19.93355 -11.7767)"/><path class="cls-56" d="M819.84127,127.09425s1.3,23.37723,0,29.64729-7.93085,16.38305-8.155,16.48418-9.64711,2.98735-9.64711,2.98735-1.80243,6.21548-7.06119,4.5974-17.7098-9.70848-17.75434-12.54012,0-10.922,0-10.922l-5.15164-2.12373-7.433-6.47232-4.0452-11.1243L779.1006,115.4805l38.126,7.98927Z" transform="translate(-19.93355 -11.7767)"/><path class="cls-59" d="M820.15091,163.75425s11.13276,1.044,15.58248,15.06733,16.98984,57.50926,19.82148,62.56575,25.08024,47.32884,24.06894,49.35144-1.61808.40452-4.24746-1.21356-12.33786,0-14.96724,4.24746-.809,6.67458-.809,8.0904-3.53963-.60678-6.62405-6.67458-26.95111-46.92432-27.35563-54.81246c0,0,.60678,17.79888,1.61808,31.55256s2.62938,39.4407.60678,42.27234-11.68737,10.51751-16.15894,6.27-2.85349-37.01357-2.85349-37.01357,4.80071-74.02715,4.01843-84.34241-4.01843-26.21023-4.01843-26.21023Z" transform="translate(-19.93355 -11.7767)"/><path class="cls-60" d="M808.83282,177.16718s-2.29228,7.857-3.0339,7.51994-4.08425-8.58126-4.08425-8.58126Z" transform="translate(-19.93355 -11.7767)"/><path class="cls-61" d="M803.06436,160.993c-.5016,3.23616-5.55,5.45311-9.80556,3.43051s-11.01912-8.89943-11.22948-13.65669c-.19416-4.74106-2.42712-12.1356-.30744-14.142,2.13588-2.0388,4.35264-3.23616,4.0452-5.66328-.275-2.28155-4.10989-6.24577-4.59529-6.73127,1.0193.61488,16.828,10.50132,25.63033,8.64069,9.10979-1.90942,14.676-6.165,14.27147-7.99342-.40452-1.81224-3.13908-4.95122-2.94491-5.85744.21035-.90622,3.13907-1.61808,2.4918-3.64068a13.43428,13.43428,0,0,0-12.20028-9.1098c-2.31385,0-4.14228-4.5467-7.783-4.5467s-9.49812,4.44972-12.37835,4.25536c-2.88013-.21016-3.09049-4.85424-6.537-3.64068-3.43032,1.21356-11.01912,5.76046-13.04172,12.23278,0,1.61808-11.22948,2.32994-11.73108,9.80566-.5016,7.49152,2.11968,9.82166,2.0226,10.51752-.09708.71186-.29124,9.6113,4.85424,14.56272,5.16168,4.96741,14.56272,9.91864,15.27468,11.73107.712,1.82825,19.7244,17.29718,29.43287,15.88946,9.70848-1.42392,12.94464-11.94144,11.32656-18.81827S804.8928,150.76677,803.06436,160.993Zm-34.22243-8.80226c-3.85094-3.99661-6.5855-7.94483-3.89953-11.06781,2.686-3.139,4.14228-2.13578,4.14228-2.13578,2.78315,0,8.139,3.851,8.139,10.22618C777.22367,155.57242,772.67687,156.1873,768.84193,152.19069Zm46.22855,11.14859c-1.14877-.90622-.72806-1.92562-2.5242-1.63428-1.796.27515-1.21356,3.62449-2.65357,3.34934-1.44012-.27495-3.43042-1.48851-2.97732-3.36553.453-1.86083,2.0388-3.15538,4.90274-3.38173,2.62138-.21056,4.5307.40452,4.67627,2.42712S816.23555,164.2453,815.07048,163.33928Z" transform="translate(-19.93355 -11.7767)"/><path class="cls-60" d="M777.22367,166.88824s-3.51667,4.11262-3.44925,5.52844,5.52844,15.97854,19.07986,18.33824c1.55066,0,1.75292-9.57364.87646-10.922S777.22367,166.88824,777.22367,166.88824Z" transform="translate(-19.93355 -11.7767)"/><path class="cls-59" d="M773.77442,172.41668s-25.687,13.484-26.49606,15.10208-38.32834,37.795-39.92952,43.97776-20.74847,61.46711-20.74847,63.35487,7.82072,12.40528,16.98984,9.70848,7.28136-5.12392,7.28136-5.12392,14.09078-50.69984,19.31583-54.20568,19.2484-14.293,19.2484-14.293.809,26.15895,0,29.12543-19.41695,59.05991-18.06855,62.83543,8.0962,22.11376,32.49933,18.06856,26.63985-63.10511,26.63985-63.10511,1.40451-53.7968-6.4957-76.85879S773.77442,172.41668,773.77442,172.41668Z" transform="translate(-19.93355 -11.7767)"/><path class="cls-62" d="M703.59021,317.91685s-.87646,2.35187-.53936,3.16091,6.95038,3.51825,5.84509,9.4808c-.967,5.21633-4.57869,19.68794-5.63213,23.8792a1.50512,1.50512,0,0,0,.764,1.70159h0a1.50235,1.50235,0,0,0,2.16029-.97616c1.54572-6.41531,6.4029-27.32667,4.75083-30.17507C708.98381,321.61712,703.59021,317.91685,703.59021,317.91685Z" transform="translate(-19.93355 -11.7767)"/><polygon class="cls-63" points="269.642 809.42 446.745 976.447 928.627 651.246 706.838 592.842 676.226 600.163 624.655 614.889 542.76 665.143 436.188 720.439 386.635 746.5 342.729 756.124 269.642 809.42"/><path class="cls-64" d="M707.71647,616.06514q-3.76635-2.2785-3.765-8.90312a25.356,25.356,0,0,1,3.765-13.11778,25.88874,25.88874,0,0,1,9.278-9.52141q5.5136-3.176,9.27928-1.14082,3.76239,2.04786,3.765,8.88127a26.52374,26.52374,0,0,1-3.765,13.268,25.06271,25.06271,0,0,1-9.27928,9.70342Q711.47887,618.35706,707.71647,616.06514Z" transform="translate(-19.93355 -11.7767)"/><path class="cls-65" d="M724.493,582.74669c-2.13794-.47063-4.63931.13453-7.50346,1.77508a25.98806,25.98806,0,0,0-9.279,9.52083,25.4916,25.4916,0,0,0-3.7652,13.12474c0,4.41072,1.26415,7.38264,3.7652,8.90221l-28.02448-10.01838h-.01329l-2.55522-.91441c-2.501-1.51957-3.76519-4.49149-3.76519-8.90222a25.4095,25.4095,0,0,1,3.76519-13.11128,25.885,25.885,0,0,1,9.279-9.52083q4.49814-2.602,7.82619-1.70777a1.6175,1.6175,0,0,1,.24229.06722l.67237.242Z" transform="translate(-19.93355 -11.7767)"/><path class="cls-66" d="M622.86479,584.25253l20.84358-12.2121v32.48648L675.176,586.34222V553.53065l20.97752-12.38822v84.6171L675.176,637.59046V606.18571L643.70837,624.1738v31.09359l-20.84358,11.6625Z" transform="translate(-19.93355 -11.7767)"/><polygon class="cls-67" points="602.937 572.476 602.937 655.151 572.344 644.232 572.344 561.543 602.937 572.476"/><polygon class="cls-68" points="623.781 560.266 602.937 572.476 572.344 561.543 593.188 549.333 623.781 560.266"/><polygon class="cls-69" points="655.248 574.561 645.633 580.114 634.014 586.825 624.655 592.244 623.781 592.755 623.781 564.152 624.655 563.641 655.248 574.561"/><polygon class="cls-70" points="655.248 594.409 655.248 625.809 624.655 614.889 624.655 611.904 645.633 599.909 655.248 594.409"/><polygon class="cls-71" points="676.226 529.364 655.248 541.749 624.655 530.829 645.633 518.444 676.226 529.364"/><polygon class="cls-72" points="655.248 541.749 655.248 574.561 624.655 563.641 624.655 530.829 655.248 541.749"/><path class="cls-73" d="M547.56473,628.05121,546.489,661.0648q-.40358,9.98465-1.21031,16.35209a39.68022,39.68022,0,0,1-3.16012,11.511,16.542,16.542,0,0,1-7.05992,7.75921c-.632.34965-1.66747.82028-3.093,1.412l-10.71759-3.8325-19.8754-7.08684a33.31912,33.31912,0,0,0,3.093-1.42543,16.47952,16.47952,0,0,0,7.05992-7.75921,39.44518,39.44518,0,0,0,3.16012-11.511q.80689-6.374,1.2103-16.35208l1.0757-33.0136,20.64183,7.38273Z" transform="translate(-19.93355 -11.7767)"/><path class="cls-74" d="M609.41864,592.11005v82.32368l-20.97752,11.67612V623.7917L565.58043,636.929l-.67238,14.71659a194.232,194.232,0,0,1-2.68949,28.05629,66.47535,66.47535,0,0,1-6.993,20.4575,33.80562,33.80562,0,0,1-13.44746,13.4353,48.582,48.582,0,0,1-10.89193,4.20937l1.07554-19.6985a33.31,33.31,0,0,0,3.09265-1.42434,16.46375,16.46375,0,0,0,7.05992-7.75491,39.37858,39.37858,0,0,0,3.16095-11.51136q.80567-6.37416,1.20948-16.35143l1.07554-33.01237Z" transform="translate(-19.93355 -11.7767)"/><polygon class="cls-75" points="512.032 686.322 510.956 706.023 480.363 695.104 481.439 675.403 501.315 682.49 512.032 686.322"/><polygon class="cls-76" points="589.49 580.329 572.344 590.294 558.897 598.107 547.735 604.589 547.722 604.589 537.919 610.29 527.631 616.275 517.68 612.724 497.038 605.342 558.897 569.41 572.344 574.211 589.49 580.329"/><path class="cls-77" d="M588.44506,623.78839V686.104l-25.75193-9.18464c.25558-1.54649.48409-3.16012.68583-4.81422q1.14964-9.13749,1.533-20.45354l.67237-14.725,13.24573-7.61132Z" transform="translate(-19.93355 -11.7767)"/><path class="cls-78" d="M507.75763,730.66943V682.98435l-21.64989,51.90071-8.87612,4.874-21.11278-27.89434v47.03287l-18.9604,10.3077V691.35211l21.9191-12.48155,23.12991,32.4562,24.6086-59.788,19.63409-11.29992.2679,80.009Z" transform="translate(-19.93355 -11.7767)"/><polygon class="cls-79" points="417.228 679.572 417.228 757.433 386.635 746.5 386.635 668.652 417.228 679.572"/><polygon class="cls-80" points="439.147 667.093 417.228 679.572 386.635 668.652 408.554 656.173 439.147 667.093"/><polygon class="cls-81" points="506.519 628.458 486.885 639.767 456.292 628.834 475.926 617.539 506.519 628.458"/><polygon class="cls-82" points="486.885 639.767 475.724 666.891 462.277 699.555 457.234 692.481 440.034 668.343 456.292 628.834 486.885 639.767"/><polygon class="cls-83" points="487.827 671.207 487.827 718.892 470.52 712.72 487.827 671.207"/><polygon class="cls-84" points="457.301 727.983 436.188 720.439 436.188 700.093 457.301 727.983"/><path class="cls-85" d="M393.32285,750.986l-30.66,16.91462v41.50753l-42.49478,22.72155V791.20884L218.775,846.18684V816.87163L307.52828,644.8274l45.72138-27.40476-82.29875,164.447,50.56194-28.15651V717.23l41.15-23.58958v36.98949l30.66-17.29679Z" transform="translate(-19.93355 -11.7767)"/><polygon class="cls-86" points="333.315 605.651 287.594 633.057 257.001 622.124 302.722 594.718 333.315 605.651"/><polygon class="cls-87" points="287.594 633.057 223.382 757.513 222.199 759.799 198.841 805.09 168.248 794.171 257.001 622.124 287.594 633.057"/><polygon class="cls-88" points="198.841 805.09 198.841 834.406 168.248 823.487 168.248 794.171 198.841 805.09"/><polygon class="cls-89" points="300.235 779.433 300.235 820.353 269.642 809.42 269.642 796.013 300.235 779.433"/><polygon class="cls-90" points="301.579 741.941 251.017 770.087 270.422 731.331 270.986 731.008 301.579 741.941"/><polygon class="cls-91" points="301.579 705.458 301.579 741.941 270.986 731.008 270.986 730.188 286.128 699.931 301.579 705.458"/><polygon class="cls-92" points="342.729 681.858 301.579 705.458 286.128 699.931 296.012 680.177 312.136 670.938 342.729 681.858"/><polygon class="cls-93" points="373.389 701.558 342.729 718.852 342.729 690.666 342.796 690.626 373.389 701.558"/></svg>