<svg id="Слой_1" data-name="Слой 1" xmlns="http://www.w3.org/2000/svg" xmlns:xlink="http://www.w3.org/1999/xlink" viewBox="0 0 780 981.97404"><defs><style>.cls-1{fill:url(#Безымянный_градиент_81);}.cls-2{fill:url(#Безымянный_градиент_33);}.cls-3{fill:url(#Безымянный_градиент_77);}.cls-4{fill:url(#Безымянный_градиент_22);}.cls-5{fill:url(#Безымянный_градиент_33-2);}.cls-6{fill:url(#Безымянный_градиент_81-2);}.cls-7{fill:#3f4155;}.cls-8{fill:#cacad2;}.cls-9{fill:#d5f4ff;}.cls-10{fill:#564334;}.cls-11{fill:#e64415;}.cls-12{fill:#b53010;}.cls-13{fill:#fcb2b2;}.cls-14{fill:#f3fdfc;}.cls-15{fill:#723c22;}</style><linearGradient id="Безымянный_градиент_81" x1="-5259.51779" y1="1847.93861" x2="-4691.67876" y2="1847.93861" gradientTransform="translate(5699.48474 -133.93625) rotate(10.74042)" gradientUnits="userSpaceOnUse"><stop offset="0" stop-color="#b5b5c1" stop-opacity="0.3"/><stop offset="0.99512" stop-color="#fdfdfd" stop-opacity="0"/></linearGradient><linearGradient id="Безымянный_градиент_33" x1="-5574.50322" y1="608.61503" x2="-5233.47212" y2="608.61503" gradientTransform="translate(5684.50322)" gradientUnits="userSpaceOnUse"><stop offset="0.57561" stop-color="#fbfbfd"/><stop offset="1" stop-color="#f3f3f5"/></linearGradient><linearGradient id="Безымянный_градиент_77" x1="-5574.50322" y1="738.67612" x2="-5233.47212" y2="738.67612" gradientTransform="translate(5684.50322)" gradientUnits="userSpaceOnUse"><stop offset="0" stop-color="#f77f48"/><stop offset="0.45366" stop-color="#ff9c88"/><stop offset="1" stop-color="#f77f48"/></linearGradient><linearGradient id="Безымянный_градиент_22" x1="-5574.50312" y1="690.86407" x2="-5233.47229" y2="690.86407" gradientTransform="translate(5684.50322)" gradientUnits="userSpaceOnUse"><stop offset="0" stop-color="#fdfdfd"/><stop offset="0.43171" stop-color="#fbfafb"/><stop offset="0.56585" stop-color="#f0eff4"/></linearGradient><linearGradient id="Безымянный_градиент_33-2" x1="180.78531" y1="619.0674" x2="451.03809" y2="619.0674" gradientTransform="matrix(1, 0, 0, 1, 0, 0)" xlink:href="#Безымянный_градиент_33"/><linearGradient id="Безымянный_градиент_81-2" x1="180.78531" y1="619.0674" x2="451.03809" y2="619.0674" gradientTransform="matrix(1, 0, 0, 1, 0, 0)" xlink:href="#Безымянный_градиент_81"/></defs><title>All_vacancies</title><polygon class="cls-1" points="168.377 803.466 676.491 981.974 780 626.016 211.412 599.849 168.377 803.466"/><path class="cls-2" d="M451.0311,608.67651A9.97528,9.97528,0,0,1,446.168,617.287L408.826,639.72784l-27.43758,16.50731-5.22006,3.12305-76.06719,45.77423a38.31445,38.31445,0,0,1-39.34977.04439l-75.13019-44.88189-5.30911-3.16744-27.66087-16.50732-37.78811-22.57478A9.93093,9.93093,0,0,1,110,610.10393v-1.24906a9.87634,9.87634,0,0,1,4.86307-7.98584l124.78584-75.04115,22.7978-13.6966a38.197,38.197,0,0,1,39.61745.089l22.30711,13.60756,121.88608,74.28251A9.91181,9.91181,0,0,1,451.0311,608.67651Z" transform="translate(-110 -9.01298)"/><path class="cls-3" d="M451.0311,671.13642v33.14833c0,.446-.04466.93673-.08932,1.383-.04465.223-.089.40138-.1337.62439a5.9996,5.9996,0,0,1-.31233,1.20468,9.683,9.683,0,0,1-.66932,1.56166v.04438a9.42025,9.42025,0,0,1-.93673,1.383,7.15279,7.15279,0,0,1-1.11535,1.20467c-.04466.04466-.134.134-.17863.134a8.51681,8.51681,0,0,1-1.42769,1.07069L301.21648,800.07135l-1.11536.66932a38.47721,38.47721,0,0,1-22.84246,5.35376,3.90052,3.90052,0,0,1-.7137-.08931,10.70639,10.70639,0,0,1-1.24933-.134,38.57292,38.57292,0,0,1-5.88911-1.29371,15.13916,15.13916,0,0,1-1.51673-.49069,8.03818,8.03818,0,0,1-.937-.357,11.38124,11.38124,0,0,1-2.1414-.89234,15.109,15.109,0,0,1-1.74-.803,16.56774,16.56774,0,0,1-1.74-.937,3.69414,3.69414,0,0,1-.58-.31206l-145.88828-87.087a9.41953,9.41953,0,0,1-1.6507-1.24933,8.67709,8.67709,0,0,1-1.071-1.15974,10.08211,10.08211,0,0,1-1.0707-1.60632,6.595,6.595,0,0,1-.53535-1.29372c-.04466-.04465-.04466-.04465-.04466-.08931v-.04466a5.7012,5.7012,0,0,1-.31233-1.24906A6.04633,6.04633,0,0,1,110,705.71244v-33.1486a9.931,9.931,0,0,0,4.86307,7.94146l13.33961,7.94119,5.3091,3.1677,127.23957,76.02254a38.31445,38.31445,0,0,0,39.34977-.04439l127.64149-76.73651h.04438l5.22006-3.16771,13.161-7.94119A9.97525,9.97525,0,0,0,451.0311,671.13642Z" transform="translate(-110 -9.01298)"/><path class="cls-4" d="M446.16813,617.28684l-37.34208,22.44081L381.38875,656.235l-5.22061,3.12305-76.06692,45.77423a38.314,38.314,0,0,1-39.3495.04439L185.621,660.29474l-5.30883-3.16744L152.65156,640.62,114.86345,618.0452a9.93057,9.93057,0,0,1-4.86335-7.94146v62.45991a9.93058,9.93058,0,0,0,4.86335,7.94146l13.3396,7.94119,5.30883,3.1677,127.23984,76.02254a38.314,38.314,0,0,0,39.3495-.04439l127.64122-76.73651h.04466l5.22006-3.16771,13.161-7.94119a9.97437,9.97437,0,0,0,4.8628-8.61051V608.67632A9.9744,9.9744,0,0,1,446.16813,617.28684Z" transform="translate(-110 -9.01298)"/><path class="cls-5" d="M451.03809,608.68352a9.96124,9.96124,0,0,1-4.874,8.5977l-37.34261,22.44793-27.42791,16.49918-5.22222,3.13324L328.29356,688.167l-30.5763-10.30817L180.78531,582.43632l99.22185-32.4685,98.91909,9.1123,67.32865,41.036A9.90266,9.90266,0,0,1,451.03809,608.68352Z" transform="translate(-110 -9.01298)"/><path class="cls-6" d="M451.03809,608.68352a9.96124,9.96124,0,0,1-4.874,8.5977l-37.34261,22.44793-27.42791,16.49918-5.22222,3.13324L328.29356,688.167l-30.5763-10.30817L180.78531,582.43632l99.22185-32.4685,98.91909,9.1123,67.32865,41.036A9.90266,9.90266,0,0,1,451.03809,608.68352Z" transform="translate(-110 -9.01298)"/><path class="cls-7" d="M230.04142,541.12391s-50.537,12.9752-52.51055,32.42877,33.19794,8.45808,34.39617,7.4713,25.0218-10.22017,28.687-9.09243,11.066,3.66517,25.16277,1.7621,14.4727-4.72242,14.63716-23.54164S230.04142,541.12391,230.04142,541.12391Z" transform="translate(-110 -9.01298)"/><path class="cls-7" d="M311.766,613.17882S281.16577,664.43,291.5974,674.4857s33.73831.188,37.21552-8.55206,14.37873-52.75482,14.37873-52.75482Z" transform="translate(-110 -9.01298)"/><path class="cls-8" d="M336.851,337.55658s.70191,109.59489,7.09246,123.12781,5.63871,48.117,4.135,76.31062,2.07568,47.39578,1.03784,59.03384-5.17289,27.42647-20.9613,24.79507-22.93078-9.022-22.55486-36.08778-1.87957-97.0938-12.40518-115.64762-19.17163-47.87514-19.17163-47.87514,12.02926,122.54809,6.39054,128.93863-48.47772,14.28475-50.55286-10.5256-1.79322-96.98591-5.31741-117.6612-14.8312-82.26014-13.1248-104.6596,42.869-42.32293,42.869-42.32293Z" transform="translate(-110 -9.01298)"/><path class="cls-9" d="M330.41056,107.98638,286.4398,153.89126s-29.89642,94.73042-29.75545,95.43526,5.35678,53.28587,5.35678,53.28587l-14.66066,6.48488-22.8368-9.72714V213.37971L251.3173,102.8442l33.98353-4.35333,16.027-1.72178s-3.5074-3.02714,6.57882-.95135S330.41056,107.98638,330.41056,107.98638Z" transform="translate(-110 -9.01298)"/><polygon class="cls-10" points="127.205 287.961 143.913 295.112 144.288 312.207 123.566 305.229 127.205 287.961"/><path class="cls-11" d="M277.993,160.3258l1.69608-10.76867-24.09327-1.72689-2.31249,9.96167c.99653-4.38127,2.31249-9.96167,2.31249-9.96167l-7.65537-.29424s-11.51525,54.82367-10.13091,65.67566l6.19649.23813c-.08393-8.61811,2.2994-22.03041,5.32085-36.70752l14.77287,1.55391,2.12079-10.64134-14.77531-1.40007c.92785-4.32809,1.09193-5.12407,1.79069-8.19615Zm-27.902,12.37138c.45222-2.19423.90139-4.32967,1.33787-6.36629Z" transform="translate(-110 -9.01298)"/><path class="cls-11" d="M263.10692,97.74639s-7.12741,24.81035-13.21711,42.85424c-6.09,18.04389-11.95419,78.58134-12.54064,86.74619-.3158,4.511-.27065,34.64424-.18034,61.12362v.04516c.09,21.20162.18034,40.10261.18034,41.7265,0,3.65387-31.261-9.022-31.261-23.95326s5.15652-51.55989,5.15652-51.55989V203.79407c0-23.53709,10.50888-79.29034,18.6164-106.26042C233.17071,86.524,249.0966,87.646,249.4124,87.646l8.101,4.01067Z" transform="translate(-110 -9.01298)"/><path class="cls-11" d="M334.28948,222.1494s-6.88624,18.62507-6.13441,33.28573,27.81767,73.30331,21.05121,77.81428S263.12188,356.932,253.724,345.27867s3.20289-52.613,3.20289-52.613l2.05991-43.99695Z" transform="translate(-110 -9.01298)"/><path class="cls-12" d="M263.10692,97.74639s-7.12741,24.81035-13.21711,42.85424c-6.09,18.04389-11.95419,78.58134-12.54064,86.74619-.3158,4.511-.27065,34.64424-.18034,61.12362-.18062-3.02227-7.30775-140.65209-7.30775-148.45626,0-7.8942,11.99906-10.691,14.48-13.30715,2.4361-2.66159-8.07454-3.02255-9.02194-6.04482-.94713-3.02228,16.51031-28.01324,17.63805-29.592l4.55613.58645Z" transform="translate(-110 -9.01298)"/><path class="cls-13" d="M264.57845,104.9653s-.24116,16.30986,11.44235,15.27584,30.00231-13.997,31.553-22.0322A199.54275,199.54275,0,0,0,306.728,74.812L271.486,93.416Z" transform="translate(-110 -9.01298)"/><path class="cls-13" d="M223.75865,219.96066s15.38817-6.185,21.09218-9.57484c3.7084-2.20388,5.00485-14.61343,1.28018-19.99215-7.70435-11.12571-9.85806-13.89232-16.96455-9.76164s-21.02474,15.17658-21.02474,15.17658l2.03457,20.52422Z" transform="translate(-110 -9.01298)"/><path class="cls-14" d="M223.83566,221.79459l.65-1.46045s-7.96293-5.12235-11.08111-11.538-3.6943-14.6639-3.6943-14.6639l-1.45445.75-7.52885,23.34285Z" transform="translate(-110 -9.01298)"/><path class="cls-13" d="M244.38558,44.32874s-2.22093,61.3515,22.58942,60.78763S314.207,68.7008,314.207,68.7008l-.85353-31.249s-57.37393-.98678-58.36071-.98678S244.38558,44.32874,244.38558,44.32874Z" transform="translate(-110 -9.01298)"/><path class="cls-15" d="M280.41394,9.02325c20.85564-.56367,36.27574,22.179,36.27574,42.29037s-4.88689,19.54755-4.88689,19.54755l-.56387-3.75915s3.00909-23.68438-6.95441-13.72087c-3.19528,3.19527.75183,21.0512-2.6314,21.42712s-2.6314-27.44175-21.23917-28.38154-15.41249,3.57119-23.6826,2.81936-18.41981-6.95442-17.48-15.22453S252.59628,9.77508,280.41394,9.02325Z" transform="translate(-110 -9.01298)"/><path class="cls-11" d="M371.00933,155.8477c-1.12775,18.63037-.787,38.45024-1.40615,57.02444a69.3009,69.3009,0,0,1-10.49166,35.51715c-11.61087,18.97465-80.38694-23.91731-83.9505-24.63891,0,0,7.89375,1.08283,15.186-11.30307,3.267-5.549,1.95165-13.7543,1.95165-13.7543s33.02028,18.5137,33.87739,15.13051c.007-.028,4.2345-13.51914,8.48664-26.60676.27282-.8397,2.15233,17.36861-.37322,34.93264-1.99744,13.89126-6.01152,30.33636-6.88056,30.29405-13.394-.65212-36.93955-4.13854-49.93181-8.18137-2.97436-.92554-10.48507,6.78687-13.15411,5.95459-9.57129-2.98463-11.92133-14.28726-11.90708-14.34431,1.35326-6.76649,11.54812-66.35629,25.532-82.32529,12.58554-14.38974,43.30525-38.47848,50.79361-44.29748l1.669-1.2632S372.13708,137.26257,371.00933,155.8477Z" transform="translate(-110 -9.01298)"/><path class="cls-13" d="M290.66181,199.52363s-12.00965-11.43757-17.45977-15.22215c-3.54334-2.46051-15.37311,1.50613-18.72285,7.126-6.92882,11.62453-8.55315,14.73165-1.8473,19.4852S275.161,223.75038,275.161,223.75038l17.83235-10.36293Z" transform="translate(-110 -9.01298)"/><path class="cls-14" d="M292.29867,198.693l-1.59848.01423s-1.35882,9.37019-5.90361,14.86821-11.81143,9.44288-11.81143,9.44288l1.28561,1.01247,24.36321-2.82957Z" transform="translate(-110 -9.01298)"/><path class="cls-12" d="M256.8334,213.64c5.08273,3.10106,11.67024,6.62425,15.39513,8.58754-1.87157,6.58752-3.30289,11.78045-3.30289,11.78045l-8.44071,34.99249c-2.12861,10.11047-3.52307,18.643-3.55981,23.6524,0,0-5.10121-4.88092-6.6425-20.53308l2.03676-35.7815c.03674-.16508.03674-.31191.09173-.49536C252.88821,233.49411,254.42962,224.74149,256.8334,213.64Z" transform="translate(-110 -9.01298)"/><path class="cls-12" d="M320.31531,101.07525l11.10064,7.632s-15.589,41.5858-20.26353,41.35184c-4.393-.21987-12.06022-4.881-12.31714-3.6699-.27517,1.22938,10.496,10.00049,4.40392,15.59706C297.716,167.1058,289.82574,172.372,281.807,191.382a104.66406,104.66406,0,0,0-8.60591-7.08287c-1.72486-1.19265-5.39476-.88074-9.10139.42211,3.90845-13.13829,8.60591-25.21229,13.83558-31.19412,12.58772-14.38605,34.89338-46.63513,42.38-52.45189Z" transform="translate(-110 -9.01298)"/><path class="cls-11" d="M334.2865,222.15415c-1.85331,12.89974-7.46825,25.92783-8.95455,27.68942-23.54231-11.15652-48.29586-25.726-50.16744-26.093,0,0,7.89026,1.08267,15.17495-11.30323,3.26626-5.54158,1.96341-13.76212,1.96341-13.76212s33.01082,18.51457,33.87319,15.13833c0-.03674,4.23873-13.52356,8.47746-26.60676C334.9288,186.37265,336.81874,204.59367,334.2865,222.15415Z" transform="translate(-110 -9.01298)"/><path class="cls-11" d="M223.83566,221.79459s-51.51056,25.39571-53.3008,2.23621C166.30617,169.326,230.72326,95.427,230.72326,95.427l-5.31646,49.86215s-6.04672,36.13721-5.04611,38.26824-12.10494,11.32487-12.10494,11.32487-4.92429,9.081.59829,17.67977A20.85887,20.85887,0,0,0,223.83566,221.79459Z" transform="translate(-110 -9.01298)"/></svg>