<svg id="Слой_1" data-name="Слой 1" xmlns="http://www.w3.org/2000/svg" xmlns:xlink="http://www.w3.org/1999/xlink" viewBox="0 0 982 626.53034"><defs><style>.cls-1{fill:url(#Безымянный_градиент_81);}.cls-2{fill:url(#Безымянный_градиент_81-2);}.cls-3{fill:url(#Безымянный_градиент_81-3);}.cls-4{fill:#292941;}.cls-5{fill:#ffadae;}.cls-6{fill:#d7e3f4;}.cls-7{fill:#e64415;}.cls-8{fill:#fa99b0;}.cls-9{fill:#ffafb0;}.cls-10{fill:#ffe5d6;}.cls-11{fill:#111423;}.cls-12{fill:url(#Безымянный_градиент_81-4);}.cls-13{fill:#3f4155;}.cls-14{fill:#fcc1c0;}.cls-15,.cls-26{fill:#fff;}.cls-16{fill:#ffd972;}.cls-17{fill:#7c5b5b;}.cls-18{fill:#9f6c6c;}.cls-19{fill:#b53010;}.cls-20{fill:#6ba3fc;}.cls-21{fill:url(#Безымянный_градиент_81-5);}.cls-22{fill:#1f2096;}.cls-23{fill:#e7b67c;}.cls-24{fill:#fffef9;}.cls-25{fill:#fef9ff;}.cls-26{stroke:#3915b5;stroke-linecap:round;stroke-linejoin:round;}.cls-27{fill:#ffb071;}.cls-28{fill:#ed9c6d;}.cls-29{fill:#474c69;}.cls-30{fill:#eaa7a7;}.cls-31{fill:#fcafae;}.cls-32{fill:#468939;}.cls-33{fill:#c02827;}.cls-34{fill:#007ee4;}.cls-35{fill:#714a4a;}.cls-36{fill:#3e384d;}.cls-37{fill:#d6d6dc;}.cls-38{fill:#b7b7c7;}.cls-39{fill:#cacad2;}.cls-40{fill:#d5f4ff;}.cls-41{fill:#564334;}.cls-42{fill:#fcb2b2;}.cls-43{fill:#f3fdfc;}.cls-44{fill:#723c22;}.cls-45{fill:url(#Безымянный_градиент_81-6);}.cls-46{fill:#a16565;}.cls-47{fill:#cc8989;}.cls-48{fill:#4e5065;}.cls-49{fill:#575d7b;}.cls-50{fill:#e6e7e8;}.cls-51{fill:#f6cf7f;}.cls-52{fill:url(#Безымянный_градиент_81-7);}.cls-53{fill:url(#Безымянный_градиент_33);}.cls-54{fill:url(#Безымянный_градиент_77);}.cls-55{fill:url(#Безымянный_градиент_22);}.cls-56{fill:url(#Безымянный_градиент_22-2);}.cls-57{fill:url(#Безымянный_градиент_54);}.cls-58{fill:url(#Безымянный_градиент_81-8);}.cls-59{fill:url(#Безымянный_градиент_104);}.cls-60{fill:url(#Безымянный_градиент_77-2);}.cls-61{fill:url(#Безымянный_градиент_95);}.cls-62{fill:url(#Безымянный_градиент_77-3);}.cls-63{fill:url(#Безымянный_градиент_104-2);}.cls-64{fill:url(#Безымянный_градиент_104-3);}.cls-65{fill:url(#Безымянный_градиент_80);}.cls-66{fill:url(#Безымянный_градиент_95-2);}.cls-67{fill:url(#Безымянный_градиент_104-4);}.cls-68{fill:url(#Безымянный_градиент_77-4);}.cls-69{fill:url(#Безымянный_градиент_39);}.cls-70{fill:url(#Безымянный_градиент_95-3);}.cls-71{fill:url(#Безымянный_градиент_95-4);}.cls-72{fill:url(#Безымянный_градиент_103);}.cls-73{fill:url(#Безымянный_градиент_104-5);}.cls-74{fill:url(#Безымянный_градиент_77-5);}.cls-75{fill:url(#Безымянный_градиент_104-6);}.cls-76{fill:url(#Безымянный_градиент_38);}.cls-77{fill:url(#Безымянный_градиент_33-2);}.cls-78{fill:url(#Безымянный_градиент_38-2);}.cls-79{fill:url(#Безымянный_градиент_63);}.cls-80{fill:url(#Безымянный_градиент_33-3);}.cls-81{fill:url(#Безымянный_градиент_23);}.cls-82{fill:url(#Безымянный_градиент_23-2);}.cls-83{fill:url(#Безымянный_градиент_33-4);}.cls-84{fill:url(#Безымянный_градиент_38-3);}.cls-85{fill:url(#Безымянный_градиент_23-3);}.cls-86{fill:url(#Безымянный_градиент_23-4);}.cls-87{fill:url(#Безымянный_градиент_33-5);}.cls-88{fill:url(#Безымянный_градиент_33-6);}.cls-89{fill:url(#Безымянный_градиент_38-4);}.cls-90{fill:url(#Безымянный_градиент_23-5);}.cls-91{fill:url(#Безымянный_градиент_23-6);}.cls-92{fill:url(#Безымянный_градиент_38-5);}.cls-93{fill:url(#Безымянный_градиент_44);}</style><linearGradient id="Безымянный_градиент_81" x1="-5139.09824" y1="1726.22241" x2="-4893.72731" y2="1726.22241" gradientTransform="translate(5800.48474 -311.65811) rotate(10.74042)" gradientUnits="userSpaceOnUse"><stop offset="0" stop-color="#b5b5c1" stop-opacity="0.3"/><stop offset="0.99512" stop-color="#fdfdfd" stop-opacity="0"/></linearGradient><linearGradient id="Безымянный_градиент_81-2" x1="-5524.71005" y1="1779.94462" x2="-5368.49878" y2="1779.94462" xlink:href="#Безымянный_градиент_81"/><linearGradient id="Безымянный_градиент_81-3" x1="623.77903" y1="437.22633" x2="781.02889" y2="437.22633" gradientTransform="matrix(1, 0, 0, 1, 0, 0)" xlink:href="#Безымянный_градиент_81"/><linearGradient id="Безымянный_градиент_81-4" x1="-5261.49393" y1="1663.37914" x2="-5124.85841" y2="1663.37914" xlink:href="#Безымянный_градиент_81"/><linearGradient id="Безымянный_градиент_81-5" x1="-5434.4482" y1="1707.81616" x2="-5278.23693" y2="1707.81616" xlink:href="#Безымянный_градиент_81"/><linearGradient id="Безымянный_градиент_81-6" x1="-4745.42659" y1="1683.10849" x2="-4602.07914" y2="1683.10849" xlink:href="#Безымянный_градиент_81"/><linearGradient id="Безымянный_градиент_81-7" x1="-5268.66136" y1="1840.84718" x2="-5043.03714" y2="1840.84718" xlink:href="#Безымянный_градиент_81"/><linearGradient id="Безымянный_градиент_33" x1="-5468.75043" y1="540.03758" x2="-5333.24559" y2="540.03758" gradientTransform="translate(5684.50322)" gradientUnits="userSpaceOnUse"><stop offset="0.57561" stop-color="#fbfbfd"/><stop offset="1" stop-color="#f3f3f5"/></linearGradient><linearGradient id="Безымянный_градиент_77" x1="-5468.7563" y1="591.72221" x2="-5333.25157" y2="591.72221" gradientTransform="translate(5684.50322)" gradientUnits="userSpaceOnUse"><stop offset="0" stop-color="#f77f48"/><stop offset="0.45366" stop-color="#ff9c88"/><stop offset="1" stop-color="#f77f48"/></linearGradient><linearGradient id="Безымянный_градиент_22" x1="-5468.75042" y1="572.71833" x2="-5333.24558" y2="572.71833" gradientTransform="translate(5684.50322)" gradientUnits="userSpaceOnUse"><stop offset="0" stop-color="#fdfdfd"/><stop offset="0.43171" stop-color="#fbfafb"/><stop offset="0.56585" stop-color="#f0eff4"/></linearGradient><linearGradient id="Безымянный_градиент_22-2" x1="-5468.75626" y1="660.29546" x2="-5333.25142" y2="660.29546" xlink:href="#Безымянный_градиент_22"/><linearGradient id="Безымянный_градиент_54" x1="251.1775" y1="435.98812" x2="313.54203" y2="385.03912" gradientUnits="userSpaceOnUse"><stop offset="0" stop-color="#f0eff4" stop-opacity="0.2"/><stop offset="1" stop-color="#d2cfda" stop-opacity="0.3"/></linearGradient><linearGradient id="Безымянный_градиент_81-8" x1="-5421.48669" y1="550.83187" x2="-5333.46901" y2="550.83187" gradientTransform="translate(5684.50322)" xlink:href="#Безымянный_градиент_81"/><linearGradient id="Безымянный_градиент_104" x1="267.81711" y1="494.84317" x2="291.95712" y2="494.84317" gradientUnits="userSpaceOnUse"><stop offset="0.57561" stop-color="#ff9c88"/><stop offset="1" stop-color="#f77f48"/></linearGradient><linearGradient id="Безымянный_градиент_77-2" x1="230.54767" y1="329.18413" x2="247.34547" y2="319.48591" gradientTransform="matrix(1, 0, 0, 1, 0, 0)" xlink:href="#Безымянный_градиент_77"/><linearGradient id="Безымянный_градиент_95" x1="252.46448" y1="508.7998" x2="284.53062" y2="508.7998" gradientUnits="userSpaceOnUse"><stop offset="0" stop-color="#ef6452"/><stop offset="0.3561" stop-color="#f77f48"/></linearGradient><linearGradient id="Безымянный_градиент_77-3" x1="243.86564" y1="527.2971" x2="257.46596" y2="527.2971" gradientTransform="matrix(1, 0, 0, 1, 0, 0)" xlink:href="#Безымянный_градиент_77"/><linearGradient id="Безымянный_градиент_104-2" x1="251.9909" y1="498.68944" x2="267.39519" y2="485.95354" xlink:href="#Безымянный_градиент_104"/><linearGradient id="Безымянный_градиент_104-3" x1="244.94059" y1="515.31385" x2="260.1982" y2="514.05863" xlink:href="#Безымянный_градиент_104"/><linearGradient id="Безымянный_градиент_80" x1="246.71348" y1="342.28205" x2="254.0109" y2="341.00459" gradientUnits="userSpaceOnUse"><stop offset="0" stop-color="#e64415"/><stop offset="0.3561" stop-color="#f77f48"/></linearGradient><linearGradient id="Безымянный_градиент_95-2" x1="275.53017" y1="322.82743" x2="282.95668" y2="322.82743" xlink:href="#Безымянный_градиент_95"/><linearGradient id="Безымянный_градиент_104-4" x1="250.03304" y1="338.96171" x2="293.36779" y2="313.97986" xlink:href="#Безымянный_градиент_104"/><linearGradient id="Безымянный_градиент_77-4" x1="244.67123" y1="353.39486" x2="257.2803" y2="346.12592" gradientTransform="matrix(1, 0, 0, 1, 0, 0)" xlink:href="#Безымянный_градиент_77"/><linearGradient id="Безымянный_градиент_39" x1="249.10885" y1="354.38454" x2="300.13106" y2="324.97099" gradientUnits="userSpaceOnUse"><stop offset="0" stop-color="#f77f48"/><stop offset="1" stop-color="#ef6452"/></linearGradient><linearGradient id="Безымянный_градиент_95-3" x1="310.87263" y1="541.41303" x2="327.8601" y2="531.62" xlink:href="#Безымянный_градиент_95"/><linearGradient id="Безымянный_градиент_95-4" x1="298.12518" y1="530.36183" x2="313.33951" y2="521.59099" xlink:href="#Безымянный_градиент_95"/><linearGradient id="Безымянный_градиент_103" x1="297.63831" y1="355.50486" x2="310.70983" y2="347.96932" gradientUnits="userSpaceOnUse"><stop offset="0" stop-color="#f77f48"/><stop offset="0.3561" stop-color="#ff9c88"/></linearGradient><linearGradient id="Безымянный_градиент_104-5" x1="273.65024" y1="533.82858" x2="304.85758" y2="525.62253" xlink:href="#Безымянный_градиент_104"/><linearGradient id="Безымянный_градиент_77-5" x1="271.12003" y1="552.64156" x2="309.306" y2="530.62791" gradientTransform="matrix(1, 0, 0, 1, 0, 0)" xlink:href="#Безымянный_градиент_77"/><linearGradient id="Безымянный_градиент_104-6" x1="300.74015" y1="518.53894" x2="323.13043" y2="517.15769" xlink:href="#Безымянный_градиент_104"/><linearGradient id="Безымянный_градиент_38" x1="243.86564" y1="514.77141" x2="257.46596" y2="514.77141" gradientUnits="userSpaceOnUse"><stop offset="0" stop-color="#fdfdfd"/><stop offset="1" stop-color="#f0eff4"/></linearGradient><linearGradient id="Безымянный_градиент_33-2" x1="244.94059" y1="512.92086" x2="260.1982" y2="511.66563" gradientTransform="matrix(1, 0, 0, 1, 0, 0)" xlink:href="#Безымянный_градиент_33"/><linearGradient id="Безымянный_градиент_38-2" x1="234.34084" y1="313.3267" x2="243.46438" y2="310.37252" xlink:href="#Безымянный_градиент_38"/><linearGradient id="Безымянный_градиент_63" x1="267.81711" y1="492.45018" x2="291.95712" y2="492.45018" gradientUnits="userSpaceOnUse"><stop offset="0.00732" stop-color="#d2cfda"/><stop offset="0.29756" stop-color="#fbfbfd"/><stop offset="0.57561" stop-color="#fbfbfd"/><stop offset="1" stop-color="#f3f3f5"/></linearGradient><linearGradient id="Безымянный_градиент_33-3" x1="251.9909" y1="496.29644" x2="267.39519" y2="483.56055" gradientTransform="matrix(1, 0, 0, 1, 0, 0)" xlink:href="#Безымянный_градиент_33"/><linearGradient id="Безымянный_градиент_23" x1="248.15779" y1="329.50289" x2="252.23856" y2="328.78852" gradientUnits="userSpaceOnUse"><stop offset="0" stop-color="#b5b5c1"/><stop offset="0.3561" stop-color="#d2cfda"/><stop offset="0.99268" stop-color="#f0eff4"/></linearGradient><linearGradient id="Безымянный_градиент_23-2" x1="252.46448" y1="496.27572" x2="284.53062" y2="496.27572" xlink:href="#Безымянный_градиент_23"/><linearGradient id="Безымянный_градиент_33-4" x1="250.03304" y1="336.56871" x2="293.36779" y2="311.58686" gradientTransform="matrix(1, 0, 0, 1, 0, 0)" xlink:href="#Безымянный_градиент_33"/><linearGradient id="Безымянный_градиент_38-3" x1="248.92379" y1="338.41927" x2="252.96009" y2="336.09241" xlink:href="#Безымянный_градиент_38"/><linearGradient id="Безымянный_градиент_23-3" x1="253.49243" y1="339.33342" x2="295.74747" y2="314.97401" xlink:href="#Безымянный_градиент_23"/><linearGradient id="Безымянный_градиент_23-4" x1="275.53017" y1="310.30338" x2="282.95668" y2="310.30338" xlink:href="#Безымянный_градиент_23"/><linearGradient id="Безымянный_градиент_33-5" x1="273.65024" y1="531.43559" x2="304.85758" y2="523.22953" gradientTransform="matrix(1, 0, 0, 1, 0, 0)" xlink:href="#Безымянный_градиент_33"/><linearGradient id="Безымянный_градиент_33-6" x1="300.74015" y1="516.14595" x2="323.13043" y2="514.76469" gradientTransform="matrix(1, 0, 0, 1, 0, 0)" xlink:href="#Безымянный_градиент_33"/><linearGradient id="Безымянный_градиент_38-4" x1="275.48511" y1="537.60111" x2="304.92241" y2="520.63094" xlink:href="#Безымянный_градиент_38"/><linearGradient id="Безымянный_градиент_23-5" x1="315.26491" y1="526.33681" x2="323.46782" y2="521.60795" xlink:href="#Безымянный_градиент_23"/><linearGradient id="Безымянный_градиент_23-6" x1="302.50816" y1="515.30968" x2="308.95534" y2="511.59298" xlink:href="#Безымянный_градиент_23"/><linearGradient id="Безымянный_градиент_38-5" x1="301.8993" y1="340.50433" x2="306.38106" y2="337.92066" xlink:href="#Безымянный_градиент_38"/><linearGradient id="Безымянный_градиент_44" x1="283.50522" y1="409.88779" x2="283.50522" y2="581.0189" gradientUnits="userSpaceOnUse"><stop offset="0" stop-color="#f0eff4" stop-opacity="0.2"/><stop offset="1" stop-color="#d2cfda" stop-opacity="0.5"/></linearGradient></defs><title>Bottom_img</title><polygon class="cls-1" points="431.465 417.388 511.249 482.495 659.382 532.47 681.168 411.995 499.167 395.234 431.465 417.388"/><polygon class="cls-2" points="33.728 445.061 182.916 496.773 204.702 376.298 90.393 374.804 74.87 398.149 49.839 398.957 33.728 445.061"/><polygon class="cls-3" points="654.973 476.735 781.029 499.059 774.923 375.394 636.951 441.566 623.779 460.701 654.973 476.735"/><path class="cls-4" d="M680.3864,633.92349s.90243,9.92673-.90243,12.90475-7.35481,14.845-12.27305,15.02545-7.92619-3.43625-5.4521-15.14177S680.3864,633.92349,680.3864,633.92349Z" transform="translate(-9 -186.73483)"/><path class="cls-4" d="M662.23905,621.15584a23.86451,23.86451,0,0,1,0,3.06653c-.12685.76707-1.00091,3.11339-.94741,4.6024s-.364,8.42-.364,8.42h-2.1093s.54146-7.15656-1.128-8.42-4.1963,2.617-4.4219,3.42923-1.21828,8.25723-.94755,9.43039-5.50483,7.76089-11.19013,7.30968-9.47388-1.21822-9.70031-3.00055a9.77454,9.77454,0,0,1,.00595-2.91317Z" transform="translate(-9 -186.73483)"/><path class="cls-5" d="M631.8142,302.25683s-9.24991-2.43656-12.54377.45122-14.79985,23.68877-25.80949,35.23987-17.68762,18.59-19.85345,18.77054S548.52,334.69918,548.159,333.43577s4.64752-8.167,2.84266-10.28769-4.91824,3.60972-5.956,3.56459-1.2634-9.79136-1.2634-9.79136-.49634-9.8816-7.26456-9.52063-7.76089,9.70112-7.445,15.02545,2.84265,17.23641,9.38527,22.87659,29.91554,28.83263,34.96914,28.5619,19.9437-13.89742,27.07289-22.10952,21.38758-28.87775,22.29-27.52411,3.79021,2.88778,3.79021,2.88778l15.13073-12.27305Z" transform="translate(-9 -186.73483)"/><path class="cls-6" d="M660.73163,612.61893c1.21512-.00782,2.41836,7.8734,1.33544,8.77583s-10.769,6.13652-10.408,18.22908c.11848,3.96892-12.995,7.15927-15.64211,6.19668s-6.49749-.30081-3.48939-5.71538a33.16551,33.16551,0,0,1,7.27959-8.84381Z" transform="translate(-9 -186.73483)"/><path class="cls-5" d="M708.81561,410.70694c-.72552,16.60759-7.7612,56.30967-7.40147,61.72965.35972,5.41393,3.24958,14.07743,2.88375,16.05888-.35969,1.98754-2.16434,6.68205-6.67592,7.04174s-7.5783-7.58436-8.6635-7.76116c-1.07914-.18289-3.24958,2.34724-3.969.54262-.72552-1.80465,3.42637-5.77975,3.24958-8.8464-.1829-3.06668-1.98755-11.37046-.35973-14.97973.60358-1.3474,1.57908-7.627,2.57285-15.41262.00611-.02437.00611-.04875.01217-.07316,0-.02437.0061-.04874.0061-.07315.02441-.16459.04879-.32922.06706-.49384.07926-.49994.14025-.99377.189-1.49371.01831-.11584.03051-.23775.04268-.35359v-.01831c1.573-12.71782,3.10937-28.27675,3.22521-33.16026.20116-8.30378-4.79208-54.74887-5.93824-55.0476-.1951-.04878-.3963.06095-.59751.27436-.97546,1.04863-1.92655,4.59694-1.92655,4.59694s-18.22932-9.02319-18.589-11.37043c-.36583-2.34727.53652-24.79553.53652-24.79553l6.22476-.90841,5.95044-.86573,2.207-.32315s14.681,8.127,15.943,11.73626S709.535,394.10548,708.81561,410.70694Z" transform="translate(-9 -186.73483)"/><path class="cls-6" d="M678.91433,615.60417s2.28425,15.29618,1.47207,18.31932-4.96337,25.49364-13.58157,24.95218-4.55727-14.25839-4.55727-14.25839Z" transform="translate(-9 -186.73483)"/><path class="cls-5" d="M627.05281,512.50159c-.86245,1.30622,3.97069,35.55573,6.49749,46.74585s11.5511,49.09217,11.19013,54.86772-1.7447,13.356-3.42924,15.64212-3.85036,5.29425-2.5268,6.25684,7.09911,3.73,8.66333,1.32356,3.48939-8.66332,4.69263-10.46818,8.543-10.70883,8.78365-12.03239-11.5511-91.32588-11.5511-91.32588Z" transform="translate(-9 -186.73483)"/><path class="cls-5" d="M656.35169,526.76s7.58041,87.83648,7.33976,95.29656-1.44389,22.56074-1.44389,22.56074,3.54956-2.64712,6.07636-1.62437,6.49749,4.63247,6.49749,4.63247,4.03086-11.13,4.091-29.23872-1.32357-98.12418-1.32357-98.12418Z" transform="translate(-9 -186.73483)"/><path class="cls-7" d="M690.76312,440.48961c-.90844-7.71241-9.26707-25.34422-11.65093-32.92248a9.53859,9.53859,0,0,1-.62184-3.05448,6.27891,6.27891,0,0,1,.09143-.63405c1.01815-6.07238,9.41339-39.43381,9.41339-39.43381s.07926-4.23726-.53652-5.80413c-.14021-.35362-.3231-.5731-.54262-.5731-1.20714,0-2.28628,3.0057-4.93835,2.76792-2.646-.24385-6.49306-15.28457-5.77361-21.30207.72551-6.01139,5.65777-14.55906,5.65777-14.55906l-.86573-3.65195a31.70768,31.70768,0,0,1-1.3413,3.9751l-5.95044.86573c-4.77377-1.79245-11.06559-5.74314-11.93746-7.32221-.25-.45726-.20726-1.78635.03052-3.68243a5.02218,5.02218,0,0,0,.945-1.74366,22.96167,22.96167,0,0,0,.10363-4.50551c-.04268-1.40225-.12194-2.88376-.1951-4.10311.40851-.21951.79257-.43288,1.1584-.65236a22.35891,22.35891,0,0,0,5.17614-3.96289l3.45685-14.809V285.376l-5.13956,2.8167-29.61805,16.24783-2.06067,1.134s-.42678.46336-1.12182,1.23766c-2.55454,2.84107-8.74277,9.8097-10.6998,12.83977-.04879.07316-.10364.17072-.16463.28046-1.701,3.06665-8.316,19.534-8.316,24.77719,0,8.42572,7.938,8.6635,7.938,13.95548,0,4.31652,1.84123,21.43012,1.3474,29.69122v.0122a10.62478,10.62478,0,0,1-.74383,3.98727,17.92408,17.92408,0,0,0-.95109,2.12776v.0061c-2.4387,6.298-6.37112,21.296-6.26745,26.02705.12191,5.41393,6.98076,89.75643,8.30378,92.04272a10.71906,10.71906,0,0,0,2.0363,1.90222A110.97841,110.97841,0,0,0,649.96971,528.1a53.89672,53.89672,0,0,0,6.70033,2.36554c4.02994,1.10351,7.74288,1.43883,10.63274.506,6.06018-1.96314,8.99272-3.26175,10.3889-4.39574,1.512-1.23766,1.21935-2.28022,1.15836-3.7861-.11584-2.88986,3.12764-52.10289,5.77971-56.43157a54.285,54.285,0,0,0,5.82243-17.27823c.00611-.02437.00611-.04875.01217-.07316,0-.02437.0061-.04874.0061-.07315.02441-.16459.04879-.32922.06706-.49384.07926-.49994.14025-.99377.189-1.49371.01831-.11584.03051-.23775.04268-.35359v-.01831A28.97012,28.97012,0,0,0,690.76312,440.48961Z" transform="translate(-9 -186.73483)"/><path class="cls-8" d="M662.74242,313.41493a5.02218,5.02218,0,0,1-.945,1.74366,8.81677,8.81677,0,0,1-6.365,3.274,5.65448,5.65448,0,0,1-6.09065-3.969c-.37193-.8901.02437-3.93241.24385-5.35293.067-.45115.11584-.73772.11584-.73772l12.77271-6.2248s.08536,1.11571.17679,2.65821c.07316,1.21935.15242,2.70086.1951,4.10311A22.96167,22.96167,0,0,1,662.74242,313.41493Z" transform="translate(-9 -186.73483)"/><path class="cls-9" d="M676.20407,269.2683,672.44234,285.376v.00607l-3.45685,14.809a22.35891,22.35891,0,0,1-5.17614,3.96289c-.36583.21948-.74989.43285-1.1584.65236a42.00079,42.00079,0,0,1-13.06534,4.30431,55.17221,55.17221,0,0,1-7.6758.70721,9.19268,9.19268,0,0,1-7.40757-3.0057c-2.14607-2.35944-3.35322-5.90166-3.95679-9.91333-1.48151-9.84624.695-22.48484,1.60955-27.06958.22558-1.12792.3719-1.76807.3719-1.76807Z" transform="translate(-9 -186.73483)"/><path d="M679.935,405.71083a13.73758,13.73758,0,0,1-6.87292,7.63822,22.36038,22.36038,0,0,1-10.61236,2.3679,51.46869,51.46869,0,0,1-16.0562-3.03212c-12.12851-4.04287-19.72372-9.24092-22.56779-15.44962a10.53359,10.53359,0,0,1-.67893-7.98465,1.442,1.442,0,0,1,1.45834-.88084,42.91107,42.91107,0,0,0,1.64623,7.20508c.08636.18762.15863.37533.2598.5775,1.747,3.72525,6.7862,9.12538,20.79183,13.80356,10.45409,3.47982,18.88616,3.76852,24.41637.83748a14.08228,14.08228,0,0,0,2.29555-1.53052l.159-.15881a9.23484,9.23484,0,0,0,1.29936-1.314,19.74139,19.74139,0,0,0,3.10457-3.91288,1.42228,1.42228,0,0,1,.34652.04327A1.44587,1.44587,0,0,1,679.935,405.71083Z" transform="translate(-9 -186.73483)"/><path d="M624.60513,388.35536a.11242.11242,0,0,1,.04336.01436c-.01446,0-.02891-.01436-.04336,0Z" transform="translate(-9 -186.73483)"/><path class="cls-10" d="M678.61226,252.53879c-25.7527-14.43711-42.83578-5.65166-48.37165,1.56688s-4.57256,8.90128-4.57256,8.90128c.27436,1.40225,2.93864,3.99947,6.48695,6.82227,7.40754,5.90776,18.64386,12.80926,19.86321,11.93132,1.80465-1.30467,4.33482-1.70708,4.33482,0s12.15083-1.30467,11.54726,3.26789c-.08537.65236-.29877,1.74977-.59751,3.16422-.80478,3.87143-2.25581,10.1084-3.49343,15.9613-.36583.21948-.74989.43285-1.1584.65236.07316,1.21935.15242,2.70086.1951,4.10311-.45725,2.38381-.83525,4.54209-1.04862,6.24917-.23778,1.89608-.28047,3.22517-.03052,3.68243.87187,1.57907,7.16369,5.52976,11.93746,7.32221,2.51186.945,4.603,1.29251,5.26761.378a7.15268,7.15268,0,0,0,.68283-1.24372,31.70768,31.70768,0,0,0,1.3413-3.9751c.98767-3.51173,1.78634-7.2978,2.31066-7.2978.84135,0,2.646,4.21285,4.93229,2.28629C690.52534,314.39039,704.35888,266.982,678.61226,252.53879Z" transform="translate(-9 -186.73483)"/><polygon class="cls-11" points="644.904 162.775 661.286 168.442 659.577 173.193 644.124 168.248 644.904 162.775"/><polygon class="cls-12" points="320.555 345.33 387.318 378.982 443.849 400.758 461.908 333.307 356.987 330.34 320.555 345.33"/><path class="cls-6" d="M387.46264,549.2224s-2.21154,17.1,8.855,16.49463,9.39856-14.98232,8.90836-16.79836S387.46264,549.2224,387.46264,549.2224Z" transform="translate(-9 -186.73483)"/><path class="cls-6" d="M326.92355,523.44367s-.75668,6.35614,0,7.11282,3.279,3.93475,9.33243,2.21961,28.59224-14.22565,29.07666-15.68857-.02584-5.84962-.02584-5.84962Z" transform="translate(-9 -186.73483)"/><path class="cls-13" d="M387.63476,527.5802s.07567,10.44223,0,13.77164-2.19438,20.12777,8.24784,19.52242,9.30721-15.20933,9.30721-15.20933-1.135-20.71972-2.42139-21.86144S387.63476,527.5802,387.63476,527.5802Z" transform="translate(-9 -186.73483)"/><path class="cls-13" d="M345.38662,505.43461s-18.21084,14.1752-18.46307,18.00906,4.48966,6.65881,8.87842,5.49856,28.67823-14.57876,29.24577-15.83989.4162-10.49268-1.65206-10.7449S345.38662,505.43461,345.38662,505.43461Z" transform="translate(-9 -186.73483)"/><path class="cls-6" d="M387.28835,523.04617l.34641,4.534a6.35178,6.35178,0,0,0,7.8695,3.10241c5.59946-1.74038,6.96149-4.99411,6.96149-6.35614v-5.22112Z" transform="translate(-9 -186.73483)"/><path class="cls-6" d="M345.13,501.10443l.25667,4.33018s-.3784,6.35614,7.55419,4.13654,10.45487-6.003,10.45487-6.40659v-4.54009Z" transform="translate(-9 -186.73483)"/><path class="cls-14" d="M325.2084,274.79761s-9.08019,14.7301-10.69445,15.739-32.20953,17.45416-34.21471,17.45416-11.61512-7.56684-12.10693-7.26416-10.48,9.38287-10.48,9.38287,2.62317,7.8695,10.99713,8.47485,20.27911,2.72406,53.77494-11.50158c6.24261-2.42139,12.05573-10.92756,15.96564-17.7725a21.803,21.803,0,0,0,2.69921-13.50374Z" transform="translate(-9 -186.73483)"/><path class="cls-13" d="M336.20553,369.33255s-1.41247,51.9589,0,63.864,8.07129,67.39524,8.07129,67.39524,9.2567,6.65881,20.77092-2.42138c0,0-3.82122-66.99168-2.61053-75.66831s4.19013-32.343,4.19013-32.343,4.28472,55.95149,6.50433,67.85664,10.49267,63.56138,11.70336,64.16672,12.10693,4.84277,19.77465-3.43029c1.21069-1.41248-7.46594-57.30614-7.26416-75.26475s1.40077-67.18345,1.40077-67.18345Z" transform="translate(-9 -186.73483)"/><path class="cls-15" d="M325.2084,274.79761s6.65882-14.61453,18.96753-11.84736,34.499-3.2577,34.499-3.2577l2.83066,2.14056,19.8629,13.31762s15.04541,2.8754,12.52313,30.72133c0,0-6.15435,6.25525-14.22564,4.84277s-5.95257-2.42138-5.95257-2.42138l3.53118,16.49569-1.89043,52.88918s-14.75659,14.5565-31.90808,12.236-25.32366-10.99713-27.24059-20.58178,2.47183-83.99182,2.47183-83.99182S328.6387,282.8689,325.2084,274.79761Z" transform="translate(-9 -186.73483)"/><path class="cls-7" d="M344.24827,263.57808s-8.14363,28.06834-8.4463,41.386-4.99411,40.25554-4.5401,51.00044,4.08609,14.67965,5.59945,12.10693,2.951-16.79836,3.97256-26.93792,2.09078-40.1042,2.91819-43.28227,2.38713-17.59659,4.634-22.72126S344.24827,263.57808,344.24827,263.57808Z" transform="translate(-9 -186.73483)"/><path class="cls-7" d="M381.50563,261.83311l19.8629,13.31762s-17.44152,2.72406-15.92815,23.60851,6.65881,25.87856,11.80425,26.0299,2.8754,50.8491,2.8754,50.8491a46.65137,46.65137,0,0,1-21.03579,4.84277c-11.50158-.30267-11.80426-.75668-12.25827-9.68554s-.454-60.08064,3.63208-72.49024,13.16629-28.22428,12.25827-31.932S381.50563,261.83311,381.50563,261.83311Z" transform="translate(-9 -186.73483)"/><path class="cls-14" d="M410.86567,405.74891c-.60535,3.63208-6.86461,7.67561-9.49187,8.8863-2.6393,1.21069-10.48456-.20572-8.66853-2.83283,1.816-2.61529,2.42139-13.31763,2.42139-13.31763l-2.21559,2.62711c-2.22763,2.62711-3.83787-2.62711-3.6442-3.63208.18164-1.005,8.487-10.29089,9.09232-11.29586.60535-1.01679.19375-25.23065,1.21069-40.15858.96854-14.40743-5.21808-35.35218-5.65391-36.793a.37846.37846,0,0,0-.02424-.08468c.65382.41159,2.23983.94437,5.775,1.56184,8.0753,1.41641,14.22564-4.84277,14.22564-4.84277s3.23253,23.00316,3.83788,30.473-6.05347,44.58992-6.86461,47.82237S411.471,402.11683,410.86567,405.74891Z" transform="translate(-9 -186.73483)"/><polygon class="cls-16" points="367.966 109.414 365.468 117.964 370.879 119.856 373.262 111.306 367.966 109.414"/><polygon class="cls-11" points="362.707 122.05 361.572 126.855 373.262 130.374 374.587 125.039 362.707 122.05"/><path class="cls-16" d="M374.46847,318.48345c3.80377-.1926,6.98671,2.42138,6.98671,6.15435s-2.27,6.55792-5.549,6.55792-6.60837-1.61425-6.60837-6.35613S372.47587,318.58434,374.46847,318.48345Z" transform="translate(-9 -186.73483)"/><path class="cls-14" d="M354.30626,217.659l-5.18667,18.49733s-3.733,16.27146-3.733,16.50969,16.14257,11.13446,16.14257,11.13446l-5.44812,14.02386s1.816,6.8606,6.8606,5.34723,18.36217-11.70336,17.95861-15.8399-2.3205-3.93475-2.42139-6.25525,4.43921-13.11584,4.33832-16.14257a6.86505,6.86505,0,0,0,7.25376-6.124c1.01931-6.58829-3.72257-22.02463-3.72257-22.02463l-22.5996-5.44812Z" transform="translate(-9 -186.73483)"/><path class="cls-17" d="M380.29567,227.47438s-3.42628,25.63027-13.52342,22.90621c-10.08509-2.72406-12.4096-9.58859-12.4096-9.58859l-5.24232,2.72406V236.155a36.31144,36.31144,0,0,0-5.35124,20.58178c.41159,12.4096,2.5303,21.69552,12.31272,21.09018S373.54,270.357,376.264,261.27683s4.637-23.40279,5.545-24.51653,2.11871-3.32941,3.93475-2.51834c1.816.79925,4.3343,2.11872,4.14055,3.826-.2058,1.71909,1.21069-.09695,1.21069-.09695l2.61514-3.729Zm-24.3349,26.30833c-1.59812.133-1.16229-3.63208-2.53038-3.7775-1.356-.15725-1.7434,1.11389-2.42138,1.35612-.678.25419-1.38021-.02424-1.356-1.63456.02423-1.61017,1.65864-1.8886,3.09937-2.49395s2.77246.82334,4.08,2.28823C358.15213,250.98594,357.54678,253.66152,355.96077,253.78271Z" transform="translate(-9 -186.73483)"/><path class="cls-18" d="M354.0002,237.88409c3.25373,0,10.06388,5.37245,10.29089,9.1937s-3.70775,4.95627-5.41029,2.95106-3.97259-5.78862-4.8806-6.01563-3.78342,3.59425-6.167,2.38355-1.7831-5.65286,2.10536-7.95318C349.93859,238.44359,350.74646,237.88409,354.0002,237.88409Z" transform="translate(-9 -186.73483)"/><path class="cls-18" d="M363.95058,197.81772c7.26416,0,10.29089,6.35614,14.93188,6.35614s15.63811,2.01782,15.739,8.17217,3.733,8.07129,3.733,11.50159-4.641,10.39178-4.641,10.39178l-13.41852-6.7597s.10089-3.12763-1.91693-4.43921-12.10693.50445-15.33544-.20178-11.098-5.75079-10.69446-8.57575,3.02674-4.4392,2.72406-6.457-1.21069-7.06238,3.22852-9.0802S363.95058,197.81772,363.95058,197.81772Z" transform="translate(-9 -186.73483)"/><path class="cls-19" d="M251.53746,297.66059l1.42977,7.92872a1.41787,1.41787,0,0,0,.76126,1.01654L275.13892,316.779c.69845.34923.94945.23992,1.18547-.50445l.28082-1.03414-21.41215-10.56982a1.11662,1.11662,0,0,1-.58758-.78486l-1.5817-8.30745-1.2293.9858A1.417,1.417,0,0,0,251.53746,297.66059Z" transform="translate(-9 -186.73483)"/><path class="cls-7" d="M253.30375,295.56169l20.49289,9.83851a1.13552,1.13552,0,0,1,.61145.75345l2.18809,8.931a.2995.2995,0,0,1-.42752.3378l-21.0145-10.77174a1.0593,1.0593,0,0,1-.55235-.71957l-1.73-8.02885A.30624.30624,0,0,1,253.30375,295.56169Z" transform="translate(-9 -186.73483)"/><path class="cls-16" d="M254.20122,297.486l1.35717,5.70948a1.276,1.276,0,0,0,.64828.83861c3.11849,1.64018,18.85871,10.06319,19.18151,9.82863s-1.19389-5.51785-1.5627-7.09558a.87616.87616,0,0,0-.48322-.5945l-18.82957-8.93876A.2222.2222,0,0,0,254.20122,297.486Z" transform="translate(-9 -186.73483)"/><path class="cls-20" d="M278.65467,305.69645" transform="translate(-9 -186.73483)"/><polygon class="cls-21" points="135.851 391.017 285.039 442.729 306.825 322.254 193.526 333.933 175.679 345.808 155.417 349.447 135.851 391.017"/><path class="cls-22" d="M147.61375,536.5933s-17.59481,28.10818-9.84983,36.72339,15.664,3.71649,18.79681-.92647,11.39992-17.52225,11.05183-21.96038-4.003-17.14339-4.003-17.14339Z" transform="translate(-9 -186.73483)"/><path class="cls-22" d="M211.66749,538.59481s4.24242,14.09149-4.54683,13.05028-22.88685-12.78921-22.71281-15.05179.7832-15.577,2.61067-15.92508S211.66749,538.59481,211.66749,538.59481Z" transform="translate(-9 -186.73483)"/><path class="cls-7" d="M147.61375,538.1597s-6.717,19.14489-6.97809,19.406-4.6992,17.5785,6.09156,14.44569,18.36169-20.79831,18.36169-22.27769-1.501-11.1067-1.501-11.1067Z" transform="translate(-9 -186.73483)"/><path class="cls-7" d="M187.01852,520.66822s-1.30533,10.87779-.34809,12.61823,14.61974,16.88232,21.4945,13.6625,2.90649-14.96783-5.63907-26.28073S187.01852,520.66822,187.01852,520.66822Z" transform="translate(-9 -186.73483)"/><path class="cls-23" d="M152.55771,451.39851l-4.87325,87.1963s-1.39235,14.79378,8.18009,12.87929,7.658-12.18311,7.658-12.18311l9.05032-91.8955Z" transform="translate(-9 -186.73483)"/><path class="cls-23" d="M185.97425,447.39549l1.04427,73.27273s3.1328,10.61672,10.09458,8.006,5.22134-9.92054,5.22134-9.92054l1.74044-78.66811Z" transform="translate(-9 -186.73483)"/><path class="cls-7" d="M142.81122,377.60364s-2.43663,72.05443,4.6992,76.05745,52.56144-3.65494,57.60873-9.92054,1.39235-75.53531,1.39235-75.53531Z" transform="translate(-9 -186.73483)"/><path class="cls-7" d="M159.15316,259.86978s-18.02438,7.96979-17.09614,28.85513,3.1328,32.37228,1.27633,46.5279-7.07781,32.8364-5.10531,39.102,16.59225,14.15562,25.87462,14.03959,46.934-8.87627,49.02254-16.18614,0-82.35267,0-82.35267l17.40445,19.34856,14.61973-10.79076s-40.19719-46.64393-47.48467-47.6882S159.15316,259.86978,159.15316,259.86978Z" transform="translate(-9 -186.73483)"/><path class="cls-19" d="M162.28746,257.80177s-6.07482,2.14778-5.03055,8.23934,12.00907,33.76464,14.0976,33.76464,6.6137,1.21831,5.74347,1.91449-5.04729,1.04426-5.39538,2.43662S181.97123,320.343,181.97123,320.343l2.91524,1.5664,2.48014-13.57547-4.35111-32.37228Z" transform="translate(-9 -186.73483)"/><path class="cls-24" d="M183.53763,339.48789v40.20428s5.56942.52214,6.09156-4.17706-.34809-8.00605,1.04426-8.70223,3.30685,9.3984,4.87325,7.658,4.6992-2.26258,4.17707-7.48391-2.05906-26.45477-2.05906-26.45477Z" transform="translate(-9 -186.73483)"/><path class="cls-19" d="M194.50243,249.855s9.86253,5.33737,9.16635,19.02887-5.76629,15.31592-4.56558,17.75254,2.66346,1.16029,4.60077,1.16029-1.54358,35.041-1.54358,35.041h-8.70222l-6.09156-62.88809Z" transform="translate(-9 -186.73483)"/><path class="cls-25" d="M170.57131,251.5084s-9.05031,1.13128-8.35413,8.09306,19.493,31.415,19.493,31.415l3.17631,30.8929,8.5717.92824-3.01678-46.70541,6.26561,2.15s3.71244-20.13115-3.48115-26.77384S170.57131,251.5084,170.57131,251.5084Z" transform="translate(-9 -186.73483)"/><path class="cls-26" d="M253.70805,291.80454c0,.60916.75272,35.84833.75272,35.84833l-45.51264,29.76161,4.86654-35.50508Z" transform="translate(-9 -186.73483)"/><path class="cls-27" d="M240.10523,347.03278s-4.98179,9.03588-8.9268,8.80382-12.1251-4.40347-11.661-8.2933,1.33631-6.88313,3.945-6.895,8.06406-.76579,8.00605,2.251,5.51141-1.39094,5.51141-1.39094Z" transform="translate(-9 -186.73483)"/><path class="cls-28" d="M171.18047,246.28706v10.00756s-4.26409,1.39236-2.87173,3.04578,13.83653,18.10063,15.49,16.70827,5.39538-16.27316,4.61218-19.1449-1.21832-4.78622-1.21832-4.78622Z" transform="translate(-9 -186.73483)"/><path class="cls-7" d="M245.79817,335.47339s-3.48089,14.03959-5.45339,11.835-3.71295-5.21851-3.36486-5.80007S245.79817,335.47339,245.79817,335.47339Z" transform="translate(-9 -186.73483)"/><path class="cls-23" d="M204.9451,240.10848s-7.832,14.35867-21.75556,13.57547-18.36169-13.57547-18.36169-13.57547l1.65342-18.53574,22.97387-3.30685Z" transform="translate(-9 -186.73483)"/><path class="cls-27" d="M222.23352,327.88493c2.66869-2.08854,10.67473-2.26258,10.84878.92823s0,9.45642-5.04729,10.32664a17.38132,17.38132,0,0,1-9.05032-.87022l.7542-9.3984Z" transform="translate(-9 -186.73483)"/><path class="cls-7" d="M150.41116,302.88053s12.06708,35.38905,33.12647,35.73714,35.79515.87022,35.79515.87022,5.33737-.75419,4.40913-6.90376-7.658-6.96178-17.52048-7.19384-19.37695.69618-22.6838-2.55265-11.777-17.9846-11.777-17.9846Z" transform="translate(-9 -186.73483)"/><path d="M167.0034,186.73483c14.15562,0,12.76327,13.34341,12.76327,13.34341s30.16771,1.27633,30.16771,26.22271-9.97855,12.41517-9.97855,12.41517-10.44267-14.85179-16.0121-12.64723-6.14957,5.80148-8.12207,5.56942-8.12208-6.03354-9.63047-.8122.58015,9.51443,3.1328,9.28237,1.62442,5.22134,0,6.61369-12.99532-7.54193-13.11135-17.75254,5.22134-12.41517,3.48089-16.01209-8.58619-6.49766-8.35413-12.99533S155.98058,187.199,167.0034,186.73483Z" transform="translate(-9 -186.73483)"/><path class="cls-6" d="M38.96506,617.77852s-1.49328,16.51333,8.92032,15.42291,10.68621-8.94152,10.68621-8.94152l.05452-5.45215Z" transform="translate(-9 -186.73483)"/><path class="cls-6" d="M78.13142,577.0237s-.4768,4.505,0,4.75035,28.77345,15.6204,28.77345,15.6204,8.95515,3.2304,12.92158-3.06683-4.69022-12.69592-4.69022-12.69592Z" transform="translate(-9 -186.73483)"/><path class="cls-29" d="M80.82141,561.29651s-3.35819,9.6414-3.23549,14.22121,13.94389,7.44218,19.34152,11.69485,12.43089,7.60574,17.66495,5.9701,5.643-6.95149,2.7806-9.56852-17.99209-15.45683-18.15565-17.256a31.8466,31.8466,0,0,1-.0169-4.08911Z" transform="translate(-9 -186.73483)"/><path class="cls-29" d="M41.85618,584.03117s-.5679,9.75124-1.49476,15.85764-2.72607,20.282,0,23.71684,5.56119,6.54257,10.08647,5.125,8.17822-6.5971,8.17822-9.92291-.21809-14.17558,0-15.70218,1.1896-14.21748.21315-17.4133S41.85618,584.03117,41.85618,584.03117Z" transform="translate(-9 -186.73483)"/><path class="cls-13" d="M45.15407,416.75121s3.222,28.24212,3.44009,53.75817-9.37769,109.261-8.94152,111.65995,13.08515,6.32449,22.02667,2.617c1.30852-1.09043,13.494-63.463,15.90661-88.54286s5.02963-56.70233,5.02963-56.70233,3.27129,34.67565,2.18086,48.41506-4.79748,72.84068-4.79748,72.84068,8.94111,6.32449,21.15392.65426c0,0,13.20631-66.51619,13.691-76.76622s-.82388-81.67316-.82388-81.67316Z" transform="translate(-9 -186.73483)"/><path class="cls-19" d="M114.01992,394.45193s1.85373,6.81518,0,8.55987a58.986,58.986,0,0,1-33.47618,15.60669c-20.50007,2.3854-35.38967-1.86728-35.38967-1.86728l.714-7.19683s19.40964,7.30587,32.2767,4.36171S104.75127,410.97194,114.01992,394.45193Z" transform="translate(-9 -186.73483)"/><path class="cls-7" d="M64.50077,307.104S45.65,315.23224,41.61541,321.55673s-18.42825,28.13308-18.42825,28.13308-1.96277,7.68753,8.06917,11.9402,11.61308,1.19947,11.61308,1.19947l5.016-6.65162s.54522,34.0214-1.09043,38.92833-1.145,17.0107-1.145,17.0107,21.5905,6.8697,38.1105,1.47208,21.42694-6.21545,30.25942-19.137c0,0,2.12634-27.15169-1.63565-39.90971l-.109-5.94284s3.0532,6.1064,9.67756,4.389,15.04793-6.05188,13.49406-10.95882-15.6204-37.538-15.6204-37.538-3.51669-14.544-16.07023-12.38338S64.50077,307.104,64.50077,307.104Z" transform="translate(-9 -186.73483)"/><path class="cls-19" d="M68.925,303.074s-6.42786,3.38033-6.10073,9.75934,7.46944,11.61307,16.52,10.79525,14.77531-8.778,14.33914-11.83116-.70878-5.50667-5.45214-6.1064S68.925,303.074,68.925,303.074Z" transform="translate(-9 -186.73483)"/><path class="cls-30" d="M68.925,295.2541v12.83583s-1.84805.87235-1.35736,5.016,7.57848,7.57848,12.37637,6.21544,10.46812-3.70746,10.35908-7.524a36.69776,36.69776,0,0,0-.49069-5.67023Z" transform="translate(-9 -186.73483)"/><path class="cls-19" d="M103.11562,329.18974c4.46871-.13542,6.65162,3.65294,6.27,8.61439s-2.83511,8.83248-7.41492,8.50535-5.72475-3.16844-5.67023-6.92732S97.718,329.3533,103.11562,329.18974Z" transform="translate(-9 -186.73483)"/><path class="cls-31" d="M59.88594,282.37223s1.90241,9.41578,7.68169,10.50621c1.09043,0,4.03459,14.50271,17.774,14.50271s19.16423-11.01333,18.41459-17.883.28288-19.89936-6.06717-24.39786-27.72248-3.9533-27.72248-3.9533-9.03773,8.312-9.59577,8.94152S59.88594,282.37223,59.88594,282.37223Z" transform="translate(-9 -186.73483)"/><polygon class="cls-15" points="29.879 180.692 0 221.383 0.117 224.593 30.916 189.606 32.894 181.421 29.879 180.692"/><path class="cls-32" d="M38.87866,367.4273s3.5673.68537.83086,4.62071-30.5928,39.28031-30.5928,39.28031l48.457,11.71141L81.227,384.32886s4.46625-6.11747-.48115-7.1364S38.87866,367.4273,38.87866,367.4273Z" transform="translate(-9 -186.73483)"/><polygon class="cls-15" points="31.287 187.51 7.828 217.443 7.971 219.842 32.258 194.182 33.728 188.1 31.287 187.51"/><path class="cls-33" d="M40.28723,374.24528s2.88481.56585.7395,3.463-24.05554,28.86843-24.05554,28.86843l39.22261,9.47959L74.66636,387.508s3.50608-4.50045-.49583-5.33629S40.28723,374.24528,40.28723,374.24528Z" transform="translate(-9 -186.73483)"/><polygon class="cls-15" points="33.404 194.942 11.478 222.919 11.611 225.161 34.312 201.178 35.686 195.494 33.404 194.942"/><path class="cls-34" d="M42.404,381.67714s2.69633.52887.69118,3.23677S20.6113,411.8962,20.6113,411.8962l36.66,8.86023L74.53691,394.0733s3.277-4.20642-.46344-4.98764S42.404,381.67714,42.404,381.67714Z" transform="translate(-9 -186.73483)"/><path class="cls-35" d="M71.62245,273.50886s2.774,4.15809,2.24241,7.30671-3.63931,2.617-5.19317.77693a5.27281,5.27281,0,0,0-4.98871-2.12634c-2.04456.12268-2.00367,3.25312-2.82149,3.60978s-4.15378-5.17839-4.89838-10.2824S71.62245,273.50886,71.62245,273.50886Z" transform="translate(-9 -186.73483)"/><path class="cls-36" d="M101.69807,257.43949c0,4.25268-5.56119,12.10377-15.266,12.10377s-14.61176,3.59841-16.57453,5.3431-14.17558,2.617-15.59314-5.77928S55.682,252.75065,59.82558,248.498s10.90429-6.76066,20.8272-6.76066S101.69807,246.97137,101.69807,257.43949Z" transform="translate(-9 -186.73483)"/><path class="cls-31" d="M16.53983,364.51575s-7.52825,7.6369-6.65591,14.39756S40.634,413.04375,40.634,413.04375s12.758,6.54258,21.69954,5.45215,10.032-7.30588,9.26865-9.26865-4.90693-3.70746-4.90693-3.70746-10.032-.43617-14.17558-3.92555-21.48146-25.298-21.48146-25.298l2.72607-1.85373Z" transform="translate(-9 -186.73483)"/><path class="cls-31" d="M140.07719,354.38349s.33112,4.02975,1.74867,4.02975,43.181-17.55591,43.181-17.55591,6.54258-.87234,5.016,4.47076-7.19683,11.88568-14.93888,15.157-32.38575,16.2474-41.54536,15.92027-12.20625-8.34637-13.409-13.55088S140.07719,354.38349,140.07719,354.38349Z" transform="translate(-9 -186.73483)"/><path class="cls-19" d="M37.69593,373.52224s-1.25613,2.55154-5.56119,1.57015c-9.00251-2.22441-17.45555-12.3654-18.05749-13.67392-.58885-1.30851,3.991-9.055,5.62659-11.29249a3.41638,3.41638,0,0,1,4.01716-1.243c-.34015.52327-.53646.81111-.53646.81111s-1.96277,7.68114,8.07352,11.93381,11.60652,1.20373,11.60652,1.20373l.68045-.9028c.43183.48415.94209,1.07292,1.45243,1.71408C46.42378,365.38315,37.69593,373.52224,37.69593,373.52224Z" transform="translate(-9 -186.73483)"/><path class="cls-19" d="M140.964,353.24025c-.90288,1.832-11.24018,11.07-17.58645,9.89229a42.42934,42.42934,0,0,1-5.60048-.615s-5.79671-11.4888-4.98544-11.77664c.07851-.02619.34023-.157.759-.35332a8.03649,8.03649,0,0,0,8.40065,2.60393c6.62108-1.71407,15.04792-6.05827,13.49079-10.9652-.17012-.5236-.471-1.374-.88979-2.46018,0,0,1.91047-.772,2.617.82453C137.86283,341.98706,141.86688,351.3952,140.964,353.24025Z" transform="translate(-9 -186.73483)"/><polygon class="cls-37" points="172.408 142.451 135.116 179.584 174.371 156.521 211.664 118.247 172.408 142.451"/><path class="cls-38" d="M220.6639,304.98221h0a1.94613,1.94613,0,0,0-2.94641-1.66938l-34.119,20.44376a30.759,30.759,0,0,0-6.06792,4.76358l-32.656,33.04278a3.82646,3.82646,0,0,0-1.02571,3.464l.26693,1.29194,37.29268-37.13264Z" transform="translate(-9 -186.73483)"/><path class="cls-13" d="M474.65862,577.01348s-34.48137,8.853-35.82792,22.12614,22.65094,5.77094,23.46849,5.09767,17.07237-6.97322,19.57311-6.20376,7.55031,2.50074,17.16855,1.20228,9.87472-3.22211,9.98693-16.06246S474.65862,577.01348,474.65862,577.01348Z" transform="translate(-9 -186.73483)"/><path class="cls-13" d="M530.41929,626.17652s-20.87854,34.96866-13.761,41.82966,23.01964.12825,25.39214-5.83506,9.81059-35.9946,9.81059-35.9946Z" transform="translate(-9 -186.73483)"/><path class="cls-39" d="M547.53478,438.11957s.47891,74.77655,4.83918,84.01006,3.84729,32.83024,2.82135,52.06671,1.41623,32.33812.70811,40.27877-3.52946,18.71306-14.30189,16.91766-15.64566-6.15567-15.38917-24.62268-1.28243-66.24706-8.46405-78.90633-13.0808-32.66519-13.0808-32.66519,8.20756,83.61452,4.36027,87.97478-33.07633,9.74648-34.4922-7.18161-1.22351-66.17345-3.62807-80.2802-10.11932-56.12606-8.95505-71.40921S491.202,395.42542,491.202,395.42542Z" transform="translate(-9 -186.73483)"/><path class="cls-40" d="M543.14045,281.4839l-30.00123,31.32088s-20.39832,64.63454-20.30213,65.11545,3.65492,36.35693,3.65492,36.35693l-10.003,4.42463L470.90751,412.065V353.39373l18.26764-75.41834,23.187-2.97027,10.9352-1.17477s-2.3931-2.06542,4.48872-.64911S543.14045,281.4839,543.14045,281.4839Z" transform="translate(-9 -186.73483)"/><polygon class="cls-41" points="470.546 223.696 481.946 228.575 482.202 240.238 468.063 235.477 470.546 223.696"/><path class="cls-7" d="M507.376,317.19507l1.15724-7.34746-16.43884-1.17826-1.57781,6.79685c.67994-2.98934,1.57781-6.79685,1.57781-6.79685l-5.22325-.20076s-7.85685,37.40617-6.91232,44.81048l4.22786.16248c-.05726-5.88014,1.56888-15.03134,3.63042-25.04553l10.07952,1.06023,1.447-7.26058-10.08119-.95527c.63308-2.95305.745-3.49615,1.22179-5.59223Zm-19.03752,8.441c.30854-1.49713.615-2.95414.91282-4.34372Z" transform="translate(-9 -186.73483)"/><path class="cls-7" d="M497.21921,274.49716s-4.863,16.92809-9.018,29.23943c-4.15519,12.31134-8.15634,53.616-8.55647,59.1869-.21547,3.07783-.18466,23.63775-.123,41.70462v.03081c.06143,14.46586.123,27.362.123,28.47,0,2.493-21.32937-6.15567-21.32937-16.3433s3.51828-35.1793,3.51828-35.1793V346.85346c0-16.05935,7.17021-54.09978,12.702-72.50145,2.25816-7.51191,13.12439-6.74633,13.33986-6.74633l5.52728,2.73648Z" transform="translate(-9 -186.73483)"/><path class="cls-7" d="M545.787,359.37729s-4.69848,12.70788-4.18551,22.71084,18.98,50.01482,14.36323,53.09266-58.73535,16.15863-65.1475,8.20756,2.18533-35.89787,2.18533-35.89787l1.40547-30.0191Z" transform="translate(-9 -186.73483)"/><path class="cls-19" d="M497.21921,274.49716s-4.863,16.92809-9.018,29.23943c-4.15519,12.31134-8.15634,53.616-8.55647,59.1869-.21547,3.07783-.18466,23.63775-.123,41.70462-.12323-2.06209-4.98607-95.96687-4.98607-101.29165,0-5.38621,8.187-7.29446,9.87973-9.07947,1.66215-1.816-5.50926-2.06228-6.15567-4.12438-.64623-2.06209,11.265-19.11342,12.03444-20.19059l3.10864.40014Z" transform="translate(-9 -186.73483)"/><path class="cls-42" d="M498.22323,279.42262s-.16454,11.12821,7.80711,10.4227,20.47057-9.55017,21.52857-15.03256a136.14811,136.14811,0,0,0-.57709-15.9637l-24.04559,12.6935Z" transform="translate(-9 -186.73483)"/><path class="cls-42" d="M470.3719,357.88391s10.49934-4.22,14.39118-6.53291c2.53024-1.5037,3.41481-9.97074.87347-13.64064-5.25668-7.59106-6.72616-9.47872-11.57491-6.66036s-14.34517,10.355-14.34517,10.355l1.38818,14.00367Z" transform="translate(-9 -186.73483)"/><path class="cls-43" d="M470.42444,359.1352l.44346-.99646s-5.43311-3.495-7.56064-7.87236a31.66474,31.66474,0,0,1-2.52062-10.00518l-.99237.5117-5.13693,15.92682Z" transform="translate(-9 -186.73483)"/><path class="cls-42" d="M484.44564,238.05031s-1.51534,41.86011,15.41276,41.47538,32.22635-24.84632,32.22635-24.84632l-.58236-21.3212s-39.14622-.67328-39.81949-.67328S484.44564,238.05031,484.44564,238.05031Z" transform="translate(-9 -186.73483)"/><path class="cls-44" d="M509.02778,213.96139c14.22979-.38459,24.75092,15.13269,24.75092,28.85471s-3.33432,13.33728-3.33432,13.33728l-.38473-2.56486s2.0531-16.15984-4.745-9.36175c-2.18014,2.18013.513,14.36323-1.79541,14.61972s-1.7954-18.7235-14.49147-19.36471-10.51594,2.43661-16.15863,1.92364-12.56783-4.745-11.92661-10.38769S490.0478,214.47437,509.02778,213.96139Z" transform="translate(-9 -186.73483)"/><path class="cls-7" d="M570.841,314.13966c-.76946,12.7115-.537,26.23458-.95942,38.90775a47.28391,47.28391,0,0,1-7.15845,24.23335c-7.9221,12.9464-54.848-16.31878-57.2794-16.81112,0,0,5.38591.73881,10.36141-7.71209,2.22905-3.786,1.3316-9.38455,1.3316-9.38455s22.52973,12.63189,23.11454,10.32354c.00477-.01908,2.88919-9.2241,5.79043-18.15378.18614-.57293,1.46853,11.8506-.25465,23.83453-1.36285,9.478-4.10166,20.69849-4.69461,20.66962-9.13868-.445-25.20384-2.82372-34.06845-5.58215-2.0294-.63149-7.154,4.63068-8.975,4.06281-6.5305-2.03641-8.13393-9.74818-8.1242-9.78711.92332-4.61677,7.87927-45.27487,17.42046-56.17052,8.58711-9.81811,29.54716-26.25385,34.65646-30.22415l1.13878-.86188S571.61044,301.459,570.841,314.13966Z" transform="translate(-9 -186.73483)"/><path class="cls-42" d="M516.01989,343.93974s-8.19417-7.80386-11.91279-10.38608c-2.41762-1.6788-10.48907,1.02764-12.77459,4.86208-4.72754,7.93142-5.83581,10.0514-1.26042,13.29475s15.37162,8.75915,15.37162,8.75915l12.167-7.07063Z" transform="translate(-9 -186.73483)"/><path class="cls-43" d="M517.13672,343.373l-1.09064.00971s-.92712,6.39328-4.028,10.14458a31.66459,31.66459,0,0,1-8.05893,6.44287l.87717.69081,16.623-1.93061Z" transform="translate(-9 -186.73483)"/><path class="cls-19" d="M492.93878,353.5713c3.46795,2.11586,7.96261,4.51972,10.50409,5.85928-1.277,4.49466-2.25355,8.0378-2.25355,8.0378l-5.7591,23.87535c-1.45235,6.89838-2.40379,12.72014-2.42886,16.138,0,0-3.48055-3.33025-4.53217-14.00971l1.38968-24.41371c.02506-.11263.02506-.21281.06258-.338C490.247,367.11778,491.29868,361.14587,492.93878,353.5713Z" transform="translate(-9 -186.73483)"/><path class="cls-19" d="M536.25247,276.76844l7.574,5.20729s-10.63639,28.374-13.8258,28.21434c-2.99733-.15-8.22868-3.33032-8.404-2.504-.18775.83881,7.1614,6.82334,3.0048,10.64187-3.76849,3.49309-9.152,7.0862-14.62318,20.05675a71.40824,71.40824,0,0,0-5.87181-4.83265c-1.17687-.81374-3.68083-.60092-6.20987.288,2.66674-8.96425,5.87181-17.20233,9.44-21.28374,8.58859-9.81559,23.80774-31.81913,28.91586-35.7879Z" transform="translate(-9 -186.73483)"/><path class="cls-7" d="M545.785,359.38053c-1.26452,8.80149-5.09559,17.69055-6.10969,18.89248-16.06291-7.61209-32.95225-17.55285-34.22922-17.80326,0,0,5.38352.7387,10.35386-7.7122,2.22857-3.781,1.33963-9.38988,1.33963-9.38988s22.52327,12.63248,23.11167,10.32887c0-.02506,2.89208-9.22712,5.78416-18.15378C546.22325,334.96682,547.51275,347.399,545.785,359.38053Z" transform="translate(-9 -186.73483)"/><path class="cls-7" d="M470.42444,359.1352s-35.14564,17.32749-36.36712,1.52577c-2.88523-37.32506,41.06653-87.74635,41.06653-87.74635l-3.62742,34.02092s-4.12568,24.65641-3.443,26.11041-8.2592,7.72695-8.2592,7.72695-3.35984,6.196.40821,12.0629A14.232,14.232,0,0,0,470.42444,359.1352Z" transform="translate(-9 -186.73483)"/><polygon class="cls-45" points="817.988 492.08 926.401 522.653 973.734 440.19 885.581 431.027 842.837 445.205 817.988 492.08"/><path class="cls-46" d="M942.13726,445.17081a7.57841,7.57841,0,0,1,1.398,2.53528c.1863,1.05571,2.67033-1.26764,2.67033-1.26764s-2.29846-4.44561-3.75745-4.63191S942.13726,445.17081,942.13726,445.17081Z" transform="translate(-9 -186.73483)"/><path class="cls-47" d="M982.00655,464.25589s9.78084,21.33154,8.94248,24.31237-65.57819,44.7124-65.57819,44.7124-2.88768,2.79452-5.6822,2.14247-14.53153-32.32334-14.53153-32.32334Z" transform="translate(-9 -186.73483)"/><path class="cls-48" d="M853.67575,647.23518v5.15435l-16.95346,23.22561s-10.80549,7.93231-18.69226-1.9334,15.58724-28.86848,15.58724-28.86848Z" transform="translate(-9 -186.73483)"/><path class="cls-48" d="M894.28951,615.06709s.55891,2.42192-1.11781,3.35343-40.61376,15.40094-40.61376,15.40094l-2.23562-5.83745Z" transform="translate(-9 -186.73483)"/><path class="cls-49" d="M853.67575,630.89294v16.34224l-15.02834,20.49318s-6.33426,9.68769-15.40094,4.347-2.23562-14.65573-2.23562-14.65573S832.81,641.64613,833.431,637.29909s.86941-8.32147.86941-8.32147Z" transform="translate(-9 -186.73483)"/><path class="cls-49" d="M888.03381,594.77547l5.01369,11.53544s2.33505,5.47706,1.242,8.75618c-.3726,1.11781-39.70321,15.18519-39.70321,15.18519l3.09145-18.59469,10.28112-5.47088s1.90637-.48082,1.01529-3.87329S888.03381,594.77547,888.03381,594.77547Z" transform="translate(-9 -186.73483)"/><path class="cls-42" d="M940.49233,429.69693s3.105,13.41372,1.49041,15.77354-9.37719,9.31508-14.53153,8.94248-6.14-2.16439-6.14-2.16439l-2.6783-4.72877s-4.59544-2.91873-2.91873-4.84385,7.2944-6.008,7.40428-8.9346S940.49233,429.69693,940.49233,429.69693Z" transform="translate(-9 -186.73483)"/><path class="cls-15" d="M940.22631,422.56614l.266,7.13079s-6.08586,5.77535-11.86121,5.03014-6.7534-1.42831-6.7534-1.42831l-1.31967-6.08585Z" transform="translate(-9 -186.73483)"/><path class="cls-42" d="M763.16444,424.85309s-3.13633,6.6137-6.86237,9.96713-10.80549,10.89865-9.59453,14.25208,8.663,2.79453,13.22742,0,9.59453-8.10412,10.33974-7.45206.27945,7.73151,4.00548,6.89316,4.28494-4.28494,3.726-7.63837-1.58357-6.52056-1.02466-10.15344-7.91782-8.38358-7.91782-8.38358Z" transform="translate(-9 -186.73483)"/><path class="cls-15" d="M764.83392,417.56944l-1.66948,7.28365s10.37054-.65206,13.81712,5.8685l5.77535-4.75069V411.812l-15.92879,2.42192Z" transform="translate(-9 -186.73483)"/><path class="cls-39" d="M819.52044,446.89878s12.42011,56.38731,17.885,74.76907,29.55987,80.48233,30.55347,80.48233,6.45846,2.23562,15.89775-3.97444,5.96165-10.43289,5.96165-10.43289l-25.08862-70.79464-9.74734-74.88606Z" transform="translate(-9 -186.73483)"/><path class="cls-37" d="M884.06563,462.67158s-23.49467,75.88763-23.77515,83.09129-3.2613,82.22114-3.2613,82.22114a16.1008,16.1008,0,0,1-16.34761,4.968c-10.23143-2.73242-8.22865-4.71964-8.22865-4.71964s.48124-89.1764,4.20727-109.79379,8.53206-60.11333,8.53206-60.11333l-25.67181-11.42651v-7.45206l9.14311-26.579,39.29532,3.47763L887.83105,443.918Z" transform="translate(-9 -186.73483)"/><path class="cls-15" d="M825.76736,422.56614c-.03686.11343,27.16318,7.13079,27.16318,7.13079l7.35994-120.64882-21.33183-7.68128-14.25921,6.67511-6.97069,39.24755Z" transform="translate(-9 -186.73483)"/><path class="cls-19" d="M835.51806,313.3978s-2.2734,3.40032-1.03139,4.51813,4.90595,3.35343,6.52056,2.35982a10.02467,10.02467,0,0,0,2.79453-2.98083L842.684,311.44Z" transform="translate(-9 -186.73483)"/><path class="cls-19" d="M840.68157,320.42527s-5.324,75.73736-1.72292,86.72916c.2364,3.35343-7.27957,7.07946-7.27957,7.07946s-6.113-8.94248-5.90661-11.1781,4.42052-66.98708,10.7902-83.70184Z" transform="translate(-9 -186.73483)"/><path class="cls-42" d="M818.26093,266.29544s-1.19741,21.53277,0,27.30812,7.30511,15.09043,7.51154,15.18358,8.88595,2.75165,8.88595,2.75165,1.66022,5.72508,6.50406,4.23467S857.475,306.831,857.516,304.22275s0-10.06029,0-10.06029l4.74517-1.95617,6.84656-5.96165,3.726-10.24659-17.0466-20.4-35.11787,7.35891Z" transform="translate(-9 -186.73483)"/><path class="cls-7" d="M817.97572,300.063s-10.25439.9616-14.353,13.87852-15.64934,52.97178-18.25757,57.62932-23.1014,43.59459-22.1699,45.4576,1.49042.37261,3.91234-1.11781,11.3644,0,13.78632,3.91234.74521,6.148.74521,7.45207,3.26035-.55891,6.10141-6.148,24.82467-43.222,25.19727-50.48775c0,0-.5589,16.39455-1.49041,29.06306s-2.42192,36.32883-.55891,38.93705,10.76524,9.68769,14.884,5.77535,2.62835-34.09321,2.62835-34.09321-4.42194-68.18641-3.70138-77.68779,3.70138-24.14224,3.70138-24.14224Z" transform="translate(-9 -186.73483)"/><path class="cls-50" d="M828.40082,312.41762s2.11142,7.23712,2.79452,6.92662,3.762-7.9042,3.762-7.9042Z" transform="translate(-9 -186.73483)"/><path class="cls-46" d="M833.71415,297.51953c.462,2.98083,5.1121,5.02287,9.0319,3.15985s10.14971-8.19727,10.34347-12.57918c.17884-4.367,2.23562-11.1781.28318-13.0262-1.96735-1.87794-4.00921-2.98083-3.726-5.21645.25334-2.10153,3.78562-5.753,4.23272-6.20017-.93887.56637-15.50024,9.67277-23.60809,7.95894-8.391-1.75877-13.51806-5.67856-13.14546-7.36274.3726-1.66925,2.8914-4.56057,2.71256-5.39528-.19376-.83472-2.8914-1.49042-2.2952-3.35343a12.3743,12.3743,0,0,1,11.23768-8.391c2.13128,0,3.81546-4.188,7.16889-4.188s8.74872,4.09864,11.4017,3.91962c2.65288-.19358,2.84665-4.47124,6.02123-3.35343,3.15967,1.11781,10.14971,5.306,12.01273,11.26761,0,1.49041,10.34347,2.14611,10.8055,9.032.462,6.90044-1.95244,9.04673-1.863,9.68769.08942.65569.26827,8.853-4.47124,13.41372-4.75442,4.57549-13.41372,9.13606-14.0695,10.8055-.65579,1.684-18.16815,15.93243-27.11063,14.63577-8.94248-1.31157-11.9233-10.99925-10.43289-17.33351S832.03,288.1002,833.71415,297.51953Zm31.52228-8.10776c3.5471-3.68128,6.0659-7.318,3.59185-10.19456-2.474-2.89131-3.81545-1.96726-3.81545-1.96726-2.56356,0-7.49682,3.54719-7.49682,9.41933C857.516,292.52668,861.70406,293.09305,865.23643,289.41177Zm-42.58112,10.269c1.05813-.83472.67061-1.77369,2.325-1.50533,1.65433.25343,1.11781,3.33851,2.44421,3.08507,1.32649-.25325,3.15976-1.37106,2.7424-3.1-.41727-1.714-1.87794-2.90642-4.51591-3.11491-2.41455-.19395-4.17323.3726-4.30732,2.23562S821.58216,300.51528,822.65531,299.68074Z" transform="translate(-9 -186.73483)"/><path class="cls-50" d="M857.516,302.94969s3.2392,3.78814,3.1771,5.09225-5.09225,14.71783-17.57446,16.89135c-1.42831,0-1.61461-8.81828-.80731-10.06029S857.516,302.94969,857.516,302.94969Z" transform="translate(-9 -186.73483)"/><path class="cls-7" d="M860.69311,308.04194s23.66031,12.42011,24.40552,13.91052,35.30423,34.813,36.77909,40.50791,19.11141,56.61736,19.11141,58.35618-7.20366,11.4265-15.64934,8.94248-6.70686-4.71964-6.70686-4.71964-12.979-46.69962-17.79181-49.92885-17.72971-13.16532-17.72971-13.16532-.74521,24.095,0,26.82744,17.885,54.40009,16.643,57.87772-7.45742,20.369-29.93514,16.643-24.538-58.12612-24.538-58.12612-1.2937-49.55224,5.98318-70.79464S860.69311,308.04194,860.69311,308.04194Z" transform="translate(-9 -186.73483)"/><path class="cls-46" d="M925.33979,442.06215s.80731,2.16631.4968,2.91152-6.02375,5.46484-4.47124,10.99179,1.55252,4.78175,1.55252,4.78175l-2.85663,2.67032s-3.29133-11.737-1.49041-14.842S925.33979,442.06215,925.33979,442.06215Z" transform="translate(-9 -186.73483)"/><path class="cls-46" d="M897.32365,479.99838s-1.77865,2.32877,0,9.40823,10.90744,45.55076,12.02525,46.01652,10.33974,0,10.33974,0l-12.20276-27.20005s3.44658,4.09864,8.38357.1863S937.201,494.15731,937.201,494.15731l44.80555-29.90142s.65205-2.98083,0-4.19179S897.32365,479.99838,897.32365,479.99838Z" transform="translate(-9 -186.73483)"/><path class="cls-47" d="M968.49968,433.91977c-6.33207-.90459-70.04943,43.71879-70.04943,43.71879s-1.98722.80731-.68311,4.03653,11.98541,26.02014,14.77993,25.21283,69.92523-45.45761,69.92523-45.45761,1.02473-1.36621-.97805-6.21005S972.412,434.47867,968.49968,433.91977Z" transform="translate(-9 -186.73483)"/><path class="cls-51" d="M967.68414,466.97321c-1.67672-.83836-5.4959,1.11781-5.03015,3.074s3.53973,7.54522,5.03015,7.26577,4.47124-2.04932,3.726-3.726S967.68414,466.97321,967.68414,466.97321Z" transform="translate(-9 -186.73483)"/><path class="cls-51" d="M925.95256,494.0801c-1.67671-.83836-5.4959,1.11781-5.03014,3.074s3.53973,7.54522,5.03014,7.26576,4.47124-2.04932,3.726-3.726S925.95256,494.0801,925.95256,494.0801Z" transform="translate(-9 -186.73483)"/><polygon class="cls-52" points="273.375 555.602 475.268 626.53 516.396 485.094 290.474 474.697 273.375 555.602"/><path class="cls-53" d="M351.25764,540.062a3.96389,3.96389,0,0,1-1.9324,3.42129l-14.83744,8.91659-10.902,6.559-32.29854,19.42877a15.224,15.224,0,0,1-15.63517.01774l-31.96162-19.09195-10.99072-6.559L217.685,543.78461a3.94591,3.94591,0,0,1-1.93217-3.15534v-.49641a3.92439,3.92439,0,0,1,1.93217-3.17308l49.58231-29.81673,9.05844-5.44218a15.17689,15.17689,0,0,1,15.74153.03549l8.86347,5.40669,48.43,29.51529A3.9387,3.9387,0,0,1,351.25764,540.062Z" transform="translate(-9 -186.73483)"/><path class="cls-54" d="M351.25165,564.88583v13.1711a3.9429,3.9429,0,0,1-1.93228,3.42129l-58.038,34.90435a15.18394,15.18394,0,0,1-15.63517.01774l-57.96712-34.603a3.95,3.95,0,0,1-1.93217-3.17308V565.453a3.94593,3.94593,0,0,0,1.93217,3.15544l5.30034,3.15534,52.66678,31.46532a15.2238,15.2238,0,0,0,15.63517-.01764l52.80852-31.749,5.22947-3.15534A3.96377,3.96377,0,0,0,351.25165,564.88583Z" transform="translate(-9 -186.73483)"/><path class="cls-55" d="M349.32525,543.48327l-14.83744,8.91659-10.9019,6.559-32.29864,19.42876a15.22387,15.22387,0,0,1-15.63507.01775l-31.96172-19.09195-10.99062-6.559L217.685,543.78459a3.9459,3.9459,0,0,1-1.93218-3.15534V565.447a3.94593,3.94593,0,0,0,1.93218,3.15534l5.30055,3.15545,52.66667,31.46531a15.22385,15.22385,0,0,0,15.63507-.01774l52.80862-31.749,5.22936-3.15534a3.9639,3.9639,0,0,0,1.93239-3.42129V540.062A3.96391,3.96391,0,0,1,349.32525,543.48327Z" transform="translate(-9 -186.73483)"/><path class="cls-56" d="M349.31941,581.47814l-58.038,34.90435a15.18413,15.18413,0,0,1-15.63528.01775l-57.967-34.603a3.9499,3.9499,0,0,1-1.93218-3.17308V702.60635a3.94589,3.94589,0,0,0,1.93218,3.15534l15.01466,8.96983,10.99062,6.559,31.96172,19.09195a15.22425,15.22425,0,0,0,15.63528-.01775L323.57986,720.936l10.90211-6.559,14.83744-8.9166a3.9639,3.9639,0,0,0,1.93239-3.42128V578.05686A3.943,3.943,0,0,1,349.31941,581.47814Z" transform="translate(-9 -186.73483)"/><path class="cls-57" d="M351.1103,409.42587A3.93952,3.93952,0,0,1,349.17,412.835l-14.8,8.89657-10.87847,6.55468-32.21927,19.37311a15.15829,15.15829,0,0,1-15.6035.02774l-31.90056-19.0544-10.9617-6.54082-14.98031-8.952a3.91589,3.91589,0,0,1-1.92607-3.14574v-.499a3.89914,3.89914,0,0,1,1.92607-3.15943l5.66794-3.40912,43.8045-26.3436,9.03528-5.43213a15.14157,15.14157,0,0,1,15.71447.02774l8.84142,5.40439,43.22224,26.3436,5.09955,3.10412A3.92008,3.92008,0,0,1,351.1103,409.42587Z" transform="translate(-9 -186.73483)"/><path class="cls-58" d="M351.03422,540.40023a3.54211,3.54211,0,0,1-1.72669,3.05742L336.04812,551.426l-9.74263,5.86141-28.86336,17.36234a13.21577,13.21577,0,0,1-3.53275,1.48912l-30.89285-26.50641,40.70093-24.10764,46.85738,13.117A3.43219,3.43219,0,0,1,351.03422,540.40023Z" transform="translate(-9 -186.73483)"/><path class="cls-59" d="M269.45407,489.39048q-.82518,0-1.637.02781l.25137,2.48889.001.0103.34511,3.40781.00515.01957q.5223-.02008,1.05386-.01957a29.91773,29.91773,0,0,1,3.05651.15453q.34461.03553.684.07829c.1504.01854.29977.03812.44812.05975.05872.00824.11744.01648.17513.02576.08035.01133.1607.02369.24.036.09788.01545.19678.03193.29361.04841l.23179.04018c.05254.00825.10508.01854.15762.02782.069.01339.138.02575.20706.03915.0989.01854.19676.03811.29462.05769.19575.04017.39044.08138.58309.12567.0958.02164.1916.0443.28741.067.07623.01751.1535.036.2287.05562.03091.00722.0618.01546.09168.02267.08242.02061.16484.0412.24622.06387.09374.02369.18748.04945.2802.0752.09272.02472.1844.05151.27609.07726q.27661.08037.546.16484c.08961.02781.17925.05665.26886.0855.0886.02987.17718.05872.26579.08962.07932.02575.15762.05357.23591.08139l.05151.01854c.0618.02163.12155.04326.18234.0649.12568.04636.2493.09374.37188.14113.06388.02473.12671.04945.19059.07417.08344.034.16688.067.25033.102.08242.034.16483.069.24724.104.08138.035.16276.07.24312.10611.06387.02781.12568.05562.18853.08447.19572.08963.38734.18028.57483.274.05562.02781.11022.05562.16482.08241.08139.04224.16072.08344.24.12568.11537.06181.22973.12362.343.18749.04328.0237.08654.04739.12878.07211.07931.0443.15657.08963.23383.136.01547.00928.03091.01855.04637.02679.0546.033.10816.0649.16173.09787.04842.02987.09684.05975.14526.09065q.56247.35232,1.06622.73658c.05564.04223.11127.0855.16587.12774.01029.00927.0206.01648.0309.02472.05974.04738.11847.09477.17617.1432.07623.0618.15143.12464.22457.18851.05666.04842.1123.09684.16688.14629q.187.16689.36366.33893l7.4265-4.28758C286.901,491.99784,278.705,489.39048,269.45407,489.39048Z" transform="translate(-9 -186.73483)"/><polygon class="cls-60" points="234.236 309.804 234.236 336.007 243.464 338.977 243.464 312.774 234.236 309.804"/><path class="cls-61" d="M284.167,499.95694q.187.16689.36366.33893V523.116c-2.53113-2.51156-6.87846-4.33085-12.00048-4.86447h0a30.19615,30.19615,0,0,0-7.03091.09477,22.834,22.834,0,0,0-8.66373,2.835,10.46512,10.46512,0,0,0-4.371,4.53069V499.50881a10.46512,10.46512,0,0,1,4.371-4.53069,22.83365,22.83365,0,0,1,8.66373-2.835q1.10952-.14833,2.26844-.21118c.09993-.00515.20089-.0103.30184-.01443.443-.0206.89213-.02987,1.34437-.02987a29.8965,29.8965,0,0,1,3.11626.16071v3.4315q.34461.03553.684.07829c.1504.01854.29977.03812.44812.05975.05872.00824.11744.01648.17513.02576.08035.01133.1607.02369.24.036.09891.01545.19678.03193.29361.04841l.23179.04018c.05254.00825.10508.01854.15762.02782.069.01339.138.02575.20706.03915.0989.01854.19676.03811.29462.05769.19575.04017.39044.08138.58309.12567.0958.02164.1916.0443.28741.067q.11435.02627.2287.05562c.03091.00722.0618.01546.09168.02267.08242.02061.16484.04224.24622.06387.09374.02369.18748.04945.2802.0752.09272.02472.1844.05151.27609.07726q.27661.08037.546.16484c.08961.02781.17925.05665.26886.0855.0886.02987.17718.05872.26579.08962.07829.02679.15762.05357.23591.08139l.05151.01854.18234.0649c.12568.04636.2493.09374.37188.14113.06388.02473.12671.04945.19059.07417.08344.034.16688.067.25033.102.08242.034.16483.069.24724.104.08138.035.16276.07.24312.10611.06387.02781.12568.05562.18853.08447.19572.08963.38734.18028.57483.274.05562.02781.11022.05562.16482.08241.08139.04224.16072.08344.24.12568.11537.06181.22973.12362.343.18749.04328.0237.08654.04739.12878.07211.07931.0443.15657.08963.23383.136.01547.00928.03091.01855.04637.02679.0546.033.10816.0649.16173.09787.04842.02987.09684.05975.14526.09065q.56247.35232,1.06622.73658c.05564.04223.11127.0855.16587.12774.01029.00927.0206.01648.0309.02472.05974.04738.11847.09477.17617.1432.07623.0618.15143.12464.22457.18851C284.05674,499.85907,284.11238,499.90749,284.167,499.95694Z" transform="translate(-9 -186.73483)"/><path class="cls-62" d="M245.61693,513.786a15.73648,15.73648,0,0,1-1.7245-1.91613l-.02679.00825v22.72029c2.67948,3.56645,7.53571,6.46123,13.60032,8.126V519.95977A28.04963,28.04963,0,0,1,245.61693,513.786Z" transform="translate(-9 -186.73483)"/><path class="cls-63" d="M267.75943,485.98061q-1.1435.03708-2.2602.12774c-7.02576.56865-13.20885,2.65269-17.52835,5.66079a16.9239,16.9239,0,0,0-4.73467,4.76969l9.22827,2.97a10.46512,10.46512,0,0,1,4.371-4.53069,22.83365,22.83365,0,0,1,8.66373-2.835,30.19615,30.19615,0,0,1,7.03091-.09477Z" transform="translate(-9 -186.73483)"/><path class="cls-64" d="M253.01768,508.973l-.94261.29876-8.18264,2.59808a15.73648,15.73648,0,0,0,1.7245,1.91613,28.04963,28.04963,0,0,0,11.849,6.17381l1.95011-3.70965,1.09817-2.08918C257.092,512.98757,254.42181,511.159,253.01768,508.973Z" transform="translate(-9 -186.73483)"/><polygon class="cls-65" points="251.514 327.426 251.514 350.192 249.623 353.79 248.466 355.991 248.466 333.225 250.416 329.515 251.514 327.426"/><polygon class="cls-66" points="282.957 309.273 275.53 313.561 275.53 336.381 282.957 332.118 282.957 309.273"/><polygon class="cls-67" points="295.223 316.458 293.051 317.712 288.04 320.606 283.873 323.011 267.697 332.351 263.475 334.788 258.45 337.689 254.017 340.249 247.836 336.68 252.178 334.173 257.521 331.089 261.252 328.934 277.879 319.334 281.62 317.175 286.975 314.084 289.042 312.89 295.223 316.458"/><polygon class="cls-68" points="247.836 336.68 247.836 359.329 254.017 362.898 254.017 340.249 247.836 336.68"/><polygon class="cls-69" points="295.223 316.458 295.223 339.107 293.051 340.361 288.04 343.254 283.873 345.66 267.697 354.999 263.475 357.437 258.45 360.338 254.017 362.898 254.017 340.249 258.45 337.689 263.475 334.788 267.697 332.35 283.873 323.011 288.04 320.605 293.051 317.712 293.156 317.651 295.223 316.458"/><path class="cls-70" d="M321.932,542.49134c0,3.44489-1.88006,6.6786-5.07977,9.2942V529.52387c2.89478-2.36733,4.70891-5.20545,5.02826-8.27639C321.9145,521.572,321.932,542.16169,321.932,542.49134Z" transform="translate(-9 -186.73483)"/><path class="cls-71" d="M311.62412,520.26779c0,.32966-.02679,20.92108-.08139,21.24249-.67476-4.05887-5.49081-7.41895-11.97368-8.64383V510.646q1.24547.23334,2.40339.57072C307.69607,512.88043,311.62412,516.30884,311.62412,520.26779Z" transform="translate(-9 -186.73483)"/><polygon class="cls-72" points="307.852 342.789 307.852 365.051 306.372 364.067 300.393 360.745 300.393 338.483 307.852 342.789"/><path class="cls-73" d="M303.3627,528.845l7.39765,4.27109q-.97659.42186-2.01913.79426a43.80069,43.80069,0,0,1-14.61813,2.39412c-9.68155,0-18.20724-2.85563-23.18915-7.18853a17.59691,17.59691,0,0,1-1.27535-1.22282l7.1978-4.15468.647-.37395v.001c2.27358,4.062,8.86359,6.999,16.63933,6.999A27.46633,27.46633,0,0,0,303.3627,528.845Z" transform="translate(-9 -186.73483)"/><path class="cls-74" d="M308.73551,533.93507q1.04151-.37241,2.01914-.79426V555.3623h-.001a42.49193,42.49193,0,0,1-16.63623,3.17612c-10.56646,0-19.75559-3.43212-24.4645-8.44184V527.91784a17.5969,17.5969,0,0,0,1.27536,1.22281c4.9819,4.3329,13.5076,7.18853,23.18914,7.18853A43.80061,43.80061,0,0,0,308.73551,533.93507Z" transform="translate(-9 -186.73483)"/><path class="cls-75" d="M321.93012,520.2726a9.33824,9.33824,0,0,1-.05151.97763c-.31935,3.07094-2.13348,5.90906-5.02826,8.2764l-7.45947-4.30612a7.51481,7.51481,0,0,0,2.15-3.97234,5.83273,5.83273,0,0,0,.08139-.97763c0-3.95895-3.928-7.38736-9.65168-9.05108q-1.15585-.33533-2.40339-.57072v-.001l5.50833-3.17912,2.286-1.31965C316.03858,508.86655,321.93012,514.173,321.93012,520.2726Z" transform="translate(-9 -186.73483)"/><path class="cls-76" d="M245.61693,511.393a15.73567,15.73567,0,0,1-1.7245-1.91612l-.02679.00824V511.94c2.67948,3.56646,7.53571,6.46123,13.60032,8.126v-2.49919A28.04964,28.04964,0,0,1,245.61693,511.393Z" transform="translate(-9 -186.73483)"/><path class="cls-77" d="M253.01768,506.58l-.94261.29875-8.18264,2.59809a15.73567,15.73567,0,0,0,1.7245,1.91612,28.04964,28.04964,0,0,0,11.849,6.17382l1.95011-3.70965,1.09817-2.08918C257.092,510.59458,254.42181,508.766,253.01768,506.58Z" transform="translate(-9 -186.73483)"/><polygon class="cls-78" points="234.236 307.411 234.236 313.352 243.464 316.322 243.464 310.381 234.236 307.411"/><path class="cls-79" d="M269.45407,486.99748q-.82518,0-1.637.02781l.25137,2.4889.001.0103.34511,3.40781.00515.01957q.5223-.02008,1.05386-.01957a29.92062,29.92062,0,0,1,3.05651.15452q.34461.03553.684.0783c.1504.01854.29977.03811.44812.05975.05872.00824.11744.01648.17513.02575.08035.01133.1607.02369.24.03606.09788.01545.19678.03193.29361.04841l.23179.04018c.05254.00824.10508.01854.15762.02782.069.01339.138.02575.20706.03914.0989.01855.19676.03812.29462.05769.19575.04018.39044.08138.58309.12568.0958.02164.1916.0443.28741.067.07623.01751.1535.03606.2287.05563.03091.00721.0618.01546.09168.02267.08242.0206.16484.0412.24622.06387.09374.02369.18748.04944.2802.0752.09272.02472.1844.05151.27609.07726q.27661.08035.546.16483c.08961.02781.17925.05666.26886.0855.0886.02988.17718.05872.26579.08963.07932.02575.15762.05357.23591.08138l.05151.01855c.0618.02163.12155.04326.18234.0649.12568.04636.2493.09374.37188.14113.06388.02472.12671.04945.19059.07417.08344.034.16688.067.25033.102.08242.034.16483.069.24724.104.08138.035.16276.07.24312.10611.06387.02781.12568.05563.18853.08448.19572.08962.38734.18028.57483.274.05562.02782.11022.05563.16482.08241.08139.04224.16072.08345.24.12569.11537.06181.22973.12362.343.18749.04328.02369.08654.04738.12878.07211.07931.0443.15657.08963.23383.136.01547.00927.03091.01854.04637.02679.0546.033.10816.0649.16173.09786.04842.02988.09684.05976.14526.09066q.56247.35231,1.06622.73657c.05564.04224.11127.0855.16587.12774.01029.00927.0206.01648.0309.02473.05974.04738.11847.09477.17617.14319.07623.06181.15143.12465.22457.18852.05666.04842.1123.09684.16688.14629q.187.16688.36366.33892l7.4265-4.28757C286.901,489.60485,278.705,486.99748,269.45407,486.99748Z" transform="translate(-9 -186.73483)"/><path class="cls-80" d="M267.75943,483.58761q-1.1435.0371-2.2602.12774c-7.02576.56866-13.20885,2.65269-17.52835,5.66079a16.92393,16.92393,0,0,0-4.73467,4.7697l9.22827,2.97a10.465,10.465,0,0,1,4.371-4.53069,22.83365,22.83365,0,0,1,8.66373-2.835,30.197,30.197,0,0,1,7.03091-.09478Z" transform="translate(-9 -186.73483)"/><polygon class="cls-81" points="251.514 325.033 251.514 327.532 249.623 331.131 248.466 333.331 248.466 330.832 250.416 327.122 251.514 325.033"/><path class="cls-82" d="M284.167,497.564q.187.16688.36366.33892v2.55792c-2.53113-2.51156-6.87846-4.335-12.00048-4.86859v.00412a30.19615,30.19615,0,0,0-7.03091.09477,22.834,22.834,0,0,0-8.66373,2.835,10.46512,10.46512,0,0,0-4.371,4.53069v-5.941a10.465,10.465,0,0,1,4.371-4.53069,22.83365,22.83365,0,0,1,8.66373-2.835q1.10952-.14835,2.26844-.21119c.09993-.00515.20089-.0103.30184-.01442.443-.02061.89213-.02987,1.34437-.02987a29.89653,29.89653,0,0,1,3.11626.1607v3.4315q.34461.03553.684.0783c.1504.01854.29977.03811.44812.05975.05872.00824.11744.01648.17513.02575.08035.01133.1607.02369.24.03606.09891.01545.19678.03193.29361.04841l.23179.04018c.05254.00824.10508.01854.15762.02782.069.01339.138.02575.20706.03914.0989.01855.19676.03812.29462.05769.19575.04018.39044.08138.58309.12568.0958.02164.1916.0443.28741.067q.11435.02626.2287.05563c.03091.00721.0618.01546.09168.02267.08242.0206.16484.04223.24622.06387.09374.02369.18748.04944.2802.0752.09272.02472.1844.05151.27609.07726q.27661.08035.546.16483c.08961.02781.17925.05666.26886.0855.0886.02988.17718.05872.26579.08963.07829.02678.15762.05357.23591.08138l.05151.01855.18234.0649c.12568.04636.2493.09374.37188.14113.06388.02472.12671.04945.19059.07417.08344.034.16688.067.25033.102.08242.034.16483.069.24724.104.08138.035.16276.07.24312.10611.06387.02781.12568.05563.18853.08448.19572.08962.38734.18028.57483.274.05562.02782.11022.05563.16482.08241.08139.04224.16072.08345.24.12569.11537.06181.22973.12362.343.18749.04328.02369.08654.04738.12878.07211.07931.0443.15657.08963.23383.136.01547.00927.03091.01854.04637.02679.0546.033.10816.0649.16173.09786.04842.02988.09684.05976.14526.09066q.56247.35231,1.06622.73657c.05564.04224.11127.0855.16587.12774.01029.00927.0206.01648.0309.02473.05974.04738.11847.09477.17617.14319.07623.06181.15143.12465.22457.18852C284.05674,497.46608,284.11238,497.5145,284.167,497.564Z" transform="translate(-9 -186.73483)"/><polygon class="cls-83" points="295.223 314.065 293.051 315.319 288.04 318.213 283.873 320.618 267.697 329.958 263.475 332.395 258.45 335.296 254.017 337.856 247.836 334.287 252.178 331.78 257.521 328.696 261.252 326.541 277.879 316.941 281.62 314.782 286.975 311.691 289.042 310.497 295.223 314.065"/><polygon class="cls-84" points="247.836 334.287 247.836 336.674 254.017 340.243 254.017 337.856 247.836 334.287"/><polygon class="cls-85" points="295.223 314.065 295.223 316.452 293.051 317.706 288.04 320.599 283.873 323.005 267.697 332.344 263.475 334.782 258.45 337.683 254.017 340.243 254.017 337.856 258.45 335.296 263.475 332.395 267.697 329.957 283.873 320.618 288.04 318.212 293.051 315.319 293.156 315.258 295.223 314.065"/><polygon class="cls-86" points="282.957 306.88 275.53 311.168 275.53 313.726 282.957 309.463 282.957 306.88"/><path class="cls-87" d="M303.3627,526.452l7.39765,4.27109q-.97659.42184-2.01913.79426a43.80069,43.80069,0,0,1-14.61813,2.39411c-9.68155,0-18.20724-2.85563-23.18915-7.18853a17.59681,17.59681,0,0,1-1.27535-1.22281l7.1978-4.15468.647-.374v.001c2.27358,4.062,8.86359,6.999,16.63933,6.999A27.46633,27.46633,0,0,0,303.3627,526.452Z" transform="translate(-9 -186.73483)"/><path class="cls-88" d="M321.93012,517.87961a9.33838,9.33838,0,0,1-.05151.97763c-.31935,3.07094-2.13348,5.90906-5.02826,8.27639l-7.45947-4.30611a7.51485,7.51485,0,0,0,2.15-3.97234,5.83282,5.83282,0,0,0,.08139-.97763c0-3.959-3.928-7.38736-9.65168-9.05108q-1.15585-.33533-2.40339-.57072v-.001l5.50833-3.17911,2.286-1.31965C316.03858,506.47355,321.93012,511.78,321.93012,517.87961Z" transform="translate(-9 -186.73483)"/><path class="cls-89" d="M308.73551,531.54207q1.04151-.37239,2.01914-.79425v1.95938h-.001a42.48814,42.48814,0,0,1-16.63623,3.18838c-10.56646,0-19.75559-3.40163-24.4645-8.41134v-1.95939a17.599,17.599,0,0,0,1.27536,1.22281c4.9819,4.3329,13.5076,7.18853,23.18914,7.18853A43.80035,43.80035,0,0,0,308.73551,531.54207Z" transform="translate(-9 -186.73483)"/><path class="cls-90" d="M321.932,519.83624c0,3.44489-1.88006,6.63842-5.07977,9.254v-1.95939c2.89478-2.36733,4.70891-5.20545,5.02826-8.27639A9.41719,9.41719,0,0,1,321.932,519.83624Z" transform="translate(-9 -186.73483)"/><path class="cls-91" d="M311.62412,517.8748a5.83282,5.83282,0,0,1-.08139.97763c-.67476-4.05887-5.49081-7.4162-11.97368-8.64108V508.253q1.24547.23332,2.40339.57072C307.69607,510.48744,311.62412,513.91585,311.62412,517.8748Z" transform="translate(-9 -186.73483)"/><polygon class="cls-92" points="307.852 340.396 307.852 342.355 306.372 341.5 300.393 338.049 300.393 336.09 307.852 340.396"/><path class="cls-93" d="M351.1103,409.42587V540.146a3.961,3.961,0,0,1-1.94029,3.42283l-14.8,8.89673-10.87847,6.541-32.21927,19.387a15.19039,15.19039,0,0,1-15.6035.01387l-31.90056-19.05441-10.9617-6.541-14.98031-8.95206a3.91563,3.91563,0,0,1-1.92607-3.14573V409.99408a3.91589,3.91589,0,0,0,1.92607,3.14574l14.98031,8.952,10.9617,6.54082,31.90056,19.0544a15.15829,15.15829,0,0,0,15.6035-.02774l32.21927-19.37311L334.37,421.73156l14.8-8.89657A3.93952,3.93952,0,0,0,351.1103,409.42587Z" transform="translate(-9 -186.73483)"/></svg>