<svg id="Слой_1" data-name="Слой 1" xmlns="http://www.w3.org/2000/svg" xmlns:xlink="http://www.w3.org/1999/xlink" viewBox="0 0 652.83278 989.13393"><defs><style>.cls-1{fill:#212121;}.cls-2{fill:#ff9c7b;}.cls-3{fill:#e64415;}.cls-4{fill:url(#Безымянный_градиент_81);}.cls-5{fill:url(#Безымянный_градиент_33);}.cls-6{fill:url(#Безымянный_градиент_77);}.cls-7{fill:url(#Безымянный_градиент_22);}.cls-8{fill:url(#Безымянный_градиент_22-2);}.cls-9{fill:url(#Безымянный_градиент_81-2);}.cls-10{fill:#828282;}.cls-11{fill:url(#Безымянный_градиент_23);}.cls-12{fill:url(#Безымянный_градиент_23-2);}.cls-13{fill:url(#Безымянный_градиент_23-3);}.cls-14{fill:url(#Безымянный_градиент_159);}.cls-15{fill:url(#Безымянный_градиент_23-4);}.cls-16{fill:#009e07;}.cls-17{fill:#036614;}.cls-18{fill:#111423;}</style><linearGradient id="Безымянный_градиент_81" x1="-5218.39841" y1="1890.11865" x2="-4742.71544" y2="1890.11865" gradientTransform="translate(5635.90113 -130.35631) rotate(10.74042)" gradientUnits="userSpaceOnUse"><stop offset="0" stop-color="#b5b5c1" stop-opacity="0.3"/><stop offset="0.99512" stop-color="#fdfdfd" stop-opacity="0"/></linearGradient><linearGradient id="Безымянный_градиент_33" x1="-5510.90722" y1="418.52192" x2="-5225.22271" y2="418.52192" gradientTransform="translate(5684.50322)" gradientUnits="userSpaceOnUse"><stop offset="0.57561" stop-color="#fbfbfd"/><stop offset="1" stop-color="#f3f3f5"/></linearGradient><linearGradient id="Безымянный_градиент_77" x1="-5510.91961" y1="527.4885" x2="-5225.23533" y2="527.4885" gradientTransform="translate(5684.50322)" gradientUnits="userSpaceOnUse"><stop offset="0" stop-color="#f77f48"/><stop offset="0.45366" stop-color="#ff9c88"/><stop offset="1" stop-color="#f77f48"/></linearGradient><linearGradient id="Безымянный_градиент_22" x1="-5510.90721" y1="487.42267" x2="-5225.2227" y2="487.42267" gradientTransform="translate(5684.50322)" gradientUnits="userSpaceOnUse"><stop offset="0" stop-color="#fdfdfd"/><stop offset="0.43171" stop-color="#fbfafb"/><stop offset="0.56585" stop-color="#f0eff4"/></linearGradient><linearGradient id="Безымянный_градиент_22-2" x1="-5510.91953" y1="672.06131" x2="-5225.23501" y2="672.06131" xlink:href="#Безымянный_градиент_22"/><linearGradient id="Безымянный_градиент_81-2" x1="-5461.81865" y1="445.55698" x2="-5225.21104" y2="445.55698" gradientTransform="translate(5684.50322)" xlink:href="#Безымянный_градиент_81"/><linearGradient id="Безымянный_градиент_23" x1="1123.81796" y1="416.54097" x2="1191.79971" y2="416.54097" gradientTransform="matrix(-1, 0, 0, 1, 1228.37566, -5.43304)" gradientUnits="userSpaceOnUse"><stop offset="0" stop-color="#b5b5c1"/><stop offset="0.3561" stop-color="#d2cfda"/><stop offset="0.99268" stop-color="#f0eff4"/></linearGradient><linearGradient id="Безымянный_градиент_23-2" x1="1078.775" y1="333.25388" x2="1209.78072" y2="333.25388" gradientTransform="matrix(-1, 0, 0, 1, 1401.95927, 0)" xlink:href="#Безымянный_градиент_23"/><linearGradient id="Безымянный_градиент_23-3" x1="1161.54625" y1="235.33908" x2="1194.14803" y2="235.33908" gradientTransform="matrix(-1, 0, 0, 1, 1401.95927, 0)" xlink:href="#Безымянный_градиент_23"/><linearGradient id="Безымянный_градиент_159" x1="1165.67035" y1="235.33908" x2="1191.30383" y2="235.33908" gradientTransform="matrix(-1, 0, 0, 1, 1401.95927, 0)" gradientUnits="userSpaceOnUse"><stop offset="0" stop-color="#4d4d4d"/><stop offset="0.3561" stop-color="#1a1a1a"/><stop offset="0.99268" stop-color="#4d4d4d"/></linearGradient><linearGradient id="Безымянный_градиент_23-4" x1="1143.11482" y1="374.63638" x2="1172.50285" y2="374.63638" gradientTransform="matrix(-1, 0, 0, 1, 1401.95927, 0)" xlink:href="#Безымянный_градиент_23"/></defs><title>Cashier</title><polygon class="cls-1" points="170.801 140.737 204.98 147.241 206.644 117.448 171.406 115.481 170.801 140.737"/><path class="cls-2" d="M329.74279,50.077s-4.41351,38.54857,7.15606,60.55344,17.46778,23.13914,21.3243,22.45858,15.4261-5.44451,17.01408-5.21765,0,16.78722,0,16.78722-3.85653,7.48619-1.588,13.15755,12.02328,12.477,17.24092,12.477,11.56957,0,12.9307-3.176,1.36113-16.33351,1.36113-16.33351l8.3936-40.59859,9.301-34.49018-21.3243-30.17162-37.65782-9.98159Z" transform="translate(-173.58361 -5.43304)"/><path class="cls-1" d="M449.19173,164.16806c-2.94911-9.301-21.3243-26.542-22.23172-37.65782s-4.08338-77.13046-4.08338-77.13046S417.43213,7.86544,382.04286,5.5969s-51.83438,19.70113-53.12667,23.634c-1.19269,3.62967-6.29491,18.12148,1.85759,26.274,2.1581,2.1581,12.477-6.35192,18.82891-6.12506s14.51868,10.66215,23.366,11.79642,14.29183,4.76394,19.05577,7.48619,14.065-2.49539,17.24092,0,11.56957,5.89822,9.52788,13.15755-15.65294,23.366-15.42609,26.99567,1.81484,41.968,1.81484,41.968,26.7688,5.67136,37.65781,26.99566C444.65464,181.18213,452.14084,173.46908,449.19173,164.16806Z" transform="translate(-173.58361 -5.43304)"/><path class="cls-2" d="M328.10178,252.92453s1.613,5.714-3.70964,11.17035S276.6217,301.2305,276.6217,301.2305L265.84,271.4908s21.32475-5.97462,25.75835-12.666,40.78635-96.62985,40.78635-96.62985Z" transform="translate(-173.58361 -5.43304)"/><path class="cls-1" d="M392.59893,380.8792v.15913l24.32134,13.9887,23.8459,13.67238a114.0588,114.0588,0,0,0-1.27109-22.41569l-.47738-2.384-34.49582-27.66109Z" transform="translate(-173.58361 -5.43304)"/><path class="cls-3" d="M313.58805,254.01836c1.58933,2.70324,3.49887,5.72376,5.40452,9.22069,3.65606,6.67658,5.5656,22.41569,6.51842,39.10762.31826,7.94863.47739,16.05639.63652,23.52764.15912,6.20017,0,11.76382,0,16.69194l66.45142,38.313v.15913l24.32134,13.9887c11.28838-2.8614,21.14266-5.88191,22.57481-8.74331a1.20378,1.20378,0,0,0,.31826-.63554c.95283-7.63037-10.17448-52.30165-11.92295-56.276-1.90953-4.13344-.31826-36.40535-.95477-40.22054s11.12731-33.543,18.91682-62.63526c7.63231-28.61489.47738-44.03574-11.923-60.40942,0-.15913,0-.15913-.15913-.31825-.15719-.15913-.15719-.15913-.31632-.31729-4.61082-6.041-15.58094-11.60566-27.97934-16.05639h-.31825a236.488,236.488,0,0,0-25.91262-7.47222,30.11445,30.11445,0,0,1-3.65606-.79467c-10.96818-2.06672-19.87158-3.02052-23.05026-2.22585a19.94324,19.94324,0,0,0-8.10776,4.769,32.90536,32.90536,0,0,0-5.88385,6.83667s-2.383,4.2916-5.72084,10.81c-.15913.15912-.15913.15912-.15913.31728-9.06253,17.32845-25.43718,49.44123-27.502,61.04593C302.777,235.578,306.9105,242.73193,313.58805,254.01836Z" transform="translate(-173.58361 -5.43304)"/><path class="cls-2" d="M260.65085,349.72021c8.58515,3.17965,21.30179-5.24637,25.43524-7.31309,1.43021-.63554,10.65186-4.2916,23.37045-9.538,5.08433-2.22585,10.80906-4.60986,16.691-6.99484,23.84589-10.33361,52.30068-23.68677,67.87969-34.97418,29.25236-20.9845,47.85092-81.07566,50.23784-93.31686,2.22391-12.24024-5.5656-25.59437-13.196-23.05123-20.5081,6.83668-54.68566,92.84045-65.1784,104.12786-4.61083,5.2454-22.25656,14.78434-40.37968,23.68677-14.30792,7.154-28.93216,13.98967-37.99469,17.80486a83.1948,83.1948,0,0,1-8.74427,3.65606c-3.33781.79467-5.24346-2.22585-11.12731-1.58934-5.88.79467-11.76382,6.83571-11.76382,6.83571S252.06571,346.54056,260.65085,349.72021Z" transform="translate(-173.58361 -5.43304)"/><polygon class="cls-4" points="140.471 839.597 566.123 989.134 652.833 690.945 176.522 669.025 140.471 839.597"/><path class="cls-5" d="M459.28051,418.5734a8.35707,8.35707,0,0,1-4.074,7.21309l-31.28174,18.79883-22.98467,13.8283-68.09493,40.96162a32.09682,32.09682,0,0,1-32.96359.03741l-67.3846-40.25151-23.17171-13.8283-31.65561-18.91106a8.31915,8.31915,0,0,1-4.07361-6.65239v-1.04658a8.2738,8.2738,0,0,1,4.07361-6.6898l104.53425-62.86253,19.09788-11.47374a31.99742,31.99742,0,0,1,33.18783.07482l18.68684,11.39892,102.10487,62.227A8.30394,8.30394,0,0,1,459.28051,418.5734Z" transform="translate(-173.58361 -5.43304)"/><path class="cls-6" d="M459.26789,470.90943V498.678a8.31277,8.31277,0,0,1-4.07383,7.21309L332.83273,579.47987a32.01225,32.01225,0,0,1-32.9636.03741L177.65721,506.56382a8.32764,8.32764,0,0,1-4.0736-6.6898V472.10519a8.31919,8.31919,0,0,0,4.0736,6.65262l11.17469,6.65239,111.03723,66.33825a32.09632,32.09632,0,0,0,32.9636-.03718l111.33606-66.93636,11.02527-6.65239A8.35684,8.35684,0,0,0,459.26789,470.90943Z" transform="translate(-173.58361 -5.43304)"/><path class="cls-7" d="M455.20647,425.78646l-31.28174,18.79883-22.98444,13.8283-68.09516,40.96162a32.09641,32.09641,0,0,1-32.96336.03741l-67.38483-40.25151-23.17149-13.8283-31.65583-18.91106a8.31918,8.31918,0,0,1-4.07361-6.6524v52.32313a8.31918,8.31918,0,0,0,4.07361,6.65239l11.17514,6.65262,111.037,66.33826a32.09638,32.09638,0,0,0,32.96336-.03742L444.18142,484.762l11.02505-6.65239a8.3571,8.3571,0,0,0,4.07406-7.21309V418.57337A8.35709,8.35709,0,0,1,455.20647,425.78646Z" transform="translate(-173.58361 -5.43304)"/><path class="cls-8" d="M455.19415,505.891,332.83282,579.47971a32.01267,32.01267,0,0,1-32.96383.03741L177.6573,506.56366a8.32762,8.32762,0,0,1-4.0736-6.6898v261.3914a8.31912,8.31912,0,0,0,4.0736,6.65239l31.65538,18.91107,23.17149,13.8283,67.38482,40.2515a32.09721,32.09721,0,0,0,32.96383-.03741l68.0947-40.96161,22.98489-13.8283,31.28174-18.79884a8.35707,8.35707,0,0,0,4.07406-7.21308V498.67787A8.313,8.313,0,0,1,455.19415,505.891Z" transform="translate(-173.58361 -5.43304)"/><path class="cls-9" d="M459.29218,418.5867a8.35663,8.35663,0,0,1-4.0736,7.21309l-31.28174,18.79906L400.952,458.42715l-68.0947,40.96139a31.17914,31.17914,0,0,1-8.33448,3.51313l-37.32216-29.54823L222.68457,428.54l37.265-40.32773,198.2589,26.226A8.09746,8.09746,0,0,1,459.29218,418.5867Z" transform="translate(-173.58361 -5.43304)"/><ellipse class="cls-10" cx="70.56683" cy="413.0268" rx="33.99087" ry="19.57478"/><ellipse class="cls-11" cx="70.56683" cy="411.10793" rx="33.99087" ry="19.57478"/><path class="cls-10" d="M195.65,237.50456a3.55246,3.55246,0,0,1,1.76889.1539h.07695a3.32107,3.32107,0,0,1,.99939.38381l1.07541.61465,118.69359,67.88014a9.84823,9.84823,0,0,1,4.92,8.53287V425.30665a3.06,3.06,0,0,1-.53864,1.8449,2.788,2.788,0,0,1-1.07541,1.23024l2.3826-.9994h.077a3.70069,3.70069,0,0,0,2.45955-.99939l.07695-.07695h.07694v-.077a3.70592,3.70592,0,0,0,1.07729-2.61344V313.378a9.7814,9.7814,0,0,0-4.921-8.53194l-119.692-68.49479a4.52833,4.52833,0,0,0-3.15208-.46075l-.61466.2299Z" transform="translate(-173.58361 -5.43304)"/><path class="cls-12" d="M318.23794,306.513l-119.7287-68.5a4.23005,4.23005,0,0,0-6.33068,3.67161V345.55607a10.29136,10.29136,0,0,0,4.8929,8.76177l120.39221,74.17808a3.75229,3.75229,0,0,0,5.7206-3.19459V315.04153A9.82575,9.82575,0,0,0,318.23794,306.513Z" transform="translate(-173.58361 -5.43304)"/><path class="cls-13" d="M239.18209,229.14676,209.38668,213.2844a1.05454,1.05454,0,0,0-1.57544.85023v24.05323a2.35169,2.35169,0,0,0,1.21764,2.02894L238.98941,257.394a.9368.9368,0,0,0,1.42361-.73976V231.1217A2.25229,2.25229,0,0,0,239.18209,229.14676Z" transform="translate(-173.58361 -5.43304)"/><path class="cls-14" d="M235.32109,230.47031l-23.42694-12.47194a.82914.82914,0,0,0-1.2387.6685V237.579a1.849,1.849,0,0,0,.95738,1.59527L235.16959,252.68a.73657.73657,0,0,0,1.11933-.58165V232.02312A1.77088,1.77088,0,0,0,235.32109,230.47031Z" transform="translate(-173.58361 -5.43304)"/><path class="cls-15" d="M258.84445,351.68512v74.08911l-29.388-16.656v-76.3077a9.29789,9.29789,0,0,1,14.014-8.013l0,0A31.19889,31.19889,0,0,1,258.84445,351.68512Z" transform="translate(-173.58361 -5.43304)"/><path class="cls-10" d="M240.18967,323.6212a8.935,8.935,0,0,1,3.305,1.15424,31.2006,31.2006,0,0,1,15.37475,26.90582v74.10548h2.76828V351.68126A31.2006,31.2006,0,0,0,246.263,324.77544,9.05418,9.05418,0,0,0,240.18967,323.6212Z" transform="translate(-173.58361 -5.43304)"/><path class="cls-10" d="M243.26011,229.41125v25.52962a.84852.84852,0,0,1-.39257.69963v.01708l-.06823.03416c-.01708,0-.01708.01709-.03416.01709l-2.7304,1.63819a.85664.85664,0,0,0,.37539-.69963V231.11777a2.24562,2.24562,0,0,0-1.22865-1.97952l-29.79593-15.85356a1.167,1.167,0,0,0-.92148-.06833l2.69634-1.62121c.017,0,.017-.017.03405-.017l.01709-.01708.01708.01708a1.05254,1.05254,0,0,1,1.00689,0l29.79583,15.85356A2.27859,2.27859,0,0,1,243.26011,229.41125Z" transform="translate(-173.58361 -5.43304)"/><path class="cls-16" d="M219.00286,240.25812l-3.19785-1.88489.18789-.61366,4.99975-6.77849.94846-3.08792-1.64241-.96837-.89558,2.91294-.72125-.424.92629-3.01391a1.033,1.033,0,0,1,.36342-.56779.42723.42723,0,0,1,.49133-.0127l1.94073,1.145a.73434.73434,0,0,1,.33285.49983,1.421,1.421,0,0,1-.04509.75507l-.84523,2.748a3.44514,3.44514,0,0,1-.53881,1.02131l-4.32476,5.876,2.33232,1.37624Z" transform="translate(-173.58361 -5.43304)"/><path class="cls-16" d="M224.29729,239.39346l-.61165-.3612-1.03758,3.37668-.67383-.39766,1.03758-3.37668-2.27657-1.3416.18077-.58757,4.71633-7.836.674.39664-.01518.04895-4.48315,7.45571,1.50433.88762,1.44621-4.70056.67384.39766-1.44622,4.70056.61165.3612Z" transform="translate(-173.58361 -5.43304)"/><path class="cls-16" d="M227.6553,244.27825a1.01793,1.01793,0,0,1-.36342.56779.42485.42485,0,0,1-.49.01286l-2.07511-1.22322a.74165.74165,0,0,1-.333-.49881,1.44306,1.44306,0,0,1,.044-.75727l1.01071-3.28561.716.42342-.98012,3.18567,1.78037,1.05015,1.21966-3.96409-.894-2.551.07853-.25583,1.93-.85694,1.013-3.29362-1.76178-1.03861-.89558,2.91294-.71494-.42122.92629-3.01391a1.01684,1.01684,0,0,1,.36449-.56559.42161.42161,0,0,1,.49027-.0149l2.05378,1.21238a.73431.73431,0,0,1,.33285.49983,1.421,1.421,0,0,1-.04509.75507l-.96965,3.15377a1.12167,1.12167,0,0,1-.60509.78545l-1.29194.51886.63508,1.656a1.72635,1.72635,0,0,1,.00555,1.16623Z" transform="translate(-173.58361 -5.43304)"/><path class="cls-16" d="M222.68588,342.6758l8.9226-17.95445s32.912-9.88036,42.43743-4.50879l-1.07267,15.26451Z" transform="translate(-173.58361 -5.43304)"/><path class="cls-17" d="M274.0441,320.21308l-1.07123,15.26417s-31.28916-2.932-50.2883,7.19976l4.71353,5.211s40.39028-13.26111,51.19032-6.20253l.75457-16.93076Z" transform="translate(-173.58361 -5.43304)"/><polygon class="cls-18" points="200.601 217.876 233.068 229.106 229.681 238.523 199.055 228.721 200.601 217.876"/><path class="cls-2" d="M260.65085,349.72021c8.58515,3.17965,21.30179-5.24637,25.43524-7.31309,1.43021-.63554,10.65186-4.2916,23.37045-9.538,5.08433-2.22585,10.80906-4.60986,16.691-6.99484,23.84589-10.33361,52.30068-23.68677,67.87969-34.97418,29.25236-20.9845,47.85092-81.07566,50.23784-93.31686,2.22391-12.24024-5.5656-25.59437-13.196-23.05123-20.5081,6.83668-54.68566,92.84045-65.1784,104.12786-4.61083,5.2454-22.25656,14.78434-40.37968,23.68677-14.30792,7.154-28.93216,13.98967-37.99469,17.80486a83.1948,83.1948,0,0,1-8.74427,3.65606c-3.33781.79467-5.24346-2.22585-11.12731-1.58934-5.88.79467-11.76382,6.83571-11.76382,6.83571S252.06571,346.54056,260.65085,349.72021Z" transform="translate(-173.58361 -5.43304)"/></svg>