<svg id="Слой_1" data-name="Слой 1" xmlns="http://www.w3.org/2000/svg" xmlns:xlink="http://www.w3.org/1999/xlink" viewBox="0 0 576.59705 636.50195"><defs><style>.cls-1{fill:url(#Безымянный_градиент_81);}.cls-2{fill:url(#Безымянный_градиент_81-2);}.cls-3{fill:url(#Безымянный_градиент_81-3);}.cls-4{fill:url(#Безымянный_градиент_33);}.cls-5{fill:url(#Безымянный_градиент_77);}.cls-6{fill:url(#Безымянный_градиент_81-4);}.cls-7{fill:url(#Безымянный_градиент_86);}.cls-8{fill:url(#Безымянный_градиент_30);}.cls-9{fill:url(#Безымянный_градиент_29);}.cls-10{opacity:0.2;}.cls-11{fill:url(#Безымянный_градиент_33-2);}.cls-12{fill:url(#Безымянный_градиент_38);}.cls-13{fill:url(#Безымянный_градиент_23);}.cls-14{fill:url(#Безымянный_градиент_33-3);}.cls-15{fill:url(#Безымянный_градиент_38-2);}.cls-16{fill:url(#Безымянный_градиент_23-2);}.cls-17{fill:url(#Безымянный_градиент_22);}.cls-18{fill:url(#Безымянный_градиент_22-2);}.cls-19{fill:#d7e3f4;}.cls-20{fill:#3f4155;}.cls-21{fill:#fcc1c0;}.cls-22{fill:#fff;}.cls-23{fill:#e64415;}.cls-24{fill:#ffd972;}.cls-25{fill:#111423;}.cls-26{fill:#7c5b5b;}.cls-27{fill:#9f6c6c;}.cls-28{fill:#b53010;}.cls-29{fill:#6ba3fc;}.cls-30{fill:url(#Безымянный_градиент_33-4);}.cls-31{fill:url(#Безымянный_градиент_38-3);}.cls-32{fill:url(#Безымянный_градиент_20);}.cls-33{fill:url(#Безымянный_градиент_86-2);}.cls-34{fill:url(#Безымянный_градиент_96);}.cls-35{fill:url(#Безымянный_градиент_27);}</style><linearGradient id="Безымянный_градиент_81" x1="-5048.48977" y1="1605.3849" x2="-4769.36658" y2="1605.3849" gradientTransform="translate(5544.6891 -220.05904) rotate(10.74042)" gradientUnits="userSpaceOnUse"><stop offset="0" stop-color="#b5b5c1" stop-opacity="0.3"/><stop offset="0.99512" stop-color="#fdfdfd" stop-opacity="0"/></linearGradient><linearGradient id="Безымянный_градиент_81-2" x1="-5211.22287" y1="1711.72612" x2="-4888.63832" y2="1711.72612" xlink:href="#Безымянный_градиент_81"/><linearGradient id="Безымянный_градиент_81-3" x1="-4952.62414" y1="1600.99981" x2="-4821.61036" y2="1600.99981" xlink:href="#Безымянный_градиент_81"/><linearGradient id="Безымянный_градиент_33" x1="-5225.6547" y1="370.16937" x2="-5058.01958" y2="370.16937" gradientTransform="translate(5684.50322)" gradientUnits="userSpaceOnUse"><stop offset="0.57561" stop-color="#fbfbfd"/><stop offset="1" stop-color="#f3f3f5"/></linearGradient><linearGradient id="Безымянный_градиент_77" x1="-5225.64648" y1="434.09255" x2="-5058.01163" y2="434.09255" gradientTransform="translate(5684.50322)" gradientUnits="userSpaceOnUse"><stop offset="0" stop-color="#f77f48"/><stop offset="0.45366" stop-color="#ff9c88"/><stop offset="1" stop-color="#f77f48"/></linearGradient><linearGradient id="Безымянный_градиент_81-4" x1="-5177.16605" y1="373.97924" x2="-5058.0163" y2="373.97924" gradientTransform="translate(5684.50322)" xlink:href="#Безымянный_градиент_81"/><linearGradient id="Безымянный_градиент_86" x1="212.80182" y1="250.10048" x2="272.28126" y2="250.10048" gradientUnits="userSpaceOnUse"><stop offset="0.57561" stop-color="#ff9c88"/><stop offset="1" stop-color="#f77f48"/></linearGradient><linearGradient id="Безымянный_градиент_30" x1="212.80182" y1="275.85582" x2="242.54154" y2="275.85582" gradientUnits="userSpaceOnUse"><stop offset="0" stop-color="#f77f48"/><stop offset="1" stop-color="#ff9c88"/></linearGradient><linearGradient id="Безымянный_градиент_29" x1="242.54154" y1="275.85582" x2="272.28126" y2="275.85582" gradientUnits="userSpaceOnUse"><stop offset="0" stop-color="#f77f48"/><stop offset="1" stop-color="#ef6452"/></linearGradient><linearGradient id="Безымянный_градиент_33-2" x1="272.28126" y1="250.10048" x2="331.7607" y2="250.10048" gradientTransform="matrix(1, 0, 0, 1, 0, 0)" xlink:href="#Безымянный_градиент_33"/><linearGradient id="Безымянный_градиент_38" x1="272.28126" y1="275.85582" x2="302.02098" y2="275.85582" gradientUnits="userSpaceOnUse"><stop offset="0" stop-color="#fdfdfd"/><stop offset="1" stop-color="#f0eff4"/></linearGradient><linearGradient id="Безымянный_градиент_23" x1="302.02098" y1="275.85583" x2="331.7607" y2="275.85583" gradientUnits="userSpaceOnUse"><stop offset="0" stop-color="#b5b5c1"/><stop offset="0.3561" stop-color="#d2cfda"/><stop offset="0.99268" stop-color="#f0eff4"/></linearGradient><linearGradient id="Безымянный_градиент_33-3" x1="242.54154" y1="198.58979" x2="302.02098" y2="198.58979" gradientTransform="matrix(1, 0, 0, 1, 0, 0)" xlink:href="#Безымянный_градиент_33"/><linearGradient id="Безымянный_градиент_38-2" x1="242.54154" y1="224.34513" x2="272.28126" y2="224.34513" xlink:href="#Безымянный_градиент_38"/><linearGradient id="Безымянный_градиент_23-2" x1="272.28126" y1="224.34514" x2="302.02098" y2="224.34514" xlink:href="#Безымянный_градиент_23"/><linearGradient id="Безымянный_градиент_22" x1="-5225.64648" y1="410.59046" x2="-5058.01163" y2="410.59046" gradientTransform="translate(5684.50322)" gradientUnits="userSpaceOnUse"><stop offset="0" stop-color="#fdfdfd"/><stop offset="0.43171" stop-color="#fbfafb"/><stop offset="0.56585" stop-color="#f0eff4"/></linearGradient><linearGradient id="Безымянный_градиент_22-2" x1="-5225.64648" y1="489.60522" x2="-5058.01163" y2="489.60522" xlink:href="#Безымянный_градиент_22"/><linearGradient id="Безымянный_градиент_33-4" x1="-288.54536" y1="428.97415" x2="-229.06592" y2="428.97415" gradientTransform="matrix(-1, 0, 0, 1, 133.51681, -95.13577)" xlink:href="#Безымянный_градиент_33"/><linearGradient id="Безымянный_градиент_38-3" x1="-288.54536" y1="474.76828" x2="-258.80564" y2="474.76828" gradientTransform="matrix(-1, 0, 0, 1, 133.51681, -95.13577)" xlink:href="#Безымянный_градиент_38"/><linearGradient id="Безымянный_градиент_20" x1="-258.80564" y1="474.76828" x2="-229.06592" y2="474.76828" gradientTransform="matrix(-1, 0, 0, 1, 133.51681, -95.13577)" gradientUnits="userSpaceOnUse"><stop offset="0.00732" stop-color="#f0eff4"/><stop offset="0.6439" stop-color="#d2cfda"/><stop offset="1" stop-color="#b5b5c1"/></linearGradient><linearGradient id="Безымянный_градиент_86-2" x1="-272.65172" y1="456.90979" x2="-213.17228" y2="456.90979" gradientTransform="matrix(-1, 0, 0, 1, 133.51681, -95.13577)" xlink:href="#Безымянный_градиент_86"/><linearGradient id="Безымянный_градиент_96" x1="-272.65172" y1="502.70391" x2="-242.912" y2="502.70391" gradientTransform="matrix(-1, 0, 0, 1, 133.51681, -95.13577)" gradientUnits="userSpaceOnUse"><stop offset="0" stop-color="#ef6452"/><stop offset="0.3561" stop-color="#f77f48"/></linearGradient><linearGradient id="Безымянный_градиент_27" x1="-242.912" y1="502.70391" x2="-213.17228" y2="502.70391" gradientTransform="matrix(-1, 0, 0, 1, 133.51681, -95.13577)" gradientUnits="userSpaceOnUse"><stop offset="0" stop-color="#ff9c88"/><stop offset="1" stop-color="#f77f48"/></linearGradient></defs><title>Commodity_specialist</title><polygon class="cls-1" points="275.952 466.505 525.717 554.251 576.597 379.279 297.106 366.416 275.952 466.505"/><polygon class="cls-2" points="109.281 471.965 388.717 636.502 439.597 461.529 160.106 448.667 109.281 471.965"/><polygon class="cls-3" points="376.001 453.458 493.235 494.644 517.117 412.516 385.931 406.478 376.001 453.458"/><path class="cls-4" d="M626.48364,370.19958a4.9038,4.9038,0,0,1-2.39059,4.23253L605.73742,385.463l-13.487,8.11423-39.957,24.03562a18.83389,18.83389,0,0,1-19.34251.022l-39.54021-23.61895-13.59679-8.11422-18.575-11.09671a4.88159,4.88159,0,0,1-2.39033-3.90352v-.61411a4.855,4.855,0,0,1,2.39033-3.92547l61.339-36.88673,11.20634-6.73261a18.77556,18.77556,0,0,1,19.47409.0439l10.96513,6.68871L624.137,365.98887A4.87261,4.87261,0,0,1,626.48364,370.19958Z" transform="translate(-264.79564 -95.13577)"/><path class="cls-5" d="M624.10153,405.12569l-6.46959,3.90365L552.30185,448.3064a18.83416,18.83416,0,0,1-19.34265.022l-43.53179-26.00927-21.623-12.917-6.55713-3.90365a4.88168,4.88168,0,0,1-2.39059-3.90352v16.29417a4.88646,4.88646,0,0,0,2.39059,3.92547L483.1776,434.907l49.7816,29.71549a1.81035,1.81035,0,0,0,.28511.15353,8.11483,8.11483,0,0,0,.85531.46058,7.44359,7.44359,0,0,0,.85505.39473,17.99926,17.99926,0,0,0,5.15382,1.49125c.32874.0439.63607.08767.96481.10962a18.91364,18.91364,0,0,0,11.22855-2.63166l.54826-.32887,71.25142-42.85183a4.87742,4.87742,0,0,0,2.39006-4.23253V400.89317A4.90326,4.90326,0,0,1,624.10153,405.12569Z" transform="translate(-264.79564 -95.13577)"/><path class="cls-6" d="M626.48692,370.19716a4.90323,4.90323,0,0,1-2.39059,4.23253l-18.35536,11.031-13.48717,8.11409-14.211,8.55286-70.70558-5.38069,83.71943-50.91609,32.053,19.51968,1.03066.63606A4.87258,4.87258,0,0,1,626.48692,370.19716Z" transform="translate(-264.79564 -95.13577)"/><polygon class="cls-7" points="242.542 232.93 212.802 250.1 242.542 267.271 272.281 250.1 242.542 232.93"/><polygon class="cls-8" points="212.802 250.1 212.802 284.441 242.542 301.611 242.542 267.271 212.802 250.1"/><polygon class="cls-9" points="272.281 250.1 272.281 284.441 242.542 301.611 242.542 267.271 272.281 250.1"/><polygon class="cls-10" points="225.182 242.953 254.819 260.182 254.819 273.616 258.435 271.385 258.435 258.284 229.16 240.623 225.182 242.953"/><polygon class="cls-11" points="302.021 232.93 272.281 250.1 302.021 267.271 331.761 250.1 302.021 232.93"/><polygon class="cls-12" points="272.281 250.1 272.281 284.441 302.021 301.611 302.021 267.271 272.281 250.1"/><polygon class="cls-13" points="331.761 250.1 331.761 284.441 302.021 301.611 302.021 267.271 331.761 250.1"/><polygon class="cls-10" points="284.661 242.953 314.299 260.182 314.299 273.616 317.915 271.385 317.915 258.284 288.64 240.623 284.661 242.953"/><polygon class="cls-14" points="272.281 181.42 242.542 198.59 272.281 215.76 302.021 198.59 272.281 181.42"/><polygon class="cls-15" points="242.542 198.59 242.542 232.93 272.281 250.1 272.281 215.76 242.542 198.59"/><polygon class="cls-16" points="302.021 198.59 302.021 232.93 272.281 250.1 272.281 215.76 302.021 198.59"/><polygon class="cls-10" points="254.921 191.442 284.559 208.671 284.559 222.105 288.175 219.875 288.175 206.774 258.9 189.113 254.921 191.442"/><path class="cls-17" d="M624.10153,374.42331l-18.35589,11.031-13.4869,8.1141L552.30185,417.604a18.83416,18.83416,0,0,1-19.34265.022L493.41887,394.007l-3.99146-2.39033-9.6052-5.7239-18.57488-11.09671a4.88167,4.88167,0,0,1-2.39059-3.90352V401.595a4.88168,4.88168,0,0,0,2.39059,3.90352l6.55713,3.90365,21.623,12.917,43.53179,26.00927a18.83416,18.83416,0,0,0,19.34265-.022l65.33009-39.27706,6.46959-3.90365a4.90326,4.90326,0,0,0,2.39006-4.23252V370.19079A4.90323,4.90323,0,0,1,624.10153,374.42331Z" transform="translate(-264.79564 -95.13577)"/><path class="cls-18" d="M624.10153,421.41987,552.85011,464.2717l-.54826.32887a18.91364,18.91364,0,0,1-11.22855,2.63166c-.32874-.022-.658-.06572-.96481-.10962a17.99926,17.99926,0,0,1-5.15382-1.49125,7.44359,7.44359,0,0,1-.85505-.39473,8.11483,8.11483,0,0,1-.85531-.46058,1.81035,1.81035,0,0,1-.28511-.15353L483.1776,434.907l-21.93027-13.09244a4.88646,4.88646,0,0,1-2.39059-3.92547v94.73879a4.84586,4.84586,0,0,0,2.39059,3.8817l18.57488,11.09672,13.59666,8.11409,39.54033,23.64089a18.83412,18.83412,0,0,0,19.34265-.02195l39.95689-24.05744,13.4869-8.11423,18.35589-11.031a4.8943,4.8943,0,0,0,2.39006-4.21057V417.18734A4.87742,4.87742,0,0,1,624.10153,421.41987Z" transform="translate(-264.79564 -95.13577)"/><path class="cls-19" d="M456.44693,590.95534s-3.1177,24.10657,12.48328,23.25319,13.24955-21.12123,12.55849-23.68138S456.44693,590.95534,456.44693,590.95534Z" transform="translate(-264.79564 -95.13577)"/><path class="cls-19" d="M371.10237,554.614s-1.06673,8.96053,0,10.02725,4.62249,5.547,13.15632,3.12908,40.30772-20.0545,40.99063-22.11685-.03643-8.24645-.03643-8.24645Z" transform="translate(-264.79564 -95.13577)"/><path class="cls-20" d="M456.68957,560.44541s.10668,14.72085,0,19.41446-3.09351,28.375,11.62735,27.5216,13.12076-21.44125,13.12076-21.44125-1.60009-29.20947-3.41353-30.819S456.68957,560.44541,456.68957,560.44541Z" transform="translate(-264.79564 -95.13577)"/><path class="cls-20" d="M397.13055,529.22581S371.458,549.2092,371.10237,554.614s6.32926,9.38722,12.51629,7.75157,40.42894-20.55231,41.229-22.33019.58674-14.792-2.329-15.14755S397.13055,529.22581,397.13055,529.22581Z" transform="translate(-264.79564 -95.13577)"/><path class="cls-19" d="M456.20123,554.05358l.48834,6.39183a8.95438,8.95438,0,0,0,11.094,4.37358c7.89379-2.45347,9.8139-7.04041,9.8139-8.96052V548.498Z" transform="translate(-264.79564 -95.13577)"/><path class="cls-19" d="M396.76872,523.12136l.36183,6.10445s-.53344,8.96052,10.64947,5.83145,14.73868-8.46271,14.73868-9.03163v-6.40038Z" transform="translate(-264.79564 -95.13577)"/><path class="cls-21" d="M368.68446,204.08691s-12.80075,20.76565-15.07644,22.188-45.40716,24.60588-48.23395,24.60588-16.37433-10.66729-17.06766-10.2406-14.77415,13.22744-14.77415,13.22744,3.698,11.094,15.50312,11.94736,28.58833,3.84022,75.80885-16.21428c8.80047-3.41353,16.99548-15.40505,22.50744-25.05464a30.7367,30.7367,0,0,0,3.8052-19.03681Z" transform="translate(-264.79564 -95.13577)"/><path class="cls-20" d="M384.18758,337.35688s-1.99123,73.2487,0,90.0319,11.37844,95.01,11.37844,95.01,13.04957,9.38721,29.28166-3.41353c0,0-5.38694-94.44105-3.68017-106.67287s5.907-45.59529,5.907-45.59529,6.04035,78.87722,9.16942,95.66042,14.792,89.60521,16.49874,90.45859,17.06766,6.82707,27.87717-4.83583c1.70677-1.99123-10.525-80.78692-10.24059-106.10395s1.97472-94.71141,1.97472-94.71141Z" transform="translate(-264.79564 -95.13577)"/><path class="cls-22" d="M368.68446,204.08691s9.38721-20.60273,26.73933-16.70174,48.63478-4.59251,48.63478-4.59251l3.9905,3.01763,28.00159,18.77442s21.21016,4.05357,17.6544,43.30919c0,0-8.67606,8.81829-20.0545,6.82706s-8.3916-3.41353-8.3916-3.41353l4.97807,23.25468-2.665,74.56016s-20.803,20.52093-44.98219,17.24963-35.69985-15.50313-38.40223-29.015S387.67223,218.95,387.67223,218.95,373.52029,215.46534,368.68446,204.08691Z" transform="translate(-264.79564 -95.13577)"/><path class="cls-23" d="M395.52578,188.27025s-11.48043,39.56915-11.90712,58.34357-7.04041,56.75-6.40038,71.89752,5.76034,20.69453,7.8938,17.06766,4.16016-23.68138,5.60028-37.97555,2.94746-56.53662,4.1139-61.01688,3.36524-24.80666,6.53276-32.03114S395.52578,188.27025,395.52578,188.27025Z" transform="translate(-264.79564 -95.13577)"/><path class="cls-23" d="M448.04907,185.81029l28.00159,18.77442s-24.58806,3.84023-22.4546,33.28194,9.38721,36.48212,16.641,36.69546,4.05357,71.68417,4.05357,71.68417-13.44079,7.25376-29.65506,6.82707-16.641-1.06673-17.281-13.65413-.64-84.69826,5.1203-102.19261,18.56108-39.789,17.281-45.016S448.04907,185.81029,448.04907,185.81029Z" transform="translate(-264.79564 -95.13577)"/><path class="cls-21" d="M489.43919,388.69459c-.85339,5.1203-9.67734,10.82063-13.38109,12.52739-3.72074,1.70677-14.78055-.29-12.2204-3.99356,2.56015-3.68688,3.41353-18.77443,3.41353-18.77443l-3.12341,3.70355c-3.14039,3.70355-5.41042-3.70355-5.13738-5.1203.25605-1.41674,11.96444-14.50751,12.81783-15.92426.85338-1.43341.27314-35.56873,1.70676-56.61329,1.36539-20.31076-7.35615-49.83748-7.97057-51.86864a.534.534,0,0,0-.03416-.11938c.92172.58024,3.15758,1.33133,8.1413,2.20179,11.3841,1.99679,20.0545-6.82706,20.0545-6.82706s4.557,32.42855,5.41042,42.95917-8.53383,62.86032-9.67733,67.41725S490.29257,383.57429,489.43919,388.69459Z" transform="translate(-264.79564 -95.13577)"/><polygon class="cls-24" points="176.853 139.051 173.333 151.105 180.96 153.772 184.32 141.717 176.853 139.051"/><polygon class="cls-25" points="169.439 156.865 167.839 163.639 184.32 168.599 186.187 161.079 169.439 156.865"/><path class="cls-24" d="M438.12849,265.67271c5.36234-.27151,9.84946,3.41353,9.84946,8.67606s-3.20018,9.245-7.82267,9.245-9.3161-2.27569-9.3161-8.96052S435.31944,265.81494,438.12849,265.67271Z" transform="translate(-264.79564 -95.13577)"/><path class="cls-21" d="M409.705,123.53614l-7.31188,26.07649s-5.26253,22.93857-5.26253,23.27441,22.75688,15.69674,22.75688,15.69674l-7.68044,19.77s2.56014,9.67167,9.67167,7.53822,25.88595-16.49874,25.317-22.33019-3.2713-5.547-3.41353-8.81829,6.25814-18.49,6.11591-22.75688c0,0,8.789.65455,10.22594-8.63325s-5.24788-31.04906-5.24788-31.04906l-31.85963-7.68044Z" transform="translate(-264.79564 -95.13577)"/><path class="cls-26" d="M446.34335,137.37331s-4.83018,36.1321-19.06455,32.29188c-14.21739-3.84023-17.49435-13.51746-17.49435-13.51746l-7.39032,3.84023V149.61069s-8.10714,11.52067-7.54388,29.015c.58024,17.49435,3.56708,30.58511,17.35778,29.73173s24.61153-10.53062,28.45176-23.33136,6.53694-32.99192,7.817-34.562,2.98684-4.69361,5.547-3.55021c2.56015,1.12673,6.11026,2.98684,5.83711,5.39365-.29012,2.42347,1.70677-.13667,1.70677-.13667l3.68667-5.257Zm-34.306,37.088c-2.25294.18751-1.63853-5.1203-3.56718-5.32531-1.91157-.22168-2.45775,1.5703-3.41353,1.91178-.95579.35835-1.94574-.03417-1.91157-2.3043.03417-2.26993,2.33826-2.66245,4.36931-3.51583s3.90846,1.16069,5.7518,3.22581C415.12664,170.51857,414.27325,174.29045,412.03739,174.4613Z" transform="translate(-264.79564 -95.13577)"/><path class="cls-27" d="M409.27348,152.04832c4.58694,0,14.18749,7.57378,14.50751,12.96076s-5.227,6.98707-7.62711,4.16024-5.60032-8.16048-6.8804-8.48049-5.33364,5.067-8.69384,3.36019-2.51371-7.96909,2.968-11.21194C403.54766,152.83708,404.68655,152.04832,409.27348,152.04832Z" transform="translate(-264.79564 -95.13577)"/><path class="cls-27" d="M423.301,95.565c10.2406,0,14.50751,8.96052,21.05012,8.96052s22.04572,2.84461,22.188,11.52067,5.26253,11.37844,5.26253,16.21428-6.5426,14.64974-6.5426,14.64974L446.3423,137.3808s.14223-4.40914-2.70238-6.25814-17.06765.71116-21.619-.28446-15.64535-8.10714-15.07643-12.08959,4.26691-6.25814,3.84022-9.10275-1.70676-9.95614,4.55138-12.80075S423.301,95.565,423.301,95.565Z" transform="translate(-264.79564 -95.13577)"/><path class="cls-28" d="M264.82736,236.31783l2.01561,11.17746a1.99877,1.99877,0,0,0,1.07318,1.43306l30.1832,14.34158c.98464.49233,1.33847.33823,1.6712-.71115l.3959-1.45786-30.18563-14.90073a1.5742,1.5742,0,0,1-.82835-1.10645l-2.22979-11.71137-1.733,1.38972A1.99764,1.99764,0,0,0,264.82736,236.31783Z" transform="translate(-264.79564 -95.13577)"/><path class="cls-23" d="M267.31737,233.35892l28.88971,13.86977a1.60076,1.60076,0,0,1,.862,1.06217l3.08465,12.59039a.42222.42222,0,0,1-.60269.47621l-29.625-15.18538a1.49339,1.49339,0,0,1-.77867-1.01441l-2.43882-11.31862A.43173.43173,0,0,1,267.31737,233.35892Z" transform="translate(-264.79564 -95.13577)"/><path class="cls-24" d="M268.58257,236.07168l1.91326,8.04889a1.79886,1.79886,0,0,0,.91392,1.18223c4.39626,2.31223,26.58592,14.18651,27.041,13.85584s-1.68308-7.77874-2.203-10.00295a1.23521,1.23521,0,0,0-.68122-.83809l-26.54486-12.60135A.31325.31325,0,0,0,268.58257,236.07168Z" transform="translate(-264.79564 -95.13577)"/><path class="cls-29" d="M303.05566,247.64633" transform="translate(-264.79564 -95.13577)"/><polygon class="cls-30" points="392.322 316.668 422.062 333.838 392.322 351.009 362.583 333.838 392.322 316.668"/><polygon class="cls-31" points="422.062 333.838 422.062 408.256 392.322 425.427 392.322 351.009 422.062 333.838"/><polygon class="cls-32" points="362.583 333.838 362.583 408.256 392.322 425.427 392.322 351.009 362.583 333.838"/><polygon class="cls-10" points="409.682 326.831 380.045 344.06 380.045 357.494 376.429 355.264 376.429 342.163 405.704 324.502 409.682 326.831"/><polygon class="cls-10" points="376.081 326.075 405.719 343.304 405.719 417.692 409.335 415.605 409.335 341.406 380.06 323.745 376.081 326.075"/><polygon class="cls-33" points="376.429 344.604 406.169 361.774 376.429 378.944 346.689 361.774 376.429 344.604"/><polygon class="cls-34" points="406.169 361.774 406.169 436.192 376.429 453.362 376.429 378.944 406.169 361.774"/><polygon class="cls-35" points="346.689 361.774 346.689 436.192 376.429 453.362 376.429 378.944 346.689 361.774"/><polygon class="cls-10" points="393.789 354.767 364.151 371.996 364.151 385.43 360.535 383.199 360.535 370.098 389.81 352.437 393.789 354.767"/><polygon class="cls-10" points="360.188 354.01 389.825 371.24 389.825 445.628 393.441 443.54 393.441 369.342 364.166 351.681 360.188 354.01"/></svg>