<svg id="Слой_1" data-name="Слой 1" xmlns="http://www.w3.org/2000/svg" xmlns:xlink="http://www.w3.org/1999/xlink" viewBox="0 0 629.13018 982"><defs><style>.cls-1{fill:url(#Безымянный_градиент_81);}.cls-2{fill:url(#Безымянный_градиент_33);}.cls-3{fill:url(#Безымянный_градиент_77);}.cls-4{fill:url(#Безымянный_градиент_22);}.cls-5{fill:url(#Безымянный_градиент_22-2);}.cls-6{fill:#f2f2f2;}.cls-13,.cls-7{fill:#4e5065;}.cls-7{opacity:0.31;}.cls-8{fill:url(#Безымянный_градиент_81-2);}.cls-9{fill:url(#Безымянный_градиент_34);}.cls-10{fill:url(#Безымянный_градиент_81-3);}.cls-11{fill:#a16565;}.cls-12{fill:#cc8989;}.cls-14{fill:#575d7b;}.cls-15{fill:#fcb2b2;}.cls-16{fill:#fff;}.cls-17{fill:#cacad2;}.cls-18{fill:#d6d6dc;}.cls-19{fill:#b53010;}.cls-20{fill:#e64415;}.cls-21{fill:#e6e7e8;}.cls-22{fill:#f6cf7f;}</style><linearGradient id="Безымянный_градиент_81" x1="-5211.41845" y1="1893.84782" x2="-4753.00625" y2="1893.84782" gradientTransform="translate(5624.04983 -133.92327) rotate(10.74042)" gradientUnits="userSpaceOnUse"><stop offset="0" stop-color="#b5b5c1" stop-opacity="0.3"/><stop offset="0.99512" stop-color="#fdfdfd" stop-opacity="0"/></linearGradient><linearGradient id="Безымянный_градиент_33" x1="-5499.05637" y1="435.86959" x2="-5223.74429" y2="435.86959" gradientTransform="translate(5684.50322)" gradientUnits="userSpaceOnUse"><stop offset="0.57561" stop-color="#fbfbfd"/><stop offset="1" stop-color="#f3f3f5"/></linearGradient><linearGradient id="Безымянный_градиент_77" x1="-5499.06831" y1="540.87989" x2="-5223.75646" y2="540.87989" gradientTransform="translate(5684.50322)" gradientUnits="userSpaceOnUse"><stop offset="0" stop-color="#f77f48"/><stop offset="0.45366" stop-color="#ff9c88"/><stop offset="1" stop-color="#f77f48"/></linearGradient><linearGradient id="Безымянный_градиент_22" x1="-5499.05636" y1="502.26874" x2="-5223.74428" y2="502.26874" gradientTransform="translate(5684.50322)" gradientUnits="userSpaceOnUse"><stop offset="0" stop-color="#fdfdfd"/><stop offset="0.43171" stop-color="#fbfafb"/><stop offset="0.56585" stop-color="#f0eff4"/></linearGradient><linearGradient id="Безымянный_градиент_22-2" x1="-5499.06823" y1="680.20365" x2="-5223.75615" y2="680.20365" xlink:href="#Безымянный_градиент_22"/><linearGradient id="Безымянный_градиент_81-2" x1="-5364.19899" y1="435.39791" x2="-5223.76875" y2="435.39791" gradientTransform="translate(5684.50322)" xlink:href="#Безымянный_градиент_81"/><linearGradient id="Безымянный_градиент_34" x1="-5393.11308" y1="418.18615" x2="-5396.91022" y2="411.98886" gradientTransform="translate(5499.06831 -9)" gradientUnits="userSpaceOnUse"><stop offset="0.00488" stop-color="#fdfdfd" stop-opacity="0"/><stop offset="1" stop-color="#b5b5c1" stop-opacity="0.3"/></linearGradient><linearGradient id="Безымянный_градиент_81-3" x1="-5053.1121" y1="1901.46902" x2="-4770.09423" y2="1901.46902" xlink:href="#Безымянный_градиент_81"/></defs><title>Had_of_the_shop</title><polygon class="cls-1" points="135.371 837.892 545.569 982 629.13 694.637 275.519 673.513 135.371 837.892"/><path class="cls-2" d="M460.75893,435.91921a8.05366,8.05366,0,0,1-3.92614,6.9512l-30.146,18.1163-22.15016,13.32623-65.62258,39.47441a30.93148,30.93148,0,0,1-31.76678.03605l-64.938-38.79008-22.33042-13.32623-30.50628-18.22446a8.01711,8.01711,0,0,1-3.9257-6.41086v-1.00858a7.9734,7.9734,0,0,1,3.9257-6.44691l100.7389-60.58016L308.51594,357.979a30.83565,30.83565,0,0,1,31.98287.0721l18.00836,10.98506,98.39772,59.96772A8.00243,8.00243,0,0,1,460.75893,435.91921Z" transform="translate(-185.43491 -9)"/><path class="cls-3" d="M460.74677,486.35506v26.7604a8.011,8.011,0,0,1-3.92592,6.9512L338.90212,590.9836a30.85,30.85,0,0,1-31.76678.036L189.36061,520.71493a8.0253,8.0253,0,0,1-3.9257-6.44691V487.5074a8.01716,8.01716,0,0,0,3.9257,6.41108l10.769,6.41086L307.13534,564.259a30.931,30.931,0,0,0,31.76678-.03583l107.29375-64.50608,10.625-6.41086A8.05344,8.05344,0,0,0,460.74677,486.35506Z" transform="translate(-185.43491 -9)"/><path class="cls-4" d="M456.8328,442.87038l-30.146,18.1163-22.14994,13.32623-65.6228,39.47441a30.93108,30.93108,0,0,1-31.76656.036l-64.93826-38.79008-22.3302-13.32624-30.5065-18.22445a8.01711,8.01711,0,0,1-3.9257-6.41086v50.42341a8.01711,8.01711,0,0,0,3.9257,6.41087L200.142,500.3171l107.00555,63.92969a30.93106,30.93106,0,0,0,31.76656-.03606l107.294-64.50607,10.62476-6.41087a8.05365,8.05365,0,0,0,3.92614-6.9512V435.91918A8.05366,8.05366,0,0,1,456.8328,442.87038Z" transform="translate(-185.43491 -9)"/><path class="cls-5" d="M456.82093,520.0665,338.90221,590.98345a30.85041,30.85041,0,0,1-31.767.03605L189.36069,520.71478a8.0253,8.0253,0,0,1-3.9257-6.44692v251.901a8.01711,8.01711,0,0,0,3.9257,6.41086l30.50606,18.22446L242.197,804.1304l64.93826,38.79008a30.93183,30.93183,0,0,0,31.767-.03605L404.52457,803.41,426.675,790.08379l30.146-18.1163a8.05365,8.05365,0,0,0,3.92614-6.9512V513.1153A8.01118,8.01118,0,0,1,456.82093,520.0665Z" transform="translate(-185.43491 -9)"/><polygon class="cls-6" points="165.233 378.314 220.849 414.203 132.341 469.474 74.222 429.89 165.233 378.314"/><polygon class="cls-7" points="90.295 424.537 142.373 460.204 139.675 461.57 88.713 425.469 90.295 424.537"/><polygon class="cls-7" points="97.593 420.988 149.272 456.382 146.972 458.021 96.01 421.921 97.593 420.988"/><polygon class="cls-7" points="104.616 416.598 156.357 452.034 153.996 453.632 103.034 417.531 104.616 416.598"/><polygon class="cls-7" points="110.167 414.063 138.627 433.734 136.375 435.115 108.585 414.995 110.167 414.063"/><polygon class="cls-7" points="114.004 411.411 142.482 430.803 140.212 432.463 112.422 412.343 114.004 411.411"/><polygon class="cls-7" points="118.938 408.992 147.535 428.466 145.146 430.044 117.356 409.925 118.938 408.992"/><polygon class="cls-7" points="122.192 406.971 150.653 426.642 148.4 428.023 120.61 407.903 122.192 406.971"/><polygon class="cls-7" points="126.03 404.318 154.508 423.711 152.238 425.37 124.448 405.251 126.03 404.318"/><polygon class="cls-7" points="130.963 401.9 159.561 421.374 157.171 422.952 129.381 402.832 130.963 401.9"/><path class="cls-8" d="M460.73447,435.86132a8.0532,8.0532,0,0,1-3.9257,6.9512l-30.146,18.11652-33.58188,20.20372L320.30424,417.6703l58.72845-28.00725,80.65738,42.20047A7.80351,7.80351,0,0,1,460.73447,435.86132Z" transform="translate(-185.43491 -9)"/><polygon class="cls-9" points="131.879 393.61 85.29 421.937 75.512 417.387 123.519 389.869 131.879 393.61"/><polygon class="cls-10" points="292.193 860.598 506.239 920.96 599.691 758.148 425.645 740.058 341.254 768.048 292.193 860.598"/><path class="cls-11" d="M704.97267,408.30207s2.3923,2.92118,2.76013,5.00552,5.27215-2.50276,5.27215-2.50276-4.538-8.77719-7.41852-9.145S704.97267,408.30207,704.97267,408.30207Z" transform="translate(-185.43491 -9)"/><path class="cls-12" d="M783.68855,445.98266s19.31079,42.11591,17.65558,48.0011-129.47422,88.27787-129.47422,88.27787-5.70128,5.51737-11.21865,4.23S631.961,522.67407,631.961,522.67407Z" transform="translate(-185.43491 -9)"/><path class="cls-13" d="M530.31879,807.2476v10.17648l-33.472,45.85545s-21.33382,15.66115-36.90505-3.8172,30.77464-56.99644,30.77464-56.99644Z" transform="translate(-185.43491 -9)"/><path class="cls-13" d="M610.50453,743.73658s1.10347,4.78172-2.207,6.62084-80.18574,30.40682-80.18574,30.40682L523.698,769.23907Z" transform="translate(-185.43491 -9)"/><path class="cls-14" d="M530.31879,774.98232V807.2476l-29.67117,40.4607s-12.506,19.12687-30.40683,8.58257-4.41389-28.93553-4.41389-28.93553,23.29555-31.14247,24.52163-39.725,1.71651-16.42949,1.71651-16.42949Z" transform="translate(-185.43491 -9)"/><path class="cls-14" d="M598.1536,703.67384l9.89876,22.775s4.61021,10.81362,2.45217,17.28775c-.73565,2.20694-78.388,29.98086-78.388,29.98086l6.10361-36.71241,20.29852-10.80142s3.76383-.94932,2.00452-7.64724S598.1536,703.67384,598.1536,703.67384Z" transform="translate(-185.43491 -9)"/><path class="cls-15" d="M701.725,377.75122s6.1304,26.48336,2.94259,31.14248-18.51383,18.39122-28.69031,17.65557-12.12246-4.27326-12.12246-4.27326l-5.2879-9.33625s-9.073-5.76258-5.76258-9.56343,14.40168-11.86191,14.61863-17.64S701.725,377.75122,701.725,377.75122Z" transform="translate(-185.43491 -9)"/><path class="cls-16" d="M701.19979,363.67255l.52521,14.07867s-12.0156,11.40256-23.41816,9.93126-13.33357-2.82-13.33357-2.82l-2.60549-12.0156Z" transform="translate(-185.43491 -9)"/><path class="cls-15" d="M351.61791,368.18779s-6.19222,13.05777-13.54871,19.67861-21.33382,21.51773-18.943,28.13857,17.10383,5.51737,26.11553,0,18.943-16.00037,20.41426-14.713.55174,15.26471,7.90823,13.6095,8.46-8.46,7.35649-15.0808-3.12651-12.87386-2.023-20.04643-15.63254-16.5521-15.63254-16.5521Z" transform="translate(-185.43491 -9)"/><path class="cls-16" d="M354.914,353.80732l-3.29613,14.38047s20.47505-1.28739,27.2798,11.58647l11.40256-9.37953V342.44007l-31.449,4.78172Z" transform="translate(-185.43491 -9)"/><path class="cls-17" d="M462.8843,411.71368s24.52163,111.32821,35.31115,147.62023,58.36149,158.90017,60.32322,158.90017,12.75124,4.41389,31.38768-7.84692S601.67674,689.789,601.67674,689.789L552.143,550.01569,532.8984,402.16447Z" transform="translate(-185.43491 -9)"/><path class="cls-18" d="M590.319,442.85469s-46.38668,149.82864-46.94045,164.05118-6.439,162.3332-6.439,162.3332-12.07547,15.20342-32.27588,9.80866-16.24623-9.31822-16.24623-9.31822.95014-176.06532,8.30663-216.77123,16.84526-118.6847,16.84526-118.6847l-50.68511-22.5599v-14.713L480.936,344.52441l77.58268,6.86606,39.23461,54.438Z" transform="translate(-185.43491 -9)"/><path class="cls-16" d="M475.21789,363.67255c-.07277.224,53.6296,14.07867,53.6296,14.07867l14.53109-238.20285-42.11647-15.16553-28.15266,13.179L459.34687,215.0502Z" transform="translate(-185.43491 -9)"/><path class="cls-19" d="M494.46918,148.13618s-4.48847,6.71341-2.03631,8.92036,9.686,6.62084,12.87386,4.65911a19.79219,19.79219,0,0,0,5.51736-5.8852l-2.20694-11.55958Z" transform="translate(-185.43491 -9)"/><path class="cls-19" d="M504.66375,162.01085s-10.51146,149.532-3.40164,171.23361c.46673,6.62084-14.37241,13.97733-14.37241,13.97733s-12.06928-17.65557-11.66171-22.06947,8.72765-132.25585,21.30362-165.25662Z" transform="translate(-185.43491 -9)"/><path class="cls-15" d="M460.39759,55.1397s-2.36411,42.51318,0,53.91574,14.42283,29.79378,14.8304,29.9777,17.544,5.4327,17.544,5.4327,3.27786,11.30331,12.8413,8.36071S537.8198,135.171,537.9008,130.02144s0-19.86252,0-19.86252l9.36864-3.86216,13.51748-11.77038L568.14341,74.296,534.48747,34.01925,465.15255,48.54832Z" transform="translate(-185.43491 -9)"/><path class="cls-20" d="M459.83449,121.80858s-20.24574,1.89854-28.33788,27.401S400.59936,253.79437,395.44981,262.99s-45.61023,86.07092-43.77111,89.74917,2.9426.73565,7.72432-2.207,22.43729,0,27.219,7.72432,1.47129,12.1382,1.47129,14.713,6.43707-1.10347,12.04632-12.1382,49.01255-85.33528,49.7482-99.68044c0,0-1.10348,32.36856-2.9426,57.38062s-4.78172,71.72577-1.10347,76.87532,21.25434,19.12687,29.38622,11.40256,5.18928-67.31188,5.18928-67.31188-8.73044-134.62376-7.30782-153.38281,7.30782-47.6652,7.30782-47.6652Z" transform="translate(-185.43491 -9)"/><path class="cls-21" d="M480.41727,146.201s4.16868,14.2886,5.51737,13.67556,7.42749-15.60565,7.42749-15.60565Z" transform="translate(-185.43491 -9)"/><path class="cls-11" d="M490.90763,116.78694c.9122,5.88519,10.09308,9.91689,17.83212,6.23865s20.03907-16.18428,20.42163-24.8357c.35309-8.622,4.41389-22.06947.5591-25.71826-3.88425-3.7077-7.91559-5.88519-7.35649-10.29908.50019-4.14916,7.47413-11.35838,8.35687-12.2413-1.85367,1.1182-30.60289,19.09742-46.61062,15.71372-16.56683-3.47242-26.68936-11.21146-25.95372-14.53661.73565-3.29569,5.70865-9.00416,5.35555-10.65218-.38255-1.648-5.70864-2.9426-4.53153-6.62084,1.20638-3.67825,7.09157-16.00755,22.18711-16.56683,4.20789,0,7.533-8.26851,14.15387-8.26851s17.273,8.09214,22.51093,7.73868c5.23773-.38219,5.62028-8.82779,11.888-6.62084,6.23828,2.207,20.03907,10.47582,23.71731,22.2462,0,2.94259,20.42162,4.23716,21.33382,17.8323.9122,13.62388-3.85479,17.8614-3.67824,19.12687.17654,1.29457.52964,17.47885-8.82779,26.48337-9.38689,9.03361-26.48336,18.03776-27.77811,21.33382-1.29475,3.32478-35.87025,31.45617-53.52583,28.89613-17.65557-2.5895-23.54076-21.71637-20.59817-34.2224S487.58248,98.18989,490.90763,116.78694Zm62.236-16.00755c7.00322-7.26812,11.97621-14.44824,7.09158-20.12761-4.88463-5.70847-7.533-3.88407-7.533-3.88407-5.06136,0-14.80134,7.00339-14.80134,18.59705C537.9008,106.92932,546.16949,108.04752,553.1436,100.77939Zm-84.07,20.27453c2.08913-1.648,1.324-3.50188,4.59044-2.97205,3.26624.50037,2.207,6.59138,4.82572,6.091,2.619-.5,6.23847-2.707,5.41446-6.12047-.82384-3.384-3.7077-5.73827-8.916-6.14992-4.76717-.38291-8.23942.73565-8.50415,4.41389C466.21921,119.99463,466.95486,122.70159,469.07362,121.05392Z" transform="translate(-185.43491 -9)"/><path class="cls-21" d="M537.9008,127.508s6.39532,7.4791,6.27271,10.05387S534.11964,166.62,509.4754,170.91126c-2.82,0-3.18781-17.41036-1.5939-19.86252S537.9008,127.508,537.9008,127.508Z" transform="translate(-185.43491 -9)"/><path class="cls-20" d="M544.17351,137.56184s46.71371,24.52163,48.185,27.46423,69.70287,68.733,72.61475,79.97674,37.73259,111.78242,37.73259,115.21545-14.22255,22.5599-30.89725,17.65557-13.24169-9.31822-13.24169-9.31822-25.6251-92.20133-35.12723-98.577-35.00463-25.99293-35.00463-25.99293-1.4713,47.572,0,52.96673,35.31115,107.40474,32.859,114.2708-14.72354,40.21548-59.10241,32.859S513.74514,329.321,513.74514,329.321s-2.55421-97.8334,11.81289-139.7733S544.17351,137.56184,544.17351,137.56184Z" transform="translate(-185.43491 -9)"/><path class="cls-11" d="M671.80861,402.16447s1.5939,4.27706.98086,5.74836-11.893,10.78952-8.82779,21.70164,3.06521,9.44083,3.06521,9.44083l-5.64,5.27215s-6.49823-23.17294-2.94259-29.30335S671.80861,402.16447,671.80861,402.16447Z" transform="translate(-185.43491 -9)"/><path class="cls-11" d="M616.495,477.06383s-3.51167,4.59781,0,18.57514,21.53508,89.93308,23.742,90.85264,20.41426,0,20.41426,0l-24.0925-53.70237s6.80475,8.09214,16.5521.36782,42.1159-28.13857,42.1159-28.13857l88.46179-59.03583s1.28739-5.88519,0-8.276S616.495,477.06383,616.495,477.06383Z" transform="translate(-185.43491 -9)"/><path class="cls-12" d="M757.02128,386.08858c-12.50172-1.786-138.302,86.31614-138.302,86.31614s-3.92346,1.59391-1.34869,7.96953,23.66338,51.37282,29.18074,49.77891S784.60811,440.404,784.60811,440.404s2.02317-2.69738-1.931-12.26081S764.74559,387.19205,757.02128,386.08858Z" transform="translate(-185.43491 -9)"/><path class="cls-22" d="M755.41111,451.3476c-3.31042-1.65521-10.85082,2.20694-9.93126,6.0691s6.98867,14.89689,9.93126,14.34516,8.82779-4.04607,7.35649-7.35649S755.41111,451.3476,755.41111,451.3476Z" transform="translate(-185.43491 -9)"/><path class="cls-22" d="M673.01843,504.86606c-3.31042-1.65521-10.85082,2.207-9.93126,6.0691s6.98867,14.89689,9.93126,14.34516,8.82779-4.04607,7.35649-7.35649S673.01843,504.86606,673.01843,504.86606Z" transform="translate(-185.43491 -9)"/><path class="cls-13" d="M305.4057,397.74532l-35.963,21.19444s-6.90769,4.124-8.49534,7.57268l.00743.02369a56.23345,56.23345,0,0,0,13.67927-5.96215l34.32013-21.70475a2.91693,2.91693,0,0,0-1.53641-1.207A2.35874,2.35874,0,0,0,305.4057,397.74532Z" transform="translate(-185.43491 -9)"/></svg>