<svg id="Слой_1" data-name="Слой 1" xmlns="http://www.w3.org/2000/svg" xmlns:xlink="http://www.w3.org/1999/xlink" viewBox="0 0 953.17865 936.13409"><defs><style>.cls-1{fill:url(#Безымянный_градиент_81);}.cls-2{fill:url(#Безымянный_градиент_81-2);}.cls-3{fill:url(#Безымянный_градиент_81-3);}.cls-4{fill:url(#Безымянный_градиент_81-4);}.cls-5{fill:url(#Безымянный_градиент_33);}.cls-6{fill:url(#Безымянный_градиент_77);}.cls-7{fill:url(#Безымянный_градиент_22);}.cls-8{fill:url(#Безымянный_градиент_22-2);}.cls-9{fill:url(#Безымянный_градиент_33-2);}.cls-10{fill:url(#Безымянный_градиент_33-3);}.cls-11{fill:url(#Безымянный_градиент_77-2);}.cls-12{fill:url(#Безымянный_градиент_22-3);}.cls-13{fill:url(#Безымянный_градиент_22-4);}.cls-14{fill:url(#Безымянный_градиент_33-4);}.cls-15{fill:url(#Безымянный_градиент_33-5);}.cls-16{fill:url(#Безымянный_градиент_77-3);}.cls-17{fill:url(#Безымянный_градиент_22-5);}.cls-18{fill:url(#Безымянный_градиент_22-6);}.cls-19{fill:url(#Безымянный_градиент_33-6);}.cls-20{fill:url(#Безымянный_градиент_77-4);}.cls-21{fill:url(#Безымянный_градиент_22-7);}.cls-22{fill:url(#Безымянный_градиент_22-8);}.cls-23{fill:url(#Безымянный_градиент_81-5);}.cls-24{fill:url(#Безымянный_градиент_81-6);}.cls-25{fill:#bc3515;}.cls-26{fill:#e64415;}.cls-27{fill:#fe815f;}.cls-28{fill:#285efc;}.cls-29{fill:#ff9c7b;}.cls-30{fill:#001371;}.cls-31{fill:#ffe5d6;}.cls-32{fill:url(#Безымянный_градиент_81-7);}.cls-33{fill:url(#Безымянный_градиент_84);}.cls-34{fill:#1b2b3b;}.cls-35{fill:#050e2b;}.cls-36{fill:#d5f4ff;}.cls-37{fill:#fba880;}.cls-38{fill:#f3fdfc;}.cls-39{fill:#564334;}.cls-40{fill:#0c368a;}.cls-41{fill:#2852b6;}.cls-42{fill:#fdf8fe;}.cls-43{fill:#b98367;}.cls-44{fill:#fea984;}.cls-45{fill:#723c22;}.cls-46{fill:url(#Безымянный_градиент_81-8);}.cls-47{fill:#292941;}.cls-48{fill:#111423;}.cls-49{fill:#f9c4b7;}.cls-50{fill:#d7e3f4;}.cls-51{fill:#f4b1a4;}.cls-52{fill:#fdaa82;}.cls-53{fill:#492412;}.cls-54{fill:#18388f;}.cls-55{fill:url(#Безымянный_градиент_85);}.cls-56{fill:url(#Безымянный_градиент_96);}.cls-57{fill:#c1ecf5;}.cls-58{fill:#7a3a1e;}.cls-59{fill:url(#Безымянный_градиент_13);}.cls-60{fill:#331d9b;}.cls-60,.cls-62{opacity:0.8;}.cls-61{fill:#ffce00;}.cls-62{fill:#f41952;}.cls-63{fill:url(#Безымянный_градиент_96-2);}.cls-64{fill:url(#Безымянный_градиент_31);}.cls-65{fill:url(#Безымянный_градиент_86);}.cls-66{fill:#828282;}.cls-67{fill:url(#Безымянный_градиент_10);}.cls-68{fill:url(#Безымянный_градиент_10-2);}.cls-69{fill:url(#Безымянный_градиент_96-3);}.cls-70{fill:url(#Безымянный_градиент_77-5);}.cls-71{fill:url(#Безымянный_градиент_86-2);}.cls-72{fill:url(#Безымянный_градиент_96-4);}.cls-73{fill:url(#Безымянный_градиент_77-6);}.cls-74{fill:url(#Безымянный_градиент_86-3);}.cls-75{fill:url(#Безымянный_градиент_86-4);}.cls-76{fill:url(#Безымянный_градиент_77-7);}.cls-77{fill:url(#Безымянный_градиент_86-5);}.cls-78{fill:url(#Безымянный_градиент_96-5);}.cls-79{fill:#474747;}.cls-80{fill:url(#Безымянный_градиент_60);}.cls-81{fill:url(#Безымянный_градиент_96-6);}.cls-82{fill:url(#Безымянный_градиент_86-6);}.cls-83{fill:url(#Безымянный_градиент_96-7);}.cls-84{fill:url(#Безымянный_градиент_159);}.cls-85{fill:url(#Безымянный_градиент_86-7);}.cls-86{fill:url(#Безымянный_градиент_49);}</style><linearGradient id="Безымянный_градиент_81" x1="-4871.51289" y1="1889.31663" x2="-4578.74343" y2="1889.31663" gradientTransform="translate(5786.07406 -156.85623) rotate(10.74042)" gradientUnits="userSpaceOnUse"><stop offset="0" stop-color="#b5b5c1" stop-opacity="0.3"/><stop offset="0.99512" stop-color="#fdfdfd" stop-opacity="0"/></linearGradient><linearGradient id="Безымянный_градиент_81-2" x1="-5043.75812" y1="1732.11875" x2="-4750.98865" y2="1732.11875" xlink:href="#Безымянный_градиент_81"/><linearGradient id="Безымянный_градиент_81-3" x1="-5222.08464" y1="1766.72461" x2="-4929.31517" y2="1766.72461" xlink:href="#Безымянный_градиент_81"/><linearGradient id="Безымянный_градиент_81-4" x1="-5432.5454" y1="1888.34001" x2="-5139.77593" y2="1888.34001" xlink:href="#Безымянный_градиент_81"/><linearGradient id="Безымянный_градиент_33" x1="-5431.29052" y1="427.75071" x2="-5255.45976" y2="427.75071" gradientTransform="translate(5684.50322)" gradientUnits="userSpaceOnUse"><stop offset="0.57561" stop-color="#fbfbfd"/><stop offset="1" stop-color="#f3f3f5"/></linearGradient><linearGradient id="Безымянный_градиент_77" x1="-5431.29815" y1="494.81657" x2="-5255.46753" y2="494.81657" gradientTransform="translate(5684.50322)" gradientUnits="userSpaceOnUse"><stop offset="0" stop-color="#f77f48"/><stop offset="0.45366" stop-color="#ff9c88"/><stop offset="1" stop-color="#f77f48"/></linearGradient><linearGradient id="Безымянный_градиент_22" x1="-5431.29052" y1="470.15718" x2="-5255.45975" y2="470.15718" gradientTransform="translate(5684.50322)" gradientUnits="userSpaceOnUse"><stop offset="0" stop-color="#fdfdfd"/><stop offset="0.43171" stop-color="#fbfafb"/><stop offset="0.56585" stop-color="#f0eff4"/></linearGradient><linearGradient id="Безымянный_градиент_22-2" x1="-5431.2981" y1="583.79707" x2="-5255.46733" y2="583.79707" xlink:href="#Безымянный_градиент_22"/><linearGradient id="Безымянный_градиент_33-2" x1="-5246.5408" y1="333.69922" x2="-5070.71003" y2="333.69922" xlink:href="#Безымянный_градиент_33"/><linearGradient id="Безымянный_градиент_33-3" x1="-5153.22989" y1="355.97697" x2="-5071.29494" y2="355.97697" xlink:href="#Безымянный_градиент_33"/><linearGradient id="Безымянный_градиент_77-2" x1="-5246.5408" y1="400.75714" x2="-5070.71003" y2="400.75714" xlink:href="#Безымянный_градиент_77"/><linearGradient id="Безымянный_градиент_22-3" x1="-5246.5406" y1="376.10561" x2="-5070.71012" y2="376.10561" xlink:href="#Безымянный_градиент_22"/><linearGradient id="Безымянный_градиент_22-4" x1="-5246.53218" y1="536.76279" x2="-5070.70169" y2="536.76279" xlink:href="#Безымянный_градиент_22"/><linearGradient id="Безымянный_градиент_33-4" x1="-5109.16058" y1="675.19866" x2="-4933.32981" y2="675.19866" xlink:href="#Безымянный_градиент_33"/><linearGradient id="Безымянный_градиент_33-5" x1="-5022.55291" y1="687.75265" x2="-4933.32637" y2="687.75265" xlink:href="#Безымянный_градиент_33"/><linearGradient id="Безымянный_градиент_77-3" x1="-5109.15196" y1="742.24703" x2="-4933.32147" y2="742.24703" xlink:href="#Безымянный_градиент_77"/><linearGradient id="Безымянный_градиент_22-5" x1="-5109.15196" y1="717.59592" x2="-4933.32147" y2="717.59592" xlink:href="#Безымянный_градиент_22"/><linearGradient id="Безымянный_градиент_22-6" x1="-5109.15196" y1="800.47369" x2="-4933.32147" y2="800.47369" xlink:href="#Безымянный_градиент_22"/><linearGradient id="Безымянный_градиент_33-6" x1="-5661.09255" y1="665.40831" x2="-5485.26192" y2="665.40831" xlink:href="#Безымянный_градиент_33"/><linearGradient id="Безымянный_градиент_77-4" x1="-5661.09255" y1="732.4659" x2="-5485.26192" y2="732.4659" xlink:href="#Безымянный_градиент_77"/><linearGradient id="Безымянный_градиент_22-7" x1="-5661.09249" y1="707.81471" x2="-5485.26201" y2="707.81471" xlink:href="#Безымянный_градиент_22"/><linearGradient id="Безымянный_градиент_22-8" x1="-5661.09248" y1="742.6518" x2="-5485.26199" y2="742.6518" xlink:href="#Безымянный_градиент_22"/><linearGradient id="Безымянный_градиент_81-5" x1="-5362.82793" y1="447.35417" x2="-5255.45258" y2="447.35417" gradientTransform="translate(5684.50322)" xlink:href="#Безымянный_градиент_81"/><linearGradient id="Безымянный_градиент_81-6" x1="-5362.64387" y1="447.35417" x2="-5255.45258" y2="447.35417" gradientTransform="translate(5684.50322)" xlink:href="#Безымянный_градиент_81"/><linearGradient id="Безымянный_градиент_81-7" x1="-5213.05896" y1="343.79722" x2="-5070.71988" y2="343.79722" gradientTransform="translate(5684.50322)" xlink:href="#Безымянный_градиент_81"/><linearGradient id="Безымянный_градиент_84" x1="-5153.22989" y1="349.57467" x2="-5071.29494" y2="349.57467" gradientTransform="translate(5684.50322)" gradientUnits="userSpaceOnUse"><stop offset="0" stop-color="#b5b5c1" stop-opacity="0.7"/><stop offset="0.99512" stop-color="#fdfdfd" stop-opacity="0"/></linearGradient><linearGradient id="Безымянный_градиент_81-8" x1="-5022.55291" y1="687.75265" x2="-4933.32637" y2="687.75265" gradientTransform="translate(5684.50322)" xlink:href="#Безымянный_градиент_81"/><linearGradient id="Безымянный_градиент_85" x1="7791.5753" y1="1144.98968" x2="7877.18275" y2="1144.98968" gradientTransform="matrix(-0.99738, -0.0724, -0.0724, 0.99738, 8050.70164, 94.85401)" gradientUnits="userSpaceOnUse"><stop offset="0" stop-color="#f77f48"/><stop offset="0.42439" stop-color="#ff9c88"/></linearGradient><linearGradient id="Безымянный_градиент_96" x1="7790.81579" y1="1136.9843" x2="7850.64762" y2="1136.9843" gradientTransform="matrix(-0.99738, -0.0724, -0.0724, 0.99738, 8050.70164, 94.85401)" gradientUnits="userSpaceOnUse"><stop offset="0" stop-color="#ef6452"/><stop offset="0.3561" stop-color="#f77f48"/></linearGradient><linearGradient id="Безымянный_градиент_13" x1="391.38677" y1="186.53806" x2="469.9916" y2="107.93323" gradientUnits="userSpaceOnUse"><stop offset="0" stop-color="#f77f48" stop-opacity="0.5"/><stop offset="1" stop-color="#ff9c88" stop-opacity="0.2"/></linearGradient><linearGradient id="Безымянный_градиент_96-2" x1="728.30628" y1="475.96506" x2="796.00488" y2="475.96506" gradientTransform="translate(-63.72088 102.29528) rotate(-8.31817)" xlink:href="#Безымянный_градиент_96"/><linearGradient id="Безымянный_градиент_31" x1="1543.07005" y1="480.90707" x2="1609.63956" y2="480.90707" gradientTransform="matrix(-0.99968, 0.02513, 0.02513, 0.99968, 2323.04333, -57.91333)" gradientUnits="userSpaceOnUse"><stop offset="0.6439" stop-color="#f77f48"/><stop offset="1" stop-color="#ef6452"/></linearGradient><linearGradient id="Безымянный_градиент_86" x1="1542.47944" y1="474.68198" x2="1589.00548" y2="474.68198" gradientTransform="matrix(-0.99968, 0.02513, 0.02513, 0.99968, 2323.04333, -57.91333)" gradientUnits="userSpaceOnUse"><stop offset="0.57561" stop-color="#ff9c88"/><stop offset="1" stop-color="#f77f48"/></linearGradient><linearGradient id="Безымянный_градиент_10" x1="711.40307" y1="511.64859" x2="717.97252" y2="509.92114" gradientUnits="userSpaceOnUse"><stop offset="0.00732" stop-color="#f0eff4"/><stop offset="0.6439" stop-color="#d2cfda"/><stop offset="1" stop-color="#b5b5c1"/></linearGradient><linearGradient id="Безымянный_градиент_10-2" x1="733.96848" y1="526.73636" x2="745.3153" y2="523.75268" xlink:href="#Безымянный_градиент_10"/><linearGradient id="Безымянный_градиент_96-3" x1="748.51255" y1="530.11191" x2="756.23915" y2="528.08018" gradientTransform="matrix(1, 0, 0, 1, 0, 0)" xlink:href="#Безымянный_градиент_96"/><linearGradient id="Безымянный_градиент_77-5" x1="727.99922" y1="497.00043" x2="733.67558" y2="497.00043" gradientTransform="matrix(1, 0, 0, 1, 0, 0)" xlink:href="#Безымянный_градиент_77"/><linearGradient id="Безымянный_градиент_86-2" x1="731.6652" y1="497.00043" x2="734.7399" y2="497.00043" gradientTransform="matrix(1, 0, 0, 1, 0, 0)" xlink:href="#Безымянный_градиент_86"/><linearGradient id="Безымянный_градиент_96-4" x1="1300.79253" y1="530.11191" x2="1308.51913" y2="528.08018" gradientTransform="matrix(-1, 0, 0, 1, 2030.58402, 0)" xlink:href="#Безымянный_градиент_96"/><linearGradient id="Безымянный_градиент_77-6" x1="1303.68988" y1="528.93338" x2="1309.36623" y2="528.93338" gradientTransform="matrix(-1, 0, 0, 1, 2007.17334, -31.93295)" xlink:href="#Безымянный_градиент_77"/><linearGradient id="Безымянный_градиент_86-3" x1="1307.35586" y1="528.93338" x2="1310.43055" y2="528.93338" gradientTransform="matrix(-1, 0, 0, 1, 2007.17334, -31.93295)" xlink:href="#Безымянный_градиент_86"/><linearGradient id="Безымянный_градиент_86-4" x1="725.38683" y1="519.86058" x2="749.60821" y2="513.4915" gradientTransform="matrix(1, 0, 0, 1, 0, 0)" xlink:href="#Безымянный_градиент_86"/><linearGradient id="Безымянный_градиент_77-7" x1="726.81651" y1="520.3412" x2="748.32313" y2="514.68598" gradientTransform="matrix(1, 0, 0, 1, 0, 0)" xlink:href="#Безымянный_градиент_77"/><linearGradient id="Безымянный_градиент_86-5" x1="1448.69806" y1="519.84094" x2="1467.09869" y2="519.84094" gradientTransform="translate(-684.35495)" xlink:href="#Безымянный_градиент_86"/><linearGradient id="Безымянный_градиент_96-5" x1="1452.4147" y1="517.97232" x2="1475.85382" y2="517.97232" gradientTransform="translate(-684.35495)" xlink:href="#Безымянный_градиент_96"/><linearGradient id="Безымянный_градиент_60" x1="594.78909" y1="658.2828" x2="594.78909" y2="390.62616" gradientTransform="matrix(-1, 0, 0, 1, 1354.09719, 0)" gradientUnits="userSpaceOnUse"><stop offset="0" stop-color="#d2cfda" stop-opacity="0.5"/><stop offset="1" stop-color="#f0eff4" stop-opacity="0.4"/></linearGradient><linearGradient id="Безымянный_градиент_96-6" x1="574.97997" y1="596.88924" x2="596.93068" y2="596.88924" gradientTransform="matrix(-1, 0, 0, 1, 1324.06067, -31.93295)" xlink:href="#Безымянный_градиент_96"/><linearGradient id="Безымянный_градиент_86-6" x1="574.97997" y1="596.26966" x2="596.93068" y2="596.26966" gradientTransform="matrix(-1, 0, 0, 1, 1324.06067, -31.93295)" xlink:href="#Безымянный_градиент_86"/><linearGradient id="Безымянный_градиент_96-7" x1="584.58798" y1="594.20038" x2="586.77406" y2="594.20038" gradientTransform="matrix(-1, 0, 0, 1, 1347.47134, 0)" xlink:href="#Безымянный_градиент_96"/><linearGradient id="Безымянный_градиент_159" x1="551.30235" y1="584.32581" x2="612.69722" y2="584.32581" gradientTransform="matrix(-1, 0, 0, 1, 1347.47134, 0)" gradientUnits="userSpaceOnUse"><stop offset="0" stop-color="#4d4d4d"/><stop offset="0.3561" stop-color="#1a1a1a"/><stop offset="0.99268" stop-color="#4d4d4d"/></linearGradient><linearGradient id="Безымянный_градиент_86-7" x1="551.30235" y1="584.5052" x2="612.69722" y2="584.5052" gradientTransform="matrix(-1, 0, 0, 1, 1347.47134, 0)" xlink:href="#Безымянный_градиент_86"/><linearGradient id="Безымянный_градиент_49" x1="591.99105" y1="638.41253" x2="591.99105" y2="534.66892" gradientTransform="matrix(-1, 0, 0, 1, 1354.09719, 0)" gradientUnits="userSpaceOnUse"><stop offset="0" stop-color="#fff" stop-opacity="0.5"/><stop offset="1" stop-color="#fff" stop-opacity="0.4"/></linearGradient></defs><title>Opportunities</title><polygon class="cls-1" points="637.835 844.098 899.811 936.134 953.179 752.607 660.023 739.116 637.835 844.098"/><polygon class="cls-2" points="497.902 657.555 759.879 749.591 813.246 566.064 520.091 552.572 497.902 657.555"/><polygon class="cls-3" points="316.251 658.321 578.227 750.357 631.595 566.83 338.439 553.339 316.251 658.321"/><polygon class="cls-4" points="86.813 738.585 348.789 830.621 402.157 647.094 109.001 633.602 86.813 738.585"/><path class="cls-5" d="M429.04346,427.7824a5.14353,5.14353,0,0,1-2.50746,4.43945L407.283,443.792l-14.14641,8.51093L351.226,477.51365a19.75468,19.75468,0,0,1-20.28816.023L289.46456,452.763,275.203,444.25208l-19.48314-11.63923a5.12019,5.12019,0,0,1-2.50718-4.09436v-.64413a5.09232,5.09232,0,0,1,2.50718-4.11739l64.33789-38.69011,11.75421-7.06177a19.69353,19.69353,0,0,1,20.42618.046l11.50121,7.01572,62.84268,38.299A5.11084,5.11084,0,0,1,429.04346,427.7824Z" transform="translate(-23.41068 -31.93295)"/><path class="cls-6" d="M429.0357,459.99375v17.09079a5.11631,5.11631,0,0,1-2.50733,4.43946l-75.31,45.2918a19.70265,19.70265,0,0,1-20.28817.023l-75.218-44.9008a5.12541,5.12541,0,0,1-2.50719-4.11738V460.7297a5.12024,5.12024,0,0,0,2.50719,4.09451l6.8777,4.09436,68.34029,40.82932a19.7544,19.7544,0,0,0,20.28817-.02288l68.5242-41.19745,6.78575-4.09436A5.1434,5.1434,0,0,0,429.0357,459.99375Z" transform="translate(-23.41068 -31.93295)"/><path class="cls-7" d="M426.536,432.22183,407.283,443.792l-14.14628,8.51092-41.91065,25.21073a19.75447,19.75447,0,0,1-20.288.023L289.46457,452.763l-14.2614-8.51093-19.48328-11.63922a5.12021,5.12021,0,0,1-2.50719-4.09437v32.20341a5.12021,5.12021,0,0,0,2.50719,4.09437l6.878,4.0945L330.938,509.74007a19.75447,19.75447,0,0,0,20.288-.023L419.7504,468.5196l6.7856-4.09436a5.14352,5.14352,0,0,0,2.50747-4.43945V427.78238A5.14352,5.14352,0,0,1,426.536,432.22183Z" transform="translate(-23.41068 -31.93295)"/><path class="cls-8" d="M426.52842,481.5239l-75.30995,45.2918a19.70292,19.70292,0,0,1-20.28831.023l-75.21785-44.9008a5.12544,5.12544,0,0,1-2.50719-4.11739v160.879a5.12018,5.12018,0,0,0,2.50719,4.09436l19.483,11.63923,14.26139,8.51093,41.47346,24.77367a19.755,19.755,0,0,0,20.28831-.023L393.12884,662.484l14.14655-8.51093,19.253-11.57015a5.14354,5.14354,0,0,0,2.50747-4.43945v-160.879A5.11643,5.11643,0,0,1,426.52842,481.5239Z" transform="translate(-23.41068 -31.93295)"/><path class="cls-9" d="M613.79319,333.7309a5.14355,5.14355,0,0,1-2.50746,4.43946l-19.253,11.57015-14.14642,8.51093-41.91051,25.21072a19.75468,19.75468,0,0,1-20.28816.023l-41.47332-24.77367-14.26154-8.51093-19.48314-11.63923a5.1202,5.1202,0,0,1-2.50718-4.09436v-.64414a5.09228,5.09228,0,0,1,2.50718-4.11738l64.33789-38.69012,11.75421-7.06176a19.69351,19.69351,0,0,1,20.42618.046l11.50121,7.01571,62.84268,38.299A5.11084,5.11084,0,0,1,613.79319,333.7309Z" transform="translate(-23.41068 -31.93295)"/><path class="cls-10" d="M613.20828,336.10291a5.18809,5.18809,0,0,1-1.9324,2.07013l-19.25275,11.57029-14.14684,8.51093-33.21538,19.9661-13.38757-5.6126,24.31373-38.87417Z" transform="translate(-23.41068 -31.93295)"/><path class="cls-11" d="M613.79319,365.93432v17.09079a5.11642,5.11642,0,0,1-2.50746,4.43945l-75.31,45.2918a19.70263,19.70263,0,0,1-20.28816.023l-75.218-44.9008a5.12523,5.12523,0,0,1-2.50718-4.11739V366.67041a5.1202,5.1202,0,0,0,2.50718,4.09436l6.87785,4.0945,68.34015,40.82933a19.75468,19.75468,0,0,0,20.28816-.023l68.52435-41.19744,6.78561-4.09436A5.14354,5.14354,0,0,0,613.79319,365.93432Z" transform="translate(-23.41068 -31.93295)"/><path class="cls-12" d="M440.46953,370.76467l6.878,4.0945,68.34015,40.82933a19.75444,19.75444,0,0,0,20.288-.023L604.5,374.468l6.78561-4.09436a5.14354,5.14354,0,0,0,2.50747-4.43945V333.73081a5.14355,5.14355,0,0,1-2.50747,4.43945l-19.25275,11.57015-14.14655,8.51093-41.91065,25.21072a19.75444,19.75444,0,0,1-20.288.023l-41.47318-24.77367-14.26168-8.51093-19.48327-11.63923a5.11987,5.11987,0,0,1-2.50691-4.09436v32.20341A5.11987,5.11987,0,0,0,440.46953,370.76467Z" transform="translate(-23.41068 -31.93295)"/><path class="cls-13" d="M611.29462,387.45534l-75.30995,45.2918a19.70291,19.70291,0,0,1-20.2883.023l-56.402-33.6756-1.70216-1.01212-14.16958-8.44185-2.9441-1.77123A5.12535,5.12535,0,0,1,437.971,383.752V638.688a5.09258,5.09258,0,0,0,2.50747,4.11738l31.92711,19.069,43.29075,25.85486a19.755,19.755,0,0,0,20.2883-.04605L578.93,661.87437l2.80623-1.67913,25.5099-15.34259,4.04845-2.43825a5.143,5.143,0,0,0,2.50691-4.43945V383.01589A5.11585,5.11585,0,0,1,611.29462,387.45534Z" transform="translate(-23.41068 -31.93295)"/><path class="cls-14" d="M751.17341,675.23034a5.14353,5.14353,0,0,1-2.50746,4.43945L729.41292,691.24l-14.14642,8.51093L673.356,724.9616a19.7547,19.7547,0,0,1-20.28816.023L611.59451,700.211,597.333,691.7,577.84983,680.0608a5.12017,5.12017,0,0,1-2.50718-4.09436v-.64414a5.09227,5.09227,0,0,1,2.50718-4.11739l64.33789-38.69011,11.75421-7.06176a19.69347,19.69347,0,0,1,20.42617.04605l11.50122,7.01571,62.84268,38.299A5.11084,5.11084,0,0,1,751.17341,675.23034Z" transform="translate(-23.41068 -31.93295)"/><path class="cls-15" d="M751.17685,675.2278a5.14294,5.14294,0,0,1-2.50747,4.43946l-19.25274,11.57029-14.14656,8.51079-14.90581,8.971-38.414-13.50242,3.19737-28.431,82.4867,3.35827,1.08105.66716A5.11077,5.11077,0,0,1,751.17685,675.2278Z" transform="translate(-23.41068 -31.93295)"/><path class="cls-16" d="M748.67484,711.864l-6.78588,4.0945-68.52407,41.1973a19.755,19.755,0,0,1-20.28831.023L607.41652,729.898l-22.68008-13.54847-6.87771-4.0945a5.12031,5.12031,0,0,1-2.50747-4.09436v17.0908a5.12535,5.12535,0,0,0,2.50747,4.11738l23.00244,13.73253,52.21541,31.16827a1.8992,1.8992,0,0,0,.299.161,8.514,8.514,0,0,0,.89713.4831,7.809,7.809,0,0,0,.89684.414,18.879,18.879,0,0,0,5.4058,1.56415c.34481.046.66716.092,1.012.115a19.83847,19.83847,0,0,0,11.77752-2.76032l.57506-.345,74.73489-44.94685a5.11585,5.11585,0,0,0,2.50691-4.43945V707.42453A5.143,5.143,0,0,1,748.67484,711.864Z" transform="translate(-23.41068 -31.93295)"/><path class="cls-17" d="M748.67484,679.66057l-19.25331,11.57029-14.14627,8.51079-41.91037,25.21072a19.755,19.755,0,0,1-20.28831.023l-41.47346-24.77367-4.1866-2.50719-10.07479-6.00374-19.483-11.63923a5.12031,5.12031,0,0,1-2.50747-4.09436v32.20341a5.12031,5.12031,0,0,0,2.50747,4.09436l6.87771,4.0945L607.41652,729.898l45.66006,27.28086a19.755,19.755,0,0,0,20.28831-.023l68.52407-41.1973,6.78588-4.0945a5.143,5.143,0,0,0,2.50691-4.43945V675.22112A5.143,5.143,0,0,1,748.67484,679.66057Z" transform="translate(-23.41068 -31.93295)"/><path class="cls-18" d="M748.67484,728.95477,673.94,773.90162l-.57506.345a19.83847,19.83847,0,0,1-11.77752,2.76032c-.34481-.023-.69018-.06894-1.012-.115a18.879,18.879,0,0,1-5.4058-1.56415,7.809,7.809,0,0,1-.89684-.414,8.514,8.514,0,0,1-.89713-.4831,1.8992,1.8992,0,0,1-.299-.161l-52.21541-31.16827L577.85873,729.3688a5.12535,5.12535,0,0,1-2.50747-4.11738V824.622a5.08276,5.08276,0,0,0,2.50747,4.07147l19.483,11.63923,14.26139,8.51079,41.47346,24.79669a19.75493,19.75493,0,0,0,20.28831-.023l41.91037-25.23361,14.14627-8.51093,19.25331-11.57029a5.13359,5.13359,0,0,0,2.50691-4.41643V724.51532A5.11585,5.11585,0,0,1,748.67484,728.95477Z" transform="translate(-23.41068 -31.93295)"/><path class="cls-19" d="M199.2413,665.44a5.14311,5.14311,0,0,1-2.50732,4.43946l-19.253,11.57015-14.14642,8.51093-2.69138,1.6102L121.424,715.17127a19.75434,19.75434,0,0,1-20.28816.02288l-38.736-23.14044-2.73729-1.63308L45.401,681.9097,25.918,670.27047a5.12025,5.12025,0,0,1-2.50732-4.0945v-.644a5.09208,5.09208,0,0,1,2.50732-4.11738l64.33775-38.69012L102.01,615.66271a19.6938,19.6938,0,0,1,20.42618.04591l11.50121,7.01585,62.84268,38.299A5.11042,5.11042,0,0,1,199.2413,665.44Z" transform="translate(-23.41068 -31.93295)"/><path class="cls-20" d="M199.2413,697.64342v17.0908c0,.23-.023.483-.04605.71307-.023.115-.04591.20694-.06893.32192a3.09419,3.09419,0,0,1-.161.62112,4.992,4.992,0,0,1-.3451.80516v.02289a4.85729,4.85729,0,0,1-.483.71307,3.68787,3.68787,0,0,1-.57506.62111c-.023.023-.06907.06907-.0921.06907a4.39072,4.39072,0,0,1-.73609.552l-74.7349,44.94671-.57506.34509a19.83822,19.83822,0,0,1-11.77723,2.76032,2.01023,2.01023,0,0,1-.368-.046,5.52173,5.52173,0,0,1-.64414-.06907,19.88837,19.88837,0,0,1-3.03633-.667,7.80964,7.80964,0,0,1-.782-.253,4.14484,4.14484,0,0,1-.4831-.18406,5.86822,5.86822,0,0,1-1.10407-.46008,7.78665,7.78665,0,0,1-.89713-.414,8.541,8.541,0,0,1-.89713-.4831,1.90493,1.90493,0,0,1-.299-.16089L25.918,719.5877a4.857,4.857,0,0,1-.85108-.64414,4.47388,4.47388,0,0,1-.55217-.59794,5.19947,5.19947,0,0,1-.552-.8282,3.401,3.401,0,0,1-.276-.667c-.023-.023-.023-.023-.023-.04605v-.023a2.93951,2.93951,0,0,1-.161-.644,3.11725,3.11725,0,0,1-.092-.667V698.37938a5.12025,5.12025,0,0,0,2.50732,4.0945l6.87771,4.09436,2.7373,1.63322,65.60285,39.1961a19.75434,19.75434,0,0,0,20.28816-.02288l65.81008-39.56422h.02288l2.69139-1.63322,6.78561-4.09436A5.14311,5.14311,0,0,0,199.2413,697.64342Z" transform="translate(-23.41068 -31.93295)"/><path class="cls-21" d="M196.734,669.87937l-19.253,11.57015-14.14627,8.51093-2.69167,1.6102-39.219,23.60052a19.75412,19.75412,0,0,1-20.288.02289l-38.7363-23.14045-2.73716-1.63308-14.2614-8.51093-19.483-11.63923a5.12008,5.12008,0,0,1-2.50747-4.0945v32.20341a5.12008,5.12008,0,0,0,2.50747,4.0945l6.8777,4.09436,2.73716,1.63323,65.603,39.1961a19.75412,19.75412,0,0,0,20.288-.02289L187.234,707.81036h.023l2.69138-1.63322,6.78561-4.09436a5.14266,5.14266,0,0,0,2.50719-4.43945V665.43992A5.14266,5.14266,0,0,1,196.734,669.87937Z" transform="translate(-23.41068 -31.93295)"/><path class="cls-22" d="M199.19518,715.44711c-.023.115-.04577.20694-.06879.32193a3.10254,3.10254,0,0,1-.1609.62111v.00014a4.99745,4.99745,0,0,1-.34537.805v.02288a4.82451,4.82451,0,0,1-.483.71307,3.671,3.671,0,0,1-.57506.62111c-.023.023-.06908.06908-.0921.06908a4.38407,4.38407,0,0,1-.736.552L121.99915,764.1202l-.57506.34509a19.838,19.838,0,0,1-11.77724,2.76032,2.00656,2.00656,0,0,1-.36783-.046,5.513,5.513,0,0,1-.64414-.06908,19.88316,19.88316,0,0,1-3.03648-.667,7.80514,7.80514,0,0,1-.782-.253,4.166,4.166,0,0,1-.48324-.18406,5.87606,5.87606,0,0,1-1.10408-.46008,7.78372,7.78372,0,0,1-.89684-.414,8.54166,8.54166,0,0,1-.89741-.4831,1.90835,1.90835,0,0,1-.29876-.16089l-75.21786-44.9008a4.85887,4.85887,0,0,1-.85136-.64414,4.49069,4.49069,0,0,1-.552-.59794,5.20714,5.20714,0,0,1-.552-.8282,3.39244,3.39244,0,0,1-.276-.667c-.023-.023-.023-.023-.023-.04605v-.02288a2.93938,2.93938,0,0,1-.161-.644,3.11725,3.11725,0,0,1-.092-.667v3.2892a5.11964,5.11964,0,0,0,2.50747,4.09436l19.483,11.63922,14.2614,8.51093,41.47346,24.77367a19.75445,19.75445,0,0,0,20.288-.023l41.91065-25.21072L177.481,734.033l19.253-11.57016a5.14263,5.14263,0,0,0,2.50719-4.43945V714.734C199.24123,714.964,199.21821,715.217,199.19518,715.44711Z" transform="translate(-23.41068 -31.93295)"/><path class="cls-23" d="M429.05065,427.79058a5.14329,5.14329,0,0,1-2.50719,4.43946l-19.253,11.57029-14.14655,8.51093-41.91037,25.21058a19.18968,19.18968,0,0,1-5.12964,2.16223l-21.64523-6.0036-2.78335-.78214.18406-.782,13.06537-57.09206,93.45891,10.21309A4.98378,4.98378,0,0,1,429.05065,427.79058Z" transform="translate(-23.41068 -31.93295)"/><path class="cls-24" d="M429.05065,427.79058a5.14329,5.14329,0,0,1-2.50719,4.43946l-19.253,11.57029-14.14655,8.51093-41.91037,25.21058a19.18968,19.18968,0,0,1-5.12964,2.16223l-21.64523-6.0036-2.59929-1.56415,13.06537-57.09206,93.45891,10.21309A4.98378,4.98378,0,0,1,429.05065,427.79058Z" transform="translate(-23.41068 -31.93295)"/><path class="cls-25" d="M332.25764,538.07852s1.68069,4.7043.22056,6.45338c-.263.315-5.43861,4.43247-6.14625,6.497s-7.80107,23.18217-19.31983,19.62919S308.357,553.177,308.357,553.177l5.54214-7.9138Z" transform="translate(-23.41068 -31.93295)"/><path class="cls-26" d="M331.3708,536.06392s2.31584,4.59829.81165,6.40015c-.55056.65951-5.36854,4.42617-6.06545,6.48973s-7.68237,23.17148-19.06671,19.6064,1.30984-17.478,1.30984-17.478l5.46706-7.907Z" transform="translate(-23.41068 -31.93295)"/><path class="cls-25" d="M253.57139,514.79s-18.60622,7.50956-22.89949,13.07859c-.61332.79558-.11543,2.65762-.08757,3.29377a1.5004,1.5004,0,0,0,.09685.47409c1.84643,4.82108,14.13616,4.55311,16.63686,2.91561s4.631-2.97684,5.87081-5.38352,2.02952-4.41976,4.84063-6.04108,6.54782-1.29572,9.10807-2.762c2.07481-1.1883,5.81955-3.29982,5.08947-5.83778a20.02175,20.02175,0,0,1-.35243-1.99991Z" transform="translate(-23.41068 -31.93295)"/><path class="cls-26" d="M253.37846,512.64732s-24.73662,12.02536-22.8902,16.84645,14.13615,4.55311,16.63685,2.91561,4.631-2.97684,5.87082-5.38352,2.02951-4.41976,4.84062-6.04108,6.54783-1.29572,9.10808-2.762,7.39316-4.2258,3.61975-7.62294S253.37846,512.64732,253.37846,512.64732Z" transform="translate(-23.41068 -31.93295)"/><path class="cls-27" d="M306.67652,343.855c.03189-.00287-11.66075,9.34743-11.66075,9.34743l3.96979,23.82892,16.00038-2.02913s11.34609-19.73511,10.98589-20.4677S306.67652,343.855,306.67652,343.855Z" transform="translate(-23.41068 -31.93295)"/><path class="cls-28" d="M358.46689,423.285a22.51482,22.51482,0,0,1-5.47243,20.26552c-8.583,9.24685-26.87456,28.31267-26.87456,28.31267a95.5993,95.5993,0,0,1,5.17989,23.54342c1.19835,13.30935.47773,36.67787.53857,39.96786s-9.026,12.17027-20.01748,8.39327c-1.24926-.52356,1.11023-16.75383-.00929-29.18756s-12.01505-41.28844-12.01874-46.2313,1.26495-8.49967,18.26865-29.45036c0,0-43.44677,13.53346-46.3197,12.99769-.70837-.02449,1.79887,9.19479,2.41214,17.96671s-3.33807,40.37575-3.33807,40.37575-4.28062,7.35886-17.57705,2.81841c-1.26528-.32743-4.25731-47.28321-4.25731-47.28321s-3.13711-17.19527-.98867-25.68622,34.51819-34.26775,59.18973-30.83977S358.46689,423.285,358.46689,423.285Z" transform="translate(-23.41068 -31.93295)"/><path class="cls-29" d="M295.68542,375.307s2.23373,8.61132.34037,11.57325-13.435,15.7651-12.95637,16.65248,3.2161,2.50188,3.57808,3.20038,1.3941,9.5781,1.3941,9.5781-.64369,2.81618-2.57122.23151c-.28556-2.43343-1.63-7.03125-3.70116-6.41276s-3.64331,6.40941-.70077,9.93287c1.9783,2.77949-2.78309,3.40622-5.1504-.7326-.86768-1.517-3.34859-1.75886-5.81795-1.50329s-4.7576-4.48991-2.93641-7.14625,6.67009-6.74841,7.33488-9.69941,7.2848-17.63724,6.73021-20.844-1.56675-7.43573-1.56675-7.43573Z" transform="translate(-23.41068 -31.93295)"/><path class="cls-28" d="M296.00886,375.25075s-11.074,2.127-16.76678-2.04613c-.46415-.357.81981-8.97987.81981-8.97987l16.73818,3.94289Z" transform="translate(-23.41068 -31.93295)"/><path class="cls-30" d="M297.94667,366.47345s2.29438,6.85512,5.8205,6.80245,13.33182-8.79171,11.75789-20.39009-15.46181-4.08067-15.46181-4.08067l5.453-10.02428s34.9712,9.27722,40.181,16.86112c6.73854,9.8093,13.45568,14.44054,13.61706,67.21229-.09159,1.59713-36.36545,6.90158-45.8724-3.40083-7.972-8.639-5.61079-10.84588-5.61079-10.84588S315.7,394.53414,315.295,393.46721s-17.7141-8.99761-19.40175-17.93761.74083-9.909.74083-9.909Z" transform="translate(-23.41068 -31.93295)"/><path class="cls-25" d="M240.88173,409.05831a3.07021,3.07021,0,0,1,2.49117-1.73324l22.977-2.06881a3.094,3.094,0,0,1,2.88,1.40845L289.30448,437.63a2.83239,2.83239,0,0,1,.488,1.59733,3.009,3.009,0,0,0-.16944-3.05546l-20.10288-30.98919a3.07937,3.07937,0,0,0-2.85139-1.38453l-23.003,2.07114A3.0361,3.0361,0,0,0,240.88173,409.05831Z" transform="translate(-23.41068 -31.93295)"/><path class="cls-26" d="M266.35505,405.25782l-22.98724,2.06974a3.0877,3.0877,0,0,0-2.24513,4.85664l20.23451,28.64747a3.0877,3.0877,0,0,0,2.486,1.30612l22.84336.26645a3.0877,3.0877,0,0,0,2.62674-4.76739l-20.09063-30.98366A3.08772,3.08772,0,0,0,266.35505,405.25782Z" transform="translate(-23.41068 -31.93295)"/><path class="cls-29" d="M354.22641,396.44984l1.30655,26.27549s1.00042,12.09138-11.99106,13.879-34.35372,4.66819-38.02158,6.13783-16.50867,5.74957-21.613,3.68356-12.36529-8.52381-11.64475-10.11734,4.562,1.94869,7.3179,3.02982,8.77381.00757,9.4456-.65108.57637-4.67109-.55-5.00168-8.39637-.98261-8.32871-2.44561,5.59412-2.45906,9.64153-1.42776,11.14422,6.77278,14.03978,5.71451,34.39394-11.59575,34.63437-13.50052-3.792-23.8155-3.792-23.8155Z" transform="translate(-23.41068 -31.93295)"/><path class="cls-29" d="M305.36608,351.32891c1.17508,2.25149-1.15079,5.35576-2.63623,6.50463s-1.53535,12.84932-8.72764,13.85-23.728-13.04624-23.728-13.04624l21.95412-6.6551s6.6974,2.14759,7.17246.28815S303.762,348.25542,305.36608,351.32891Z" transform="translate(-23.41068 -31.93295)"/><path class="cls-28" d="M339.92241,360.45781c-9.92364.89351-12.25291,12.93159-6.81493,38.688l22.38891-1.66277C353.91793,370.49641,349.846,359.5643,339.92241,360.45781Z" transform="translate(-23.41068 -31.93295)"/><path class="cls-31" d="M267.50948,338.55432c-2.59648,2.1847-4.58058,7.24382-4.61831,11.52752a14.67578,14.67578,0,0,0,1.89585,7.25459,5.86589,5.86589,0,0,0,4.87907,3.2093c2.1727.058,2.517-1.50225,5.12755-1.874,2.66092-.37888,10.13624-1.46831,13.4687-1.38924,3.46792.08222,4.32663,2.887,6.49857,2.23956,2.57086-.76644,1.818-4.83069,5.39706-6.72372,1.65489-.87535,2.54393-.39146,4.02916-1.65754.20815-.17753,2.43159-2.12177,2.0355-4.1848-.33365-1.73728-.16656-7.26957-1.3614-8.587C290.9817,323.06573,275.70083,331.662,267.50948,338.55432Z" transform="translate(-23.41068 -31.93295)"/><path class="cls-25" d="M258.92274,424.57253a3.99662,3.99662,0,0,1,1.4223.50741c1.34078.77924,2.04373,2.11906,1.568,3.00886,2.22824,1.229,4.65131,1.09014,5.5-.36272.87255-1.48167-.2879-3.78609-2.57848-5.11529-2.29027-1.32923-4.82053-1.20724-5.69073.30056A2.30251,2.30251,0,0,0,258.92274,424.57253Z" transform="translate(-23.41068 -31.93295)"/><path class="cls-25" d="M261.27183,421.71257s1.77776-.66484,1.26518-2.207A1.44644,1.44644,0,0,0,261.27183,421.71257Z" transform="translate(-23.41068 -31.93295)"/><path class="cls-32" d="M613.78334,333.73359a5.1432,5.1432,0,0,1-2.50746,4.43945l-19.25275,11.57029-14.14684,8.51093-37.47077,22.54236-68.96126-58.24218,51.34131-15.75662,55.80393,2.57627,32.73243,19.94307A5.11078,5.11078,0,0,1,613.78334,333.73359Z" transform="translate(-23.41068 -31.93295)"/><path class="cls-33" d="M613.20828,336.10291a5.18809,5.18809,0,0,1-1.9324,2.07013l-19.25275,11.57029-14.14684,8.51093-33.21538,19.9661-13.38757-5.6126L547.39058,320.929Z" transform="translate(-23.41068 -31.93295)"/><path class="cls-34" d="M497.89866,303.268s-25.76992,6.61634-26.77627,16.53614,16.92835,4.313,17.53935,3.80978,12.75917-5.21149,14.62812-4.63643,5.64278,1.86895,12.831.89854,7.38-2.40807,7.46381-12.0044S497.89866,303.268,497.89866,303.268Z" transform="translate(-23.41068 -31.93295)"/><path class="cls-34" d="M539.57182,340.01033S523.96809,366.14442,529.2874,371.272s17.20391.09585,18.977-4.36087,7.332-26.90084,7.332-26.90084Z" transform="translate(-23.41068 -31.93295)"/><path class="cls-35" d="M552.36321,199.46452s.35792,55.88483,3.6166,62.78556,2.87531,24.53593,2.10856,38.91246,1.05843,24.16814.52921,30.10264-2.63777,13.98536-10.68862,12.64355-11.69291-4.60049-11.50122-18.40195-.95843-49.51025-6.32567-58.97125-9.776-24.41258-9.776-24.41258,6.134,62.49,3.25867,65.74863-24.71985,7.2841-25.778-5.36724-.9144-49.45523-2.71146-59.998-7.56276-41.94624-6.69262-53.36821,21.85985-21.58139,21.85985-21.58139Z" transform="translate(-23.41068 -31.93295)"/><path class="cls-36" d="M549.07908,82.40166l-22.42165,23.4079s-15.24484,48.30511-15.173,48.66452,2.73154,27.17163,2.73154,27.17163l-7.47579,3.30679-11.645-4.96009V136.144l12.91913-53.3369,18.06227-5.24743Z" transform="translate(-23.41068 -31.93295)"/><path class="cls-37" d="M439.7074,110.00373s-36.31041.7178-36.40626,4.07233,7.38,2.57282,7.38,2.57282,13.2264-.27258,13.70562,1.836-2.68362,6.32567-2.30025,6.80488,1.58975,2.15035,7.85917-.43129,10.15941-2.444,10.15941-2.444l12.93887-7.37995Z" transform="translate(-23.41068 -31.93295)"/><path class="cls-37" d="M485.20419,154.59011s-38.96517,2.28006-42.5593,5.49082,3.11481,2.63339,3.85765,2.58662,10.32719.24076,10.66264,1.77426.52714,10.68655,4.69633,10.25525,25.54229-5.60684,25.54229-5.60684l3.35452-9.96773Z" transform="translate(-23.41068 -31.93295)"/><path class="cls-38" d="M485.8774,153.2959l-1.06138.50728s2.87531,5.27139,2.06064,9.53643-4.07335,8.578-4.07335,8.578l1.267.1216,15.12229-9.083Z" transform="translate(-23.41068 -31.93295)"/><path class="cls-38" d="M441.14432,108.43932l-2.15346.17366s4.05534,7.11638,2.15346,10.02762-5.96324,3.98949-5.96324,3.98949l1.80652,1.61086,5.7771.6175,6.757-8.51831Z" transform="translate(-23.41068 -31.93295)"/><polygon class="cls-39" points="478.141 146.838 486.661 150.484 486.852 159.201 476.285 155.643 478.141 146.838"/><path class="cls-40" d="M549.076,82.39066l-.23025,14.07748s-6.39475,9.68394-8.57986,9.316c-2.20815-.391-7.15373-4.41643-7.2916-3.79546-.13815.62112,6.9465,6.04966,3.84123,8.90194-3.1283,2.89833-9.707,4.71561-13.82449,17.55087-1.518,4.71561-3.42734,11.3173-5.26764,18.218-2.36932.345-8.46474,1.196-8.46474,1.196.023-.092.023-.161.04605-.253.6899-3.45036,5.88847-33.83663,13.01917-41.97944,6.41777-7.33778,22.08257-19.621,25.90077-22.58841Z" transform="translate(-23.41068 -31.93295)"/><path class="cls-41" d="M513.4222,164.50939a73.171,73.171,0,0,0-1.81728,12.05325s-2.59957-2.4843-3.38129-10.46622C509.92579,165.56741,511.674,165.0384,513.4222,164.50939Z" transform="translate(-23.41068 -31.93295)"/><path class="cls-40" d="M514.75949,77.18006s-3.63443,12.65134-6.7397,21.85231-6.0957,40.07035-6.39475,44.23378c-.161,2.30025-.138,17.66586-.092,31.16828v.023c.04591,10.81117.092,20.4492.092,21.27725,0,1.8632-15.94067-4.60048-15.94067-12.21428s7.17675-33.9286,8.05085-36.50486c.85108-2.57626-.57506-30.77727-.57506-30.77727-2.53021,4.87651-15.82568,10.99509-29.121,13.24943s-29.12116-4.69259-29.12116-4.69259,5.26751-1.01211,7.98192-3.88742c2.73729-2.8753-2.00134-13.01931-2.00134-13.01931s20.90927.8741,28.615.437c7.68288-.437,19.04609-14.16958,25.44069-27.02787,6.30279-12.67436,11.7083-12.76632,11.86934-12.76632l5.08359,5.54353Z" transform="translate(-23.41068 -31.93295)"/><path class="cls-40" d="M551.057,140.61587s-3.51145,9.49734-3.12807,16.97313,14.18483,37.379,10.73447,39.6792-43.89632,12.07628-48.68849,6.134,1.63322-26.82854,1.63322-26.82854l1.0504-22.435Z" transform="translate(-23.41068 -31.93295)"/><path class="cls-26" d="M516.58814,102.97019s-8.37786,11.53716-8.57377,24.1885,0,23.29,0,23.29l-6.50518,1.07882s-1.38217-15.38346-1.09464-15.74287,4.7724-25.2308,4.7724-25.2308,4.57234-6.82885,8.74153-8.554S516.58814,102.97019,516.58814,102.97019Z" transform="translate(-23.41068 -31.93295)"/><path class="cls-42" d="M517.36315,89.06445l-1.8533-8.20331-2.58772-.92933s-3.37849,11.645-3.37849,12.07628a49.91323,49.91323,0,0,0,1.6533,5.3912C511.19694,97.11176,517.36315,89.06445,517.36315,89.06445Z" transform="translate(-23.41068 -31.93295)"/><path class="cls-41" d="M514.75949,77.18006s-3.63443,12.65134-6.7397,21.85231-6.0957,40.07035-6.39475,44.23378c-.161,2.30025-.138,17.66586-.092,31.16828-.0921-1.54113-3.72638-71.72158-3.72638-75.7011,0-4.02543,6.11859-5.45157,7.38369-6.78561,1.24222-1.3572-4.11738-1.54126-4.60048-3.08238s8.419-14.28457,8.994-15.0896l2.32327.299Z" transform="translate(-23.41068 -31.93295)"/><path class="cls-43" d="M515.50985,80.86114l2.37218,10.5s18.76136-9.84792,19.55207-13.94523-.4313-11.93058-.4313-11.93058l-17.97065,9.48657Z" transform="translate(-23.41068 -31.93295)"/><path class="cls-44" d="M505.21307,49.94123S504.08056,81.2257,516.7319,80.93817s24.08462-18.56909,24.08462-18.56909l-.43524-15.93456s-29.25622-.50318-29.7594-.50318S505.21307,49.94123,505.21307,49.94123Z" transform="translate(-23.41068 -31.93295)"/><path class="cls-42" d="M518.91872,90.80624l.14937,12.164,30.011-20.57041s-5.31931-8.48214-10.25525-8.62591S518.91872,90.80624,518.91872,90.80624Z" transform="translate(-23.41068 -31.93295)"/><polygon class="cls-25" points="489.152 71.037 493.952 71.037 495.629 68.703 495.629 61.585 492.39 59.18 488.614 64.231 489.152 71.037"/><path class="cls-45" d="M523.58471,31.93819c10.63475-.28742,18.4978,11.30953,18.4978,21.56478s-2.49193,9.96773-2.49193,9.96773l-.28753-1.91687s1.53439-12.07719-3.54621-6.99658c-1.62934,1.62934.38337,10.73447-1.34181,10.92616S533.07322,51.49026,523.58471,51.011s-7.85916,1.821-12.07628,1.43766-9.39266-3.54621-8.91344-7.76333S509.39988,32.32156,523.58471,31.93819Z" transform="translate(-23.41068 -31.93295)"/><path class="cls-40" d="M569.78127,106.80721c-.57506,9.5-23.7155,47.66112-42.41649,53.41173-4.53142,1.40311-9.29294,2.8753-13.93948,4.30144-1.7482.529-3.49641,1.05816-5.19857,1.58718-12.3523,3.72638-22.88745,6.71667-24.70459,6.34869,0,0,5.84645-4.03694,6.03814-9.88339.14671-4.47482-3.87591-9.53067-3.87591-9.53067s23.14045-3.45037,23.5775-5.17555c.023-.0921.023-.161.04605-.25313.69-3.45037,5.88862-33.8365,13.01932-41.97945,6.41763-7.33764,22.08228-19.621,25.90076-22.58827l.85108-.64413S570.35633,97.33022,569.78127,106.80721Z" transform="translate(-23.41068 -31.93295)"/><path class="cls-41" d="M549.076,82.39066l-.23025,14.07748s-6.39475,9.68394-8.57986,9.316c-2.20815-.391-7.15373-4.41643-7.2916-3.79546-.13815.62112,6.9465,6.04966,3.84123,8.90194-3.1283,2.89833-9.707,4.71561-13.82449,17.55087-1.518,4.71561-3.42734,11.3173-5.26764,18.218-2.36932.345-8.46474,1.196-8.46474,1.196.023-.092.023-.161.04605-.253.6899-3.45036,5.88847-33.83663,13.01917-41.97944,6.41777-7.33778,22.08257-19.621,25.90077-22.58841Z" transform="translate(-23.41068 -31.93295)"/><path class="cls-46" d="M751.17685,675.2278a5.14294,5.14294,0,0,1-2.50747,4.43946l-19.25274,11.57029-14.14656,8.51079-14.90581,8.971-38.414-13.50242,3.19737-28.431,82.4867,3.35827,1.08105.66716A5.11077,5.11077,0,0,1,751.17685,675.2278Z" transform="translate(-23.41068 -31.93295)"/><path class="cls-47" d="M652.87179,676.25971s-.6125,6.73755.6125,8.75882,4.99192,10.0757,8.33007,10.1982,5.37973-2.33228,3.7005-10.27715S652.87179,676.25971,652.87179,676.25971Z" transform="translate(-23.41068 -31.93295)"/><path class="cls-47" d="M665.18891,667.59394a16.19831,16.19831,0,0,0,0,2.08135,15.36818,15.36818,0,0,1,.643,3.12377c-.03631,1.01063.24706,5.71487.24706,5.71487h1.43164s-.3675-4.85736.76563-5.71487,2.84815,1.77626,3.00127,2.32752a38.39363,38.39363,0,0,1,.64313,6.40067c-.18375.79626,3.73628,5.26754,7.59506,4.96129s6.43019-.82684,6.58387-2.03656a6.63436,6.63436,0,0,0-.004-1.97725Z" transform="translate(-23.41068 -31.93295)"/><path class="cls-48" d="M645.71741,453.21408s1.20669,68.85517,4.28683,70.64914,8.26253-2.02857,8.26253-2.02857l-3.00992-79.72388Z" transform="translate(-23.41068 -31.93295)"/><path class="cls-49" d="M685.702,447.73422s6.27817-1.65376,8.51381.30625,10.04508,16.07825,17.51764,23.91831,12.00509,12.6176,13.4751,12.7401,17.02763-14.94512,17.27263-15.80262-3.1544-5.54317-1.92939-6.98256,3.33815,2.45,4.04253,2.4194.85751-6.64568.85751-6.64568.33688-6.70692,4.93066-6.46192,5.26754,6.58442,5.05317,10.1982-1.92939,11.69884-6.37,15.527-20.30453,19.56953-23.73456,19.38578-13.53635-9.43258-18.37514-15.00637S692.43959,461.73,691.82709,462.64871a9.20281,9.20281,0,0,1-2.57252,1.96l-10.26966-8.33006Z" transform="translate(-23.41068 -31.93295)"/><path class="cls-50" d="M666.212,661.7997c-.82474-.00531-1.64141,5.3439-.90641,5.9564s7.30923,4.165,7.06422,12.3726c-.08041,2.69382,8.82007,4.8592,10.61675,4.20586s4.41-.20416,2.36835-3.87919a22.51048,22.51048,0,0,0-4.94087-6.00255Z" transform="translate(-23.41068 -31.93295)"/><path class="cls-49" d="M651.87137,466.56874s-9.96341,5.51254-10.82092,7.96256-7.96256,38.9553-7.47256,50.22538,5.26754,38.22029,5.02254,41.89532-2.205,9.55507-1.96,10.90258,1.47,4.53254,4.53253,4.77754,5.145-5.145,5.88-5.26754,2.205,1.59251,2.695.3675-2.32752-3.92-2.205-6.00254,1.34751-7.71756.245-10.16758-4.01761-29.03272-4.15257-34.66776,3.25423-37.15862,4.03007-37.36279,1.715,3.30753,1.715,3.30753,12.3726-6.12505,12.6176-7.71756-.3675-16.82891-.3675-16.82891Z" transform="translate(-23.41068 -31.93295)"/><path class="cls-50" d="M653.87092,663.82587s-1.55038,10.38195-.99913,12.43384,3.36878,17.30326,9.21819,16.93575,3.09315-9.67757,3.09315-9.67757Z" transform="translate(-23.41068 -31.93295)"/><path class="cls-49" d="M689.07082,593.84721c.58536.88657-2.695,24.13268-4.41,31.72774s-7.84006,33.32025-7.59506,37.24028,1.18418,9.06507,2.32752,10.61675,2.61335,3.59336,1.715,4.2467-4.81837,2.53169-5.88.89834-2.36835-5.88-3.185-7.105-5.79838-7.26839-5.96172-8.16673,7.84006-61.98547,7.84006-61.98547Z" transform="translate(-23.41068 -31.93295)"/><path class="cls-49" d="M669.18483,603.52478s-5.145,59.61712-4.9817,64.68049.98,15.31262.98,15.31262-2.40918-1.79668-4.12419-1.10251a21.40008,21.40008,0,0,0-4.41,3.14419s-2.73585-7.55422-2.77669-19.84515.89834-66.59967.89834-66.59967Z" transform="translate(-23.41068 -31.93295)"/><path class="cls-26" d="M683.252,453.39989s6.33666,6.94073,8.02381,9.55507c.93591,1.45024,5.75755,13.31916,5.75755,17.00721,0,5.71671-5.39,5.88-5.39,9.47341s-1.87835,20.25349-.40834,22.86684,4.9817,15.43512,4.9,19.11015-4.73671,60.92379-5.635,62.47547-20.17182,15.27178-28.74688,12.4951-7.92173-3.59336-7.84006-5.55338-2.12335-35.36193-3.92-38.302-4.9-11.35175-4.165-17.55846,8.57506-21.88684,8.33006-24.41852-6.45172-27.19521-6.45172-27.19521-.08166-4.32837.735-4.32837,1.55168,2.04169,3.34836,1.87835,4.41-10.37174,3.92-14.45511-3.83836-8.266-3.83836-9.88174,16.64587-10.86349,16.64587-10.86349Z" transform="translate(-23.41068 -31.93295)"/><path class="cls-26" d="M683.252,453.39989s6.33666,6.94073,8.02381,9.55507c.93591,1.45024,5.75755,13.31916,5.75755,17.00721,0,5.71671-5.39,5.88-5.39,9.47341s-1.87835,20.25349-.40834,22.86684,4.9817,15.43512,4.9,19.11015-4.73671,60.92379-5.635,62.47547-20.17182,15.27178-28.74688,12.4951-7.92173-3.59336-7.84006-5.55338-2.12335-35.36193-3.92-38.302-4.9-11.35175-4.165-17.55846,8.57506-21.88684,8.33006-24.41852-6.45172-27.19521-6.45172-27.19521-.08166-4.32837.735-4.32837,1.55168,2.04169,3.34836,1.87835,4.41-10.37174,3.92-14.45511-3.83836-8.266-3.83836-9.88174,16.64587-10.86349,16.64587-10.86349Z" transform="translate(-23.41068 -31.93295)"/><path class="cls-51" d="M673.697,455.29865s.58188,3.33815.245,4.13441a3.83438,3.83438,0,0,1-4.13441,2.695,5.56278,5.56278,0,0,1-4.96128-3.40712c-.30626-1.156.18375-7.64859.18375-7.64859Z" transform="translate(-23.41068 -31.93295)"/><path class="cls-49" d="M685.355,427.94011s6.615,28.66522-6.37,28.33855-18.37514-6.53338-18.37514-6.53338l-4.9-20.9885Z" transform="translate(-23.41068 -31.93295)"/><path class="cls-48" d="M687.03977,426.36515c-.57167,2.94-13.68991,11.75368-14.91492,10.87019s-2.94-1.15819-2.94,0-8.2484-.8835-7.84006,2.21986,5.06337,21.31516,4.165,22.94851-10.37174,7.02338-11.67842,5.2267-5.45488,1.35-6.02655,1.35,0-4.65884-.26183-8.29174c-.14582-2.02332-10.94342-33.48358,6.53338-43.28366s24.64857-4.85337,28.40527.04666A24.104,24.104,0,0,1,687.03977,426.36515Z" transform="translate(-23.41068 -31.93295)"/><path d="M653.17817,521.36528a9.32408,9.32408,0,0,0,4.66485,5.18427,15.17649,15.17649,0,0,0,7.20291,1.60717,34.93329,34.93329,0,0,0,10.8978-2.058c8.232-2.744,13.38705-6.27207,15.3174-10.48609a7.14944,7.14944,0,0,0,.46081-5.41941.97869.97869,0,0,0-.98982-.59785,29.124,29.124,0,0,1-1.11734,4.89028c-.05862.12735-.10766.25476-.17633.392-1.18577,2.52844-4.606,6.19366-14.112,9.36887-7.09549,2.36185-12.81858,2.55781-16.57208.56842a9.55837,9.55837,0,0,1-1.55806-1.0388l-.10791-.10779a6.26816,6.26816,0,0,1-.88191-.89184,13.39955,13.39955,0,0,1-2.10716-2.65578.96542.96542,0,0,0-.23519.02937A.98135.98135,0,0,0,653.17817,521.36528Z" transform="translate(-23.41068 -31.93295)"/><path d="M690.73212,509.58563a.07621.07621,0,0,0-.02942.00975c.00981,0,.01961-.00975.02942,0Z" transform="translate(-23.41068 -31.93295)"/><path d="M148.60933,753.64342s2.6585,8.899,1.72858,16.9232h3.64729s-1.18668-7.23312,1.46923-6.781S148.60933,753.64342,148.60933,753.64342Z" transform="translate(-23.41068 -31.93295)"/><path d="M177.12026,778.49781s-1.06265,4.9528-9.92327,2.07086-9.76476-5.36969-10.10381-6.47093a23.426,23.426,0,0,1,0-4.94384Z" transform="translate(-23.41068 -31.93295)"/><path class="cls-26" d="M169.01653,767.70351s9.21092,6.87523,8.47631,10.15274-14.24021,1.2997-17.34819-2.93846-3.10789-7.00708-5.87686-10.56713-5.99-9.83252-5.87695-12.2624,3.67306-6.15945,4.40768-5.70738S169.01653,767.70351,169.01653,767.70351Z" transform="translate(-23.41068 -31.93295)"/><path d="M171.051,751.64471s0,4.00362-.69621,4.30382-.13288,4.887-.13288,4.887h-3.28413s-.483-5.48863-.73108-7.44756-2.8634-8.28173-2.8634-8.28173Z" transform="translate(-23.41068 -31.93295)"/><path d="M190.113,770.79267s.30152,4.74674-5.952,2.86307a21.65651,21.65651,0,0,1-11.00067-8.36329c-.37657-.90414,0-3.67527,0-3.67527Z" transform="translate(-23.41068 -31.93295)"/><path class="cls-26" d="M182.20848,755.99324s9.48689,9.676,7.90464,14.79942-12.658-1.35621-15.44572-5.95226-5.57553-12.50727-6.85639-14.01417-5.57553-5.95225-5.04812-7.98656,1.5069-5.27415,4.144-5.12346,7.60984,8.13726,7.60984,8.13726Z" transform="translate(-23.41068 -31.93295)"/><polygon points="150.692 648.05 130.857 664.89 121.025 652.006 134.304 645.225 150.692 648.05"/><path class="cls-52" d="M176.36266,676.76212s5.01044,2.93845,3.05147,21.7747-1.35621,53.49493,1.65759,56.05666,1.959,7.68519-1.35621,9.19209-6.63035-3.91794-7.98656-7.08243-6.17829-11.9045-5.42484-15.21968,2.10966-4.67139,1.959-7.5345-7.38381-23.809-6.63036-31.04213,3.08574-13.18857,1.84425-13.90275-13.91525-7.68314-13.91525-7.68314l6.34478-11.11384h16.44408l4.65251,5.72622Z" transform="translate(-23.41068 -31.93295)"/><path class="cls-52" d="M148.56964,681.82754s10.89691,7.96926,10.69913,16.10652-.95123,43.5494,2.21326,50.02907,7.83588,18.53486,7.5345,19.74038-2.56173,5.87691-5.42484,4.06863-11.60313-15.82245-11.45244-18.53487a32.64973,32.64973,0,0,0-.45207-9.94553c-.90414-3.61656-6.0276-16.70082-6.329-22.96734s.4144-17.33061-.923-19.5591-6.15946-3.94258-6.15946-3.94258l-6.63036-15.76594Z" transform="translate(-23.41068 -31.93295)"/><path class="cls-53" d="M112.43244,553.14254c0-.45207-2.03431-6.0276-9.56881-6.0276s-12.7333,7.83588-12.80865,14.46624-8.36329,27.87764-10.02088,29.61058-2.48638,14.2402-.75345,17.48,3.31518,10.84967,5.87691,11.30174,4.97277-3.84259,3.84259-10.32226c-.49053-2.81241,4.17136-12.82118,9.60541-23.24954.37461-.7189,8.549-1.6362,8.92946-2.35687A58.07256,58.07256,0,0,0,114.09,558.492Z" transform="translate(-23.41068 -31.93295)"/><path class="cls-52" d="M130.14811,589.277s36.21282,40.49933,40.16843,41.74252,20.34314,1.9213,21.3603,2.82544.226,1.13017-.56509,1.35621-15.25736-.226-13.56209,3.72957.6781,5.42484-.33906,5.53786-3.95561-6.216-10.84967-8.70235S136.07224,614.858,136.07224,614.858L119.5138,591.80241Z" transform="translate(-23.41068 -31.93295)"/><path class="cls-54" d="M132.79443,633.646a55.20576,55.20576,0,0,1,4.12513,8.75885c1.2432,3.8426,40.23422,25.994,41.13836,30.62774s-1.69526,3.72958-1.69526,3.72958-2.5994-5.08579-7.68519-3.39053-28.36738,11.86684-27.01117,20.90824,1.01715,5.98992,1.01715,5.98992-36.825-11.52778-44.29352-23.2816-7.8596-19.61821-7.551-24.44487,9.18049-20.31,9.18049-20.31Z" transform="translate(-23.41068 -31.93295)"/><path class="cls-25" d="M169.91776,646.15855,111.37,674.73361a1.35075,1.35075,0,0,0-.17,2.3289l25.27168,17.2801a1.35076,1.35076,0,0,0,1.35.10125l58.655-28.336a1.35075,1.35075,0,0,0,.17979-2.32788l-25.37892-17.51919A1.35076,1.35076,0,0,0,169.91776,646.15855Z" transform="translate(-23.41068 -31.93295)"/><path class="cls-55" d="M169.96783,645.46878l-58.54777,28.57506a1.35076,1.35076,0,0,0-.17,2.3289l25.27168,17.2801a1.35076,1.35076,0,0,0,1.35.10125l58.655-28.336a1.35075,1.35075,0,0,0,.17978-2.32788l-25.37892-17.51919A1.35076,1.35076,0,0,0,169.96783,645.46878Z" transform="translate(-23.41068 -31.93295)"/><path class="cls-25" d="M161.56854,661.64831l-36.38436,17.7579a.83941.83941,0,0,0-.10562,1.44728l15.705,10.73868a.83942.83942,0,0,0,.83894.06292l36.451-17.60932a.83942.83942,0,0,0,.11173-1.44665l-15.77167-10.88726A.83943.83943,0,0,0,161.56854,661.64831Z" transform="translate(-23.41068 -31.93295)"/><path class="cls-25" d="M144.00716,662.95935l-9.39694,4.5863a.2168.2168,0,0,0-.02728.37379l4.05612,2.77346a.21679.21679,0,0,0,.21667.01625l9.41414-4.54793a.21679.21679,0,0,0,.02886-.37362l-4.07332-2.81184A.21679.21679,0,0,0,144.00716,662.95935Z" transform="translate(-23.41068 -31.93295)"/><path class="cls-56" d="M200.3246,632.93249l-2.94974,31.28764a1.35076,1.35076,0,0,1-.75722,1.08948l-58.65927,28.338a1.35076,1.35076,0,0,1-1.93478-1.31406l2.24052-30.86438a1.35073,1.35073,0,0,1,.7583-1.11781l59.3685-28.7613A1.35075,1.35075,0,0,1,200.3246,632.93249Z" transform="translate(-23.41068 -31.93295)"/><path class="cls-25" d="M170.83414,662.07987l-.00036.00388a1.30067,1.30067,0,0,1-.72914,1.04908l-2.72747,1.31762a1.30066,1.30066,0,0,1-1.863-1.26533h0a1.30068,1.30068,0,0,1,.73018-1.07637l2.72783-1.3215A1.30066,1.30066,0,0,1,170.83414,662.07987Z" transform="translate(-23.41068 -31.93295)"/><path class="cls-52" d="M93.06755,592.41792s-7.9665,20.15027-7.62745,28.85262-3.56005,22.60349,4.29467,30.23217,32.323,25.93751,37.01322,29.55407,12.82748-6.38549,8.08075-11.52778-11.6408-1.63876-14.2402-3.78609-23.33811-22.434-23.2816-26.05053,2.48638-21.98189,2.48638-21.98189l10.72328-4.97277s-4.73335-12.31891-5.97654-13.16654-8.53282-7.15326-8.53282-7.15326Z" transform="translate(-23.41068 -31.93295)"/><path class="cls-57" d="M98.44437,586.79424s-4.867,3.96158-5.4321,5.31779,14.29672,9.776,12.771,16.95262-5.98993,7.1201-5.98993,8.64584-3.67306,18.36534-2.03431,20.7387,9.38045,7.51566,15.93546,6.95058,18.98694-8.81537,19.1-11.75382.0565-10.05856.96064-11.47127,8.19377-5.53786,8.41981-10.05856-6.05143-16.12917-10.85218-21.51367-20.43-7.53182-20.43-7.53182Z" transform="translate(-23.41068 -31.93295)"/><path class="cls-27" d="M107.5254,578.61857s-9.61084,7.20423-9.081,8.17567c1.09,1.99851,6.30289,11.38306,15.721,9.65012s9.22976-6.668,9.22976-6.668L111.2646,573.69018Z" transform="translate(-23.41068 -31.93295)"/><path class="cls-52" d="M134.87622,572.8906s-.49955,6.46258-1.94052,8.72293-.56509,4.71848-1.9213,6.58327-6.92232,6.4985-9.437,5.05753-15.38961-8.98489-14.052-14.63576,7.75132-7.54392,7.75132-7.54392Z" transform="translate(-23.41068 -31.93295)"/><path class="cls-58" d="M118.30935,553.18022c4.62605.64927,17.63073,9.64415,17.17866,17.55538s-17.40469,7.3838-17.85676,10.3976-1.959,1.35621-3.54122-.37672-3.31518-4.596-4.37-3.16449-4.97276,1.5069-6.85639-.15069a6.72657,6.72657,0,0,1-1.05483-9.0414C104.37053,564.63265,114.01469,552.57746,118.30935,553.18022Z" transform="translate(-23.41068 -31.93295)"/><path class="cls-26" d="M113.11055,551.1459c1.05483.97949,2.10966,3.31518,1.80828,3.8426s-5.65088,6.329-6.8564,5.95225-3.84259-2.71242-3.54121-3.39053,7.08243-7.00708,7.83588-6.7057Z" transform="translate(-23.41068 -31.93295)"/><path class="cls-59" d="M378.0331,75.81455v89.0309a20.34547,20.34547,0,0,0,10.41141,17.68009l79.298,44.88648c7.04934,3.99027,15.85183-1.04383,15.77921-9.02405l-.81517-89.58222a20.34933,20.34933,0,0,0-10.41059-17.49795l-78.4832-44.42529C386.79956,62.91272,378.0331,67.875,378.0331,75.81455Z" transform="translate(-23.41068 -31.93295)"/><polygon class="cls-60" points="366.38 83.19 366.38 142.531 376.535 148.279 376.535 88.939 366.38 83.19"/><polygon class="cls-26" points="379.662 141.075 379.662 150.041 389.817 155.789 389.817 146.823 379.662 141.075"/><polygon class="cls-61" points="393.416 120.417 393.416 157.843 403.572 163.592 403.572 126.166 393.416 120.417"/><polygon class="cls-62" points="407.225 99.191 407.225 165.648 417.38 171.397 417.38 104.939 407.225 99.191"/><polygon class="cls-28" points="419.874 122.09 419.874 172.808 430.029 178.557 430.029 127.839 419.874 122.09"/><polygon class="cls-35" points="432.699 175.123 432.699 180.09 442.854 185.839 442.854 180.871 432.699 175.123"/><path class="cls-63" d="M769.82636,443.09834l-43.1456,26.551a1.05036,1.05036,0,0,0,.04494,1.81524L747.59317,482.923a1.05034,1.05034,0,0,0,1.05244-.02393l43.24671-26.37413a1.05036,1.05036,0,0,0-.03726-1.8152l-20.96858-11.63524A1.05034,1.05034,0,0,0,769.82636,443.09834Z" transform="translate(-23.41068 -31.93295)"/><path class="cls-64" d="M769.81284,442.56072l-43.14559,26.551a1.05037,1.05037,0,0,0,.04493,1.81525l20.86747,11.45834a1.05037,1.05037,0,0,0,1.05244-.02394l43.24671-26.37413a1.05035,1.05035,0,0,0-.03725-1.81519L770.873,442.53683A1.05035,1.05035,0,0,0,769.81284,442.56072Z" transform="translate(-23.41068 -31.93295)"/><path class="cls-26" d="M764.53853,455.71871,737.7258,472.21879a.65275.65275,0,0,0,.02793,1.12808l12.968,7.12075a.65277.65277,0,0,0,.654-.01487l26.87556-16.39014a.65275.65275,0,0,0-.02315-1.12805l-13.03087-7.23069A.65275.65275,0,0,0,764.53853,455.71871Z" transform="translate(-23.41068 -31.93295)"/><path class="cls-26" d="M751.04689,458.06405,744.122,462.3255a.16858.16858,0,0,0,.00721.29135l3.34923,1.83906a.16857.16857,0,0,0,.16892-.00384l6.94111-4.233a.16858.16858,0,0,0-.006-.29134l-3.36546-1.86746A.16858.16858,0,0,0,751.04689,458.06405Z" transform="translate(-23.41068 -31.93295)"/><path class="cls-65" d="M792.35641,430.55845l.088,24.43742a1.05038,1.05038,0,0,1-.50347.90054l-43.24985,26.376a1.05036,1.05036,0,0,1-1.59692-.87035l-.60477-24.05612a1.05038,1.05038,0,0,1,.50215-.92255l43.76666-26.75735A1.05036,1.05036,0,0,1,792.35641,430.55845Z" transform="translate(-23.41068 -31.93295)"/><path class="cls-26" d="M771.742,455.35061l0,.003a1.01142,1.01142,0,0,1-.4848.86714l-2.011,1.2264a1.01141,1.01141,0,0,1-1.5377-.83808h0a1.01143,1.01143,0,0,1,.48353-.88835l2.011-1.22943A1.01141,1.01141,0,0,1,771.742,455.35061Z" transform="translate(-23.41068 -31.93295)"/><ellipse class="cls-66" cx="714.8356" cy="510.93514" rx="4.15379" ry="1.81821"/><ellipse class="cls-67" cx="714.8356" cy="510.746" rx="4.15379" ry="1.81821"/><path class="cls-68" d="M741.16076,507.70486c-.35038.60607-3.48028,6.01669-3.48028,6.01669a3.43809,3.43809,0,0,0-.46148,1.72005v26.9925c0,.23975.44485.434.99341.434s.99341-.19424.99341-.434c0-.012-.01363-.02218-.01571-.034V515.33131a3.4358,3.4358,0,0,1,.36309-1.53746s2.77305-5.56942,2.96614-5.93112C742.712,507.501,741.51138,507.09879,741.16076,507.70486Z" transform="translate(-23.41068 -31.93295)"/><path class="cls-66" d="M740.81408,511.27464c-.11341.20811-.20811.41633-.32175.60549a15.00361,15.00361,0,0,0-1.60825-.09458h-.09447c.11341-.2081.24575-.43515.37833-.66219A12.088,12.088,0,0,1,740.81408,511.27464Z" transform="translate(-23.41068 -31.93295)"/><path class="cls-69" d="M754.24808,537.3481h-2.32727c-1.64614,0-2.9897-3.7653-2.9897-8.42,0-4.63572,1.34356-8.42,2.9897-8.42h2.32727c-1.57061,0-2.83818,3.78424-2.83818,8.42C751.4099,533.5828,752.67747,537.3481,754.24808,537.3481Z" transform="translate(-23.41068 -31.93295)"/><ellipse class="cls-70" cx="730.8374" cy="497.00043" rx="2.83818" ry="8.41803"/><ellipse class="cls-71" cx="733.20255" cy="497.00043" rx="1.53735" ry="6.62242"/><path class="cls-72" d="M724.056,537.3481h2.32727c1.64614,0,2.9897-3.7653,2.9897-8.42,0-4.63572-1.34356-8.42-2.9897-8.42H724.056c1.57061,0,2.83818,3.78424,2.83818,8.42C726.89414,533.5828,725.62657,537.3481,724.056,537.3481Z" transform="translate(-23.41068 -31.93295)"/><ellipse class="cls-73" cx="700.64528" cy="497.00043" rx="2.83818" ry="8.41803"/><ellipse class="cls-74" cx="698.28014" cy="497.00043" rx="1.53735" ry="6.62242"/><path class="cls-75" d="M754.513,520.54607a1.11574,1.11574,0,0,0-.26492-.03788h-1.684a14.46073,14.46073,0,0,0-27.37891,0h-1.13522a.81911.81911,0,0,0-.35963.07576,15.86148,15.86148,0,0,1,30.8227-.03788Z" transform="translate(-23.41068 -31.93295)"/><path class="cls-76" d="M752.56406,520.50819h-.28386a14.40155,14.40155,0,0,0-26.81118,0h-.28387a14.46073,14.46073,0,0,1,27.37891,0Z" transform="translate(-23.41068 -31.93295)"/><path class="cls-77" d="M782.74373,523.9309c0,3.27769-1.39851,5.81251-3.16832,6.68648l-.10936.06562-.54629.19658a3.22349,3.22349,0,0,1-3.03735-.85209l-9.24305-8.17249a8.08854,8.08854,0,0,1-2.29422-5.94348v-.02187c-.06562-3.45254,1.46386-6.11833,3.36491-6.92682l.3497-.1311a3.19168,3.19168,0,0,1,3.14645.83036l8.17235,7.23276,1.0707.96147A8.2348,8.2348,0,0,1,782.74373,523.9309Z" transform="translate(-23.41068 -31.93295)"/><path class="cls-78" d="M791.49887,520.55669c0,3.27769-1.39878,5.83439-3.19047,6.70836l-.50254.19672-8.23045,3.15561c1.76981-.874,3.16832-3.40879,3.16832-6.68648a8.2348,8.2348,0,0,0-2.29448-6.07458l-1.0707-.96147-8.17235-7.23276a3.19168,3.19168,0,0,0-3.14645-.83036l8.733-3.3742h.02187a3.22847,3.22847,0,0,1,3.14673.80848l9.26491,8.19423A8.33063,8.33063,0,0,1,791.49887,520.55669Z" transform="translate(-23.41068 -31.93295)"/><path class="cls-79" d="M805.60363,511.47756c.02187,4.0643-1.74794,7.25464-4.76343,8.54379a80.21054,80.21054,0,0,0-11.49378,6.48989,7.18774,7.18774,0,0,0,1.92292-3.671c2.338-1.24554,5.63753-2.92813,8.93709-4.32664,3.51829-1.50775,3.75836-5.76864,3.75836-7.036-.02188-2.84064-1.09257-4.98215-2.11951-5.39733a11.6527,11.6527,0,0,1-1.28915-.63364c-.74287.76474-1.87918,1.87918-3.56177,3.49615-2.07576,1.96667-5.11312,2.49108-7.71356,2.49108a22.33559,22.33559,0,0,1-3.86772-.34957l-2.38144-2.09776c1.83516.37143,9.61434,1.81369,12.82641-1.24554,1.55136-1.464,2.5567-2.44733,3.1902-3.10285-.28381-.17484-.56815-.30595-.87384-.50253-2.797-1.61711-6.2713-3.62739-10.29186-4.34852-4.96028-.874-7.517,5.48469-7.88854,6.4899l-.04374-.02187a3.4732,3.4732,0,0,0-1.39825-.78662c.9832-2.97174,4.21714-8.238,9.61434-7.29838,4.30464.78662,7.93229,2.86251,10.83841,4.5451a28.21016,28.21016,0,0,0,3.47428,1.85731C804.29287,505.31549,805.56015,508.15613,805.60363,511.47756Z" transform="translate(-23.41068 -31.93295)"/><path class="cls-80" d="M812.05262,400.95538V594.31862a20.34546,20.34546,0,0,1-10.41141,17.68008l-79.298,44.88648c-7.04934,3.99027-15.85183-1.04383-15.77921-9.024l.81517-193.91456a20.34931,20.34931,0,0,1,10.41059-17.498l78.4832-44.42529C803.28616,388.05355,812.05262,393.01579,812.05262,400.95538Z" transform="translate(-23.41068 -31.93295)"/><ellipse class="cls-81" cx="738.10534" cy="564.95629" rx="10.97535" ry="6.32053"/><ellipse class="cls-82" cx="738.10534" cy="564.3367" rx="10.97535" ry="6.32053"/><path class="cls-83" d="M762.88336,591.721l-.5353,1.65575v2.82767c0,.26253-.36961.47533-.82544.47533s-.82534-.2128-.82534-.47533v-3.50267Z" transform="translate(-23.41068 -31.93295)"/><path class="cls-84" d="M734.77412,586.52984V617.8995l1.79251-1.0185h.00816a.47607.47607,0,0,1,.08961-.14666c.30147-.50517.61926-.99407.937-1.48293.08961-.14666.18738-.28521.28516-.43187.33409-.50517.67624-1.01034,1.02665-1.49919a4.06789,4.06789,0,0,1,.26884-.383c.3341-.48071.67635-.94515,1.02666-1.40959.12224-.17112.25263-.33409.38293-.50517q.37894-.5133.78227-1.00223c.25253-.334.52148-.66.79848-.98587.2037-.26074.42371-.52148.64362-.77407.25264-.30962.52158-.61925.79859-.92072.17923-.22.37477-.43182.57847-.65183.34225-.39924.70887-.79038,1.07549-1.17331.17933-.19554.35856-.39108.5541-.57852.25254-.277.52149-.5459.79043-.8148.29322-.30962.60294-.60294.90431-.8881.269-.26889.546-.53779.823-.79037.23632-.22812.47264-.45629.71712-.66.36662-.3422.72508-.66814,1.09986-.98587.15486-.1467.30972-.27705.46449-.4074.41555-.36666.83926-.72518,1.27112-1.06738.16292-.13855.32584-.277.49692-.4074.36672-.30152.74159-.59483,1.12452-.88814.25254-.2037.51323-.39925.774-.58663.39108-.30152.78217-.58668,1.18141-.87184.163-.12224.31788-.23632.4808-.34225.47255-.3422.9451-.66814,1.4259-.98587.13029-.08967.26069-.17928.39108-.26074.57848-.39109,1.17326-.76592,1.76805-1.13258.57857-.36667,1.1652-.717,1.76-1.05923.383-.22817.77411-.44813,1.1652-.66814.66-.36667,1.32-.717,1.99621-1.06738.66819-.3422,1.34443-.67629,2.02068-1.00218.33409-.15481.66-.30963.994-.46444.2037-.09777.4074-.18744.6111-.27705.49712-.22.99413-.43182,1.49114-.64368.35031-.14665.70072-.29331,1.05112-.43186.277-.114.56216-.22.84742-.33405.42361-.163.83917-.31778,1.26288-.47259.35856-.13035.70886-.26074,1.06733-.38293s.71712-.24448,1.07558-.35851c.717-.23633,1.434-.46444,2.15913-.6763.36672-.10593.73344-.21185,1.0919-.30963q.54993-.15888,1.1-.29331c.36672-.09777.73333-.18739,1.1-.27705s.73334-.17923,1.10821-.26074c.26885-.057.5377-.12219.80664-.17923.47255-.09778.9451-.19555,1.41774-.28516.64372-.12224,1.28734-.24448,1.93912-.35041.47265-.0733.95335-.14666,1.42589-.2118.383-.05705.75781-.10593,1.13268-.15482.75771-.09777,1.51541-.17928,2.27322-.25258.35856-.03263.717-.0652,1.07548-.08967l.29342-.02442c.32584-.02446.65993-.04888.994-.06519,1.11627-.0652,2.24885-.10593,3.37327-.12224V551.76245l-.10593-1.01034A72.1202,72.1202,0,0,0,734.77412,586.52984Z" transform="translate(-23.41068 -31.93295)"/><path class="cls-85" d="M796.169,550.7521v32.364c-1.12442.01631-2.257.057-3.37327.12224-.33409.01631-.66.04073-.994.0652l-.29342.02442c-.35846.02446-.71692.057-1.07548.08966-.75781.07331-1.51551.15482-2.27322.25259-.37487.04888-.74965.09777-1.13268.15481-.47254.06515-.95324.1385-1.42589.21181-.65178.10592-1.2954.22816-1.93912.3504-.47264.08962-.94519.18739-1.41774.28516-.26894.057-.53779.12224-.80664.17923-.37487.08151-.74159.17113-1.10821.26074s-.73323.17928-1.1.27706q-.55008.13441-1.1.29331c-.35846.09777-.72518.2037-1.0919.30963-.72508.21185-1.4421.44-2.15913.67629-.35846.114-.717.23627-1.07558.35851s-.70877.25259-1.06733.38293c-.42371.15482-.83927.30963-1.26288.4726-.28526.11408-.57042.22-.84742.334-.3504.13856-.70081.28521-1.05112.43187-.497.21186-.994.42371-1.49114.64367-.2037.08962-.4074.17928-.6111.27705-.334.15482-.65993.30963-.994.46444-.67625.32589-1.35249.66-2.02068,1.00219-.67625.35035-1.33618.70071-1.99621,1.06738-.39109.22-.78217.44-1.1652.66814-.59479.3422-1.18142.69255-1.76,1.05922-.59479.36667-1.18957.74149-1.76805,1.13258-.13039.08146-.26079.17108-.39108.26074-.4808.31773-.95335.64367-1.4259.98587-.16292.10593-.31778.22-.4808.34225-.39924.28516-.79033.57032-1.18141.87184-.26079.18739-.52148.38293-.774.58663-.38293.29332-.7578.58663-1.12452.88815-.17108.13035-.334.26885-.49692.4074-.43186.3422-.85557.70071-1.27112,1.06738-.15477.13035-.30963.26069-.46449.4074-.37478.31773-.73324.64367-1.09986.98587-.24448.21185-.4808.43187-.71712.66-.277.25259-.554.52148-.823.79038-.30952.28516-.61109.58663-.90431.8881-.26894.2689-.53789.53779-.79043.8148-.19554.18743-.37477.383-.5541.57852-.36662.38293-.73324.77407-1.07549,1.17331-.2037.22-.39924.43181-.57847.65183-.277.30147-.546.61109-.79859.92072-.21991.25258-.43992.51332-.64362.77407-.277.32588-.54595.65182-.79848.98587q-.40328.50113-.78227,1.00223c-.1303.17108-.26069.334-.38293.50517-.35031.46444-.69256.937-1.02666,1.40958a4.06919,4.06919,0,0,0-.26884.383c-.35856.48886-.70072.994-1.02665,1.4992-.09778.14666-.19555.28521-.28516.43186-.32594.48886-.64372.98588-.937,1.48294a.476.476,0,0,0-.08961.14666h-.00816c-.28516.46444-.56216.92888-.83926,1.39327l-.95325-.37478V586.52983A72.2935,72.2935,0,0,1,796.169,550.7521Zm-1.08981,31.38607V551.79328a71.10944,71.10944,0,0,0-59.35181,35.11133V616.304A72.30828,72.30828,0,0,1,795.07918,582.13817Z" transform="translate(-23.41068 -31.93295)"/><path class="cls-86" d="M804.05881,544.99813v41.93459a20.34548,20.34548,0,0,1-10.41141,17.68009l-57.71428,32.4021c-7.04934,3.99027-15.85183-1.04383-15.77921-9.024l.81518-42.48591a20.34931,20.34931,0,0,1,10.41058-17.498l56.89951-31.94091C795.29235,532.0963,804.05881,537.05854,804.05881,544.99813Z" transform="translate(-23.41068 -31.93295)"/></svg>