<svg id="Слой_1" data-name="Слой 1" xmlns="http://www.w3.org/2000/svg" xmlns:xlink="http://www.w3.org/1999/xlink" viewBox="0 0 971.00838 940"><defs><style>.cls-1{fill:url(#Безымянный_градиент_81);}.cls-2{fill:url(#Безымянный_градиент_81-2);}.cls-3{fill:url(#Безымянный_градиент_33);}.cls-4{fill:url(#Безымянный_градиент_77);}.cls-5{fill:url(#Безымянный_градиент_22);}.cls-6{fill:url(#Безымянный_градиент_22-2);}.cls-7{fill:url(#Безымянный_градиент_81-3);}.cls-8{fill:url(#Безымянный_градиент_95);}.cls-9{fill:#828282;}.cls-10{fill:url(#Безымянный_градиент_23);}.cls-11{fill:url(#Безымянный_градиент_23-2);}.cls-12{fill:url(#Безымянный_градиент_33-2);}.cls-13{fill:url(#Безымянный_градиент_10);}.cls-14{fill:#292941;}.cls-15{fill:#ffadae;}.cls-16{fill:#d7e3f4;}.cls-17{fill:#e64415;}.cls-18{fill:#fa99b0;}.cls-19{fill:#ffafb0;}.cls-20{fill:#ffe5d6;}.cls-21{fill:#111423;}.cls-22{fill:url(#Безымянный_градиент_10-2);}.cls-23{fill:url(#Безымянный_градиент_159);}.cls-24{fill:url(#Безымянный_градиент_23-3);}</style><linearGradient id="Безымянный_градиент_81" x1="212.84146" y1="759.22603" x2="527.69343" y2="759.22603" gradientUnits="userSpaceOnUse"><stop offset="0" stop-color="#b5b5c1" stop-opacity="0.3"/><stop offset="0.99512" stop-color="#fdfdfd" stop-opacity="0"/></linearGradient><linearGradient id="Безымянный_градиент_81-2" x1="-5072.12568" y1="1834.91471" x2="-4591.56296" y2="1834.91471" gradientTransform="translate(5794.98893 -154.92327) rotate(10.74042)" xlink:href="#Безымянный_градиент_81"/><linearGradient id="Безымянный_градиент_33" x1="-5358.51631" y1="388.04565" x2="-5069.90114" y2="388.04565" gradientTransform="translate(5684.50322)" gradientUnits="userSpaceOnUse"><stop offset="0.57561" stop-color="#fbfbfd"/><stop offset="1" stop-color="#f3f3f5"/></linearGradient><linearGradient id="Безымянный_градиент_77" x1="-5358.52883" y1="498.13005" x2="-5069.91389" y2="498.13005" gradientTransform="translate(5684.50322)" gradientUnits="userSpaceOnUse"><stop offset="0" stop-color="#f77f48"/><stop offset="0.45366" stop-color="#ff9c88"/><stop offset="1" stop-color="#f77f48"/></linearGradient><linearGradient id="Безымянный_градиент_22" x1="-5358.5163" y1="457.65321" x2="-5069.90112" y2="457.65321" gradientTransform="translate(5684.50322)" gradientUnits="userSpaceOnUse"><stop offset="0" stop-color="#fdfdfd"/><stop offset="0.43171" stop-color="#fbfafb"/><stop offset="0.56585" stop-color="#f0eff4"/></linearGradient><linearGradient id="Безымянный_градиент_22-2" x1="-5358.52875" y1="644.18595" x2="-5069.91357" y2="644.18595" xlink:href="#Безымянный_градиент_22"/><linearGradient id="Безымянный_градиент_81-3" x1="-5280.30435" y1="420.22349" x2="-5069.88935" y2="420.22349" gradientTransform="translate(5684.50322)" xlink:href="#Безымянный_градиент_81"/><linearGradient id="Безымянный_градиент_95" x1="249.50542" y1="792.12217" x2="253.19049" y2="789.99777" gradientUnits="userSpaceOnUse"><stop offset="0" stop-color="#ef6452"/><stop offset="0.3561" stop-color="#f77f48"/></linearGradient><linearGradient id="Безымянный_градиент_23" x1="383.3996" y1="340.37978" x2="482.09024" y2="340.37978" gradientUnits="userSpaceOnUse"><stop offset="0" stop-color="#b5b5c1"/><stop offset="0.3561" stop-color="#d2cfda"/><stop offset="0.99268" stop-color="#f0eff4"/></linearGradient><linearGradient id="Безымянный_градиент_23-2" x1="441.09313" y1="361.07631" x2="450.92179" y2="361.07631" xlink:href="#Безымянный_градиент_23"/><linearGradient id="Безымянный_градиент_33-2" x1="291.44057" y1="316.68009" x2="567.47261" y2="316.68009" gradientTransform="matrix(1, 0, 0, 1, 0, 0)" xlink:href="#Безымянный_градиент_33"/><linearGradient id="Безымянный_градиент_10" x1="291.44057" y1="317.48665" x2="567.47261" y2="317.48665" gradientUnits="userSpaceOnUse"><stop offset="0.00732" stop-color="#f0eff4"/><stop offset="0.6439" stop-color="#d2cfda"/><stop offset="1" stop-color="#b5b5c1"/></linearGradient><linearGradient id="Безымянный_градиент_10-2" x1="15.38011" y1="165.14756" x2="54.397" y2="165.14756" xlink:href="#Безымянный_градиент_10"/><linearGradient id="Безымянный_градиент_159" x1="-529.13988" y1="527.96531" x2="-488.99433" y2="527.96531" gradientTransform="matrix(0.99935, -0.03617, 0.03617, 0.99935, 523.62625, -379.82862)" gradientUnits="userSpaceOnUse"><stop offset="0" stop-color="#4d4d4d"/><stop offset="0.3561" stop-color="#1a1a1a"/><stop offset="0.99268" stop-color="#4d4d4d"/></linearGradient><linearGradient id="Безымянный_градиент_23-3" x1="1674.03375" y1="-507.91717" x2="1766.07664" y2="-507.91717" gradientTransform="translate(1124.90107 1589.85024) rotate(-111.01669)" xlink:href="#Безымянный_градиент_23"/></defs><title>Seller</title><polygon class="cls-1" points="275.299 838.331 527.693 883.029 515.469 635.423 239.215 767.916 212.841 806.229 275.299 838.331"/><polygon class="cls-2" points="453.391 788.929 883.409 940 971.008 638.752 489.812 616.607 453.391 788.929"/><path class="cls-3" d="M614.60209,388.09766a8.44281,8.44281,0,0,1-4.11585,7.28709L578.8836,414.37643l-23.22045,13.97015L486.86967,469.7284a32.42608,32.42608,0,0,1-33.30175.0378l-68.07585-40.66443-23.40942-13.97015L330.1023,396.02655a8.40449,8.40449,0,0,1-4.11539-6.72063v-1.05731a8.35868,8.35868,0,0,1,4.11539-6.75843l105.60661-63.5074,19.2938-11.59144a32.32562,32.32562,0,0,1,33.52828.07559l18.87853,11.51585,103.1523,62.86536A8.38912,8.38912,0,0,1,614.60209,388.09766Z" transform="translate(-14.49581 -30)"/><path class="cls-4" d="M614.58934,440.97058V469.024a8.39806,8.39806,0,0,1-4.11563,7.28709L486.85715,550.65478a32.34065,32.34065,0,0,1-33.30175.03779L330.08978,476.99073a8.41308,8.41308,0,0,1-4.11539-6.75843V442.1786a8.40453,8.40453,0,0,0,4.11539,6.72087l11.28932,6.72063,112.1763,67.01878a32.42556,32.42556,0,0,0,33.30175-.03757l112.47819-67.623,11.13837-6.72064A8.44256,8.44256,0,0,0,614.58934,440.97058Z" transform="translate(-14.49581 -30)"/><path class="cls-5" d="M610.48625,395.38472,578.88361,414.3764l-23.22022,13.97015-68.79371,41.38182a32.42564,32.42564,0,0,1-33.30152.03779l-68.07608-40.66442-23.40919-13.97016-31.98058-19.10506a8.4045,8.4045,0,0,1-4.11539-6.72063v52.85987a8.40451,8.40451,0,0,0,4.11539,6.72064l11.28978,6.72087L453.56816,522.626a32.42564,32.42564,0,0,0,33.30152-.03779l112.47842-67.623,11.13815-6.72064a8.44278,8.44278,0,0,0,4.11585-7.28708V388.09763A8.44281,8.44281,0,0,1,610.48625,395.38472Z" transform="translate(-14.49581 -30)"/><path class="cls-6" d="M610.4738,476.311,486.85724,550.65462a32.34107,32.34107,0,0,1-33.302.03779L330.08987,476.99056a8.413,8.413,0,0,1-4.11539-6.75843V734.305a8.40448,8.40448,0,0,0,4.11539,6.72064L362.07,760.13069l23.40919,13.97016,68.07609,40.66442a32.42647,32.42647,0,0,0,33.302-.03779l68.79324-41.38182,23.22068-13.97016,31.60264-18.99168a8.44279,8.44279,0,0,0,4.11585-7.28708V469.02388A8.3983,8.3983,0,0,1,610.4738,476.311Z" transform="translate(-14.49581 -30)"/><path class="cls-7" d="M614.61387,388.1111a8.44234,8.44234,0,0,1-4.11539,7.28708l-31.60263,18.99191-23.22069,13.97016-68.79324,41.38158a31.499,31.499,0,0,1-8.42,3.54918l-31.22121-33.93292-43.04186-52.285L460.11206,367.156,613.519,383.92012A8.18049,8.18049,0,0,1,614.61387,388.1111Z" transform="translate(-14.49581 -30)"/><path class="cls-8" d="M251.348,795.31832v-8.5167A26.14338,26.14338,0,0,1,251.348,795.31832Z" transform="translate(-14.49581 -30)"/><ellipse class="cls-9" cx="432.74492" cy="343.16543" rx="49.34532" ry="28.41716"/><ellipse class="cls-10" cx="432.74492" cy="340.37978" rx="49.34532" ry="28.41716"/><path class="cls-11" d="M441.09313,349.929l2.40675,7.44427v12.71323c0,1.18034,1.66173,2.13709,3.71118,2.13709s3.71073-.95675,3.71073-2.13709v-15.748Z" transform="translate(-14.49581 -30)"/><path class="cls-12" d="M567.47261,326.58947V467.62778l-8.05916-4.57917h-.03667a2.13989,2.13989,0,0,0-.40291-.65937c-1.35541-2.27125-2.78417-4.46938-4.21292-6.66729-.40291-.65937-.8425-1.2823-1.28208-1.94167-1.50209-2.27125-3.0404-4.5425-4.61583-6.74041a18.292,18.292,0,0,0-1.20874-1.72188c-1.50209-2.16125-3.04085-4.24937-4.61584-6.3375-.54959-.76938-1.13584-1.50209-1.72166-2.27125q-1.70376-2.3078-3.5171-4.50605c-1.1354-1.50187-2.34459-2.96729-3.59-4.43249-.91584-1.17229-1.905-2.34458-2.89373-3.48021-1.13585-1.39208-2.345-2.78417-3.59044-4.13958-.80583-.98917-1.685-1.94145-2.60083-2.93062-1.53876-1.795-3.18708-3.55355-4.8354-5.27521-.80627-.87917-1.6121-1.75833-2.49126-2.60105-1.1354-1.24541-2.34459-2.45437-3.55378-3.66333-1.31829-1.39209-2.71083-2.71083-4.06579-3.99291-1.20919-1.209-2.4546-2.41792-3.7-3.55355-1.06251-1.02561-2.125-2.05145-3.22419-2.96729-1.64832-1.53854-3.26-3.004-4.945-4.43249-.69626-.65959-1.39253-1.24563-2.08835-1.83166-1.86833-1.64855-3.77334-3.26042-5.715-4.799-.73249-.62293-1.465-1.24563-2.23413-1.83167-1.64877-1.35564-3.33421-2.67438-5.05587-3.99313-1.1354-.91583-2.30747-1.795-3.48-2.63749-1.75833-1.35564-3.51666-2.63772-5.31166-3.91979-.73293-.54959-1.4292-1.06251-2.16169-1.53876-2.12457-1.53854-4.24914-3.004-6.41083-4.43249-.58581-.40314-1.17207-.80605-1.75833-1.1723-2.60082-1.75833-5.275-3.44354-7.94914-5.09208-2.60127-1.64855-5.23876-3.22375-7.91293-4.76229-1.7221-1.02584-3.48043-2.01479-5.23876-3.004-2.96751-1.64855-5.93458-3.22375-8.975-4.799-3.00419-1.53853-6.04459-3.04063-9.085-4.50583-1.50209-.696-2.96751-1.39208-4.46916-2.08812-.91583-.43958-1.83166-.84272-2.7475-1.24563-2.235-.98895-4.4696-1.94145-6.70418-2.894-1.575-.65937-3.15041-1.31874-4.72584-1.94167-1.24541-.5127-2.52749-.98895-3.81-1.50187-1.90456-.73271-3.7729-1.42875-5.6779-2.12479-1.6121-.586-3.18708-1.1723-4.79873-1.72166-1.6121-.54959-3.2242-1.09918-4.83585-1.61188-3.22375-1.06251-6.4475-2.08812-9.70748-3.04063-1.64877-.47625-3.29753-.9525-4.90919-1.39208q-2.47248-.71438-4.94541-1.31875c-1.64876-.43958-3.29708-.84249-4.9454-1.24563-1.64833-.40291-3.29709-.80582-4.98253-1.17229-1.20874-.25624-2.41748-.54937-3.62666-.80583-2.12458-.43958-4.24915-.87916-6.37417-1.28207-2.89417-.54959-5.7879-1.09918-8.7183-1.57543-2.125-.32958-4.28626-.65938-6.41083-.95228-1.72211-.25646-3.4071-.47625-5.09254-.69605-3.40665-.43958-6.81329-.806-10.22039-1.13562-1.6121-.14668-3.22375-.29313-4.8354-.40314q-.66-.055-1.3192-.10978c-1.465-.11-2.96706-.21979-4.46915-.29313-5.01875-.29313-10.11084-.47625-15.16626-.54959V170.2749l.47626-4.5425C404.12472,167.2345,509.84845,227.38636,567.47261,326.58947Z" transform="translate(-14.49581 -30)"/><path class="cls-13" d="M291.44057,165.73236v145.509c5.05542.07334,10.14751.25646,15.16626.54959,1.50209.07334,2.96751.18312,4.46915.29313q.66.055,1.3192.10978c1.61165.11,3.2233.25646,4.8354.40314,3.4071.32957,6.81374.696,10.22039,1.13562,1.68544.21979,3.37043.43959,5.09254.69605,2.12457.2929,4.28581.6227,6.41083.95227,2.9304.47626,5.82413,1.02584,8.7183,1.57543,2.125.40292,4.24959.8425,6.37417,1.28208,1.20918.25646,2.41792.54959,3.62666.80583,1.68544.36646,3.3342.76938,4.98253,1.17229,1.64832.40314,3.29664.806,4.9454,1.24563q2.47316.60437,4.94541,1.31875c1.61166.43958,3.26042.91583,4.90919,1.39208,3.26.9525,6.48373,1.97812,9.70748,3.04063,1.61165.5127,3.22375,1.06229,4.83585,1.61188,1.61165.54936,3.18663,1.13562,4.79873,1.72166,1.905.696,3.77334,1.39208,5.6779,2.12479,1.28252.51292,2.5646.98917,3.81,1.50187,1.57543.62293,3.15086,1.2823,4.72584,1.94167,2.23458.9525,4.46916,1.905,6.70418,2.89395.91584.40292,1.83167.80605,2.7475,1.24564,1.50165.696,2.96707,1.39208,4.46916,2.08812,3.04041,1.4652,6.08081,2.96729,9.085,4.50583,3.0404,1.57521,6.00747,3.15041,8.975,4.799,1.75833.98917,3.51666,1.97812,5.23876,3.004,2.67417,1.53853,5.31166,3.11374,7.91293,4.76229,2.67416,1.64854,5.34832,3.33375,7.94914,5.09208.58626.36625,1.17252.76916,1.75833,1.17229,2.16169,1.42853,4.28626,2.894,6.41083,4.43249.73249.47626,1.42876.98918,2.16169,1.53876,1.795,1.28208,3.55333,2.56416,5.31166,3.9198,1.17251.84249,2.34458,1.72166,3.48,2.63749,1.72166,1.31875,3.4071,2.63749,5.05587,3.99313.76915.586,1.50164,1.20874,2.23413,1.83167,1.94167,1.53853,3.84668,3.15041,5.715,4.79895.69582.586,1.39209,1.17207,2.08835,1.83167,1.685,1.42853,3.29665,2.894,4.945,4.43249,1.09918.9525,2.16168,1.94167,3.22419,2.96729,1.24541,1.13562,2.49082,2.34459,3.7,3.55355,1.39163,1.28208,2.7475,2.63749,4.06579,3.99291,1.20919,1.209,2.41838,2.41792,3.55378,3.66333.87916.84272,1.685,1.72188,2.49126,2.60105,1.64832,1.72166,3.29664,3.48021,4.8354,5.2752.91584.98918,1.795,1.94145,2.60083,2.93063,1.2454,1.35541,2.45459,2.7475,3.59044,4.13958.98872,1.13562,1.97789,2.30792,2.89373,3.48021,1.2454,1.4652,2.45459,2.93062,3.59,4.43249q1.81311,2.25313,3.5171,4.50605c.58582.76916,1.17207,1.50187,1.72166,2.27125,1.575,2.08813,3.11375,4.2127,4.61584,6.33749a18.29208,18.29208,0,0,1,1.20874,1.72189c1.6121,2.19791,3.15041,4.46916,4.61583,6.7404.43958.65938.87917,1.2823,1.28208,1.94168,1.46542,2.19791,2.89418,4.43249,4.21292,6.66729a2.13989,2.13989,0,0,1,.40291.65937h.03667c1.28208,2.08813,2.52749,4.17626,3.77334,6.26416l4.28582-1.685V326.58942C509.84845,227.38631,403.64847,167.23445,291.44057,165.73236Zm4.8998,141.11209v-136.431C405.071,173.39575,507.101,232.1998,563.18679,328.27441V460.45423C505.56309,366.91962,404.02411,309.92846,296.34037,306.84445Z" transform="translate(-14.49581 -30)"/><path class="cls-14" d="M322.65864,809.173s1.80688,19.87568-1.80688,25.83839-14.72608,29.72319-24.57358,30.08456-15.87015-6.8802-10.91642-30.31745S322.65864,809.173,322.65864,809.173Z" transform="translate(-14.49581 -30)"/><path class="cls-14" d="M286.3233,783.60909a47.78356,47.78356,0,0,1,0,6.13995c-.254,1.53585-2.00406,6.23374-1.897,9.21509s-.72883,16.8588-.72883,16.8588h-4.22333s1.08413-14.32917-2.2586-16.8588-8.402,5.24-8.85371,6.86615-2.43929,16.533-1.89723,18.8819-11.022,15.53917-22.40532,14.63573-18.969-2.43915-19.42234-6.00781a19.571,19.571,0,0,1,.01191-5.83287Z" transform="translate(-14.49581 -30)"/><path class="cls-15" d="M225.40544,145.09673s-18.52053-4.87858-25.11564.90344S170.657,193.43079,148.613,216.55886s-35.41486,37.22175-39.75137,37.58312-50.23129-44.08789-50.954-46.61752S67.213,191.17219,63.59927,186.926s-9.8475,7.22752-11.92541,7.13718-2.52963-19.60466-2.52963-19.60466S48.15044,154.6732,34.59884,155.396s-15.53917,19.424-14.90677,30.08457,5.69168,34.51142,18.79156,45.80442,59.8981,57.72984,70.01663,57.18778,39.93206-27.826,54.20642-44.26858,42.82307-57.82018,44.63-55.10986,7.5889,5.782,7.5889,5.782l30.29537-24.57358Z" transform="translate(-14.49581 -30)"/><path class="cls-16" d="M283.30508,766.51616c2.433-.01565,4.84214,15.76444,2.67388,17.57132s-21.56211,12.28679-20.83936,36.499c.23722,7.94674-26.01908,14.33459-31.31926,12.40725s-13.00954-.6023-6.98661-11.44358a66.40558,66.40558,0,0,1,14.57551-17.70743Z" transform="translate(-14.49581 -30)"/><path class="cls-15" d="M379.58075,362.23988c-1.45266,33.25239-15.53978,112.74547-14.81952,123.59759.72026,10.84,6.50644,28.18639,5.774,32.15372-.72018,3.97955-4.33353,13.37908-13.36679,14.09926s-15.17358-15.18572-17.34642-15.5397c-2.16069-.3662-6.50644,4.69973-7.94688,1.08646-1.45265-3.61335,6.86043-11.57245,6.50644-17.71262-.3662-6.14024-3.97955-22.7664-.72025-29.993,1.2085-2.69782,3.16169-15.27119,5.15146-30.85976.01222-.04881.01222-.09761.02437-.14648,0-.04881.01222-.09761.01222-.14648.04887-.32955.09767-.65917.13426-.98878.1587-1.001.28081-1.98978.37842-2.99077.03665-.23194.06109-.476.08545-.708v-.03665c3.14948-25.46414,6.22571-56.61686,6.45764-66.39482.40279-16.62616-9.59489-109.62036-11.88977-110.2185-.39063-.09768-.79349.122-1.19635.54933-1.95312,2.0996-3.85743,9.20418-3.85743,9.20418s-36.49947-18.06659-37.21965-22.76632c-.73248-4.69981,1.07424-49.64662,1.07424-49.64662l12.46347-1.81885,11.91421-1.7334,4.419-.647s29.39488,16.27217,31.92178,23.4988S381.02119,328.99978,379.58075,362.23988Z" transform="translate(-14.49581 -30)"/><path class="cls-16" d="M319.71122,772.49333s4.57361,30.62663,2.94742,36.67968-9.93784,51.04438-27.19355,49.96025-9.12475-28.54872-9.12475-28.54872Z" transform="translate(-14.49581 -30)"/><path class="cls-15" d="M215.872,566.05721c-1.72682,2.61537,7.95028,71.1911,13.00954,93.59642s23.12808,98.29431,22.40532,109.85835-3.4933,26.74183-6.86614,31.31926-7.70936,10.60037-5.05927,12.52771,14.21413,7.46844,17.34605,2.65009,6.98661-17.34606,9.39578-20.95982,17.10514-21.44165,17.587-24.09174-23.12808-182.85633-23.12808-182.85633Z" transform="translate(-14.49581 -30)"/><path class="cls-15" d="M274.53538,594.60592s15.1778,175.86972,14.696,190.80661-2.891,45.172-2.891,45.172,7.10706-5.30018,12.16633-3.25238,13.00954,9.27532,13.00954,9.27532,8.07073-22.28486,8.19119-58.54294-2.65009-196.46816-2.65009-196.46816Z" transform="translate(-14.49581 -30)"/><path class="cls-17" d="M343.43534,421.872c-1.81893-15.4421-18.55491-50.74522-23.328-65.91872a19.09858,19.09858,0,0,1-1.24508-6.1158,12.57754,12.57754,0,0,1,.18306-1.26952c2.03858-12.15837,18.84788-78.956,18.84788-78.956s.1587-8.484-1.07424-11.62125c-.28074-.708-.64694-1.14747-1.08646-1.14747-2.417,0-4.57768,6.01812-9.88777,5.542-5.29787-.48825-13.00067-30.60339-11.56016-42.65186,1.45266-12.03625,11.32822-29.15072,11.32822-29.15072l-1.7334-7.31209a63.48737,63.48737,0,0,1-2.68559,7.9591l-11.91421,1.7334c-9.55824-3.58891-22.156-11.49913-23.90166-14.66082-.50046-.91554-.415-3.5767.0611-7.37311a10.05561,10.05561,0,0,0,1.89209-3.49123c.354-1.3184.354-5.005.2075-9.02112-.08546-2.80763-.24416-5.774-.39064-8.2154.81794-.43951,1.58692-.86673,2.3194-1.30617,7.10458-4.187,10.36387-7.93466,10.36387-7.93466l6.92145-29.65127v-.01214l-10.29064,5.63971-59.30245,32.53206-4.12595,2.27051s-.85452.92776-2.24616,2.47809c-5.1148,5.68851-17.50511,19.64137-21.42356,25.7083-.09768.14648-.2075.34184-.32962.56156-3.40577,6.14016-16.6506,39.11174-16.6506,49.60988,0,16.87031,15.89376,17.34641,15.89376,27.94223,0,8.64269,3.68659,42.90823,2.69781,59.44893v.02443c-.21972,3.7354-.6836,6.56747-1.48931,7.98347a35.88878,35.88878,0,0,0-1.90432,4.26029v.01222c-4.88287,12.61-12.7565,42.63963-12.54893,52.11241.24408,10.84,13.97715,179.71391,16.62616,184.2916a21.46157,21.46157,0,0,0,4.07715,3.8087c8.20326,6.59183,27.28307,19.38492,46.02105,27.30744a107.91519,107.91519,0,0,0,13.41566,4.73638c8.06893,2.2095,15.50312,2.88088,21.28931,1.01315,12.13393-3.93068,18.00558-6.53081,20.80107-8.80133,3.02735-2.47809,2.44143-4.56554,2.31931-7.58068-.23194-5.78618,6.26229-104.32249,11.57238-112.98955,3.74761-6.14025,9.424-20.33712,11.6579-34.59515.01222-.04881.01222-.09761.02437-.14648,0-.04881.01222-.09761.01222-.14648.04887-.32955.09767-.65917.13426-.98878.1587-1.001.28081-1.98978.37842-2.99077.03665-.23194.06109-.476.08545-.708v-.03665A58.00489,58.00489,0,0,0,343.43534,421.872Z" transform="translate(-14.49581 -30)"/><path class="cls-18" d="M287.33116,167.43792a10.05561,10.05561,0,0,1-1.89209,3.49123,17.65324,17.65324,0,0,1-12.74429,6.55525c-8.66714.63479-11.194-5.60313-12.195-7.94688-.7447-1.7822.0488-7.87364.48824-10.71786.13426-.90332.23194-1.47709.23194-1.47709L286.794,144.879s.17092,2.23393.354,5.32238c.14648,2.44144.30518,5.40777.39064,8.2154C287.68514,162.43294,287.68514,166.11952,287.33116,167.43792Z" transform="translate(-14.49581 -30)"/><path class="cls-19" d="M314.28461,79.04576l-7.53187,32.2514v.01214l-6.92145,29.65127s-3.25929,3.74761-10.36387,7.93466c-.73248.43944-1.50146.86666-2.3194,1.30617a84.09562,84.09562,0,0,1-26.15995,8.61826,110.46664,110.46664,0,0,1-15.36879,1.416c-6.46985.1587-11.29163-2.11182-14.83174-6.01813-4.29694-4.72416-6.71394-11.81653-7.92244-19.84887-2.96633-19.71453,1.39164-45.02,3.22271-54.19978.45166-2.25837.74462-3.54011.74462-3.54011Z" transform="translate(-14.49581 -30)"/><path d="M321.75482,352.23646c-.11576.37585-2.77526,9.4826-13.76123,15.29355-5.92671,3.1511-13.03848,4.74112-21.2485,4.74112-9.30967,0-20.06414-2.02356-32.14836-6.071-24.28419-8.09479-39.49163-18.50253-45.18613-30.93384-4.13465-8.991-1.47515-15.69816-1.3594-15.98719a2.88716,2.88716,0,0,1,2.92-1.76365c.08682.60718,1.53232,10.14747,3.29615,14.42629.17292.37567.31761.75151.52018,1.1563,3.498,7.45885,13.5876,18.27119,41.63025,27.638,20.93158,6.96743,37.81462,7.54549,48.88742,1.67683a28.19651,28.19651,0,0,0,4.59625-3.06446l.31832-.318a18.49192,18.49192,0,0,0,2.60163-2.63092c2.25507-2.37065,5.175-5.6375,6.21609-7.83452a2.84788,2.84788,0,0,1,.69381.08664A2.895,2.895,0,0,1,321.75482,352.23646Z" transform="translate(-14.49581 -30)"/><path d="M210.97115,317.48665a.225.225,0,0,1,.08682.02876c-.02894,0-.05788-.02876-.08682,0Z" transform="translate(-14.49581 -30)"/><path class="cls-20" d="M319.10639,45.54929c-51.56308-28.90657-85.76751-11.316-96.85165,3.13725s-9.15537,17.82251-9.15537,17.82251c.54933,2.80764,5.88386,8.0079,12.98844,13.65983,14.83167,11.82875,37.32947,25.6472,39.77091,23.88936,3.61335-2.61228,8.67935-3.418,8.67935,0s24.32888-2.61228,23.12038,6.5431c-.17091,1.30618-.59821,3.50345-1.19635,6.33553-1.61135,7.75152-4.51667,20.23943-6.99468,31.95836-.73248.43944-1.50146.86666-2.3194,1.30617.14648,2.44144.30518,5.40777.39064,8.2154-.91553,4.773-1.67237,9.09436-2.09959,12.51235-.4761,3.79641-.56156,6.45757-.0611,7.37311,1.74569,3.16169,14.34342,11.07191,23.90166,14.66082,5.02935,1.89209,9.2164,2.58791,10.547.75684a14.32319,14.32319,0,0,0,1.3672-2.49024,63.48737,63.48737,0,0,0,2.68559-7.9591c1.97756-7.03134,3.57669-14.61194,4.62649-14.61194,1.6846,0,5.298,8.43512,9.87563,4.57769C342.95924,169.391,370.65731,74.46807,319.10639,45.54929Z" transform="translate(-14.49581 -30)"/><polygon class="cls-21" points="255.139 209.709 287.939 221.055 284.517 230.569 253.577 220.666 255.139 209.709"/><path class="cls-22" d="M53.31924,144.60858,21.16014,121.4722c-.50807-.40158-.96418.70494-1.10959,2.69188l-4.62308,55.7221c-.21274,2.90693.31766,6.30961,1.06143,6.80944l32.96017,22.15c.50189.33728.94471-.7948,1.08244-2.76734l3.822-54.73571C54.55258,148.49174,54.04417,145.18155,53.31924,144.60858Z" transform="translate(-14.49581 -30)"/><path class="cls-23" d="M52.43494,145.64845,20.27585,122.51206c-.50808-.40157-.96419.70495-1.1096,2.69188l-4.62308,55.72211c-.21273,2.90693.31767,6.30961,1.06144,6.80944l32.96017,22.15c.50189.33728.9447-.7948,1.08244-2.76734l3.822-54.73571C53.66829,149.53161,53.15987,146.22142,52.43494,145.64845Z" transform="translate(-14.49581 -30)"/><path class="cls-24" d="M52.43266,145.64428l-32.163-23.132a.35354.35354,0,0,0-.21275-.09991l-.0123.00044c-.20871.00755-.39557.283-.53776.77208a5.06442,5.06442,0,0,0-.20223.86722,10.38739,10.38739,0,0,0-.14347,1.13411l-4.61171,55.747c-.21445,2.91061.31338,6.278,1.05731,6.78843l32.953,22.19c.06133-.00222.12473.049.18606.04674.43-.01556.78417-1.10317.90627-2.82771l3.81135-54.75082C53.66755,149.52375,53.154,146.2097,52.43266,145.64428Zm.13345,5.04793L48.75475,205.443c-.02717.26968-.08088.48652-.17924.49008L15.61056,183.74385c-.07571-.05107-.12036-.26435-.15079-.42466a3.7292,3.7292,0,0,1-.03171-.53625l4.63255-55.85533c.01487-.26956.08072-.48684.14205-.48906l.05112.052,32.15053,23.13277c.0757.05073.12037.26434.13654.371A2.61984,2.61984,0,0,1,52.56611,150.69221Z" transform="translate(-14.49581 -30)"/><path class="cls-24" d="M52.43266,145.64428l-32.163-23.132a.35354.35354,0,0,0-.21275-.09991l-.0123.00044c-.20871.00755-.39557.283-.53776.77208a5.06442,5.06442,0,0,0-.20223.86722,10.38739,10.38739,0,0,0-.14347,1.13411l-4.61171,55.747c-.21445,2.91061.31338,6.278,1.05731,6.78843l32.953,22.19c.06133-.00222.12473.049.18606.04674.43-.01556.78417-1.10317.90627-2.82771l3.81135-54.75082C53.66755,149.52375,53.154,146.2097,52.43266,145.64428Zm.13345,5.04793L48.75475,205.443c-.02717.26968-.08088.48652-.17924.49008L15.61056,183.74385c-.07571-.05107-.12036-.26435-.15079-.42466a3.7292,3.7292,0,0,1-.03171-.53625l4.63255-55.85533c.01487-.26956.08072-.48684.14205-.48906l.05112.052,32.15053,23.13277c.0757.05073.12037.26434.13654.371A2.61984,2.61984,0,0,1,52.56611,150.69221Z" transform="translate(-14.49581 -30)"/></svg>