<svg id="Слой_1" data-name="Слой 1" xmlns="http://www.w3.org/2000/svg" xmlns:xlink="http://www.w3.org/1999/xlink" viewBox="0 0 826.09728 992.36549"><defs><style>.cls-1{fill:url(#Безымянный_градиент_81);}.cls-2{fill:url(#Безымянный_градиент_33);}.cls-3{fill:url(#Безымянный_градиент_77);}.cls-4{fill:url(#Безымянный_градиент_22);}.cls-5{fill:url(#Безымянный_градиент_22-2);}.cls-6{fill:url(#Безымянный_градиент_35);}.cls-7{fill:url(#Безымянный_градиент_81-2);}.cls-8{fill:#27424d;}.cls-9{fill:#1d363a;}.cls-10{fill:#e3e7e8;}.cls-11{fill:#12171a;}.cls-12{fill:#e66c55;}.cls-13{fill:#e64936;}.cls-14{fill:#e4361e;}.cls-15{fill:#ffc20f;}.cls-16{fill:#e8ac00;}.cls-17{fill:#d29b02;}.cls-18{fill:#101519;}.cls-19{fill:#0b162c;}.cls-20{fill:#fbc50b;}.cls-21{fill:url(#Безымянный_градиент_28);}.cls-22{fill:url(#Безымянный_градиент_81-3);}.cls-23{fill:url(#Безымянный_градиент_33-2);}.cls-24{fill:url(#Безымянный_градиент_77-2);}.cls-25{fill:url(#Безымянный_градиент_22-3);}.cls-26{fill:url(#Безымянный_градиент_22-4);}.cls-27{fill:url(#Безымянный_градиент_54);}.cls-28{fill:url(#Безымянный_градиент_81-4);}.cls-29{fill:url(#Безымянный_градиент_104);}.cls-30{fill:url(#Безымянный_градиент_77-3);}.cls-31{fill:url(#Безымянный_градиент_95);}.cls-32{fill:url(#Безымянный_градиент_77-4);}.cls-33{fill:url(#Безымянный_градиент_104-2);}.cls-34{fill:url(#Безымянный_градиент_104-3);}.cls-35{fill:url(#Безымянный_градиент_80);}.cls-36{fill:url(#Безымянный_градиент_95-2);}.cls-37{fill:url(#Безымянный_градиент_104-4);}.cls-38{fill:url(#Безымянный_градиент_77-5);}.cls-39{fill:url(#Безымянный_градиент_39);}.cls-40{fill:url(#Безымянный_градиент_95-3);}.cls-41{fill:url(#Безымянный_градиент_95-4);}.cls-42{fill:url(#Безымянный_градиент_103);}.cls-43{fill:url(#Безымянный_градиент_104-5);}.cls-44{fill:url(#Безымянный_градиент_77-6);}.cls-45{fill:url(#Безымянный_градиент_104-6);}.cls-46{fill:url(#Безымянный_градиент_38);}.cls-47{fill:url(#Безымянный_градиент_33-3);}.cls-48{fill:url(#Безымянный_градиент_38-2);}.cls-49{fill:url(#Безымянный_градиент_63);}.cls-50{fill:url(#Безымянный_градиент_33-4);}.cls-51{fill:url(#Безымянный_градиент_23);}.cls-52{fill:url(#Безымянный_градиент_23-2);}.cls-53{fill:url(#Безымянный_градиент_33-5);}.cls-54{fill:url(#Безымянный_градиент_38-3);}.cls-55{fill:url(#Безымянный_градиент_23-3);}.cls-56{fill:url(#Безымянный_градиент_23-4);}.cls-57{fill:url(#Безымянный_градиент_33-6);}.cls-58{fill:url(#Безымянный_градиент_33-7);}.cls-59{fill:url(#Безымянный_градиент_38-4);}.cls-60{fill:url(#Безымянный_градиент_23-5);}.cls-61{fill:url(#Безымянный_градиент_23-6);}.cls-62{fill:url(#Безымянный_градиент_38-5);}.cls-63{fill:url(#Безымянный_градиент_44);}.cls-64{fill:url(#Безымянный_градиент_81-5);}.cls-65{fill:#d7e3f4;}.cls-66{fill:#474c69;}.cls-67{fill:#3f4155;}.cls-68{fill:#b53010;}.cls-69{fill:#e64415;}.cls-70{fill:#eaa7a7;}.cls-71{fill:#fcafae;}.cls-72{fill:#fff;}.cls-73{fill:#468939;}.cls-74{fill:#c02827;}.cls-75{fill:#007ee4;}.cls-76{fill:#714a4a;}.cls-77{fill:#3e384d;}.cls-78{fill:#d6d6dc;}.cls-79{fill:#b7b7c7;}</style><linearGradient id="Безымянный_градиент_81" x1="-5370.49901" y1="1797.24227" x2="-5021.70846" y2="1797.24227" gradientTransform="translate(5722.53338 -128.74053) rotate(10.74042)" gradientUnits="userSpaceOnUse"><stop offset="0" stop-color="#b5b5c1" stop-opacity="0.3"/><stop offset="0.99512" stop-color="#fdfdfd" stop-opacity="0"/></linearGradient><linearGradient id="Безымянный_градиент_33" x1="-5597.55186" y1="278.77377" x2="-5388.07609" y2="278.77377" gradientTransform="translate(5684.50322)" gradientUnits="userSpaceOnUse"><stop offset="0.57561" stop-color="#fbfbfd"/><stop offset="1" stop-color="#f3f3f5"/></linearGradient><linearGradient id="Безымянный_градиент_77" x1="-5597.55186" y1="358.66314" x2="-5388.07609" y2="358.66314" gradientTransform="translate(5684.50322)" gradientUnits="userSpaceOnUse"><stop offset="0" stop-color="#f77f48"/><stop offset="0.45366" stop-color="#ff9c88"/><stop offset="1" stop-color="#f77f48"/></linearGradient><linearGradient id="Безымянный_градиент_22" x1="-5597.55163" y1="329.29457" x2="-5388.0762" y2="329.29457" gradientTransform="translate(5684.50322)" gradientUnits="userSpaceOnUse"><stop offset="0" stop-color="#fdfdfd"/><stop offset="0.43171" stop-color="#fbfafb"/><stop offset="0.56585" stop-color="#f0eff4"/></linearGradient><linearGradient id="Безымянный_градиент_22-2" x1="-5597.5416" y1="520.6933" x2="-5388.06616" y2="520.6933" xlink:href="#Безымянный_градиент_22"/><linearGradient id="Безымянный_градиент_35" x1="141.60912" y1="117.43354" x2="238.23062" y2="38.49813" gradientUnits="userSpaceOnUse"><stop offset="0" stop-color="#ff9c88" stop-opacity="0.2"/><stop offset="1" stop-color="#f77f48" stop-opacity="0.3"/></linearGradient><linearGradient id="Безымянный_градиент_81-2" x1="-5491.9986" y1="302.11749" x2="-5388.06778" y2="302.11749" gradientTransform="translate(5684.50322)" xlink:href="#Безымянный_градиент_81"/><linearGradient id="Безымянный_градиент_28" x1="191.69453" y1="76.99624" x2="191.69453" y2="342.13008" gradientUnits="userSpaceOnUse"><stop offset="0" stop-color="#ff9c88" stop-opacity="0.2"/><stop offset="1" stop-color="#f77f48" stop-opacity="0.5"/></linearGradient><linearGradient id="Безымянный_градиент_81-3" x1="-5048.78156" y1="1613.57101" x2="-4699.22142" y2="1613.57101" xlink:href="#Безымянный_градиент_81"/><linearGradient id="Безымянный_градиент_33-2" x1="-5251.18583" y1="268.85818" x2="-5041.24786" y2="268.85818" xlink:href="#Безымянный_градиент_33"/><linearGradient id="Безымянный_градиент_77-2" x1="-5251.19494" y1="348.9333" x2="-5041.25714" y2="348.9333" xlink:href="#Безымянный_градиент_77"/><linearGradient id="Безымянный_градиент_22-3" x1="-5251.18583" y1="319.49054" x2="-5041.24785" y2="319.49054" xlink:href="#Безымянный_градиент_22"/><linearGradient id="Безымянный_градиент_22-4" x1="-5251.19488" y1="455.174" x2="-5041.2569" y2="455.174" xlink:href="#Безымянный_градиент_22"/><linearGradient id="Безымянный_градиент_54" x1="488.20097" y1="107.65411" x2="584.82248" y2="28.71869" gradientUnits="userSpaceOnUse"><stop offset="0" stop-color="#f0eff4" stop-opacity="0.2"/><stop offset="1" stop-color="#d2cfda" stop-opacity="0.3"/></linearGradient><linearGradient id="Безымянный_градиент_81-4" x1="-5177.96002" y1="285.58181" x2="-5041.59401" y2="285.58181" gradientTransform="translate(5684.50322)" xlink:href="#Безымянный_градиент_81"/><linearGradient id="Безымянный_градиент_104" x1="513.98076" y1="198.83838" x2="551.38093" y2="198.83838" gradientUnits="userSpaceOnUse"><stop offset="0.57561" stop-color="#ff9c88"/><stop offset="1" stop-color="#f77f48"/></linearGradient><linearGradient id="Безымянный_градиент_77-3" x1="383.23148" y1="227.6739" x2="409.25636" y2="212.64843" gradientTransform="matrix(1, 0, 0, 1, 0, 0)" xlink:href="#Безымянный_градиент_77"/><linearGradient id="Безымянный_градиент_95" x1="490.19489" y1="220.46142" x2="539.87503" y2="220.46142" gradientUnits="userSpaceOnUse"><stop offset="0" stop-color="#ef6452"/><stop offset="0.3561" stop-color="#f77f48"/></linearGradient><linearGradient id="Безымянный_градиент_77-4" x1="476.87269" y1="249.11932" x2="497.94369" y2="249.11932" gradientTransform="matrix(1, 0, 0, 1, 0, 0)" xlink:href="#Безымянный_градиент_77"/><linearGradient id="Безымянный_градиент_104-2" x1="489.46116" y1="204.7974" x2="513.32708" y2="185.06565" xlink:href="#Безымянный_градиент_104"/><linearGradient id="Безымянный_градиент_104-3" x1="478.5381" y1="230.55365" x2="502.17676" y2="228.60893" xlink:href="#Безымянный_градиент_104"/><linearGradient id="Безымянный_градиент_80" x1="408.27722" y1="247.96653" x2="419.58312" y2="245.98736" gradientUnits="userSpaceOnUse"><stop offset="0" stop-color="#e64415"/><stop offset="0.3561" stop-color="#f77f48"/></linearGradient><linearGradient id="Безымянный_градиент_95-2" x1="452.92297" y1="217.82544" x2="464.4289" y2="217.82544" xlink:href="#Безымянный_градиент_95"/><linearGradient id="Безымянный_градиент_104-4" x1="413.42021" y1="242.82232" x2="480.55885" y2="204.11787" xlink:href="#Безымянный_градиент_104"/><linearGradient id="Безымянный_градиент_77-5" x1="405.11316" y1="265.18363" x2="424.64841" y2="253.92185" gradientTransform="matrix(1, 0, 0, 1, 0, 0)" xlink:href="#Безымянный_градиент_77"/><linearGradient id="Безымянный_градиент_39" x1="411.98836" y1="266.71695" x2="491.03719" y2="221.14646" gradientUnits="userSpaceOnUse"><stop offset="0" stop-color="#f77f48"/><stop offset="1" stop-color="#ef6452"/></linearGradient><linearGradient id="Безымянный_градиент_95-3" x1="580.68677" y1="270.98916" x2="607.0055" y2="255.81681" xlink:href="#Безымянный_градиент_95"/><linearGradient id="Безымянный_градиент_95-4" x1="560.93711" y1="253.86752" x2="584.50873" y2="240.27884" xlink:href="#Безымянный_градиент_95"/><linearGradient id="Безымянный_градиент_103" x1="487.17517" y1="268.45267" x2="507.42692" y2="256.77783" gradientUnits="userSpaceOnUse"><stop offset="0" stop-color="#f77f48"/><stop offset="0.3561" stop-color="#ff9c88"/></linearGradient><linearGradient id="Безымянный_градиент_104-5" x1="523.01804" y1="259.23857" x2="571.36765" y2="246.5249" xlink:href="#Безымянный_градиент_104"/><linearGradient id="Безымянный_градиент_77-6" x1="519.09797" y1="288.38557" x2="578.25959" y2="254.27976" gradientTransform="matrix(1, 0, 0, 1, 0, 0)" xlink:href="#Безымянный_градиент_77"/><linearGradient id="Безымянный_градиент_104-6" x1="564.9885" y1="235.55029" x2="599.67781" y2="233.41031" xlink:href="#Безымянный_градиент_104"/><linearGradient id="Безымянный_градиент_38" x1="476.87269" y1="229.71324" x2="497.94369" y2="229.71324" gradientUnits="userSpaceOnUse"><stop offset="0" stop-color="#fdfdfd"/><stop offset="1" stop-color="#f0eff4"/></linearGradient><linearGradient id="Безымянный_градиент_33-3" x1="478.5381" y1="226.84618" x2="502.17676" y2="224.90146" gradientTransform="matrix(1, 0, 0, 1, 0, 0)" xlink:href="#Безымянный_градиент_33"/><linearGradient id="Безымянный_градиент_38-2" x1="389.10826" y1="203.10593" x2="403.24337" y2="198.52903" xlink:href="#Безымянный_градиент_38"/><linearGradient id="Безымянный_градиент_63" x1="513.98076" y1="195.13091" x2="551.38093" y2="195.13091" gradientUnits="userSpaceOnUse"><stop offset="0.00732" stop-color="#d2cfda"/><stop offset="0.29756" stop-color="#fbfbfd"/><stop offset="0.57561" stop-color="#fbfbfd"/><stop offset="1" stop-color="#f3f3f5"/></linearGradient><linearGradient id="Безымянный_градиент_33-4" x1="489.46116" y1="201.08993" x2="513.32708" y2="181.35818" gradientTransform="matrix(1, 0, 0, 1, 0, 0)" xlink:href="#Безымянный_градиент_33"/><linearGradient id="Безымянный_градиент_23" x1="410.51489" y1="228.16775" x2="416.83723" y2="227.06097" gradientUnits="userSpaceOnUse"><stop offset="0" stop-color="#b5b5c1"/><stop offset="0.3561" stop-color="#d2cfda"/><stop offset="0.99268" stop-color="#f0eff4"/></linearGradient><linearGradient id="Безымянный_градиент_23-2" x1="490.19489" y1="201.05782" x2="539.87503" y2="201.05782" xlink:href="#Безымянный_градиент_23"/><linearGradient id="Безымянный_градиент_33-5" x1="413.42021" y1="239.11485" x2="480.55885" y2="200.4104" gradientTransform="matrix(1, 0, 0, 1, 0, 0)" xlink:href="#Безымянный_градиент_33"/><linearGradient id="Безымянный_градиент_38-3" x1="411.70166" y1="241.98192" x2="417.9551" y2="238.3769" xlink:href="#Безымянный_градиент_38"/><linearGradient id="Безымянный_градиент_23-3" x1="418.77986" y1="243.39822" x2="484.24569" y2="205.65813" xlink:href="#Безымянный_градиент_23"/><linearGradient id="Безымянный_градиент_23-4" x1="452.92297" y1="198.42191" x2="464.4289" y2="198.42191" xlink:href="#Безымянный_градиент_23"/><linearGradient id="Безымянный_градиент_33-6" x1="523.01804" y1="255.5311" x2="571.36765" y2="242.81743" gradientTransform="matrix(1, 0, 0, 1, 0, 0)" xlink:href="#Безымянный_градиент_33"/><linearGradient id="Безымянный_градиент_33-7" x1="564.9885" y1="231.84282" x2="599.67781" y2="229.70284" gradientTransform="matrix(1, 0, 0, 1, 0, 0)" xlink:href="#Безымянный_градиент_33"/><linearGradient id="Безымянный_градиент_38-4" x1="525.86081" y1="265.08335" x2="571.46809" y2="238.79143" xlink:href="#Безымянный_градиент_38"/><linearGradient id="Безымянный_градиент_23-5" x1="587.49174" y1="247.63155" x2="600.20053" y2="240.30511" xlink:href="#Безымянный_градиент_23"/><linearGradient id="Безымянный_градиент_23-6" x1="567.72769" y1="230.54719" x2="577.71631" y2="224.7889" xlink:href="#Безымянный_градиент_23"/><linearGradient id="Безымянный_градиент_38-5" x1="493.77674" y1="245.2123" x2="500.72034" y2="241.20942" xlink:href="#Безымянный_градиент_38"/><linearGradient id="Безымянный_градиент_44" x1="538.28638" y1="67.2168" x2="538.28638" y2="332.35064" gradientUnits="userSpaceOnUse"><stop offset="0" stop-color="#f0eff4" stop-opacity="0.2"/><stop offset="1" stop-color="#d2cfda" stop-opacity="0.5"/></linearGradient><linearGradient id="Безымянный_градиент_81-5" x1="-5139.93375" y1="1966.9996" x2="-4883.62556" y2="1966.9996" xlink:href="#Безымянный_градиент_81"/></defs><title>Work_and_study</title><polygon class="cls-1" points="99.299 698.824 411.405 808.471 474.984 589.827 125.734 573.754 99.299 698.824"/><path class="cls-2" d="M296.42713,278.81152a6.12774,6.12774,0,0,1-2.98727,5.28893l-22.93707,13.78409L253.64948,308.024l-49.93,30.03476a23.53473,23.53473,0,0,1-24.17028.02743L130.14,308.57214,113.1495,298.43265,89.93829,284.56627a6.09991,6.09991,0,0,1-2.98693-4.87781v-.76739a6.06666,6.06666,0,0,1,2.98693-4.90524l76.64886-46.09342,14.00337-8.413a23.46183,23.46183,0,0,1,24.3347.05487l13.702,8.35816,74.86754,45.62743A6.08881,6.08881,0,0,1,296.42713,278.81152Z" transform="translate(-86.95136 -3.81725)"/><path class="cls-3" d="M296.42713,317.177v20.3611a6.09545,6.09545,0,0,1-2.98727,5.28893l-89.72042,53.95834a23.47274,23.47274,0,0,1-24.17028.02743L89.93829,343.32029a6.10589,6.10589,0,0,1-2.98693-4.90524V318.054a6.09992,6.09992,0,0,0,2.98693,4.87781l8.19392,4.878,81.417,48.642a23.53468,23.53468,0,0,0,24.17028-.02743l81.6364-49.08052,8.084-4.87781A6.12777,6.12777,0,0,0,296.42713,317.177Z" transform="translate(-86.95136 -3.81725)"/><path class="cls-4" d="M89.93819,322.93165l8.19408,4.878,81.41695,48.642a23.53444,23.53444,0,0,0,24.17012-.02743l81.63639-49.08053,8.084-4.87781a6.12775,6.12775,0,0,0,2.98726-5.28894V278.8114a6.12776,6.12776,0,0,1-2.98726,5.28894L270.503,297.88442l-16.85348,10.13949-49.9302,30.03476a23.53444,23.53444,0,0,1-24.17012.02743L130.1402,308.572l-16.99063-10.13948L89.93819,284.56616a6.09957,6.09957,0,0,1-2.9866-4.87781v38.36549A6.09957,6.09957,0,0,0,89.93819,322.93165Z" transform="translate(-86.95136 -3.81725)"/><path class="cls-5" d="M293.45046,342.81606,203.73,396.77439a23.473,23.473,0,0,1-24.17045.02743l-67.19447-40.11939-2.02787-1.20577-16.88091-10.0572-3.50745-2.11015a6.10611,6.10611,0,0,1-2.98727-4.90525V642.1218a6.0671,6.0671,0,0,0,2.98727,4.90525l38.03633,22.71779L179.55959,700.547a23.53509,23.53509,0,0,0,24.17045-.05486L254.893,669.74484l3.3432-2.00043L288.62734,649.466l4.82312-2.90481a6.12709,6.12709,0,0,0,2.9866-5.28894V337.52712A6.0948,6.0948,0,0,1,293.45046,342.81606Z" transform="translate(-86.95136 -3.81725)"/><path class="cls-6" d="M296.43524,76.28058a6.1035,6.1035,0,0,1-3.0061,5.28176L270.4995,95.34581l-16.854,10.15519-49.91739,30.0148a23.48478,23.48478,0,0,1-24.17454.043l-49.42362-29.521-16.983-10.1337L89.9379,82.03461a6.06692,6.06692,0,0,1-2.98408-4.87369v-.77315a6.041,6.041,0,0,1,2.98408-4.89492l8.78136-5.28176,67.8664-40.8142,13.99838-8.416a23.45885,23.45885,0,0,1,24.34647.043l13.698,8.373,66.96432,40.8142,7.90076,4.80922A6.07343,6.07343,0,0,1,296.43524,76.28058Z" transform="translate(-86.95136 -3.81725)"/><path class="cls-7" d="M296.43544,279.144a5.48782,5.48782,0,0,1-2.67515,4.73687l-20.54285,12.34542-15.09427,9.0811-44.71808,26.89952a20.47555,20.47555,0,0,1-5.47329,2.30709l-15.42718-15.77631L255.87914,269.721l39.8446,6.69864A5.31764,5.31764,0,0,1,296.43544,279.144Z" transform="translate(-86.95136 -3.81725)"/><polygon class="cls-8" points="40.975 274.903 43.194 273.526 43.194 276.19 40.975 274.903"/><polygon class="cls-8" points="105.706 298.087 167.877 261.895 101.574 222.567 40.975 260.595 105.706 298.087"/><path class="cls-9" d="M192.50462,318.73765,254.82841,282.546s2.561-5.356,1.64279-10.02347a60.08233,60.08233,0,0,0-1.64279-6.80984l-62.17076,36.19162Z" transform="translate(-86.95136 -3.81725)"/><polygon class="cls-10" points="43.194 264.548 43.194 276.19 101.651 310.1 101.957 298.317 43.194 264.548"/><path class="cls-11" d="M127.92592,264.412l64.73173,37.49237s2.678,6.12121,1.60682,11.1712-1.75985,5.66211-1.75985,5.66211l-64.5787-37.41586v-2.60151l60.67643,35.19692.30606-11.78331L127.92592,267.09Z" transform="translate(-86.95136 -3.81725)"/><polygon class="cls-12" points="157.19 255.028 155.162 253.769 155.162 256.204 157.19 255.028"/><polygon class="cls-12" points="98.032 276.216 41.214 243.141 101.808 207.198 157.19 241.952 98.032 276.216"/><path class="cls-13" d="M185.12328,295.41727l-56.9577-33.0755s-2.34047-4.8949-1.50134-9.16045a54.90848,54.90848,0,0,1,1.50134-6.22351l56.81784,33.07551Z" transform="translate(-86.95136 -3.81725)"/><polygon class="cls-10" points="155.162 245.565 155.162 256.204 101.738 287.195 101.458 276.426 155.162 245.565"/><path class="cls-14" d="M244.14173,245.76905l-59.15831,34.26427s-2.44745,5.59416-1.46847,10.20935,1.60833,5.1746,1.60833,5.1746l59.01845-34.19434v-2.37752l-55.45217,32.16646-.27971-10.76877,55.73188-32.0266Z" transform="translate(-86.95136 -3.81725)"/><polygon class="cls-15" points="33.411 233.737 35.439 232.479 35.439 234.914 33.411 233.737"/><path class="cls-16" d="M179.38107,274.12644l56.95769-33.07551s2.34047-4.8949,1.50134-9.16045a54.90848,54.90848,0,0,0-1.50134-6.22351l-56.81784,33.07551Z" transform="translate(-86.95136 -3.81725)"/><polygon class="cls-10" points="35.439 224.274 35.439 234.914 88.863 265.904 89.143 255.135 35.439 224.274"/><path class="cls-17" d="M120.771,224.47821l58.75,34.26427s2.44745,5.59417,1.46847,10.20935-1.60832,5.17461-1.60832,5.17461L120.36261,239.9321v-2.37753L175.81478,269.721l.27971-10.76877L120.771,227.16452Z" transform="translate(-86.95136 -3.81725)"/><path class="cls-15" d="M179.52092,258.74248,236.33876,225.667l-60.5939-35.94252-54.76953,34.36926a.43627.43627,0,0,0,.01324.74705Z" transform="translate(-86.95136 -3.81725)"/><path class="cls-8" d="M146.36278,211.77327v17.81986s3.63374,18.86668,36.42746,18.86668,33.96-19.48413,33.96-19.48413V211.07645Z" transform="translate(-86.95136 -3.81725)"/><path class="cls-8" d="M181.95255,157.68383l56.75463,32.98782a1.61174,1.61174,0,0,1-.00042,2.78716l-56.20918,32.64806a1.61176,1.61176,0,0,1-1.61232.00387L123.741,193.28527a1.61174,1.61174,0,0,1-.00552-2.792l56.59878-32.81041A1.61174,1.61174,0,0,1,181.95255,157.68383Z" transform="translate(-86.95136 -3.81725)"/><path class="cls-18" d="M239.511,191.89542v4.45738a2.67421,2.67421,0,0,1-1.33408,2.31419L182.5531,230.87854a2.67421,2.67421,0,0,1-2.66476.00892l-55.60867-31.70761a2.67422,2.67422,0,0,1-1.3496-2.32312v-4.96131a1.5868,1.5868,0,0,0,.81228,1.3886l57.14058,32.82668a1.61427,1.61427,0,0,0,1.61372-.00549l56.20756-32.64552a1.58934,1.58934,0,0,0,.79031-1.56427Z" transform="translate(-86.95136 -3.81725)"/><ellipse class="cls-19" cx="94.39815" cy="188.17973" rx="4.61948" ry="2.6299"/><path class="cls-20" d="M180.572,191.15084c-.77753.91475.77754,1.87524.77754,1.87524l29.11713,16.83408.24628,34.712s-2.33261.7318-2.24113,4.11637-3.33883,8.55289-2.51556,10.47386,3.659,2.51556,5.9916,2.28687,4.75669-1.41786,5.16833-3.01867-3.06441-7.86683-3.11015-9.97075c0,0-.45737-3.52178-1.738-3.61325l-.052-36.00241-29.63153-16.94892S181.13225,190.61343,180.572,191.15084Z" transform="translate(-86.95136 -3.81725)"/><path class="cls-21" d="M296.43524,76.28058V278.80552a6.13683,6.13683,0,0,1-3.0061,5.303L270.4995,297.89224l-16.854,10.134L203.72807,338.0625a23.53452,23.53452,0,0,1-24.17454.02149l-49.42362-29.521-16.983-10.134-23.209-13.86943a6.06656,6.06656,0,0,1-2.98408-4.8737V77.16092a6.06692,6.06692,0,0,0,2.98408,4.87369l23.209,13.86944,16.983,10.1337,49.42362,29.521a23.48478,23.48478,0,0,0,24.17454-.043l49.91739-30.0148,16.854-10.15519,22.92964-13.78347A6.1035,6.1035,0,0,0,296.43524,76.28058Z" transform="translate(-86.95136 -3.81725)"/><polygon class="cls-22" points="449.584 578.464 762.378 688.353 826.097 469.226 476.076 453.118 449.584 578.464"/><path class="cls-23" d="M643.25536,268.896a6.14127,6.14127,0,0,1-2.99386,5.3006l-22.98768,13.8145L600.38332,298.173l-50.0402,30.101a23.58668,23.58668,0,0,1-24.22362.0275l-49.51821-29.57921-17.028-10.16185-23.26243-13.897a6.11341,6.11341,0,0,1-2.99352-4.88857v-.76909a6.08008,6.08008,0,0,1,2.99352-4.91606l76.818-46.19513,14.03426-8.43158a23.51359,23.51359,0,0,1,24.3884.055l13.73219,8.3766,75.03273,45.72811A6.10222,6.10222,0,0,1,643.25536,268.896Z" transform="translate(-86.95136 -3.81725)"/><path class="cls-24" d="M643.24609,307.35563v20.406a6.10873,6.10873,0,0,1-2.9937,5.3006L550.334,387.13965a23.52451,23.52451,0,0,1-24.22361.02749L436.30181,333.5566a6.11964,6.11964,0,0,1-2.99353-4.91606V308.23435a6.11345,6.11345,0,0,0,2.99353,4.88874l8.21182,4.88857L526.1104,366.761a23.58627,23.58627,0,0,0,24.22361-.02733l81.81636-49.18882,8.102-4.88857A6.14111,6.14111,0,0,0,643.24609,307.35563Z" transform="translate(-86.95136 -3.81725)"/><path class="cls-25" d="M640.26151,274.19659l-22.98768,13.8145L600.3835,298.173l-50.04038,30.101a23.58633,23.58633,0,0,1-24.22344.02749l-49.51838-29.5792-17.02779-10.16186-23.26259-13.897a6.1134,6.1134,0,0,1-2.99352-4.88858V308.225a6.11339,6.11339,0,0,0,2.99352,4.88857l8.21216,4.88875,81.5966,48.74929a23.58633,23.58633,0,0,0,24.22344-.02749l81.81653-49.18882,8.10186-4.88857a6.14127,6.14127,0,0,0,2.99386-5.30061V268.896A6.14127,6.14127,0,0,1,640.26151,274.19659Z" transform="translate(-86.95136 -3.81725)"/><path class="cls-26" d="M640.25246,333.06215l-89.91839,54.07739a23.52482,23.52482,0,0,1-24.22378.02749l-89.80842-53.61055a6.11964,6.11964,0,0,1-2.99353-4.91606V520.72637a6.1134,6.1134,0,0,0,2.99353,4.88857l23.26226,13.897,17.02779,10.16186,49.51837,29.5792a23.58694,23.58694,0,0,0,24.22378-.02749l50.04-30.101,16.89067-10.16186,22.98768-13.8145a6.14129,6.14129,0,0,0,2.99386-5.30061V327.76154A6.10892,6.10892,0,0,1,640.25246,333.06215Z" transform="translate(-86.95136 -3.81725)"/><path class="cls-27" d="M643.02709,66.50114A6.1035,6.1035,0,0,1,640.021,71.7829L617.09135,85.56637l-16.854,10.1552-49.91738,30.0148a23.4848,23.4848,0,0,1-24.17454.043l-49.42363-29.521-16.983-10.1337-23.209-13.86943a6.06691,6.06691,0,0,1-2.98407-4.8737v-.77315a6.041,6.041,0,0,1,2.98407-4.89492l8.78136-5.28176,67.86641-40.81419,13.99838-8.416a23.45883,23.45883,0,0,1,24.34646.043l13.698,8.373,66.96431,40.81419,7.90076,4.80922A6.07341,6.07341,0,0,1,643.02709,66.50114Z" transform="translate(-86.95136 -3.81725)"/><path class="cls-28" d="M642.90922,269.42a5.48784,5.48784,0,0,1-2.67515,4.73687l-20.54285,12.34542-15.09428,9.08111L559.87886,322.483a20.47555,20.47555,0,0,1-5.47329,2.30709L506.5432,283.72359l63.05806-37.35,72.59625,20.32219A5.31759,5.31759,0,0,1,642.90922,269.42Z" transform="translate(-86.95136 -3.81725)"/><path class="cls-29" d="M516.5169,190.3905q-1.27846,0-2.53614.04309l.38944,3.856.0016.016.53467,5.27972.008.03033q.80919-.03113,1.63275-.03033a46.35276,46.35276,0,0,1,4.73546.23941q.53389.05507,1.0598.1213c.233.02873.46443.05906.69427.09258.091.01276.182.02553.27132.0399.1245.01755.249.0367.37187.05585.15164.024.30487.04948.45489.075l.35911.06225c.0814.01277.1628.02873.2442.0431.10693.02075.21387.0399.32081.06065.15321.02873.30483.059.45645.08938.30327.06225.60491.12608.90338.19471.14843.03352.29685.06863.44529.10375.1181.02713.23781.05586.35432.08618.04789.01117.09576.024.142.03512.12769.03192.25538.06383.38145.099.14525.03671.29048.07661.43412.11651.14365.0383.2857.0798.42775.1197q.42855.1245.84592.25538c.13883.04308.27771.08778.41654.13246.13728.04629.27452.091.41179.13886.1229.0399.2442.083.36551.12609l.0798.02873c.09574.03351.18832.067.2825.10055.19471.07183.38623.14524.57615.21866.099.0383.19631.07661.29529.11491.12927.05267.25854.10375.38782.158.1277.05267.25539.10694.38306.1612.12607.05427.25217.10853.37666.1644.099.04308.19472.08618.29209.13087.30324.13886.60012.27931.89059.42455.08617.04309.17077.08618.25536.12768.1261.06544.249.12928.37189.19472.17874.09576.35592.19153.53148.29048.067.03671.13406.07342.19951.11172.12288.06864.24258.13886.36228.21068.024.01437.04789.02873.07184.0415.08459.05107.16757.10055.25057.15162.075.04629.15.09258.22505.14046q.87144.54583,1.6519,1.14117c.08619.06544.17239.13247.257.19791.01594.01436.03191.02553.04787.0383.09256.07342.18355.14684.27294.22186.1181.09576.23461.19311.34792.29207.08779.075.174.15.25856.22664q.28971.25856.56341.5251l11.5059-6.64275C543.54752,194.4301,530.84938,190.3905,516.5169,190.3905Z" transform="translate(-86.95136 -3.81725)"/><polygon class="cls-30" points="388.946 197.648 388.946 238.245 403.244 242.846 403.244 202.25 388.946 197.648"/><path class="cls-31" d="M539.31162,206.76115q.28971.25856.56341.5251v35.35524c-3.92148-3.89116-10.6568-6.70979-18.59236-7.53654h0a46.7835,46.7835,0,0,0-10.893.14684,35.3765,35.3765,0,0,0-13.42272,4.39232,16.21344,16.21344,0,0,0-6.772,7.01941V206.06687a16.21338,16.21338,0,0,1,6.772-7.01941,35.37633,35.37633,0,0,1,13.42272-4.39233q1.719-.22982,3.5145-.32718c.15483-.008.31124-.016.46765-.02235.68629-.03192,1.38218-.04628,2.08283-.04628a46.31792,46.31792,0,0,1,4.828.249v5.31643q.53389.05507,1.0598.1213c.233.02873.46443.05906.69427.09258.091.01276.182.02553.27132.0399.1245.01755.249.0367.37187.05585.15324.024.30487.04948.45489.075l.35911.06225c.0814.01277.1628.02873.2442.0431.10693.02075.21387.0399.32081.06065.15321.02873.30483.059.45645.08938.30327.06225.60491.12608.90338.19471.14843.03352.29685.06863.44529.10375q.17715.04069.35432.08618c.04789.01117.09576.024.142.03512.12769.03192.25538.06543.38145.099.14525.03671.29048.07661.43412.11651.14365.0383.2857.0798.42775.1197q.42855.1245.84592.25538c.13883.04308.27771.08778.41654.13246.13728.04629.27452.091.41179.13886.12131.0415.2442.083.36551.12609l.0798.02873.2825.10055c.19471.07183.38623.14524.57615.21866.099.0383.19631.07661.29529.11491.12927.05267.25854.10375.38782.158.1277.05267.25539.10694.38306.1612.12607.05427.25217.10853.37666.1644.099.04308.19472.08618.29209.13087.30324.13886.60012.27931.89059.42455.08617.04309.17077.08618.25536.12768.1261.06544.249.12928.37189.19472.17874.09576.35592.19153.53148.29048.067.03671.13406.07342.19951.11172.12288.06864.24258.13886.36228.21068.024.01437.04789.02873.07184.0415.08459.05107.16757.10055.25057.15162.075.04629.15.09258.22505.14046q.87144.54583,1.6519,1.14117c.08619.06544.17239.13247.257.19791.01594.01436.03191.02553.04787.0383.09256.07342.18355.14684.27294.22186.1181.09576.23461.19311.34792.29207C539.14085,206.60953,539.22705,206.68454,539.31162,206.76115Z" transform="translate(-86.95136 -3.81725)"/><path class="cls-32" d="M479.586,228.18648a24.37925,24.37925,0,0,1-2.67178-2.96865l-.0415.01277v35.2006c4.15132,5.52551,11.67509,10.0104,21.071,12.58961V237.75158C490.329,235.66235,483.94318,232.32023,479.586,228.18648Z" transform="translate(-86.95136 -3.81725)"/><path class="cls-33" d="M513.89139,185.10758q-1.77162.05747-3.50174.19791c-10.885.881-20.4645,4.10982-27.15671,8.77028a26.22053,26.22053,0,0,0-7.33544,7.38969l14.29739,4.60141a16.21338,16.21338,0,0,1,6.772-7.01941,35.37633,35.37633,0,0,1,13.42272-4.39233,46.78415,46.78415,0,0,1,10.893-.14683Z" transform="translate(-86.95136 -3.81725)"/><path class="cls-34" d="M491.052,220.72974l-1.46039.46286-12.67739,4.02523a24.37925,24.37925,0,0,0,2.67178,2.96865c4.35721,4.13375,10.743,7.47587,18.35772,9.5651l3.02132-5.74736,1.70139-3.23678C497.36434,226.94954,493.22738,224.11656,491.052,220.72974Z" transform="translate(-86.95136 -3.81725)"/><polygon class="cls-35" points="415.715 224.95 415.715 260.221 412.785 265.796 410.992 269.206 410.992 233.934 414.014 228.187 415.715 224.95"/><polygon class="cls-36" points="464.429 196.826 452.923 203.469 452.923 238.825 464.429 232.22 464.429 196.826"/><polygon class="cls-37" points="483.434 207.958 480.068 209.9 472.304 214.383 465.848 218.11 440.787 232.58 434.245 236.356 426.461 240.851 419.592 244.817 410.016 239.288 416.743 235.403 425.022 230.625 430.802 227.286 456.563 212.414 462.358 209.068 470.654 204.279 473.857 202.429 483.434 207.958"/><polygon class="cls-38" points="410.016 239.288 410.016 274.378 419.592 279.906 419.592 244.817 410.016 239.288"/><polygon class="cls-39" points="483.434 207.957 483.434 243.047 480.068 244.99 472.304 249.473 465.848 253.2 440.787 267.669 434.245 271.446 426.461 275.94 419.592 279.906 419.592 244.816 426.461 240.85 434.245 236.356 440.787 232.579 465.848 218.11 472.304 214.383 480.068 209.899 480.23 209.805 483.434 207.957"/><path class="cls-40" d="M597.82108,272.6598c0,5.33718-2.91278,10.34717-7.87009,14.39953V252.56927c4.48489-3.66771,7.29552-8.06481,7.79029-12.82263C597.794,240.24939,597.82108,272.14907,597.82108,272.6598Z" transform="translate(-86.95136 -3.81725)"/><path class="cls-41" d="M581.85105,238.2288c0,.51074-.0415,32.41307-.12609,32.911-1.0454-6.28842-8.50692-11.4942-18.55084-13.3919V223.32172q1.9296.36151,3.72356.88422C575.76533,226.78355,581.85105,232.09519,581.85105,238.2288Z" transform="translate(-86.95136 -3.81725)"/><polygon class="cls-42" points="503 248.752 503 283.242 500.706 281.718 491.443 276.571 491.443 242.081 503 248.752"/><path class="cls-43" d="M569.05162,251.51749l11.4612,6.61722q-1.51305.65357-3.12825,1.23054a67.86043,67.86043,0,0,1-22.6479,3.70921c-14.99964,0-28.20853-4.42424-35.927-11.13721a27.26273,27.26273,0,0,1-1.97591-1.8945l11.15158-6.43686,1.00232-.57937v.0016c3.52246,6.29321,13.73237,10.84354,25.77934,10.84354A42.55376,42.55376,0,0,0,569.05162,251.51749Z" transform="translate(-86.95136 -3.81725)"/><path class="cls-44" d="M577.37573,259.40355q1.61361-.577,3.12825-1.23055v34.4278h-.0016a65.83269,65.83269,0,0,1-25.77455,4.92079c-16.37064,0-30.60739-5.3174-37.90291-13.079V250.081a27.265,27.265,0,0,0,1.97591,1.89451c7.71848,6.713,20.92736,11.13721,35.927,11.13721A67.86034,67.86034,0,0,0,577.37573,259.40355Z" transform="translate(-86.95136 -3.81725)"/><path class="cls-45" d="M597.81817,238.23626a14.47108,14.47108,0,0,1-.0798,1.51464c-.49477,4.75782-3.30541,9.15492-7.79029,12.82263l-11.557-6.67147a11.64283,11.64283,0,0,0,3.33095-6.15435,9.037,9.037,0,0,0,.12609-1.51465c0-6.1336-6.08572-11.44525-14.95337-14.02286q-1.79076-.51951-3.72357-.88422v-.00158l8.53406-4.92541,3.54164-2.04454C588.69039,220.56483,597.81817,228.78606,597.81817,238.23626Z" transform="translate(-86.95136 -3.81725)"/><path class="cls-46" d="M479.586,224.479a24.37925,24.37925,0,0,1-2.67178-2.96865l-.0415.01277v3.80338c4.15132,5.52551,11.67509,10.0104,21.071,12.58961v-3.872C490.329,231.95488,483.94318,228.61276,479.586,224.479Z" transform="translate(-86.95136 -3.81725)"/><path class="cls-47" d="M491.052,217.02227l-1.46039.46286-12.67739,4.02523A24.37925,24.37925,0,0,0,479.586,224.479c4.35721,4.13375,10.743,7.47587,18.35772,9.5651l3.02132-5.74736L502.6664,225.06C497.36434,223.24207,493.22738,220.40909,491.052,217.02227Z" transform="translate(-86.95136 -3.81725)"/><polygon class="cls-48" points="388.946 193.941 388.946 203.145 403.244 207.747 403.244 198.542 388.946 193.941"/><path class="cls-49" d="M516.5169,186.683q-1.27846,0-2.53614.04309l.38944,3.856.0016.016.53467,5.27972.008.03033q.80919-.03113,1.63275-.03033a46.35276,46.35276,0,0,1,4.73546.23941q.53389.05507,1.0598.1213c.233.02873.46443.05906.69427.09258.091.01276.182.02553.27132.0399.1245.01755.249.0367.37187.05585.15164.024.30487.04948.45489.075l.35911.06225c.0814.01277.1628.02873.2442.0431.10693.02075.21387.0399.32081.06065.15321.02873.30483.059.45645.08938.30327.06225.60491.12608.90338.19471.14843.03352.29685.06863.44529.10375.1181.02713.23781.05585.35432.08618.04789.01117.09576.02394.142.03512.12769.03192.25538.06383.38145.099.14525.03671.29048.07661.43412.11651.14365.0383.2857.0798.42775.1197q.42855.1245.84592.25538c.13883.04308.27771.08778.41654.13246.13728.04629.27452.091.41179.13886.1229.0399.2442.083.36551.12609l.0798.02873c.09574.03351.18832.067.2825.10055.19471.07182.38623.14524.57615.21866.099.0383.19631.07661.29529.11491.12927.05267.25854.10375.38782.158.1277.05267.25539.10694.38306.1612.12607.05427.25217.10853.37666.1644.099.04308.19472.08618.29209.13087.30324.13886.60012.27931.89059.42455.08617.04309.17077.08618.25536.12768.1261.06544.249.12928.37189.19472.17874.09576.35592.19153.53148.29048.067.03671.13406.07341.19951.11172.12288.06864.24258.13886.36228.21068.024.01437.04789.02873.07184.0415.08459.05107.16757.10055.25057.15162.075.04628.15.09258.22505.14046q.87144.54583,1.6519,1.14117c.08619.06544.17239.13247.257.19791.01594.01436.03191.02553.04787.0383.09256.07342.18355.14684.27294.22186.1181.09576.23461.19311.34792.29207.08779.075.174.15.25856.22664q.28971.25855.56341.5251l11.5059-6.64275C543.54752,190.72263,530.84938,186.683,516.5169,186.683Z" transform="translate(-86.95136 -3.81725)"/><path class="cls-50" d="M513.89139,181.40011q-1.77162.05747-3.50174.19791c-10.885.881-20.4645,4.10982-27.15671,8.77028a26.22053,26.22053,0,0,0-7.33544,7.38969l14.29739,4.60141a16.21338,16.21338,0,0,1,6.772-7.01941,35.37633,35.37633,0,0,1,13.42272-4.39233,46.78415,46.78415,0,0,1,10.893-.14683Z" transform="translate(-86.95136 -3.81725)"/><polygon class="cls-51" points="415.715 221.243 415.715 225.115 412.785 230.69 410.992 234.099 410.992 230.227 414.014 224.479 415.715 221.243"/><path class="cls-52" d="M539.31162,203.05368q.28971.25855.56341.5251v3.963c-3.92148-3.89116-10.6568-6.71616-18.59236-7.54291v.00638a46.78415,46.78415,0,0,0-10.893.14683,35.37667,35.37667,0,0,0-13.42272,4.39232,16.21354,16.21354,0,0,0-6.772,7.01941V202.3594a16.21338,16.21338,0,0,1,6.772-7.01941,35.37633,35.37633,0,0,1,13.42272-4.39233q1.719-.22982,3.5145-.32718c.15483-.008.31124-.016.46765-.02235.68629-.03192,1.38218-.04628,2.08283-.04628a46.31792,46.31792,0,0,1,4.828.249v5.31643q.53389.05507,1.0598.1213c.233.02873.46443.05906.69427.09258.091.01276.182.02553.27132.0399.1245.01755.249.0367.37187.05585.15324.024.30487.04948.45489.075l.35911.06225c.0814.01277.1628.02873.2442.0431.10693.02075.21387.0399.32081.06065.15321.02873.30483.059.45645.08938.30327.06225.60491.12608.90338.19471.14843.03352.29685.06863.44529.10375q.17715.0407.35432.08618c.04789.01117.09576.02394.142.03512.12769.03192.25538.06543.38145.099.14525.03671.29048.07661.43412.11651.14365.0383.2857.0798.42775.1197q.42855.1245.84592.25538c.13883.04308.27771.08778.41654.13246.13728.04629.27452.091.41179.13886.12131.0415.2442.083.36551.12609l.0798.02873.2825.10055c.19471.07182.38623.14524.57615.21866.099.0383.19631.07661.29529.11491.12927.05267.25854.10375.38782.158.1277.05267.25539.10694.38306.1612.12607.05427.25217.10853.37666.1644.099.04308.19472.08618.29209.13087.30324.13886.60012.27931.89059.42455.08617.04309.17077.08618.25536.12768.1261.06544.249.12928.37189.19472.17874.09576.35592.19153.53148.29048.067.03671.13406.07341.19951.11172.12288.06864.24258.13886.36228.21068.024.01437.04789.02873.07184.0415.08459.05107.16757.10055.25057.15162.075.04628.15.09258.22505.14046q.87144.54583,1.6519,1.14117c.08619.06544.17239.13247.257.19791.01594.01436.03191.02553.04787.0383.09256.07342.18355.14684.27294.22186.1181.09576.23461.19311.34792.29207C539.14085,202.90206,539.22705,202.97707,539.31162,203.05368Z" transform="translate(-86.95136 -3.81725)"/><polygon class="cls-53" points="483.434 204.25 480.068 206.193 472.304 210.676 465.848 214.403 440.787 228.872 434.245 232.649 426.461 237.143 419.592 241.109 410.016 235.581 416.743 231.696 425.022 226.917 430.802 223.578 456.563 208.706 462.358 205.361 470.654 200.571 473.857 198.721 483.434 204.25"/><polygon class="cls-54" points="410.016 235.581 410.016 239.278 419.592 244.807 419.592 241.109 410.016 235.581"/><polygon class="cls-55" points="483.434 204.25 483.434 207.948 480.068 209.89 472.304 214.373 465.848 218.1 440.787 232.57 434.245 236.346 426.461 240.841 419.592 244.807 419.592 241.109 426.461 237.143 434.245 232.648 440.787 228.872 465.848 214.402 472.304 210.675 480.068 206.192 480.23 206.098 483.434 204.25"/><polygon class="cls-56" points="464.429 193.119 452.923 199.762 452.923 203.725 464.429 197.12 464.429 193.119"/><path class="cls-57" d="M569.05162,247.81l11.4612,6.61721q-1.51305.65358-3.12825,1.23055a67.86043,67.86043,0,0,1-22.6479,3.70921c-14.99964,0-28.20853-4.42424-35.927-11.13721a27.26273,27.26273,0,0,1-1.97591-1.8945l11.15158-6.43686,1.00232-.57937v.0016c3.52246,6.29321,13.73237,10.84354,25.77934,10.84354A42.55376,42.55376,0,0,0,569.05162,247.81Z" transform="translate(-86.95136 -3.81725)"/><path class="cls-58" d="M597.81817,234.52879a14.47108,14.47108,0,0,1-.0798,1.51464c-.49477,4.75782-3.30541,9.15492-7.79029,12.82263l-11.557-6.67147a11.64283,11.64283,0,0,0,3.33095-6.15435,9.037,9.037,0,0,0,.12609-1.51465c0-6.1336-6.08572-11.44525-14.95337-14.02286q-1.79076-.51951-3.72357-.88422v-.00158l8.53406-4.92541,3.54164-2.04454C588.69039,216.85735,597.81817,225.07859,597.81817,234.52879Z" transform="translate(-86.95136 -3.81725)"/><path class="cls-59" d="M577.37573,255.69608q1.61361-.577,3.12825-1.23055v3.03567h-.0016a65.82682,65.82682,0,0,1-25.77455,4.93977c-16.37064,0-30.60739-5.27015-37.90291-13.03171v-3.03569a27.265,27.265,0,0,0,1.97591,1.89451c7.71848,6.713,20.92736,11.13721,35.927,11.13721A67.86034,67.86034,0,0,0,577.37573,255.69608Z" transform="translate(-86.95136 -3.81725)"/><path class="cls-60" d="M597.82108,237.5602c0,5.33718-2.91278,10.28492-7.87009,14.33729V248.8618c4.48489-3.66771,7.29552-8.06481,7.79029-12.82263A14.59333,14.59333,0,0,1,597.82108,237.5602Z" transform="translate(-86.95136 -3.81725)"/><path class="cls-61" d="M581.85105,234.52133a9.037,9.037,0,0,1-.12609,1.51465c-1.0454-6.28842-8.50692-11.48994-18.55084-13.38764v-3.03409q1.9296.36151,3.72356.88422C575.76533,223.07608,581.85105,228.38772,581.85105,234.52133Z" transform="translate(-86.95136 -3.81725)"/><polygon class="cls-62" points="503 245.045 503 248.08 500.706 246.756 491.443 241.409 491.443 238.373 503 245.045"/><path class="cls-63" d="M643.02709,66.50114v202.525a6.13682,6.13682,0,0,1-3.00609,5.303l-22.92965,13.78374-16.854,10.134-49.91738,30.03629a23.53449,23.53449,0,0,1-24.17454.0215l-49.42363-29.521-16.983-10.134-23.209-13.86943a6.06651,6.06651,0,0,1-2.98407-4.8737V67.38148a6.06691,6.06691,0,0,0,2.98407,4.8737l23.209,13.86943,16.983,10.1337,49.42363,29.521a23.4848,23.4848,0,0,0,24.17454-.043l49.91738-30.0148,16.854-10.1552L640.021,71.7829A6.1035,6.1035,0,0,0,643.02709,66.50114Z" transform="translate(-86.95136 -3.81725)"/><polygon class="cls-64" points="294.39 907.518 539.175 992.365 574.921 794.693 330.914 791.844 294.39 907.518"/><path class="cls-65" d="M373.46287,887.19743s-2.45014,27.09474,14.63628,25.30558,17.5337-14.67106,17.5337-14.67106l.08946-8.94577Z" transform="translate(-86.95136 -3.81725)"/><path class="cls-65" d="M437.72622,820.32777s-.78233,7.39172,0,7.79428,47.21087,25.62963,47.21087,25.62963,14.69342,5.30037,21.20147-5.032-7.69562-20.8312-7.69562-20.8312Z" transform="translate(-86.95136 -3.81725)"/><path class="cls-66" d="M442.13989,794.52292s-5.51,15.81942-5.30872,23.33386,22.87885,12.211,31.73516,19.18868,20.39636,12.47934,28.98429,9.79561,9.25887-11.40585,4.56235-15.69982-29.521-25.36125-29.78941-28.31336a52.25035,52.25035,0,0,1-.02773-6.70932Z" transform="translate(-86.95136 -3.81725)"/><path class="cls-66" d="M378.20656,831.82548s-.93179,15.99963-2.45257,26.01889-4.47289,33.27826,0,38.91409,9.12468,10.73492,16.54967,8.409,13.41865-10.82438,13.41865-16.2813-.35783-23.259,0-25.76381,1.95187-23.32775.34973-28.57138S378.20656,831.82548,378.20656,831.82548Z" transform="translate(-86.95136 -3.81725)"/><path class="cls-67" d="M383.61766,557.356s5.28661,46.33908,5.64444,88.20528S373.87538,824.83448,374.591,828.77062s21.46984,10.37709,36.1409,4.294c2.147-1.78915,22.14068-104.12874,26.09923-145.27928s8.25252-93.036,8.25252-93.036,5.36746,56.89509,3.57831,79.43842-7.87161,119.51547-7.87161,119.51547,14.67039,10.37709,34.70891,1.07349c0,0,21.66864-109.13837,22.46382-125.95642s-1.3518-134.00761-1.3518-134.00761Z" transform="translate(-86.95136 -3.81725)"/><path class="cls-68" d="M496.61132,520.76782s3.04156,11.18221,0,14.04485a96.78293,96.78293,0,0,1-54.927,25.60713c-33.63609,3.91391-58.06664-3.06379-58.06664-3.06379l1.17155-11.80841s31.84694,11.98733,52.95895,7.15661S481.40351,547.8735,496.61132,520.76782Z" transform="translate(-86.95136 -3.81725)"/><path class="cls-69" d="M415.36133,377.44907s-30.93,13.33673-37.54982,23.71383-30.23669,46.16016-30.23669,46.16016-3.22048,12.61353,13.23973,19.59123,19.05449,1.96807,19.05449,1.96807l8.23011-10.91384s.89458,55.8216-1.78916,63.87279-1.87861,27.9108-1.87861,27.9108,35.42525,11.27167,62.53092,2.41535,35.15687-10.19817,49.649-31.39964c0,0,3.48885-44.54993-2.68373-65.483l-.17892-9.75088s5.00963,10.01926,15.87874,7.20134,24.69032-9.9298,22.14078-17.981-25.62963-61.59162-25.62963-61.59162-5.77012-23.86344-26.3677-20.31838S415.36133,377.44907,415.36133,377.44907Z" transform="translate(-86.95136 -3.81725)"/><path class="cls-68" d="M422.6205,370.83674s-10.54669,5.54638-10.01,16.01293,12.25571,19.05448,27.10568,17.71262,24.243-14.40269,23.52737-19.41232-1.163-9.03523-8.94577-10.01926S422.6205,370.83674,422.6205,370.83674Z" transform="translate(-86.95136 -3.81725)"/><path class="cls-70" d="M422.6205,358.00608v21.06077s-3.03225,1.43132-2.22713,8.23011,12.43462,12.43461,20.3069,10.19817,17.17587-6.08312,16.997-12.34516a60.21382,60.21382,0,0,0-.80512-9.3036Z" transform="translate(-86.95136 -3.81725)"/><path class="cls-68" d="M478.71978,413.687c7.33217-.22218,10.91384,5.99367,10.28763,14.13432s-4.65179,14.49214-12.16624,13.95539-9.39306-5.1987-9.3036-11.3662S469.86347,413.95534,478.71978,413.687Z" transform="translate(-86.95136 -3.81725)"/><path class="cls-71" d="M407.78942,336.86978s3.12144,15.44922,12.60395,17.23837c1.78916,0,6.61987,23.79575,29.16321,23.79575s31.44427-18.07045,30.21428-29.34212.46414-32.65045-9.9549-40.03151-45.48645-6.48649-45.48645-6.48649-14.82892,13.63813-15.74455,14.67106S407.78942,336.86978,407.78942,336.86978Z" transform="translate(-86.95136 -3.81725)"/><polygon class="cls-72" points="286.37 472.609 237.345 539.373 237.537 544.641 288.072 487.235 291.318 473.805 286.37 472.609"/><path class="cls-73" d="M373.3211,476.42637s5.85316,1.12454,1.36326,7.58156-50.196,64.45031-50.196,64.45031l79.50718,19.21584,38.80991-63.516s7.32813-10.03741-.78947-11.70924S373.3211,476.42637,373.3211,476.42637Z" transform="translate(-86.95136 -3.81725)"/><polygon class="cls-72" points="288.681 483.796 250.19 532.908 250.424 536.845 290.274 494.743 292.686 484.764 288.681 483.796"/><path class="cls-74" d="M375.63226,487.61317s4.73333.92843,1.21335,5.68208S337.37578,540.662,337.37578,540.662l64.35565,15.55391,30.3094-46.84156s5.75269-7.38426-.81356-8.75568S375.63226,487.61317,375.63226,487.61317Z" transform="translate(-86.95136 -3.81725)"/><polygon class="cls-72" points="292.154 495.99 256.178 541.893 256.397 545.573 293.643 506.222 295.898 496.895 292.154 495.99"/><path class="cls-75" d="M379.10536,499.8072s4.42408.86777,1.13408,5.31084-36.891,44.272-36.891,44.272l60.15092,14.53768,28.32911-43.78113s5.37683-6.90179-.76041-8.18361S379.10536,499.8072,379.10536,499.8072Z" transform="translate(-86.95136 -3.81725)"/><path class="cls-76" d="M427.04643,322.32694s4.55152,6.82252,3.6793,11.9887-5.9713,4.294-8.52084,1.27477a8.65155,8.65155,0,0,0-8.18538-3.48885c-3.35466.20128-3.28757,5.33765-4.62943,5.92285s-6.81544-8.49659-8.03716-16.87115S427.04643,322.32694,427.04643,322.32694Z" transform="translate(-86.95136 -3.81725)"/><path class="cls-77" d="M476.39388,295.96066c0,6.9777-9.12468,19.85961-25.04815,19.85961s-23.97466,5.9042-27.19514,8.76685-23.259,4.294-25.58489-9.48251,2.3259-26.83731,9.12468-33.815,17.89154-11.09275,34.17284-11.09275S476.39388,278.78479,476.39388,295.96066Z" transform="translate(-86.95136 -3.81725)"/><path class="cls-71" d="M336.668,471.64915s-12.3522,12.53048-10.92088,23.62323,50.45414,56.00051,50.45414,56.00051,20.93309,10.73492,35.60415,8.94577,16.46022-11.98733,15.20781-15.20781-8.05119-6.08312-8.05119-6.08312-16.46021-.71566-23.259-6.441-35.24633-41.50836-35.24633-41.50836l4.47289-3.04156Z" transform="translate(-86.95136 -3.81725)"/><path class="cls-71" d="M539.36555,455.02436s.54329,6.61193,2.86919,6.61193,70.85048-28.80537,70.85048-28.80537,10.73492-1.43133,8.23011,7.33553-11.80842,19.50177-24.51141,24.86923-53.13786,26.65839-68.16675,26.12165-20.02776-13.69455-22.00121-22.234S539.36555,455.02436,539.36555,455.02436Z" transform="translate(-86.95136 -3.81725)"/><path class="cls-68" d="M371.38051,486.42681s-2.061,4.18652-9.12469,2.57628c-14.77113-3.64977-28.6407-20.2889-29.62836-22.43588-.96617-2.147,6.54828-14.85723,9.232-18.52849a5.60551,5.60551,0,0,1,6.59126-2.03953c-.55811.85859-.88021,1.33086-.88021,1.33086s-3.22047,12.603,13.24686,19.58075,19.04374,1.97506,19.04374,1.97506l1.11647-1.4813c.70855.79438,1.54577,1.76042,2.38312,2.81242C385.701,473.07237,371.38051,486.42681,371.38051,486.42681Z" transform="translate(-86.95136 -3.81725)"/><path class="cls-68" d="M540.82061,453.14856c-1.48143,3.00583-18.44266,18.1634-28.85548,16.23106a69.6161,69.6161,0,0,1-9.18915-1.009s-9.51113-18.85058-8.18-19.32286c.12881-.043.55824-.25763,1.24529-.57973a13.18606,13.18606,0,0,0,13.7836,4.27248c10.86374-2.81241,24.69032-9.94028,22.13541-17.99148-.27912-.8591-.77289-2.25443-1.45994-4.0366,0,0,3.13465-1.26665,4.294,1.35287C535.73227,434.68454,542.302,450.12123,540.82061,453.14856Z" transform="translate(-86.95136 -3.81725)"/><polygon class="cls-78" points="520.23 409.864 459.041 470.79 523.45 432.95 584.639 370.151 520.23 409.864"/><path class="cls-79" d="M671.59055,373.96776h0a3.19317,3.19317,0,0,0-4.83441-2.73909l-55.98172,33.5437a50.46894,50.46894,0,0,0-9.95612,7.816L547.237,466.80425a6.27836,6.27836,0,0,0-1.683,5.68362l.438,2.11978L607.181,413.6812Z" transform="translate(-86.95136 -3.81725)"/></svg>